mtllib converted_link3_1_d12626ff.mtl
usemtl material
v 0.00013423615018837154 -0.0007153115002438426 -2.1239773559500463e-05
v 0.00013423615018837154 -0.0007153115002438426 -2.1239773559500463e-05
v 0.00013423615018837154 -0.0007153115002438426 -2.1239773559500463e-05
v 0.00013423615018837154 -0.0007153115002438426 -2.1239773559500463e-05
v 0.00013423615018837154 -0.0007153115002438426 -2.1239773559500463e-05
v 0.00013423615018837154 -0.0007153115002438426 -2.1239773559500463e-05
v 0.00013423615018837154 -0.0007153115002438426 -2.1239773559500463e-05
v -7.121360249584541e-05 -0.0006959921447560191 -4.788890691997949e-06
v -0.0003898004360962659 -0.0005529447225853801 2.2331221771310084e-05
v -0.0003898004360962659 -0.0005529447225853801 2.2331221771310084e-05
v -0.0003898004360962659 -0.0005529447225853801 2.2331221771310084e-05
v -0.0003898004360962659 -0.0005529447225853801 2.2331221771310084e-05
v -0.0003898004360962659 -0.0005529447225853801 2.2331221771310084e-05
v -0.0003898004360962659 -0.0005529447225853801 2.2331221771310084e-05
v -0.0003898004360962659 -0.0005529447225853801 2.2331221771310084e-05
v -0.0003898004360962659 -0.0005529447225853801 2.2331221771310084e-05
v -0.0003898004360962659 -0.0005529447225853801 2.2331221771310084e-05
v -0.0003898004360962659 -0.0005529447225853801 2.2331221771310084e-05
v -4.8154059186344966e-05 0.0008598678978160024 1.6611038518021815e-05
v -4.8154059186344966e-05 0.0008598678978160024 1.6611038518021815e-05
v -4.8154059186344966e-05 0.0008598678978160024 1.6611038518021815e-05
v 0.00016493999282829463 0.0008185581536963582 -6.798955496378767e-07
v 0.00017363482038490474 0.0008136072428897023 -1.4491680531136808e-06
v 0.00017363482038490474 0.0008136072428897023 -1.4491680531136808e-06
v 0.00017363482038490474 0.0008136072428897023 -1.4491680531136808e-06
v -0.00018410480697639287 0.0008537286194041371 2.7220665288041346e-05
v -0.00018410480697639287 0.0008537286194041371 2.7220665288041346e-05
v -0.0006573135033249855 -0.0002084335865220055 4.843992064706981e-05
v -0.0007322961464524269 9.030861838255078e-05 5.881112883798778e-05
v -0.0007322961464524269 9.030861838255078e-05 5.881112883798778e-05
v -0.0006967047229409218 0.0003971570695284754 6.060113082639873e-05
v -0.0006967047229409218 0.0003971570695284754 6.060113082639873e-05
v -0.0005618864670395851 0.0006595255108550191 5.392168532125652e-05
v -0.0005618864670395851 0.0006595255108550191 5.392168532125652e-05
v -0.00031714237411506474 0.0008240976603701711 3.717091749422252e-05
v -0.00031714237411506474 0.0008240976603701711 3.717091749422252e-05
v 0.00018257551710121334 0.000809434917755425 -2.229616256954614e-06
v 0.00018257551710121334 0.000809434917755425 -2.229616256954614e-06
v 0.00018257551710121334 0.000809434917755425 -2.229616256954614e-06
v 0.0004040067724417895 0.0006930270465090871 -2.1358982849051245e-05
v 0.0004040067724417895 0.0006930270465090871 -2.1358982849051245e-05
v 0.0005789464339613914 0.0005140380235388875 -3.774839569814503e-05
v 0.0005789464339613914 0.0005140380235388875 -3.774839569814503e-05
v 0.0005786558613181114 -0.000491432729177177 -5.270916153676808e-05
v 0.00033081971923820674 -0.0006750746397301555 -3.6019860999658704e-05
v 0.00033081971923820674 -0.0006750746397301555 -3.6019860999658704e-05
v 0.0007167598232626915 -0.00019466491357889026 -5.91483258176595e-05
v 0.0007167598232626915 -0.00019466491357889026 -5.91483258176595e-05
v 0.0007167598232626915 -0.00019466491357889026 -5.91483258176595e-05
v 0.0007233759388327599 0.0001903885422507301 -5.389939178712666e-05
v 0.0007233759388327599 0.0001903885422507301 -5.389939178712666e-05
f 1 8 10
f 21 22 23
f 9 26 20
f 28 29 12
f 14 30 31
f 32 33 17
f 18 34 36
f 11 35 27
f 19 24 16
f 15 25 39
f 13 38 2
f 5 37 41
f 3 40 42
f 44 45 47
f 48 46 4
f 49 7 50
f 51 6 43
