mtllib converted_link2_21_969696ff.mtl
usemtl material
v -0.002075277967378497 0.0026662300806492567 -5.0010159611701965e-05
v -0.002075277967378497 0.0026662300806492567 -5.0010159611701965e-05
v -0.002075277967378497 0.0026662300806492567 5.0010159611701965e-05
v -0.002075277967378497 0.0026662300806492567 5.0010159611701965e-05
v -0.002075277967378497 0.0026662300806492567 5.0010159611701965e-05
v -0.0019167893333360553 0.0029107301961630583 5.0010159611701965e-05
v -0.0019167893333360553 0.0029107301961630583 5.0010159611701965e-05
v -0.0019167893333360553 0.0029107301961630583 5.0010159611701965e-05
v -0.0019167893333360553 0.0029107301961630583 -5.0010159611701965e-05
v -0.0019167893333360553 0.0029107301961630583 -5.0010159611701965e-05
v -0.0017194830579683185 0.0031144602689892054 5.0010159611701965e-05
v -0.0017194830579683185 0.0031144602689892054 5.0010159611701965e-05
v -0.0017194830579683185 0.0031144602689892054 5.0010159611701965e-05
v -0.0017194830579683185 0.0031144602689892054 -5.0010159611701965e-05
v -0.0017194830579683185 0.0031144602689892054 -5.0010159611701965e-05
v -0.001485177199356258 0.003278010291978717 5.0010159611701965e-05
v -0.001485177199356258 0.003278010291978717 5.0010159611701965e-05
v -0.001485177199356258 0.003278010291978717 5.0010159611701965e-05
v -0.001485177199356258 0.003278010291978717 -5.0010159611701965e-05
v -0.001485177199356258 0.003278010291978717 -5.0010159611701965e-05
v -0.001485177199356258 0.003278010291978717 -5.0010159611701965e-05
v -0.0012201749486848712 0.0033950202632695436 5.0010159611701965e-05
v -0.0012201749486848712 0.0033950202632695436 5.0010159611701965e-05
v -0.0012201749486848712 0.0033950202632695436 -5.0010159611701965e-05
v -0.0012201749486848712 0.0033950202632695436 -5.0010159611701965e-05
v -0.0012201749486848712 0.0033950202632695436 -5.0010159611701965e-05
v -0.0012201749486848712 0.0033950202632695436 -5.0010159611701965e-05
v -0.0011516892118379474 0.003415880026295781 5.0010159611701965e-05
v -0.0011516892118379474 0.003415880026295781 5.0010159611701965e-05
v -0.0011516892118379474 0.003415880026295781 5.0010159611701965e-05
v -0.0011516892118379474 0.003415880026295781 -5.0010159611701965e-05
v -0.0011516892118379474 0.003415880026295781 -5.0010159611701965e-05
v -0.0011516892118379474 0.003415880026295781 -5.0010159611701965e-05
v -0.0008611761149950325 0.0034665402490645647 5.0010159611701965e-05
v -0.0008611761149950325 0.0034665402490645647 5.0010159611701965e-05
v -0.0008611761149950325 0.0034665402490645647 5.0010159611701965e-05
v -0.0008611761149950325 0.0034665402490645647 -5.0010159611701965e-05
v -0.0008611761149950325 0.0034665402490645647 -5.0010159611701965e-05
v -0.0008611761149950325 0.0034665402490645647 -5.0010159611701965e-05
v -0.0005650751409120858 0.0034588503185659647 5.0010159611701965e-05
v -0.0005650751409120858 0.0034588503185659647 5.0010159611701965e-05
v -0.0005650751409120858 0.0034588503185659647 5.0010159611701965e-05
v -0.0005650751409120858 0.0034588503185659647 -5.0010159611701965e-05
v -0.0005650751409120858 0.0034588503185659647 -5.0010159611701965e-05
v -0.0005650751409120858 0.0034588503185659647 -5.0010159611701965e-05
v -0.00027518795104697347 0.003391920356079936 5.0010159611701965e-05
v -0.00027518795104697347 0.003391920356079936 5.0010159611701965e-05
v -0.00027518795104697347 0.003391920356079936 5.0010159611701965e-05
v -0.00027518795104697347 0.003391920356079936 -5.0010159611701965e-05
v -0.00027518795104697347 0.003391920356079936 -5.0010159611701965e-05
v -0.00027518795104697347 0.003391920356079936 -5.0010159611701965e-05
v -6.728695734636858e-05 0.0033032300416380167 5.0010159611701965e-05
v -6.728695734636858e-05 0.0033032300416380167 5.0010159611701965e-05
v -6.728695734636858e-05 0.0033032300416380167 5.0010159611701965e-05
v -6.728695734636858e-05 0.0033032300416380167 -5.0010159611701965e-05
v -6.728695734636858e-05 0.0033032300416380167 -5.0010159611701965e-05
v 0.0001771218958310783 0.0031447403598576784 5.0010159611701965e-05
v 0.0001771218958310783 0.0031447403598576784 5.0010159611701965e-05
v 0.0001771218958310783 0.0031447403598576784 5.0010159611701965e-05
v 0.0001771218958310783 0.0031447403598576784 -5.0010159611701965e-05
v 0.0001771218958310783 0.0031447403598576784 -5.0010159611701965e-05
v 0.0001771218958310783 0.0031447403598576784 -5.0010159611701965e-05
v 0.0001771218958310783 0.0031447403598576784 -5.0010159611701965e-05
v 0.0001771218958310783 0.0031447403598576784 -5.0010159611701965e-05
v 0.0001771218958310783 0.0031447403598576784 -5.0010159611701965e-05
v 0.0001771218958310783 0.0031447403598576784 -5.0010159611701965e-05
v 0.0001771218958310783 0.0031447403598576784 -5.0010159611701965e-05
v 0.0003813125076703727 0.002946970285847783 5.0010159611701965e-05
v 0.0003813125076703727 0.002946970285847783 5.0010159611701965e-05
v 0.0003813125076703727 0.002946970285847783 5.0010159611701965e-05
v 0.0003813125076703727 0.002946970285847783 5.0010159611701965e-05
v 0.0003813125076703727 0.002946970285847783 -5.0010159611701965e-05
v 0.0003813125076703727 0.002946970285847783 -5.0010159611701965e-05
v 0.0003813125076703727 0.002946970285847783 -5.0010159611701965e-05
v 0.000545418995898217 0.0027116502169519663 5.0010159611701965e-05
v 0.000545418995898217 0.0027116502169519663 5.0010159611701965e-05
v 0.000545418995898217 0.0027116502169519663 5.0010159611701965e-05
v 0.000545418995898217 0.0027116502169519663 -5.0010159611701965e-05
v 0.000545418995898217 0.0027116502169519663 -5.0010159611701965e-05
v 0.000545418995898217 0.0027116502169519663 -5.0010159611701965e-05
v 0.0006635106983594596 0.0024427103344351053 5.0010159611701965e-05
v 0.0006635106983594596 0.0024427103344351053 5.0010159611701965e-05
v 0.0006635106983594596 0.0024427103344351053 5.0010159611701965e-05
v 0.0006635106983594596 0.0024427103344351053 -5.0010159611701965e-05
v 0.0006635106983594596 0.0024427103344351053 -5.0010159611701965e-05
v 0.0006635106983594596 0.0024427103344351053 -5.0010159611701965e-05
v 0.0007269151392392814 0.002155180322006345 5.0010159611701965e-05
v 0.0007269151392392814 0.002155180322006345 5.0010159611701965e-05
v 0.0007269151392392814 0.002155180322006345 5.0010159611701965e-05
v 0.0007269151392392814 0.002155180322006345 -5.0010159611701965e-05
v 0.0007269151392392814 0.002155180322006345 -5.0010159611701965e-05
v 0.0007269151392392814 0.002155180322006345 -5.0010159611701965e-05
v 0.0007323242607526481 0.0018589497776702046 5.0010159611701965e-05
v 0.0007323242607526481 0.0018589497776702046 5.0010159611701965e-05
v 0.0007323242607526481 0.0018589497776702046 5.0010159611701965e-05
v 0.0007323242607526481 0.0018589497776702046 5.0010159611701965e-05
v 0.0007323242607526481 0.0018589497776702046 -5.0010159611701965e-05
v 0.0007323242607526481 0.0018589497776702046 -5.0010159611701965e-05
v 0.0006782181444577873 0.0015659901546314359 5.0010159611701965e-05
v 0.0006782181444577873 0.0015659901546314359 5.0010159611701965e-05
v 0.0006782181444577873 0.0015659901546314359 5.0010159611701965e-05
v 0.0006782181444577873 0.0015659901546314359 -5.0010159611701965e-05
v 0.0006782181444577873 0.0015659901546314359 -5.0010159611701965e-05
v 0.0006382234278135002 0.0014469596790149808 5.0010159611701965e-05
v 0.0006382234278135002 0.0014469596790149808 5.0010159611701965e-05
v 0.0006382234278135002 0.0014469596790149808 5.0010159611701965e-05
v 0.0006382234278135002 0.0014469596790149808 -5.0010159611701965e-05
v 0.0006382234278135002 0.0014469596790149808 -5.0010159611701965e-05
v 0.0005157209816388786 0.0010480202035978436 5.0010159611701965e-05
v 0.0005157209816388786 0.0010480202035978436 5.0010159611701965e-05
v 0.0005157209816388786 0.0010480202035978436 5.0010159611701965e-05
v 0.0005157209816388786 0.0010480202035978436 -5.0010159611701965e-05
v 0.0005157209816388786 0.0010480202035978436 -5.0010159611701965e-05
v 0.0004497237387113273 0.0006431901711039245 5.0010159611701965e-05
v 0.0004497237387113273 0.0006431901711039245 5.0010159611701965e-05
v 0.0004497237387113273 0.0006431901711039245 5.0010159611701965e-05
v 0.0004497237387113273 0.0006431901711039245 -5.0010159611701965e-05
v 0.0004497237387113273 0.0006431901711039245 -5.0010159611701965e-05
v 0.0004392184200696647 0.0002317998296348378 5.0010159611701965e-05
v 0.0004392184200696647 0.0002317998296348378 5.0010159611701965e-05
v 0.0004392184200696647 0.0002317998296348378 5.0010159611701965e-05
v 0.0004392184200696647 0.0002317998296348378 5.0010159611701965e-05
v 0.0004392184200696647 0.0002317998296348378 -5.0010159611701965e-05
v 0.0004392184200696647 0.0002317998296348378 -5.0010159611701965e-05
v 0.0004850245895795524 -0.00017970970657188445 5.0010159611701965e-05
v 0.0004850245895795524 -0.00017970970657188445 5.0010159611701965e-05
v 0.0004850245895795524 -0.00017970970657188445 5.0010159611701965e-05
v 0.0004850245895795524 -0.00017970970657188445 -5.0010159611701965e-05
v 0.0004850245895795524 -0.00017970970657188445 -5.0010159611701965e-05
v 0.0004850245895795524 -0.00017970970657188445 -5.0010159611701965e-05
v 0.0004850245895795524 -0.00017970970657188445 -5.0010159611701965e-05
v 0.0005735225859098136 -0.0005407899734564126 5.0010159611701965e-05
v 0.0005735225859098136 -0.0005407899734564126 5.0010159611701965e-05
v 0.0005735225859098136 -0.0005407899734564126 5.0010159611701965e-05
v 0.0005735225859098136 -0.0005407899734564126 5.0010159611701965e-05
v 0.0005735225859098136 -0.0005407899734564126 -5.0010159611701965e-05
v 0.0005735225859098136 -0.0005407899734564126 -5.0010159611701965e-05
v 0.0005735225859098136 -0.0005407899734564126 -5.0010159611701965e-05
v 0.0005735225859098136 -0.0005407899734564126 -5.0010159611701965e-05
v 0.0007252164068631828 -0.0009319203090853989 5.0010159611701965e-05
v 0.0007252164068631828 -0.0009319203090853989 5.0010159611701965e-05
v 0.0007252164068631828 -0.0009319203090853989 5.0010159611701965e-05
v 0.0007252164068631828 -0.0009319203090853989 5.0010159611701965e-05
v 0.0007252164068631828 -0.0009319203090853989 -5.0010159611701965e-05
v 0.0007252164068631828 -0.0009319203090853989 -5.0010159611701965e-05
v 0.0009303159895353019 -0.0012996800942346454 5.0010159611701965e-05
v 0.0009303159895353019 -0.0012996800942346454 5.0010159611701965e-05
v 0.0009303159895353019 -0.0012996800942346454 5.0010159611701965e-05
v 0.0009303159895353019 -0.0012996800942346454 5.0010159611701965e-05
v 0.0009303159895353019 -0.0012996800942346454 -5.0010159611701965e-05
v 0.0009303159895353019 -0.0012996800942346454 -5.0010159611701965e-05
v 0.0009303159895353019 -0.0012996800942346454 -5.0010159611701965e-05
v 0.001184917171485722 -0.0016360896406695247 5.0010159611701965e-05
v 0.001184917171485722 -0.0016360896406695247 5.0010159611701965e-05
v 0.001184917171485722 -0.0016360896406695247 5.0010159611701965e-05
v 0.001184917171485722 -0.0016360896406695247 -5.0010159611701965e-05
v 0.001184917171485722 -0.0016360896406695247 -5.0010159611701965e-05
v 0.001184917171485722 -0.0016360896406695247 -5.0010159611701965e-05
v 0.001484713633544743 -0.0019345300970599055 5.0010159611701965e-05
v 0.001484713633544743 -0.0019345300970599055 5.0010159611701965e-05
v 0.001484713633544743 -0.0019345300970599055 5.0010159611701965e-05
v 0.001484713633544743 -0.0019345300970599055 5.0010159611701965e-05
v 0.001484713633544743 -0.0019345300970599055 5.0010159611701965e-05
v 0.001484713633544743 -0.0019345300970599055 5.0010159611701965e-05
v 0.001484713633544743 -0.0019345300970599055 -5.0010159611701965e-05
v 0.001484713633544743 -0.0019345300970599055 -5.0010159611701965e-05
v 0.001484713633544743 -0.0019345300970599055 -5.0010159611701965e-05
v 0.001484713633544743 -0.0019345300970599055 -5.0010159611701965e-05
v 0.001484713633544743 -0.0019345300970599055 -5.0010159611701965e-05
v 0.001753321965225041 -0.0021418898832052946 5.0010159611701965e-05
v 0.001753321965225041 -0.0021418898832052946 5.0010159611701965e-05
v 0.001753321965225041 -0.0021418898832052946 5.0010159611701965e-05
v 0.001753321965225041 -0.0021418898832052946 5.0010159611701965e-05
v 0.001753321965225041 -0.0021418898832052946 -5.0010159611701965e-05
v 0.001753321965225041 -0.0021418898832052946 -5.0010159611701965e-05
v 0.001753321965225041 -0.0021418898832052946 -5.0010159611701965e-05
v 0.0019388116197660565 -0.002303539542481303 5.0010159611701965e-05
v 0.0019388116197660565 -0.002303539542481303 5.0010159611701965e-05
v 0.0019388116197660565 -0.002303539542481303 5.0010159611701965e-05
v 0.0019388116197660565 -0.002303539542481303 -5.0010159611701965e-05
v 0.0019388116197660565 -0.002303539542481303 -5.0010159611701965e-05
v 0.0019388116197660565 -0.002303539542481303 -5.0010159611701965e-05
v 0.002078718738630414 -0.0024972602259367704 5.0010159611701965e-05
v 0.002078718738630414 -0.0024972602259367704 5.0010159611701965e-05
v 0.002078718738630414 -0.0024972602259367704 5.0010159611701965e-05
v 0.002078718738630414 -0.0024972602259367704 -5.0010159611701965e-05
v 0.002078718738630414 -0.0024972602259367704 -5.0010159611701965e-05
v 0.002172819571569562 -0.002720359480008483 5.0010159611701965e-05
v 0.002172819571569562 -0.002720359480008483 5.0010159611701965e-05
v 0.002172819571569562 -0.002720359480008483 5.0010159611701965e-05
v 0.002172819571569562 -0.002720359480008483 5.0010159611701965e-05
v 0.002172819571569562 -0.002720359480008483 5.0010159611701965e-05
v 0.002172819571569562 -0.002720359480008483 5.0010159611701965e-05
v 0.002172819571569562 -0.002720359480008483 5.0010159611701965e-05
v 0.002172819571569562 -0.002720359480008483 5.0010159611701965e-05
v 0.002172819571569562 -0.002720359480008483 5.0010159611701965e-05
v 0.002172819571569562 -0.002720359480008483 -5.0010159611701965e-05
v 0.002172819571569562 -0.002720359480008483 -5.0010159611701965e-05
v 0.002172819571569562 -0.002720359480008483 -5.0010159611701965e-05
v 0.002172819571569562 -0.002720359480008483 -5.0010159611701965e-05
v 0.002172819571569562 -0.002720359480008483 -5.0010159611701965e-05
v 0.002172819571569562 -0.002720359480008483 -5.0010159611701965e-05
v 0.002212918596342206 -0.002936539938673377 5.0010159611701965e-05
v 0.002212918596342206 -0.002936539938673377 5.0010159611701965e-05
v 0.002212918596342206 -0.002936539938673377 5.0010159611701965e-05
v 0.002212918596342206 -0.002936539938673377 5.0010159611701965e-05
v 0.002212918596342206 -0.002936539938673377 -5.0010159611701965e-05
v 0.002212918596342206 -0.002936539938673377 -5.0010159611701965e-05
v 0.002212918596342206 -0.002936539938673377 -5.0010159611701965e-05
v 0.002212918596342206 -0.002936539938673377 -5.0010159611701965e-05
v 0.002203813986852765 -0.0031866400968283415 5.0010159611701965e-05
v 0.002203813986852765 -0.0031866400968283415 5.0010159611701965e-05
v 0.002203813986852765 -0.0031866400968283415 -5.0010159611701965e-05
v 0.002203813986852765 -0.0031866400968283415 -5.0010159611701965e-05
v 0.002135924296453595 -0.0034292300697416067 5.0010159611701965e-05
v 0.002135924296453595 -0.0034292300697416067 5.0010159611701965e-05
v 0.002135924296453595 -0.0034292300697416067 5.0010159611701965e-05
v 0.002135924296453595 -0.0034292300697416067 -5.0010159611701965e-05
v 0.002135924296453595 -0.0034292300697416067 -5.0010159611701965e-05
v 0.002135924296453595 -0.0034292300697416067 -5.0010159611701965e-05
v 0.002028621034696698 -0.0036268194671720266 5.0010159611701965e-05
v 0.002028621034696698 -0.0036268194671720266 5.0010159611701965e-05
v 0.002028621034696698 -0.0036268194671720266 5.0010159611701965e-05
v 0.002028621034696698 -0.0036268194671720266 5.0010159611701965e-05
v 0.002028621034696698 -0.0036268194671720266 -5.0010159611701965e-05
v 0.002028621034696698 -0.0036268194671720266 -5.0010159611701965e-05
v 0.002028621034696698 -0.0036268194671720266 -5.0010159611701965e-05
v 0.002028621034696698 -0.0036268194671720266 -5.0010159611701965e-05
v 0.0018670178251340985 -0.0038123696576803923 5.0010159611701965e-05
v 0.0018670178251340985 -0.0038123696576803923 5.0010159611701965e-05
v 0.0018670178251340985 -0.0038123696576803923 5.0010159611701965e-05
v 0.0018670178251340985 -0.0038123696576803923 -5.0010159611701965e-05
v 0.0018670178251340985 -0.0038123696576803923 -5.0010159611701965e-05
v 0.0018670178251340985 -0.0038123696576803923 -5.0010159611701965e-05
v 0.0016733176307752728 -0.003952319733798504 5.0010159611701965e-05
v 0.0016733176307752728 -0.003952319733798504 5.0010159611701965e-05
v 0.0016733176307752728 -0.003952319733798504 5.0010159611701965e-05
v 0.0016733176307752728 -0.003952319733798504 -5.0010159611701965e-05
v 0.0016733176307752728 -0.003952319733798504 -5.0010159611701965e-05
v 0.0014502174453809857 -0.004046440124511719 5.0010159611701965e-05
v 0.0014502174453809857 -0.004046440124511719 5.0010159611701965e-05
v 0.0014502174453809857 -0.004046440124511719 5.0010159611701965e-05
v 0.0014502174453809857 -0.004046440124511719 -5.0010159611701965e-05
v 0.0014502174453809857 -0.004046440124511719 -5.0010159611701965e-05
v 0.0014502174453809857 -0.004046440124511719 -5.0010159611701965e-05
v 0.00123382278252393 -0.004086609929800034 5.0010159611701965e-05
v 0.00123382278252393 -0.004086609929800034 5.0010159611701965e-05
v 0.00123382278252393 -0.004086609929800034 5.0010159611701965e-05
v 0.00123382278252393 -0.004086609929800034 -5.0010159611701965e-05
v 0.00123382278252393 -0.004086609929800034 -5.0010159611701965e-05
v 0.00123382278252393 -0.004086609929800034 -5.0010159611701965e-05
v 0.000983811100013554 -0.004077490419149399 5.0010159611701965e-05
v 0.000983811100013554 -0.004077490419149399 5.0010159611701965e-05
v 0.000983811100013554 -0.004077490419149399 5.0010159611701965e-05
v 0.000983811100013554 -0.004077490419149399 -5.0010159611701965e-05
v 0.000983811100013554 -0.004077490419149399 -5.0010159611701965e-05
v 0.000983811100013554 -0.004077490419149399 -5.0010159611701965e-05
v 0.0007413245621137321 -0.0040095504373312 5.0010159611701965e-05
v 0.0007413245621137321 -0.0040095504373312 5.0010159611701965e-05
v 0.0007413245621137321 -0.0040095504373312 5.0010159611701965e-05
v 0.0007413245621137321 -0.0040095504373312 -5.0010159611701965e-05
v 0.0007413245621137321 -0.0040095504373312 -5.0010159611701965e-05
v 0.0007413245621137321 -0.0040095504373312 -5.0010159611701965e-05
v 0.0005437202635221183 -0.0039021398406475782 5.0010159611701965e-05
v 0.0005437202635221183 -0.0039021398406475782 5.0010159611701965e-05
v 0.0005437202635221183 -0.0039021398406475782 5.0010159611701965e-05
v 0.0005437202635221183 -0.0039021398406475782 -5.0010159611701965e-05
v 0.0005437202635221183 -0.0039021398406475782 -5.0010159611701965e-05
v 0.0005437202635221183 -0.0039021398406475782 -5.0010159611701965e-05
v 0.00035821570781990886 -0.0037404296454042196 5.0010159611701965e-05
v 0.00035821570781990886 -0.0037404296454042196 5.0010159611701965e-05
v 0.00035821570781990886 -0.0037404296454042196 5.0010159611701965e-05
v 0.00035821570781990886 -0.0037404296454042196 5.0010159611701965e-05
v 0.00035821570781990886 -0.0037404296454042196 5.0010159611701965e-05
v 0.00035821570781990886 -0.0037404296454042196 5.0010159611701965e-05
v 0.00035821570781990886 -0.0037404296454042196 -5.0010159611701965e-05
v 0.00035821570781990886 -0.0037404296454042196 -5.0010159611701965e-05
v 0.00035821570781990886 -0.0037404296454042196 -5.0010159611701965e-05
v 0.00035821570781990886 -0.0037404296454042196 -5.0010159611701965e-05
v 0.00021701230434700847 -0.0035445101093500853 5.0010159611701965e-05
v 0.00021701230434700847 -0.0035445101093500853 5.0010159611701965e-05
v 0.00021701230434700847 -0.0035445101093500853 5.0010159611701965e-05
v 0.00021701230434700847 -0.0035445101093500853 5.0010159611701965e-05
v 0.00021701230434700847 -0.0035445101093500853 -5.0010159611701965e-05
v 0.00021701230434700847 -0.0035445101093500853 -5.0010159611701965e-05
v 0.00012151075497968122 -0.0033153898548334837 5.0010159611701965e-05
v 0.00012151075497968122 -0.0033153898548334837 5.0010159611701965e-05
v 0.00012151075497968122 -0.0033153898548334837 5.0010159611701965e-05
v 0.00012151075497968122 -0.0033153898548334837 -5.0010159611701965e-05
v 0.00012151075497968122 -0.0033153898548334837 -5.0010159611701965e-05
v 0.00012151075497968122 -0.0033153898548334837 -5.0010159611701965e-05
v 8.141173020703718e-05 -0.003069160273298621 5.0010159611701965e-05
v 8.141173020703718e-05 -0.003069160273298621 5.0010159611701965e-05
v 8.141173020703718e-05 -0.003069160273298621 5.0010159611701965e-05
v 8.141173020703718e-05 -0.003069160273298621 -5.0010159611701965e-05
v 8.141173020703718e-05 -0.003069160273298621 -5.0010159611701965e-05
v 8.141173020703718e-05 -0.003069160273298621 -5.0010159611701965e-05
v 9.661091462476179e-05 -0.0028371799271553755 5.0010159611701965e-05
v 9.661091462476179e-05 -0.0028371799271553755 5.0010159611701965e-05
v 9.661091462476179e-05 -0.0028371799271553755 5.0010159611701965e-05
v 9.661091462476179e-05 -0.0028371799271553755 -5.0010159611701965e-05
v 9.661091462476179e-05 -0.0028371799271553755 -5.0010159611701965e-05
v 9.661091462476179e-05 -0.0028371799271553755 -5.0010159611701965e-05
v 0.00011182500020368025 -0.0027655994053930044 5.0010159611701965e-05
v 0.00011182500020368025 -0.0027655994053930044 5.0010159611701965e-05
v 0.00011182500020368025 -0.0027655994053930044 5.0010159611701965e-05
v 0.00011182500020368025 -0.0027655994053930044 5.0010159611701965e-05
v 0.00011182500020368025 -0.0027655994053930044 -5.0010159611701965e-05
v 0.00011182500020368025 -0.0027655994053930044 -5.0010159611701965e-05
v 0.00011182500020368025 -0.0027655994053930044 -5.0010159611701965e-05
v 0.00018402113346382976 -0.002354499651119113 5.0010159611701965e-05
v 0.00018402113346382976 -0.002354499651119113 5.0010159611701965e-05
v 0.00018402113346382976 -0.002354499651119113 5.0010159611701965e-05
v 0.00018402113346382976 -0.002354499651119113 -5.0010159611701965e-05
v 0.00018402113346382976 -0.002354499651119113 -5.0010159611701965e-05
v 0.00018402113346382976 -0.002354499651119113 -5.0010159611701965e-05
v 0.00018402113346382976 -0.002354499651119113 -5.0010159611701965e-05
v 0.00019941403297707438 -0.0019445399520918727 5.0010159611701965e-05
v 0.00019941403297707438 -0.0019445399520918727 5.0010159611701965e-05
v 0.00019941403297707438 -0.0019445399520918727 -5.0010159611701965e-05
v 0.00019941403297707438 -0.0019445399520918727 -5.0010159611701965e-05
v 0.00019941403297707438 -0.0019445399520918727 -5.0010159611701965e-05
v 0.00015891267685219646 -0.0015349396271631122 5.0010159611701965e-05
v 0.00015891267685219646 -0.0015349396271631122 5.0010159611701965e-05
v 0.00015891267685219646 -0.0015349396271631122 5.0010159611701965e-05
v 0.00015891267685219646 -0.0015349396271631122 -5.0010159611701965e-05
v 0.00015891267685219646 -0.0015349396271631122 -5.0010159611701965e-05
v 6.262136594159529e-05 -0.001132190111093223 5.0010159611701965e-05
v 6.262136594159529e-05 -0.001132190111093223 5.0010159611701965e-05
v 6.262136594159529e-05 -0.001132190111093223 5.0010159611701965e-05
v 6.262136594159529e-05 -0.001132190111093223 5.0010159611701965e-05
v 6.262136594159529e-05 -0.001132190111093223 -5.0010159611701965e-05
v 6.262136594159529e-05 -0.001132190111093223 -5.0010159611701965e-05
v 6.262136594159529e-05 -0.001132190111093223 -5.0010159611701965e-05
v -6.958173617022112e-05 -0.0007851103437133133 5.0010159611701965e-05
v -6.958173617022112e-05 -0.0007851103437133133 5.0010159611701965e-05
v -6.958173617022112e-05 -0.0007851103437133133 5.0010159611701965e-05
v -6.958173617022112e-05 -0.0007851103437133133 5.0010159611701965e-05
v -6.958173617022112e-05 -0.0007851103437133133 -5.0010159611701965e-05
v -6.958173617022112e-05 -0.0007851103437133133 -5.0010159611701965e-05
v -6.958173617022112e-05 -0.0007851103437133133 -5.0010159611701965e-05
v -6.958173617022112e-05 -0.0007851103437133133 -5.0010159611701965e-05
v -0.00026858673663809896 -0.00041567982407286763 5.0010159611701965e-05
v -0.00026858673663809896 -0.00041567982407286763 5.0010159611701965e-05
v -0.00026858673663809896 -0.00041567982407286763 5.0010159611701965e-05
v -0.00026858673663809896 -0.00041567982407286763 5.0010159611701965e-05
v -0.00026858673663809896 -0.00041567982407286763 5.0010159611701965e-05
v -0.00026858673663809896 -0.00041567982407286763 -5.0010159611701965e-05
v -0.00026858673663809896 -0.00041567982407286763 -5.0010159611701965e-05
v -0.00026858673663809896 -0.00041567982407286763 -5.0010159611701965e-05
v -0.0005174808320589364 -7.606001599924639e-05 5.0010159611701965e-05
v -0.0005174808320589364 -7.606001599924639e-05 5.0010159611701965e-05
v -0.0005174808320589364 -7.606001599924639e-05 5.0010159611701965e-05
v -0.0005174808320589364 -7.606001599924639e-05 -5.0010159611701965e-05
v -0.0005174808320589364 -7.606001599924639e-05 -5.0010159611701965e-05
v -0.0008116893586702645 0.00022631992760580033 5.0010159611701965e-05
v -0.0008116893586702645 0.00022631992760580033 5.0010159611701965e-05
v -0.0008116893586702645 0.00022631992760580033 5.0010159611701965e-05
v -0.0008116893586702645 0.00022631992760580033 5.0010159611701965e-05
v -0.0008116893586702645 0.00022631992760580033 5.0010159611701965e-05
v -0.0008116893586702645 0.00022631992760580033 5.0010159611701965e-05
v -0.0008116893586702645 0.00022631992760580033 -5.0010159611701965e-05
v -0.0008116893586702645 0.00022631992760580033 -5.0010159611701965e-05
v -0.0011459820671007037 0.0004854697617702186 5.0010159611701965e-05
v -0.0011459820671007037 0.0004854697617702186 5.0010159611701965e-05
v -0.0011459820671007037 0.0004854697617702186 5.0010159611701965e-05
v -0.0011459820671007037 0.0004854697617702186 5.0010159611701965e-05
v -0.0011459820671007037 0.0004854697617702186 5.0010159611701965e-05
v -0.0011459820671007037 0.0004854697617702186 5.0010159611701965e-05
v -0.0011459820671007037 0.0004854697617702186 5.0010159611701965e-05
v -0.0011459820671007037 0.0004854697617702186 -5.0010159611701965e-05
v -0.0011459820671007037 0.0004854697617702186 -5.0010159611701965e-05
v -0.0011459820671007037 0.0004854697617702186 -5.0010159611701965e-05
v -0.0011459820671007037 0.0004854697617702186 -5.0010159611701965e-05
v -0.0011459820671007037 0.0004854697617702186 -5.0010159611701965e-05
v -0.0011459820671007037 0.0004854697617702186 -5.0010159611701965e-05
v -0.0014380895299836993 0.0006579702603630722 5.0010159611701965e-05
v -0.0014380895299836993 0.0006579702603630722 5.0010159611701965e-05
v -0.0014380895299836993 0.0006579702603630722 5.0010159611701965e-05
v -0.0014380895299836993 0.0006579702603630722 5.0010159611701965e-05
v -0.0014380895299836993 0.0006579702603630722 -5.0010159611701965e-05
v -0.0014380895299836993 0.0006579702603630722 -5.0010159611701965e-05
v -0.0014380895299836993 0.0006579702603630722 -5.0010159611701965e-05
v -0.0016826771898195148 0.0008166396874003112 5.0010159611701965e-05
v -0.0016826771898195148 0.0008166396874003112 5.0010159611701965e-05
v -0.0016826771898195148 0.0008166396874003112 -5.0010159611701965e-05
v -0.0016826771898195148 0.0008166396874003112 -5.0010159611701965e-05
v -0.0016826771898195148 0.0008166396874003112 -5.0010159611701965e-05
v -0.0018864803714677691 0.0010139300720766187 5.0010159611701965e-05
v -0.0018864803714677691 0.0010139300720766187 5.0010159611701965e-05
v -0.0018864803714677691 0.0010139300720766187 -5.0010159611701965e-05
v -0.0018864803714677691 0.0010139300720766187 -5.0010159611701965e-05
v -0.0018864803714677691 0.0010139300720766187 -5.0010159611701965e-05
v -0.002049975795671344 0.001248350483365357 5.0010159611701965e-05
v -0.002049975795671344 0.001248350483365357 5.0010159611701965e-05
v -0.002049975795671344 0.001248350483365357 -5.0010159611701965e-05
v -0.002049975795671344 0.001248350483365357 -5.0010159611701965e-05
v -0.002049975795671344 0.001248350483365357 -5.0010159611701965e-05
v -0.0021670840214937925 0.0015132996486499906 5.0010159611701965e-05
v -0.0021670840214937925 0.0015132996486499906 5.0010159611701965e-05
v -0.0021670840214937925 0.0015132996486499906 5.0010159611701965e-05
v -0.0021670840214937925 0.0015132996486499906 5.0010159611701965e-05
v -0.0021670840214937925 0.0015132996486499906 5.0010159611701965e-05
v -0.0021670840214937925 0.0015132996486499906 -5.0010159611701965e-05
v -0.0021670840214937925 0.0015132996486499906 -5.0010159611701965e-05
v -0.0021670840214937925 0.0015132996486499906 -5.0010159611701965e-05
v -0.0021670840214937925 0.0015132996486499906 -5.0010159611701965e-05
v -0.0021670840214937925 0.0015132996486499906 -5.0010159611701965e-05
v -0.0021670840214937925 0.0015132996486499906 -5.0010159611701965e-05
v -0.002187781734392047 0.0015813104109838605 5.0010159611701965e-05
v -0.002187781734392047 0.0015813104109838605 5.0010159611701965e-05
v -0.002187781734392047 0.0015813104109838605 5.0010159611701965e-05
v -0.002187781734392047 0.0015813104109838605 5.0010159611701965e-05
v -0.002187781734392047 0.0015813104109838605 5.0010159611701965e-05
v -0.002187781734392047 0.0015813104109838605 -5.0010159611701965e-05
v -0.002187781734392047 0.0015813104109838605 -5.0010159611701965e-05
v -0.002187781734392047 0.0015813104109838605 -5.0010159611701965e-05
v -0.002187781734392047 0.0015813104109838605 -5.0010159611701965e-05
v -0.0022384754847735167 0.0018716995837166905 5.0010159611701965e-05
v -0.0022384754847735167 0.0018716995837166905 5.0010159611701965e-05
v -0.0022384754847735167 0.0018716995837166905 -5.0010159611701965e-05
v -0.0022384754847735167 0.0018716995837166905 -5.0010159611701965e-05
v -0.0022384754847735167 0.0018716995837166905 -5.0010159611701965e-05
v -0.0022308758925646544 0.0021678798366338015 5.0010159611701965e-05
v -0.0022308758925646544 0.0021678798366338015 5.0010159611701965e-05
v -0.0022308758925646544 0.0021678798366338015 -5.0010159611701965e-05
v -0.0022308758925646544 0.0021678798366338015 -5.0010159611701965e-05
v -0.002164088888093829 0.002457729773595929 5.0010159611701965e-05
v -0.002164088888093829 0.002457729773595929 5.0010159611701965e-05
v -0.002164088888093829 0.002457729773595929 5.0010159611701965e-05
v -0.002164088888093829 0.002457729773595929 -5.0010159611701965e-05
v -0.002164088888093829 0.002457729773595929 -5.0010159611701965e-05
v -0.002164088888093829 0.002457729773595929 -5.0010159611701965e-05
v -0.002164088888093829 0.002457729773595929 -5.0010159611701965e-05
f 1 3 6
f 1 6 10
f 10 6 12
f 10 12 15
f 15 12 18
f 15 18 20
f 20 18 23
f 20 23 27
f 27 23 30
f 27 30 32
f 32 30 36
f 32 36 39
f 39 36 40
f 39 40 44
f 44 40 48
f 44 48 51
f 51 48 53
f 51 53 56
f 56 53 57
f 56 57 63
f 63 57 68
f 63 68 72
f 72 68 75
f 72 75 80
f 80 75 82
f 80 82 85
f 85 82 88
f 85 88 92
f 92 88 95
f 92 95 98
f 98 95 100
f 98 100 102
f 102 100 104
f 102 104 107
f 107 104 109
f 107 109 112
f 112 109 114
f 112 114 118
f 118 114 119
f 118 119 124
f 124 119 125
f 124 125 129
f 129 125 134
f 129 134 138
f 138 134 143
f 138 143 144
f 144 143 147
f 144 147 152
f 152 147 155
f 152 155 158
f 158 155 164
f 158 164 166
f 166 164 173
f 166 173 174
f 174 173 178
f 174 178 182
f 182 178 184
f 182 184 186
f 186 184 193
f 186 193 201
f 201 193 203
f 201 203 210
f 210 203 212
f 210 212 214
f 214 212 217
f 214 217 218
f 218 217 223
f 218 223 228
f 228 223 231
f 228 231 234
f 234 231 237
f 234 237 239
f 239 237 242
f 239 242 243
f 243 242 248
f 243 248 250
f 250 248 254
f 250 254 256
f 256 254 260
f 256 260 263
f 263 260 264
f 263 264 269
f 269 264 275
f 269 275 277
f 277 275 280
f 277 280 284
f 284 280 286
f 284 286 291
f 291 286 293
f 291 293 297
f 297 293 299
f 297 299 303
f 303 299 304
f 303 304 310
f 310 304 313
f 310 313 316
f 316 313 318
f 316 318 320
f 320 318 324
f 320 324 327
f 327 324 328
f 327 328 334
f 334 328 335
f 334 335 339
f 339 335 344
f 339 344 350
f 350 344 353
f 350 353 355
f 355 353 361
f 355 361 362
f 362 361 364
f 362 364 376
f 376 364 378
f 376 378 381
f 381 378 385
f 381 385 387
f 387 385 390
f 387 390 391
f 391 390 395
f 391 395 398
f 398 395 402
f 398 402 408
f 408 402 411
f 408 411 417
f 417 411 420
f 417 420 423
f 423 420 424
f 423 424 427
f 427 424 430
f 427 430 432
f 432 430 3
f 432 3 1
f 371 74 79
f 103 108 363
f 363 108 113
f 363 113 354
f 354 113 117
f 354 117 349
f 157 168 301
f 388 393 67
f 301 308 157
f 156 309 315
f 157 314 150
f 285 289 168
f 167 290 295
f 169 296 302
f 180 187 276
f 276 187 202
f 276 202 267
f 78 84 374
f 372 86 91
f 374 90 363
f 363 90 97
f 363 97 103
f 73 373 64
f 60 375 383
f 62 382 386
f 392 396 66
f 65 397 404
f 61 406 55
f 285 168 276
f 279 165 175
f 278 176 181
f 238 244 202
f 198 245 251
f 422 426 431
f 9 14 418
f 317 321 151
f 150 322 326
f 150 326 145
f 145 326 333
f 145 333 136
f 139 332 342
f 137 341 130
f 131 340 348
f 128 349 123
f 123 349 117
f 213 219 207
f 209 220 225
f 208 226 202
f 200 227 233
f 202 232 238
f 421 433 415
f 418 434 2
f 418 2 9
f 14 21 418
f 416 19 24
f 418 25 406
f 405 26 33
f 407 31 37
f 249 255 202
f 197 257 262
f 199 261 268
f 38 45 406
f 409 43 50
f 406 49 55
f 413 401 22
f 312 307 153
f 22 401 28
f 394 389 58
f 154 305 160
f 161 306 300
f 159 298 292
f 83 77 366
f 370 76 69
f 369 71 380
f 379 70 59
f 377 58 384
f 384 58 389
f 106 101 359
f 360 99 96
f 356 94 365
f 367 93 89
f 368 87 81
f 346 121 352
f 351 122 115
f 351 115 359
f 357 116 111
f 358 110 105
f 311 154 319
f 319 154 149
f 319 149 323
f 294 288 162
f 163 287 281
f 160 282 172
f 171 283 273
f 170 274 179
f 177 272 185
f 394 58 401
f 401 58 52
f 403 54 47
f 195 240 235
f 22 16 413
f 414 17 13
f 412 11 8
f 7 4 413
f 410 5 428
f 413 429 419
f 419 429 425
f 183 271 194
f 192 270 265
f 191 266 258
f 236 230 190
f 188 229 222
f 194 221 206
f 204 224 216
f 205 215 211
f 325 146 331
f 330 148 142
f 329 141 336
f 337 140 135
f 338 133 347
f 345 132 126
f 343 127 120
f 46 42 401
f 399 41 34
f 400 35 29
f 259 253 194
f 196 252 246
f 189 247 241
