mtllib converted_link2_22_d12626ff.mtl
usemtl material
v 0.0020155597012490034 -0.0021666998509317636 5.0010159611701965e-05
v 0.0020155597012490034 -0.0021666998509317636 5.0010159611701965e-05
v 0.0020155597012490034 -0.0021666998509317636 5.0010159611701965e-05
v 0.0020155597012490034 -0.0021666998509317636 5.0010159611701965e-05
v 0.0020155597012490034 -0.0021666998509317636 5.0010159611701965e-05
v 0.0020155597012490034 -0.0021666998509317636 -5.0010159611701965e-05
v 0.0020155597012490034 -0.0021666998509317636 -5.0010159611701965e-05
v 0.0020155597012490034 -0.0021666998509317636 -5.0010159611701965e-05
v 0.0020155597012490034 -0.0021666998509317636 -5.0010159611701965e-05
v 0.0020105529110878706 -0.002052190015092492 -5.0010159611701965e-05
v 0.0020105529110878706 -0.002052190015092492 -5.0010159611701965e-05
v 0.0020105529110878706 -0.002052190015092492 -5.0010159611701965e-05
v 0.0020105529110878706 -0.002052190015092492 5.0010159611701965e-05
v 0.0020105529110878706 -0.002052190015092492 5.0010159611701965e-05
v 0.0020105529110878706 -0.002052190015092492 5.0010159611701965e-05
v 0.0020105529110878706 -0.002052190015092492 5.0010159611701965e-05
v 0.001962958602234721 -0.0019173099426552653 -5.0010159611701965e-05
v 0.001962958602234721 -0.0019173099426552653 -5.0010159611701965e-05
v 0.001962958602234721 -0.0019173099426552653 5.0010159611701965e-05
v 0.001962958602234721 -0.0019173099426552653 5.0010159611701965e-05
v 0.0018757570069283247 -0.0018058501882478595 -5.0010159611701965e-05
v 0.0018757570069283247 -0.0018058501882478595 -5.0010159611701965e-05
v 0.0018757570069283247 -0.0018058501882478595 -5.0010159611701965e-05
v 0.0018757570069283247 -0.0018058501882478595 -5.0010159611701965e-05
v 0.0018757570069283247 -0.0018058501882478595 5.0010159611701965e-05
v 0.0018757570069283247 -0.0018058501882478595 5.0010159611701965e-05
v 0.0018757570069283247 -0.0018058501882478595 5.0010159611701965e-05
v 0.0018757570069283247 -0.0018058501882478595 5.0010159611701965e-05
v 0.0005843628314323723 -5.365007382351905e-05 5.0010159611701965e-05
v 0.0005843628314323723 -5.365007382351905e-05 5.0010159611701965e-05
v 0.0005843628314323723 -5.365007382351905e-05 5.0010159611701965e-05
v 0.0005843628314323723 -5.365007382351905e-05 5.0010159611701965e-05
v 0.0005843628314323723 -5.365007382351905e-05 5.0010159611701965e-05
v 0.0005843628314323723 -5.365007382351905e-05 5.0010159611701965e-05
v 0.0005843628314323723 -5.365007382351905e-05 -5.0010159611701965e-05
v 0.0005843628314323723 -5.365007382351905e-05 -5.0010159611701965e-05
v 0.0005843628314323723 -5.365007382351905e-05 -5.0010159611701965e-05
v 0.0005843628314323723 -5.365007382351905e-05 -5.0010159611701965e-05
v 0.0005843628314323723 -5.365007382351905e-05 -5.0010159611701965e-05
v 0.0005843628314323723 -5.365007382351905e-05 -5.0010159611701965e-05
v 0.0022478539030998945 0.001509720110334456 5.0010159611701965e-05
v 0.0022478539030998945 0.001509720110334456 5.0010159611701965e-05
v 0.0022478539030998945 0.001509720110334456 5.0010159611701965e-05
v 0.0022478539030998945 0.001509720110334456 -5.0010159611701965e-05
v 0.0022478539030998945 0.001509720110334456 -5.0010159611701965e-05
v 0.0022478539030998945 0.001509720110334456 -5.0010159611701965e-05
v 0.0022478539030998945 0.001509720110334456 -5.0010159611701965e-05
v 0.002277060179039836 0.001541850040666759 -5.0010159611701965e-05
v 0.002277060179039836 0.001541850040666759 -5.0010159611701965e-05
v 0.002277060179039836 0.001541850040666759 -5.0010159611701965e-05
v 0.002277060179039836 0.001541850040666759 -5.0010159611701965e-05
v 0.002277060179039836 0.001541850040666759 -5.0010159611701965e-05
v 0.002277060179039836 0.001541850040666759 5.0010159611701965e-05
v 0.002277060179039836 0.001541850040666759 5.0010159611701965e-05
v 0.002277060179039836 0.001541850040666759 5.0010159611701965e-05
v 0.002277060179039836 0.001541850040666759 5.0010159611701965e-05
v 0.0023457545321434736 0.0016573601169511676 -5.0010159611701965e-05
v 0.0023457545321434736 0.0016573601169511676 -5.0010159611701965e-05
v 0.0023457545321434736 0.0016573601169511676 -5.0010159611701965e-05
v 0.0023457545321434736 0.0016573601169511676 5.0010159611701965e-05
v 0.0023457545321434736 0.0016573601169511676 5.0010159611701965e-05
v 0.0023457545321434736 0.0016573601169511676 5.0010159611701965e-05
v 0.002375556854531169 0.001780680031515658 -5.0010159611701965e-05
v 0.002375556854531169 0.001780680031515658 -5.0010159611701965e-05
v 0.002375556854531169 0.001780680031515658 -5.0010159611701965e-05
v 0.002375556854531169 0.001780680031515658 -5.0010159611701965e-05
v 0.002375556854531169 0.001780680031515658 5.0010159611701965e-05
v 0.002375556854531169 0.001780680031515658 5.0010159611701965e-05
v 0.002375556854531169 0.001780680031515658 5.0010159611701965e-05
v 0.002375556854531169 0.001780680031515658 5.0010159611701965e-05
v 0.0023654538672417402 0.0019233099883422256 -5.0010159611701965e-05
v 0.0023654538672417402 0.0019233099883422256 -5.0010159611701965e-05
v 0.0023654538672417402 0.0019233099883422256 -5.0010159611701965e-05
v 0.0023654538672417402 0.0019233099883422256 5.0010159611701965e-05
v 0.0023654538672417402 0.0019233099883422256 5.0010159611701965e-05
v 0.0023103642743080854 0.0020546801388263702 -5.0010159611701965e-05
v 0.0023103642743080854 0.0020546801388263702 -5.0010159611701965e-05
v 0.0023103642743080854 0.0020546801388263702 5.0010159611701965e-05
v 0.0023103642743080854 0.0020546801388263702 5.0010159611701965e-05
v 0.0023103642743080854 0.0020546801388263702 5.0010159611701965e-05
v 0.0022175598423928022 0.002160780131816864 -5.0010159611701965e-05
v 0.0022175598423928022 0.002160780131816864 -5.0010159611701965e-05
v 0.0022175598423928022 0.002160780131816864 -5.0010159611701965e-05
v 0.0022175598423928022 0.002160780131816864 5.0010159611701965e-05
v 0.0022175598423928022 0.002160780131816864 5.0010159611701965e-05
v 0.0022175598423928022 0.002160780131816864 5.0010159611701965e-05
v 0.0020960557740181684 0.0022321301512420177 -5.0010159611701965e-05
v 0.0020960557740181684 0.0022321301512420177 -5.0010159611701965e-05
v 0.0020960557740181684 0.0022321301512420177 5.0010159611701965e-05
v 0.0020960557740181684 0.0022321301512420177 5.0010159611701965e-05
v 0.0020960557740181684 0.0022321301512420177 5.0010159611701965e-05
v 0.0019660580437630415 0.0022609801962971687 -5.0010159611701965e-05
v 0.0019660580437630415 0.0022609801962971687 -5.0010159611701965e-05
v 0.0019660580437630415 0.0022609801962971687 -5.0010159611701965e-05
v 0.0019660580437630415 0.0022609801962971687 -5.0010159611701965e-05
v 0.0019660580437630415 0.0022609801962971687 5.0010159611701965e-05
v 0.0019660580437630415 0.0022609801962971687 5.0010159611701965e-05
v 0.0019660580437630415 0.0022609801962971687 5.0010159611701965e-05
v 0.001878260402008891 0.002258290071040392 -5.0010159611701965e-05
v 0.001878260402008891 0.002258290071040392 -5.0010159611701965e-05
v 0.001878260402008891 0.002258290071040392 -5.0010159611701965e-05
v 0.001878260402008891 0.002258290071040392 5.0010159611701965e-05
v 0.001878260402008891 0.002258290071040392 5.0010159611701965e-05
v 0.001748560694977641 0.002220330061390996 -5.0010159611701965e-05
v 0.001748560694977641 0.002220330061390996 -5.0010159611701965e-05
v 0.001748560694977641 0.002220330061390996 -5.0010159611701965e-05
v 0.001748560694977641 0.002220330061390996 5.0010159611701965e-05
v 0.001748560694977641 0.002220330061390996 5.0010159611701965e-05
v 0.001632763771340251 0.002140990225598216 -5.0010159611701965e-05
v 0.001632763771340251 0.002140990225598216 -5.0010159611701965e-05
v 0.001632763771340251 0.002140990225598216 -5.0010159611701965e-05
v 0.001632763771340251 0.002140990225598216 -5.0010159611701965e-05
v 0.001632763771340251 0.002140990225598216 5.0010159611701965e-05
v 0.001632763771340251 0.002140990225598216 5.0010159611701965e-05
v 0.001632763771340251 0.002140990225598216 5.0010159611701965e-05
v 0.001632763771340251 0.002140990225598216 5.0010159611701965e-05
v 5.026048165746033e-05 0.0006499799783341587 5.0010159611701965e-05
v 5.026048165746033e-05 0.0006499799783341587 5.0010159611701965e-05
v 5.026048165746033e-05 0.0006499799783341587 5.0010159611701965e-05
v 5.026048165746033e-05 0.0006499799783341587 5.0010159611701965e-05
v 5.026048165746033e-05 0.0006499799783341587 5.0010159611701965e-05
v 5.026048165746033e-05 0.0006499799783341587 5.0010159611701965e-05
v 5.026048165746033e-05 0.0006499799783341587 -5.0010159611701965e-05
v 5.026048165746033e-05 0.0006499799783341587 -5.0010159611701965e-05
v 5.026048165746033e-05 0.0006499799783341587 -5.0010159611701965e-05
v 5.026048165746033e-05 0.0006499799783341587 -5.0010159611701965e-05
v 5.026048165746033e-05 0.0006499799783341587 -5.0010159611701965e-05
v 5.026048165746033e-05 0.0006499799783341587 -5.0010159611701965e-05
v 5.026048165746033e-05 0.0006499799783341587 -5.0010159611701965e-05
v -0.0012213450390845537 0.0023906701244413853 5.0010159611701965e-05
v -0.0012213450390845537 0.0023906701244413853 5.0010159611701965e-05
v -0.0012213450390845537 0.0023906701244413853 5.0010159611701965e-05
v -0.0012213450390845537 0.0023906701244413853 5.0010159611701965e-05
v -0.0012213450390845537 0.0023906701244413853 5.0010159611701965e-05
v -0.0012213450390845537 0.0023906701244413853 -5.0010159611701965e-05
v -0.0012213450390845537 0.0023906701244413853 -5.0010159611701965e-05
v -0.0012213450390845537 0.0023906701244413853 -5.0010159611701965e-05
v -0.0012213450390845537 0.0023906701244413853 -5.0010159611701965e-05
v -0.0012213450390845537 0.0023906701244413853 -5.0010159611701965e-05
v -0.0012213450390845537 0.0023906701244413853 -5.0010159611701965e-05
v -0.001269937725737691 0.002446170197799802 -5.0010159611701965e-05
v -0.001269937725737691 0.002446170197799802 -5.0010159611701965e-05
v -0.001269937725737691 0.002446170197799802 -5.0010159611701965e-05
v -0.001269937725737691 0.002446170197799802 5.0010159611701965e-05
v -0.001269937725737691 0.002446170197799802 5.0010159611701965e-05
v -0.0013805341441184282 0.0025238902308046818 -5.0010159611701965e-05
v -0.0013805341441184282 0.0025238902308046818 -5.0010159611701965e-05
v -0.0013805341441184282 0.0025238902308046818 5.0010159611701965e-05
v -0.0013805341441184282 0.0025238902308046818 5.0010159611701965e-05
v -0.0015131395775824785 0.002564780181273818 -5.0010159611701965e-05
v -0.0015131395775824785 0.002564780181273818 -5.0010159611701965e-05
v -0.0015131395775824785 0.002564780181273818 5.0010159611701965e-05
v -0.0015131395775824785 0.002564780181273818 5.0010159611701965e-05
v -0.0015131395775824785 0.002564780181273818 5.0010159611701965e-05
v -0.0016378473956137896 0.0025649601593613625 -5.0010159611701965e-05
v -0.0016378473956137896 0.0025649601593613625 -5.0010159611701965e-05
v -0.0016378473956137896 0.0025649601593613625 5.0010159611701965e-05
v -0.0016378473956137896 0.0025649601593613625 5.0010159611701965e-05
v -0.0016378473956137896 0.0025649601593613625 5.0010159611701965e-05
v -0.0016378473956137896 0.0025649601593613625 5.0010159611701965e-05
v -0.001774446340277791 0.002522100228816271 -5.0010159611701965e-05
v -0.001774446340277791 0.002522100228816271 -5.0010159611701965e-05
v -0.001774446340277791 0.002522100228816271 5.0010159611701965e-05
v -0.001774446340277791 0.002522100228816271 5.0010159611701965e-05
v -0.0018846404273062944 0.002443250035867095 -5.0010159611701965e-05
v -0.0018846404273062944 0.002443250035867095 -5.0010159611701965e-05
v -0.0018846404273062944 0.002443250035867095 5.0010159611701965e-05
v -0.0018846404273062944 0.002443250035867095 5.0010159611701965e-05
v -0.0019657474476844072 0.002334830118343234 -5.0010159611701965e-05
v -0.0019657474476844072 0.002334830118343234 -5.0010159611701965e-05
v -0.0019657474476844072 0.002334830118343234 5.0010159611701965e-05
v -0.0019657474476844072 0.002334830118343234 5.0010159611701965e-05
v -0.0019657474476844072 0.002334830118343234 5.0010159611701965e-05
v -0.0020105403382331133 0.002203520154580474 -5.0010159611701965e-05
v -0.0020105403382331133 0.002203520154580474 -5.0010159611701965e-05
v -0.0020105403382331133 0.002203520154580474 -5.0010159611701965e-05
v -0.0020105403382331133 0.002203520154580474 5.0010159611701965e-05
v -0.0020105403382331133 0.002203520154580474 5.0010159611701965e-05
v -0.0020105403382331133 0.002203520154580474 5.0010159611701965e-05
v -0.0020105403382331133 0.002203520154580474 5.0010159611701965e-05
v -0.002015934558585286 0.002097540069371462 -5.0010159611701965e-05
v -0.002015934558585286 0.002097540069371462 -5.0010159611701965e-05
v -0.002015934558585286 0.002097540069371462 -5.0010159611701965e-05
v -0.002015934558585286 0.002097540069371462 -5.0010159611701965e-05
v -0.002015934558585286 0.002097540069371462 5.0010159611701965e-05
v -0.002015934558585286 0.002097540069371462 5.0010159611701965e-05
v -0.0020104360301047564 0.0020520000252872705 -5.0010159611701965e-05
v -0.0020104360301047564 0.0020520000252872705 -5.0010159611701965e-05
v -0.0020104360301047564 0.0020520000252872705 -5.0010159611701965e-05
v -0.0020104360301047564 0.0020520000252872705 5.0010159611701965e-05
v -0.0020104360301047564 0.0020520000252872705 5.0010159611701965e-05
v -0.0020104360301047564 0.0020520000252872705 5.0010159611701965e-05
v -0.001962841721251607 0.0019171199528500438 -5.0010159611701965e-05
v -0.001962841721251607 0.0019171199528500438 -5.0010159611701965e-05
v -0.001962841721251607 0.0019171199528500438 -5.0010159611701965e-05
v -0.001962841721251607 0.0019171199528500438 5.0010159611701965e-05
v -0.001962841721251607 0.0019171199528500438 5.0010159611701965e-05
v -0.0018756401259452105 0.0018056599656119943 -5.0010159611701965e-05
v -0.0018756401259452105 0.0018056599656119943 -5.0010159611701965e-05
v -0.0018756401259452105 0.0018056599656119943 -5.0010159611701965e-05
v -0.0018756401259452105 0.0018056599656119943 5.0010159611701965e-05
v -0.0018756401259452105 0.0018056599656119943 5.0010159611701965e-05
v -0.0018756401259452105 0.0018056599656119943 5.0010159611701965e-05
v -0.0018756401259452105 0.0018056599656119943 5.0010159611701965e-05
v -0.0005842458340339363 5.345993849914521e-05 5.0010159611701965e-05
v -0.0005842458340339363 5.345993849914521e-05 5.0010159611701965e-05
v -0.0005842458340339363 5.345993849914521e-05 5.0010159611701965e-05
v -0.0005842458340339363 5.345993849914521e-05 5.0010159611701965e-05
v -0.0005842458340339363 5.345993849914521e-05 5.0010159611701965e-05
v -0.0005842458340339363 5.345993849914521e-05 5.0010159611701965e-05
v -0.0005842458340339363 5.345993849914521e-05 5.0010159611701965e-05
v -0.0005842458340339363 5.345993849914521e-05 -5.0010159611701965e-05
v -0.0005842458340339363 5.345993849914521e-05 -5.0010159611701965e-05
v -0.0005842458340339363 5.345993849914521e-05 -5.0010159611701965e-05
v -0.0005842458340339363 5.345993849914521e-05 -5.0010159611701965e-05
v -0.0005842458340339363 5.345993849914521e-05 -5.0010159611701965e-05
v -0.0022477370221167803 -0.0015099098673090339 5.0010159611701965e-05
v -0.0022477370221167803 -0.0015099098673090339 5.0010159611701965e-05
v -0.0022477370221167803 -0.0015099098673090339 5.0010159611701965e-05
v -0.0022477370221167803 -0.0015099098673090339 -5.0010159611701965e-05
v -0.0022477370221167803 -0.0015099098673090339 -5.0010159611701965e-05
v -0.0022768389899283648 -0.0015414998633787036 -5.0010159611701965e-05
v -0.0022768389899283648 -0.0015414998633787036 -5.0010159611701965e-05
v -0.0022768389899283648 -0.0015414998633787036 -5.0010159611701965e-05
v -0.0022768389899283648 -0.0015414998633787036 -5.0010159611701965e-05
v -0.0022768389899283648 -0.0015414998633787036 5.0010159611701965e-05
v -0.0022768389899283648 -0.0015414998633787036 5.0010159611701965e-05
v -0.0022768389899283648 -0.0015414998633787036 5.0010159611701965e-05
v -0.0022768389899283648 -0.0015414998633787036 5.0010159611701965e-05
v -0.0023456376511603594 -0.0016571901505813003 -5.0010159611701965e-05
v -0.0023456376511603594 -0.0016571901505813003 -5.0010159611701965e-05
v -0.0023456376511603594 -0.0016571901505813003 -5.0010159611701965e-05
v -0.0023456376511603594 -0.0016571901505813003 5.0010159611701965e-05
v -0.0023456376511603594 -0.0016571901505813003 5.0010159611701965e-05
v -0.0023456376511603594 -0.0016571901505813003 5.0010159611701965e-05
v -0.0023753356654196978 -0.0017808697884902358 -5.0010159611701965e-05
v -0.0023753356654196978 -0.0017808697884902358 -5.0010159611701965e-05
v -0.0023753356654196978 -0.0017808697884902358 -5.0010159611701965e-05
v -0.0023753356654196978 -0.0017808697884902358 5.0010159611701965e-05
v -0.0023753356654196978 -0.0017808697884902358 5.0010159611701965e-05
v -0.0023753356654196978 -0.0017808697884902358 5.0010159611701965e-05
v -0.0023753356654196978 -0.0017808697884902358 5.0010159611701965e-05
v -0.002365336986258626 -0.0019234501523897052 -5.0010159611701965e-05
v -0.002365336986258626 -0.0019234501523897052 -5.0010159611701965e-05
v -0.002365336986258626 -0.0019234501523897052 -5.0010159611701965e-05
v -0.002365336986258626 -0.0019234501523897052 5.0010159611701965e-05
v -0.002365336986258626 -0.0019234501523897052 5.0010159611701965e-05
v -0.0023101430851966143 -0.0020548796746879816 -5.0010159611701965e-05
v -0.0023101430851966143 -0.0020548796746879816 -5.0010159611701965e-05
v -0.0023101430851966143 -0.0020548796746879816 5.0010159611701965e-05
v -0.0023101430851966143 -0.0020548796746879816 5.0010159611701965e-05
v -0.0023101430851966143 -0.0020548796746879816 5.0010159611701965e-05
v -0.002217338653281331 -0.0021609098184853792 -5.0010159611701965e-05
v -0.002217338653281331 -0.0021609098184853792 -5.0010159611701965e-05
v -0.002217338653281331 -0.0021609098184853792 -5.0010159611701965e-05
v -0.002217338653281331 -0.0021609098184853792 5.0010159611701965e-05
v -0.002217338653281331 -0.0021609098184853792 5.0010159611701965e-05
v -0.002217338653281331 -0.0021609098184853792 5.0010159611701965e-05
v -0.002095938893035054 -0.0022323199082165956 -5.0010159611701965e-05
v -0.002095938893035054 -0.0022323199082165956 -5.0010159611701965e-05
v -0.002095938893035054 -0.0022323199082165956 5.0010159611701965e-05
v -0.002095938893035054 -0.0022323199082165956 5.0010159611701965e-05
v -0.002095938893035054 -0.0022323199082165956 5.0010159611701965e-05
v -0.0019659411627799273 -0.002261109882965684 -5.0010159611701965e-05
v -0.0019659411627799273 -0.002261109882965684 -5.0010159611701965e-05
v -0.0019659411627799273 -0.002261109882965684 -5.0010159611701965e-05
v -0.0019659411627799273 -0.002261109882965684 5.0010159611701965e-05
v -0.0019659411627799273 -0.002261109882965684 5.0010159611701965e-05
v -0.0019659411627799273 -0.002261109882965684 5.0010159611701965e-05
v -0.0018781435210257769 -0.0022584900725632906 -5.0010159611701965e-05
v -0.0018781435210257769 -0.0022584900725632906 -5.0010159611701965e-05
v -0.0018781435210257769 -0.0022584900725632906 5.0010159611701965e-05
v -0.0018781435210257769 -0.0022584900725632906 5.0010159611701965e-05
v -0.0018781435210257769 -0.0022584900725632906 5.0010159611701965e-05
v -0.0017484438139945269 -0.0022205200511962175 -5.0010159611701965e-05
v -0.0017484438139945269 -0.0022205200511962175 -5.0010159611701965e-05
v -0.0017484438139945269 -0.0022205200511962175 -5.0010159611701965e-05
v -0.0017484438139945269 -0.0022205200511962175 5.0010159611701965e-05
v -0.0017484438139945269 -0.0022205200511962175 5.0010159611701965e-05
v -0.0016326468903571367 -0.0021411299239844084 -5.0010159611701965e-05
v -0.0016326468903571367 -0.0021411299239844084 -5.0010159611701965e-05
v -0.0016326468903571367 -0.0021411299239844084 -5.0010159611701965e-05
v -0.0016326468903571367 -0.0021411299239844084 5.0010159611701965e-05
v -0.0016326468903571367 -0.0021411299239844084 5.0010159611701965e-05
v -0.0016326468903571367 -0.0021411299239844084 5.0010159611701965e-05
v -0.0016326468903571367 -0.0021411299239844084 5.0010159611701965e-05
v -0.0016326468903571367 -0.0021411299239844084 5.0010159611701965e-05
v -5.003923433832824e-05 -0.000650170084554702 5.0010159611701965e-05
v -5.003923433832824e-05 -0.000650170084554702 5.0010159611701965e-05
v -5.003923433832824e-05 -0.000650170084554702 5.0010159611701965e-05
v -5.003923433832824e-05 -0.000650170084554702 5.0010159611701965e-05
v -5.003923433832824e-05 -0.000650170084554702 5.0010159611701965e-05
v -5.003923433832824e-05 -0.000650170084554702 5.0010159611701965e-05
v -5.003923433832824e-05 -0.000650170084554702 -5.0010159611701965e-05
v -5.003923433832824e-05 -0.000650170084554702 -5.0010159611701965e-05
v -5.003923433832824e-05 -0.000650170084554702 -5.0010159611701965e-05
v -5.003923433832824e-05 -0.000650170084554702 -5.0010159611701965e-05
v -5.003923433832824e-05 -0.000650170084554702 -5.0010159611701965e-05
v 0.001221551327034831 -0.0023908100556582212 5.0010159611701965e-05
v 0.001221551327034831 -0.0023908100556582212 5.0010159611701965e-05
v 0.001221551327034831 -0.0023908100556582212 5.0010159611701965e-05
v 0.001221551327034831 -0.0023908100556582212 -5.0010159611701965e-05
v 0.001221551327034831 -0.0023908100556582212 -5.0010159611701965e-05
v 0.001221551327034831 -0.0023908100556582212 -5.0010159611701965e-05
v 0.001221551327034831 -0.0023908100556582212 -5.0010159611701965e-05
v 0.00128835323266685 -0.0024629298131912947 -5.0010159611701965e-05
v 0.00128835323266685 -0.0024629298131912947 -5.0010159611701965e-05
v 0.00128835323266685 -0.0024629298131912947 -5.0010159611701965e-05
v 0.00128835323266685 -0.0024629298131912947 -5.0010159611701965e-05
v 0.00128835323266685 -0.0024629298131912947 -5.0010159611701965e-05
v 0.00128835323266685 -0.0024629298131912947 5.0010159611701965e-05
v 0.00128835323266685 -0.0024629298131912947 5.0010159611701965e-05
v 0.00128835323266685 -0.0024629298131912947 5.0010159611701965e-05
v 0.00128835323266685 -0.0024629298131912947 5.0010159611701965e-05
v 0.0014025557320564985 -0.002534159692004323 -5.0010159611701965e-05
v 0.0014025557320564985 -0.002534159692004323 -5.0010159611701965e-05
v 0.0014025557320564985 -0.002534159692004323 -5.0010159611701965e-05
v 0.0014025557320564985 -0.002534159692004323 5.0010159611701965e-05
v 0.0014025557320564985 -0.002534159692004323 5.0010159611701965e-05
v 0.0014025557320564985 -0.002534159692004323 5.0010159611701965e-05
v 0.0015375602524727583 -0.0025677199009805918 -5.0010159611701965e-05
v 0.0015375602524727583 -0.0025677199009805918 -5.0010159611701965e-05
v 0.0015375602524727583 -0.0025677199009805918 -5.0010159611701965e-05
v 0.0015375602524727583 -0.0025677199009805918 -5.0010159611701965e-05
v 0.0015375602524727583 -0.0025677199009805918 5.0010159611701965e-05
v 0.0015375602524727583 -0.0025677199009805918 5.0010159611701965e-05
v 0.0015375602524727583 -0.0025677199009805918 5.0010159611701965e-05
v 0.0015375602524727583 -0.0025677199009805918 5.0010159611701965e-05
v 0.0015375602524727583 -0.0025677199009805918 5.0010159611701965e-05
v 0.0016703594010323286 -0.002559310058131814 -5.0010159611701965e-05
v 0.0016703594010323286 -0.002559310058131814 -5.0010159611701965e-05
v 0.0016703594010323286 -0.002559310058131814 -5.0010159611701965e-05
v 0.0016703594010323286 -0.002559310058131814 5.0010159611701965e-05
v 0.0016703594010323286 -0.002559310058131814 5.0010159611701965e-05
v 0.001803054241463542 -0.002506620017811656 -5.0010159611701965e-05
v 0.001803054241463542 -0.002506620017811656 -5.0010159611701965e-05
v 0.001803054241463542 -0.002506620017811656 5.0010159611701965e-05
v 0.001803054241463542 -0.002506620017811656 5.0010159611701965e-05
v 0.001803054241463542 -0.002506620017811656 5.0010159611701965e-05
v 0.0019107598345726728 -0.0024156600702553988 -5.0010159611701965e-05
v 0.0019107598345726728 -0.0024156600702553988 -5.0010159611701965e-05
v 0.0019107598345726728 -0.0024156600702553988 -5.0010159611701965e-05
v 0.0019107598345726728 -0.0024156600702553988 -5.0010159611701965e-05
v 0.0019107598345726728 -0.0024156600702553988 5.0010159611701965e-05
v 0.0019107598345726728 -0.0024156600702553988 5.0010159611701965e-05
v 0.0019107598345726728 -0.0024156600702553988 5.0010159611701965e-05
v 0.001981957582756877 -0.002301459899172187 -5.0010159611701965e-05
v 0.001981957582756877 -0.002301459899172187 -5.0010159611701965e-05
v 0.001981957582756877 -0.002301459899172187 -5.0010159611701965e-05
v 0.001981957582756877 -0.002301459899172187 5.0010159611701965e-05
v 0.001981957582756877 -0.002301459899172187 5.0010159611701965e-05
v 0.001981957582756877 -0.002301459899172187 5.0010159611701965e-05
f 1 8 10
f 1 10 14
f 14 10 17
f 14 17 20
f 20 17 21
f 20 21 26
f 30 26 38
f 38 26 21
f 42 34 46
f 46 34 40
f 42 46 52
f 42 52 54
f 54 52 57
f 54 57 60
f 60 57 65
f 60 65 70
f 70 65 73
f 70 73 75
f 75 73 76
f 75 76 78
f 78 76 82
f 78 82 84
f 84 82 87
f 84 87 90
f 90 87 92
f 90 92 96
f 96 92 100
f 96 100 102
f 102 100 104
f 102 104 108
f 108 104 109
f 108 109 116
f 122 116 123
f 123 116 109
f 133 121 139
f 139 121 125
f 133 139 142
f 133 142 144
f 144 142 147
f 144 147 148
f 148 147 151
f 148 151 152
f 152 151 156
f 152 156 160
f 160 156 162
f 160 162 163
f 163 162 165
f 163 165 167
f 167 165 169
f 167 169 171
f 171 169 175
f 171 175 180
f 180 175 182
f 180 182 185
f 185 182 187
f 185 187 190
f 190 187 193
f 190 193 197
f 197 193 198
f 197 198 203
f 206 203 213
f 213 203 198
f 217 205 221
f 221 205 215
f 217 221 223
f 217 223 226
f 226 223 232
f 226 232 233
f 233 232 238
f 233 238 239
f 239 238 245
f 239 245 247
f 247 245 249
f 247 249 250
f 250 249 255
f 250 255 258
f 258 255 260
f 258 260 261
f 261 260 264
f 261 264 267
f 267 264 270
f 267 270 273
f 273 270 277
f 273 277 278
f 278 277 281
f 278 281 285
f 288 285 294
f 294 285 281
f 300 292 305
f 305 292 295
f 300 305 309
f 300 309 311
f 311 309 315
f 311 315 318
f 318 315 322
f 318 322 326
f 326 322 331
f 326 331 333
f 333 331 336
f 333 336 337
f 337 336 341
f 337 341 344
f 344 341 348
f 344 348 350
f 350 348 8
f 350 8 1
f 13 19 27
f 291 211 284
f 286 207 218
f 287 219 229
f 118 33 114
f 115 32 43
f 113 41 56
f 263 268 241
f 91 97 67
f 279 283 274
f 272 284 227
f 272 227 268
f 269 228 235
f 268 234 241
f 312 320 2
f 3 319 328
f 4 329 351
f 5 15 313
f 314 16 25
f 312 28 301
f 301 28 32
f 299 29 293
f 290 31 120
f 289 119 210
f 209 117 132
f 208 131 201
f 107 115 103
f 103 115 53
f 103 53 97
f 98 55 61
f 97 62 67
f 196 202 192
f 191 204 134
f 192 130 186
f 186 130 145
f 186 145 178
f 178 145 149
f 157 164 168
f 334 338 327
f 325 339 345
f 327 346 352
f 149 154 178
f 179 153 159
f 177 158 172
f 173 157 168
f 246 252 241
f 240 251 257
f 242 256 262
f 74 80 67
f 69 79 85
f 68 86 89
f 212 199 138
f 137 200 194
f 66 59 94
f 93 58 50
f 95 51 101
f 18 310 22
f 23 307 304
f 24 302 39
f 236 231 265
f 266 230 224
f 265 222 271
f 303 297 35
f 37 296 127
f 36 129 44
f 45 128 110
f 47 112 51
f 48 111 106
f 49 105 99
f 18 12 310
f 308 11 7
f 306 6 317
f 316 9 323
f 140 126 216
f 214 124 298
f 214 298 220
f 220 298 282
f 220 282 222
f 225 280 275
f 222 276 271
f 166 161 155
f 195 189 136
f 135 188 184
f 136 181 141
f 143 183 176
f 141 174 146
f 146 174 150
f 335 332 340
f 342 330 321
f 343 324 349
f 347 323 9
f 77 72 81
f 83 71 63
f 81 64 88
f 88 64 95
f 248 244 253
f 254 243 237
f 253 236 259
f 259 236 265
f 150 174 155
f 155 174 170
f 155 170 166
