mtllib converted_link3_3_969696ff.mtl
usemtl material
v -0.00015446473844349384 0.0009968254016712308 2.703266181924846e-05
v -0.00015446473844349384 0.0009968254016712308 2.703266181924846e-05
v -0.00015446473844349384 0.0009968254016712308 2.703266181924846e-05
v -0.00015446473844349384 0.0009968254016712308 2.703266181924846e-05
v -0.00014755059964954853 0.0010014149593189359 2.6552099370746873e-05
v -0.00014755059964954853 0.0010014149593189359 2.6552099370746873e-05
v 0.0012780062388628721 0.0012230846332386136 -8.198795694625005e-05
v 0.0012780062388628721 0.0012230846332386136 -8.198795694625005e-05
v 0.0012780062388628721 0.0012230846332386136 -8.198795694625005e-05
v 0.0012780062388628721 0.0012230846332386136 -8.198795694625005e-05
v 0.0012780062388628721 0.0012230846332386136 -8.198795694625005e-05
v 0.0012780062388628721 0.0012230846332386136 -8.198795694625005e-05
v 0.0012780062388628721 0.0012230846332386136 -8.198795694625005e-05
v -0.00014207442291080952 0.0010118457721546292 2.625221350172069e-05
v -0.00014207442291080952 0.0010118457721546292 2.625221350172069e-05
v 0.0014236874412745237 0.0033178937155753374 -6.207814294612035e-05
v 0.0014236874412745237 0.0033178937155753374 -6.207814294612035e-05
v -4.586507930071093e-05 0.0024460528511554003 4.014196019852534e-05
v -4.586507930071093e-05 0.0024460528511554003 4.014196019852534e-05
v -4.586507930071093e-05 0.0024460528511554003 4.014196019852534e-05
v -4.586507930071093e-05 0.0024460528511554003 4.014196019852534e-05
v -4.586507930071093e-05 0.0024460528511554003 4.014196019852534e-05
v 0.0014243952464312315 0.0033342253882437944 -6.189746636664495e-05
v 0.0014243952464312315 0.0033342253882437944 -6.189746636664495e-05
v 0.0014243952464312315 0.0033342253882437944 -6.189746636664495e-05
v 0.0014243952464312315 0.0033342253882437944 -6.189746636664495e-05
v -6.017019404680468e-05 0.0024616133887320757 4.1512867028359324e-05
v -6.017019404680468e-05 0.0024616133887320757 4.1512867028359324e-05
v -6.017019404680468e-05 0.0024616133887320757 4.1512867028359324e-05
v -6.017019404680468e-05 0.0024616133887320757 4.1512867028359324e-05
v -0.001363015966489911 0.0026177738327533007 0.0001460016646888107
v -0.001363015966489911 0.0026177738327533007 0.0001460016646888107
v -0.001363015966489911 0.0026177738327533007 0.0001460016646888107
v -0.001363015966489911 0.0026177738327533007 0.0001460016646888107
v -0.0016036920715123415 0.0024417054373770952 0.00016227187006734312
v -0.0016036920715123415 0.0024417054373770952 0.00016227187006734312
v -0.0016036920715123415 0.0024417054373770952 0.00016227187006734312
v -0.0016036920715123415 0.0024417054373770952 0.00016227187006734312
v -0.0023458965588361025 0.0037627231795340776 0.00024023288278840482
v -0.0023458965588361025 0.0037627231795340776 0.00024023288278840482
v -0.0023458965588361025 0.0037627231795340776 0.00024023288278840482
v -0.00036368449218571186 -0.0023910950403660536 -7.1878539529279806e-06
v -0.00036368449218571186 -0.0023910950403660536 -7.1878539529279806e-06
v -0.00036368449218571186 -0.0023910950403660536 -7.1878539529279806e-06
v -0.00036368449218571186 -0.0023910950403660536 -7.1878539529279806e-06
v -0.0003729232121258974 -0.002328756032511592 -5.517061254067812e-06
v -0.0003729232121258974 -0.002328756032511592 -5.517061254067812e-06
v -0.0003729232121258974 -0.002328756032511592 -5.517061254067812e-06
v 0.0010124153923243284 -0.0025868441443890333 -0.00011804690439021215
v 0.0010124153923243284 -0.0025868441443890333 -0.00011804690439021215
v 0.0010124153923243284 -0.0025868441443890333 -0.00011804690439021215
v 0.00103631685487926 -0.002239404944702983 -0.00011476864892756566
v 0.00103631685487926 -0.002239404944702983 -0.00011476864892756566
v 0.00103631685487926 -0.002239404944702983 -0.00011476864892756566
v 0.00103631685487926 -0.002239404944702983 -0.00011476864892756566
v -0.00036546518094837666 -0.0022222946863621473 -4.557799002213869e-06
v -0.00036546518094837666 -0.0022222946863621473 -4.557799002213869e-06
v -0.00035748560912907124 -0.0021159041207283735 -3.5482453313306905e-06
v -0.00035748560912907124 -0.0021159041207283735 -3.5482453313306905e-06
v -0.00035748560912907124 -0.0021159041207283735 -3.5482453313306905e-06
v 0.0010608143638819456 -0.0018919658614322543 -0.00011148853081976995
v 0.0010608143638819456 -0.0018919658614322543 -0.00011148853081976995
v 0.0010608143638819456 -0.0018919658614322543 -0.00011148853081976995
v -0.0003302462864667177 -0.0017545846058055758 -3.277319251537847e-07
v -0.0003302462864667177 -0.0017545846058055758 -3.277319251537847e-07
v -0.0003302462864667177 -0.0017545846058055758 -3.277319251537847e-07
v 0.0010847754310816526 -0.0015444745076820254 -0.000108158121292945
v 0.0010847754310816526 -0.0015444745076820254 -0.000108158121292945
v 0.0010847754310816526 -0.0015444745076820254 -0.000108158121292945
v -0.00030342419631779194 -0.0013932575238868594 3.01199088426074e-06
v -0.00030342419631779194 -0.0013932575238868594 3.01199088426074e-06
v -0.00030342419631779194 -0.0013932575238868594 3.01199088426074e-06
v 0.0011087364982813597 -0.0011969757033511996 -0.00010487800318514928
v 0.0011087364982813597 -0.0011969757033511996 -0.00010487800318514928
v 0.0011087364982813597 -0.0011969757033511996 -0.00010487800318514928
v -0.00027606566436588764 -0.0010076750768348575 6.582681635336485e-06
v -0.00027606566436588764 -0.0010076750768348575 6.582681635336485e-06
v -0.00027606566436588764 -0.0010076750768348575 6.582681635336485e-06
v 0.001133055193349719 -0.000851574179250747 -0.00010159788507735357
v 0.001133055193349719 -0.000851574179250747 -0.00010159788507735357
v 0.001133055193349719 -0.000851574179250747 -0.00010159788507735357
v -0.0002488859463483095 -0.0006221559015102684 1.0222290256933775e-05
v -0.0002488859463483095 -0.0006221559015102684 1.0222290256933775e-05
v -0.0002488859463483095 -0.0006221559015102684 1.0222290256933775e-05
v 0.0011573664378374815 -0.0005061652627773583 -9.831776696955785e-05
v 0.0011573664378374815 -0.0005061652627773583 -9.831776696955785e-05
v 0.0011573664378374815 -0.0005061652627773583 -9.831776696955785e-05
v -0.00023505021817982197 -0.0004394676652736962 1.1893082955793943e-05
v -0.00023505021817982197 -0.0004394676652736962 1.1893082955793943e-05
v -0.00023505021817982197 -0.0004394676652736962 1.1893082955793943e-05
v 0.0011813945602625608 -0.00015866647299844772 -9.503764886176214e-05
v 0.0011813945602625608 -0.00015866647299844772 -9.503764886176214e-05
v 0.0011813945602625608 -0.00015866647299844772 -9.503764886176214e-05
v -0.0002214603591710329 -0.00025677570374682546 1.356201300950488e-05
v -0.0002214603591710329 -0.00025677570374682546 1.356201300950488e-05
v -0.0002214603591710329 -0.00025677570374682546 1.356201300950488e-05
v 0.0012053556274622679 0.00018882488075178117 -9.169792610919103e-05
v 0.0012053556274622679 0.00018882488075178117 -9.169792610919103e-05
v 0.0012053556274622679 0.00018882488075178117 -9.169792610919103e-05
v -0.00022384454496204853 -0.00020688663062173873 1.4452357390837278e-05
v -0.00022384454496204853 -0.00020688663062173873 1.4452357390837278e-05
v -0.00022384454496204853 -0.00020688663062173873 1.4452357390837278e-05
v 0.0012296743225306273 0.0005342338117770851 -8.848858851706609e-05
v 0.0012296743225306273 0.0005342338117770851 -8.848858851706609e-05
v 0.0012296743225306273 0.0005342338117770851 -8.848858851706609e-05
v -0.00023445417173206806 -0.00018811489280778915 1.5582982086925767e-05
v -0.00023445417173206806 -0.00018811489280778915 1.5582982086925767e-05
v -0.00023445417173206806 -0.00018811489280778915 1.5582982086925767e-05
v -0.00023445417173206806 -0.00018811489280778915 1.5582982086925767e-05
v -0.00023445417173206806 -0.00018811489280778915 1.5582982086925767e-05
v 0.001254045171663165 0.0008796427282504737 -8.520847040927038e-05
v 0.001254045171663165 0.0008796427282504737 -8.520847040927038e-05
v -0.0011681609321385622 0.0011957857059314847 0.00010952176671708003
v -0.0011681609321385622 0.0011957857059314847 0.00010952176671708003
v -0.0011681609321385622 0.0011957857059314847 0.00010952176671708003
v -0.0011681609321385622 0.0011957857059314847 0.00010952176671708003
v -0.0020168714690953493 0.0002875935169868171 0.0001625121512915939
v -0.0020168714690953493 0.0002875935169868171 0.0001625121512915939
v -0.0020168714690953493 0.0002875935169868171 0.0001625121512915939
v -0.0014787011314183474 0.001367562566883862 0.00013640159158967435
v -0.0014787011314183474 0.001367562566883862 0.00013640159158967435
v -0.0014787011314183474 0.001367562566883862 0.00013640159158967435
v -0.002355843083932996 0.0005139756831340492 0.00019249142496846616
v -0.002355843083932996 0.0005139756831340492 0.00019249142496846616
v -0.002355843083932996 0.0005139756831340492 0.00019249142496846616
v -0.0016866617370396852 0.001656052772887051 0.00015703224926255643
v -0.0016866617370396852 0.001656052772887051 0.00015703224926255643
v -0.0016866617370396852 0.001656052772887051 0.00015703224926255643
v -0.002771645085886121 0.0009651157888583839 0.0002318323531653732
v -0.002771645085886121 0.0009651157888583839 0.0002318323531653732
v -0.002771645085886121 0.0009651157888583839 0.0002318323531653732
v -0.001746743218973279 0.0018997128354385495 0.00016537317424081266
v -0.001746743218973279 0.0018997128354385495 0.00016537317424081266
v -0.001746743218973279 0.0018997128354385495 0.00016537317424081266
v -0.0030325346160680056 0.0015200349735096097 0.0002605617919471115
v -0.0030325346160680056 0.0015200349735096097 0.0002605617919471115
v -0.0030325346160680056 0.0015200349735096097 0.0002605617919471115
v -0.0017332129646092653 0.0021504138130694628 0.00016805165796540678
v -0.0017332129646092653 0.0021504138130694628 0.00016805165796540678
v -0.0017332129646092653 0.0021504138130694628 0.00016805165796540678
v -0.003128140466287732 0.002215982647612691 0.00027844132273457944
v -0.003128140466287732 0.002215982647612691 0.00027844132273457944
v -0.003128140466287732 0.002215982647612691 0.00027844132273457944
v -0.0016883902717381716 0.002304972382262349 0.0001668614277150482
v -0.0016883902717381716 0.002304972382262349 0.0001668614277150482
v -0.0016883902717381716 0.002304972382262349 0.0001668614277150482
v -0.003009415464475751 0.0029081155080348253 0.00027951234369538724
v -0.003009415464475751 0.0029081155080348253 0.00027951234369538724
v -0.003009415464475751 0.0029081155080348253 0.00027951234369538724
v -0.0027595453429967165 0.0033982445020228624 0.00026723192422650754
v -0.0027595453429967165 0.0033982445020228624 0.00026723192422650754
v 0.0009283653926104307 -0.002702056197449565 -0.00011315746087348089
v -0.0003106959629803896 -0.0024619053583592176 -1.2427474757714663e-05
v -0.0003106959629803896 -0.0024619053583592176 -1.2427474757714663e-05
v 0.0009766451548784971 -0.0026789854746311903 -0.000116618255560752
v 0.0009766451548784971 -0.0026789854746311903 -0.000116618255560752
v 0.0009766451548784971 -0.0026789854746311903 -0.000116618255560752
v 0.0009985275100916624 -0.0026543166022747755 -0.00011798729974543676
v 0.0009985275100916624 -0.0026543166022747755 -0.00011798729974543676
v -0.0002597339916974306 -0.00017350430425722152 1.7792079233913682e-05
v -0.0002597339916974306 -0.00017350430425722152 1.7792079233913682e-05
v -0.0002597339916974306 -0.00017350430425722152 1.7792079233913682e-05
v -0.0001708038616925478 0.000995335285551846 2.8282496714382432e-05
v -0.0001708038616925478 0.000995335285551846 2.8282496714382432e-05
v -0.0001708038616925478 0.000995335285551846 2.8282496714382432e-05
v -0.0002934627700597048 -0.00016474614676553756 2.053203024843242e-05
v -0.0002934627700597048 -0.00016474614676553756 2.053203024843242e-05
v -0.0002934627700597048 -0.00016474614676553756 2.053203024843242e-05
v -0.0002934627700597048 -0.00016474614676553756 2.053203024843242e-05
v -0.00020358641631901264 0.0010004054056480527 3.090137761319056e-05
v -0.00020358641631901264 0.0010004054056480527 3.090137761319056e-05
v -0.0020516805816441774 0.003896353067830205 0.00021913283853791654
v -0.0020516805816441774 0.003896353067830205 0.00021913283853791654
v -0.001736670034006238 0.003966634161770344 0.0001954716572072357
v -0.001736670034006238 0.003966634161770344 0.0001954716572072357
v -0.001736670034006238 0.003966634161770344 0.0001954716572072357
v -0.0012334354687482119 0.002651994349434972 0.00013634198694489896
v -0.0012334354687482119 0.002651994349434972 0.00013634198694489896
v -0.0012334354687482119 0.002651994349434972 0.00013634198694489896
v -0.0013853602577000856 0.003975273109972477 0.00016805165796540678
v -0.0013853602577000856 0.003975273109972477 0.00016805165796540678
v -0.0013853602577000856 0.003975273109972477 0.00016805165796540678
v -0.0010049038100987673 0.0026481759268790483 0.00011840285878861323
v -0.0010049038100987673 0.0026481759268790483 0.00011840285878861323
v -0.0010049038100987673 0.0026481759268790483 0.00011840285878861323
v -0.0010377534199506044 0.0039289044216275215 0.00014010266750119627
v -0.0010377534199506044 0.0039289044216275215 0.00014010266750119627
v -0.0010377534199506044 0.0039289044216275215 0.00014010266750119627
v -9.689410944702104e-05 0.002474786015227437 4.4552703911904246e-05
v -9.689410944702104e-05 0.002474786015227437 4.4552703911904246e-05
v -9.689410944702104e-05 0.002474786015227437 4.4552703911904246e-05
v 0.0013060278724879026 0.0034756038803607225 -5.051856714999303e-05
v 0.0013060278724879026 0.0034756038803607225 -5.051856714999303e-05
v 0.0013060278724879026 0.0034756038803607225 -5.051856714999303e-05
v 0.0013768381904810667 0.003447112860158086 -5.6477168982382864e-05
v 0.0013768381904810667 0.003447112860158086 -5.6477168982382864e-05
v 0.0013768381904810667 0.003447112860158086 -5.6477168982382864e-05
v 0.0014105148147791624 0.0034068834502249956 -5.975728709017858e-05
v -0.0001370005775243044 0.0010494041489437222 2.6432890081196092e-05
v -0.0001370005775243044 0.0010494041489437222 2.6432890081196092e-05
v -0.00011065533180953935 0.0014148923801258206 2.983221747854259e-05
v -0.00011065533180953935 0.0014148923801258206 2.983221747854259e-05
v -0.00011065533180953935 0.0014148923801258206 2.983221747854259e-05
v 0.001301974756643176 0.001566522871144116 -7.870783883845434e-05
v 0.001301974756643176 0.001566522871144116 -7.870783883845434e-05
v 0.001301974756643176 0.001566522871144116 -7.870783883845434e-05
v -8.44367386889644e-05 0.0017803955124691129 3.323154669487849e-05
v -8.44367386889644e-05 0.0017803955124691129 3.323154669487849e-05
v -8.44367386889644e-05 0.0017803955124691129 3.323154669487849e-05
v 0.001326345605775714 0.001915992354042828 -7.542772073065862e-05
v 0.001326345605775714 0.001915992354042828 -7.542772073065862e-05
v 0.001326345605775714 0.001915992354042828 -7.542772073065862e-05
v -6.202539225341752e-05 0.0020896729547530413 3.609256964409724e-05
v -6.202539225341752e-05 0.0020896729547530413 3.609256964409724e-05
v -6.202539225341752e-05 0.0020896729547530413 3.609256964409724e-05
v 0.0013506643008440733 0.002265454502776265 -7.208799797808751e-05
v 0.0013506643008440733 0.002265454502776265 -7.208799797808751e-05
v 0.0013506643008440733 0.002265454502776265 -7.208799797808751e-05
v -3.967364682466723e-05 0.0023989055771380663 3.895172994816676e-05
v -3.967364682466723e-05 0.0023989055771380663 3.895172994816676e-05
v -3.967364682466723e-05 0.0023989055771380663 3.895172994816676e-05
v 0.0013724870514124632 0.0025807630736380816 -6.910776573931798e-05
v 0.0013724870514124632 0.0025807630736380816 -6.910776573931798e-05
v 0.0013724870514124632 0.0025807630736380816 -6.910776573931798e-05
v -3.9256414311239496e-05 0.002416734816506505 3.919201117241755e-05
v -3.9256414311239496e-05 0.002416734816506505 3.919201117241755e-05
v -3.9256414311239496e-05 0.002416734816506505 3.919201117241755e-05
v 0.0013942352961748838 0.002896134974434972 -6.606792885577306e-05
v 0.0013942352961748838 0.002896134974434972 -6.606792885577306e-05
v 0.0013942352961748838 0.002896134974434972 -6.606792885577306e-05
v 0.0014088458847254515 0.0031070124823600054 -6.41084261587821e-05
v 0.0014088458847254515 0.0031070124823600054 -6.41084261587821e-05
v -0.0004307322669774294 0.0010442744242027402 4.938254278386012e-05
v -0.0004307322669774294 0.0010442744242027402 4.938254278386012e-05
v -0.0004307322669774294 0.0010442744242027402 4.938254278386012e-05
v -0.0008516006637364626 -5.7044275308726355e-05 6.595263403141871e-05
v -0.0008516006637364626 -5.7044275308726355e-05 6.595263403141871e-05
v -0.0008516006637364626 -5.7044275308726355e-05 6.595263403141871e-05
v -0.0006830461788922548 0.0010932657169178128 6.988281529629603e-05
v -0.0006830461788922548 0.0010932657169178128 6.988281529629603e-05
v -0.0006830461788922548 0.0010932657169178128 6.988281529629603e-05
v -0.0014083751011639833 5.781387517345138e-05 0.00011131176870549098
v -0.0014083751011639833 5.781387517345138e-05 0.00011131176870549098
v -0.0014083751011639833 5.781387517345138e-05 0.00011131176870549098
v -0.0009143047500401735 0.0011366057442501187 8.872160833561793e-05
v -0.0009143047500401735 0.0011366057442501187 8.872160833561793e-05
v -0.0009143047500401735 0.0011366057442501187 8.872160833561793e-05
v -0.0015271001029759645 8.845438424032182e-05 0.00012108134251320735
v -0.0015271001029759645 8.845438424032182e-05 0.00012108134251320735
v -0.0015271001029759645 8.845438424032182e-05 0.00012108134251320735
v -0.0016436942387372255 0.00012493242684286088 0.0001308024802710861
v -0.0016436942387372255 0.00012493242684286088 0.0001308024802710861
f 1 5 12
f 7 6 14
f 17 19 25
f 23 18 29
f 34 36 39
f 44 46 50
f 51 47 52
f 48 57 55
f 53 56 58
f 54 59 61
f 62 60 66
f 63 64 67
f 68 65 70
f 69 71 73
f 74 72 76
f 75 78 79
f 80 77 84
f 81 83 87
f 86 82 88
f 85 90 92
f 93 89 96
f 91 95 98
f 97 94 102
f 99 101 105
f 104 100 109
f 103 108 111
f 112 110 11
f 113 119 120
f 121 117 123
f 122 125 127
f 128 124 129
f 126 130 132
f 134 131 135
f 133 136 138
f 140 137 142
f 139 141 145
f 146 143 149
f 144 148 35
f 37 147 150
f 38 151 41
f 152 153 157
f 155 154 45
f 156 42 159
f 158 43 49
f 13 107 4
f 2 106 160
f 3 162 163
f 164 161 169
f 165 168 170
f 40 172 32
f 31 173 175
f 33 176 177
f 178 174 180
f 179 181 183
f 185 182 186
f 184 187 191
f 189 188 192
f 190 193 27
f 28 194 195
f 30 196 26
f 24 197 198
f 15 200 10
f 9 199 203
f 8 201 204
f 206 202 209
f 205 208 211
f 210 207 214
f 212 215 216
f 218 213 220
f 217 219 223
f 222 221 226
f 224 227 230
f 229 225 20
f 228 21 231
f 232 22 16
f 171 166 233
f 234 167 236
f 235 237 239
f 241 238 243
f 240 244 245
f 246 242 248
f 247 249 116
f 115 250 251
f 114 252 118
