mtllib converted_link2_27_242424ff.mtl
usemtl material
v 9.998492896556854e-05 -0.001488658250309527 0.018438439816236496
v 9.998492896556854e-05 -0.001488658250309527 0.018438439816236496
v 9.998492896556854e-05 2.7322730744572254e-08 0.018498459830880165
v 9.998492896556854e-05 2.7322730744572254e-08 0.018498459830880165
v 9.998492896556854e-05 2.7322730744572254e-08 0.018498459830880165
v -9.998492896556854e-05 2.7322730744572254e-08 0.018498459830880165
v -9.998492896556854e-05 2.7322730744572254e-08 0.018498459830880165
v -9.998492896556854e-05 2.7322730744572254e-08 0.018498459830880165
v -9.998492896556854e-05 0.0014886235585436225 0.018438439816236496
v -9.998492896556854e-05 0.0014886235585436225 0.018438439816236496
v -9.998492896556854e-05 0.0014886235585436225 0.018438439816236496
v 9.998492896556854e-05 0.0014886235585436225 0.018438439816236496
v 9.998492896556854e-05 0.0014886235585436225 0.018438439816236496
v 9.998492896556854e-05 0.0014886235585436225 0.018438439816236496
v 9.998492896556854e-05 0.004427341278642416 0.017960889264941216
v 9.998492896556854e-05 0.004427341278642416 0.017960889264941216
v 9.998492896556854e-05 0.004427341278642416 0.017960889264941216
v -9.998492896556854e-05 0.004427341278642416 0.017960889264941216
v -9.998492896556854e-05 0.004427341278642416 0.017960889264941216
v -9.998492896556854e-05 0.004427341278642416 0.017960889264941216
v 9.998492896556854e-05 0.007251319941133261 0.017018059268593788
v 9.998492896556854e-05 0.007251319941133261 0.017018059268593788
v 9.998492896556854e-05 0.007251319941133261 0.017018059268593788
v -9.998492896556854e-05 0.007251319941133261 0.017018059268593788
v -9.998492896556854e-05 0.007251319941133261 0.017018059268593788
v -9.998492896556854e-05 0.007251319941133261 0.017018059268593788
v 9.998492896556854e-05 0.0098876329138875 0.015634458512067795
v 9.998492896556854e-05 0.0098876329138875 0.015634458512067795
v 9.998492896556854e-05 0.0098876329138875 0.015634458512067795
v -9.998492896556854e-05 0.0098876329138875 0.015634458512067795
v -9.998492896556854e-05 0.0098876329138875 0.015634458512067795
v -9.998492896556854e-05 0.0098876329138875 0.015634458512067795
v 9.998492896556854e-05 0.012267735786736012 0.013845899142324924
v 9.998492896556854e-05 0.012267735786736012 0.013845899142324924
v 9.998492896556854e-05 0.012267735786736012 0.013845899142324924
v -9.998492896556854e-05 0.012267735786736012 0.013845899142324924
v -9.998492896556854e-05 0.012267735786736012 0.013845899142324924
v -9.998492896556854e-05 0.012267735786736012 0.013845899142324924
v 9.998492896556854e-05 0.014330235309898853 0.01169870886951685
v 9.998492896556854e-05 0.014330235309898853 0.01169870886951685
v 9.998492896556854e-05 0.014330235309898853 0.01169870886951685
v -9.998492896556854e-05 0.014330235309898853 0.01169870886951685
v -9.998492896556854e-05 0.014330235309898853 0.01169870886951685
v -9.998492896556854e-05 0.014330235309898853 0.01169870886951685
v 9.998492896556854e-05 0.016021428629755974 0.009248479269444942
v 9.998492896556854e-05 0.016021428629755974 0.009248479269444942
v 9.998492896556854e-05 0.016021428629755974 0.009248479269444942
v -9.998492896556854e-05 0.016021428629755974 0.009248479269444942
v -9.998492896556854e-05 0.016021428629755974 0.009248479269444942
v -9.998492896556854e-05 0.016021428629755974 0.009248479269444942
v 9.998492896556854e-05 0.017297832295298576 0.006558639463037252
v 9.998492896556854e-05 0.017297832295298576 0.006558639463037252
v 9.998492896556854e-05 0.017297832295298576 0.006558639463037252
v -9.998492896556854e-05 0.017297832295298576 0.006558639463037252
v -9.998492896556854e-05 0.017297832295298576 0.006558639463037252
v 9.998492896556854e-05 0.018126128241419792 0.0036989294458180666
v 9.998492896556854e-05 0.018126128241419792 0.0036989294458180666
v -9.998492896556854e-05 0.018126128241419792 0.0036989294458180666
v -9.998492896556854e-05 0.018126128241419792 0.0036989294458180666
v -9.998492896556854e-05 0.018126128241419792 0.0036989294458180666
v 9.998492896556854e-05 0.018485037609934807 0.0007433698046952486
v 9.998492896556854e-05 0.018485037609934807 0.0007433698046952486
v -9.998492896556854e-05 0.018485037609934807 0.0007433698046952486
v -9.998492896556854e-05 0.018485037609934807 0.0007433698046952486
v -9.998492896556854e-05 0.018485037609934807 0.0007433698046952486
v 9.998492896556854e-05 0.01836514286696911 -0.002231501741334796
v 9.998492896556854e-05 0.01836514286696911 -0.002231501741334796
v -9.998492896556854e-05 0.01836514286696911 -0.002231501741334796
v -9.998492896556854e-05 0.01836514286696911 -0.002231501741334796
v -9.998492896556854e-05 0.01836514286696911 -0.002231501741334796
v 9.998492896556854e-05 0.017769543454051018 -0.005148549098521471
v 9.998492896556854e-05 0.017769543454051018 -0.005148549098521471
v -9.998492896556854e-05 0.017769543454051018 -0.005148549098521471
v -9.998492896556854e-05 0.017769543454051018 -0.005148549098521471
v -9.998492896556854e-05 0.017769543454051018 -0.005148549098521471
v 9.998492896556854e-05 0.0167138259857893 -0.007932380773127079
v 9.998492896556854e-05 0.0167138259857893 -0.007932380773127079
v 9.998492896556854e-05 0.0167138259857893 -0.007932380773127079
v -9.998492896556854e-05 0.0167138259857893 -0.007932380773127079
v -9.998492896556854e-05 0.0167138259857893 -0.007932380773127079
v 9.998492896556854e-05 0.015225228853523731 -0.010510762222111225
v 9.998492896556854e-05 0.015225228853523731 -0.010510762222111225
v 9.998492896556854e-05 0.015225228853523731 -0.010510762222111225
v -9.998492896556854e-05 0.015225228853523731 -0.010510762222111225
v -9.998492896556854e-05 0.015225228853523731 -0.010510762222111225
v -9.998492896556854e-05 0.015225228853523731 -0.010510762222111225
v 9.998492896556854e-05 0.013342228718101978 -0.012816921807825565
v 9.998492896556854e-05 0.013342228718101978 -0.012816921807825565
v 9.998492896556854e-05 0.013342228718101978 -0.012816921807825565
v -9.998492896556854e-05 0.013342228718101978 -0.012816921807825565
v -9.998492896556854e-05 0.013342228718101978 -0.012816921807825565
v -9.998492896556854e-05 0.013342228718101978 -0.012816921807825565
v 9.998492896556854e-05 0.011113730259239674 -0.014791210182011127
v 9.998492896556854e-05 0.011113730259239674 -0.014791210182011127
v 9.998492896556854e-05 0.011113730259239674 -0.014791210182011127
v -9.998492896556854e-05 0.011113730259239674 -0.014791210182011127
v -9.998492896556854e-05 0.011113730259239674 -0.014791210182011127
v -9.998492896556854e-05 0.011113730259239674 -0.014791210182011127
v 9.998492896556854e-05 0.008597341366112232 -0.016382470726966858
v 9.998492896556854e-05 0.008597341366112232 -0.016382470726966858
v 9.998492896556854e-05 0.008597341366112232 -0.016382470726966858
v -9.998492896556854e-05 0.008597341366112232 -0.016382470726966858
v -9.998492896556854e-05 0.008597341366112232 -0.016382470726966858
v -9.998492896556854e-05 0.008597341366112232 -0.016382470726966858
v 9.998492896556854e-05 0.005858329590409994 -0.01754947006702423
v 9.998492896556854e-05 0.005858329590409994 -0.01754947006702423
v 9.998492896556854e-05 0.005858329590409994 -0.01754947006702423
v -9.998492896556854e-05 0.005858329590409994 -0.01754947006702423
v -9.998492896556854e-05 0.005858329590409994 -0.01754947006702423
v -9.998492896556854e-05 0.005858329590409994 -0.01754947006702423
v 9.998492896556854e-05 0.002967623295262456 -0.018261991441249847
v 9.998492896556854e-05 0.002967623295262456 -0.018261991441249847
v 9.998492896556854e-05 0.002967623295262456 -0.018261991441249847
v -9.998492896556854e-05 0.002967623295262456 -0.018261991441249847
v -9.998492896556854e-05 0.002967623295262456 -0.018261991441249847
v -9.998492896556854e-05 0.002967623295262456 -0.018261991441249847
v 9.998492896556854e-05 2.7322730744572254e-08 -0.018501538783311844
v 9.998492896556854e-05 2.7322730744572254e-08 -0.018501538783311844
v 9.998492896556854e-05 2.7322730744572254e-08 -0.018501538783311844
v -9.998492896556854e-05 2.7322730744572254e-08 -0.018501538783311844
v -9.998492896556854e-05 2.7322730744572254e-08 -0.018501538783311844
v -9.998492896556854e-05 2.7322730744572254e-08 -0.018501538783311844
v 9.998492896556854e-05 -0.002967568812891841 -0.018261991441249847
v 9.998492896556854e-05 -0.002967568812891841 -0.018261991441249847
v 9.998492896556854e-05 -0.002967568812891841 -0.018261991441249847
v -9.998492896556854e-05 -0.002967568812891841 -0.018261991441249847
v -9.998492896556854e-05 -0.002967568812891841 -0.018261991441249847
v -9.998492896556854e-05 -0.002967568812891841 -0.018261991441249847
v 9.998492896556854e-05 -0.005858364049345255 -0.01754947006702423
v 9.998492896556854e-05 -0.005858364049345255 -0.01754947006702423
v 9.998492896556854e-05 -0.005858364049345255 -0.01754947006702423
v -9.998492896556854e-05 -0.005858364049345255 -0.01754947006702423
v -9.998492896556854e-05 -0.005858364049345255 -0.01754947006702423
v -9.998492896556854e-05 -0.005858364049345255 -0.01754947006702423
v 9.998492896556854e-05 -0.008597376756370068 -0.016382470726966858
v 9.998492896556854e-05 -0.008597376756370068 -0.016382470726966858
v 9.998492896556854e-05 -0.008597376756370068 -0.016382470726966858
v -9.998492896556854e-05 -0.008597376756370068 -0.016382470726966858
v -9.998492896556854e-05 -0.008597376756370068 -0.016382470726966858
v -9.998492896556854e-05 -0.008597376756370068 -0.016382470726966858
v 9.998492896556854e-05 -0.011113676242530346 -0.014791210182011127
v 9.998492896556854e-05 -0.011113676242530346 -0.014791210182011127
v 9.998492896556854e-05 -0.011113676242530346 -0.014791210182011127
v -9.998492896556854e-05 -0.011113676242530346 -0.014791210182011127
v -9.998492896556854e-05 -0.011113676242530346 -0.014791210182011127
v -9.998492896556854e-05 -0.011113676242530346 -0.014791210182011127
v 9.998492896556854e-05 -0.013342264108359814 -0.012816921807825565
v 9.998492896556854e-05 -0.013342264108359814 -0.012816921807825565
v 9.998492896556854e-05 -0.013342264108359814 -0.012816921807825565
v -9.998492896556854e-05 -0.013342264108359814 -0.012816921807825565
v -9.998492896556854e-05 -0.013342264108359814 -0.012816921807825565
v -9.998492896556854e-05 -0.013342264108359814 -0.012816921807825565
v 9.998492896556854e-05 -0.015225174836814404 -0.010510762222111225
v 9.998492896556854e-05 -0.015225174836814404 -0.010510762222111225
v 9.998492896556854e-05 -0.015225174836814404 -0.010510762222111225
v -9.998492896556854e-05 -0.015225174836814404 -0.010510762222111225
v -9.998492896556854e-05 -0.015225174836814404 -0.010510762222111225
v -9.998492896556854e-05 -0.015225174836814404 -0.010510762222111225
v 9.998492896556854e-05 -0.016713770106434822 -0.007932380773127079
v 9.998492896556854e-05 -0.016713770106434822 -0.007932380773127079
v -9.998492896556854e-05 -0.016713770106434822 -0.007932380773127079
v -9.998492896556854e-05 -0.016713770106434822 -0.007932380773127079
v -9.998492896556854e-05 -0.016713770106434822 -0.007932380773127079
v 9.998492896556854e-05 -0.017769576981663704 -0.005148549098521471
v 9.998492896556854e-05 -0.017769576981663704 -0.005148549098521471
v -9.998492896556854e-05 -0.017769576981663704 -0.005148549098521471
v -9.998492896556854e-05 -0.017769576981663704 -0.005148549098521471
v -9.998492896556854e-05 -0.017769576981663704 -0.005148549098521471
v 9.998492896556854e-05 -0.018365057185292244 -0.002231501741334796
v 9.998492896556854e-05 -0.018365057185292244 -0.002231501741334796
v -9.998492896556854e-05 -0.018365057185292244 -0.002231501741334796
v -9.998492896556854e-05 -0.018365057185292244 -0.002231501741334796
v -9.998492896556854e-05 -0.018365057185292244 -0.002231501741334796
v 9.998492896556854e-05 -0.018485071137547493 0.0007433698046952486
v 9.998492896556854e-05 -0.018485071137547493 0.0007433698046952486
v -9.998492896556854e-05 -0.018485071137547493 0.0007433698046952486
v -9.998492896556854e-05 -0.018485071137547493 0.0007433698046952486
v -9.998492896556854e-05 -0.018485071137547493 0.0007433698046952486
v 9.998492896556854e-05 -0.01812616176903248 0.0036989294458180666
v 9.998492896556854e-05 -0.01812616176903248 0.0036989294458180666
v 9.998492896556854e-05 -0.01812616176903248 0.0036989294458180666
v -9.998492896556854e-05 -0.01812616176903248 0.0036989294458180666
v -9.998492896556854e-05 -0.01812616176903248 0.0036989294458180666
v -9.998492896556854e-05 -0.01812616176903248 0.0036989294458180666
v 9.998492896556854e-05 -0.017297865822911263 0.006558639463037252
v 9.998492896556854e-05 -0.017297865822911263 0.006558639463037252
v 9.998492896556854e-05 -0.017297865822911263 0.006558639463037252
v -9.998492896556854e-05 -0.017297865822911263 0.006558639463037252
v -9.998492896556854e-05 -0.017297865822911263 0.006558639463037252
v -9.998492896556854e-05 -0.017297865822911263 0.006558639463037252
v 9.998492896556854e-05 -0.01602146215736866 0.009248479269444942
v 9.998492896556854e-05 -0.01602146215736866 0.009248479269444942
v 9.998492896556854e-05 -0.01602146215736866 0.009248479269444942
v -9.998492896556854e-05 -0.01602146215736866 0.009248479269444942
v -9.998492896556854e-05 -0.01602146215736866 0.009248479269444942
v -9.998492896556854e-05 -0.01602146215736866 0.009248479269444942
v 9.998492896556854e-05 -0.014330181293189526 0.01169870886951685
v 9.998492896556854e-05 -0.014330181293189526 0.01169870886951685
v 9.998492896556854e-05 -0.014330181293189526 0.01169870886951685
v -9.998492896556854e-05 -0.014330181293189526 0.01169870886951685
v -9.998492896556854e-05 -0.014330181293189526 0.01169870886951685
v -9.998492896556854e-05 -0.014330181293189526 0.01169870886951685
v 9.998492896556854e-05 -0.012267771176993847 0.013845899142324924
v 9.998492896556854e-05 -0.012267771176993847 0.013845899142324924
v 9.998492896556854e-05 -0.012267771176993847 0.013845899142324924
v -9.998492896556854e-05 -0.012267771176993847 0.013845899142324924
v -9.998492896556854e-05 -0.012267771176993847 0.013845899142324924
v -9.998492896556854e-05 -0.012267771176993847 0.013845899142324924
v 9.998492896556854e-05 -0.009887668304145336 0.015634458512067795
v 9.998492896556854e-05 -0.009887668304145336 0.015634458512067795
v 9.998492896556854e-05 -0.009887668304145336 0.015634458512067795
v -9.998492896556854e-05 -0.009887668304145336 0.015634458512067795
v -9.998492896556854e-05 -0.009887668304145336 0.015634458512067795
v -9.998492896556854e-05 -0.009887668304145336 0.015634458512067795
v 9.998492896556854e-05 -0.0072513544000685215 0.017018059268593788
v 9.998492896556854e-05 -0.0072513544000685215 0.017018059268593788
v 9.998492896556854e-05 -0.0072513544000685215 0.017018059268593788
v -9.998492896556854e-05 -0.0072513544000685215 0.017018059268593788
v -9.998492896556854e-05 -0.0072513544000685215 0.017018059268593788
v -9.998492896556854e-05 -0.0072513544000685215 0.017018059268593788
v 9.998492896556854e-05 -0.004427375737577677 0.017960889264941216
v 9.998492896556854e-05 -0.004427375737577677 0.017960889264941216
v 9.998492896556854e-05 -0.004427375737577677 0.017960889264941216
v -9.998492896556854e-05 -0.004427375737577677 0.017960889264941216
v -9.998492896556854e-05 -0.004427375737577677 0.017960889264941216
v -9.998492896556854e-05 -0.004427375737577677 0.017960889264941216
v -9.998492896556854e-05 -0.001488658250309527 0.018438439816236496
v -9.998492896556854e-05 -0.001488658250309527 0.018438439816236496
v -9.998492896556854e-05 -0.001488658250309527 0.018438439816236496
v 9.998492896556854e-05 2.7322730744572254e-08 -1.5709002809671802e-06
v 9.998492896556854e-05 2.7322730744572254e-08 -1.5709002809671802e-06
v 9.998492896556854e-05 2.7322730744572254e-08 -1.5709002809671802e-06
v 9.998492896556854e-05 2.7322730744572254e-08 -1.5709002809671802e-06
v 9.998492896556854e-05 2.7322730744572254e-08 -1.5709002809671802e-06
v 9.998492896556854e-05 2.7322730744572254e-08 -1.5709002809671802e-06
v 9.998492896556854e-05 2.7322730744572254e-08 -1.5709002809671802e-06
v 9.998492896556854e-05 2.7322730744572254e-08 -1.5709002809671802e-06
v 9.998492896556854e-05 2.7322730744572254e-08 -1.5709002809671802e-06
v 9.998492896556854e-05 2.7322730744572254e-08 -1.5709002809671802e-06
v 9.998492896556854e-05 2.7322730744572254e-08 -1.5709002809671802e-06
v 9.998492896556854e-05 2.7322730744572254e-08 -1.5709002809671802e-06
v 9.998492896556854e-05 2.7322730744572254e-08 -1.5709002809671802e-06
v 9.998492896556854e-05 2.7322730744572254e-08 -1.5709002809671802e-06
v 9.998492896556854e-05 2.7322730744572254e-08 -1.5709002809671802e-06
v 9.998492896556854e-05 2.7322730744572254e-08 -1.5709002809671802e-06
v 9.998492896556854e-05 2.7322730744572254e-08 -1.5709002809671802e-06
v 9.998492896556854e-05 2.7322730744572254e-08 -1.5709002809671802e-06
v 9.998492896556854e-05 2.7322730744572254e-08 -1.5709002809671802e-06
v 9.998492896556854e-05 2.7322730744572254e-08 -1.5709002809671802e-06
v 9.998492896556854e-05 2.7322730744572254e-08 -1.5709002809671802e-06
v -9.998492896556854e-05 2.7322730744572254e-08 -1.5709002809671802e-06
v -9.998492896556854e-05 2.7322730744572254e-08 -1.5709002809671802e-06
v -9.998492896556854e-05 2.7322730744572254e-08 -1.5709002809671802e-06
v -9.998492896556854e-05 2.7322730744572254e-08 -1.5709002809671802e-06
v -9.998492896556854e-05 2.7322730744572254e-08 -1.5709002809671802e-06
v -9.998492896556854e-05 2.7322730744572254e-08 -1.5709002809671802e-06
v -9.998492896556854e-05 2.7322730744572254e-08 -1.5709002809671802e-06
v -9.998492896556854e-05 2.7322730744572254e-08 -1.5709002809671802e-06
v -9.998492896556854e-05 2.7322730744572254e-08 -1.5709002809671802e-06
v -9.998492896556854e-05 2.7322730744572254e-08 -1.5709002809671802e-06
v -9.998492896556854e-05 2.7322730744572254e-08 -1.5709002809671802e-06
v -9.998492896556854e-05 2.7322730744572254e-08 -1.5709002809671802e-06
v -9.998492896556854e-05 2.7322730744572254e-08 -1.5709002809671802e-06
v -9.998492896556854e-05 2.7322730744572254e-08 -1.5709002809671802e-06
v -9.998492896556854e-05 2.7322730744572254e-08 -1.5709002809671802e-06
v -9.998492896556854e-05 2.7322730744572254e-08 -1.5709002809671802e-06
v -9.998492896556854e-05 2.7322730744572254e-08 -1.5709002809671802e-06
v -9.998492896556854e-05 2.7322730744572254e-08 -1.5709002809671802e-06
v -9.998492896556854e-05 2.7322730744572254e-08 -1.5709002809671802e-06
v -9.998492896556854e-05 2.7322730744572254e-08 -1.5709002809671802e-06
v -9.998492896556854e-05 2.7322730744572254e-08 -1.5709002809671802e-06
v -9.998492896556854e-05 2.7322730744572254e-08 -1.5709002809671802e-06
v -9.998492896556854e-05 2.7322730744572254e-08 -1.5709002809671802e-06
v -9.998492896556854e-05 2.7322730744572254e-08 -1.5709002809671802e-06
v -9.998492896556854e-05 2.7322730744572254e-08 -1.5709002809671802e-06
f 1 3 6
f 6 3 9
f 3 14 9
f 9 14 16
f 9 16 19
f 19 16 23
f 19 23 25
f 25 23 29
f 25 29 32
f 32 29 33
f 32 33 38
f 38 33 41
f 38 41 43
f 43 41 45
f 43 45 49
f 49 45 52
f 49 52 55
f 55 52 57
f 55 57 59
f 59 57 61
f 59 61 65
f 65 61 66
f 65 66 69
f 69 66 71
f 69 71 75
f 75 71 78
f 75 78 80
f 80 78 82
f 80 82 86
f 86 82 89
f 86 89 92
f 92 89 94
f 92 94 98
f 98 94 101
f 98 101 103
f 103 101 106
f 103 106 108
f 108 106 111
f 108 111 115
f 115 111 118
f 115 118 120
f 120 118 123
f 120 123 128
f 128 123 131
f 128 131 133
f 133 131 135
f 133 135 139
f 139 135 143
f 139 143 145
f 145 143 149
f 145 149 152
f 152 149 153
f 152 153 158
f 158 153 160
f 158 160 163
f 163 160 164
f 163 164 167
f 167 164 170
f 167 170 172
f 172 170 175
f 172 175 178
f 178 175 181
f 178 181 183
f 183 181 186
f 183 186 188
f 188 186 191
f 188 191 194
f 194 191 197
f 194 197 202
f 202 197 203
f 202 203 207
f 207 203 211
f 207 211 214
f 214 211 215
f 214 215 220
f 220 215 223
f 220 223 224
f 224 223 1
f 224 1 228
f 228 1 6
f 5 2 246
f 22 15 246
f 250 17 13
f 249 12 4
f 40 35 246
f 248 34 27
f 239 28 21
f 56 51 246
f 238 53 47
f 243 46 39
f 72 67 246
f 246 67 62
f 246 62 56
f 87 81 246
f 236 83 76
f 246 77 72
f 107 100 246
f 233 99 93
f 239 95 88
f 124 119 246
f 231 117 113
f 230 112 105
f 141 137 234
f 235 136 129
f 237 130 125
f 159 154 246
f 232 155 147
f 247 148 142
f 174 169 246
f 246 169 165
f 246 165 159
f 192 185 240
f 241 187 180
f 246 179 174
f 209 204 246
f 235 205 198
f 242 199 193
f 2 221 246
f 244 222 216
f 245 217 210
f 7 10 264
f 218 226 264
f 262 225 227
f 260 229 8
f 201 206 264
f 256 208 213
f 259 212 219
f 182 189 264
f 261 190 195
f 263 196 200
f 168 171 265
f 264 173 177
f 266 176 184
f 150 157 264
f 267 156 161
f 264 162 166
f 134 138 264
f 268 140 146
f 269 144 151
f 114 122 264
f 270 121 126
f 257 127 132
f 96 104 264
f 271 102 109
f 272 110 116
f 79 85 264
f 273 84 91
f 258 90 97
f 63 70 268
f 274 68 73
f 264 74 79
f 50 54 264
f 264 54 60
f 252 58 64
f 30 36 254
f 264 37 44
f 253 42 48
f 11 20 255
f 251 18 26
f 275 24 31
