mtllib converted_link2_13_d12626ff.mtl
usemtl material
v -0.00011665603233268484 -0.0002027349837590009 5.0010159611701965e-05
v -0.00011665603233268484 -0.0002027349837590009 5.0010159611701965e-05
v -0.00011665603233268484 -0.0002027349837590009 5.0010159611701965e-05
v -0.00011665603233268484 -0.0002027349837590009 -5.0010159611701965e-05
v -0.00011665603233268484 -0.0002027349837590009 -5.0010159611701965e-05
v -0.00011665603233268484 -0.0002027349837590009 -5.0010159611701965e-05
v -8.846303535392508e-05 -0.00021650365670211613 -5.0010159611701965e-05
v -8.846303535392508e-05 -0.00021650365670211613 -5.0010159611701965e-05
v -8.846303535392508e-05 -0.00021650365670211613 -5.0010159611701965e-05
v -8.846303535392508e-05 -0.00021650365670211613 5.0010159611701965e-05
v -8.846303535392508e-05 -0.00021650365670211613 5.0010159611701965e-05
v -8.846303535392508e-05 -0.00021650365670211613 5.0010159611701965e-05
v -5.937597234151326e-05 -0.00022610372980125248 -5.0010159611701965e-05
v -5.937597234151326e-05 -0.00022610372980125248 -5.0010159611701965e-05
v -5.937597234151326e-05 -0.00022610372980125248 -5.0010159611701965e-05
v -5.937597234151326e-05 -0.00022610372980125248 5.0010159611701965e-05
v -5.937597234151326e-05 -0.00022610372980125248 5.0010159611701965e-05
v -5.937597234151326e-05 -0.00022610372980125248 5.0010159611701965e-05
v -2.9067008654237725e-05 -0.00023152402718551457 -5.0010159611701965e-05
v -2.9067008654237725e-05 -0.00023152402718551457 -5.0010159611701965e-05
v -2.9067008654237725e-05 -0.00023152402718551457 -5.0010159611701965e-05
v -2.9067008654237725e-05 -0.00023152402718551457 5.0010159611701965e-05
v -2.9067008654237725e-05 -0.00023152402718551457 5.0010159611701965e-05
v -2.9067008654237725e-05 -0.00023152402718551457 5.0010159611701965e-05
v 1.8379988659944502e-06 -0.00023277386208064854 -5.0010159611701965e-05
v 1.8379988659944502e-06 -0.00023277386208064854 -5.0010159611701965e-05
v 1.8379988659944502e-06 -0.00023277386208064854 -5.0010159611701965e-05
v 1.8379988659944502e-06 -0.00023277386208064854 5.0010159611701965e-05
v 1.8379988659944502e-06 -0.00023277386208064854 5.0010159611701965e-05
v 1.8379988659944502e-06 -0.00023277386208064854 5.0010159611701965e-05
v 3.30410293827299e-05 -0.00022973402519710362 -5.0010159611701965e-05
v 3.30410293827299e-05 -0.00022973402519710362 -5.0010159611701965e-05
v 3.30410293827299e-05 -0.00022973402519710362 -5.0010159611701965e-05
v 3.30410293827299e-05 -0.00022973402519710362 5.0010159611701965e-05
v 3.30410293827299e-05 -0.00022973402519710362 5.0010159611701965e-05
v 3.30410293827299e-05 -0.00022973402519710362 5.0010159611701965e-05
v 6.382683204719797e-05 -0.0002223449118901044 -5.0010159611701965e-05
v 6.382683204719797e-05 -0.0002223449118901044 -5.0010159611701965e-05
v 6.382683204719797e-05 -0.0002223449118901044 -5.0010159611701965e-05
v 6.382683204719797e-05 -0.0002223449118901044 5.0010159611701965e-05
v 6.382683204719797e-05 -0.0002223449118901044 5.0010159611701965e-05
v 6.382683204719797e-05 -0.0002223449118901044 5.0010159611701965e-05
v 9.342053817817941e-05 -0.00021066426415927708 -5.0010159611701965e-05
v 9.342053817817941e-05 -0.00021066426415927708 -5.0010159611701965e-05
v 9.342053817817941e-05 -0.00021066426415927708 -5.0010159611701965e-05
v 9.342053817817941e-05 -0.00021066426415927708 5.0010159611701965e-05
v 9.342053817817941e-05 -0.00021066426415927708 5.0010159611701965e-05
v 9.342053817817941e-05 -0.00021066426415927708 5.0010159611701965e-05
v 0.00012113669799873605 -0.00019498451729305089 -5.0010159611701965e-05
v 0.00012113669799873605 -0.00019498451729305089 -5.0010159611701965e-05
v 0.00012113669799873605 -0.00019498451729305089 -5.0010159611701965e-05
v 0.00012113669799873605 -0.00019498451729305089 5.0010159611701965e-05
v 0.00012113669799873605 -0.00019498451729305089 5.0010159611701965e-05
v 0.00012113669799873605 -0.00019498451729305089 5.0010159611701965e-05
v 0.00014631965314038098 -0.00017549379845149815 -5.0010159611701965e-05
v 0.00014631965314038098 -0.00017549379845149815 -5.0010159611701965e-05
v 0.00014631965314038098 -0.00017549379845149815 -5.0010159611701965e-05
v 0.00014631965314038098 -0.00017549379845149815 5.0010159611701965e-05
v 0.00014631965314038098 -0.00017549379845149815 5.0010159611701965e-05
v 0.00014631965314038098 -0.00017549379845149815 5.0010159611701965e-05
v 0.00016864159260876477 -0.0001526633568573743 -5.0010159611701965e-05
v 0.00016864159260876477 -0.0001526633568573743 -5.0010159611701965e-05
v 0.00016864159260876477 -0.0001526633568573743 5.0010159611701965e-05
v 0.00016864159260876477 -0.0001526633568573743 5.0010159611701965e-05
v 0.00016864159260876477 -0.0001526633568573743 5.0010159611701965e-05
v 0.00018613555585034192 -0.0001288233615923673 -5.0010159611701965e-05
v 0.00018613555585034192 -0.0001288233615923673 -5.0010159611701965e-05
v 0.00018613555585034192 -0.0001288233615923673 -5.0010159611701965e-05
v 0.00018613555585034192 -0.0001288233615923673 5.0010159611701965e-05
v 0.00018613555585034192 -0.0001288233615923673 5.0010159611701965e-05
v 0.0001913211599458009 -0.00012018441339023411 -5.0010159611701965e-05
v 0.0001913211599458009 -0.00012018441339023411 -5.0010159611701965e-05
v 0.0001913211599458009 -0.00012018441339023411 -5.0010159611701965e-05
v 0.0001913211599458009 -0.00012018441339023411 5.0010159611701965e-05
v 0.0001913211599458009 -0.00012018441339023411 5.0010159611701965e-05
v 0.0001913211599458009 -0.00012018441339023411 5.0010159611701965e-05
v 0.0001913211599458009 -0.00012018441339023411 5.0010159611701965e-05
v 0.00019972541485913098 -0.00010581410606391728 5.0010159611701965e-05
v 0.00019972541485913098 -0.00010581410606391728 5.0010159611701965e-05
v 0.00019972541485913098 -0.00010581410606391728 5.0010159611701965e-05
v 0.00019972541485913098 -0.00010581410606391728 5.0010159611701965e-05
v 0.00019972541485913098 -0.00010581410606391728 -5.0010159611701965e-05
v 0.00019972541485913098 -0.00010581410606391728 -5.0010159611701965e-05
v 0.00019972541485913098 -0.00010581410606391728 -5.0010159611701965e-05
v 0.00019972541485913098 -0.00010581410606391728 -5.0010159611701965e-05
v 0.0002136430994141847 -7.732494850642979e-05 -5.0010159611701965e-05
v 0.0002136430994141847 -7.732494850642979e-05 -5.0010159611701965e-05
v 0.0002136430994141847 -7.732494850642979e-05 5.0010159611701965e-05
v 0.0002136430994141847 -7.732494850642979e-05 5.0010159611701965e-05
v 0.0002136430994141847 -7.732494850642979e-05 5.0010159611701965e-05
v 0.00022323944722302258 -4.8003188567236066e-05 -5.0010159611701965e-05
v 0.00022323944722302258 -4.8003188567236066e-05 -5.0010159611701965e-05
v 0.00022323944722302258 -4.8003188567236066e-05 -5.0010159611701965e-05
v 0.00022323944722302258 -4.8003188567236066e-05 5.0010159611701965e-05
v 0.00022323944722302258 -4.8003188567236066e-05 5.0010159611701965e-05
v 0.00022323944722302258 -4.8003188567236066e-05 5.0010159611701965e-05
v 0.00022854426060803235 -1.778363366611302e-05 -5.0010159611701965e-05
v 0.00022854426060803235 -1.778363366611302e-05 -5.0010159611701965e-05
v 0.00022854426060803235 -1.778363366611302e-05 -5.0010159611701965e-05
v 0.00022854426060803235 -1.778363366611302e-05 5.0010159611701965e-05
v 0.00022854426060803235 -1.778363366611302e-05 5.0010159611701965e-05
v 0.00022854426060803235 -1.778363366611302e-05 5.0010159611701965e-05
v 0.00022973635350354016 1.2976087418792304e-05 -5.0010159611701965e-05
v 0.00022973635350354016 1.2976087418792304e-05 -5.0010159611701965e-05
v 0.00022973635350354016 1.2976087418792304e-05 -5.0010159611701965e-05
v 0.00022973635350354016 1.2976087418792304e-05 5.0010159611701965e-05
v 0.00022973635350354016 1.2976087418792304e-05 5.0010159611701965e-05
v 0.00022973635350354016 1.2976087418792304e-05 5.0010159611701965e-05
v 0.00022663691197521985 4.390531103126705e-05 -5.0010159611701965e-05
v 0.00022663691197521985 4.390531103126705e-05 -5.0010159611701965e-05
v 0.00022663691197521985 4.390531103126705e-05 -5.0010159611701965e-05
v 0.00022663691197521985 4.390531103126705e-05 5.0010159611701965e-05
v 0.00022663691197521985 4.390531103126705e-05 5.0010159611701965e-05
v 0.00022663691197521985 4.390531103126705e-05 5.0010159611701965e-05
v 0.00022192814503796399 6.524563650600612e-05 -5.0010159611701965e-05
v 0.00022192814503796399 6.524563650600612e-05 -5.0010159611701965e-05
v 0.00022192814503796399 6.524563650600612e-05 -5.0010159611701965e-05
v 0.00022192814503796399 6.524563650600612e-05 5.0010159611701965e-05
v 0.00022192814503796399 6.524563650600612e-05 5.0010159611701965e-05
v 0.00021212318097241223 9.469591896049678e-05 -5.0010159611701965e-05
v 0.00021212318097241223 9.469591896049678e-05 -5.0010159611701965e-05
v 0.00021212318097241223 9.469591896049678e-05 -5.0010159611701965e-05
v 0.00021212318097241223 9.469591896049678e-05 5.0010159611701965e-05
v 0.00021212318097241223 9.469591896049678e-05 5.0010159611701965e-05
v 0.0001982352987397462 0.00012246609549038112 -5.0010159611701965e-05
v 0.0001982352987397462 0.00012246609549038112 -5.0010159611701965e-05
v 0.0001982352987397462 0.00012246609549038112 5.0010159611701965e-05
v 0.0001982352987397462 0.00012246609549038112 5.0010159611701965e-05
v 0.00018032410298474133 0.00014821530203334987 -5.0010159611701965e-05
v 0.00018032410298474133 0.00014821530203334987 -5.0010159611701965e-05
v 0.00018032410298474133 0.00014821530203334987 5.0010159611701965e-05
v 0.00018032410298474133 0.00014821530203334987 5.0010159611701965e-05
v 0.000158836628543213 0.0001713456294964999 -5.0010159611701965e-05
v 0.000158836628543213 0.0001713456294964999 -5.0010159611701965e-05
v 0.000158836628543213 0.0001713456294964999 -5.0010159611701965e-05
v 0.000158836628543213 0.0001713456294964999 5.0010159611701965e-05
v 0.000158836628543213 0.0001713456294964999 5.0010159611701965e-05
v 0.0001340410963166505 0.00019148641149513423 -5.0010159611701965e-05
v 0.0001340410963166505 0.00019148641149513423 -5.0010159611701965e-05
v 0.0001340410963166505 0.00019148641149513423 -5.0010159611701965e-05
v 0.0001340410963166505 0.00019148641149513423 5.0010159611701965e-05
v 0.0001340410963166505 0.00019148641149513423 5.0010159611701965e-05
v 0.0001340410963166505 0.00019148641149513423 5.0010159611701965e-05
v 0.00011723259376594797 0.00020221524755470455 -5.0010159611701965e-05
v 0.00011723259376594797 0.00020221524755470455 -5.0010159611701965e-05
v 0.00011723259376594797 0.00020221524755470455 -5.0010159611701965e-05
v 0.00011723259376594797 0.00020221524755470455 -5.0010159611701965e-05
v 0.00011723259376594797 0.00020221524755470455 5.0010159611701965e-05
v 0.00011723259376594797 0.00020221524755470455 5.0010159611701965e-05
v 0.00011723259376594797 0.00020221524755470455 5.0010159611701965e-05
v 0.00011723259376594797 0.00020221524755470455 5.0010159611701965e-05
v 8.883098053047433e-05 0.00021616645972244442 -5.0010159611701965e-05
v 8.883098053047433e-05 0.00021616645972244442 -5.0010159611701965e-05
v 8.883098053047433e-05 0.00021616645972244442 5.0010159611701965e-05
v 8.883098053047433e-05 0.00021616645972244442 5.0010159611701965e-05
v 8.883098053047433e-05 0.00021616645972244442 5.0010159611701965e-05
v 5.944588701822795e-05 0.00022582613746635616 -5.0010159611701965e-05
v 5.944588701822795e-05 0.00022582613746635616 -5.0010159611701965e-05
v 5.944588701822795e-05 0.00022582613746635616 5.0010159611701965e-05
v 5.944588701822795e-05 0.00022582613746635616 5.0010159611701965e-05
v 5.944588701822795e-05 0.00022582613746635616 5.0010159611701965e-05
v 2.901771767938044e-05 0.00023136564414016902 -5.0010159611701965e-05
v 2.901771767938044e-05 0.00023136564414016902 -5.0010159611701965e-05
v 2.901771767938044e-05 0.00023136564414016902 -5.0010159611701965e-05
v 2.901771767938044e-05 0.00023136564414016902 5.0010159611701965e-05
v 2.901771767938044e-05 0.00023136564414016902 5.0010159611701965e-05
v 2.901771767938044e-05 0.00023136564414016902 5.0010159611701965e-05
v -1.9766985133173876e-06 0.0002326750836800784 -5.0010159611701965e-05
v -1.9766985133173876e-06 0.0002326750836800784 -5.0010159611701965e-05
v -1.9766985133173876e-06 0.0002326750836800784 -5.0010159611701965e-05
v -1.9766985133173876e-06 0.0002326750836800784 5.0010159611701965e-05
v -1.9766985133173876e-06 0.0002326750836800784 5.0010159611701965e-05
v -1.9766985133173876e-06 0.0002326750836800784 5.0010159611701965e-05
v -3.317973096272908e-05 0.0002296967140864581 -5.0010159611701965e-05
v -3.317973096272908e-05 0.0002296967140864581 -5.0010159611701965e-05
v -3.317973096272908e-05 0.0002296967140864581 -5.0010159611701965e-05
v -3.317973096272908e-05 0.0002296967140864581 5.0010159611701965e-05
v -3.317973096272908e-05 0.0002296967140864581 5.0010159611701965e-05
v -3.317973096272908e-05 0.0002296967140864581 5.0010159611701965e-05
v -6.396552635123953e-05 0.00022236534277908504 -5.0010159611701965e-05
v -6.396552635123953e-05 0.00022236534277908504 -5.0010159611701965e-05
v -6.396552635123953e-05 0.00022236534277908504 -5.0010159611701965e-05
v -6.396552635123953e-05 0.00022236534277908504 5.0010159611701965e-05
v -6.396552635123953e-05 0.00022236534277908504 5.0010159611701965e-05
v -6.396552635123953e-05 0.00022236534277908504 5.0010159611701965e-05
v -9.346982551505789e-05 0.00021074616233818233 -5.0010159611701965e-05
v -9.346982551505789e-05 0.00021074616233818233 -5.0010159611701965e-05
v -9.346982551505789e-05 0.00021074616233818233 -5.0010159611701965e-05
v -9.346982551505789e-05 0.00021074616233818233 5.0010159611701965e-05
v -9.346982551505789e-05 0.00021074616233818233 5.0010159611701965e-05
v -9.346982551505789e-05 0.00021074616233818233 5.0010159611701965e-05
v -0.00012106677604606375 0.00019512602011673152 -5.0010159611701965e-05
v -0.00012106677604606375 0.00019512602011673152 -5.0010159611701965e-05
v -0.00012106677604606375 0.00019512602011673152 -5.0010159611701965e-05
v -0.00012106677604606375 0.00019512602011673152 5.0010159611701965e-05
v -0.00012106677604606375 0.00019512602011673152 5.0010159611701965e-05
v -0.00012106677604606375 0.00019512602011673152 5.0010159611701965e-05
v -0.0001462795480620116 0.0001756967685651034 -5.0010159611701965e-05
v -0.0001462795480620116 0.0001756967685651034 -5.0010159611701965e-05
v -0.0001462795480620116 0.0001756967685651034 5.0010159611701965e-05
v -0.0001462795480620116 0.0001756967685651034 5.0010159611701965e-05
v -0.0001684822782408446 0.00015286632697097957 -5.0010159611701965e-05
v -0.0001684822782408446 0.00015286632697097957 -5.0010159611701965e-05
v -0.0001684822782408446 0.00015286632697097957 -5.0010159611701965e-05
v -0.0001684822782408446 0.00015286632697097957 -5.0010159611701965e-05
v -0.0001684822782408446 0.00015286632697097957 -5.0010159611701965e-05
v -0.0001684822782408446 0.00015286632697097957 -5.0010159611701965e-05
v -0.0001684822782408446 0.00015286632697097957 -5.0010159611701965e-05
v -0.0001684822782408446 0.00015286632697097957 5.0010159611701965e-05
v -0.0001684822782408446 0.00015286632697097957 5.0010159611701965e-05
v -0.0001684822782408446 0.00015286632697097957 5.0010159611701965e-05
v -0.0001684822782408446 0.00015286632697097957 5.0010159611701965e-05
v -0.0001684822782408446 0.00015286632697097957 5.0010159611701965e-05
v -0.0001684822782408446 0.00015286632697097957 5.0010159611701965e-05
v -0.0001684822782408446 0.00015286632697097957 5.0010159611701965e-05
v -0.0001684822782408446 0.00015286632697097957 5.0010159611701965e-05
v -0.0001684822782408446 0.00015286632697097957 5.0010159611701965e-05
v -0.00018606564844958484 0.00012890525977127254 -5.0010159611701965e-05
v -0.00018606564844958484 0.00012890525977127254 -5.0010159611701965e-05
v -0.00018606564844958484 0.00012890525977127254 -5.0010159611701965e-05
v -0.00018606564844958484 0.00012890525977127254 -5.0010159611701965e-05
v -0.00018606564844958484 0.00012890525977127254 -5.0010159611701965e-05
v -0.00018606564844958484 0.00012890525977127254 -5.0010159611701965e-05
v -0.00018606564844958484 0.00012890525977127254 -5.0010159611701965e-05
v -0.00018606564844958484 0.00012890525977127254 -5.0010159611701965e-05
v -0.00018606564844958484 0.00012890525977127254 -5.0010159611701965e-05
v -0.00018606564844958484 0.00012890525977127254 -5.0010159611701965e-05
v -0.00018606564844958484 0.00012890525977127254 5.0010159611701965e-05
v -0.00018606564844958484 0.00012890525977127254 5.0010159611701965e-05
v -0.00018606564844958484 0.00012890525977127254 5.0010159611701965e-05
v -0.00018606564844958484 0.00012890525977127254 5.0010159611701965e-05
v -0.00018606564844958484 0.00012890525977127254 5.0010159611701965e-05
v -0.00018606564844958484 0.00012890525977127254 5.0010159611701965e-05
v -0.00018606564844958484 0.00012890525977127254 5.0010159611701965e-05
v -0.00019157907809130847 0.00012002603034488857 -5.0010159611701965e-05
v -0.00019157907809130847 0.00012002603034488857 -5.0010159611701965e-05
v -0.00019157907809130847 0.00012002603034488857 -5.0010159611701965e-05
v -0.00019157907809130847 0.00012002603034488857 5.0010159611701965e-05
v -0.00019157907809130847 0.00012002603034488857 5.0010159611701965e-05
v -0.00019157907809130847 0.00012002603034488857 5.0010159611701965e-05
v -0.00019157907809130847 0.00012002603034488857 5.0010159611701965e-05
v -0.00019995353068225086 0.00010565572301857173 5.0010159611701965e-05
v -0.00019995353068225086 0.00010565572301857173 5.0010159611701965e-05
v -0.00019995353068225086 0.00010565572301857173 5.0010159611701965e-05
v -0.00019995353068225086 0.00010565572301857173 5.0010159611701965e-05
v -0.00019995353068225086 0.00010565572301857173 5.0010159611701965e-05
v -0.00019995353068225086 0.00010565572301857173 5.0010159611701965e-05
v -0.00019995353068225086 0.00010565572301857173 5.0010159611701965e-05
v -0.00019995353068225086 0.00010565572301857173 5.0010159611701965e-05
v -0.00019995353068225086 0.00010565572301857173 5.0010159611701965e-05
v -0.00019995353068225086 0.00010565572301857173 5.0010159611701965e-05
v -0.00019995353068225086 0.00010565572301857173 5.0010159611701965e-05
v -0.00019995353068225086 0.00010565572301857173 5.0010159611701965e-05
v -0.00019995353068225086 0.00010565572301857173 -5.0010159611701965e-05
v -0.00019995353068225086 0.00010565572301857173 -5.0010159611701965e-05
v -0.00019995353068225086 0.00010565572301857173 -5.0010159611701965e-05
v -0.00019995353068225086 0.00010565572301857173 -5.0010159611701965e-05
v -0.00019995353068225086 0.00010565572301857173 -5.0010159611701965e-05
v -0.00019995353068225086 0.00010565572301857173 -5.0010159611701965e-05
v -0.00019995353068225086 0.00010565572301857173 -5.0010159611701965e-05
v -0.00019995353068225086 0.00010565572301857173 -5.0010159611701965e-05
v -0.00019995353068225086 0.00010565572301857173 -5.0010159611701965e-05
v -0.00019995353068225086 0.00010565572301857173 -5.0010159611701965e-05
v -0.00019995353068225086 0.00010565572301857173 -5.0010159611701965e-05
v -0.00019995353068225086 0.00010565572301857173 -5.0010159611701965e-05
v -0.00019995353068225086 0.00010565572301857173 -5.0010159611701965e-05
v -0.00019995353068225086 0.00010565572301857173 -5.0010159611701965e-05
v -0.0002136625989805907 7.740498404018581e-05 -5.0010159611701965e-05
v -0.0002136625989805907 7.740498404018581e-05 -5.0010159611701965e-05
v -0.0002136625989805907 7.740498404018581e-05 5.0010159611701965e-05
v -0.0002136625989805907 7.740498404018581e-05 5.0010159611701965e-05
v -0.0002136625989805907 7.740498404018581e-05 5.0010159611701965e-05
v -0.0002231695398222655 4.8146554036065936e-05 -5.0010159611701965e-05
v -0.0002231695398222655 4.8146554036065936e-05 -5.0010159611701965e-05
v -0.0002231695398222655 4.8146554036065936e-05 -5.0010159611701965e-05
v -0.0002231695398222655 4.8146554036065936e-05 5.0010159611701965e-05
v -0.0002231695398222655 4.8146554036065936e-05 5.0010159611701965e-05
v -0.0002231695398222655 4.8146554036065936e-05 5.0010159611701965e-05
v -0.00022856376017443836 1.7746322555467486e-05 -5.0010159611701965e-05
v -0.00022856376017443836 1.7746322555467486e-05 -5.0010159611701965e-05
v -0.00022856376017443836 1.7746322555467486e-05 -5.0010159611701965e-05
v -0.00022856376017443836 1.7746322555467486e-05 5.0010159611701965e-05
v -0.00022856376017443836 1.7746322555467486e-05 5.0010159611701965e-05
v -0.00022856376017443836 1.7746322555467486e-05 5.0010159611701965e-05
v -0.00022975585306994617 -1.3313286217453424e-05 -5.0010159611701965e-05
v -0.00022975585306994617 -1.3313286217453424e-05 -5.0010159611701965e-05
v -0.00022975585306994617 -1.3313286217453424e-05 5.0010159611701965e-05
v -0.00022975585306994617 -1.3313286217453424e-05 5.0010159611701965e-05
v -0.00022975585306994617 -1.3313286217453424e-05 5.0010159611701965e-05
v -0.00022665641154162586 -4.4423184590414166e-05 -5.0010159611701965e-05
v -0.00022665641154162586 -4.4423184590414166e-05 -5.0010159611701965e-05
v -0.00022665641154162586 -4.4423184590414166e-05 5.0010159611701965e-05
v -0.00022665641154162586 -4.4423184590414166e-05 5.0010159611701965e-05
v -0.00022665641154162586 -4.4423184590414166e-05 5.0010159611701965e-05
v -0.00022206685389392078 -6.540401955135167e-05 -5.0010159611701965e-05
v -0.00022206685389392078 -6.540401955135167e-05 -5.0010159611701965e-05
v -0.00022206685389392078 -6.540401955135167e-05 -5.0010159611701965e-05
v -0.00022206685389392078 -6.540401955135167e-05 5.0010159611701965e-05
v -0.00022206685389392078 -6.540401955135167e-05 5.0010159611701965e-05
v -0.00022206685389392078 -6.540401955135167e-05 5.0010159611701965e-05
v -0.00021136782015673816 -9.586385567672551e-05 -5.0010159611701965e-05
v -0.00021136782015673816 -9.586385567672551e-05 -5.0010159611701965e-05
v -0.00021136782015673816 -9.586385567672551e-05 -5.0010159611701965e-05
v -0.00021136782015673816 -9.586385567672551e-05 5.0010159611701965e-05
v -0.00021136782015673816 -9.586385567672551e-05 5.0010159611701965e-05
v -0.00021136782015673816 -9.586385567672551e-05 5.0010159611701965e-05
v -0.0001964666589628905 -0.0001245932944584638 -5.0010159611701965e-05
v -0.0001964666589628905 -0.0001245932944584638 -5.0010159611701965e-05
v -0.0001964666589628905 -0.0001245932944584638 -5.0010159611701965e-05
v -0.0001964666589628905 -0.0001245932944584638 5.0010159611701965e-05
v -0.0001964666589628905 -0.0001245932944584638 5.0010159611701965e-05
v -0.0001964666589628905 -0.0001245932944584638 5.0010159611701965e-05
v -0.00017787000979296863 -0.00015087335486896336 -5.0010159611701965e-05
v -0.00017787000979296863 -0.00015087335486896336 -5.0010159611701965e-05
v -0.00017787000979296863 -0.00015087335486896336 -5.0010159611701965e-05
v -0.00017787000979296863 -0.00015087335486896336 5.0010159611701965e-05
v -0.00017787000979296863 -0.00015087335486896336 5.0010159611701965e-05
v -0.00017787000979296863 -0.00015087335486896336 5.0010159611701965e-05
v -0.0001557566865812987 -0.0001741247542668134 -5.0010159611701965e-05
v -0.0001557566865812987 -0.0001741247542668134 -5.0010159611701965e-05
v -0.0001557566865812987 -0.0001741247542668134 5.0010159611701965e-05
v -0.0001557566865812987 -0.0001741247542668134 5.0010159611701965e-05
v -0.00013078234042041004 -0.00019391349633224308 -5.0010159611701965e-05
v -0.00013078234042041004 -0.00019391349633224308 -5.0010159611701965e-05
v -0.00013078234042041004 -0.00019391349633224308 -5.0010159611701965e-05
v -0.00013078234042041004 -0.00019391349633224308 -5.0010159611701965e-05
v -0.00013078234042041004 -0.00019391349633224308 -5.0010159611701965e-05
v -0.00013078234042041004 -0.00019391349633224308 -5.0010159611701965e-05
v -0.00013078234042041004 -0.00019391349633224308 -5.0010159611701965e-05
v -0.00013078234042041004 -0.00019391349633224308 5.0010159611701965e-05
v -0.00013078234042041004 -0.00019391349633224308 5.0010159611701965e-05
v -0.00013078234042041004 -0.00019391349633224308 5.0010159611701965e-05
v -0.00013078234042041004 -0.00019391349633224308 5.0010159611701965e-05
v -0.00013078234042041004 -0.00019391349633224308 5.0010159611701965e-05
v -0.00013078234042041004 -0.00019391349633224308 5.0010159611701965e-05
v -0.00013078234042041004 -0.00019391349633224308 5.0010159611701965e-05
v -0.00013078234042041004 -0.00019391349633224308 5.0010159611701965e-05
v -0.00013078234042041004 -0.00019391349633224308 5.0010159611701965e-05
f 1 4 9
f 1 9 11
f 11 9 14
f 11 14 16
f 16 14 19
f 16 19 23
f 23 19 27
f 23 27 30
f 30 27 31
f 30 31 34
f 34 31 39
f 34 39 42
f 42 39 44
f 42 44 47
f 47 44 50
f 47 50 54
f 54 50 55
f 54 55 59
f 59 55 61
f 59 61 64
f 64 61 66
f 64 66 69
f 69 66 73
f 69 73 77
f 78 77 83
f 83 77 73
f 78 83 86
f 78 86 90
f 90 86 91
f 90 91 94
f 94 91 99
f 94 99 100
f 100 99 104
f 100 104 108
f 108 104 111
f 108 111 114
f 114 111 115
f 114 115 119
f 119 115 122
f 119 122 123
f 123 122 126
f 123 126 127
f 127 126 130
f 127 130 132
f 132 130 135
f 132 135 137
f 137 135 138
f 137 138 141
f 141 138 147
f 141 147 149
f 149 147 153
f 149 153 156
f 156 153 157
f 156 157 159
f 159 157 163
f 159 163 166
f 166 163 169
f 166 169 172
f 172 169 174
f 172 174 179
f 179 174 180
f 179 180 185
f 185 180 187
f 185 187 191
f 191 187 192
f 191 192 197
f 197 192 198
f 197 198 201
f 201 198 208
f 201 208 217
f 217 208 218
f 217 218 234
f 234 218 236
f 234 236 239
f 253 239 254
f 254 239 236
f 253 254 268
f 253 268 270
f 270 268 273
f 270 273 276
f 276 273 280
f 276 280 283
f 283 280 286
f 283 286 287
f 287 286 290
f 287 290 293
f 293 290 296
f 293 296 299
f 299 296 303
f 299 303 304
f 304 303 309
f 304 309 312
f 312 309 313
f 312 313 318
f 318 313 319
f 318 319 322
f 322 319 328
f 322 328 336
f 336 328 4
f 336 4 1
f 70 75 242
f 113 118 233
f 131 136 233
f 136 143 233
f 231 142 148
f 233 150 210
f 245 76 238
f 241 74 79
f 240 81 233
f 229 80 89
f 228 88 96
f 243 28 35
f 95 101 233
f 230 102 107
f 232 106 112
f 118 124 233
f 233 124 128
f 233 128 131
f 151 155 215
f 209 154 160
f 212 161 165
f 272 277 338
f 331 278 284
f 334 298 306
f 10 18 242
f 251 17 22
f 252 24 29
f 282 288 335
f 333 289 292
f 335 294 300
f 271 335 242
f 250 332 2
f 249 3 12
f 305 311 335
f 337 310 317
f 330 316 321
f 36 40 247
f 246 41 48
f 244 46 52
f 167 173 210
f 216 171 178
f 214 177 184
f 53 58 242
f 248 60 65
f 242 63 70
f 183 189 210
f 213 190 196
f 211 195 200
f 257 235 85
f 82 237 226
f 84 221 87
f 84 72 264
f 261 71 68
f 264 67 62
f 297 291 326
f 38 32 259
f 295 325 301
f 162 158 206
f 133 129 221
f 221 129 125
f 219 110 103
f 37 267 45
f 33 25 262
f 256 26 21
f 258 20 13
f 264 326 269
f 269 326 274
f 158 152 206
f 206 152 145
f 205 146 227
f 220 144 139
f 225 140 134
f 125 121 221
f 224 120 117
f 223 116 109
f 105 98 221
f 222 97 93
f 221 92 87
f 15 8 263
f 266 7 5
f 265 6 327
f 291 285 326
f 326 285 279
f 324 281 275
f 320 314 326
f 323 315 307
f 329 308 302
f 181 176 206
f 204 175 170
f 203 168 164
f 62 57 264
f 260 56 49
f 255 51 43
f 199 193 206
f 202 194 188
f 207 186 182
