mtllib converted_link3_10_ffffffff.mtl
usemtl material
v 0.00011304109648335725 -0.001879323972389102 3.6973720852984115e-05
v 0.00011304109648335725 -0.001879323972389102 3.6973720852984115e-05
v 0.00013509481505025178 -0.0018306232523173094 3.793484574998729e-05
v 0.00013509481505025178 -0.0018306232523173094 3.793484574998729e-05
v 0.00013509481505025178 -0.0018306232523173094 3.793484574998729e-05
v -0.0011950274929404259 -0.0013967014383524656 -7.287577318493277e-05
v -0.0011950274929404259 -0.0013967014383524656 -7.287577318493277e-05
v -0.0011950274929404259 -0.0013967014383524656 -7.287577318493277e-05
v -0.0011950274929404259 -0.0013967014383524656 -7.287577318493277e-05
v -0.0011950274929404259 -0.0013967014383524656 -7.287577318493277e-05
v 2.9833012376911938e-05 0.0025066875386983156 -3.508643203531392e-05
v 2.9833012376911938e-05 0.0025066875386983156 -3.508643203531392e-05
v -6.750882312189788e-05 0.0021954283583909273 -3.806666427408345e-05
v -6.750882312189788e-05 0.0021954283583909273 -3.806666427408345e-05
v -6.750882312189788e-05 0.0021954283583909273 -3.806666427408345e-05
v -6.750882312189788e-05 0.0021954283583909273 -3.806666427408345e-05
v -6.750882312189788e-05 0.0021954283583909273 -3.806666427408345e-05
v 0.00041171995690092444 0.0025941275525838137 -6.4762011788843665e-06
v 0.00041171995690092444 0.0025941275525838137 -6.4762011788843665e-06
v 0.00041171995690092444 0.0025941275525838137 -6.4762011788843665e-06
v 0.00041171995690092444 0.0025941275525838137 -6.4762011788843665e-06
v 0.00041171995690092444 0.0025941275525838137 -6.4762011788843665e-06
v -0.0012269308790564537 -0.0015025034081190825 -7.376611756626517e-05
v -0.0012269308790564537 -0.0015025034081190825 -7.376611756626517e-05
v -0.0012655248865485191 -0.001606092555448413 -7.525623368564993e-05
v -0.0012655248865485191 -0.001606092555448413 -7.525623368564993e-05
v 2.1011524950154126e-05 -0.0019432127010077238 3.065376586164348e-05
v 2.1011524950154126e-05 -0.0019432127010077238 3.065376586164348e-05
v 2.1011524950154126e-05 -0.0019432127010077238 3.065376586164348e-05
v 2.1011524950154126e-05 -0.0019432127010077238 3.065376586164348e-05
v 2.1011524950154126e-05 -0.0019432127010077238 3.065376586164348e-05
v -0.001270330511033535 -0.0016359544824808836 -7.519662904087454e-05
v -0.001270330511033535 -0.0016359544824808836 -7.519662904087454e-05
v -0.001270330511033535 -0.0016359544824808836 -7.519662904087454e-05
v -0.001270330511033535 -0.0016359544824808836 -7.519662904087454e-05
v -0.0006135246367193758 -0.0018254413735121489 -2.0835332179558463e-05
v -0.0006135246367193758 -0.0018254413735121489 -2.0835332179558463e-05
v -0.0010992279276251793 -0.0010933734010905027 -6.989554094616324e-05
v -0.0010992279276251793 -0.0010933734010905027 -6.989554094616324e-05
v -0.0010992279276251793 -0.0010933734010905027 -6.989554094616324e-05
v -0.0010992279276251793 -0.0010933734010905027 -6.989554094616324e-05
v -0.001248127780854702 -0.0017085529398173094 -7.233560609165579e-05
v -0.001248127780854702 -0.0017085529398173094 -7.233560609165579e-05
v -0.001248127780854702 -0.0017085529398173094 -7.233560609165579e-05
v -0.0012769242748618126 -0.0016652240883558989 -7.525623368564993e-05
v -0.0012769242748618126 -0.0016652240883558989 -7.525623368564993e-05
v -0.0012769242748618126 -0.0016652240883558989 -7.525623368564993e-05
v -0.0012769242748618126 -0.0016652240883558989 -7.525623368564993e-05
v -0.0012769242748618126 -0.0016652240883558989 -7.525623368564993e-05
v -0.0012589311227202415 -0.0017061724793165922 -7.323526369873434e-05
v -0.0012589311227202415 -0.0017061724793165922 -7.323526369873434e-05
v 0.0002093025977956131 -0.0015944137703627348 4.025383896077983e-05
v 0.0002093025977956131 -0.0015944137703627348 4.025383896077983e-05
v 0.0002842256217263639 -0.0013583123218268156 4.25746948167216e-05
v 0.0002842256217263639 -0.0013583123218268156 4.25746948167216e-05
v 0.0002842256217263639 -0.0013583123218268156 4.25746948167216e-05
v -0.0010045310482382774 -0.000789691403042525 -6.69749133521691e-05
v -0.0010045310482382774 -0.000789691403042525 -6.69749133521691e-05
v -0.0010045310482382774 -0.000789691403042525 -6.69749133521691e-05
v 0.00038161216070875525 -0.0010470643173903227 4.5554927055491135e-05
v 0.00038161216070875525 -0.0010470643173903227 4.5554927055491135e-05
v 0.00038161216070875525 -0.0010470643173903227 4.5554927055491135e-05
v -0.0007923311204649508 -0.00011353259469615296 -6.0476148064481094e-05
v -0.0007923311204649508 -0.00011353259469615296 -6.0476148064481094e-05
v -0.0007923311204649508 -0.00011353259469615296 -6.0476148064481094e-05
v -0.0007923311204649508 -0.00011353259469615296 -6.0476148064481094e-05
v 0.0006310054450295866 0.0025533579755574465 1.1343724509060849e-05
v 0.0006310054450295866 0.0025533579755574465 1.1343724509060849e-05
v 0.0006310054450295866 0.0025533579755574465 1.1343724509060849e-05
v 0.0006310054450295866 0.0025533579755574465 1.1343724509060849e-05
v 8.621155575383455e-05 -0.0019104338716715574 3.530479079927318e-05
v 8.621155575383455e-05 -0.0019104338716715574 3.530479079927318e-05
v 0.0014244625344872475 0.0022761367727071047 7.774516416247934e-05
v 0.0014244625344872475 0.0022761367727071047 7.774516416247934e-05
v 0.0014244625344872475 0.0022761367727071047 7.774516416247934e-05
v 0.0014244625344872475 0.0022761367727071047 7.774516416247934e-05
v 0.0014353105798363686 0.0023477778304368258 7.750488293822855e-05
v 0.0014256546273827553 0.002377587603405118 7.631465268786997e-05
v 0.0014256546273827553 0.002377587603405118 7.631465268786997e-05
v -0.0012805303558707237 -0.0016851916443556547 -7.525623368564993e-05
v -0.0012781238183379173 -0.0016941323410719633 -7.49656610423699e-05
v -0.0012781238183379173 -0.0016941323410719633 -7.49656610423699e-05
v -0.0012739291414618492 -0.001699195010587573 -7.454656588379294e-05
v -0.0012739291414618492 -0.001699195010587573 -7.454656588379294e-05
v 0.0014009112492203712 0.002400885568931699 7.39937968319282e-05
v 0.0014009112492203712 0.002400885568931699 7.39937968319282e-05
v 0.0013343403115868568 0.002422767924144864 6.844497693236917e-05
v 0.0013343403115868568 0.002422767924144864 6.844497693236917e-05
v 0.0013343403115868568 0.002422767924144864 6.844497693236917e-05
v 0.0013308236375451088 0.0019763850141316652 7.488414121326059e-05
v 0.0013308236375451088 0.0019763850141316652 7.488414121326059e-05
v 0.0013308236375451088 0.0019763850141316652 7.488414121326059e-05
v 0.0012362906709313393 0.0016768679488450289 7.190390897449106e-05
v 0.0012362906709313393 0.0016768679488450289 7.190390897449106e-05
v 0.0012362906709313393 0.0016768679488450289 7.190390897449106e-05
v 0.001130492426455021 0.0013386786449700594 6.868339551147074e-05
v 0.001130492426455021 0.0013386786449700594 6.868339551147074e-05
v 0.001130492426455021 0.0013386786449700594 6.868339551147074e-05
v -0.00016495496674906462 0.001884176628664136 -4.110650115762837e-05
v -0.00016495496674906462 0.001884176628664136 -4.110650115762837e-05
v -0.00016495496674906462 0.001884176628664136 -4.110650115762837e-05
v 0.0010246941819787025 0.0010004781652241945 6.540514004882425e-05
v 0.0010246941819787025 0.0010004781652241945 6.540514004882425e-05
v 0.0010246941819787025 0.0010004781652241945 6.540514004882425e-05
v -0.0002575880498625338 0.0015903853345662355 -4.396566146169789e-05
v -0.0002575880498625338 0.0015903853345662355 -4.396566146169789e-05
v -0.0002575880498625338 0.0015903853345662355 -4.396566146169789e-05
v 0.0009411805658601224 0.0007355355774052441 6.284400296863168e-05
v 0.0009411805658601224 0.0007355355774052441 6.284400296863168e-05
v 0.0009411805658601224 0.0007355355774052441 6.284400296863168e-05
v -0.0003501466126181185 0.0012965381611138582 -4.682482176576741e-05
v -0.0003501466126181185 0.0012965381611138582 -4.682482176576741e-05
v -0.0003501466126181185 0.0012965381611138582 -4.682482176576741e-05
v 0.0008576819091103971 0.00047053705202415586 6.022512025083415e-05
v 0.0008576819091103971 0.00047053705202415586 6.022512025083415e-05
v 0.0008576819091103971 0.00047053705202415586 6.022512025083415e-05
v -0.0004558256478048861 0.0009583377395756543 -5.0045335228787735e-05
v -0.0004558256478048861 0.0009583377395756543 -5.0045335228787735e-05
v -0.0004558256478048861 0.0009583377395756543 -5.0045335228787735e-05
v 0.0007511609583161771 0.0001304254838032648 5.700460678781383e-05
v 0.0007511609583161771 0.0001304254838032648 5.700460678781383e-05
v 0.0007511609583161771 0.0001304254838032648 5.700460678781383e-05
v -0.0005616238922812045 0.0006201372598297894 -5.332545333658345e-05
v -0.0005616238922812045 0.0006201372598297894 -5.332545333658345e-05
v -0.0005616238922812045 0.0006201372598297894 -5.332545333658345e-05
v 0.0006447145133279264 -0.0002096115640597418 5.372448868001811e-05
v 0.0006447145133279264 -0.0002096115640597418 5.372448868001811e-05
v 0.0006447145133279264 -0.0002096115640597418 5.372448868001811e-05
v -0.0006769290775991976 0.000253278121817857 -5.690545731340535e-05
v -0.0006769290775991976 0.000253278121817857 -5.690545731340535e-05
v -0.0006769290775991976 0.000253278121817857 -5.690545731340535e-05
v 0.0005618640570901334 -0.0004727139021269977 5.1163351599825546e-05
v 0.0005618640570901334 -0.0004727139021269977 5.1163351599825546e-05
v 0.0005618640570901334 -0.0004727139021269977 5.1163351599825546e-05
v 0.00047901360085234046 -0.000735801353584975 4.854447252000682e-05
v 0.00047901360085234046 -0.000735801353584975 4.854447252000682e-05
v 0.00011798083141911775 0.0026310153771191835 -3.007591476489324e-05
v 7.750927761662751e-05 0.0026040778029710054 -3.282518082414754e-05
v 7.750927761662751e-05 0.0026040778029710054 -3.282518082414754e-05
v 0.00019237487867940217 0.0026344761718064547 -2.429612686682958e-05
v 0.00019237487867940217 0.0026344761718064547 -2.429612686682958e-05
v 0.00019237487867940217 0.0026344761718064547 -2.429612686682958e-05
v 4.747598723042756e-05 0.002555976854637265 -3.448666029726155e-05
v 4.747598723042756e-05 0.002555976854637265 -3.448666029726155e-05
v 4.747598723042756e-05 0.002555976854637265 -3.448666029726155e-05
v 3.805100277531892e-05 0.0025315352249890566 -3.4846150811063126e-05
v 3.805100277531892e-05 0.0025315352249890566 -3.4846150811063126e-05
f 1 3 6
f 11 17 21
f 23 25 29
f 31 26 35
f 27 32 37
f 10 5 38
f 36 34 44
f 42 33 46
f 43 49 51
f 4 53 41
f 40 52 56
f 39 54 58
f 57 55 62
f 59 61 64
f 22 15 68
f 24 30 9
f 8 28 71
f 7 72 2
f 76 77 79
f 80 82 48
f 47 81 84
f 45 83 50
f 78 85 75
f 73 86 89
f 74 87 92
f 91 88 70
f 90 69 95
f 94 67 13
f 93 14 98
f 96 16 99
f 97 101 103
f 104 100 105
f 102 106 108
f 109 107 113
f 110 112 116
f 115 111 118
f 114 119 122
f 120 117 123
f 121 124 126
f 127 125 131
f 128 130 133
f 134 129 66
f 132 65 135
f 136 63 60
f 137 138 141
f 140 139 144
f 142 143 18
f 19 145 146
f 20 147 12
