mtllib converted_link2_2_242424ff.mtl
usemtl material
v 0.0004130100423935801 0.01849748194217682 0.005515663884580135
v 0.00038461529766209424 0.002582267625257373 0.0067228395491838455
v 0.00038461529766209424 0.002582267625257373 0.0067228395491838455
v 0.00038461529766209424 0.002582267625257373 0.0067228395491838455
v 0.00039651000406593084 0.002540286397561431 0.00517054321244359
v 0.00039651000406593084 0.002540286397561431 0.00517054321244359
v 0.00039651000406593084 0.002540286397561431 0.00517054321244359
v 0.00039651000406593084 0.002540286397561431 0.00517054321244359
v 0.0005072802887298167 0.01262119971215725 -0.00765168946236372
v 0.0004887116374447942 0.015040496364235878 -0.004861234687268734
v 0.00040571868885308504 0.001727713504806161 0.003847090993076563
v 0.00040571868885308504 0.001727713504806161 0.003847090993076563
v 0.00040571868885308504 0.001727713504806161 0.003847090993076563
v 0.00040571868885308504 0.001727713504806161 0.003847090993076563
v 0.000466213736217469 0.016868963837623596 -0.0016523342346772552
v 0.0004406526277307421 0.018036235123872757 0.001851488254033029
v 0.0005212068790569901 0.009703910909593105 -0.009916584007441998
v 0.00040977259050123394 0.0003623124212026596 0.0031072734855115414
v 0.00040977259050123394 0.0003623124212026596 0.0031072734855115414
v 0.00040977259050123394 0.0003623124212026596 0.0031072734855115414
v 0.00040977259050123394 0.0003623124212026596 0.0031072734855115414
v 0.0005299559561535716 0.006400900427252054 -0.011568816378712654
v 0.0004075851757079363 -0.0011899941600859165 0.0031493704300373793
v 0.0004075851757079363 -0.0011899941600859165 0.0031493704300373793
v 0.0004075851757079363 -0.0011899941600859165 0.0031493704300373793
v 0.0004075851757079363 -0.0011899941600859165 0.0031493704300373793
v 0.0005307892570272088 -0.0008449353044852614 -0.012807464227080345
v 0.000533191254362464 0.002838975517079234 -0.012544914148747921
v 0.0003764555149246007 -0.003211225848644972 0.006879428867250681
v 0.0003764555149246007 -0.003211225848644972 0.006879428867250681
v 0.0003764555149246007 -0.003211225848644972 0.006879428867250681
v 0.0003764555149246007 -0.003211225848644972 0.006879428867250681
v 0.00033231303677894175 -0.018707197159528732 0.010198463685810566
v 0.0003599558549467474 -0.019168376922607422 0.006534269079566002
v 0.0003631938307080418 -0.001033294596709311 0.008942577056586742
v 0.0003631938307080418 -0.001033294596709311 0.008942577056586742
v 0.0003631938307080418 -0.001033294596709311 0.008942577056586742
v 0.0003631938307080418 -0.001033294596709311 0.008942577056586742
v 0.00036538028507493436 0.0005190464435145259 0.008900608867406845
v 0.00036538028507493436 0.0005190464435145259 0.008900608867406845
v 0.00036538028507493436 0.0005190464435145259 0.008900608867406845
v 0.00036538028507493436 0.0005190464435145259 0.008900608867406845
v 0.0002421770477667451 0.00017397843475919217 0.024857332929968834
v 0.0004697654803749174 -0.014012633822858334 -0.006931455340236425
v 0.0004917316255159676 -0.011222106404602528 -0.009350678883492947
v 0.00039974477840587497 -0.0025133611634373665 0.003961802460253239
v 0.00039974477840587497 -0.0025133611634373665 0.003961802460253239
v 0.00039974477840587497 -0.0025133611634373665 0.003961802460253239
v 0.00039974477840587497 -0.0025133611634373665 0.003961802460253239
v 0.0005096532986499369 -0.008013193495571613 -0.011179049499332905
v 0.0005228409427218139 -0.004509276710450649 -0.012346205301582813
v 0.00038835022132843733 -0.003253208240494132 0.0053271339274942875
v 0.00038835022132843733 -0.003253208240494132 0.0053271339274942875
v 0.00038835022132843733 -0.003253208240494132 0.0053271339274942875
v 0.00038835022132843733 -0.003253208240494132 0.0053271339274942875
v 0.0002517595421522856 -0.0103748869150877 0.02196642942726612
v 0.0003672477905638516 -0.0023986888118088245 0.008202753961086273
v 0.0003672477905638516 -0.0023986888118088245 0.008202753961086273
v 0.0003672477905638516 -0.0023986888118088245 0.008202753961086273
v 0.0003672477905638516 -0.0023986888118088245 0.008202753961086273
v 0.0002430099411867559 -0.007071795407682657 0.023618748411536217
v 0.00023977427917998284 -0.0035099154338240623 0.024594886228442192
v 0.0003032008244190365 0.01334167830646038 0.018981322646141052
v 0.0002812342718243599 0.010551209561526775 0.021400613710284233
v 0.00037322111893445253 0.0018424664158374071 0.008088129572570324
v 0.00037322111893445253 0.0018424664158374071 0.008088129572570324
v 0.00037322111893445253 0.0018424664158374071 0.008088129572570324
v 0.00037322111893445253 0.0018424664158374071 0.008088129572570324
v 0.0002633125986903906 0.007342297118157148 0.023228982463479042
v 0.0002501245471648872 0.00383833609521389 0.024396179243922234
v 0.0003886182385031134 -0.018905937671661377 0.0028504643123596907
v 0.0004171991313342005 -0.017929816618561745 -0.0007114153122529387
v 0.0004445988161023706 -0.016277531161904335 -0.004014311823993921
v 0.00026568572502583265 -0.01329211425036192 0.019701600074768066
v 0.00028425423079170287 -0.01571139134466648 0.01691116765141487
v 0.0003067517245654017 -0.017539912834763527 0.013702314347028732
v 0.00038434730959124863 0.018234997987747192 0.009199507534503937
v 0.0003557673189789057 0.017258839681744576 0.012761261314153671
v 0.0003283670812379569 0.015606636181473732 0.016064243391156197
v 0.0004868479445576668 0.01395512092858553 0.019564097747206688
v 0.00046389628550969064 0.01103938091546297 0.022091859951615334
v 0.0004451713466551155 0.007686447352170944 0.02400215156376362
v 0.00043139129411429167 0.004025378730148077 0.025221770629286766
v 0.0004230867780279368 0.0001966137788258493 0.02570366859436035
v 0.0004205761360935867 -0.003652530023828149 0.025429464876651764
v 0.00042395718628540635 -0.007374326232820749 0.02440948225557804
v 0.0004330989031586796 -0.0108255660161376 0.022683100774884224
v 0.00044764988706447184 -0.013873616233468056 0.02031666599214077
v 0.00046705195563845336 -0.016401544213294983 0.017400959506630898
v 0.0004905582754872739 -0.018311932682991028 0.014048232696950436
v 0.0005172666278667748 -0.01953159086406231 0.010387152433395386
v 0.0005461495602503419 -0.020013516768813133 0.006558563094586134
v 0.00057609798386693 -0.019739318639039993 0.00270947371609509
v 0.0006059608422219753 -0.018719390034675598 -0.0010121664963662624
v 0.0006345901638269424 -0.01699298992753029 -0.004463295452296734
v 0.0006608855910599232 -0.014626474119722843 -0.00751127302646637
v 0.0006838374538347125 -0.011710746213793755 -0.010039065033197403
v 0.000702562858350575 -0.008357872255146503 -0.011949422769248486
v 0.0007163427653722465 -0.004696784075349569 -0.013169020414352417
v 0.0007246474269777536 -0.0008680403116159141 -0.013650939799845219
v 0.000727157574146986 0.002981156576424837 -0.013376662507653236
v 0.0007237766403704882 0.006702857557684183 -0.012356716208159924
v 0.0007146349526010454 0.01015409640967846 -0.010630332864820957
v 0.0007000837358646095 0.013202271424233913 -0.008263849653303623
v 0.0006806819001212716 0.015730075538158417 -0.005348192062228918
v 0.0006571753183379769 0.01764058694243431 -0.0019954154267907143
v 0.0006304671405814588 0.0188602264970541 0.0016656420193612576
v 0.000601584033574909 0.019342171028256416 0.005494254175573587
v 0.0005716352607123554 0.019067926332354546 0.009343383833765984
v 0.0005417728680185974 0.018048018217086792 0.013064967468380928
v 0.0005131434299983084 0.016321644186973572 0.01651611365377903
v 0.0015756021020933986 0.01243242435157299 0.02406984381377697
v 0.0015545807546004653 0.00866856798529625 0.02621445246040821
v 0.0015391121851280332 0.0045585897751152515 0.027583466842770576
v 0.0015297892969101667 0.0002605795452836901 0.028124509379267693
v 0.0015269718132913113 -0.004060504492372274 0.027816545218229294
v 0.001530766487121582 -0.008238427340984344 0.026671653613448143
v 0.0015410289634019136 -0.012112763710319996 0.02473362907767296
v 0.0015573640121147037 -0.015534475445747375 0.022077057510614395
v 0.001579144038259983 -0.018372179940342903 0.018804002553224564
v 0.0016055325977504253 -0.02051694691181183 0.015040167607367039
v 0.0016355145489796996 -0.0218860674649477 0.010930357500910759
v 0.001667938195168972 -0.022427072748541832 0.006632429547607899
v 0.0017015575431287289 -0.02211921103298664 0.0023115319199860096
v 0.0017350809648633003 -0.020974276587367058 -0.0018663036171346903
v 0.0017672200920060277 -0.019036293029785156 -0.00574052520096302
v 0.001796739175915718 -0.01637963391840458 -0.009162156842648983
v 0.0018225038656964898 -0.013106492348015308 -0.011999730952084064
v 0.0018435250967741013 -0.009342615492641926 -0.01414431817829609
v 0.0018589942483231425 -0.005232717376202345 -0.015513421036303043
v 0.0018683165544643998 -0.0009346263250336051 -0.01605437509715557
v 0.0018711343873292208 0.003386397147551179 -0.015746476128697395
v 0.0018673392478376627 0.007564380764961243 -0.014601520262658596
v 0.001857076887972653 0.011438689194619656 -0.01266350969672203
v 0.001840741722844541 0.014860421419143677 -0.010006916709244251
v 0.0018189616966992617 0.017698127776384354 -0.006733863148838282
v 0.0017925738357007504 0.01984281837940216 -0.0029701220337301493
v 0.0017625911859795451 0.021212013438344002 0.0011397835332900286
v 0.0017301677726209164 0.02175300568342209 0.005437681917101145
v 0.0016965481918305159 0.02144516259431839 0.0097586028277874
v 0.001663025002926588 0.020300211384892464 0.013936414383351803
v 0.001630886341445148 0.018362166360020638 0.01781057007610798
v 0.0016013672575354576 0.01570550724864006 0.021232202649116516
v 0.0017582750879228115 0.012920615263283253 0.02476111240684986
v 0.001736450009047985 0.0090127969160676 0.02698771096765995
v 0.0017203891184180975 0.004745660815387964 0.028409194201231003
v 0.0017107106978073716 0.0002831639430951327 0.02897077240049839
v 0.0017077844822779298 -0.004203161224722862 0.0286511592566967
v 0.0017117249080911279 -0.00854085385799408 0.027462415397167206
v 0.001722379820421338 -0.012563393451273441 0.02545025572180748
v 0.0017393393209204078 -0.016115976497530937 0.0226921234279871
v 0.0017619527643546462 -0.019062312319874763 0.01929381676018238
v 0.0017893502954393625 -0.021288974210619926 0.015386093407869339
v 0.001820478937588632 -0.022710509598255157 0.011119088158011436
v 0.0018541429890319705 -0.02327221818268299 0.006656728684902191
v 0.0018890484934672713 -0.022952590137720108 0.0021705389954149723
v 0.0019238537643104792 -0.021763833239674568 -0.002167029771953821
v 0.001957222120836377 -0.019751690328121185 -0.006189444102346897
v 0.0019878705497831106 -0.016993464902043343 -0.009741981513798237
v 0.0020146206952631474 -0.013595111668109894 -0.012688095681369305
v 0.002036445774137974 -0.009687294252216816 -0.014914692379534245
v 0.002052506897598505 -0.005420157220214605 -0.01633617654442787
v 0.00206218590028584 -0.0009577390155754983 -0.016897844150662422
v 0.0020651111844927073 0.0035286007914692163 -0.016578124836087227
v 0.002061170991510153 0.007866350002586842 -0.015389391221106052
v 0.0020505159627646208 0.011888895183801651 -0.0133772362023592
v 0.002033556578680873 0.015441480092704296 -0.010619105771183968
v 0.002010943368077278 0.018387749791145325 -0.007220860105007887
v 0.0019835454877465963 0.020614469423890114 -0.0033130673691630363
v 0.0019524169620126486 0.022036012262105942 0.000953930604737252
v 0.0019187527941539884 0.022597720846533775 0.005416288506239653
v 0.0018838477553799748 0.022278035059571266 0.0099024111405015
v 0.0018490421352908015 0.021089328452944756 0.014240054413676262
v 0.0018156736623495817 0.01907719485461712 0.018262460827827454
v 0.0017850255826488137 0.016318948939442635 0.021814977750182152
v 0.001868007704615593 -0.02537751942873001 0.004526546690613031
v 0.001902061514556408 -0.024735014885663986 0.00020140304695814848
v 0.0019356412813067436 -0.02335110493004322 -0.003946465905755758
v 0.0019677255768328905 -0.02126791514456272 -0.007790925446897745
v 0.0019973411690443754 -0.01854882575571537 -0.011215360835194588
v 0.002023587003350258 -0.01527632586658001 -0.014115563593804836
v 0.002045665169134736 -0.01154992077499628 -0.016403349116444588
v 0.002062906976789236 -0.00748283788561821 -0.018009472638368607
v 0.0020747859962284565 -0.0031986553221940994 -0.018884863704442978
v 0.0020809427369385958 0.0011725295335054398 -0.01900302618741989
v 0.0020811902359128 0.005497818812727928 -0.018360426649451256
v 0.002075520344078541 0.00964577216655016 -0.016976531594991684
v 0.002064105588942766 0.013490370474755764 -0.01489340327680111
v 0.002047293120995164 0.016914881765842438 -0.012174364179372787
v 0.002025592839345336 0.019815221428871155 -0.008901906199753284
v 0.001999664818868041 0.022103169932961464 -0.005175566766411066
v 0.001970297424122691 0.02370929904282093 -0.0011086305603384972
v 0.0016919532790780067 -0.001847046078182757 0.03107602149248123
v 0.0016917057801038027 -0.006172314751893282 0.030433444306254387
v 0.0016973755555227399 -0.010320269502699375 0.029049549251794815
v 0.0017087903106585145 -0.014164866879582405 0.02696642279624939
v 0.0017256027786061168 -0.017589405179023743 0.024247366935014725
v 0.0017473030602559447 -0.02048974670469761 0.020974909886717796
v 0.0017732310807332397 -0.02277766726911068 0.01724858582019806
v 0.0018025985918939114 -0.024383796378970146 0.013181649148464203
v 0.0018345139687880874 -0.025259286165237427 0.008897582069039345
v 0.0019383818143978715 0.02458479069173336 0.0031754348892718554
v 0.0019048883114010096 0.024703003466129303 0.007546449080109596
v 0.0018708340357989073 0.024060452356934547 0.011871634051203728
v 0.0018372552003711462 0.022676529362797737 0.016019394621253014
v 0.0018051700899377465 0.020593352615833282 0.01986396312713623
v 0.0017755553126335144 0.017874250188469887 0.023288289085030556
v 0.0017493093619123101 0.014601750299334526 0.02618849091231823
v 0.0017272303812205791 0.010875358246266842 0.02847638539969921
v 0.0017099896213039756 0.006808262784034014 0.030082400888204575
v 0.0016981095541268587 0.0025240920949727297 0.0309578999876976
v 0.0016710372874513268 0.014829803258180618 0.026495350524783134
v 0.0016710372874513268 0.014829803258180618 0.026495350524783134
v 0.0016486220993101597 0.011046509258449078 0.02881806157529354
v 0.0016486220993101597 0.011046509258449078 0.02881806157529354
v 0.0016311175422742963 0.006917419843375683 0.03044867515563965
v 0.0016311175422742963 0.006917419843375683 0.03044867515563965
v 0.0016190572641789913 0.002567815128713846 0.03133740648627281
v 0.0016190572641789913 0.002567815128713846 0.03133740648627281
v 0.001612806343473494 -0.0018699840875342488 0.03145742043852806
v 0.001612806343473494 -0.0018699840875342488 0.03145742043852806
v 0.0016125551192089915 -0.0062612369656562805 0.03080502711236477
v 0.0016125551192089915 -0.0062612369656562805 0.03080502711236477
v 0.001618311507627368 -0.010472491383552551 0.029400017112493515
v 0.001618311507627368 -0.010472491383552551 0.029400017112493515
v 0.0016299003036692739 -0.014375763013958931 0.027285106480121613
v 0.0016299003036692739 -0.014375763013958931 0.027285106480121613
v 0.0016469693509861827 -0.01785251870751381 0.024524562060832977
v 0.0016469693509861827 -0.01785251870751381 0.024524562060832977
v 0.0016690002521499991 -0.020797038450837135 0.02120225690305233
v 0.0016690002521499991 -0.020797038450837135 0.02120225690305233
v 0.0016953237354755402 -0.023119894787669182 0.017419086769223213
v 0.0016953237354755402 -0.023119894787669182 0.017419086769223213
v 0.001725139794871211 -0.024750586599111557 0.01329001784324646
v 0.001725139794871211 -0.024750586599111557 0.01329001784324646
v 0.0017575420206412673 -0.02563939429819584 0.0089406194165349
v 0.0017575420206412673 -0.02563939429819584 0.0089406194165349
v 0.0017915465869009495 -0.02575942501425743 0.004502922762185335
v 0.0017915465869009495 -0.02575942501425743 0.004502922762185335
v 0.0018261201912537217 -0.025107089430093765 0.00011176401312695816
v 0.0018261201912537217 -0.025107089430093765 0.00011176401312695816
v 0.0018602118361741304 -0.023702062666416168 -0.004099339246749878
v 0.0018602118361741304 -0.023702062666416168 -0.004099339246749878
v 0.001892786123789847 -0.021587122231721878 -0.00800252053886652
v 0.001892786123789847 -0.021587122231721878 -0.00800252053886652
v 0.0019228530582040548 -0.01882650889456272 -0.01147912535816431
v 0.0019228530582040548 -0.01882650889456272 -0.01147912535816431
v 0.0019494988955557346 -0.015504137612879276 -0.014423525892198086
v 0.0019494988955557346 -0.015504137612879276 -0.014423525892198086
v 0.001971914665773511 -0.011720903217792511 -0.01674630492925644
v 0.001971914665773511 -0.011720903217792511 -0.01674630492925644
v 0.001989418640732765 -0.0075917537324130535 -0.018376851454377174
v 0.001989418640732765 -0.0075917537324130535 -0.018376851454377174
v 0.0020014795009046793 -0.0032422072254121304 -0.01926564984023571
v 0.0020014795009046793 -0.0032422072254121304 -0.01926564984023571
v 0.0020077298395335674 0.0011956490343436599 -0.019385596737265587
v 0.0020077298395335674 0.0011956490343436599 -0.019385596737265587
v 0.00200798106379807 0.005586894694715738 -0.018733197823166847
v 0.00200798106379807 0.005586894694715738 -0.018733197823166847
v 0.002002225024625659 0.00979811791330576 -0.01732823997735977
v 0.002002225024625659 0.00979811791330576 -0.01732823997735977
v 0.0019906358793377876 0.01370145007967949 -0.015213261358439922
v 0.0019906358793377876 0.01370145007967949 -0.015213261358439922
v 0.001973566599190235 0.01717819832265377 -0.012452710419893265
v 0.001973566599190235 0.01717819832265377 -0.012452710419893265
v 0.0019515359308570623 0.020122718065977097 -0.009130405262112617
v 0.0019515359308570623 0.020122718065977097 -0.009130405262112617
v 0.0019252124475315213 0.02244558185338974 -0.005347242578864098
v 0.0019252124475315213 0.02244558185338974 -0.005347242578864098
v 0.001895396737381816 0.02407621406018734 -0.001218239078298211
v 0.001895396737381816 0.02407621406018734 -0.001218239078298211
v 0.0018629941623657942 0.02496505156159401 0.0031312110368162394
v 0.0018629941623657942 0.02496505156159401 0.0031312110368162394
v 0.0018289897125214338 0.0250850897282362 0.007568901404738426
v 0.0018289897125214338 0.0250850897282362 0.007568901404738426
v 0.001794416573829949 0.024432696402072906 0.011959991417825222
v 0.001794416573829949 0.024432696402072906 0.011959991417825222
v 0.0017603244632482529 0.023027729243040085 0.016171162948012352
v 0.0017603244632482529 0.023027729243040085 0.016171162948012352
v 0.001727750524878502 0.02091272920370102 0.020074278116226196
v 0.001727750524878502 0.02091272920370102 0.020074278116226196
v 0.0016976832412183285 0.018152175471186638 0.02355094999074936
v 0.0016976832412183285 0.018152175471186638 0.02355094999074936
v -0.0006850295467302203 -0.010296016000211239 -0.025231795385479927
v -0.0006057266728021204 -0.0061905100010335445 -0.034896932542324066
v -0.0006730728782713413 -0.004660631529986858 -0.02590646781027317
v -0.0006630787393078208 0.006514928303658962 -0.02546183206140995
v -0.0006663596723228693 -0.0009067213395610452 -0.026193246245384216
v -0.000597225152887404 -0.0031579576898366213 -0.03552863746881485
v -0.000595572404563427 -0.0048394231125712395 -0.03600572794675827
v -0.0005947388126514852 -0.0039401003159582615 -0.03597376123070717
v -0.0005995359388180077 -0.005651185754686594 -0.035617291927337646
v -0.0006580633344128728 0.006833242252469063 -0.026063933968544006
v -0.0006593125290237367 0.007010919041931629 -0.025873878970742226
v -0.0006630089483223855 0.006858097389340401 -0.02541736513376236
v -0.0006606646347790956 0.00713053485378623 -0.025679515674710274
v -0.0006612739525735378 0.007150342222303152 -0.025597237050533295
v -0.0006881756708025932 -0.009865998290479183 -0.02475586161017418
v -0.000688450294546783 -0.009950365871191025 -0.02473333664238453
v -0.0006869866629131138 -0.010360312648117542 -0.024987494572997093
v -0.0006876328261569142 -0.010356022045016289 -0.02490285411477089
v -0.000662633974570781 0.007030630484223366 -0.025439178571105003
v -0.0006623237277381122 0.007093039806932211 -0.025469759479165077
v -0.0006620324566029012 0.007126029580831528 -0.025502460077404976
v -0.0006616830942220986 0.007145867682993412 -0.025544770061969757
v -0.0006885503535158932 -0.010284125804901123 -0.0247724037617445
v -0.0006882166489958763 -0.01032688096165657 -0.02482243813574314
v -0.0006887404015287757 -0.010227588005363941 -0.024738885462284088
v -0.0006887902272865176 -0.01012980006635189 -0.02471715584397316
v -0.0005288891843520105 -0.006542854942381382 -0.03504595160484314
v -0.0005288891843520105 -0.006542854942381382 -0.03504595160484314
v -0.0005214422708377242 -0.0058940621092915535 -0.03591248765587807
v -0.0005214422708377242 -0.0058940621092915535 -0.03591248765587807
v -0.000516673899255693 -0.004917594138532877 -0.03637981414794922
v -0.000516673899255693 -0.004917594138532877 -0.03637981414794922
v -0.0005156713305041194 -0.0038356808945536613 -0.03634132072329521
v -0.0005156713305041194 -0.0038356808945536613 -0.03634132072329521
v -0.0005186625639908016 -0.0028948429971933365 -0.0358058325946331
v -0.0005186625639908016 -0.0028948429971933365 -0.0358058325946331
v -0.00031148912967182696 -0.006841678638011217 -0.03517105057835579
v -0.0003029763756785542 -0.006100128870457411 -0.036161620169878006
v -0.00029752610134892166 -0.004984015133231878 -0.03669578209519386
v -0.00029638054547831416 -0.0037473589181900024 -0.03665172681212425
v -0.00029979951796121895 -0.0026720077730715275 -0.03603966906666756
v -0.0006081920000724494 -0.010648371651768684 -0.025380827486515045
v -0.0006081920000724494 -0.010648371651768684 -0.025380827486515045
v -0.00039079145062714815 -0.01094724703580141 -0.025505997240543365
v -0.0006147430976852775 -0.009752903133630753 -0.02438979782164097
v -0.0006147430976852775 -0.009752903133630753 -0.02438979782164097
v -0.0004002294153906405 -0.00965716689825058 -0.024078257381916046
v -0.0004561594978440553 -0.009811598807573318 -0.02410033345222473
v -0.0006297994405031204 -0.009876382537186146 -0.024396702647209167
v -0.0005589821957983077 -0.010167271830141544 -0.024218067526817322
v -0.0006567678065039217 -0.010149206034839153 -0.02445909194648266
v -0.000589909905102104 -0.010322541929781437 -0.024305300787091255
v -0.0006670078728348017 -0.010309189558029175 -0.02453985996544361
v -0.000599531689658761 -0.010387050919234753 -0.024349860846996307
v -0.0006125329528003931 -0.010532370768487453 -0.0244727935642004
v -0.0006700279773212969 -0.010410703718662262 -0.024619756266474724
v -0.0006101219332776964 -0.010663427412509918 -0.024620652198791504
v -0.0006690033478662372 -0.010498631745576859 -0.024719668552279472
v -0.0005854670889675617 -0.010791840963065624 -0.02482418715953827
v -0.0006620401400141418 -0.01057971641421318 -0.024862606078386307
v -0.000545697461348027 -0.01087266206741333 -0.025016041472554207
v -0.000651127309538424 -0.010626089759171009 -0.025002628564834595
v -0.0005998199922032654 -0.004609297029674053 -0.025526685640215874
v -0.0005998199922032654 -0.004609297029674053 -0.025526685640215874
v -0.000593187112826854 -0.000900012906640768 -0.025809992104768753
v -0.000593187112826854 -0.000900012906640768 -0.025809992104768753
v -0.000593187112826854 -0.000900012906640768 -0.025809992104768753
v -0.0005899445386603475 0.006433517672121525 -0.02508733421564102
v -0.0005899445386603475 0.006433517672121525 -0.02508733421564102
v -0.0005899445386603475 0.006433517672121525 -0.02508733421564102
v -0.000385458639357239 -0.004566027317196131 -0.025203531607985497
v -0.0003788931935559958 -0.0008944952860474586 -0.025483964011073112
v -0.0003756290243472904 0.0027846272569149733 -0.025334205478429794
v -0.0003756290243472904 0.0027846272569149733 -0.025334205478429794
v -0.0003756839723791927 0.00636427104473114 -0.024768635630607605
v -0.0005795006873086095 0.007096356712281704 -0.026341130957007408
v -0.0003606376121751964 0.00731919938698411 -0.02657497487962246
v -0.00048600308946333826 0.007446193136274815 -0.02622135356068611
v -0.0006141261546872556 0.007238489575684071 -0.026055878028273582
v -0.0005867347936145961 0.007479168940335512 -0.025813350453972816
v -0.0006416270043700933 0.0073081133887171745 -0.025747770443558693
v -0.0006160676130093634 0.007445159833878279 -0.025616902858018875
v -0.0006497556460089982 0.007299415767192841 -0.025607304647564888
v -0.0006275046616792679 0.007397113833576441 -0.02547818422317505
v -0.0006531497347168624 0.007272601127624512 -0.0255112424492836
v -0.000629786925856024 0.007333408109843731 -0.025353718549013138
v -0.0006541422917507589 0.007230590563267469 -0.025427542626857758
v -0.0006240591173991561 0.007256932556629181 -0.02524341084063053
v -0.0006530930404551327 0.007175792474299669 -0.02535555325448513
v -0.0006052178796380758 0.007136978674679995 -0.02511518821120262
v -0.0006487540085799992 0.0070846485905349255 -0.025274744257330894
v -0.0005365735269151628 0.0068549769930541515 -0.024922940880060196
v -0.000631835195235908 0.006856604944914579 -0.025161923840641975
v 0.0006044319598004222 -0.00768423592671752 -0.035521429032087326
v 0.0006159460754133761 -0.006681264843791723 -0.036861252039670944
v 0.0006233174353837967 -0.005171529948711395 -0.03758365660905838
v 0.0006248675053939223 -0.003498921636492014 -0.03752416372299194
v 0.0006202428485266864 -0.0020443066023290157 -0.036696262657642365
v 0.0005096062668599188 -0.012593443505465984 -0.023964444175362587
v 0.0005651952815242112 -0.012424515560269356 -0.022261377424001694
v 0.0005004150443710387 -0.011239121668040752 -0.022558754310011864
v 0.0007022249628789723 -0.013176125474274158 -0.02249361388385296
v 0.0006491303211078048 -0.01307638082653284 -0.02296893298625946
v 0.0005684611387550831 -0.012922018766403198 -0.02276339940726757
v 0.0005964264855720103 -0.011876769363880157 -0.022238049656152725
v 0.000681504316162318 -0.012526847422122955 -0.022024396806955338
v 0.0007139559602364898 -0.012848399579524994 -0.02201496995985508
v 0.0007208306342363358 -0.01314717810600996 -0.022258304059505463
v 0.0007249110494740307 -0.013098222203552723 -0.022161249071359634
v 0.0007245999877341092 -0.013024434447288513 -0.022086072713136673
v 0.0005314430454745889 0.0026930631138384342 -0.02441748045384884
v 0.00013921163917984813 0.008096808567643166 -0.02379543147981167
v 0.0005282088532112539 0.009545166976749897 -0.022928252816200256
v 0.0005218986771069467 -0.004444320686161518 -0.024290606379508972
v 0.0006941818865016103 0.012183588929474354 -0.0233259629458189
v 0.0007795197307132185 0.01310944464057684 -0.022280573844909668
v -0.00020281168690416962 0.00886447075754404 -0.024977292865514755
v -0.00020281168690416962 0.00886447075754404 -0.024977292865514755
v 0.00015421218995470554 0.009114875458180904 -0.025585968047380447
v -0.0002082648134091869 0.008494402281939983 -0.024326374754309654
v 0.0007548769353888929 0.012404670007526875 -0.021775295957922935
v 0.0006892753299325705 0.01148039661347866 -0.0221081655472517
v 0.0008047253941185772 0.013300340622663498 -0.021745800971984863
v 0.0008044621208682656 0.013274678029119968 -0.021707845851778984
v 0.000737227441277355 0.012931646779179573 -0.02197939343750477
v 0.0008032986079342663 0.013237073086202145 -0.021679183468222618
v 0.0008032290497794747 0.013315100222826004 -0.021828383207321167
v 0.0007972957682795823 0.013280119746923447 -0.021976346150040627
v 0.0007694950909353793 0.012629715725779533 -0.02171158231794834
v 0.0007765243062749505 0.012742551974952221 -0.02168470248579979
v 0.0007988938596099615 0.013137510977685452 -0.021648555994033813
v 0.0005431445315480232 0.010617195628583431 -0.02470194175839424
v 0.0009176685707643628 -0.0015583491185680032 -0.03720730170607567
v 0.0008390949224121869 -0.0018214836018159986 -0.03693012893199921
v 0.0008390949224121869 -0.0018214836018159986 -0.03693012893199921
v 0.0008441470563411713 -0.003410599660128355 -0.037834569811820984
v 0.0008441470563411713 -0.003410599660128355 -0.037834569811820984
v 0.0008424536790698767 -0.005237995646893978 -0.03789958357810974
v 0.0008424536790698767 -0.005237995646893978 -0.03789958357810974
v 0.0008344008238054812 -0.006887324154376984 -0.03711039200425148
v 0.0008344008238054812 -0.006887324154376984 -0.03711039200425148
v 0.0008218216826207936 -0.007983083836734295 -0.03564664348959923
v 0.0009232258889824152 -0.0033062943257391453 -0.03820216655731201
v 0.0009213628945872188 -0.0053161075338721275 -0.03827360272407532
v 0.0009125057840719819 -0.007130210753530264 -0.037405598908662796
v 0.0008986703469417989 -0.00833542924374342 -0.0357956662774086
v 0.0008038446540012956 -0.013244635425508022 -0.02423867955803871
v 0.0007269956986419857 -0.012892345897853374 -0.02408963069319725
v 0.0007149934535846114 -0.01112376619130373 -0.022254008799791336
v 0.0007149934535846114 -0.01112376619130373 -0.022254008799791336
v 0.000788525678217411 -0.010987485758960247 -0.02189582958817482
v 0.0007858049357309937 -0.011743991635739803 -0.021660273894667625
v 0.0007384050404652953 -0.011813878081738949 -0.02196386829018593
v 0.0007384050404652953 -0.011813878081738949 -0.02196386829018593
v 0.0007841839105822146 -0.012553686276078224 -0.0215759314596653
v 0.0007590892491862178 -0.012539892457425594 -0.02180611714720726
v 0.0007843488128855824 -0.01298580877482891 -0.02166477032005787
v 0.0007673234213143587 -0.012915865518152714 -0.021843118593096733
v 0.0007852007984183729 -0.013246634043753147 -0.021816181018948555
v 0.0007705277530476451 -0.013133772648870945 -0.02195318229496479
v 0.0007860109908506274 -0.013370083644986153 -0.021940724924206734
v 0.0007711270009167492 -0.013231980614364147 -0.022052668035030365
v 0.0007870219997130334 -0.013466848991811275 -0.022087205201387405
v 0.0007707750191912055 -0.013304232619702816 -0.022174092009663582
v 0.0007894051959738135 -0.01357954926788807 -0.02241448685526848
v 0.0007676699897274375 -0.013373270630836487 -0.022454766556620598
v 0.0007941119256429374 -0.013591893017292023 -0.023028064519166946
v 0.0007572309696115553 -0.013324287720024586 -0.022997034713625908
v 0.0007424922659993172 0.009440160356462002 -0.02261955477297306
v 0.0007456920575350523 0.002660670317709446 -0.02409297786653042
v 0.0007456920575350523 0.002660670317709446 -0.02409297786653042
v 0.0008156771655194461 0.009316488169133663 -0.02225678414106369
v 0.0008188363863155246 0.0026227307971566916 -0.023711569607257843
v 0.0008095127996057272 -0.004349696449935436 -0.023587649688124657
v 0.0007362490869127214 -0.00440098624676466 -0.023967470973730087
v 0.0007362490869127214 -0.00440098624676466 -0.023967470973730087
v 0.0007619964890182018 0.010840046219527721 -0.02493579313158989
v 0.0008405703119933605 0.011103160679340363 -0.025212988257408142
v 0.0008301993948407471 0.012573213316500187 -0.02363593503832817
v 0.0007948607672005892 0.01237149816006422 -0.023475270718336105
v 0.0007948607672005892 0.01237149816006422 -0.023475270718336105
v 0.0008215658599510789 0.01337053719907999 -0.022389600053429604
v 0.0008107309113256633 0.013238602317869663 -0.022334465757012367
v 0.0008187057101167738 0.013482527807354927 -0.022000443190336227
v 0.0008132374496199191 0.0133807472884655 -0.02198832668364048
v 0.000817134277895093 0.013478510081768036 -0.02179686166346073
v 0.0008136966498568654 0.01339649222791195 -0.02181268110871315
v 0.0008161236764863133 0.013434800319373608 -0.02167234942317009
v 0.0008134054369293153 0.01336733903735876 -0.02170918881893158
v 0.0008155874675139785 0.013391672633588314 -0.02160939946770668
v 0.0008129759808070958 0.013333006761968136 -0.02165873348712921
v 0.0008151105721481144 0.0133372126147151 -0.02155591920018196
v 0.0008123664883896708 0.013287007808685303 -0.021617690101265907
v 0.000814371625892818 0.013207095675170422 -0.02148018777370453
v 0.0008108075126074255 0.013172158040106297 -0.021564694121479988
v 0.0008132598013617098 0.012741678394377232 -0.021408308297395706
v 0.0008045509457588196 0.012742078863084316 -0.021547824144363403
v 0.0007990385638549924 0.01238442212343216 -0.021607162430882454
v 0.0008130035130307078 0.012363607063889503 -0.021433988586068153
v 0.0008133290684781969 0.01136037241667509 -0.021632801741361618
v 0.0007827992085367441 0.01142234168946743 -0.02187824249267578
v 0.0007921499200165272 0.02370549738407135 -0.016954662278294563
v 0.0009347981540486217 0.00027887721080332994 -0.03914671763777733
v 0.0009407860925421119 -0.0010507539846003056 -0.040132295340299606
v 0.0009438777342438698 -0.002577021950855851 -0.04077215492725372
v 0.0009438938577659428 -0.004211909137666225 -0.041029300540685654
v 0.0009408342302776873 -0.005860935430973768 -0.040888942778110504
v 0.0009348755702376366 -0.007428891956806183 -0.04035920277237892
v 0.0009263615356758237 -0.008825080469250679 -0.03947058692574501
v 0.0006869951612316072 -0.022016171365976334 -0.010422180406749249
v 0.0007067486876621842 -0.020092399790883064 -0.012689088471233845
v 0.0007352212560363114 -0.016542265191674232 -0.015835341066122055
v 0.000759173184633255 -0.012499663047492504 -0.018317298963665962
v 0.0009157849126495421 -0.009968983009457588 -0.038274578750133514
v 0.0009037558920681477 -0.010794360190629959 -0.03684013709425926
v 0.0007363783079199493 0.027642663568258286 -0.009092811495065689
v 0.0007092697778716683 0.024008749052882195 -0.006136883050203323
v 0.0007373974658548832 0.02152663841843605 -0.01017935760319233
v 0.000776830711401999 0.02561970427632332 -0.014665278606116772
v 0.000757901871111244 0.026955997571349144 -0.01199696958065033
v 0.0006774102803319693 0.025751076638698578 -0.001724863308481872
v 0.0007134155603125691 0.027642792090773582 -0.006108726840466261
v 0.0006462627789005637 0.026643993332982063 0.0024621260818094015
v 0.000760938914027065 0.018380220979452133 -0.013729466125369072
v 0.0007791782263666391 0.014665166847407818 -0.01667926274240017
v 0.000791560800280422 0.010494341142475605 -0.01893906481564045
v 0.0007778768194839358 -0.00808748323470354 -0.020059581845998764
v 0.0007907645776867867 -0.003439859487116337 -0.02100933901965618
v 0.0007974433246999979 0.001302202115766704 -0.02113749459385872
v 0.0007977119530551136 0.005994443316012621 -0.02044040709733963
v 0.0006464400794357061 0.0007654712535440922 -0.039662327617406845
v 0.0008611312368884683 0.0005421944078989327 -0.039425063878297806
v 0.0008611312368884683 0.0005421944078989327 -0.039425063878297806
v 0.0008674521232023835 -0.0008613146492280066 -0.040465425699949265
v 0.0008674521232023835 -0.0008613146492280066 -0.040465425699949265
v 0.0008707156521268189 -0.0024724421091377735 -0.04114086553454399
v 0.0008707156521268189 -0.0024724421091377735 -0.04114086553454399
v 0.0008707327651791275 -0.004198216833174229 -0.041412316262722015
v 0.0008707327651791275 -0.004198216833174229 -0.041412316262722015
v 0.0008675034623593092 -0.0059389336965978146 -0.041264209896326065
v 0.0008675034623593092 -0.0059389336965978146 -0.041264209896326065
v 0.0008612135425209999 -0.007593948859721422 -0.04070500284433365
v 0.0008612135425209999 -0.007593948859721422 -0.04070500284433365
v 0.0008522268035449088 -0.009067808277904987 -0.039767082780599594
v 0.0008522268035449088 -0.009067808277904987 -0.039767082780599594
v 0.000841061701066792 -0.010275195352733135 -0.038504499942064285
v 0.000841061701066792 -0.010275195352733135 -0.038504499942064285
v 0.0008283639908768237 -0.011146522127091885 -0.03699033334851265
v 0.0006530429236590862 -0.000700578500982374 -0.04074908792972565
v 0.000656451506074518 -0.0023836144246160984 -0.04145459458231926
v 0.0006564697832800448 -0.0041864304803311825 -0.04173820838332176
v 0.0006530959508381784 -0.006004765164107084 -0.041583433747291565
v 0.0006465255282819271 -0.0077337464317679405 -0.040999311953783035
v 0.0006371375638991594 -0.00927338283509016 -0.04001950845122337
v 0.000625474494881928 -0.01053465623408556 -0.03870062530040741
v 0.000612210133112967 -0.01144483219832182 -0.037118878215551376
v 0.000550188880879432 -0.02395614981651306 -0.007013252470642328
v 0.0003485129855107516 -0.025253834202885628 -0.004602233879268169
v 0.0003451273078098893 -0.025271844118833542 -0.004567855969071388
v 0.0003500557504594326 -0.025252634659409523 -0.004601135849952698
v 0.0006315529462881386 -0.023847896605730057 -0.006927302107214928
v 0.0006315529462881386 -0.023847896605730057 -0.006927302107214928
v 0.0007616867078468204 -0.021711403504014015 -0.010190303437411785
v 0.0007616867078468204 -0.021711403504014015 -0.010190303437411785
v 0.0003515990392770618 -0.02525140717625618 -0.004600102547556162
v 0.0007338182185776532 -0.02375323325395584 -0.006848044227808714
v 0.0009772746125236154 -0.021453194320201874 -0.009992528706789017
v 0.000781162700150162 -0.01981467194855213 -0.01242536399513483
v 0.000781162700150162 -0.01981467194855213 -0.01242536399513483
v 0.0008092345087788999 -0.016314499080181122 -0.015527337789535522
v 0.0008092345087788999 -0.016314499080181122 -0.015527337789535522
v 0.00083284976426512 -0.012328739278018475 -0.017974410206079483
v 0.00083284976426512 -0.012328739278018475 -0.017974410206079483
v 0.0008512911153957248 -0.007978646084666252 -0.01969229243695736
v 0.0008512911153957248 -0.007978646084666252 -0.01969229243695736
v 0.0008639968000352383 -0.0033962500747293234 -0.020628564059734344
v 0.0008639968000352383 -0.0033962500747293234 -0.020628564059734344
v 0.0008705821819603443 0.0012789960019290447 -0.02075500786304474
v 0.0008705821819603443 0.0012789960019290447 -0.02075500786304474
v 0.0008708470850251615 0.0059052882716059685 -0.02006772719323635
v 0.0008708470850251615 0.0059052882716059685 -0.02006772719323635
v 0.0008647824288345873 0.010341961868107319 -0.018587486818432808
v 0.0008647824288345873 0.010341961868107319 -0.018587486818432808
v 0.0008525730227120221 0.014454145915806293 -0.016359340399503708
v 0.0008525730227120221 0.014454145915806293 -0.016359340399503708
v 0.0008345902315340936 0.01811697520315647 -0.013451024889945984
v 0.0008345902315340936 0.01811697520315647 -0.013451024889945984
v 0.0008113803924061358 0.021219074726104736 -0.009950919076800346
v 0.0008113803924061358 0.021219074726104736 -0.009950919076800346
v 0.0007836481090635061 0.023666279390454292 -0.0059652747586369514
v 0.0007836481090635061 0.023666279390454292 -0.0059652747586369514
v 0.0007522371597588062 0.025384146720170975 -0.0016153621254488826
v 0.0007522371597588062 0.025384146720170975 -0.0016153621254488826
v 0.0007215269724838436 0.02626453898847103 0.0025128403212875128
v 0.000996515154838562 -0.019579436630010605 -0.012200579047203064
v 0.001024247845634818 -0.016121549531817436 -0.015265078283846378
v 0.0010475771268829703 -0.012183980084955692 -0.017682503908872604
v 0.0010657950770109892 -0.00788646750152111 -0.019379550591111183
v 0.0010783481411635876 -0.0033595471177250147 -0.020304648205637932
v 0.0010848537785932422 0.0012592599960044026 -0.020429536700248718
v 0.0010851150145754218 0.005829575005918741 -0.019750507548451424
v 0.0010791239328682423 0.010212602093815804 -0.01828818954527378
v 0.0010670621413737535 0.014275111258029938 -0.01608697883784771
v 0.0010492972796782851 0.017893560230731964 -0.013213918544352055
v 0.0010263678850606084 0.020958183333277702 -0.009756099432706833
v 0.000998971052467823 0.023375798016786575 -0.005818658974021673
v 0.0009679393842816353 0.025072913616895676 -0.0015212749131023884
v 0.0009376005618833005 0.02594268135726452 0.002557008760049939
v 0.0005894027417525649 0.026506120339035988 0.006405496969819069
v 0.0003017268027178943 0.026575466617941856 0.009160377085208893
v 0.0003082171897403896 0.026573622599244118 0.009122230112552643
v 0.00030667174723930657 0.026575183495879173 0.009121911600232124
v 0.000536539766471833 0.026484951376914978 0.007648272439837456
v 0.0006918483995832503 0.02638482116162777 0.006427625194191933
v 0.0003051266830880195 0.02657678909599781 0.009121553972363472
v 0.0005078333779238164 0.026642510667443275 0.006384390871971846
v 0.0014525516889989376 0.015023189596831799 0.026754269376397133
v 0.0014298505848273635 0.011191781610250473 0.029106639325618744
v 0.0014121235581114888 0.007010084111243486 0.030757950618863106
v 0.0013999090297147632 0.0026051076129078865 0.03165808320045471
v 0.00139357871375978 -0.0018892505904659629 0.03177960216999054
v 0.0013933241134509444 -0.00633642915636301 0.031118912622332573
v 0.00139915372710675 -0.010601290501654148 0.02969602309167385
v 0.0014108902541920543 -0.014554343186318874 0.02755414880812168
v 0.0014281771145761013 -0.018075356259942055 0.02475840225815773
v 0.0014504886930808425 -0.02105739340186119 0.02139376476407051
v 0.0014771472197026014 -0.023409880697727203 0.01756243035197258
v 0.0015073426766321063 -0.025061242282390594 0.013380835764110088
v 0.0015401581767946482 -0.025961454957723618 0.008975961245596409
v 0.001574596157297492 -0.02608306333422661 0.004481681622564793
v 0.0016096095787361264 -0.025422319769859314 3.468945942586288e-05
v 0.001644135802052915 -0.023999398574233055 -0.0042301020585000515
v 0.0016771245282143354 -0.02185750938951969 -0.008182931691408157
v 0.0017075749346986413 -0.019061807543039322 -0.01170389261096716
v 0.001734560588374734 -0.015697062015533447 -0.014685846865177155
v 0.001757261110469699 -0.011865584179759026 -0.017038121819496155
v 0.0017749882536008954 -0.007683898322284222 -0.018689462915062904
v 0.0017872026655822992 -0.003278910182416439 -0.019589565694332123
v 0.0017935335636138916 0.001215397729538381 -0.01971115730702877
v 0.0017937872326001525 0.005662590265274048 -0.019050361588597298
v 0.001787957618944347 0.009927555918693542 -0.017627447843551636
v 0.0017762210918590426 0.013880504295229912 -0.01548559870570898
v 0.001758934580720961 0.0174015611410141 -0.012689890339970589
v 0.0017366231186315417 0.020383598282933235 -0.009325253777205944
v 0.0017099642427638173 0.022736042737960815 -0.005493880249559879
v 0.0016797685530036688 0.024387508630752563 -0.0013122587697580457
v 0.0016469532856717706 0.02528761699795723 0.0030925890896469355
v 0.0016125160036608577 0.025409210473299026 0.0075867618434131145
v 0.001577502116560936 0.02474851720035076 0.012033828534185886
v 0.001542976126074791 0.023325584828853607 0.01629859022796154
v 0.001509987167082727 0.02118370682001114 0.020251449197530746
v 0.001479537459090352 0.0183879341930151 0.023772314190864563
v 0.0006374105578288436 0.028023015707731247 -0.006064991932362318
v 0.0006374105578288436 0.028023015707731247 -0.006064991932362318
v 0.00042073673103004694 0.0283455029129982 -0.006029119249433279
v 0.0006610557320527732 0.028022844344377518 -0.009137758985161781
v 0.0006610557320527732 0.028022844344377518 -0.009137758985161781
v 0.0006832185899838805 0.027315791696310043 -0.01212818082422018
v 0.0006832185899838805 0.027315791696310043 -0.01212818082422018
v 0.0007027089013718069 0.025939853861927986 -0.014875642023980618
v 0.0007027089013718069 0.025939853861927986 -0.014875642023980618
v 0.0007184826536104083 0.02396877110004425 -0.017232967540621758
v 0.00044496002374216914 0.028345322236418724 -0.00917702168226242
v 0.00046766435843892395 0.02762107364833355 -0.012240487150847912
v 0.00048763162340037525 0.026211420074105263 -0.015055191703140736
v 0.0005037914961576462 0.02419215813279152 -0.017470210790634155
v -0.0004998248186893761 -0.012469028122723103 -0.03756304830312729
v -0.0004846140800509602 -0.011425266973674297 -0.03937689587473869
v -0.0004712393565569073 -0.009978900663554668 -0.04088934138417244
v -0.00046047376235947013 -0.008213394321501255 -0.042012933641672134
v -0.00045293907169252634 -0.006230727303773165 -0.04268278554081917
v -0.0004490699793677777 -0.00414552167057991 -0.04286028817296028
v -0.0004490911087486893 -0.002078192075714469 -0.04253503680229187
v -0.0004530004516709596 -0.00014809457934461534 -0.04172591120004654
v -0.00046057140571065247 0.0015331263421103358 -0.04047977551817894
v -0.0007669071783311665 -0.026296110823750496 -0.005012104753404856
v -0.0008120928541757166 0.027683449909090996 0.009280752390623093
v -0.0008496497175656259 0.026716338470578194 0.01401048805564642
v -0.0009529701201245189 0.019288470968604088 0.02627846784889698
v -0.000980927376076579 0.015545687638223171 0.029327694326639175
v -0.0009996294975280762 0.012273810803890228 0.031247664242982864
v -0.0010041879722848535 0.0113377645611763 0.031694021075963974
v -0.001022070413455367 0.006787839345633984 0.03330810368061066
v -0.0010323732858523726 0.002883374458178878 0.03403787687420845
v -0.001034051994793117 0.0020293500274419785 0.03412280231714249
v -0.0010397799778729677 -0.0027983838226646185 0.034114040434360504
v -0.0010395741555839777 -0.006895077880471945 0.03344820812344551
v -0.0010390877723693848 -0.007553908973932266 0.033282212913036346
v -0.0010319955181330442 -0.01209796592593193 0.031651683151721954
v -0.0010203637648373842 -0.015882188454270363 0.029549773782491684
v -0.0010187110165134072 -0.016297366470098495 0.029270224273204803
v -0.000999622861854732 -0.020029189065098763 0.02620750479400158
v -0.0009770592441782355 -0.022993898019194603 0.022812815383076668
v -0.0009752900223247707 -0.023184066638350487 0.022553231567144394
v -0.0009464267059229314 -0.025669587776064873 0.018414625898003578
v -0.0008040179964154959 -0.0277963075786829 -0.0004234953667037189
v -0.0008416143245995045 -0.028492063283920288 0.004353702533990145
v -0.0008785947575233877 -0.028363104909658432 0.009179510176181793
v -0.000913876632694155 -0.02741299569606781 0.013912691734731197
v -0.0009148833341896534 -0.02737262472510338 0.014049816876649857
v -0.0008759149932302535 0.025543292984366417 0.017240723595023155
v -0.0008863558177836239 0.024956855922937393 0.01850605383515358
v -0.0009211350115947425 0.022456467151641846 0.022635631263256073
v -0.000945291540119797 0.020143451169133186 0.0254139956086874
v -0.0006930833915248513 0.029453543946146965 -0.00590867642313242
v -0.0006032203673385084 0.02495976909995079 -0.018287619575858116
v -0.0006207049591466784 0.027144622057676315 -0.015674620866775513
v -0.0006423087907023728 0.02866966649889946 -0.012629236094653606
v -0.0006668743444606662 0.02945340983569622 -0.00931462086737156
v -0.0008238343871198595 -0.012668122537434101 -0.03765026479959488
v -0.0008082450949586928 -0.011598429642617702 -0.03950925171375275
v -0.0012063358444720507 -0.01273778174072504 -0.03768299147486687
v -0.0011906132567673922 -0.011658921837806702 -0.03955787047743797
v -0.0011906132567673922 -0.011658921837806702 -0.03955787047743797
v -0.0011767892865464091 -0.010163831524550915 -0.04112109914422035
v -0.0011767892865464091 -0.010163831524550915 -0.04112109914422035
v -0.0007945370743982494 -0.010116025805473328 -0.04105938598513603
v -0.001165660796687007 -0.00833896454423666 -0.0422825887799263
v -0.0007835034630261362 -0.008306576870381832 -0.04221095144748688
v -0.0011578728444874287 -0.006289605516940355 -0.04297494888305664
v -0.000775781343691051 -0.0062745180912315845 -0.042897459119558334
v -0.0011538739781826735 -0.004134223330765963 -0.04315837845206261
v -0.0011538739781826735 -0.004134223330765963 -0.04315837845206261
v -0.0011538739781826735 -0.004134223330765963 -0.04315837845206261
v -0.0007718158303759992 -0.004137418698519468 -0.043079398572444916
v -0.0011538953986018896 -0.001997321145609021 -0.042822226881980896
v -0.0011538953986018896 -0.001997321145609021 -0.042822226881980896
v -0.0007718373090028763 -0.0020185920875519514 -0.04274606704711914
v -0.0011579361744225025 -2.3562568003399065e-06 -0.04198591038584709
v -0.0011579361744225025 -2.3562568003399065e-06 -0.04198591038584709
v -0.0011579361744225025 -2.3562568003399065e-06 -0.04198591038584709
v -0.0007758438005112112 -4.048562186653726e-05 -0.041916828602552414
v -0.0011657620780169964 0.0017354025039821863 -0.04069781303405762
v -0.0011657620780169964 0.0017354025039821863 -0.04069781303405762
v -0.0007836039294488728 0.0016826557694002986 -0.040639571845531464
v -0.0014734183205291629 -0.02656474895775318 -0.005132010206580162
v -0.0010909168049693108 -0.026495184749364853 -0.0050992961041629314
v -0.0011364492820575833 0.027899205684661865 0.009303340688347816
v -0.0015190726844593883 0.02797522023320198 0.009309176355600357
v -0.0015570201212540269 0.026998113840818405 0.014088108204305172
v -0.0015570201212540269 0.026998113840818405 0.014088108204305172
v -0.0011742949718609452 0.02692466787993908 0.014069443568587303
v -0.0012112829135730863 0.025151558220386505 0.018599506467580795
v -0.0012463300954550505 0.022631997242569923 0.02276092767715454
v -0.0012784090358763933 0.01943964511156082 0.026431642472743988
v -0.001306581194512546 0.01566811092197895 0.02950431779026985
v -0.0013300208374857903 0.011427841149270535 0.03188887983560562
v -0.0013480408815667033 0.006842968985438347 0.03351537510752678
v -0.0013601139653474092 0.0020479208324104548 0.03433626890182495
v -0.0013658867683261633 -0.0028169103898108006 0.03432753309607506
v -0.001365188742056489 -0.007609049789607525 0.033489249646663666
v -0.0013580420054495335 -0.012187954038381577 0.031846195459365845
v -0.001344655524007976 -0.01641964726150036 0.029446449130773544
v -0.0013254203367978334 -0.020180175080895424 0.026360146701335907
v -0.0013009009417146444 -0.023359347134828568 0.0226778294891119
v -0.0012718156212940812 -0.02586389146745205 0.018507421016693115
v -0.001594106899574399 0.02522028610110283 0.01863027736544609
v -0.0016292472137138247 0.022693965584039688 0.022802747786045074
v -0.0016292472137138247 0.022693965584039688 0.022802747786045074
v -0.0016614129999652505 0.019493067637085915 0.02648342214524746
v -0.0016896603628993034 0.015711436048150063 0.02956428937613964
v -0.0016896603628993034 0.015711436048150063 0.02956428937613964
v -0.0017131626373156905 0.01145973987877369 0.03195519372820854
v -0.0017312309937551618 0.00686267763376236 0.033586084842681885
v -0.0017312309937551618 0.00686267763376236 0.033586084842681885
v -0.0017433365574106574 0.0020547606982290745 0.034409184008836746
v -0.0017491243779659271 -0.0028231078758835793 0.034400373697280884
v -0.0017491243779659271 -0.0028231078758835793 0.034400373697280884
v -0.001748424954712391 -0.007628017570823431 0.03355991095304489
v -0.001741258893162012 -0.012219271622598171 0.0319124311208725
v -0.001741258893162012 -0.012219271622598171 0.0319124311208725
v -0.0017278360901400447 -0.01646231859922409 0.029506178572773933
v -0.0017085500294342637 -0.02023289166390896 0.026411695405840874
v -0.0017085500294342637 -0.02023289166390896 0.026411695405840874
v -0.001683964510448277 -0.02342052198946476 0.022719472646713257
v -0.0016548014245927334 -0.025931868702173233 0.018537890166044235
v -0.0016548014245927334 -0.025931868702173233 0.018537890166044235
v -0.001621913630515337 -0.027693314477801323 0.013989261351525784
v -0.001239015837199986 -0.027620630338788033 0.01397094875574112
v -0.001586265629157424 -0.028653280809521675 0.009206954389810562
v -0.001586265629157424 -0.028653280809521675 0.009206954389810562
v -0.00120346259791404 -0.02857806533575058 0.009201371110975742
v -0.0015489005018025637 -0.028783638030290604 0.0043309396132826805
v -0.001166197587735951 -0.028708096593618393 0.004338406026363373
v -0.001510914065875113 -0.028080616146326065 -0.000495824555400759
v -0.001510914065875113 -0.028080616146326065 -0.000495824555400759
v -0.0011283125495538116 -0.028006942942738533 -0.0004754713736474514
v -0.001400063163600862 0.02974531427025795 -0.005880252458155155
v -0.0010174396447837353 0.029669281095266342 -0.005886110942810774
v -0.0009262525127269328 0.02510923147201538 -0.018447475507855415
v -0.0009439946734346449 0.027326302602887154 -0.01579597219824791
v -0.0013084110105410218 0.025162044912576675 -0.018505658954381943
v -0.0013262435095384717 0.027390334755182266 -0.01584068313241005
v -0.0013262435095384717 0.027390334755182266 -0.01584068313241005
v -0.0013482781359925866 0.028945906087756157 -0.012734545394778252
v -0.000965916900895536 0.028873858973383904 -0.012705707922577858
v -0.0013733324594795704 0.029745129868388176 -0.009354006499052048
v -0.0013733324594795704 0.029745129868388176 -0.009354006499052048
v -0.0009908440988510847 0.029669051989912987 -0.009342305362224579
v -0.002051516203209758 0.0017364658415317535 -0.0407046303153038
v -0.0021941650193184614 0.025163108482956886 -0.01851247437298298
v -0.0021941650193184614 0.025163108482956886 -0.01851247437298298
v -0.002234032144770026 0.028946969658136368 -0.012741360813379288
v -0.002234032144770026 0.028946969658136368 -0.012741360813379288
v -0.002234032144770026 0.028946969658136368 -0.012741360813379288
v -0.0022858171723783016 0.02974637784063816 -0.0058870683424174786
v -0.0022858171723783016 0.02974637784063816 -0.0058870683424174786
v -0.002404826693236828 0.027976281940937042 0.009302360936999321
v -0.002404826693236828 0.027976281940937042 0.009302360936999321
v -0.0024798607919365168 0.02522134967148304 0.018623461946845055
v -0.0024798607919365168 0.02522134967148304 0.018623461946845055
v -0.0024798607919365168 0.02522134967148304 0.018623461946845055
v -0.00254716700874269 0.019494131207466125 0.026476606726646423
v -0.00254716700874269 0.019494131207466125 0.026476606726646423
v -0.00254716700874269 0.019494131207466125 0.026476606726646423
v -0.00259891664609313 0.0114608034491539 0.031948380172252655
v -0.00259891664609313 0.0114608034491539 0.031948380172252655
v -0.00259891664609313 0.0114608034491539 0.031948380172252655
v -0.002629090566188097 0.002055823802947998 0.03440237045288086
v -0.002629090566188097 0.002055823802947998 0.03440237045288086
v -0.002629090566188097 0.002055823802947998 0.03440237045288086
v -0.0026341790799051523 -0.00762695400044322 0.033553093671798706
v -0.0026341790799051523 -0.00762695400044322 0.033553093671798706
v -0.0026341790799051523 -0.00762695400044322 0.033553093671798706
v -0.0026135900989174843 -0.01646125502884388 0.029499363154172897
v -0.0026135900989174843 -0.01646125502884388 0.029499363154172897
v -0.0026135900989174843 -0.01646125502884388 0.029499363154172897
v -0.0025697185192257166 -0.02341945841908455 0.02271265722811222
v -0.0025697185192257166 -0.02341945841908455 0.02271265722811222
v -0.0025697185192257166 -0.02341945841908455 0.02271265722811222
v -0.0025076677557080984 -0.027692250907421112 0.013982445932924747
v -0.0025076677557080984 -0.027692250907421112 0.013982445932924747
v -0.0025076677557080984 -0.027692250907421112 0.013982445932924747
v -0.002434654626995325 -0.028782574459910393 0.00432412326335907
v -0.002434654626995325 -0.028782574459910393 0.00432412326335907
v -0.002434654626995325 -0.028782574459910393 0.00432412326335907
v -0.0023591723293066025 -0.02656368538737297 -0.005138826090842485
v -0.0023591723293066025 -0.02656368538737297 -0.005138826090842485
v -0.002092089969664812 -0.012736719101667404 -0.03768980875611305
v -0.002092089969664812 -0.012736719101667404 -0.03768980875611305
v -0.002092089969664812 -0.012736719101667404 -0.03768980875611305
v -0.0020625432953238487 -0.010162767954170704 -0.04112791642546654
v -0.00204362696968019 -0.006288542412221432 -0.04298176243901253
v -0.00204362696968019 -0.006288542412221432 -0.04298176243901253
v -0.00204362696968019 -0.006288542412221432 -0.04298176243901253
v -0.002039649523794651 -0.001996257808059454 -0.04282904416322708
v -0.002039649523794651 -0.001996257808059454 -0.04282904416322708
v -0.002039649523794651 -0.001996257808059454 -0.04282904416322708
v -0.003126724623143673 0.0018466678448021412 0.008061197586357594
v -0.003126724623143673 0.0018466678448021412 0.008061197586357594
v -0.0031345654278993607 0.0005232479306869209 0.00887367594987154
v -0.0031345654278993607 0.0005232479306869209 0.00887367594987154
v -0.0031345654278993607 0.0005232479306869209 0.00887367594987154
v -0.0031367517076432705 -0.001029093167744577 0.008915645070374012
v -0.0031367517076432705 -0.001029093167744577 0.008915645070374012
v -0.0031367517076432705 -0.001029093167744577 0.008915645070374012
v -0.003132697893306613 -0.002394487150013447 0.008175821043550968
v -0.003132697893306613 -0.002394487150013447 0.008175821043550968
v -0.003132697893306613 -0.002394487150013447 0.008175821043550968
v -0.0031234901398420334 -0.003207024186849594 0.006852496415376663
v -0.0031234901398420334 -0.003207024186849594 0.006852496415376663
v -0.0031234901398420334 -0.003207024186849594 0.006852496415376663
v -0.003111595520749688 -0.003249006811529398 0.0053002010099589825
v -0.003111595520749688 -0.003249006811529398 0.0053002010099589825
v -0.003111595520749688 -0.003249006811529398 0.0053002010099589825
v -0.0031002007890492678 -0.0025091597344726324 0.003934870008379221
v -0.0031002007890492678 -0.0025091597344726324 0.003934870008379221
v -0.0031002007890492678 -0.0025091597344726324 0.003934870008379221
v -0.0030923604499548674 -0.0011857926147058606 0.0031224379781633615
v -0.0030923604499548674 -0.0011857926147058606 0.0031224379781633615
v -0.0030923604499548674 -0.0011857926147058606 0.0031224379781633615
v -0.0030901730060577393 0.0003665139083750546 0.0030803410336375237
v -0.0030901730060577393 0.0003665139083750546 0.0030803410336375237
v -0.0030901730060577393 0.0003665139083750546 0.0030803410336375237
v -0.0030942270532250404 0.0017319150501862168 0.003820158541202545
v -0.0030942270532250404 0.0017319150501862168 0.003820158541202545
v -0.0030942270532250404 0.0017319150501862168 0.003820158541202545
v -0.0031034357380121946 0.002544487826526165 0.0051436107605695724
v -0.0031034357380121946 0.002544487826526165 0.0051436107605695724
v -0.0031034357380121946 0.002544487826526165 0.0051436107605695724
v -0.00311533035710454 0.002586469054222107 0.006695907097309828
v -0.00311533035710454 0.002586469054222107 0.006695907097309828
v -0.00311533035710454 0.002586469054222107 0.006695907097309828
f 1 4 7
f 9 10 14
f 14 10 15
f 14 15 7
f 7 15 16
f 7 16 1
f 9 14 17
f 17 14 21
f 17 21 22
f 25 27 21
f 21 27 28
f 21 28 22
f 29 33 34
f 35 42 43
f 44 45 49
f 49 45 50
f 49 50 25
f 25 50 51
f 25 51 27
f 29 34 52
f 56 58 61
f 61 58 35
f 61 35 62
f 62 35 43
f 63 64 68
f 68 64 69
f 68 69 42
f 42 69 70
f 42 70 43
f 34 71 52
f 52 71 72
f 52 72 49
f 49 72 73
f 49 73 44
f 56 74 58
f 58 74 75
f 58 75 29
f 29 75 76
f 29 76 33
f 1 77 4
f 4 77 78
f 4 78 68
f 68 78 79
f 68 79 63
f 63 80 64
f 64 80 81
f 64 81 69
f 69 81 82
f 69 82 70
f 70 82 83
f 70 83 43
f 43 83 84
f 43 84 62
f 62 84 85
f 62 85 61
f 61 85 86
f 61 86 56
f 56 86 87
f 56 87 74
f 74 87 88
f 74 88 75
f 75 88 89
f 75 89 76
f 76 89 90
f 76 90 33
f 33 90 91
f 33 91 34
f 34 91 92
f 34 92 71
f 71 92 93
f 71 93 72
f 72 93 94
f 72 94 73
f 73 94 95
f 73 95 44
f 44 95 96
f 44 96 45
f 45 96 97
f 45 97 50
f 50 97 98
f 50 98 51
f 51 98 99
f 51 99 27
f 27 99 100
f 27 100 28
f 28 100 101
f 28 101 22
f 22 101 102
f 22 102 17
f 17 102 103
f 17 103 9
f 9 103 104
f 9 104 10
f 10 104 105
f 10 105 15
f 15 105 106
f 15 106 16
f 16 106 107
f 16 107 1
f 1 107 108
f 1 108 77
f 77 108 109
f 77 109 78
f 78 109 110
f 78 110 79
f 79 110 111
f 79 111 63
f 63 111 80
f 81 112 82
f 82 112 113
f 82 113 83
f 83 113 114
f 83 114 84
f 84 114 115
f 84 115 85
f 85 115 116
f 85 116 86
f 86 116 117
f 86 117 87
f 87 117 118
f 87 118 88
f 88 118 119
f 88 119 89
f 89 119 120
f 89 120 90
f 90 120 121
f 90 121 91
f 91 121 122
f 91 122 92
f 92 122 123
f 92 123 93
f 93 123 124
f 93 124 94
f 94 124 125
f 94 125 95
f 95 125 126
f 95 126 96
f 96 126 127
f 96 127 97
f 97 127 128
f 97 128 98
f 98 128 129
f 98 129 99
f 99 129 130
f 99 130 100
f 100 130 131
f 100 131 101
f 101 131 132
f 101 132 102
f 102 132 133
f 102 133 103
f 103 133 134
f 103 134 104
f 104 134 135
f 104 135 105
f 105 135 136
f 105 136 106
f 106 136 137
f 106 137 107
f 107 137 138
f 107 138 108
f 108 138 139
f 108 139 109
f 109 139 140
f 109 140 110
f 110 140 141
f 110 141 111
f 111 141 142
f 111 142 80
f 80 142 143
f 80 143 81
f 81 143 112
f 143 144 112
f 112 144 145
f 112 145 113
f 113 145 146
f 113 146 114
f 114 146 147
f 114 147 115
f 115 147 148
f 115 148 116
f 116 148 149
f 116 149 117
f 117 149 150
f 117 150 118
f 118 150 151
f 118 151 119
f 119 151 152
f 119 152 120
f 120 152 153
f 120 153 121
f 121 153 154
f 121 154 122
f 122 154 155
f 122 155 123
f 123 155 156
f 123 156 124
f 124 156 157
f 124 157 125
f 125 157 158
f 125 158 126
f 126 158 159
f 126 159 127
f 127 159 160
f 127 160 128
f 128 160 161
f 128 161 129
f 129 161 162
f 129 162 130
f 130 162 163
f 130 163 131
f 131 163 164
f 131 164 132
f 132 164 165
f 132 165 133
f 133 165 166
f 133 166 134
f 134 166 167
f 134 167 135
f 135 167 168
f 135 168 136
f 136 168 169
f 136 169 137
f 137 169 170
f 137 170 138
f 138 170 171
f 138 171 139
f 139 171 172
f 139 172 140
f 140 172 173
f 140 173 141
f 141 173 174
f 141 174 142
f 142 174 175
f 142 175 143
f 143 175 144
f 155 176 156
f 156 176 177
f 156 177 157
f 157 177 178
f 157 178 158
f 158 178 179
f 158 179 159
f 159 179 180
f 159 180 160
f 160 180 181
f 160 181 161
f 161 181 182
f 161 182 162
f 162 182 183
f 162 183 163
f 183 184 163
f 163 184 185
f 163 185 164
f 164 185 186
f 164 186 165
f 165 186 187
f 165 187 166
f 166 187 188
f 166 188 167
f 167 188 189
f 167 189 168
f 168 189 190
f 168 190 169
f 169 190 191
f 169 191 170
f 170 191 192
f 170 192 171
f 147 193 148
f 148 193 194
f 148 194 149
f 149 194 195
f 149 195 150
f 150 195 196
f 150 196 151
f 151 196 197
f 151 197 152
f 152 197 198
f 152 198 153
f 153 198 199
f 153 199 154
f 154 199 200
f 154 200 155
f 155 200 201
f 155 201 176
f 192 202 171
f 171 202 203
f 171 203 172
f 172 203 204
f 172 204 173
f 173 204 205
f 173 205 174
f 174 205 206
f 174 206 175
f 175 206 207
f 175 207 144
f 144 207 208
f 144 208 145
f 145 208 209
f 145 209 146
f 146 209 210
f 146 210 147
f 147 210 211
f 147 211 193
f 207 213 208
f 208 213 214
f 208 214 209
f 209 214 216
f 209 216 210
f 210 216 218
f 210 218 211
f 211 218 220
f 211 220 193
f 193 220 222
f 193 222 194
f 194 222 224
f 194 224 195
f 195 224 226
f 195 226 196
f 196 226 228
f 196 228 197
f 197 228 230
f 197 230 198
f 198 230 233
f 198 233 199
f 199 233 234
f 199 234 200
f 200 234 237
f 200 237 201
f 201 237 239
f 201 239 176
f 176 239 241
f 176 241 177
f 177 241 243
f 177 243 178
f 178 243 244
f 178 244 179
f 179 244 246
f 179 246 180
f 180 246 248
f 180 248 181
f 181 248 251
f 181 251 182
f 182 251 253
f 182 253 183
f 183 253 254
f 183 254 184
f 184 254 256
f 184 256 185
f 185 256 258
f 185 258 186
f 186 258 260
f 186 260 187
f 187 260 262
f 187 262 188
f 188 262 264
f 188 264 189
f 189 264 266
f 189 266 190
f 190 266 268
f 190 268 191
f 191 268 270
f 191 270 192
f 192 270 272
f 192 272 202
f 202 272 275
f 202 275 203
f 203 275 276
f 203 276 204
f 204 276 279
f 204 279 205
f 205 279 280
f 205 280 206
f 206 280 283
f 206 283 207
f 207 283 213
f 284 285 286
f 287 288 289
f 289 288 290
f 289 290 291
f 286 285 288
f 288 285 292
f 288 292 290
f 289 293 287
f 287 293 294
f 287 294 295
f 295 294 296
f 295 296 297
f 286 298 284
f 284 298 299
f 284 299 300
f 300 299 301
f 302 295 303
f 303 295 297
f 303 297 304
f 304 297 305
f 306 307 308
f 308 307 301
f 308 301 309
f 309 301 299
f 285 310 292
f 292 310 313
f 292 313 290
f 290 313 315
f 290 315 291
f 291 315 316
f 291 316 289
f 289 316 318
f 311 320 312
f 312 320 321
f 312 321 314
f 314 321 322
f 314 322 317
f 317 322 323
f 317 323 319
f 319 323 324
f 285 284 310
f 310 284 325
f 311 326 320
f 320 326 327
f 328 330 331
f 298 329 332
f 329 331 332
f 332 331 333
f 332 333 334
f 334 333 335
f 334 335 336
f 335 337 336
f 336 337 338
f 336 338 339
f 339 338 340
f 339 340 341
f 341 340 342
f 341 342 343
f 343 342 344
f 343 344 345
f 345 344 327
f 345 327 326
f 298 332 299
f 299 332 334
f 299 334 309
f 309 334 336
f 309 336 308
f 308 336 339
f 308 339 306
f 306 339 341
f 306 341 307
f 307 341 343
f 307 343 301
f 301 343 345
f 301 345 300
f 300 345 325
f 300 325 284
f 329 298 347
f 347 298 286
f 347 286 348
f 348 286 288
f 348 288 351
f 351 288 287
f 330 328 354
f 354 328 346
f 354 346 355
f 355 346 350
f 355 350 356
f 356 353 358
f 359 360 361
f 293 359 362
f 359 361 362
f 362 361 363
f 362 363 364
f 364 363 365
f 364 365 366
f 366 365 367
f 366 367 368
f 368 367 369
f 368 369 370
f 370 369 371
f 370 371 372
f 372 371 373
f 372 373 374
f 374 373 375
f 374 375 376
f 376 375 358
f 376 358 353
f 293 362 294
f 294 362 364
f 294 364 296
f 296 364 366
f 296 366 297
f 297 366 368
f 297 368 305
f 305 368 370
f 305 370 304
f 304 370 372
f 304 372 303
f 303 372 374
f 303 374 302
f 302 374 376
f 302 376 295
f 295 376 351
f 295 351 287
f 293 289 359
f 359 289 318
f 359 319 360
f 360 319 324
f 320 377 321
f 321 377 378
f 321 378 322
f 322 378 379
f 322 379 323
f 323 379 380
f 323 380 324
f 324 380 381
f 377 320 382
f 382 320 327
f 337 335 383
f 330 384 331
f 331 384 333
f 385 386 387
f 387 386 382
f 327 344 382
f 382 344 342
f 382 342 387
f 387 342 340
f 387 340 383
f 383 340 338
f 383 338 337
f 333 384 335
f 335 384 388
f 335 388 383
f 383 388 389
f 383 389 390
f 385 387 391
f 391 387 383
f 391 383 392
f 392 383 390
f 392 390 393
f 356 358 394
f 394 358 395
f 394 395 396
f 384 330 397
f 397 330 354
f 397 354 394
f 394 354 355
f 394 355 356
f 398 399 400
f 365 363 400
f 361 360 402
f 361 402 363
f 365 401 367
f 375 373 403
f 403 373 371
f 403 371 369
f 404 405 403
f 358 375 395
f 395 375 403
f 395 403 396
f 396 403 405
f 406 407 408
f 408 407 409
f 410 406 411
f 411 406 408
f 411 408 399
f 399 408 403
f 399 403 401
f 401 403 369
f 401 369 367
f 404 403 412
f 412 403 408
f 412 408 413
f 413 408 409
f 413 409 414
f 363 402 400
f 400 402 415
f 400 415 398
f 360 324 402
f 402 324 381
f 402 381 415
f 416 417 419
f 418 381 380
f 418 380 420
f 420 380 379
f 420 379 421
f 421 379 378
f 421 378 424
f 424 378 377
f 424 377 425
f 416 419 426
f 426 419 422
f 426 422 427
f 427 422 423
f 427 423 428
f 428 423 425
f 428 425 429
f 430 429 425
f 430 425 431
f 431 425 377
f 431 377 382
f 432 434 435
f 384 433 436
f 432 435 437
f 437 435 438
f 436 438 439
f 439 438 440
f 439 440 441
f 441 440 442
f 441 442 443
f 443 442 444
f 443 444 445
f 445 444 446
f 445 446 447
f 447 446 448
f 447 448 449
f 449 448 450
f 449 450 451
f 451 450 430
f 451 430 431
f 384 436 388
f 388 436 439
f 388 439 389
f 389 439 441
f 389 441 390
f 390 441 443
f 390 443 393
f 393 443 445
f 393 445 392
f 392 445 447
f 392 447 391
f 391 447 449
f 391 449 385
f 385 449 451
f 385 451 386
f 386 451 431
f 386 431 382
f 396 452 453
f 452 455 456
f 452 456 454
f 454 456 457
f 454 457 459
f 459 457 434
f 459 434 432
f 396 453 394
f 394 453 458
f 394 458 397
f 397 458 433
f 397 433 384
f 460 461 462
f 460 462 463
f 463 462 465
f 464 465 466
f 466 465 467
f 466 467 468
f 468 467 469
f 468 469 470
f 470 469 471
f 470 471 472
f 472 471 473
f 472 473 474
f 474 473 475
f 474 475 476
f 476 475 477
f 476 477 478
f 478 477 479
f 478 479 480
f 480 414 478
f 478 414 409
f 478 409 476
f 476 409 407
f 476 407 474
f 474 407 406
f 474 406 472
f 472 406 410
f 472 410 470
f 470 410 411
f 470 411 468
f 468 411 399
f 468 399 466
f 466 399 398
f 466 398 464
f 464 398 415
f 464 415 460
f 404 412 480
f 480 412 413
f 480 413 414
f 481 482 483
f 481 483 484
f 484 483 455
f 484 455 452
f 479 482 480
f 480 482 481
f 480 481 404
f 404 481 484
f 404 484 405
f 405 484 452
f 405 452 396
f 416 461 460
f 416 460 417
f 417 460 415
f 417 415 381
f 471 469 485
f 485 469 467
f 485 461 486
f 486 461 416
f 486 416 487
f 487 416 426
f 487 426 488
f 488 426 489
f 489 426 427
f 489 427 490
f 490 427 491
f 491 427 428
f 491 428 492
f 467 465 485
f 485 465 462
f 485 462 461
f 493 448 446
f 446 444 493
f 493 444 442
f 493 442 494
f 494 442 495
f 495 442 440
f 495 440 496
f 492 428 497
f 497 428 429
f 497 429 498
f 498 429 430
f 498 430 493
f 493 430 450
f 493 450 448
f 499 500 501
f 471 485 473
f 473 485 502
f 473 502 503
f 500 499 504
f 504 499 505
f 504 505 506
f 503 499 473
f 473 499 501
f 473 501 475
f 475 501 507
f 475 507 477
f 477 507 508
f 509 482 508
f 508 482 479
f 508 479 477
f 440 438 496
f 496 438 435
f 496 435 510
f 510 435 434
f 510 434 511
f 511 434 457
f 511 457 512
f 512 457 456
f 512 456 513
f 513 456 455
f 513 455 509
f 509 455 483
f 509 483 482
f 514 515 517
f 516 486 487
f 516 487 518
f 518 487 488
f 518 488 520
f 520 488 489
f 520 489 522
f 522 489 490
f 522 490 523
f 523 490 491
f 523 491 526
f 526 491 492
f 526 492 528
f 528 492 497
f 528 497 530
f 530 497 498
f 530 498 531
f 514 517 532
f 532 517 519
f 532 519 533
f 533 519 521
f 533 521 534
f 534 521 524
f 534 524 535
f 535 524 525
f 535 525 536
f 536 525 527
f 536 527 537
f 537 527 529
f 537 529 538
f 538 529 531
f 538 531 539
f 498 493 531
f 531 493 540
f 531 540 539
f 539 540 541
f 539 541 542
f 542 541 543
f 543 541 540
f 543 540 545
f 544 540 493
f 544 493 547
f 542 543 548
f 548 543 545
f 548 545 549
f 549 545 546
f 549 546 550
f 547 493 551
f 551 493 494
f 551 494 553
f 553 494 495
f 553 495 555
f 555 495 496
f 555 496 557
f 557 496 510
f 557 510 560
f 560 510 511
f 560 511 562
f 562 511 512
f 562 512 564
f 564 512 513
f 564 513 566
f 566 513 509
f 566 509 567
f 567 509 508
f 567 508 569
f 569 508 507
f 569 507 572
f 572 507 501
f 572 501 574
f 574 501 500
f 574 500 576
f 576 500 504
f 576 504 577
f 577 504 506
f 550 546 578
f 578 546 552
f 578 552 579
f 579 552 554
f 579 554 580
f 580 554 556
f 580 556 581
f 581 556 558
f 581 558 582
f 582 558 559
f 582 559 583
f 583 559 561
f 583 561 584
f 584 561 563
f 584 563 585
f 585 563 565
f 585 565 586
f 586 565 568
f 586 568 587
f 587 568 570
f 587 570 588
f 588 570 571
f 588 571 589
f 589 571 573
f 589 573 590
f 590 573 575
f 590 575 591
f 591 575 577
f 591 577 592
f 593 594 595
f 595 594 596
f 595 596 592
f 592 596 597
f 592 597 591
f 593 595 598
f 598 595 592
f 598 592 599
f 599 592 577
f 599 577 506
f 282 600 212
f 212 600 601
f 212 601 215
f 215 601 602
f 215 602 217
f 217 602 603
f 217 603 219
f 219 603 604
f 219 604 221
f 221 604 605
f 221 605 223
f 223 605 606
f 223 606 225
f 225 606 607
f 225 607 227
f 227 607 608
f 227 608 229
f 229 608 609
f 229 609 231
f 231 609 610
f 231 610 232
f 232 610 611
f 232 611 235
f 235 611 612
f 235 612 236
f 236 612 613
f 236 613 238
f 238 613 614
f 238 614 240
f 240 614 615
f 240 615 242
f 242 615 616
f 242 616 245
f 245 616 617
f 245 617 247
f 247 617 618
f 247 618 249
f 249 618 619
f 249 619 250
f 250 619 620
f 250 620 252
f 252 620 621
f 252 621 255
f 255 621 622
f 255 622 257
f 257 622 623
f 257 623 259
f 259 623 624
f 259 624 261
f 261 624 625
f 261 625 263
f 263 625 626
f 263 626 265
f 265 626 627
f 265 627 267
f 267 627 628
f 267 628 269
f 269 628 629
f 269 629 271
f 271 629 630
f 271 630 273
f 273 630 631
f 273 631 274
f 274 631 632
f 274 632 277
f 277 632 633
f 277 633 278
f 278 633 634
f 278 634 281
f 281 634 635
f 281 635 282
f 282 635 600
f 505 636 506
f 506 636 599
f 599 637 598
f 598 637 638
f 598 638 593
f 638 637 640
f 636 505 499
f 636 499 639
f 639 499 503
f 639 503 642
f 642 503 502
f 642 502 643
f 643 502 485
f 643 485 645
f 638 640 646
f 646 640 641
f 646 641 647
f 647 641 644
f 647 644 648
f 648 644 645
f 648 645 649
f 485 486 516
f 485 516 645
f 645 516 514
f 645 514 649
f 539 650 538
f 538 650 651
f 538 651 537
f 537 651 652
f 537 652 536
f 536 652 653
f 536 653 535
f 535 653 654
f 535 654 534
f 534 654 655
f 534 655 533
f 533 655 656
f 533 656 532
f 532 656 657
f 532 657 514
f 514 657 658
f 542 659 539
f 539 659 650
f 631 596 632
f 632 596 594
f 632 594 593
f 593 660 632
f 632 660 661
f 632 661 633
f 616 550 617
f 617 550 578
f 617 578 618
f 618 578 579
f 618 579 619
f 619 579 580
f 619 580 620
f 620 580 581
f 620 581 621
f 621 581 582
f 621 582 622
f 622 582 583
f 622 583 623
f 623 583 584
f 623 584 624
f 624 584 585
f 624 585 625
f 625 585 586
f 625 586 626
f 626 586 587
f 626 587 627
f 627 587 588
f 627 588 628
f 628 588 589
f 628 589 629
f 629 589 590
f 629 590 630
f 630 590 591
f 630 591 631
f 631 591 597
f 631 597 596
f 614 542 615
f 615 542 548
f 615 548 616
f 616 548 549
f 616 549 550
f 635 662 600
f 600 662 663
f 600 663 601
f 663 664 601
f 601 664 665
f 601 665 602
f 602 665 666
f 602 666 603
f 666 667 603
f 603 667 668
f 603 668 604
f 604 668 669
f 604 669 605
f 669 670 605
f 605 670 671
f 605 671 606
f 606 671 672
f 606 672 607
f 672 673 607
f 607 673 674
f 607 674 608
f 608 674 675
f 608 675 609
f 675 676 609
f 609 676 677
f 609 677 610
f 610 677 678
f 610 678 611
f 659 542 679
f 679 542 614
f 679 614 680
f 680 614 613
f 680 613 681
f 681 613 612
f 681 612 682
f 682 612 611
f 682 611 683
f 683 611 678
f 661 684 633
f 633 684 685
f 633 685 634
f 634 685 686
f 634 686 635
f 635 686 687
f 635 687 662
f 660 593 688
f 688 593 638
f 649 689 648
f 648 689 690
f 648 690 647
f 647 690 691
f 647 691 646
f 646 691 692
f 646 692 638
f 638 692 688
f 514 658 649
f 649 658 689
f 650 693 694
f 693 695 697
f 693 697 694
f 694 697 698
f 694 698 700
f 700 698 701
f 700 701 702
f 702 701 703
f 702 703 704
f 704 703 706
f 704 707 708
f 708 707 710
f 708 710 711
f 711 710 714
f 711 713 715
f 715 713 716
f 715 716 718
f 650 694 651
f 651 694 700
f 651 700 652
f 652 700 702
f 652 702 653
f 653 702 704
f 653 704 654
f 654 704 708
f 654 708 655
f 655 708 711
f 655 711 656
f 656 711 715
f 656 715 657
f 657 715 718
f 657 718 658
f 719 695 693
f 719 693 720
f 720 693 650
f 720 650 659
f 721 722 723
f 721 725 660
f 660 725 661
f 661 725 684
f 684 725 726
f 684 726 685
f 685 726 727
f 685 727 686
f 686 727 687
f 687 727 728
f 687 728 662
f 662 728 729
f 662 729 663
f 663 729 664
f 664 729 730
f 664 730 665
f 665 730 731
f 665 731 666
f 666 731 667
f 667 731 732
f 667 732 668
f 668 732 733
f 668 733 669
f 669 733 670
f 670 733 734
f 670 734 671
f 671 734 735
f 671 735 672
f 672 735 673
f 673 735 736
f 673 736 674
f 674 736 737
f 674 737 675
f 675 737 676
f 676 737 738
f 676 738 677
f 677 738 739
f 677 739 678
f 721 723 725
f 725 723 740
f 725 740 726
f 726 740 742
f 726 742 727
f 727 742 743
f 727 743 728
f 728 743 745
f 728 745 729
f 729 745 746
f 729 746 730
f 730 746 747
f 730 747 731
f 731 747 749
f 731 749 732
f 732 749 751
f 732 751 733
f 733 751 752
f 733 752 734
f 734 752 754
f 734 754 735
f 735 754 755
f 735 755 736
f 736 755 756
f 736 756 737
f 737 756 758
f 737 758 738
f 738 758 759
f 738 759 739
f 739 759 761
f 739 761 762
f 762 761 764
f 762 764 765
f 765 764 766
f 765 766 767
f 767 766 768
f 767 768 770
f 770 768 719
f 770 719 720
f 678 739 683
f 683 739 762
f 683 762 682
f 682 762 765
f 682 765 681
f 681 765 767
f 681 767 680
f 680 767 770
f 680 770 679
f 679 770 720
f 679 720 659
f 771 722 721
f 771 721 772
f 772 721 660
f 772 660 688
f 689 773 774
f 773 775 776
f 773 776 774
f 774 776 778
f 774 778 779
f 779 778 780
f 779 780 782
f 782 780 771
f 782 771 772
f 689 774 690
f 690 774 779
f 690 779 691
f 691 779 782
f 691 782 692
f 692 782 772
f 692 772 688
f 716 775 773
f 716 773 718
f 718 773 689
f 718 689 658
f 716 783 775
f 775 783 785
f 775 785 776
f 776 788 778
f 778 788 780
f 780 789 771
f 771 789 722
f 722 789 792
f 722 792 723
f 723 794 740
f 740 794 742
f 742 796 743
f 743 796 745
f 745 801 746
f 746 801 747
f 747 802 749
f 749 802 751
f 751 807 752
f 752 807 754
f 754 808 755
f 755 808 756
f 756 811 758
f 758 811 759
f 759 814 761
f 761 814 764
f 764 819 766
f 766 819 768
f 768 821 719
f 719 821 695
f 695 821 823
f 697 695 823
f 698 822 825
f 698 825 701
f 701 825 827
f 701 827 703
f 829 783 716
f 830 714 710
f 830 710 828
f 827 706 703
f 357 349 352
f 777 784 786
f 781 787 790
f 724 791 793
f 741 795 798
f 744 797 800
f 748 799 804
f 750 803 806
f 753 805 810
f 757 809 812
f 760 813 816
f 763 815 818
f 769 817 820
f 696 824 699
f 717 712 831
f 826 709 705
f 833 65 834
f 835 66 39
f 836 40 839
f 838 41 36
f 837 37 841
f 842 38 57
f 840 59 845
f 844 60 30
f 843 31 848
f 847 32 55
f 846 54 850
f 851 53 48
f 849 47 852
f 854 46 23
f 853 24 855
f 856 26 18
f 857 19 860
f 858 20 12
f 859 11 862
f 861 13 6
f 863 5 864
f 865 8 2
f 866 3 832
f 832 3 67
