mtllib converted_link2_15_d12626ff.mtl
usemtl material
v -0.00011715159780578688 0.00020236462296452373 5.0010159611701965e-05
v -0.00011715159780578688 0.00020236462296452373 5.0010159611701965e-05
v -0.00011715159780578688 0.00020236462296452373 5.0010159611701965e-05
v -0.00011715159780578688 0.00020236462296452373 -5.0010159611701965e-05
v -0.00011715159780578688 0.00020236462296452373 -5.0010159611701965e-05
v -0.00011715159780578688 0.00020236462296452373 -5.0010159611701965e-05
v -0.00014325842494145036 0.00018478497804608196 -5.0010159611701965e-05
v -0.00014325842494145036 0.00018478497804608196 -5.0010159611701965e-05
v -0.00014325842494145036 0.00018478497804608196 5.0010159611701965e-05
v -0.00014325842494145036 0.00018478497804608196 5.0010159611701965e-05
v -0.00014325842494145036 0.00018478497804608196 5.0010159611701965e-05
v -0.00016605720156803727 0.0001642753923078999 -5.0010159611701965e-05
v -0.00016605720156803727 0.0001642753923078999 -5.0010159611701965e-05
v -0.00016605720156803727 0.0001642753923078999 5.0010159611701965e-05
v -0.00016605720156803727 0.0001642753923078999 5.0010159611701965e-05
v -0.00016605720156803727 0.0001642753923078999 5.0010159611701965e-05
v -0.00018596515292301774 0.00014073528291191906 -5.0010159611701965e-05
v -0.00018596515292301774 0.00014073528291191906 -5.0010159611701965e-05
v -0.00018596515292301774 0.00014073528291191906 -5.0010159611701965e-05
v -0.00018596515292301774 0.00014073528291191906 5.0010159611701965e-05
v -0.00018596515292301774 0.00014073528291191906 5.0010159611701965e-05
v -0.00018596515292301774 0.00014073528291191906 5.0010159611701965e-05
v -0.00020256504649296403 0.00011450552119640633 -5.0010159611701965e-05
v -0.00020256504649296403 0.00011450552119640633 -5.0010159611701965e-05
v -0.00020256504649296403 0.00011450552119640633 -5.0010159611701965e-05
v -0.00020256504649296403 0.00011450552119640633 5.0010159611701965e-05
v -0.00020256504649296403 0.00011450552119640633 5.0010159611701965e-05
v -0.00020256504649296403 0.00011450552119640633 5.0010159611701965e-05
v -0.0002154694520868361 8.595489634899423e-05 -5.0010159611701965e-05
v -0.0002154694520868361 8.595489634899423e-05 -5.0010159611701965e-05
v -0.0002154694520868361 8.595489634899423e-05 -5.0010159611701965e-05
v -0.0002154694520868361 8.595489634899423e-05 5.0010159611701965e-05
v -0.0002154694520868361 8.595489634899423e-05 5.0010159611701965e-05
v -0.0002154694520868361 8.595489634899423e-05 5.0010159611701965e-05
v -0.00022446975344792008 5.5565837101312354e-05 -5.0010159611701965e-05
v -0.00022446975344792008 5.5565837101312354e-05 -5.0010159611701965e-05
v -0.00022446975344792008 5.5565837101312354e-05 -5.0010159611701965e-05
v -0.00022446975344792008 5.5565837101312354e-05 5.0010159611701965e-05
v -0.00022446975344792008 5.5565837101312354e-05 5.0010159611701965e-05
v -0.00022446975344792008 5.5565837101312354e-05 5.0010159611701965e-05
v -0.00022914871806278825 2.414487607893534e-05 -5.0010159611701965e-05
v -0.00022914871806278825 2.414487607893534e-05 -5.0010159611701965e-05
v -0.00022914871806278825 2.414487607893534e-05 -5.0010159611701965e-05
v -0.00022914871806278825 2.414487607893534e-05 5.0010159611701965e-05
v -0.00022914871806278825 2.414487607893534e-05 5.0010159611701965e-05
v -0.00022914871806278825 2.414487607893534e-05 5.0010159611701965e-05
v -0.0002294467412866652 -7.674690095882397e-06 -5.0010159611701965e-05
v -0.0002294467412866652 -7.674690095882397e-06 -5.0010159611701965e-05
v -0.0002294467412866652 -7.674690095882397e-06 -5.0010159611701965e-05
v -0.0002294467412866652 -7.674690095882397e-06 5.0010159611701965e-05
v -0.0002294467412866652 -7.674690095882397e-06 5.0010159611701965e-05
v -0.0002294467412866652 -7.674690095882397e-06 5.0010159611701965e-05
v -0.00022515520686283708 -3.9155256672529504e-05 -5.0010159611701965e-05
v -0.00022515520686283708 -3.9155256672529504e-05 -5.0010159611701965e-05
v -0.00022515520686283708 -3.9155256672529504e-05 5.0010159611701965e-05
v -0.00022515520686283708 -3.9155256672529504e-05 5.0010159611701965e-05
v -0.00021645292872563004 -6.972498522372916e-05 -5.0010159611701965e-05
v -0.00021645292872563004 -6.972498522372916e-05 -5.0010159611701965e-05
v -0.00021645292872563004 -6.972498522372916e-05 -5.0010159611701965e-05
v -0.00021645292872563004 -6.972498522372916e-05 -5.0010159611701965e-05
v -0.00021645292872563004 -6.972498522372916e-05 -5.0010159611701965e-05
v -0.00021645292872563004 -6.972498522372916e-05 -5.0010159611701965e-05
v -0.00021645292872563004 -6.972498522372916e-05 5.0010159611701965e-05
v -0.00021645292872563004 -6.972498522372916e-05 5.0010159611701965e-05
v -0.00021645292872563004 -6.972498522372916e-05 5.0010159611701965e-05
v -0.00021645292872563004 -6.972498522372916e-05 5.0010159611701965e-05
v -0.00021645292872563004 -6.972498522372916e-05 5.0010159611701965e-05
v -0.00021645292872563004 -6.972498522372916e-05 5.0010159611701965e-05
v -0.00021645292872563004 -6.972498522372916e-05 5.0010159611701965e-05
v -0.00021645292872563004 -6.972498522372916e-05 5.0010159611701965e-05
v -0.0002046512090601027 -9.678549395175651e-05 -5.0010159611701965e-05
v -0.0002046512090601027 -9.678549395175651e-05 -5.0010159611701965e-05
v -0.0002046512090601027 -9.678549395175651e-05 -5.0010159611701965e-05
v -0.0002046512090601027 -9.678549395175651e-05 -5.0010159611701965e-05
v -0.0002046512090601027 -9.678549395175651e-05 -5.0010159611701965e-05
v -0.0002046512090601027 -9.678549395175651e-05 -5.0010159611701965e-05
v -0.0002046512090601027 -9.678549395175651e-05 -5.0010159611701965e-05
v -0.0002046512090601027 -9.678549395175651e-05 -5.0010159611701965e-05
v -0.0002046512090601027 -9.678549395175651e-05 -5.0010159611701965e-05
v -0.0002046512090601027 -9.678549395175651e-05 -5.0010159611701965e-05
v -0.0002046512090601027 -9.678549395175651e-05 5.0010159611701965e-05
v -0.0002046512090601027 -9.678549395175651e-05 5.0010159611701965e-05
v -0.0002046512090601027 -9.678549395175651e-05 5.0010159611701965e-05
v -0.0002046512090601027 -9.678549395175651e-05 5.0010159611701965e-05
v -0.0002046512090601027 -9.678549395175651e-05 5.0010159611701965e-05
v -0.0002046512090601027 -9.678549395175651e-05 5.0010159611701965e-05
v -0.0002046512090601027 -9.678549395175651e-05 5.0010159611701965e-05
v -0.0002046512090601027 -9.678549395175651e-05 5.0010159611701965e-05
v -0.0002046512090601027 -9.678549395175651e-05 5.0010159611701965e-05
v -0.0002046512090601027 -9.678549395175651e-05 5.0010159611701965e-05
v -0.0002046512090601027 -9.678549395175651e-05 5.0010159611701965e-05
v -0.0002046512090601027 -9.678549395175651e-05 5.0010159611701965e-05
v -0.00019976362818852067 -0.00010566472337814048 -5.0010159611701965e-05
v -0.00019976362818852067 -0.00010566472337814048 -5.0010159611701965e-05
v -0.00019976362818852067 -0.00010566472337814048 -5.0010159611701965e-05
v -0.00019976362818852067 -0.00010566472337814048 5.0010159611701965e-05
v -0.00019976362818852067 -0.00010566472337814048 5.0010159611701965e-05
v -0.00019976362818852067 -0.00010566472337814048 5.0010159611701965e-05
v -0.00019976362818852067 -0.00010566472337814048 5.0010159611701965e-05
v -0.0001913593732751906 -0.0001200946353492327 5.0010159611701965e-05
v -0.0001913593732751906 -0.0001200946353492327 5.0010159611701965e-05
v -0.0001913593732751906 -0.0001200946353492327 5.0010159611701965e-05
v -0.0001913593732751906 -0.0001200946353492327 5.0010159611701965e-05
v -0.0001913593732751906 -0.0001200946353492327 -5.0010159611701965e-05
v -0.0001913593732751906 -0.0001200946353492327 -5.0010159611701965e-05
v -0.0001913593732751906 -0.0001200946353492327 -5.0010159611701965e-05
v -0.0001913593732751906 -0.0001200946353492327 -5.0010159611701965e-05
v -0.00017386541003361344 -0.00014620520232710987 -5.0010159611701965e-05
v -0.00017386541003361344 -0.00014620520232710987 -5.0010159611701965e-05
v -0.00017386541003361344 -0.00014620520232710987 -5.0010159611701965e-05
v -0.00017386541003361344 -0.00014620520232710987 5.0010159611701965e-05
v -0.00017386541003361344 -0.00014620520232710987 5.0010159611701965e-05
v -0.00017386541003361344 -0.00014620520232710987 5.0010159611701965e-05
v -0.00015345081919804215 -0.0001689741766313091 -5.0010159611701965e-05
v -0.00015345081919804215 -0.0001689741766313091 -5.0010159611701965e-05
v -0.00015345081919804215 -0.0001689741766313091 -5.0010159611701965e-05
v -0.00015345081919804215 -0.0001689741766313091 5.0010159611701965e-05
v -0.00015345081919804215 -0.0001689741766313091 5.0010159611701965e-05
v -0.00015345081919804215 -0.0001689741766313091 5.0010159611701965e-05
v -0.00013014540309086442 -0.00018869400082621723 -5.0010159611701965e-05
v -0.00013014540309086442 -0.00018869400082621723 -5.0010159611701965e-05
v -0.00013014540309086442 -0.00018869400082621723 -5.0010159611701965e-05
v -0.00013014540309086442 -0.00018869400082621723 5.0010159611701965e-05
v -0.00013014540309086442 -0.00018869400082621723 5.0010159611701965e-05
v -0.00013014540309086442 -0.00018869400082621723 5.0010159611701965e-05
v -0.00010436640150146559 -0.00020503498672042042 -5.0010159611701965e-05
v -0.00010436640150146559 -0.00020503498672042042 -5.0010159611701965e-05
v -0.00010436640150146559 -0.00020503498672042042 -5.0010159611701965e-05
v -0.00010436640150146559 -0.00020503498672042042 5.0010159611701965e-05
v -0.00010436640150146559 -0.00020503498672042042 5.0010159611701965e-05
v -0.00010436640150146559 -0.00020503498672042042 5.0010159611701965e-05
v -7.605419523315504e-05 -0.0002178443974116817 -5.0010159611701965e-05
v -7.605419523315504e-05 -0.0002178443974116817 -5.0010159611701965e-05
v -7.605419523315504e-05 -0.0002178443974116817 -5.0010159611701965e-05
v -7.605419523315504e-05 -0.0002178443974116817 5.0010159611701965e-05
v -7.605419523315504e-05 -0.0002178443974116817 5.0010159611701965e-05
v -7.605419523315504e-05 -0.0002178443974116817 5.0010159611701965e-05
v -5.435810089693405e-05 -0.00022475481091532856 -5.0010159611701965e-05
v -5.435810089693405e-05 -0.00022475481091532856 -5.0010159611701965e-05
v -5.435810089693405e-05 -0.00022475481091532856 -5.0010159611701965e-05
v -5.435810089693405e-05 -0.00022475481091532856 5.0010159611701965e-05
v -5.435810089693405e-05 -0.00022475481091532856 5.0010159611701965e-05
v -5.435810089693405e-05 -0.00022475481091532856 5.0010159611701965e-05
v -2.375111580477096e-05 -0.00023095555661711842 -5.0010159611701965e-05
v -2.375111580477096e-05 -0.00023095555661711842 -5.0010159611701965e-05
v -2.375111580477096e-05 -0.00023095555661711842 -5.0010159611701965e-05
v -2.375111580477096e-05 -0.00023095555661711842 5.0010159611701965e-05
v -2.375111580477096e-05 -0.00023095555661711842 5.0010159611701965e-05
v -2.375111580477096e-05 -0.00023095555661711842 5.0010159611701965e-05
v 7.541322247561766e-06 -0.00023274555860552937 -5.0010159611701965e-05
v 7.541322247561766e-06 -0.00023274555860552937 -5.0010159611701965e-05
v 7.541322247561766e-06 -0.00023274555860552937 -5.0010159611701965e-05
v 7.541322247561766e-06 -0.00023274555860552937 5.0010159611701965e-05
v 7.541322247561766e-06 -0.00023274555860552937 5.0010159611701965e-05
v 7.541322247561766e-06 -0.00023274555860552937 5.0010159611701965e-05
v 3.8833761209389195e-05 -0.0002301248168805614 -5.0010159611701965e-05
v 3.8833761209389195e-05 -0.0002301248168805614 -5.0010159611701965e-05
v 3.8833761209389195e-05 -0.0002301248168805614 -5.0010159611701965e-05
v 3.8833761209389195e-05 -0.0002301248168805614 5.0010159611701965e-05
v 3.8833761209389195e-05 -0.0002301248168805614 5.0010159611701965e-05
v 3.8833761209389195e-05 -0.0002301248168805614 5.0010159611701965e-05
v 6.973876588745043e-05 -0.0002230355894425884 -5.0010159611701965e-05
v 6.973876588745043e-05 -0.0002230355894425884 -5.0010159611701965e-05
v 6.973876588745043e-05 -0.0002230355894425884 -5.0010159611701965e-05
v 6.973876588745043e-05 -0.0002230355894425884 5.0010159611701965e-05
v 6.973876588745043e-05 -0.0002230355894425884 5.0010159611701965e-05
v 6.973876588745043e-05 -0.0002230355894425884 5.0010159611701965e-05
v 9.954108827514574e-05 -0.00021158404706511647 -5.0010159611701965e-05
v 9.954108827514574e-05 -0.00021158404706511647 -5.0010159611701965e-05
v 9.954108827514574e-05 -0.00021158404706511647 -5.0010159611701965e-05
v 9.954108827514574e-05 -0.00021158404706511647 5.0010159611701965e-05
v 9.954108827514574e-05 -0.00021158404706511647 5.0010159611701965e-05
v 9.954108827514574e-05 -0.00021158404706511647 5.0010159611701965e-05
v 0.00011664762132568285 -0.0002026452129939571 -5.0010159611701965e-05
v 0.00011664762132568285 -0.0002026452129939571 -5.0010159611701965e-05
v 0.00011664762132568285 -0.0002026452129939571 -5.0010159611701965e-05
v 0.00011664762132568285 -0.0002026452129939571 -5.0010159611701965e-05
v 0.00011664762132568285 -0.0002026452129939571 5.0010159611701965e-05
v 0.00011664762132568285 -0.0002026452129939571 5.0010159611701965e-05
v 0.00014293327694758773 -0.00018494449614081532 -5.0010159611701965e-05
v 0.00014293327694758773 -0.00018494449614081532 -5.0010159611701965e-05
v 0.00014293327694758773 -0.00018494449614081532 -5.0010159611701965e-05
v 0.00014293327694758773 -0.00018494449614081532 5.0010159611701965e-05
v 0.00014293327694758773 -0.00018494449614081532 5.0010159611701965e-05
v 0.00014293327694758773 -0.00018494449614081532 5.0010159611701965e-05
v 0.0001659406698308885 -0.00016426540969405323 -5.0010159611701965e-05
v 0.0001659406698308885 -0.00016426540969405323 -5.0010159611701965e-05
v 0.0001659406698308885 -0.00016426540969405323 5.0010159611701965e-05
v 0.0001659406698308885 -0.00016426540969405323 5.0010159611701965e-05
v 0.0001659406698308885 -0.00016426540969405323 5.0010159611701965e-05
v 0.00018593802815303206 -0.00014059491513762623 -5.0010159611701965e-05
v 0.00018593802815303206 -0.00014059491513762623 -5.0010159611701965e-05
v 0.00018593802815303206 -0.00014059491513762623 5.0010159611701965e-05
v 0.00018593802815303206 -0.00014059491513762623 5.0010159611701965e-05
v 0.00018593802815303206 -0.00014059491513762623 5.0010159611701965e-05
v 0.00020253792172297835 -0.00011431484745116904 -5.0010159611701965e-05
v 0.00020253792172297835 -0.00011431484745116904 -5.0010159611701965e-05
v 0.00020253792172297835 -0.00011431484745116904 -5.0010159611701965e-05
v 0.00020253792172297835 -0.00011431484745116904 5.0010159611701965e-05
v 0.00020253792172297835 -0.00011431484745116904 5.0010159611701965e-05
v 0.0002155317342840135 -8.582568989368156e-05 -5.0010159611701965e-05
v 0.0002155317342840135 -8.582568989368156e-05 -5.0010159611701965e-05
v 0.0002155317342840135 -8.582568989368156e-05 -5.0010159611701965e-05
v 0.0002155317342840135 -8.582568989368156e-05 5.0010159611701965e-05
v 0.0002155317342840135 -8.582568989368156e-05 5.0010159611701965e-05
v 0.0002155317342840135 -8.582568989368156e-05 5.0010159611701965e-05
v 0.0002245320356450975 -5.542546205106191e-05 -5.0010159611701965e-05
v 0.0002245320356450975 -5.542546205106191e-05 -5.0010159611701965e-05
v 0.0002245320356450975 -5.542546205106191e-05 5.0010159611701965e-05
v 0.0002245320356450975 -5.542546205106191e-05 5.0010159611701965e-05
v 0.0002245320356450975 -5.542546205106191e-05 5.0010159611701965e-05
v 0.00022924080258235335 -2.4075281544355676e-05 -5.0010159611701965e-05
v 0.00022924080258235335 -2.4075281544355676e-05 -5.0010159611701965e-05
v 0.00022924080258235335 -2.4075281544355676e-05 -5.0010159611701965e-05
v 0.00022924080258235335 -2.4075281544355676e-05 5.0010159611701965e-05
v 0.00022924080258235335 -2.4075281544355676e-05 5.0010159611701965e-05
v 0.00022944941883906722 7.634390385646839e-06 -5.0010159611701965e-05
v 0.00022944941883906722 7.634390385646839e-06 -5.0010159611701965e-05
v 0.00022944941883906722 7.634390385646839e-06 -5.0010159611701965e-05
v 0.00022944941883906722 7.634390385646839e-06 5.0010159611701965e-05
v 0.00022944941883906722 7.634390385646839e-06 5.0010159611701965e-05
v 0.0002251280820928514 3.910564191755839e-05 -5.0010159611701965e-05
v 0.0002251280820928514 3.910564191755839e-05 -5.0010159611701965e-05
v 0.0002251280820928514 3.910564191755839e-05 5.0010159611701965e-05
v 0.0002251280820928514 3.910564191755839e-05 5.0010159611701965e-05
v 0.00021642580395564437 6.968469097046182e-05 -5.0010159611701965e-05
v 0.00021642580395564437 6.968469097046182e-05 -5.0010159611701965e-05
v 0.00021642580395564437 6.968469097046182e-05 -5.0010159611701965e-05
v 0.00021642580395564437 6.968469097046182e-05 -5.0010159611701965e-05
v 0.00021642580395564437 6.968469097046182e-05 -5.0010159611701965e-05
v 0.00021642580395564437 6.968469097046182e-05 5.0010159611701965e-05
v 0.00021642580395564437 6.968469097046182e-05 5.0010159611701965e-05
v 0.00021642580395564437 6.968469097046182e-05 5.0010159611701965e-05
v 0.00021642580395564437 6.968469097046182e-05 5.0010159611701965e-05
v 0.00021642580395564437 6.968469097046182e-05 5.0010159611701965e-05
v 0.00020444527035579085 9.686440898803994e-05 -5.0010159611701965e-05
v 0.00020444527035579085 9.686440898803994e-05 -5.0010159611701965e-05
v 0.00020444527035579085 9.686440898803994e-05 -5.0010159611701965e-05
v 0.00020444527035579085 9.686440898803994e-05 -5.0010159611701965e-05
v 0.00020444527035579085 9.686440898803994e-05 -5.0010159611701965e-05
v 0.00020444527035579085 9.686440898803994e-05 -5.0010159611701965e-05
v 0.00020444527035579085 9.686440898803994e-05 -5.0010159611701965e-05
v 0.00020444527035579085 9.686440898803994e-05 -5.0010159611701965e-05
v 0.00020444527035579085 9.686440898803994e-05 -5.0010159611701965e-05
v 0.00020444527035579085 9.686440898803994e-05 -5.0010159611701965e-05
v 0.00020444527035579085 9.686440898803994e-05 -5.0010159611701965e-05
v 0.00020444527035579085 9.686440898803994e-05 -5.0010159611701965e-05
v 0.00020444527035579085 9.686440898803994e-05 5.0010159611701965e-05
v 0.00020444527035579085 9.686440898803994e-05 5.0010159611701965e-05
v 0.00020444527035579085 9.686440898803994e-05 5.0010159611701965e-05
v 0.00020444527035579085 9.686440898803994e-05 5.0010159611701965e-05
v 0.00020444527035579085 9.686440898803994e-05 5.0010159611701965e-05
v 0.00020444527035579085 9.686440898803994e-05 5.0010159611701965e-05
v 0.00020444527035579085 9.686440898803994e-05 5.0010159611701965e-05
v 0.00020444527035579085 9.686440898803994e-05 5.0010159611701965e-05
v 0.00020444527035579085 9.686440898803994e-05 5.0010159611701965e-05
v 0.00020444527035579085 9.686440898803994e-05 5.0010159611701965e-05
v 0.00020444527035579085 9.686440898803994e-05 5.0010159611701965e-05
v 0.0001996470964513719 0.00010574550105957314 -5.0010159611701965e-05
v 0.0001996470964513719 0.00010574550105957314 -5.0010159611701965e-05
v 0.0001996470964513719 0.00010574550105957314 -5.0010159611701965e-05
v 0.0001996470964513719 0.00010574550105957314 5.0010159611701965e-05
v 0.0001996470964513719 0.00010574550105957314 5.0010159611701965e-05
v 0.0001996470964513719 0.00010574550105957314 5.0010159611701965e-05
v 0.00019154086476191878 0.00012017541303066537 5.0010159611701965e-05
v 0.00019154086476191878 0.00012017541303066537 5.0010159611701965e-05
v 0.00019154086476191878 0.00012017541303066537 5.0010159611701965e-05
v 0.00019154086476191878 0.00012017541303066537 5.0010159611701965e-05
v 0.00019154086476191878 0.00012017541303066537 -5.0010159611701965e-05
v 0.00019154086476191878 0.00012017541303066537 -5.0010159611701965e-05
v 0.00019154086476191878 0.00012017541303066537 -5.0010159611701965e-05
v 0.00019154086476191878 0.00012017541303066537 -5.0010159611701965e-05
v 0.00017383828526362777 0.00014621518494095653 -5.0010159611701965e-05
v 0.00017383828526362777 0.00014621518494095653 -5.0010159611701965e-05
v 0.00017383828526362777 0.00014621518494095653 5.0010159611701965e-05
v 0.00017383828526362777 0.00014621518494095653 5.0010159611701965e-05
v 0.00017383828526362777 0.00014621518494095653 5.0010159611701965e-05
v 0.0001532448804937303 0.00016910523117985576 -5.0010159611701965e-05
v 0.0001532448804937303 0.00016910523117985576 -5.0010159611701965e-05
v 0.0001532448804937303 0.00016910523117985576 -5.0010159611701965e-05
v 0.0001532448804937303 0.00016910523117985576 5.0010159611701965e-05
v 0.0001532448804937303 0.00016910523117985576 5.0010159611701965e-05
v 0.0001532448804937303 0.00016910523117985576 5.0010159611701965e-05
v 0.00012955203419551253 0.00018907464982476085 -5.0010159611701965e-05
v 0.00012955203419551253 0.00018907464982476085 -5.0010159611701965e-05
v 0.00012955203419551253 0.00018907464982476085 -5.0010159611701965e-05
v 0.00012955203419551253 0.00018907464982476085 5.0010159611701965e-05
v 0.00012955203419551253 0.00018907464982476085 5.0010159611701965e-05
v 0.00012955203419551253 0.00018907464982476085 5.0010159611701965e-05
v 0.00010323657625121996 0.00020570434571709484 -5.0010159611701965e-05
v 0.00010323657625121996 0.00020570434571709484 -5.0010159611701965e-05
v 0.00010323657625121996 0.00020570434571709484 -5.0010159611701965e-05
v 0.00010323657625121996 0.00020570434571709484 5.0010159611701965e-05
v 0.00010323657625121996 0.00020570434571709484 5.0010159611701965e-05
v 0.00010323657625121996 0.00020570434571709484 5.0010159611701965e-05
v 7.462634675903246e-05 0.00021869443298783153 -5.0010159611701965e-05
v 7.462634675903246e-05 0.00021869443298783153 -5.0010159611701965e-05
v 7.462634675903246e-05 0.00021869443298783153 5.0010159611701965e-05
v 7.462634675903246e-05 0.00021869443298783153 5.0010159611701965e-05
v 7.462634675903246e-05 0.00021869443298783153 5.0010159611701965e-05
v 5.4539585107704625e-05 0.00022519506455864757 -5.0010159611701965e-05
v 5.4539585107704625e-05 0.00022519506455864757 -5.0010159611701965e-05
v 5.4539585107704625e-05 0.00022519506455864757 5.0010159611701965e-05
v 5.4539585107704625e-05 0.00022519506455864757 5.0010159611701965e-05
v 5.4539585107704625e-05 0.00022519506455864757 5.0010159611701965e-05
v 2.2829914087196812e-05 0.00023103445710148662 -5.0010159611701965e-05
v 2.2829914087196812e-05 0.00023103445710148662 -5.0010159611701965e-05
v 2.2829914087196812e-05 0.00023103445710148662 -5.0010159611701965e-05
v 2.2829914087196812e-05 0.00023103445710148662 5.0010159611701965e-05
v 2.2829914087196812e-05 0.00023103445710148662 5.0010159611701965e-05
v 2.2829914087196812e-05 0.00023103445710148662 5.0010159611701965e-05
v -9.446001058677211e-06 0.000232464968576096 -5.0010159611701965e-05
v -9.446001058677211e-06 0.000232464968576096 -5.0010159611701965e-05
v -9.446001058677211e-06 0.000232464968576096 -5.0010159611701965e-05
v -9.446001058677211e-06 0.000232464968576096 5.0010159611701965e-05
v -9.446001058677211e-06 0.000232464968576096 5.0010159611701965e-05
v -9.446001058677211e-06 0.000232464968576096 5.0010159611701965e-05
v -4.157290459261276e-05 0.00022942513169255108 -5.0010159611701965e-05
v -4.157290459261276e-05 0.00022942513169255108 -5.0010159611701965e-05
v -4.157290459261276e-05 0.00022942513169255108 -5.0010159611701965e-05
v -4.157290459261276e-05 0.00022942513169255108 5.0010159611701965e-05
v -4.157290459261276e-05 0.00022942513169255108 5.0010159611701965e-05
v -4.157290459261276e-05 0.00022942513169255108 5.0010159611701965e-05
v -7.274613744812086e-05 0.00022191494645085186 -5.0010159611701965e-05
v -7.274613744812086e-05 0.00022191494645085186 -5.0010159611701965e-05
v -7.274613744812086e-05 0.00022191494645085186 -5.0010159611701965e-05
v -7.274613744812086e-05 0.00022191494645085186 5.0010159611701965e-05
v -7.274613744812086e-05 0.00022191494645085186 5.0010159611701965e-05
v -7.274613744812086e-05 0.00022191494645085186 5.0010159611701965e-05
v -0.00010266766912536696 0.00021005548478569835 -5.0010159611701965e-05
v -0.00010266766912536696 0.00021005548478569835 -5.0010159611701965e-05
v -0.00010266766912536696 0.00021005548478569835 -5.0010159611701965e-05
v -0.00010266766912536696 0.00021005548478569835 5.0010159611701965e-05
v -0.00010266766912536696 0.00021005548478569835 5.0010159611701965e-05
v -0.00010266766912536696 0.00021005548478569835 5.0010159611701965e-05
f 1 4 7
f 1 7 9
f 9 7 12
f 9 12 16
f 16 12 18
f 16 18 20
f 20 18 25
f 20 25 26
f 26 25 30
f 26 30 34
f 34 30 37
f 34 37 39
f 39 37 41
f 39 41 44
f 44 41 48
f 44 48 50
f 50 48 53
f 50 53 55
f 55 53 62
f 55 62 66
f 66 62 73
f 66 73 89
f 89 73 94
f 89 94 97
f 102 97 105
f 105 97 94
f 102 105 108
f 102 108 111
f 111 108 114
f 111 114 117
f 117 114 120
f 117 120 125
f 125 120 126
f 125 126 130
f 130 126 134
f 130 134 137
f 137 134 138
f 137 138 143
f 143 138 146
f 143 146 149
f 149 146 151
f 149 151 153
f 153 151 156
f 153 156 160
f 160 156 164
f 160 164 165
f 165 164 168
f 165 168 173
f 173 168 174
f 173 174 178
f 178 174 182
f 178 182 183
f 183 182 187
f 183 187 190
f 190 187 191
f 190 191 194
f 194 191 197
f 194 197 200
f 200 197 202
f 200 202 205
f 205 202 207
f 205 207 210
f 210 207 214
f 210 214 216
f 216 214 218
f 216 218 221
f 221 218 222
f 221 222 225
f 225 222 226
f 225 226 234
f 234 226 240
f 234 240 248
f 248 240 259
f 248 259 263
f 266 263 270
f 270 263 259
f 266 270 274
f 266 274 277
f 277 274 280
f 277 280 281
f 281 280 285
f 281 285 287
f 287 285 290
f 287 290 293
f 293 290 297
f 293 297 298
f 298 297 301
f 298 301 304
f 304 301 306
f 304 306 311
f 311 306 314
f 311 314 316
f 316 314 318
f 316 318 322
f 322 318 324
f 322 324 329
f 329 324 331
f 329 331 333
f 333 331 4
f 333 4 1
f 70 86 2
f 233 258 179
f 179 258 171
f 118 124 256
f 257 123 129
f 254 131 135
f 136 141 258
f 253 142 147
f 250 148 154
f 275 283 86
f 85 282 288
f 276 87 267
f 268 88 98
f 265 99 264
f 262 96 100
f 264 103 258
f 249 101 112
f 255 113 119
f 155 161 258
f 251 159 166
f 252 167 172
f 179 185 233
f 235 184 188
f 231 189 195
f 289 295 86
f 91 294 299
f 84 300 303
f 2 11 70
f 69 10 15
f 65 14 21
f 305 310 86
f 90 309 317
f 92 315 323
f 321 328 81
f 82 327 334
f 83 335 3
f 193 199 233
f 233 199 204
f 232 206 209
f 22 28 70
f 67 27 33
f 68 32 40
f 211 215 233
f 233 215 220
f 233 220 224
f 38 46 64
f 63 45 51
f 70 52 56
f 145 139 245
f 237 140 133
f 302 296 72
f 302 72 308
f 19 13 61
f 104 95 272
f 269 93 71
f 271 72 273
f 273 72 278
f 192 186 229
f 132 128 238
f 241 127 122
f 246 121 116
f 296 291 72
f 74 292 286
f 75 284 279
f 186 180 229
f 228 181 176
f 229 175 245
f 236 177 170
f 239 169 163
f 162 157 245
f 242 158 150
f 243 152 144
f 271 261 106
f 107 260 244
f 106 245 110
f 109 247 115
f 326 319 76
f 77 320 312
f 78 313 307
f 35 31 61
f 60 29 23
f 59 24 17
f 13 8 61
f 61 8 6
f 61 6 72
f 80 5 330
f 79 332 325
f 208 201 229
f 227 203 198
f 229 196 192
f 54 49 61
f 57 47 42
f 58 43 36
f 223 217 229
f 230 219 212
f 229 213 208
