mtllib converted_link3_25_969696ff.mtl
usemtl material
v 0.00037838247953914106 0.002471184590831399 0.0052499715238809586
v 0.00037838247953914106 0.002471184590831399 0.0052499715238809586
v -0.0001810074463719502 0.002493414329364896 -0.0052499789744615555
v -0.0001810074463719502 0.002493414329364896 -0.0052499789744615555
v -0.0001810074463719502 0.002493414329364896 0.0052499715238809586
v -0.0001810074463719502 0.002493414329364896 0.0052499715238809586
v -0.0007313375826925039 0.002390654059126973 -0.0052499789744615555
v -0.0007313375826925039 0.002390654059126973 -0.0052499789744615555
v -0.0007313375826925039 0.002390654059126973 0.0052499715238809586
v -0.0007313375826925039 0.002390654059126973 0.0052499715238809586
v -0.0012449475470930338 0.0021679748315364122 -0.0052499789744615555
v -0.0012449475470930338 0.0021679748315364122 -0.0052499789744615555
v -0.0012449475470930338 0.0021679748315364122 0.0052499715238809586
v -0.0012449475470930338 0.0021679748315364122 0.0052499715238809586
v -0.0016961575020104647 0.0018365747528150678 -0.0052499789744615555
v -0.0016961575020104647 0.0018365747528150678 -0.0052499789744615555
v -0.0016961575020104647 0.0018365747528150678 0.0052499715238809586
v -0.0016961575020104647 0.0018365747528150678 0.0052499715238809586
v -0.0020623074378818274 0.001413084683008492 -0.0052499789744615555
v -0.0020623074378818274 0.001413084683008492 -0.0052499789744615555
v -0.0020623074378818274 0.001413084683008492 0.0052499715238809586
v -0.0020623074378818274 0.001413084683008492 0.0052499715238809586
v -0.0023250372614711523 0.0009187843534164131 -0.0052499789744615555
v -0.0023250372614711523 0.0009187843534164131 -0.0052499789744615555
v -0.0023250372614711523 0.0009187843534164131 0.0052499715238809586
v -0.0023250372614711523 0.0009187843534164131 0.0052499715238809586
v -0.002471187384799123 0.0003783443826250732 -0.0052499789744615555
v -0.002471187384799123 0.0003783443826250732 -0.0052499789744615555
v -0.002471187384799123 0.0003783443826250732 0.0052499715238809586
v -0.002471187384799123 0.0003783443826250732 0.0052499715238809586
v -0.0024934273678809404 -0.00018104522314388305 -0.0052499789744615555
v -0.0024934273678809404 -0.00018104522314388305 -0.0052499789744615555
v -0.0024934273678809404 -0.00018104522314388305 0.0052499715238809586
v -0.0024934273678809404 -0.00018104522314388305 0.0052499715238809586
v -0.002390667563304305 -0.0007313152891583741 -0.0052499789744615555
v -0.002390667563304305 -0.0007313152891583741 -0.0052499789744615555
v -0.002390667563304305 -0.0007313152891583741 0.0052499715238809586
v -0.002390667563304305 -0.0007313152891583741 0.0052499715238809586
v -0.002167927334085107 -0.0012449257774278522 -0.0052499789744615555
v -0.002167927334085107 -0.0012449257774278522 -0.0052499789744615555
v -0.002167927334085107 -0.0012449257774278522 0.0052499715238809586
v -0.002167927334085107 -0.0012449257774278522 0.0052499715238809586
v -0.001836587442085147 -0.001696135732345283 -0.0052499789744615555
v -0.001836587442085147 -0.001696135732345283 -0.0052499789744615555
v -0.001836587442085147 -0.001696135732345283 0.0052499715238809586
v -0.001836587442085147 -0.001696135732345283 0.0052499715238809586
v -0.0014130875933915377 -0.002062286017462611 -0.0052499789744615555
v -0.0014130875933915377 -0.002062286017462611 -0.0052499789744615555
v -0.0014130875933915377 -0.002062286017462611 0.0052499715238809586
v -0.0014130875933915377 -0.002062286017462611 0.0052499715238809586
v -0.0009187874384224415 -0.0023250251542776823 -0.0052499789744615555
v -0.0009187874384224415 -0.0023250251542776823 -0.0052499789744615555
v -0.0009187874384224415 -0.0023250251542776823 0.0052499715238809586
v -0.0009187874384224415 -0.0023250251542776823 0.0052499715238809586
v -0.0003783575084526092 -0.00247117574326694 -0.0052499789744615555
v -0.0003783575084526092 -0.00247117574326694 -0.0052499789744615555
v -0.0003783575084526092 -0.00247117574326694 0.0052499715238809586
v -0.0003783575084526092 -0.00247117574326694 0.0052499715238809586
v 0.00018103244656231254 -0.002493466017767787 -0.0052499789744615555
v 0.00018103244656231254 -0.002493466017767787 -0.0052499789744615555
v 0.00018103244656231254 -0.002493466017767787 0.0052499715238809586
v 0.00018103244656231254 -0.002493466017767787 0.0052499715238809586
v 0.000731302541680634 -0.002390646142885089 -0.0052499789744615555
v 0.000731302541680634 -0.002390646142885089 -0.0052499789744615555
v 0.000731302541680634 -0.002390646142885089 0.0052499715238809586
v 0.000731302541680634 -0.002390646142885089 0.0052499715238809586
v 0.0012449425412341952 -0.0021679650526493788 -0.0052499789744615555
v 0.0012449425412341952 -0.0021679650526493788 -0.0052499789744615555
v 0.0012449425412341952 -0.0021679650526493788 0.0052499715238809586
v 0.0012449425412341952 -0.0021679650526493788 0.0052499715238809586
v 0.001696142484433949 -0.0018365661380812526 -0.0052499789744615555
v 0.001696142484433949 -0.0018365661380812526 -0.0052499789744615555
v 0.001696142484433949 -0.0018365661380812526 0.0052499715238809586
v 0.001696142484433949 -0.0018365661380812526 0.0052499715238809586
v 0.0020623125601559877 -0.0014131254283711314 -0.0052499789744615555
v 0.0020623125601559877 -0.0014131254283711314 -0.0052499789744615555
v 0.0020623125601559877 -0.0014131254283711314 0.0052499715238809586
v 0.0020623125601559877 -0.0014131254283711314 0.0052499715238809586
v 0.0023250326048582792 -0.0009187653777189553 -0.0052499789744615555
v 0.0023250326048582792 -0.0009187653777189553 -0.0052499789744615555
v 0.0023250326048582792 -0.0009187653777189553 0.0052499715238809586
v 0.0023250326048582792 -0.0009187653777189553 0.0052499715238809586
v 0.0024712025187909603 -0.00037839525612071157 -0.0052499789744615555
v 0.0024712025187909603 -0.00037839525612071157 -0.0052499789744615555
v 0.0024712025187909603 -0.00037839525612071157 0.0052499715238809586
v 0.0024712025187909603 -0.00037839525612071157 0.0052499715238809586
v 0.0024934124667197466 0.00018099432054441422 -0.0052499789744615555
v 0.0024934124667197466 0.00018099432054441422 -0.0052499789744615555
v 0.0024934124667197466 0.00018099432054441422 0.0052499715238809586
v 0.0024934124667197466 0.00018099432054441422 0.0052499715238809586
v 0.0023906424175947905 0.0007313240203075111 -0.0052499789744615555
v 0.0023906424175947905 0.0007313240203075111 -0.0052499789744615555
v 0.0023906424175947905 0.0007313240203075111 0.0052499715238809586
v 0.0023906424175947905 0.0007313240203075111 0.0052499715238809586
v 0.0021679524797946215 0.0012449343921616673 -0.0052499789744615555
v 0.0021679524797946215 0.0012449343921616673 -0.0052499789744615555
v 0.0021679524797946215 0.0012449343921616673 0.0052499715238809586
v 0.0021679524797946215 0.0012449343921616673 0.0052499715238809586
v 0.0018365525174885988 0.0016961443470790982 -0.0052499789744615555
v 0.0018365525174885988 0.0016961443470790982 -0.0052499789744615555
v 0.0018365525174885988 0.0016961443470790982 0.0052499715238809586
v 0.0018365525174885988 0.0016961443470790982 0.0052499715238809586
v 0.0014130924828350544 0.00206229486502707 -0.0052499789744615555
v 0.0014130924828350544 0.00206229486502707 -0.0052499789744615555
v 0.0014130924828350544 0.00206229486502707 0.0052499715238809586
v 0.0014130924828350544 0.00206229486502707 0.0052499715238809586
v 0.0009188224794343114 0.002325034001842141 -0.0052499789744615555
v 0.0009188224794343114 0.002325034001842141 -0.0052499789744615555
v 0.0009188224794343114 0.002325034001842141 0.0052499715238809586
v 0.0009188224794343114 0.002325034001842141 0.0052499715238809586
v 0.00037838247953914106 0.002471184590831399 -0.0052499789744615555
v 0.00037838247953914106 0.002471184590831399 -0.0052499789744615555
v -0.0003026575141120702 -0.001976985251531005 -0.005749998614192009
v -0.0003026575141120702 -0.001976985251531005 -0.005749998614192009
v -0.0003026575141120702 -0.001976985251531005 -0.005749998614192009
v -0.0007350274827331305 -0.0018600457115098834 -0.005749998614192009
v -0.0007350274827331305 -0.0018600457115098834 -0.005749998614192009
v 1.2558285078512199e-08 -2.590983072536801e-08 -0.005749998614192009
v 1.2558285078512199e-08 -2.590983072536801e-08 -0.005749998614192009
v 1.2558285078512199e-08 -2.590983072536801e-08 -0.005749998614192009
v 1.2558285078512199e-08 -2.590983072536801e-08 -0.005749998614192009
v 1.2558285078512199e-08 -2.590983072536801e-08 -0.005749998614192009
v 1.2558285078512199e-08 -2.590983072536801e-08 -0.005749998614192009
v 1.2558285078512199e-08 -2.590983072536801e-08 -0.005749998614192009
v 1.2558285078512199e-08 -2.590983072536801e-08 -0.005749998614192009
v 1.2558285078512199e-08 -2.590983072536801e-08 -0.005749998614192009
v 1.2558285078512199e-08 -2.590983072536801e-08 -0.005749998614192009
v 1.2558285078512199e-08 -2.590983072536801e-08 -0.005749998614192009
v 1.2558285078512199e-08 -2.590983072536801e-08 -0.005749998614192009
v 1.2558285078512199e-08 -2.590983072536801e-08 -0.005749998614192009
v 1.2558285078512199e-08 -2.590983072536801e-08 -0.005749998614192009
v 0.0009959525195881724 -0.0017343953950330615 -0.005749998614192009
v 0.0009959525195881724 -0.0017343953950330615 -0.005749998614192009
v 0.0009959525195881724 -0.0017343953950330615 -0.005749998614192009
v 0.0005850325105711818 -0.001912495936267078 -0.005749998614192009
v 0.0005850325105711818 -0.001912495936267078 -0.005749998614192009
v 0.0005850325105711818 -0.001912495936267078 -0.005749998614192009
v 0.00014485254359897226 -0.001994755817577243 -0.005749998614192009
v 0.00014485254359897226 -0.001994755817577243 -0.005749998614192009
v 0.00014485254359897226 -0.001994755817577243 -0.005749998614192009
v 0.0018600324401631951 -0.0007350051891990006 -0.005749998614192009
v 0.0018600324401631951 -0.0007350051891990006 -0.005749998614192009
v 0.0018600324401631951 -0.0007350051891990006 -0.005749998614192009
v 0.0016498224576935172 -0.0011304857907816768 -0.005749998614192009
v 0.0016498224576935172 -0.0011304857907816768 -0.005749998614192009
v 0.0013569025322794914 -0.0014692757977172732 -0.005749998614192009
v 0.0013569025322794914 -0.0014692757977172732 -0.005749998614192009
v 0.0013569025322794914 -0.0014692757977172732 -0.005749998614192009
v 0.0019125124672427773 0.0005850542220287025 -0.005749998614192009
v 0.0019125124672427773 0.0005850542220287025 -0.005749998614192009
v 0.0019125124672427773 0.0005850542220287025 -0.005749998614192009
v 0.0019947425462305546 0.0001448143011657521 -0.005749998614192009
v 0.0019947425462305546 0.0001448143011657521 -0.005749998614192009
v 0.0019947425462305546 0.0001448143011657521 -0.005749998614192009
v 0.0019769424106925726 -0.00030269549461081624 -0.005749998614192009
v 0.0019769424106925726 -0.00030269549461081624 -0.005749998614192009
v 0.0019769424106925726 -0.00030269549461081624 -0.005749998614192009
v 0.0011304725194349885 0.0016498343320563436 -0.005749998614192009
v 0.0011304725194349885 0.0016498343320563436 -0.005749998614192009
v 0.0014692425029352307 0.0013569343136623502 -0.005749998614192009
v 0.0014692425029352307 0.0013569343136623502 -0.005749998614192009
v 0.0017343525541946292 0.0009959741728380322 -0.005749998614192009
v 0.0017343525541946292 0.0009959741728380322 -0.005749998614192009
v -0.00014476758951786906 0.0019947646651417017 -0.005749998614192009
v -0.00014476758951786906 0.0019947646651417017 -0.005749998614192009
v -0.00014476758951786906 0.0019947646651417017 -0.005749998614192009
v 0.0003026924969162792 0.001976944738999009 -0.005749998614192009
v 0.0003026924969162792 0.001976944738999009 -0.005749998614192009
v 0.0003026924969162792 0.001976944738999009 -0.005749998614192009
v 0.0007350625237450004 0.0018600543262436986 -0.005749998614192009
v 0.0007350625237450004 0.0018600543262436986 -0.005749998614192009
v 0.0007350625237450004 0.0018600543262436986 -0.005749998614192009
v -0.001356887398287654 0.0014692946569994092 -0.005749998614192009
v -0.001356887398287654 0.0014692946569994092 -0.005749998614192009
v -0.001356887398287654 0.0014692946569994092 -0.005749998614192009
v -0.0009959174785763025 0.001734354649670422 -0.005749998614192009
v -0.0009959174785763025 0.001734354649670422 -0.005749998614192009
v -0.0009959174785763025 0.001734354649670422 -0.005749998614192009
v -0.000585007481276989 0.0019125138642266393 -0.005749998614192009
v -0.000585007481276989 0.0019125138642266393 -0.005749998614192009
v -0.000585007481276989 0.0019125138642266393 -0.005749998614192009
v -0.001976947532966733 0.00030270422575995326 -0.005749998614192009
v -0.001976947532966733 0.00030270422575995326 -0.005749998614192009
v -0.0018600074108690023 0.0007350241648964584 -0.005749998614192009
v -0.0018600074108690023 0.0007350241648964584 -0.005749998614192009
v -0.0018600074108690023 0.0007350241648964584 -0.005749998614192009
v -0.0016498374752700329 0.001130494405515492 -0.005749998614192009
v -0.0016498374752700329 0.001130494405515492 -0.005749998614192009
v -0.0016498374752700329 0.001130494405515492 -0.005749998614192009
v -0.0017343575600534678 -0.0009959553135558963 -0.005749998614192009
v -0.0017343575600534678 -0.0009959553135558963 -0.005749998614192009
v -0.0017343575600534678 -0.0009959553135558963 -0.005749998614192009
v -0.0019125177059322596 -0.0005850454908795655 -0.005749998614192009
v -0.0019125177059322596 -0.0005850454908795655 -0.005749998614192009
v -0.0019125177059322596 -0.0005850454908795655 -0.005749998614192009
v -0.0019947777036577463 -0.00014480559912044555 -0.005749998614192009
v -0.0019947777036577463 -0.00014480559912044555 -0.005749998614192009
v -0.0011304474901407957 -0.0016498760087415576 -0.005749998614192009
v -0.0011304474901407957 -0.0016498760087415576 -0.005749998614192009
v -0.0011304474901407957 -0.0016498760087415576 -0.005749998614192009
v -0.0014692374970763922 -0.001356925698928535 -0.005749998614192009
v -0.0014692374970763922 -0.001356925698928535 -0.005749998614192009
v -0.0014692374970763922 -0.001356925698928535 -0.005749998614192009
v -0.0003026575141120702 -0.001976985251531005 0.005750000476837158
v -0.0003026575141120702 -0.001976985251531005 0.005750000476837158
v -0.0003026575141120702 -0.001976985251531005 0.005750000476837158
v 0.00014485254359897226 -0.001994755817577243 0.005750000476837158
v 0.00014485254359897226 -0.001994755817577243 0.005750000476837158
v 0.00014485254359897226 -0.001994755817577243 0.005750000476837158
v 1.2558285078512199e-08 -2.590983072536801e-08 0.005750000476837158
v 1.2558285078512199e-08 -2.590983072536801e-08 0.005750000476837158
v 1.2558285078512199e-08 -2.590983072536801e-08 0.005750000476837158
v 1.2558285078512199e-08 -2.590983072536801e-08 0.005750000476837158
v 1.2558285078512199e-08 -2.590983072536801e-08 0.005750000476837158
v 1.2558285078512199e-08 -2.590983072536801e-08 0.005750000476837158
v 1.2558285078512199e-08 -2.590983072536801e-08 0.005750000476837158
v 1.2558285078512199e-08 -2.590983072536801e-08 0.005750000476837158
v 1.2558285078512199e-08 -2.590983072536801e-08 0.005750000476837158
v 1.2558285078512199e-08 -2.590983072536801e-08 0.005750000476837158
v 1.2558285078512199e-08 -2.590983072536801e-08 0.005750000476837158
v 1.2558285078512199e-08 -2.590983072536801e-08 0.005750000476837158
v 1.2558285078512199e-08 -2.590983072536801e-08 0.005750000476837158
v 1.2558285078512199e-08 -2.590983072536801e-08 0.005750000476837158
v 1.2558285078512199e-08 -2.590983072536801e-08 0.005750000476837158
v -0.0014692374970763922 -0.001356925698928535 0.005750000476837158
v -0.0014692374970763922 -0.001356925698928535 0.005750000476837158
v -0.0014692374970763922 -0.001356925698928535 0.005750000476837158
v -0.0011304474901407957 -0.0016498760087415576 0.005750000476837158
v -0.0011304474901407957 -0.0016498760087415576 0.005750000476837158
v -0.0011304474901407957 -0.0016498760087415576 0.005750000476837158
v -0.0007350274827331305 -0.0018600457115098834 0.005750000476837158
v -0.0007350274827331305 -0.0018600457115098834 0.005750000476837158
v -0.0007350274827331305 -0.0018600457115098834 0.005750000476837158
v -0.0019947777036577463 -0.00014480559912044555 0.005750000476837158
v -0.0019947777036577463 -0.00014480559912044555 0.005750000476837158
v -0.0019947777036577463 -0.00014480559912044555 0.005750000476837158
v -0.0019125177059322596 -0.0005850454908795655 0.005750000476837158
v -0.0019125177059322596 -0.0005850454908795655 0.005750000476837158
v -0.0017343575600534678 -0.0009959553135558963 0.005750000476837158
v -0.0017343575600534678 -0.0009959553135558963 0.005750000476837158
v -0.0017343575600534678 -0.0009959553135558963 0.005750000476837158
v -0.0016498374752700329 0.001130494405515492 0.005750000476837158
v -0.0016498374752700329 0.001130494405515492 0.005750000476837158
v -0.0018600074108690023 0.0007350241648964584 0.005750000476837158
v -0.0018600074108690023 0.0007350241648964584 0.005750000476837158
v -0.0018600074108690023 0.0007350241648964584 0.005750000476837158
v -0.001976947532966733 0.00030270422575995326 0.005750000476837158
v -0.001976947532966733 0.00030270422575995326 0.005750000476837158
v -0.001976947532966733 0.00030270422575995326 0.005750000476837158
v -0.000585007481276989 0.0019125138642266393 0.005750000476837158
v -0.000585007481276989 0.0019125138642266393 0.005750000476837158
v -0.000585007481276989 0.0019125138642266393 0.005750000476837158
v -0.0009959174785763025 0.001734354649670422 0.005750000476837158
v -0.0009959174785763025 0.001734354649670422 0.005750000476837158
v -0.0009959174785763025 0.001734354649670422 0.005750000476837158
v -0.001356887398287654 0.0014692946569994092 0.005750000476837158
v -0.001356887398287654 0.0014692946569994092 0.005750000476837158
v -0.001356887398287654 0.0014692946569994092 0.005750000476837158
v 0.0007350625237450004 0.0018600543262436986 0.005750000476837158
v 0.0007350625237450004 0.0018600543262436986 0.005750000476837158
v 0.0003026924969162792 0.001976944738999009 0.005750000476837158
v 0.0003026924969162792 0.001976944738999009 0.005750000476837158
v 0.0003026924969162792 0.001976944738999009 0.005750000476837158
v -0.00014476758951786906 0.0019947646651417017 0.005750000476837158
v -0.00014476758951786906 0.0019947646651417017 0.005750000476837158
v -0.00014476758951786906 0.0019947646651417017 0.005750000476837158
v 0.0017343525541946292 0.0009959741728380322 0.005750000476837158
v 0.0017343525541946292 0.0009959741728380322 0.005750000476837158
v 0.0017343525541946292 0.0009959741728380322 0.005750000476837158
v 0.0014692425029352307 0.0013569343136623502 0.005750000476837158
v 0.0014692425029352307 0.0013569343136623502 0.005750000476837158
v 0.0014692425029352307 0.0013569343136623502 0.005750000476837158
v 0.0011304725194349885 0.0016498343320563436 0.005750000476837158
v 0.0011304725194349885 0.0016498343320563436 0.005750000476837158
v 0.0011304725194349885 0.0016498343320563436 0.005750000476837158
v 0.0019769424106925726 -0.00030269549461081624 0.005750000476837158
v 0.0019769424106925726 -0.00030269549461081624 0.005750000476837158
v 0.0019769424106925726 -0.00030269549461081624 0.005750000476837158
v 0.0019947425462305546 0.0001448143011657521 0.005750000476837158
v 0.0019947425462305546 0.0001448143011657521 0.005750000476837158
v 0.0019947425462305546 0.0001448143011657521 0.005750000476837158
v 0.0019125124672427773 0.0005850542220287025 0.005750000476837158
v 0.0019125124672427773 0.0005850542220287025 0.005750000476837158
v 0.0019125124672427773 0.0005850542220287025 0.005750000476837158
v 0.0013569025322794914 -0.0014692757977172732 0.005750000476837158
v 0.0013569025322794914 -0.0014692757977172732 0.005750000476837158
v 0.0013569025322794914 -0.0014692757977172732 0.005750000476837158
v 0.0016498224576935172 -0.0011304857907816768 0.005750000476837158
v 0.0016498224576935172 -0.0011304857907816768 0.005750000476837158
v 0.0016498224576935172 -0.0011304857907816768 0.005750000476837158
v 0.0018600324401631951 -0.0007350051891990006 0.005750000476837158
v 0.0018600324401631951 -0.0007350051891990006 0.005750000476837158
v 0.0005850325105711818 -0.001912495936267078 0.005750000476837158
v 0.0005850325105711818 -0.001912495936267078 0.005750000476837158
v 0.0005850325105711818 -0.001912495936267078 0.005750000476837158
v 0.0009959525195881724 -0.0017343953950330615 0.005750000476837158
v 0.0009959525195881724 -0.0017343953950330615 0.005750000476837158
v 0.0009959525195881724 -0.0017343953950330615 0.005750000476837158
f 1 4 5
f 5 4 7
f 5 7 10
f 10 7 11
f 10 11 14
f 14 11 15
f 14 15 18
f 18 15 19
f 18 19 22
f 22 19 23
f 22 23 25
f 25 23 28
f 25 28 30
f 30 28 32
f 30 32 33
f 33 32 35
f 33 35 38
f 38 35 39
f 38 39 41
f 41 39 43
f 41 43 45
f 45 43 47
f 45 47 49
f 49 47 52
f 49 52 54
f 54 52 55
f 54 55 58
f 58 55 59
f 58 59 62
f 62 59 63
f 62 63 66
f 66 63 68
f 66 68 70
f 70 68 71
f 70 71 74
f 74 71 76
f 74 76 78
f 78 76 80
f 78 80 82
f 82 80 84
f 82 84 86
f 86 84 88
f 86 88 89
f 89 88 91
f 89 91 94
f 94 91 95
f 94 95 97
f 97 95 100
f 97 100 101
f 101 100 104
f 101 104 106
f 106 104 107
f 106 107 110
f 110 107 112
f 110 112 1
f 1 112 4
f 115 117 130
f 133 137 130
f 127 136 140
f 123 139 114
f 142 145 130
f 130 145 146
f 122 148 132
f 150 153 121
f 125 154 156
f 131 155 143
f 158 160 130
f 130 160 162
f 130 162 149
f 165 168 130
f 120 167 170
f 130 172 158
f 173 176 130
f 119 178 179
f 124 181 164
f 182 186 130
f 126 185 189
f 128 188 175
f 190 194 129
f 130 195 196
f 130 196 182
f 117 199 130
f 125 200 201
f 118 203 191
f 205 208 220
f 225 229 211
f 210 230 231
f 215 233 206
f 235 237 211
f 211 237 239
f 216 240 227
f 242 244 211
f 210 246 248
f 213 247 236
f 251 254 211
f 223 253 256
f 211 257 242
f 260 262 211
f 218 263 265
f 224 264 250
f 268 272 211
f 212 271 275
f 211 274 260
f 278 279 214
f 211 280 282
f 217 283 269
f 286 290 219
f 211 288 291
f 211 291 276
f 209 293 211
f 221 295 298
f 222 296 287
f 111 166 3
f 3 166 180
f 3 180 8
f 8 180 177
f 8 177 12
f 12 177 174
f 12 174 16
f 16 174 187
f 16 187 20
f 20 187 184
f 20 184 24
f 24 184 183
f 24 183 27
f 27 183 197
f 27 197 31
f 31 197 193
f 31 193 36
f 36 193 192
f 36 192 40
f 40 192 202
f 40 202 44
f 44 202 198
f 44 198 48
f 48 198 116
f 48 116 51
f 51 116 113
f 51 113 56
f 56 113 138
f 56 138 60
f 60 138 135
f 60 135 64
f 64 135 134
f 64 134 67
f 67 134 147
f 67 147 72
f 72 147 144
f 72 144 75
f 75 144 141
f 75 141 79
f 79 141 157
f 79 157 83
f 83 157 152
f 83 152 87
f 87 152 151
f 87 151 92
f 92 151 163
f 92 163 96
f 96 163 161
f 96 161 99
f 99 161 159
f 99 159 103
f 103 159 171
f 103 171 108
f 108 171 169
f 108 169 111
f 111 169 166
f 57 232 53
f 53 232 228
f 53 228 50
f 50 228 226
f 50 226 46
f 46 226 241
f 46 241 42
f 42 241 238
f 42 238 37
f 37 238 234
f 37 234 34
f 34 234 249
f 34 249 29
f 29 249 245
f 29 245 26
f 26 245 243
f 26 243 21
f 21 243 258
f 21 258 17
f 17 258 255
f 17 255 13
f 13 255 252
f 13 252 9
f 9 252 266
f 9 266 6
f 6 266 261
f 6 261 2
f 2 261 259
f 2 259 109
f 109 259 273
f 109 273 105
f 105 273 270
f 105 270 102
f 102 270 267
f 102 267 98
f 98 267 284
f 98 284 93
f 93 284 281
f 93 281 90
f 90 281 277
f 90 277 85
f 85 277 292
f 85 292 81
f 81 292 289
f 81 289 77
f 77 289 285
f 77 285 73
f 73 285 297
f 73 297 69
f 69 297 294
f 69 294 65
f 65 294 207
f 65 207 61
f 61 207 204
f 61 204 57
f 57 204 232
