mtllib converted_link2_10_969696ff.mtl
usemtl material
v -5.45001748832874e-05 0.0002251880505355075 -5.0010159611701965e-05
v -5.45001748832874e-05 0.0002251880505355075 -5.0010159611701965e-05
v -5.45001748832874e-05 0.0002251880505355075 -5.0010159611701965e-05
v -5.45001748832874e-05 0.0002251880505355075 5.0010159611701965e-05
v -5.45001748832874e-05 0.0002251880505355075 5.0010159611701965e-05
v -2.290971315233037e-05 0.00023102744307834655 5.0010159611701965e-05
v -2.290971315233037e-05 0.00023102744307834655 5.0010159611701965e-05
v -2.290971315233037e-05 0.00023102744307834655 5.0010159611701965e-05
v -2.290971315233037e-05 0.00023102744307834655 -5.0010159611701965e-05
v -2.290971315233037e-05 0.00023102744307834655 -5.0010159611701965e-05
v -2.290971315233037e-05 0.00023102744307834655 -5.0010159611701965e-05
v 9.485411283094436e-06 0.00023245795455295593 5.0010159611701965e-05
v 9.485411283094436e-06 0.00023245795455295593 5.0010159611701965e-05
v 9.485411283094436e-06 0.00023245795455295593 5.0010159611701965e-05
v 9.485411283094436e-06 0.00023245795455295593 -5.0010159611701965e-05
v 9.485411283094436e-06 0.00023245795455295593 -5.0010159611701965e-05
v 9.485411283094436e-06 0.00023245795455295593 -5.0010159611701965e-05
v 4.158251249464229e-05 0.000229418117669411 5.0010159611701965e-05
v 4.158251249464229e-05 0.000229418117669411 5.0010159611701965e-05
v 4.158251249464229e-05 0.000229418117669411 5.0010159611701965e-05
v 4.158251249464229e-05 0.000229418117669411 -5.0010159611701965e-05
v 4.158251249464229e-05 0.000229418117669411 -5.0010159611701965e-05
v 4.158251249464229e-05 0.000229418117669411 -5.0010159611701965e-05
v 7.278554403455928e-05 0.00022190793242771178 5.0010159611701965e-05
v 7.278554403455928e-05 0.00022190793242771178 5.0010159611701965e-05
v 7.278554403455928e-05 0.00022190793242771178 5.0010159611701965e-05
v 7.278554403455928e-05 0.00022190793242771178 -5.0010159611701965e-05
v 7.278554403455928e-05 0.00022190793242771178 -5.0010159611701965e-05
v 7.278554403455928e-05 0.00022190793242771178 -5.0010159611701965e-05
v 0.00010267727338941768 0.00021004847076255828 5.0010159611701965e-05
v 0.00010267727338941768 0.00021004847076255828 5.0010159611701965e-05
v 0.00010267727338941768 0.00021004847076255828 5.0010159611701965e-05
v 0.00010267727338941768 0.00021004847076255828 -5.0010159611701965e-05
v 0.00010267727338941768 0.00021004847076255828 -5.0010159611701965e-05
v 0.00010267727338941768 0.00021004847076255828 -5.0010159611701965e-05
v 0.0001171910043922253 0.00020235760894138366 5.0010159611701965e-05
v 0.0001171910043922253 0.00020235760894138366 5.0010159611701965e-05
v 0.0001171910043922253 0.00020235760894138366 5.0010159611701965e-05
v 0.0001171910043922253 0.00020235760894138366 -5.0010159611701965e-05
v 0.0001171910043922253 0.00020235760894138366 -5.0010159611701965e-05
v 0.0001171910043922253 0.00020235760894138366 -5.0010159611701965e-05
v 0.000143297846079804 0.0001847779640229419 5.0010159611701965e-05
v 0.000143297846079804 0.0001847779640229419 5.0010159611701965e-05
v 0.000143297846079804 0.0001847779640229419 -5.0010159611701965e-05
v 0.000143297846079804 0.0001847779640229419 -5.0010159611701965e-05
v 0.000143297846079804 0.0001847779640229419 -5.0010159611701965e-05
v 0.00016609662270639092 0.00016426837828475982 5.0010159611701965e-05
v 0.00016609662270639092 0.00016426837828475982 5.0010159611701965e-05
v 0.00016609662270639092 0.00016426837828475982 -5.0010159611701965e-05
v 0.00016609662270639092 0.00016426837828475982 -5.0010159611701965e-05
v 0.00016609662270639092 0.00016426837828475982 -5.0010159611701965e-05
v 0.00018600457406137139 0.00014072826888877898 5.0010159611701965e-05
v 0.00018600457406137139 0.00014072826888877898 5.0010159611701965e-05
v 0.00018600457406137139 0.00014072826888877898 5.0010159611701965e-05
v 0.00018600457406137139 0.00014072826888877898 -5.0010159611701965e-05
v 0.00018600457406137139 0.00014072826888877898 -5.0010159611701965e-05
v 0.00018600457406137139 0.00014072826888877898 -5.0010159611701965e-05
v 0.00020260446763131768 0.00011449850717326626 5.0010159611701965e-05
v 0.00020260446763131768 0.00011449850717326626 5.0010159611701965e-05
v 0.00020260446763131768 0.00011449850717326626 5.0010159611701965e-05
v 0.00020260446763131768 0.00011449850717326626 -5.0010159611701965e-05
v 0.00020260446763131768 0.00011449850717326626 -5.0010159611701965e-05
v 0.00020260446763131768 0.00011449850717326626 -5.0010159611701965e-05
v 0.00021547907090280205 8.594788232585415e-05 5.0010159611701965e-05
v 0.00021547907090280205 8.594788232585415e-05 5.0010159611701965e-05
v 0.00021547907090280205 8.594788232585415e-05 5.0010159611701965e-05
v 0.00021547907090280205 8.594788232585415e-05 -5.0010159611701965e-05
v 0.00021547907090280205 8.594788232585415e-05 -5.0010159611701965e-05
v 0.00021547907090280205 8.594788232585415e-05 -5.0010159611701965e-05
v 0.00022447937226388603 5.555882307817228e-05 5.0010159611701965e-05
v 0.00022447937226388603 5.555882307817228e-05 5.0010159611701965e-05
v 0.00022447937226388603 5.555882307817228e-05 5.0010159611701965e-05
v 0.00022447937226388603 5.555882307817228e-05 -5.0010159611701965e-05
v 0.00022447937226388603 5.555882307817228e-05 -5.0010159611701965e-05
v 0.00022447937226388603 5.555882307817228e-05 -5.0010159611701965e-05
v 0.0002291881392011419 2.413786387478467e-05 5.0010159611701965e-05
v 0.0002291881392011419 2.413786387478467e-05 5.0010159611701965e-05
v 0.0002291881392011419 2.413786387478467e-05 5.0010159611701965e-05
v 0.0002291881392011419 2.413786387478467e-05 -5.0010159611701965e-05
v 0.0002291881392011419 2.413786387478467e-05 -5.0010159611701965e-05
v 0.0002291881392011419 2.413786387478467e-05 -5.0010159611701965e-05
v 0.00022939675545785576 -7.68170411902247e-06 5.0010159611701965e-05
v 0.00022939675545785576 -7.68170411902247e-06 5.0010159611701965e-05
v 0.00022939675545785576 -7.68170411902247e-06 5.0010159611701965e-05
v 0.00022939675545785576 -7.68170411902247e-06 -5.0010159611701965e-05
v 0.00022939675545785576 -7.68170411902247e-06 -5.0010159611701965e-05
v 0.00022939675545785576 -7.68170411902247e-06 -5.0010159611701965e-05
v 0.00022519462800119072 -3.9162270695669577e-05 5.0010159611701965e-05
v 0.00022519462800119072 -3.9162270695669577e-05 5.0010159611701965e-05
v 0.00022519462800119072 -3.9162270695669577e-05 -5.0010159611701965e-05
v 0.00022519462800119072 -3.9162270695669577e-05 -5.0010159611701965e-05
v 0.00021658175683114678 -6.973199924686924e-05 5.0010159611701965e-05
v 0.00021658175683114678 -6.973199924686924e-05 5.0010159611701965e-05
v 0.00021658175683114678 -6.973199924686924e-05 5.0010159611701965e-05
v 0.00021658175683114678 -6.973199924686924e-05 5.0010159611701965e-05
v 0.00021658175683114678 -6.973199924686924e-05 5.0010159611701965e-05
v 0.00021658175683114678 -6.973199924686924e-05 5.0010159611701965e-05
v 0.00021658175683114678 -6.973199924686924e-05 -5.0010159611701965e-05
v 0.00021658175683114678 -6.973199924686924e-05 -5.0010159611701965e-05
v 0.00021658175683114678 -6.973199924686924e-05 -5.0010159611701965e-05
v 0.00021658175683114678 -6.973199924686924e-05 -5.0010159611701965e-05
v 0.00021658175683114678 -6.973199924686924e-05 -5.0010159611701965e-05
v 0.00021658175683114678 -6.973199924686924e-05 -5.0010159611701965e-05
v 0.00021658175683114678 -6.973199924686924e-05 -5.0010159611701965e-05
v 0.00021658175683114678 -6.973199924686924e-05 -5.0010159611701965e-05
v 0.00020460122323129326 -9.679250797489658e-05 5.0010159611701965e-05
v 0.00020460122323129326 -9.679250797489658e-05 5.0010159611701965e-05
v 0.00020460122323129326 -9.679250797489658e-05 5.0010159611701965e-05
v 0.00020460122323129326 -9.679250797489658e-05 5.0010159611701965e-05
v 0.00020460122323129326 -9.679250797489658e-05 5.0010159611701965e-05
v 0.00020460122323129326 -9.679250797489658e-05 5.0010159611701965e-05
v 0.00020460122323129326 -9.679250797489658e-05 5.0010159611701965e-05
v 0.00020460122323129326 -9.679250797489658e-05 5.0010159611701965e-05
v 0.00020460122323129326 -9.679250797489658e-05 5.0010159611701965e-05
v 0.00020460122323129326 -9.679250797489658e-05 5.0010159611701965e-05
v 0.00020460122323129326 -9.679250797489658e-05 -5.0010159611701965e-05
v 0.00020460122323129326 -9.679250797489658e-05 -5.0010159611701965e-05
v 0.00020460122323129326 -9.679250797489658e-05 -5.0010159611701965e-05
v 0.00020460122323129326 -9.679250797489658e-05 -5.0010159611701965e-05
v 0.00020460122323129326 -9.679250797489658e-05 -5.0010159611701965e-05
v 0.00020460122323129326 -9.679250797489658e-05 -5.0010159611701965e-05
v 0.00020460122323129326 -9.679250797489658e-05 -5.0010159611701965e-05
v 0.00020460122323129326 -9.679250797489658e-05 -5.0010159611701965e-05
v 0.00020460122323129326 -9.679250797489658e-05 -5.0010159611701965e-05
v 0.00020460122323129326 -9.679250797489658e-05 -5.0010159611701965e-05
v 0.00020460122323129326 -9.679250797489658e-05 -5.0010159611701965e-05
v 0.00020460122323129326 -9.679250797489658e-05 -5.0010159611701965e-05
v 0.00019980304932687432 -0.00010567173740128055 5.0010159611701965e-05
v 0.00019980304932687432 -0.00010567173740128055 5.0010159611701965e-05
v 0.00019980304932687432 -0.00010567173740128055 5.0010159611701965e-05
v 0.00019980304932687432 -0.00010567173740128055 -5.0010159611701965e-05
v 0.00019980304932687432 -0.00010567173740128055 -5.0010159611701965e-05
v 0.00019980304932687432 -0.00010567173740128055 -5.0010159611701965e-05
v 0.00019980304932687432 -0.00010567173740128055 -5.0010159611701965e-05
v 0.00019139879441354424 -0.00012010164937237278 -5.0010159611701965e-05
v 0.00019139879441354424 -0.00012010164937237278 -5.0010159611701965e-05
v 0.00019139879441354424 -0.00012010164937237278 -5.0010159611701965e-05
v 0.00019139879441354424 -0.00012010164937237278 -5.0010159611701965e-05
v 0.00019139879441354424 -0.00012010164937237278 5.0010159611701965e-05
v 0.00019139879441354424 -0.00012010164937237278 5.0010159611701965e-05
v 0.00019139879441354424 -0.00012010164937237278 5.0010159611701965e-05
v 0.00019139879441354424 -0.00012010164937237278 5.0010159611701965e-05
v 0.0001737856218824163 -0.00014621221635024995 5.0010159611701965e-05
v 0.0001737856218824163 -0.00014621221635024995 5.0010159611701965e-05
v 0.0001737856218824163 -0.00014621221635024995 5.0010159611701965e-05
v 0.0001737856218824163 -0.00014621221635024995 -5.0010159611701965e-05
v 0.0001737856218824163 -0.00014621221635024995 -5.0010159611701965e-05
v 0.0001737856218824163 -0.00014621221635024995 -5.0010159611701965e-05
v 0.00015340083336923271 -0.00016898119065444916 5.0010159611701965e-05
v 0.00015340083336923271 -0.00016898119065444916 5.0010159611701965e-05
v 0.00015340083336923271 -0.00016898119065444916 5.0010159611701965e-05
v 0.00015340083336923271 -0.00016898119065444916 -5.0010159611701965e-05
v 0.00015340083336923271 -0.00016898119065444916 -5.0010159611701965e-05
v 0.00015340083336923271 -0.00016898119065444916 -5.0010159611701965e-05
v 0.00013018482422921807 -0.0001887010148493573 5.0010159611701965e-05
v 0.00013018482422921807 -0.0001887010148493573 5.0010159611701965e-05
v 0.00013018482422921807 -0.0001887010148493573 5.0010159611701965e-05
v 0.00013018482422921807 -0.0001887010148493573 -5.0010159611701965e-05
v 0.00013018482422921807 -0.0001887010148493573 -5.0010159611701965e-05
v 0.00013018482422921807 -0.0001887010148493573 -5.0010159611701965e-05
v 0.00010428659879835322 -0.0002050420007435605 5.0010159611701965e-05
v 0.00010428659879835322 -0.0002050420007435605 5.0010159611701965e-05
v 0.00010428659879835322 -0.0002050420007435605 5.0010159611701965e-05
v 0.00010428659879835322 -0.0002050420007435605 -5.0010159611701965e-05
v 0.00010428659879835322 -0.0002050420007435605 -5.0010159611701965e-05
v 0.00010428659879835322 -0.0002050420007435605 -5.0010159611701965e-05
v 7.609360181959346e-05 -0.00021785141143482178 5.0010159611701965e-05
v 7.609360181959346e-05 -0.00021785141143482178 5.0010159611701965e-05
v 7.609360181959346e-05 -0.00021785141143482178 5.0010159611701965e-05
v 7.609360181959346e-05 -0.00021785141143482178 -5.0010159611701965e-05
v 7.609360181959346e-05 -0.00021785141143482178 -5.0010159611701965e-05
v 7.609360181959346e-05 -0.00021785141143482178 -5.0010159611701965e-05
v 5.427830183180049e-05 -0.00022476182493846864 5.0010159611701965e-05
v 5.427830183180049e-05 -0.00022476182493846864 5.0010159611701965e-05
v 5.427830183180049e-05 -0.00022476182493846864 5.0010159611701965e-05
v 5.427830183180049e-05 -0.00022476182493846864 -5.0010159611701965e-05
v 5.427830183180049e-05 -0.00022476182493846864 -5.0010159611701965e-05
v 5.427830183180049e-05 -0.00022476182493846864 -5.0010159611701965e-05
v 2.37011190620251e-05 -0.0002309625706402585 5.0010159611701965e-05
v 2.37011190620251e-05 -0.0002309625706402585 5.0010159611701965e-05
v 2.37011190620251e-05 -0.0002309625706402585 5.0010159611701965e-05
v 2.37011190620251e-05 -0.0002309625706402585 -5.0010159611701965e-05
v 2.37011190620251e-05 -0.0002309625706402585 -5.0010159611701965e-05
v 2.37011190620251e-05 -0.0002309625706402585 -5.0010159611701965e-05
v -7.501912023144541e-06 -0.00023275257262866944 5.0010159611701965e-05
v -7.501912023144541e-06 -0.00023275257262866944 5.0010159611701965e-05
v -7.501912023144541e-06 -0.00023275257262866944 5.0010159611701965e-05
v -7.501912023144541e-06 -0.00023275257262866944 -5.0010159611701965e-05
v -7.501912023144541e-06 -0.00023275257262866944 -5.0010159611701965e-05
v -7.501912023144541e-06 -0.00023275257262866944 -5.0010159611701965e-05
v -3.879435098497197e-05 -0.00023013183090370148 5.0010159611701965e-05
v -3.879435098497197e-05 -0.00023013183090370148 5.0010159611701965e-05
v -3.879435098497197e-05 -0.00023013183090370148 5.0010159611701965e-05
v -3.879435098497197e-05 -0.00023013183090370148 -5.0010159611701965e-05
v -3.879435098497197e-05 -0.00023013183090370148 -5.0010159611701965e-05
v -3.879435098497197e-05 -0.00023013183090370148 -5.0010159611701965e-05
v -6.969935930101201e-05 -0.00022304260346572846 5.0010159611701965e-05
v -6.969935930101201e-05 -0.00022304260346572846 5.0010159611701965e-05
v -6.969935930101201e-05 -0.00022304260346572846 5.0010159611701965e-05
v -6.969935930101201e-05 -0.00022304260346572846 -5.0010159611701965e-05
v -6.969935930101201e-05 -0.00022304260346572846 -5.0010159611701965e-05
v -6.969935930101201e-05 -0.00022304260346572846 -5.0010159611701965e-05
v -9.950168168870732e-05 -0.00021159106108825654 5.0010159611701965e-05
v -9.950168168870732e-05 -0.00021159106108825654 5.0010159611701965e-05
v -9.950168168870732e-05 -0.00021159106108825654 5.0010159611701965e-05
v -9.950168168870732e-05 -0.00021159106108825654 -5.0010159611701965e-05
v -9.950168168870732e-05 -0.00021159106108825654 -5.0010159611701965e-05
v -9.950168168870732e-05 -0.00021159106108825654 -5.0010159611701965e-05
v -0.00011669762170640752 -0.00020265222701709718 5.0010159611701965e-05
v -0.00011669762170640752 -0.00020265222701709718 5.0010159611701965e-05
v -0.00011669762170640752 -0.00020265222701709718 5.0010159611701965e-05
v -0.00011669762170640752 -0.00020265222701709718 5.0010159611701965e-05
v -0.00011669762170640752 -0.00020265222701709718 -5.0010159611701965e-05
v -0.00011669762170640752 -0.00020265222701709718 -5.0010159611701965e-05
v -0.00014292365813162178 -0.0001849515101639554 5.0010159611701965e-05
v -0.00014292365813162178 -0.0001849515101639554 5.0010159611701965e-05
v -0.00014292365813162178 -0.0001849515101639554 5.0010159611701965e-05
v -0.00014292365813162178 -0.0001849515101639554 -5.0010159611701965e-05
v -0.00014292365813162178 -0.0001849515101639554 -5.0010159611701965e-05
v -0.00014292365813162178 -0.0001849515101639554 -5.0010159611701965e-05
v -0.00016602045798208565 -0.0001642724237171933 5.0010159611701965e-05
v -0.00016602045798208565 -0.0001642724237171933 5.0010159611701965e-05
v -0.00016602045798208565 -0.0001642724237171933 -5.0010159611701965e-05
v -0.00016602045798208565 -0.0001642724237171933 -5.0010159611701965e-05
v -0.00016602045798208565 -0.0001642724237171933 -5.0010159611701965e-05
v -0.00018589860701467842 -0.0001406019291607663 5.0010159611701965e-05
v -0.00018589860701467842 -0.0001406019291607663 5.0010159611701965e-05
v -0.00018589860701467842 -0.0001406019291607663 -5.0010159611701965e-05
v -0.00018589860701467842 -0.0001406019291607663 -5.0010159611701965e-05
v -0.00018589860701467842 -0.0001406019291607663 -5.0010159611701965e-05
v -0.0002026177098741755 -0.00011432186147430912 5.0010159611701965e-05
v -0.0002026177098741755 -0.00011432186147430912 5.0010159611701965e-05
v -0.0002026177098741755 -0.00011432186147430912 5.0010159611701965e-05
v -0.0002026177098741755 -0.00011432186147430912 -5.0010159611701965e-05
v -0.0002026177098741755 -0.00011432186147430912 -5.0010159611701965e-05
v -0.00021561152243521065 -8.583270391682163e-05 5.0010159611701965e-05
v -0.00021561152243521065 -8.583270391682163e-05 5.0010159611701965e-05
v -0.00021561152243521065 -8.583270391682163e-05 5.0010159611701965e-05
v -0.00021561152243521065 -8.583270391682163e-05 -5.0010159611701965e-05
v -0.00021561152243521065 -8.583270391682163e-05 -5.0010159611701965e-05
v -0.00021561152243521065 -8.583270391682163e-05 -5.0010159611701965e-05
v -0.00022452241682913154 -5.5432476074201986e-05 5.0010159611701965e-05
v -0.00022452241682913154 -5.5432476074201986e-05 5.0010159611701965e-05
v -0.00022452241682913154 -5.5432476074201986e-05 -5.0010159611701965e-05
v -0.00022452241682913154 -5.5432476074201986e-05 -5.0010159611701965e-05
v -0.00022452241682913154 -5.5432476074201986e-05 -5.0010159611701965e-05
v -0.0002292013814439997 -2.4082293748506345e-05 5.0010159611701965e-05
v -0.0002292013814439997 -2.4082293748506345e-05 5.0010159611701965e-05
v -0.0002292013814439997 -2.4082293748506345e-05 5.0010159611701965e-05
v -0.0002292013814439997 -2.4082293748506345e-05 -5.0010159611701965e-05
v -0.0002292013814439997 -2.4082293748506345e-05 -5.0010159611701965e-05
v -0.00022940999770071357 7.627376362506766e-06 5.0010159611701965e-05
v -0.00022940999770071357 7.627376362506766e-06 5.0010159611701965e-05
v -0.00022940999770071357 7.627376362506766e-06 5.0010159611701965e-05
v -0.00022940999770071357 7.627376362506766e-06 -5.0010159611701965e-05
v -0.00022940999770071357 7.627376362506766e-06 -5.0010159611701965e-05
v -0.00022520787024404854 3.9098627894418314e-05 5.0010159611701965e-05
v -0.00022520787024404854 3.9098627894418314e-05 5.0010159611701965e-05
v -0.00022520787024404854 3.9098627894418314e-05 -5.0010159611701965e-05
v -0.00022520787024404854 3.9098627894418314e-05 -5.0010159611701965e-05
v -0.0002165055921068415 6.967767694732174e-05 5.0010159611701965e-05
v -0.0002165055921068415 6.967767694732174e-05 5.0010159611701965e-05
v -0.0002165055921068415 6.967767694732174e-05 5.0010159611701965e-05
v -0.0002165055921068415 6.967767694732174e-05 5.0010159611701965e-05
v -0.0002165055921068415 6.967767694732174e-05 5.0010159611701965e-05
v -0.0002165055921068415 6.967767694732174e-05 -5.0010159611701965e-05
v -0.0002165055921068415 6.967767694732174e-05 -5.0010159611701965e-05
v -0.0002165055921068415 6.967767694732174e-05 -5.0010159611701965e-05
v -0.0002165055921068415 6.967767694732174e-05 -5.0010159611701965e-05
v -0.0002165055921068415 6.967767694732174e-05 -5.0010159611701965e-05
v -0.0002044952561846003 9.685739496489987e-05 5.0010159611701965e-05
v -0.0002044952561846003 9.685739496489987e-05 5.0010159611701965e-05
v -0.0002044952561846003 9.685739496489987e-05 5.0010159611701965e-05
v -0.0002044952561846003 9.685739496489987e-05 5.0010159611701965e-05
v -0.0002044952561846003 9.685739496489987e-05 5.0010159611701965e-05
v -0.0002044952561846003 9.685739496489987e-05 5.0010159611701965e-05
v -0.0002044952561846003 9.685739496489987e-05 5.0010159611701965e-05
v -0.0002044952561846003 9.685739496489987e-05 5.0010159611701965e-05
v -0.0002044952561846003 9.685739496489987e-05 5.0010159611701965e-05
v -0.0002044952561846003 9.685739496489987e-05 5.0010159611701965e-05
v -0.0002044952561846003 9.685739496489987e-05 5.0010159611701965e-05
v -0.0002044952561846003 9.685739496489987e-05 5.0010159611701965e-05
v -0.0002044952561846003 9.685739496489987e-05 -5.0010159611701965e-05
v -0.0002044952561846003 9.685739496489987e-05 -5.0010159611701965e-05
v -0.0002044952561846003 9.685739496489987e-05 -5.0010159611701965e-05
v -0.0002044952561846003 9.685739496489987e-05 -5.0010159611701965e-05
v -0.0002044952561846003 9.685739496489987e-05 -5.0010159611701965e-05
v -0.0002044952561846003 9.685739496489987e-05 -5.0010159611701965e-05
v -0.0002044952561846003 9.685739496489987e-05 -5.0010159611701965e-05
v -0.0002044952561846003 9.685739496489987e-05 -5.0010159611701965e-05
v -0.0002044952561846003 9.685739496489987e-05 -5.0010159611701965e-05
v -0.0002044952561846003 9.685739496489987e-05 -5.0010159611701965e-05
v -0.0002044952561846003 9.685739496489987e-05 -5.0010159611701965e-05
v -0.00019960767531301826 0.00010573848703643307 5.0010159611701965e-05
v -0.00019960767531301826 0.00010573848703643307 5.0010159611701965e-05
v -0.00019960767531301826 0.00010573848703643307 5.0010159611701965e-05
v -0.00019960767531301826 0.00010573848703643307 -5.0010159611701965e-05
v -0.00019960767531301826 0.00010573848703643307 -5.0010159611701965e-05
v -0.00019960767531301826 0.00010573848703643307 -5.0010159611701965e-05
v -0.00019150144362356514 0.0001201683990075253 -5.0010159611701965e-05
v -0.00019150144362356514 0.0001201683990075253 -5.0010159611701965e-05
v -0.00019150144362356514 0.0001201683990075253 -5.0010159611701965e-05
v -0.00019150144362356514 0.0001201683990075253 -5.0010159611701965e-05
v -0.00019150144362356514 0.0001201683990075253 5.0010159611701965e-05
v -0.00019150144362356514 0.0001201683990075253 5.0010159611701965e-05
v -0.00019150144362356514 0.0001201683990075253 5.0010159611701965e-05
v -0.00019150144362356514 0.0001201683990075253 5.0010159611701965e-05
v -0.00017379886412527412 0.00014620817091781646 5.0010159611701965e-05
v -0.00017379886412527412 0.00014620817091781646 5.0010159611701965e-05
v -0.00017379886412527412 0.00014620817091781646 -5.0010159611701965e-05
v -0.00017379886412527412 0.00014620817091781646 -5.0010159611701965e-05
v -0.00017379886412527412 0.00014620817091781646 -5.0010159611701965e-05
v -0.00015320545935537666 0.0001690982171567157 5.0010159611701965e-05
v -0.00015320545935537666 0.0001690982171567157 5.0010159611701965e-05
v -0.00015320545935537666 0.0001690982171567157 5.0010159611701965e-05
v -0.00015320545935537666 0.0001690982171567157 -5.0010159611701965e-05
v -0.00015320545935537666 0.0001690982171567157 -5.0010159611701965e-05
v -0.00015320545935537666 0.0001690982171567157 -5.0010159611701965e-05
v -0.00012960202002432197 0.00018906763580162078 5.0010159611701965e-05
v -0.00012960202002432197 0.00018906763580162078 5.0010159611701965e-05
v -0.00012960202002432197 0.00018906763580162078 5.0010159611701965e-05
v -0.00012960202002432197 0.00018906763580162078 -5.0010159611701965e-05
v -0.00012960202002432197 0.00018906763580162078 -5.0010159611701965e-05
v -0.00012960202002432197 0.00018906763580162078 -5.0010159611701965e-05
v -0.00010331637895433232 0.00020569733169395477 5.0010159611701965e-05
v -0.00010331637895433232 0.00020569733169395477 5.0010159611701965e-05
v -0.00010331637895433232 0.00020569733169395477 5.0010159611701965e-05
v -0.00010331637895433232 0.00020569733169395477 -5.0010159611701965e-05
v -0.00010331637895433232 0.00020569733169395477 -5.0010159611701965e-05
v -0.00010331637895433232 0.00020569733169395477 -5.0010159611701965e-05
v -7.470614946214482e-05 0.00021868741896469146 5.0010159611701965e-05
v -7.470614946214482e-05 0.00021868741896469146 5.0010159611701965e-05
v -7.470614946214482e-05 0.00021868741896469146 -5.0010159611701965e-05
v -7.470614946214482e-05 0.00021868741896469146 -5.0010159611701965e-05
v -7.470614946214482e-05 0.00021868741896469146 -5.0010159611701965e-05
f 1 4 6
f 1 6 11
f 11 6 13
f 11 13 17
f 17 13 18
f 17 18 23
f 23 18 24
f 23 24 27
f 27 24 32
f 27 32 35
f 35 32 37
f 35 37 41
f 41 37 42
f 41 42 45
f 45 42 48
f 45 48 50
f 50 48 54
f 50 54 57
f 57 54 60
f 57 60 63
f 63 60 66
f 63 66 69
f 69 66 70
f 69 70 74
f 74 70 78
f 74 78 81
f 81 78 82
f 81 82 86
f 86 82 88
f 86 88 91
f 91 88 93
f 91 93 101
f 101 93 108
f 101 108 126
f 126 108 129
f 126 129 131
f 137 131 142
f 142 131 129
f 137 142 145
f 137 145 147
f 147 145 151
f 147 151 153
f 153 151 157
f 153 157 158
f 158 157 161
f 158 161 166
f 166 161 167
f 166 167 170
f 170 167 175
f 170 175 177
f 177 175 181
f 177 181 182
f 182 181 187
f 182 187 188
f 188 187 192
f 188 192 195
f 195 192 197
f 195 197 200
f 200 197 203
f 200 203 206
f 206 203 211
f 206 211 213
f 213 211 217
f 213 217 219
f 219 217 221
f 219 221 223
f 223 221 227
f 223 227 229
f 229 227 232
f 229 232 235
f 235 232 237
f 235 237 240
f 240 237 243
f 240 243 246
f 246 243 247
f 246 247 251
f 251 247 254
f 251 254 256
f 256 254 258
f 256 258 259
f 259 258 262
f 259 262 270
f 270 262 273
f 270 273 284
f 284 273 295
f 284 295 299
f 303 299 307
f 307 299 295
f 303 307 309
f 303 309 310
f 310 309 314
f 310 314 317
f 317 314 319
f 317 319 322
f 322 319 326
f 322 326 328
f 328 326 332
f 328 332 335
f 335 332 4
f 335 4 1
f 104 125 39
f 267 283 214
f 214 283 208
f 152 160 291
f 287 159 165
f 293 164 172
f 171 178 283
f 285 176 183
f 286 184 189
f 311 316 125
f 122 318 324
f 312 120 300
f 301 127 132
f 302 134 298
f 297 133 135
f 298 138 283
f 288 136 146
f 289 148 154
f 190 196 283
f 290 194 202
f 292 201 207
f 214 218 267
f 268 220 224
f 269 225 230
f 323 330 125
f 118 329 333
f 117 334 2
f 39 44 104
f 103 46 49
f 102 51 55
f 3 9 125
f 121 10 15
f 116 16 21
f 22 28 119
f 123 29 33
f 124 34 40
f 228 234 267
f 267 234 241
f 266 239 245
f 56 61 104
f 105 62 67
f 98 68 75
f 244 250 267
f 267 250 255
f 267 255 260
f 73 79 99
f 100 80 87
f 104 85 90
f 180 174 278
f 280 173 168
f 5 331 107
f 5 107 7
f 53 47 92
f 141 128 306
f 305 130 109
f 304 107 308
f 308 107 315
f 226 222 263
f 169 163 281
f 279 162 155
f 282 156 150
f 331 327 107
f 111 325 320
f 106 321 313
f 222 216 263
f 265 215 209
f 263 212 278
f 271 210 205
f 277 204 198
f 199 191 278
f 276 193 186
f 275 185 179
f 304 294 140
f 139 296 274
f 140 278 143
f 144 272 149
f 26 19 115
f 114 20 14
f 113 12 8
f 72 65 92
f 97 64 59
f 95 58 52
f 47 43 92
f 92 43 38
f 92 38 107
f 112 36 30
f 110 31 25
f 242 236 263
f 264 238 233
f 263 231 226
f 89 83 92
f 94 84 76
f 96 77 71
f 257 252 263
f 261 253 248
f 263 249 242
