mtllib converted_link3_13_ffffffff.mtl
usemtl material
v -0.00012501186574809253 0.0009482664172537625 -2.398934702796396e-05
v -0.00012501186574809253 0.0009482664172537625 -2.398934702796396e-05
v -0.00013758099521510303 0.0009536382858641446 -2.5058505343622528e-05
v -0.00013758099521510303 0.0009536382858641446 -2.5058505343622528e-05
v -0.00013758099521510303 0.0009536382858641446 -2.5058505343622528e-05
v -0.00013758099521510303 0.0009536382858641446 -2.5058505343622528e-05
v -0.00013758099521510303 0.0009536382858641446 -2.5058505343622528e-05
v -0.00013758099521510303 0.0009536382858641446 -2.5058505343622528e-05
v 0.0015032081864774227 -0.00035600244882516563 0.00012324158160481602
v 0.0015032081864774227 -0.00035600244882516563 0.00012324158160481602
v 0.0015032081864774227 -0.00035600244882516563 0.00012324158160481602
v 0.0015032081864774227 -0.00035600244882516563 0.00012324158160481602
v 0.0015032081864774227 -0.00035600244882516563 0.00012324158160481602
v 0.0015032081864774227 -0.00035600244882516563 0.00012324158160481602
v 0.0015032081864774227 -0.00035600244882516563 0.00012324158160481602
v 0.0015032081864774227 -0.00035600244882516563 0.00012324158160481602
v 0.0015032081864774227 -0.00035600244882516563 0.00012324158160481602
v 0.0015032081864774227 -0.00035600244882516563 0.00012324158160481602
v 0.0015032081864774227 -0.00035600244882516563 0.00012324158160481602
v 0.000787781085819006 0.0021317165810614824 2.9950993848615326e-05
v 0.000787781085819006 0.0021317165810614824 2.9950993848615326e-05
v 0.0010249405167996883 0.0020887453574687243 4.921074287267402e-05
v 0.0010249405167996883 0.0020887453574687243 4.921074287267402e-05
v 0.00209455331787467 0.003138856263831258 0.00011739100591512397
v 0.00209455331787467 0.003138856263831258 0.00011739100591512397
v 0.00209455331787467 0.003138856263831258 0.00011739100591512397
v 0.00209455331787467 0.003138856263831258 0.00011739100591512397
v 0.00209455331787467 0.003138856263831258 0.00011739100591512397
v 0.00209455331787467 0.003138856263831258 0.00011739100591512397
v 0.0012615709565579891 0.0020430285949259996 6.846118048997596e-05
v 0.0012615709565579891 0.0020430285949259996 6.846118048997596e-05
v 0.00148420175537467 0.001954638632014394 8.723105565877631e-05
v 0.00148420175537467 0.001954638632014394 8.723105565877631e-05
v 0.00148420175537467 0.001954638632014394 8.723105565877631e-05
v 0.0024004443548619747 0.003011667402461171 0.00014326129166875035
v 0.0024004443548619747 0.003011667402461171 0.00014326129166875035
v 0.0024004443548619747 0.003011667402461171 0.00014326129166875035
v 0.001653419341892004 0.001784575404599309 0.00010303187445970252
v 0.001653419341892004 0.001784575404599309 0.00010303187445970252
v 0.001653419341892004 0.001784575404599309 0.00010303187445970252
v 0.001653419341892004 0.001784575404599309 0.00010303187445970252
v 0.001653419341892004 0.001784575404599309 0.00010303187445970252
v 0.0026671080850064754 0.002833568723872304 0.00016687031893525273
v 0.0026671080850064754 0.002833568723872304 0.00016687031893525273
v 0.0017269118689000607 0.0014336865860968828 0.00011406059638829902
v 0.0017269118689000607 0.0014336865860968828 0.00011406059638829902
v 0.0017269118689000607 0.0014336865860968828 0.00011406059638829902
v 0.0017269118689000607 0.0014336865860968828 0.00011406059638829902
v 0.0031741722486913204 0.001562436344102025 0.00022564049868378788
v 0.0031741722486913204 0.001562436344102025 0.00022564049868378788
v 0.0031741722486913204 0.001562436344102025 0.00022564049868378788
v 0.001722679939121008 0.0016163785476237535 0.0001109611548599787
v 0.001722679939121008 0.0016163785476237535 0.0001109611548599787
v 0.001722679939121008 0.0016163785476237535 0.0001109611548599787
v 0.0031296401284635067 0.00210924562998116 0.0002139505377272144
v 0.0031296401284635067 0.00210924562998116 0.0002139505377272144
v 0.0031296401284635067 0.00210924562998116 0.0002139505377272144
v 0.0028889640234410763 0.0026015278417617083 0.00018773194460663944
v 0.0028889640234410763 0.0026015278417617083 0.00018773194460663944
v 0.0015593632124364376 -0.00033269330742768943 0.00012729097215924412
v 0.0015593632124364376 -0.00033269330742768943 0.00012729097215924412
v 0.0018987520597875118 -0.00024138271692208946 0.00015256147889886051
v 0.0018987520597875118 -0.00024138271692208946 0.00015256147889886051
v 0.001347461249679327 0.0008470577304251492 9.302201942773536e-05
v 0.001347461249679327 0.0008470577304251492 9.302201942773536e-05
v 0.001347461249679327 0.0008470577304251492 9.302201942773536e-05
v 0.001347461249679327 0.0008470577304251492 9.302201942773536e-05
v 0.001347461249679327 0.0008470577304251492 9.302201942773536e-05
v 0.0022139414213597775 -8.652239921502769e-05 0.00017497096268925816
v 0.0022139414213597775 -8.652239921502769e-05 0.00017497096268925816
v 0.0022139414213597775 -8.652239921502769e-05 0.00017497096268925816
v 0.001617529895156622 0.0011034172493964434 0.00011042098776670173
v 0.001617529895156622 0.0011034172493964434 0.00011042098776670173
v 0.001617529895156622 0.0011034172493964434 0.00011042098776670173
v 0.002596901264041662 0.0002221067261416465 0.00020036067871842533
v 0.002596901264041662 0.0002221067261416465 0.00020036067871842533
v 0.002596901264041662 0.0002221067261416465 0.00020036067871842533
v 0.0016899495385587215 0.0012625057715922594 0.00011370110587449744
v 0.0016899495385587215 0.0012625057715922594 0.00011370110587449744
v 0.0016899495385587215 0.0012625057715922594 0.00011370110587449744
v 0.0028894408605992794 0.0006180566851980984 0.00021741133241448551
v 0.0028894408605992794 0.0006180566851980984 0.00021741133241448551
v 0.0028894408605992794 0.0006180566851980984 0.00021741133241448551
v 0.003084400203078985 0.0010740358848124743 0.00022587146668229252
v 0.003084400203078985 0.0010740358848124743 0.00022587146668229252
v -0.00010748064960353076 0.0009439190034754574 -2.2558835553354584e-05
v -0.00010748064960353076 0.0009439190034754574 -2.2558835553354584e-05
v -0.0007809610106050968 0.0036174256820231676 -0.00011529807670740411
v -0.0007809610106050968 0.0036174256820231676 -0.00011529807670740411
v -0.0007809610106050968 0.0036174256820231676 -0.00011529807670740411
v -0.0007885308004915714 0.0035996672231703997 -0.00011559796257643029
v -0.0007885308004915714 0.0035996672231703997 -0.00011559796257643029
v 0.0002529411867726594 0.0022227365989238024 -1.3377857612795196e-05
v 0.0002529411867726594 0.0022227365989238024 -1.3377857612795196e-05
v 0.0002529411867726594 0.0022227365989238024 -1.3377857612795196e-05
v 0.0002529411867726594 0.0022227365989238024 -1.3377857612795196e-05
v 0.0002529411867726594 0.0022227365989238024 -1.3377857612795196e-05
v 0.0002529411867726594 0.0022227365989238024 -1.3377857612795196e-05
v -0.0008489103056490421 0.003411845536902547 -0.00011756864114431664
v -0.0008489103056490421 0.003411845536902547 -0.00011756864114431664
v -0.0008489103056490421 0.003411845536902547 -0.00011756864114431664
v 0.00023672872339375317 0.002212305786088109 -1.4508483218378387e-05
v 0.00023672872339375317 0.002212305786088109 -1.4508483218378387e-05
v 0.00023672872339375317 0.002212305786088109 -1.4508483218378387e-05
v 0.00023672872339375317 0.002212305786088109 -1.4508483218378387e-05
v -0.001723958645015955 0.0006356959347613156 -0.00014474835188593715
v -0.001723958645015955 0.0006356959347613156 -0.00014474835188593715
v -0.001723958645015955 0.0006356959347613156 -0.00014474835188593715
v -0.001723958645015955 0.0006356959347613156 -0.00014474835188593715
v -0.001723958645015955 0.0006356959347613156 -0.00014474835188593715
v -0.001723958645015955 0.0006356959347613156 -0.00014474835188593715
v -0.0005019516684114933 -0.00013683244469575584 -3.733892663149163e-05
v -0.0005019516684114933 -0.00013683244469575584 -3.733892663149163e-05
v -0.00048591053928248584 -0.00012491151574067771 -3.626790567068383e-05
v -0.00048591053928248584 -0.00012491151574067771 -3.626790567068383e-05
v -0.00048591053928248584 -0.00012491151574067771 -3.626790567068383e-05
v 0.001518347766250372 -0.0003439623105805367 0.0001242511352756992
v 0.001518347766250372 -0.0003439623105805367 0.0001242511352756992
v 0.001518347766250372 -0.0003439623105805367 0.0001242511352756992
v 0.000986443366855383 0.000758067995775491 6.607140676351264e-05
v 0.000986443366855383 0.000758067995775491 6.607140676351264e-05
v 0.000986443366855383 0.000758067995775491 6.607140676351264e-05
v 0.0008982806466519833 0.0007612866465933621 5.91013886150904e-05
v 0.0008982806466519833 0.0007612866465933621 5.91013886150904e-05
v 0.0008109002374112606 0.0007736881379969418 5.207176582189277e-05
v 0.0008109002374112606 0.0007736881379969418 5.207176582189277e-05
v 7.723414455540478e-05 -0.00022081166389398277 9.331512046628632e-06
v 7.723414455540478e-05 -0.00022081166389398277 9.331512046628632e-06
v 0.00011037432705052197 -0.00023399174096994102 1.213106770592276e-05
v 0.00011037432705052197 -0.00023399174096994102 1.213106770592276e-05
v 0.00011037432705052197 -0.00023399174096994102 1.213106770592276e-05
v -0.0011001364327967167 0.00261302781291306 -0.00012531910033430904
v -0.0011001364327967167 0.00261302781291306 -0.00012531910033430904
v -0.0011001364327967167 0.00261302781291306 -0.00012531910033430904
v -0.0011001364327967167 0.00261302781291306 -0.00012531910033430904
v 0.00022380196605809033 0.002188698621466756 -1.5167859601206146e-05
v 0.00022380196605809033 0.002188698621466756 -1.5167859601206146e-05
v 0.00022380196605809033 0.002188698621466756 -1.5167859601206146e-05
v -0.00100424000993371 0.002918378682807088 -0.0001223984727403149
v -0.00100424000993371 0.002918378682807088 -0.0001223984727403149
v -0.00100424000993371 0.002918378682807088 -0.0001223984727403149
v -0.000908388290554285 0.0032237370032817125 -0.00011941824777750298
v -0.000908388290554285 0.0032237370032817125 -0.00011941824777750298
v -0.00014747536624781787 0.0009624560480006039 -2.595816295070108e-05
v -0.00014747536624781787 0.0009624560480006039 -2.595816295070108e-05
v -0.00014747536624781787 0.0009624560480006039 -2.595816295070108e-05
v -0.00014747536624781787 0.0009624560480006039 -2.595816295070108e-05
v -0.00014747536624781787 0.0009624560480006039 -2.595816295070108e-05
v -0.00015188610996119678 0.0009741981630213559 -2.6489016818231903e-05
v -0.00015188610996119678 0.0009741981630213559 -2.6489016818231903e-05
v -0.00015188610996119678 0.0009741981630213559 -2.6489016818231903e-05
v -0.00015188610996119678 0.0009741981630213559 -2.6489016818231903e-05
v -0.0016207904554903507 0.0009619754855521023 -0.00014152970106806606
v -0.0016207904554903507 0.0009619754855521023 -0.00014152970106806606
v -0.0007518068887293339 0.0036490161437541246 -0.00011350807471899316
v -0.0006927982904016972 0.0036671955604106188 -0.00010909919365076348
v -0.0006927982904016972 0.0036671955604106188 -0.00010909919365076348
v -0.0006927982904016972 0.0036671955604106188 -0.00010909919365076348
v -0.0006088824011385441 0.0036612984258681536 -0.00010248866601614282
v -0.0006088824011385441 0.0036612984258681536 -0.00010248866601614282
v -0.0006088824011385441 0.0036612984258681536 -0.00010248866601614282
v 0.00029806935344822705 0.0022229787427932024 -9.859320925897919e-06
v 0.00029806935344822705 0.0022229787427932024 -9.859320925897919e-06
v 0.00029806935344822705 0.0022229787427932024 -9.859320925897919e-06
v 0.0017735227011144161 0.0032178957480937243 9.1051340859849e-05
v 0.0017735227011144161 0.0032178957480937243 9.1051340859849e-05
v 0.0017735227011144161 0.0032178957480937243 9.1051340859849e-05
v 0.0005429177545011044 0.0021773178596049547 1.0050493074231781e-05
v 0.0005429177545011044 0.0021773178596049547 1.0050493074231781e-05
v 0.0005429177545011044 0.0021773178596049547 1.0050493074231781e-05
v 0.0003605275705922395 0.0008568962221033871 1.5470790458493866e-05
v 0.0003605275705922395 0.0008568962221033871 1.5470790458493866e-05
v -8.971846546046436e-05 0.0009405774180777371 -2.1068719433969818e-05
v -8.971846546046436e-05 0.0009405774180777371 -2.1068719433969818e-05
v -0.000516070518642664 -0.00016622125986032188 -3.799830301431939e-05
v -0.000516070518642664 -0.00016622125986032188 -3.799830301431939e-05
v -0.000516070518642664 -0.00016622125986032188 -3.799830301431939e-05
v -0.0018303007818758488 0.00029774874565191567 -0.00014802846999373287
v -0.0018303007818758488 0.00029774874565191567 -0.00014802846999373287
v -0.0018303007818758488 0.00029774874565191567 -0.00014802846999373287
v -0.0005399794317781925 -0.0002473431813996285 -3.8648366171400994e-05
v -0.0005399794317781925 -0.0002473431813996285 -3.8648366171400994e-05
v -0.0005399794317781925 -0.0002473431813996285 -3.8648366171400994e-05
v -0.001936508808284998 -4.021331187686883e-05 -0.00015129927487578243
v -0.001936508808284998 -4.021331187686883e-05 -0.00015129927487578243
v -0.001936508808284998 -4.021331187686883e-05 -0.00015129927487578243
v -0.0005648867227137089 -0.00032810374977998435 -3.9428814488928765e-05
v -0.0005648867227137089 -0.00032810374977998435 -3.9428814488928765e-05
v -0.0005648867227137089 -0.00032810374977998435 -3.9428814488928765e-05
v -0.0005648867227137089 -0.00032810374977998435 -3.9428814488928765e-05
v 0.00012777888332493603 -0.0002550321805756539 1.3861465049558319e-05
v 0.00012777888332493603 -0.0002550321805756539 1.3861465049558319e-05
v 0.00012777888332493603 -0.0002550321805756539 1.3861465049558319e-05
v 0.0014965995214879513 -0.00037209197762422264 0.00012294169573578984
v 0.0014965995214879513 -0.00037209197762422264 0.00012294169573578984
v 0.0014965995214879513 -0.00037209197762422264 0.00012294169573578984
v 0.0001386194780934602 -0.0002975824463646859 1.5291976524167694e-05
v 0.0001386194780934602 -0.0002975824463646859 1.5291976524167694e-05
v 0.0001386194780934602 -0.0002975824463646859 1.5291976524167694e-05
v 0.0014980300329625607 -0.0004174511122982949 0.00012371096818242222
v 0.0014980300329625607 -0.0004174511122982949 0.00012371096818242222
v 0.0014980300329625607 -0.0004174511122982949 0.00012371096818242222
v 0.0014980300329625607 -0.0004174511122982949 0.00012371096818242222
v 0.0014980300329625607 -0.0004174511122982949 0.00012371096818242222
v 0.0014980300329625607 -0.0004174511122982949 0.00012371096818242222
v 0.0014980300329625607 -0.0004174511122982949 0.00012371096818242222
v 0.00016126924310810864 -0.0004998209769837558 2.0121815396123566e-05
v 0.00016126924310810864 -0.0004998209769837558 2.0121815396123566e-05
v 0.0001837997988332063 -0.0007020632619969547 2.4892049623304047e-05
v 0.0001837997988332063 -0.0007020632619969547 2.4892049623304047e-05
v -0.0012032599188387394 0.002286688657477498 -0.00012852843792643398
v -0.0012032599188387394 0.002286688657477498 -0.00012852843792643398
v -0.0012032599188387394 0.002286688657477498 -0.00012852843792643398
v -0.0012032599188387394 0.002286688657477498 -0.00012852843792643398
v 0.00018118464504368603 0.0020502370316535234 -1.641955714148935e-05
v 0.00018118464504368603 0.0020502370316535234 -1.641955714148935e-05
v 0.00018118464504368603 0.0020502370316535234 -1.641955714148935e-05
v 0.00020246350322850049 0.002119438024237752 -1.575831811351236e-05
v 0.00020246350322850049 0.002119438024237752 -1.575831811351236e-05
v 0.0017683892510831356 -0.003017234383150935 0.00018379058747086674
v 0.0017683892510831356 -0.003017234383150935 0.00018379058747086674
v 0.0017683892510831356 -0.003017234383150935 0.00018379058747086674
v 0.0017683892510831356 -0.003017234383150935 0.00018379058747086674
v 0.0017683892510831356 -0.003017234383150935 0.00018379058747086674
v 0.0017683892510831356 -0.003017234383150935 0.00018379058747086674
v 0.0017683892510831356 -0.003017234383150935 0.00018379058747086674
v 0.0017683892510831356 -0.003017234383150935 0.00018379058747086674
v 0.0017683892510831356 -0.003017234383150935 0.00018379058747086674
v 0.0017683892510831356 -0.003017234383150935 0.00018379058747086674
v 0.0017683892510831356 -0.003017234383150935 0.00018379058747086674
v 0.0017580180428922176 -0.0021915833931416273 0.00017062168626580387
v 0.0017580180428922176 -0.0021915833931416273 0.00017062168626580387
v 0.0017322092317044735 -0.002014144090935588 0.00016597066132817417
v 0.0017322092317044735 -0.002014144090935588 0.00016597066132817417
v -0.0025411383248865604 -0.002221564529463649 -0.00016614828200545162
v -0.0013160319067537785 -0.00244884449057281 -6.666813715128228e-05
v -0.0013160319067537785 -0.00244884449057281 -6.666813715128228e-05
v -0.0025860206224024296 -0.002176983980461955 -0.00017031874449457973
v -0.0025860206224024296 -0.002176983980461955 -0.00017031874449457973
v -0.0025860206224024296 -0.002176983980461955 -0.00017031874449457973
v -0.001255048904567957 -0.002423382131382823 -6.224808021215722e-05
v -0.001255048904567957 -0.002423382131382823 -6.224808021215722e-05
v -0.001255048904567957 -0.002423382131382823 -6.224808021215722e-05
v -0.001255048904567957 -0.002423382131382823 -6.224808021215722e-05
v -0.0020400495268404484 -0.00036851197364740074 -0.00015451792569365352
v -0.0020400495268404484 -0.00036851197364740074 -0.00015451792569365352
v -0.0021435157395899296 -0.0006968217785470188 -0.00015773843915667385
v -0.0021435157395899296 -0.0006968217785470188 -0.00015773843915667385
v -0.0021435157395899296 -0.0006968217785470188 -0.00015773843915667385
v -0.0008824602700769901 -0.0013382236938923597 -4.9198388296645135e-05
v -0.0008824602700769901 -0.0013382236938923597 -4.9198388296645135e-05
v -0.0008824602700769901 -0.0013382236938923597 -4.9198388296645135e-05
v -0.0022472278214991093 -0.001027154503390193 -0.00016089934797491878
v -0.0022472278214991093 -0.001027154503390193 -0.00016089934797491878
v -0.0022472278214991093 -0.001027154503390193 -0.00016089934797491878
v -0.0010326714254915714 -0.0018143418710678816 -5.3909017879050225e-05
v -0.0010326714254915714 -0.0018143418710678816 -5.3909017879050225e-05
v -0.0010326714254915714 -0.0018143418710678816 -5.3909017879050225e-05
v -0.0023510591126978397 -0.0013574722688645124 -0.00016411799879278988
v -0.0023510591126978397 -0.0013574722688645124 -0.00016411799879278988
v -0.0023510591126978397 -0.0013574722688645124 -0.00016411799879278988
v -0.0011821598745882511 -0.002290642587468028 -5.84985755267553e-05
v -0.0011821598745882511 -0.002290642587468028 -5.84985755267553e-05
v -0.0011821598745882511 -0.002290642587468028 -5.84985755267553e-05
v -0.0024668187834322453 -0.0017241041641682386 -0.000167748294188641
v -0.0024668187834322453 -0.0017241041641682386 -0.000167748294188641
v -0.0024668187834322453 -0.0017241041641682386 -0.000167748294188641
v -0.0012129680253565311 -0.002371831564232707 -5.9688805777113885e-05
v -0.0012129680253565311 -0.002371831564232707 -5.9688805777113885e-05
v -0.0012129680253565311 -0.002371831564232707 -5.9688805777113885e-05
v -0.0025822059251368046 -0.002090851543471217 -0.0001713282981654629
v -0.0025822059251368046 -0.002090851543471217 -0.0001713282981654629
v -0.0025822059251368046 -0.002090851543471217 -0.0001713282981654629
v -0.0025939480401575565 -0.002152601955458522 -0.00017126869352068752
v -0.0025939480401575565 -0.002152601955458522 -0.00017126869352068752
v -0.0015176073648035526 0.001288318308070302 -0.00013830918760504574
v -0.0015176073648035526 0.001288318308070302 -0.00013830918760504574
v -0.0015176073648035526 0.001288318308070302 -0.00013830918760504574
v -0.0001493901654612273 0.0009941060561686754 -2.6548621463007294e-05
v -0.0001493901654612273 0.0009941060561686754 -2.6548621463007294e-05
v -0.0001493901654612273 0.0009941060561686754 -2.6548621463007294e-05
v -0.0014119879342615604 0.0016243655700236559 -0.00013502906949725002
v -0.0014119879342615604 0.0016243655700236559 -0.00013502906949725002
v -0.0014119879342615604 0.0016243655700236559 -0.00013502906949725002
v -8.047974552027881e-05 0.0012108285445719957 -2.4408442186540924e-05
v -8.047974552027881e-05 0.0012108285445719957 -2.4408442186540924e-05
v -8.047974552027881e-05 0.0012108285445719957 -2.4408442186540924e-05
v -0.0013064281083643436 0.0019604165572673082 -0.0001317489513894543
v -0.0013064281083643436 0.0019604165572673082 -0.0001317489513894543
v -0.0013064281083643436 0.0019604165572673082 -0.0001317489513894543
v -1.2239881471032277e-05 0.0014276665169745684 -2.22589496843284e-05
v -1.2239881471032277e-05 0.0014276665169745684 -2.22589496843284e-05
v -1.2239881471032277e-05 0.0014276665169745684 -2.22589496843284e-05
v 8.46176699269563e-05 0.0017389256972819567 -1.933832209033426e-05
v 8.46176699269563e-05 0.0017389256972819567 -1.933832209033426e-05
v 0.0004253178194630891 -0.0027358930092304945 7.424096838803962e-05
v 0.00047025972162373364 -0.002780302194878459 7.841143087716773e-05
v 0.00047025972162373364 -0.002780302194878459 7.841143087716773e-05
v 0.00040231042657978833 -0.0026683013420552015 7.144141272874549e-05
v 0.00040231042657978833 -0.0026683013420552015 7.144141272874549e-05
v 0.00040231042657978833 -0.0026683013420552015 7.144141272874549e-05
v 0.00040231042657978833 -0.0026683013420552015 7.144141272874549e-05
v 0.0017586215399205685 -0.0030193726997822523 0.00018308091966900975
v 0.0017586215399205685 -0.0030193726997822523 0.00018308091966900975
v 0.0017062812112271786 -0.00183670106343925 0.00016126189439091831
v 0.0017062812112271786 -0.00183670106343925 0.00016126189439091831
v 0.0016020401380956173 -0.0011271040420979261 0.00014249201922211796
v 0.0016020401380956173 -0.0011271040420979261 0.00014249201922211796
v -0.00046355879749171436 -0.00012157365563325584 -3.45393709721975e-05
v -0.00046355879749171436 -0.00012157365563325584 -3.45393709721975e-05
v -0.00044835961307398975 -0.00012342139962129295 -3.334914072183892e-05
v -0.00044835961307398975 -0.00012342139962129295 -3.334914072183892e-05
v -0.00044835961307398975 -0.00012342139962129295 -3.334914072183892e-05
v -0.00018574899877421558 -0.00017319127800874412 -1.2008813428110443e-05
v -0.00018574899877421558 -0.00017319127800874412 -1.2008813428110443e-05
v 0.00022958361660130322 -0.0011145311873406172 3.466162161203101e-05
v 0.00022958361660130322 -0.0011145311873406172 3.466162161203101e-05
v 0.000275479193078354 -0.0015269916038960218 4.444050864549354e-05
v 0.000275479193078354 -0.0015269916038960218 4.444050864549354e-05
v 0.000275479193078354 -0.0015269916038960218 4.444050864549354e-05
v 0.00033936792169697583 -0.0020975943189114332 5.797076300950721e-05
v 0.00033936792169697583 -0.0020975943189114332 5.797076300950721e-05
v 0.0018629892729222775 -0.002933422802016139 0.0001899317285278812
v 0.0018629892729222775 -0.002933422802016139 0.0001899317285278812
v 0.0018623336218297482 -0.0029114324133843184 0.00018958155123982579
v 0.0018623336218297482 -0.0029114324133843184 0.00018958155123982579
v 0.001778231468051672 -0.0030157926958054304 0.00018451143114361912
v 0.001778231468051672 -0.0030157926958054304 0.00018451143114361912
v 0.001778231468051672 -0.0030157926958054304 0.00018451143114361912
v 0.001778231468051672 -0.0030157926958054304 0.00018451143114361912
v 0.001778231468051672 -0.0030157926958054304 0.00018451143114361912
v 0.001778231468051672 -0.0030157926958054304 0.00018451143114361912
v 0.0018595918081700802 -0.002889371244236827 0.0001890413841465488
v 0.0018595918081700802 -0.002889371244236827 0.0001890413841465488
v 0.0018595918081700802 -0.002889371244236827 0.0001890413841465488
v 0.0018088012002408504 -0.002540453104302287 0.00017986040620598942
v 0.0018088012002408504 -0.002540453104302287 0.00017986040620598942
v 0.0018263324163854122 -0.003006621031090617 0.00018814172653947026
v 0.001847372855991125 -0.002989931730553508 0.00018958155123982579
v 0.001847372855991125 -0.002989931730553508 0.00018958155123982579
v 0.0018591745756566525 -0.0029629345517605543 0.00019011054246220738
v 0.0018591745756566525 -0.0029629345517605543 0.00019011054246220738
f 1 8 9
f 21 23 25
f 22 30 29
f 28 31 33
f 27 34 37
f 35 32 38
f 36 39 43
f 46 51 52
f 54 50 55
f 53 57 42
f 40 56 59
f 41 58 44
f 60 63 67
f 65 62 69
f 66 70 72
f 73 71 77
f 74 75 78
f 79 76 83
f 80 81 48
f 47 82 85
f 45 84 49
f 2 19 87
f 90 92 97
f 98 91 99
f 95 100 103
f 108 112 115
f 61 64 118
f 117 68 120
f 119 121 18
f 17 122 123
f 16 124 126
f 128 131 7
f 135 138 140
f 139 137 102
f 141 104 143
f 142 105 101
f 114 144 107
f 111 147 151
f 106 150 154
f 155 89 158
f 157 88 93
f 156 94 161
f 160 96 162
f 159 163 165
f 166 164 168
f 167 169 26
f 24 170 20
f 125 172 10
f 11 171 174
f 12 173 86
f 113 109 176
f 177 110 178
f 175 179 183
f 182 180 186
f 181 185 190
f 3 129 13
f 14 130 191
f 15 192 196
f 194 193 198
f 195 199 201
f 202 197 208
f 203 207 210
f 214 217 133
f 132 216 218
f 134 219 136
f 229 231 234
f 235 237 238
f 239 236 243
f 184 245 189
f 188 246 248
f 187 249 251
f 252 247 253
f 250 255 256
f 257 254 259
f 258 260 262
f 263 261 265
f 264 267 268
f 269 266 271
f 270 272 242
f 244 273 274
f 241 275 240
f 153 149 276
f 277 152 279
f 278 280 283
f 284 281 286
f 282 287 290
f 289 285 293
f 288 292 213
f 212 291 294
f 211 295 215
f 296 298 299
f 301 297 303
f 302 304 222
f 233 305 225
f 227 306 307
f 228 308 200
f 116 309 148
f 145 310 313
f 146 312 6
f 5 311 315
f 4 314 127
f 209 316 204
f 205 317 318
f 206 319 220
f 226 320 322
f 230 321 300
f 324 326 329
f 332 325 335
f 331 334 221
f 223 333 337
f 224 336 232
f 338 339 328
f 327 340 341
f 330 342 323
