mtllib converted_link3_9_d12626ff.mtl
usemtl material
v -0.0004343408509157598 -0.0006702530663460493 -2.4052416847553104e-05
v -0.0004343408509157598 -0.0006702530663460493 -2.4052416847553104e-05
v -0.0004343408509157598 -0.0006702530663460493 -2.4052416847553104e-05
v -0.0004343408509157598 -0.0006702530663460493 -2.4052416847553104e-05
v -0.0004343408509157598 -0.0006702530663460493 -2.4052416847553104e-05
v -0.0004343408509157598 -0.0006702530663460493 -2.4052416847553104e-05
v -0.0004343408509157598 -0.0006702530663460493 -2.4052416847553104e-05
v -0.00023604366288054734 -0.0007274735253304243 -7.653688953723758e-06
v 0.00011277016892563552 -0.0007110226433724165 1.9466424419078976e-05
v 0.00011277016892563552 -0.0007110226433724165 1.9466424419078976e-05
v 0.00011277016892563552 -0.0007110226433724165 1.9466424419078976e-05
v 0.00011277016892563552 -0.0007110226433724165 1.9466424419078976e-05
v 0.00011277016892563552 -0.0007110226433724165 1.9466424419078976e-05
v 0.00011277016892563552 -0.0007110226433724165 1.9466424419078976e-05
v 0.00011277016892563552 -0.0007110226433724165 1.9466424419078976e-05
v 0.00011277016892563552 -0.0007110226433724165 1.9466424419078976e-05
v 0.00011277016892563552 -0.0007110226433724165 1.9466424419078976e-05
v 0.00011277016892563552 -0.0007110226433724165 1.9466424419078976e-05
v 0.0003122073248960078 0.000728727551177144 1.361771865049377e-05
v 0.0003122073248960078 0.000728727551177144 1.361771865049377e-05
v 0.0003122073248960078 0.000728727551177144 1.361771865049377e-05
v 9.881523146759719e-05 0.0007683087605983019 -3.7235074614727637e-06
v 8.892831101547927e-05 0.0007669378537684679 -4.492780135478824e-06
v 8.892831101547927e-05 0.0007669378537684679 -4.492780135478824e-06
v 8.892831101547927e-05 0.0007669378537684679 -4.492780135478824e-06
v 0.0004364755586721003 0.00067317602224648 2.416774077573791e-05
v 0.0004364755586721003 0.00067317602224648 2.416774077573791e-05
v 0.00048786221304908395 -0.000488403020426631 4.556767089525238e-05
v 0.0006669667200185359 -0.00023788100224919617 5.5877411796245724e-05
v 0.0006669667200185359 -0.00023788100224919617 5.5877411796245724e-05
v 0.0007462483481504023 6.067867070669308e-05 5.760780913988128e-05
v 0.0007462483481504023 6.067867070669308e-05 5.760780913988128e-05
v 0.0007168558076955378 0.00035416820901446044 5.0937676860485226e-05
v 0.0007168558076955378 0.00035416820901446044 5.0937676860485226e-05
v 0.0005494263605214655 0.0005968783516436815 3.418690903345123e-05
v 0.0005494263605214655 0.0005968783516436815 3.418690903345123e-05
v 7.90264894021675e-05 0.0007662784773856401 -5.273228453006595e-06
v 7.90264894021675e-05 0.0007662784773856401 -5.273228453006595e-06
v 7.90264894021675e-05 0.0007662784773856401 -5.273228453006595e-06
v -0.0001696440886007622 0.0007390391547232866 -2.4342989490833133e-05
v -0.0001696440886007622 0.0007390391547232866 -2.4342989490833133e-05
v -0.0003979820176027715 0.0006365787703543901 -4.0732404158916324e-05
v -0.0003979820176027715 0.0006365787703543901 -4.0732404158916324e-05
v -0.0007658618851564825 -0.0002992141817230731 -5.5583273933734745e-05
v -0.0006025526090525091 -0.0005608226638287306 -3.889211075147614e-05
v -0.0006025526090525091 -0.0005608226638287306 -3.889211075147614e-05
v -0.0007857102318666875 2.7598092856351286e-05 -6.201312498888001e-05
v -0.0007857102318666875 2.7598092856351286e-05 -6.201312498888001e-05
v -0.0007857102318666875 2.7598092856351286e-05 -6.201312498888001e-05
v -0.0006508919759653509 0.00038826579111628234 -5.683310882886872e-05
v -0.0006508919759653509 0.00038826579111628234 -5.683310882886872e-05
f 1 8 10
f 21 22 23
f 9 26 20
f 28 29 12
f 14 30 31
f 32 33 17
f 18 34 36
f 11 35 27
f 19 24 16
f 15 25 39
f 13 38 2
f 5 37 41
f 3 40 42
f 44 45 47
f 48 46 4
f 49 7 50
f 51 6 43
