mtllib converted_link3_8_ffffffff.mtl
usemtl material
v 0.0032792105339467525 0.0009370602783747017 0.00024320122611243278
v 0.0032792105339467525 0.0009370602783747017 0.00024320122611243278
v 0.0032792105339467525 0.0009370602783747017 0.00024320122611243278
v 0.001797409146092832 0.0012047968339174986 0.00012298052024561912
v 0.001797409146092832 0.0012047968339174986 0.00012298052024561912
v 0.001797409146092832 0.0012047968339174986 0.00012298052024561912
v 0.001797409146092832 0.0012047968339174986 0.00012298052024561912
v 0.001797409146092832 0.0012047968339174986 0.00012298052024561912
v 0.001797409146092832 0.0012047968339174986 0.00012298052024561912
v 0.001797409146092832 0.0012047968339174986 0.00012298052024561912
v 0.0018268091371282935 0.0009052276727743447 0.0001297717244597152
v 0.0018268091371282935 0.0009052276727743447 0.0001297717244597152
v 0.0018268091371282935 0.0009052276727743447 0.0001297717244597152
v 0.0018268091371282935 0.0009052276727743447 0.0001297717244597152
v 0.0018268091371282935 0.0009052276727743447 0.0001297717244597152
v 0.0018268091371282935 0.0009052276727743447 0.0001297717244597152
v 0.0018268091371282935 0.0009052276727743447 0.0001297717244597152
v -6.668883725069463e-05 0.00035942794056609273 -1.0599078450468369e-05
v -6.668883725069463e-05 0.00035942794056609273 -1.0599078450468369e-05
v -6.668883725069463e-05 0.00035942794056609273 -1.0599078450468369e-05
v -6.668883725069463e-05 0.00035942794056609273 -1.0599078450468369e-05
v -7.229167385958135e-05 0.00036705733509734273 -1.112806967284996e-05
v -7.229167385958135e-05 0.00036705733509734273 -1.112806967284996e-05
v -0.001408091397024691 0.0008141592261381447 -0.00012258875358384103
v -0.001408091397024691 0.0008141592261381447 -0.00012258875358384103
v -0.001408091397024691 0.0008141592261381447 -0.00012258875358384103
v -0.001408091397024691 0.0008141592261381447 -0.00012258875358384103
v -0.001408091397024691 0.0008141592261381447 -0.00012258875358384103
v -0.001408091397024691 0.0008141592261381447 -0.00012258875358384103
v -0.001408091397024691 0.0008141592261381447 -0.00012258875358384103
v 0.003285811748355627 0.0010352290701121092 0.000242251277086325
v 0.003285811748355627 0.0010352290701121092 0.000242251277086325
v 0.00329110911116004 0.0011335171293467283 0.00024123054754454643
v 0.00329110911116004 0.0011335171293467283 0.00024123054754454643
v 0.003258512821048498 0.0015397786628454924 0.00023259159934241325
v 0.003258512821048498 0.0015397786628454924 0.00023259159934241325
v -0.000639690610114485 0.003174618585035205 -9.761813271325082e-05
v -0.000639690610114485 0.003174618585035205 -9.761813271325082e-05
v -0.000684587808791548 0.0031086995732039213 -0.00010011780250351876
v -0.000684587808791548 0.0031086995732039213 -0.00010011780250351876
v -0.000684587808791548 0.0031086995732039213 -0.00010011780250351876
v 0.0003811134083662182 0.0017556070815771818 3.652019813671359e-06
v 0.0003811134083662182 0.0017556070815771818 3.652019813671359e-06
v 0.0003811134083662182 0.0017556070815771818 3.652019813671359e-06
v 0.0003811134083662182 0.0017556070815771818 3.652019813671359e-06
v 0.0031186132691800594 0.0019220903050154448 0.00021590043616015464
v 0.0031186132691800594 0.0019220903050154448 0.00021590043616015464
v 0.0027954145334661007 0.002332047326490283 0.00018443104636389762
v 0.0027954145334661007 0.002332047326490283 0.00018443104636389762
v 0.0027954145334661007 0.002332047326490283 0.00018443104636389762
v 0.0016174105694517493 0.0014450072776526213 0.00010528166603762656
v 0.0016174105694517493 0.0014450072776526213 0.00010528166603762656
v 0.0016174105694517493 0.0014450072776526213 0.00010528166603762656
v 0.0016174105694517493 0.0014450072776526213 0.00010528166603762656
v -0.001082091243006289 -0.002809389727190137 -4.289920616429299e-05
v -0.001082091243006289 -0.002809389727190137 -4.289920616429299e-05
v -0.001082091243006289 -0.002809389727190137 -4.289920616429299e-05
v -0.001082091243006289 -0.002809389727190137 -4.289920616429299e-05
v -0.0010747896740213037 -0.002788051264360547 -4.26589249400422e-05
v -0.0010747896740213037 -0.002788051264360547 -4.26589249400422e-05
v -0.0010747896740213037 -0.002788051264360547 -4.26589249400422e-05
v -0.002469284925609827 -0.002551361219957471 -0.0001555482594994828
v -0.002469284925609827 -0.002551361219957471 -0.0001555482594994828
v -0.002469284925609827 -0.002551361219957471 -0.0001555482594994828
v 0.001962208654731512 0.002739858580753207 0.0001129613519879058
v 0.001962208654731512 0.002739858580753207 0.0001129613519879058
v 0.001962208654731512 0.002739858580753207 0.0001129613519879058
v 0.001962208654731512 0.002739858580753207 0.0001129613519879058
v 0.001962208654731512 0.002739858580753207 0.0001129613519879058
v 0.001962208654731512 0.002739858580753207 0.0001129613519879058
v 0.001962208654731512 0.002739858580753207 0.0001129613519879058
v 0.0014542130520567298 0.0015428781043738127 9.103056800086051e-05
v 0.0014542130520567298 0.0015428781043738127 9.103056800086051e-05
v 0.0014542130520567298 0.0015428781043738127 9.103056800086051e-05
v 0.002011911477893591 0.0027306198608130217 0.00011702191841322929
v 0.002011911477893591 0.0027306198608130217 0.00011702191841322929
v 0.002011911477893591 0.0027306198608130217 0.00011702191841322929
v 0.0023535131476819515 0.0026093877386301756 0.0001456321479054168
v 0.0023535131476819515 0.0026093877386301756 0.0001456321479054168
v -0.002285888884216547 -0.0019714117515832186 -0.00014982807624619454
v -0.002285888884216547 -0.0019714117515832186 -0.00014982807624619454
v -0.002285888884216547 -0.0019714117515832186 -0.00014982807624619454
v -0.0008667917572893202 -0.0021207809913903475 -3.6288678529672325e-05
v -0.0008667917572893202 -0.0021207809913903475 -3.6288678529672325e-05
v -0.0008667917572893202 -0.0021207809913903475 -3.6288678529672325e-05
v -0.002102984581142664 -0.0013912201393395662 -0.0001441693602828309
v -0.002102984581142664 -0.0013912201393395662 -0.0001441693602828309
v -0.002102984581142664 -0.0013912201393395662 -0.0001441693602828309
v -0.00065808609360829 -0.0014537416864186525 -2.99091207125457e-05
v -0.00065808609360829 -0.0014537416864186525 -2.99091207125457e-05
v -0.00065808609360829 -0.0014537416864186525 -2.99091207125457e-05
v -0.0017761873314157128 -0.0003538608434610069 -0.00013403843331616372
v -0.0017761873314157128 -0.0003538608434610069 -0.00013403843331616372
v -0.0017761873314157128 -0.0003538608434610069 -0.00013403843331616372
v -0.0017761873314157128 -0.0003538608434610069 -0.00013403843331616372
v 0.0032301112078130245 0.0006722368416376412 0.00024332043540198356
v 0.0032301112078130245 0.0006722368416376412 0.00024332043540198356
v 0.0032342090271413326 0.0006936274585314095 0.00024332043540198356
v 0.0032342090271413326 0.0006936274585314095 0.00024332043540198356
v 0.0032380088232457638 0.0007150292512960732 0.00024332043540198356
v 0.0032380088232457638 0.0007150292512960732 0.00024332043540198356
v 0.0009403093135915697 0.00017411709995940328 7.112075400073081e-05
v 0.0009403093135915697 0.00017411709995940328 7.112075400073081e-05
v 0.0006782127893529832 -0.0009650431456975639 6.761153053957969e-05
v 0.0006782127893529832 -0.0009650431456975639 6.761153053957969e-05
v 0.0006782127893529832 -0.0009650431456975639 6.761153053957969e-05
v 0.0006782127893529832 -0.0009650431456975639 6.761153053957969e-05
v 0.0006782127893529832 -0.0009650431456975639 6.761153053957969e-05
v 0.0012815085938200355 0.00021363870473578572 9.735052299220115e-05
v 0.0012815085938200355 0.00021363870473578572 9.735052299220115e-05
v 0.0012815085938200355 0.00021363870473578572 9.735052299220115e-05
v 0.001408310024999082 -0.0009860799182206392 0.0001251821668120101
v 0.001408310024999082 -0.0009860799182206392 0.0001251821668120101
v 0.001408310024999082 -0.0009860799182206392 0.0001251821668120101
v 0.0015757096698507667 0.00039095879765227437 0.00011773158621508628
v 0.0015757096698507667 0.00039095879765227437 0.00011773158621508628
v 0.0015757096698507667 0.00039095879765227437 0.00011773158621508628
v 0.0021077110432088375 -0.0007740698638372123 0.000176861256477423
v 0.0021077110432088375 -0.0007740698638372123 0.000176861256477423
v 0.0021077110432088375 -0.0007740698638372123 0.000176861256477423
v 0.0017471102764829993 0.0006252683815546334 0.0001276911498280242
v 0.0017471102764829993 0.0006252683815546334 0.0001276911498280242
v 0.0017471102764829993 0.0006252683815546334 0.0001276911498280242
v 0.0017471102764829993 0.0006252683815546334 0.0001276911498280242
v 0.00036221128539182246 0.0017468489240854979 2.340717628612765e-06
v 0.00036221128539182246 0.0017468489240854979 2.340717628612765e-06
v 0.00036221128539182246 0.0017468489240854979 2.340717628612765e-06
v -0.0006944896304048598 0.003081277711316943 -0.00010053876030724496
v -0.0006944896304048598 0.003081277711316943 -0.00010053876030724496
v -0.0006944896304048598 0.003081277711316943 -0.00010053876030724496
v 0.0003437114937696606 0.0017206191550940275 1.2715593129541958e-06
v 0.0003437114937696606 0.0017206191550940275 1.2715593129541958e-06
v 0.0003437114937696606 0.0017206191550940275 1.2715593129541958e-06
v -0.0008683861815370619 0.002525758696720004 -0.00010583798575680703
v -0.0008683861815370619 0.002525758696720004 -0.00010583798575680703
v -0.0008683861815370619 0.002525758696720004 -0.00010583798575680703
v 0.00033531468943692744 0.001700178487226367 9.120687991526211e-07
v 0.00033531468943692744 0.001700178487226367 9.120687991526211e-07
v 0.00033531468943692744 0.001700178487226367 9.120687991526211e-07
v -0.0010432886192575097 0.0019705488812178373 -0.0001112694590119645
v -0.0010432886192575097 0.0019705488812178373 -0.0001112694590119645
v -0.0010432886192575097 0.0019705488812178373 -0.0001112694590119645
v -0.0010432886192575097 0.0019705488812178373 -0.0001112694590119645
v -0.0010432886192575097 0.0019705488812178373 -0.0001112694590119645
v 0.00033000987605191767 0.0016849793028086424 7.313922196772182e-07
v 0.00033000987605191767 0.0016849793028086424 7.313922196772182e-07
v 0.0006631104624830186 0.001709718955680728 2.6480598535272293e-05
v 0.0006631104624830186 0.001709718955680728 2.6480598535272293e-05
v 0.0009673102176748216 0.00165332923643291 5.115133535582572e-05
v 0.0009673102176748216 0.00165332923643291 5.115133535582572e-05
v 0.0012714130571112037 0.0015965297352522612 7.58909882279113e-05
v 0.0012714130571112037 0.0015965297352522612 7.58909882279113e-05
v -0.002455590758472681 -0.0026683129835873842 -0.00015274870384018868
v -0.002455590758472681 -0.0026683129835873842 -0.00015274870384018868
v -0.002455590758472681 -0.0026683129835873842 -0.00015274870384018868
v -0.002455590758472681 -0.0026683129835873842 -0.00015274870384018868
v -0.00243779132142663 -0.0026855908799916506 -0.00015107791114132851
v -0.0011889847228303552 -0.002917330013588071 -4.9697860958985984e-05
v -0.0011889847228303552 -0.002917330013588071 -4.9697860958985984e-05
v -0.0004686849133577198 -0.0008460126700811088 -2.412933281448204e-05
v -0.0004686849133577198 -0.0008460126700811088 -2.412933281448204e-05
v -0.000445088924607262 -0.0007899805787019432 -2.3108603272703476e-05
v -0.000445088924607262 -0.0007899805787019432 -2.3108603272703476e-05
v -0.000445088924607262 -0.0007899805787019432 -2.3108603272703476e-05
v -0.0004278855340089649 -0.0007749006035737693 -2.1977977667120285e-05
v -0.0004278855340089649 -0.0007749006035737693 -2.1977977667120285e-05
v -0.0004278855340089649 -0.0007749006035737693 -2.1977977667120285e-05
v -0.00040388721390627325 -0.0007699012639932334 -2.0187975678709336e-05
v -0.00040388721390627325 -0.0007699012639932334 -2.0187975678709336e-05
v -0.00040388721390627325 -0.0007699012639932334 -2.0187975678709336e-05
v -4.848706885240972e-05 0.0003506101784296334 -9.049357686308213e-06
v -4.848706885240972e-05 0.0003506101784296334 -9.049357686308213e-06
v -4.848706885240972e-05 0.0003506101784296334 -9.049357686308213e-06
v -0.0003530891553964466 -0.0007756829145364463 -1.6138585124281235e-05
v -0.0003530891553964466 -0.0007756829145364463 -1.6138585124281235e-05
v -0.0003530891553964466 -0.0007756829145364463 -1.6138585124281235e-05
v -0.0003530891553964466 -0.0007756829145364463 -1.6138585124281235e-05
v -0.0005749897682107985 0.003210619790479541 -9.308817971032113e-05
v -0.0005749897682107985 0.003210619790479541 -9.308817971032113e-05
v -0.0005749897682107985 0.003210619790479541 -9.308817971032113e-05
v 0.0004260106070432812 0.0017534687649458647 7.232023563119583e-06
v 0.0004260106070432812 0.0017534687649458647 7.232023563119583e-06
v 0.0004260106070432812 0.0017534687649458647 7.232023563119583e-06
v 0.0005446089780889452 0.0017318285536020994 1.682092079136055e-05
v 0.0005446089780889452 0.0017318285536020994 1.682092079136055e-05
v -0.0024767876602709293 -0.0026244402397423983 -0.0001550788729218766
v -0.0024767876602709293 -0.0026244402397423983 -0.0001550788729218766
v -0.0011288883397355676 -0.002883120672777295 -4.5458480599336326e-05
v -0.0011288883397355676 -0.002883120672777295 -4.5458480599336326e-05
v 0.002753214444965124 -0.00027828215388581157 0.00022013050329405814
v 0.002753214444965124 -0.00027828215388581157 0.00022013050329405814
v 0.0031617148779332638 0.0004257679102011025 0.00024165150534827262
v 0.0031617148779332638 0.0004257679102011025 0.00024165150534827262
v 0.0031617148779332638 0.0004257679102011025 0.00024165150534827262
v 0.0031999140046536922 0.0005478382227011025 0.0002427821309538558
v 0.0031999140046536922 0.0005478382227011025 0.0002427821309538558
v -7.419157191179693e-05 0.0003801070270128548 -1.1489422831800766e-05
v -7.419157191179693e-05 0.0003801070270128548 -1.1489422831800766e-05
v -6.4990104874596e-05 0.00041968823643401265 -1.1368350897100754e-05
v -6.4990104874596e-05 0.00041968823643401265 -1.1368350897100754e-05
v -6.4990104874596e-05 0.00041968823643401265 -1.1368350897100754e-05
v -0.001225686282850802 0.0013923801016062498 -0.00011692817497532815
v -0.001225686282850802 0.0013923801016062498 -0.00011692817497532815
v -0.001225686282850802 0.0013923801016062498 -0.00011692817497532815
v 0.00013011079863645136 0.0010446503292769194 -5.407886419561692e-06
v 0.00013011079863645136 0.0010446503292769194 -5.407886419561692e-06
v 0.00013011079863645136 0.0010446503292769194 -5.407886419561692e-06
v 0.0003252117021474987 0.0016695975791662931 5.507156402018154e-07
v 0.0003252117021474987 0.0016695975791662931 5.507156402018154e-07
v 0.0006828097975812852 0.00021273718448355794 5.038206290919334e-05
v 0.0006828097975812852 0.00021273718448355794 5.038206290919334e-05
v 0.0004542110546026379 0.00025601760717108846 3.1781688448973e-05
v 0.0004542110546026379 0.00025601760717108846 3.1781688448973e-05
v 0.0004542110546026379 0.00025601760717108846 3.1781688448973e-05
v 0.0001621110423002392 -0.0008727230015210807 2.5761617507669143e-05
v 0.0001621110423002392 -0.0008727230015210807 2.5761617507669143e-05
v 0.0001621110423002392 -0.0008727230015210807 2.5761617507669143e-05
v 0.00020311158732511103 0.00030250923009589314 1.1400623407098465e-05
v 0.00020311158732511103 0.00030250923009589314 1.1400623407098465e-05
v 0.00020311158732511103 0.00030250923009589314 1.1400623407098465e-05
v -2.0688950826297514e-05 0.0003442287561483681 -6.778793249395676e-06
v -2.0688950826297514e-05 0.0003442287561483681 -6.778793249395676e-06
f 1 4 16
f 20 22 24
f 2 31 7
f 8 32 33
f 10 34 36
f 37 41 44
f 35 47 9
f 6 46 50
f 5 48 51
f 57 59 62
f 71 73 75
f 76 74 54
f 77 53 78
f 79 52 49
f 64 61 80
f 81 60 85
f 82 83 86
f 87 84 90
f 88 89 95
f 96 98 11
f 12 99 100
f 14 101 3
f 102 106 111
f 109 105 112
f 110 113 115
f 117 114 120
f 116 119 123
f 45 40 125
f 126 39 129
f 127 128 131
f 132 130 134
f 133 135 137
f 139 136 141
f 138 140 146
f 148 150 67
f 65 149 152
f 68 151 72
f 155 157 158
f 91 161 92
f 93 160 164
f 94 162 25
f 27 163 165
f 30 166 19
f 21 167 170
f 18 169 173
f 171 168 174
f 38 42 180
f 178 43 183
f 179 182 69
f 66 181 185
f 70 184 147
f 63 186 55
f 58 187 153
f 56 154 189
f 188 156 159
f 118 190 121
f 122 191 194
f 124 193 13
f 17 192 196
f 15 195 97
f 23 197 29
f 28 198 201
f 26 200 204
f 203 199 206
f 202 207 143
f 142 205 208
f 144 209 145
f 103 210 107
f 104 211 214
f 108 212 216
f 217 213 218
f 215 219 175
f 176 220 221
f 177 222 172
