mtllib converted_link2_8_d12626ff.mtl
usemtl material
v -0.0016456794692203403 0.0003423510061111301 -5.0010159611701965e-05
v -0.0016456794692203403 0.0003423510061111301 -5.0010159611701965e-05
v -0.0016456794692203403 0.0003423510061111301 5.0010159611701965e-05
v -0.0016456794692203403 0.0003423510061111301 5.0010159611701965e-05
v -0.0016456794692203403 0.0003423510061111301 5.0010159611701965e-05
v -0.0016754817916080356 0.0004235884116496891 5.0010159611701965e-05
v -0.0016754817916080356 0.0004235884116496891 5.0010159611701965e-05
v -0.0016754817916080356 0.0004235884116496891 5.0010159611701965e-05
v -0.0016754817916080356 0.0004235884116496891 -5.0010159611701965e-05
v -0.0016754817916080356 0.0004235884116496891 -5.0010159611701965e-05
v -0.0016754817916080356 0.0004235884116496891 -5.0010159611701965e-05
v -0.0016760778380557895 0.0005075079970993102 5.0010159611701965e-05
v -0.0016760778380557895 0.0005075079970993102 5.0010159611701965e-05
v -0.0016760778380557895 0.0005075079970993102 5.0010159611701965e-05
v -0.0016760778380557895 0.0005075079970993102 -5.0010159611701965e-05
v -0.0016760778380557895 0.0005075079970993102 -5.0010159611701965e-05
v -0.0016760778380557895 0.0005075079970993102 -5.0010159611701965e-05
v -0.0016760778380557895 0.0005075079970993102 -5.0010159611701965e-05
v -0.001646871562115848 0.0005908986204303801 5.0010159611701965e-05
v -0.001646871562115848 0.0005908986204303801 5.0010159611701965e-05
v -0.001646871562115848 0.0005908986204303801 -5.0010159611701965e-05
v -0.001646871562115848 0.0005908986204303801 -5.0010159611701965e-05
v -0.001589263672940433 0.0006598611944355071 5.0010159611701965e-05
v -0.001589263672940433 0.0006598611944355071 5.0010159611701965e-05
v -0.001589263672940433 0.0006598611944355071 5.0010159611701965e-05
v -0.001589263672940433 0.0006598611944355071 5.0010159611701965e-05
v -0.001589263672940433 0.0006598611944355071 5.0010159611701965e-05
v -0.001589263672940433 0.0006598611944355071 -5.0010159611701965e-05
v -0.001589263672940433 0.0006598611944355071 -5.0010159611701965e-05
v -0.001589263672940433 0.0006598611944355071 -5.0010159611701965e-05
v -0.0015549611998721957 0.0006837589317001402 5.0010159611701965e-05
v -0.0015549611998721957 0.0006837589317001402 5.0010159611701965e-05
v -0.0015549611998721957 0.0006837589317001402 5.0010159611701965e-05
v -0.0015549611998721957 0.0006837589317001402 -5.0010159611701965e-05
v -0.0015549611998721957 0.0006837589317001402 -5.0010159611701965e-05
v -0.0015549611998721957 0.0006837589317001402 -5.0010159611701965e-05
v -0.001473064417950809 0.0007136804633773863 5.0010159611701965e-05
v -0.001473064417950809 0.0007136804633773863 5.0010159611701965e-05
v -0.001473064417950809 0.0007136804633773863 5.0010159611701965e-05
v -0.001473064417950809 0.0007136804633773863 -5.0010159611701965e-05
v -0.001473064417950809 0.0007136804633773863 -5.0010159611701965e-05
v -0.0013887834502384067 0.0007142206304706633 5.0010159611701965e-05
v -0.0013887834502384067 0.0007142206304706633 5.0010159611701965e-05
v -0.0013887834502384067 0.0007142206304706633 5.0010159611701965e-05
v -0.0013887834502384067 0.0007142206304706633 -5.0010159611701965e-05
v -0.0013887834502384067 0.0007142206304706633 -5.0010159611701965e-05
v -0.0013887834502384067 0.0007142206304706633 -5.0010159611701965e-05
v -0.0013508748961612582 0.0007048589759506285 5.0010159611701965e-05
v -0.0013508748961612582 0.0007048589759506285 5.0010159611701965e-05
v -0.0013508748961612582 0.0007048589759506285 5.0010159611701965e-05
v -0.0013508748961612582 0.0007048589759506285 5.0010159611701965e-05
v -0.0013508748961612582 0.0007048589759506285 -5.0010159611701965e-05
v -0.0013508748961612582 0.0007048589759506285 -5.0010159611701965e-05
v -0.0013431858969852328 0.0007020612829364836 -5.0010159611701965e-05
v -0.0013431858969852328 0.0007020612829364836 -5.0010159611701965e-05
v -0.0013431858969852328 0.0007020612829364836 -5.0010159611701965e-05
v -0.0013431858969852328 0.0007020612829364836 5.0010159611701965e-05
v -0.0013431858969852328 0.0007020612829364836 5.0010159611701965e-05
v -0.0013431858969852328 0.0007020612829364836 5.0010159611701965e-05
v -0.0013431858969852328 0.0007020612829364836 5.0010159611701965e-05
v -0.0006655704928562045 0.0004747888015117496 -5.0010159611701965e-05
v -0.0006655704928562045 0.0004747888015117496 -5.0010159611701965e-05
v -0.0006655704928562045 0.0004747888015117496 5.0010159611701965e-05
v -0.0006655704928562045 0.0004747888015117496 5.0010159611701965e-05
v -0.0006655704928562045 0.0004747888015117496 5.0010159611701965e-05
v -0.00043057918082922697 0.00039677004679106176 -5.0010159611701965e-05
v -0.00043057918082922697 0.00039677004679106176 -5.0010159611701965e-05
v -0.00043057918082922697 0.00039677004679106176 -5.0010159611701965e-05
v -0.00043057918082922697 0.00039677004679106176 5.0010159611701965e-05
v -0.00043057918082922697 0.00039677004679106176 5.0010159611701965e-05
v -0.00043057918082922697 0.00039677004679106176 5.0010159611701965e-05
v -0.0004074823809787631 0.0003894312249030918 -5.0010159611701965e-05
v -0.0004074823809787631 0.0003894312249030918 -5.0010159611701965e-05
v -0.0004074823809787631 0.0003894312249030918 -5.0010159611701965e-05
v -0.0004074823809787631 0.0003894312249030918 -5.0010159611701965e-05
v -0.0004074823809787631 0.0003894312249030918 5.0010159611701965e-05
v -0.0004074823809787631 0.0003894312249030918 5.0010159611701965e-05
v -0.0004074823809787631 0.0003894312249030918 5.0010159611701965e-05
v -0.0003859651042148471 0.0003827592299785465 -5.0010159611701965e-05
v -0.0003859651042148471 0.0003827592299785465 -5.0010159611701965e-05
v -0.0003859651042148471 0.0003827592299785465 -5.0010159611701965e-05
v -0.0003859651042148471 0.0003827592299785465 -5.0010159611701965e-05
v -0.0003859651042148471 0.0003827592299785465 5.0010159611701965e-05
v -0.0003859651042148471 0.0003827592299785465 5.0010159611701965e-05
v -0.0003859651042148471 0.0003827592299785465 5.0010159611701965e-05
v -0.0003859651042148471 0.0003827592299785465 5.0010159611701965e-05
v -0.00018196819291915745 0.00032088960870169103 -5.0010159611701965e-05
v -0.00018196819291915745 0.00032088960870169103 -5.0010159611701965e-05
v -0.00018196819291915745 0.00032088960870169103 -5.0010159611701965e-05
v -0.00018196819291915745 0.00032088960870169103 -5.0010159611701965e-05
v -0.00018196819291915745 0.00032088960870169103 -5.0010159611701965e-05
v -0.00018196819291915745 0.00032088960870169103 -5.0010159611701965e-05
v -0.00018196819291915745 0.00032088960870169103 -5.0010159611701965e-05
v -0.00018196819291915745 0.00032088960870169103 5.0010159611701965e-05
v -0.00018196819291915745 0.00032088960870169103 5.0010159611701965e-05
v -0.00018196819291915745 0.00032088960870169103 5.0010159611701965e-05
v -0.00018196819291915745 0.00032088960870169103 5.0010159611701965e-05
v -0.00018196819291915745 0.00032088960870169103 5.0010159611701965e-05
v -0.00018196819291915745 0.00032088960870169103 5.0010159611701965e-05
v -0.00018196819291915745 0.00032088960870169103 5.0010159611701965e-05
v -0.00018196819291915745 0.00032088960870169103 5.0010159611701965e-05
v -0.00018196819291915745 0.00032088960870169103 5.0010159611701965e-05
v -0.00018196819291915745 0.00032088960870169103 5.0010159611701965e-05
v -0.00017666337953414768 0.00034479107125662267 -5.0010159611701965e-05
v -0.00017666337953414768 0.00034479107125662267 -5.0010159611701965e-05
v -0.00017666337953414768 0.00034479107125662267 -5.0010159611701965e-05
v -0.00017666337953414768 0.00034479107125662267 -5.0010159611701965e-05
v -0.00017666337953414768 0.00034479107125662267 5.0010159611701965e-05
v -0.00017666337953414768 0.00034479107125662267 5.0010159611701965e-05
v -0.00017666337953414768 0.00034479107125662267 5.0010159611701965e-05
v -0.00017666337953414768 0.00034479107125662267 5.0010159611701965e-05
v -0.00017666337953414768 0.00034479107125662267 5.0010159611701965e-05
v -8.636234269943088e-05 0.0008091708295978606 -5.0010159611701965e-05
v -8.636234269943088e-05 0.0008091708295978606 -5.0010159611701965e-05
v -8.636234269943088e-05 0.0008091708295978606 -5.0010159611701965e-05
v -8.636234269943088e-05 0.0008091708295978606 -5.0010159611701965e-05
v -8.636234269943088e-05 0.0008091708295978606 -5.0010159611701965e-05
v -8.636234269943088e-05 0.0008091708295978606 -5.0010159611701965e-05
v -8.636234269943088e-05 0.0008091708295978606 5.0010159611701965e-05
v -8.636234269943088e-05 0.0008091708295978606 5.0010159611701965e-05
v -8.636234269943088e-05 0.0008091708295978606 5.0010159611701965e-05
v 4.9834270612336695e-05 0.001508869812823832 -5.0010159611701965e-05
v 4.9834270612336695e-05 0.001508869812823832 -5.0010159611701965e-05
v 4.9834270612336695e-05 0.001508869812823832 -5.0010159611701965e-05
v 4.9834270612336695e-05 0.001508869812823832 -5.0010159611701965e-05
v 4.9834270612336695e-05 0.001508869812823832 5.0010159611701965e-05
v 4.9834270612336695e-05 0.001508869812823832 5.0010159611701965e-05
v 4.9834270612336695e-05 0.001508869812823832 5.0010159611701965e-05
v 5.1622409955598414e-05 0.0015183506766334176 -5.0010159611701965e-05
v 5.1622409955598414e-05 0.0015183506766334176 -5.0010159611701965e-05
v 5.1622409955598414e-05 0.0015183506766334176 -5.0010159611701965e-05
v 5.1622409955598414e-05 0.0015183506766334176 5.0010159611701965e-05
v 5.1622409955598414e-05 0.0015183506766334176 5.0010159611701965e-05
v 8.35108949104324e-05 0.0016000015893951058 5.0010159611701965e-05
v 8.35108949104324e-05 0.0016000015893951058 5.0010159611701965e-05
v 8.35108949104324e-05 0.0016000015893951058 -5.0010159611701965e-05
v 8.35108949104324e-05 0.0016000015893951058 -5.0010159611701965e-05
v 8.35108949104324e-05 0.0016000015893951058 -5.0010159611701965e-05
v 0.0001433241559425369 0.0016663415590301156 5.0010159611701965e-05
v 0.0001433241559425369 0.0016663415590301156 5.0010159611701965e-05
v 0.0001433241559425369 0.0016663415590301156 -5.0010159611701965e-05
v 0.0001433241559425369 0.0016663415590301156 -5.0010159611701965e-05
v 0.0001433241559425369 0.0016663415590301156 -5.0010159611701965e-05
v 0.00017101051344070584 0.0016848189989104867 5.0010159611701965e-05
v 0.00017101051344070584 0.0016848189989104867 5.0010159611701965e-05
v 0.00017101051344070584 0.0016848189989104867 5.0010159611701965e-05
v 0.00017101051344070584 0.0016848189989104867 5.0010159611701965e-05
v 0.00017101051344070584 0.0016848189989104867 -5.0010159611701965e-05
v 0.00017101051344070584 0.0016848189989104867 -5.0010159611701965e-05
v 0.00017101051344070584 0.0016848189989104867 -5.0010159611701965e-05
v 0.00017101051344070584 0.0016848189989104867 -5.0010159611701965e-05
v 0.00017101051344070584 0.0016848189989104867 -5.0010159611701965e-05
v 0.00025201321113854647 0.0017148001352325082 5.0010159611701965e-05
v 0.00025201321113854647 0.0017148001352325082 5.0010159611701965e-05
v 0.00025201321113854647 0.0017148001352325082 5.0010159611701965e-05
v 0.00025201321113854647 0.0017148001352325082 -5.0010159611701965e-05
v 0.00025201321113854647 0.0017148001352325082 -5.0010159611701965e-05
v 0.00025201321113854647 0.0017148001352325082 -5.0010159611701965e-05
v 0.0003356385277584195 0.0017156383255496621 5.0010159611701965e-05
v 0.0003356385277584195 0.0017156383255496621 5.0010159611701965e-05
v 0.0003356385277584195 0.0017156383255496621 5.0010159611701965e-05
v 0.0003356385277584195 0.0017156383255496621 -5.0010159611701965e-05
v 0.0003356385277584195 0.0017156383255496621 -5.0010159611701965e-05
v 0.0004189360188320279 0.0016865512588992715 5.0010159611701965e-05
v 0.0004189360188320279 0.0016865512588992715 5.0010159611701965e-05
v 0.0004189360188320279 0.0016865512588992715 -5.0010159611701965e-05
v 0.0004189360188320279 0.0016865512588992715 -5.0010159611701965e-05
v 0.0004878389881923795 0.001629029051400721 5.0010159611701965e-05
v 0.0004878389881923795 0.001629029051400721 5.0010159611701965e-05
v 0.0004878389881923795 0.001629029051400721 5.0010159611701965e-05
v 0.0004878389881923795 0.001629029051400721 5.0010159611701965e-05
v 0.0004878389881923795 0.001629029051400721 -5.0010159611701965e-05
v 0.0004878389881923795 0.001629029051400721 -5.0010159611701965e-05
v 0.0004878389881923795 0.001629029051400721 -5.0010159611701965e-05
v 0.0004878389881923795 0.001629029051400721 -5.0010159611701965e-05
v 0.0005121278809383512 0.001594219938851893 5.0010159611701965e-05
v 0.0005121278809383512 0.001594219938851893 5.0010159611701965e-05
v 0.0005121278809383512 0.001594219938851893 5.0010159611701965e-05
v 0.0005121278809383512 0.001594219938851893 -5.0010159611701965e-05
v 0.0005121278809383512 0.001594219938851893 -5.0010159611701965e-05
v 0.0005121278809383512 0.001594219938851893 -5.0010159611701965e-05
v 0.0005121278809383512 0.001594219938851893 -5.0010159611701965e-05
v 0.0005417215870693326 0.001513280556537211 5.0010159611701965e-05
v 0.0005417215870693326 0.001513280556537211 5.0010159611701965e-05
v 0.0005417215870693326 0.001513280556537211 5.0010159611701965e-05
v 0.0005417215870693326 0.001513280556537211 -5.0010159611701965e-05
v 0.0005417215870693326 0.001513280556537211 -5.0010159611701965e-05
v 0.0005422282265499234 0.0014296515146270394 5.0010159611701965e-05
v 0.0005422282265499234 0.0014296515146270394 5.0010159611701965e-05
v 0.0005422282265499234 0.0014296515146270394 -5.0010159611701965e-05
v 0.0005422282265499234 0.0014296515146270394 -5.0010159611701965e-05
v 0.0005422282265499234 0.0014296515146270394 -5.0010159611701965e-05
v 0.0005422282265499234 0.0014296515146270394 -5.0010159611701965e-05
v 0.0005422282265499234 0.0014296515146270394 -5.0010159611701965e-05
v 0.0005422282265499234 0.0014296515146270394 -5.0010159611701965e-05
v 0.0005422282265499234 0.0014296515146270394 -5.0010159611701965e-05
v 0.0005272376583889127 0.001375709311105311 5.0010159611701965e-05
v 0.0005272376583889127 0.001375709311105311 5.0010159611701965e-05
v 0.0005272376583889127 0.001375709311105311 -5.0010159611701965e-05
v 0.0005272376583889127 0.001375709311105311 -5.0010159611701965e-05
v 0.0005272376583889127 0.001375709311105311 -5.0010159611701965e-05
v 0.0005272376583889127 0.001375709311105311 -5.0010159611701965e-05
v 0.000302826170809567 0.0002520499692764133 -5.0010159611701965e-05
v 0.000302826170809567 0.0002520499692764133 -5.0010159611701965e-05
v 0.000302826170809567 0.0002520499692764133 -5.0010159611701965e-05
v 0.000302826170809567 0.0002520499692764133 -5.0010159611701965e-05
v 0.000302826170809567 0.0002520499692764133 5.0010159611701965e-05
v 0.000302826170809567 0.0002520499692764133 5.0010159611701965e-05
v 0.000302826170809567 0.0002520499692764133 5.0010159611701965e-05
v 0.000298713450320065 0.00022754872043151408 5.0010159611701965e-05
v 0.000298713450320065 0.00022754872043151408 5.0010159611701965e-05
v 0.000298713450320065 0.00022754872043151408 5.0010159611701965e-05
v 0.000298713450320065 0.00022754872043151408 -5.0010159611701965e-05
v 0.000298713450320065 0.00022754872043151408 -5.0010159611701965e-05
v 0.00029293179977685213 0.0002032300253631547 5.0010159611701965e-05
v 0.00029293179977685213 0.0002032300253631547 5.0010159611701965e-05
v 0.00029293179977685213 0.0002032300253631547 5.0010159611701965e-05
v 0.00029293179977685213 0.0002032300253631547 -5.0010159611701965e-05
v 0.00029293179977685213 0.0002032300253631547 -5.0010159611701965e-05
v 0.00029293179977685213 0.0002032300253631547 -5.0010159611701965e-05
v 0.00029033899772912264 0.00018565038044471294 5.0010159611701965e-05
v 0.00029033899772912264 0.00018565038044471294 5.0010159611701965e-05
v 0.00029033899772912264 0.00018565038044471294 -5.0010159611701965e-05
v 0.00029033899772912264 0.00018565038044471294 -5.0010159611701965e-05
v 0.00029033899772912264 0.00018565038044471294 -5.0010159611701965e-05
v 0.00029033899772912264 0.00018565038044471294 -5.0010159611701965e-05
v 0.0002866137074306607 0.00016776153643149883 5.0010159611701965e-05
v 0.0002866137074306607 0.00016776153643149883 5.0010159611701965e-05
v 0.0002866137074306607 0.00016776153643149883 5.0010159611701965e-05
v 0.0002866137074306607 0.00016776153643149883 -5.0010159611701965e-05
v 0.0002866137074306607 0.00016776153643149883 -5.0010159611701965e-05
v 0.0002866137074306607 0.00016776153643149883 -5.0010159611701965e-05
v 0.0002866137074306607 0.00016776153643149883 -5.0010159611701965e-05
v 0.0002866137074306607 0.00016776153643149883 -5.0010159611701965e-05
v 0.00030422687996178865 0.00016424858768004924 5.0010159611701965e-05
v 0.00030422687996178865 0.00016424858768004924 5.0010159611701965e-05
v 0.00030422687996178865 0.00016424858768004924 -5.0010159611701965e-05
v 0.00030422687996178865 0.00016424858768004924 -5.0010159611701965e-05
v 0.00030422687996178865 0.00016424858768004924 -5.0010159611701965e-05
v 0.00032213807571679354 0.00015971863467711955 5.0010159611701965e-05
v 0.00032213807571679354 0.00015971863467711955 5.0010159611701965e-05
v 0.00032213807571679354 0.00015971863467711955 5.0010159611701965e-05
v 0.00032213807571679354 0.00015971863467711955 -5.0010159611701965e-05
v 0.00032213807571679354 0.00015971863467711955 -5.0010159611701965e-05
v 0.00032213807571679354 0.00015971863467711955 -5.0010159611701965e-05
v 0.0003242242382839322 0.0001593610068084672 -5.0010159611701965e-05
v 0.0003242242382839322 0.0001593610068084672 -5.0010159611701965e-05
v 0.0003242242382839322 0.0001593610068084672 -5.0010159611701965e-05
v 0.0003242242382839322 0.0001593610068084672 5.0010159611701965e-05
v 0.0003242242382839322 0.0001593610068084672 5.0010159611701965e-05
v 0.0003242242382839322 0.0001593610068084672 5.0010159611701965e-05
v 0.0003720271633937955 0.00014320814807433635 -5.0010159611701965e-05
v 0.0003720271633937955 0.00014320814807433635 -5.0010159611701965e-05
v 0.0003720271633937955 0.00014320814807433635 -5.0010159611701965e-05
v 0.0003720271633937955 0.00014320814807433635 -5.0010159611701965e-05
v 0.0003720271633937955 0.00014320814807433635 -5.0010159611701965e-05
v 0.0003720271633937955 0.00014320814807433635 5.0010159611701965e-05
v 0.0003720271633937955 0.00014320814807433635 5.0010159611701965e-05
v 0.0003720271633937955 0.00014320814807433635 5.0010159611701965e-05
v 0.0005054223584011197 9.964088530978188e-05 -5.0010159611701965e-05
v 0.0005054223584011197 9.964088530978188e-05 -5.0010159611701965e-05
v 0.0005054223584011197 9.964088530978188e-05 -5.0010159611701965e-05
v 0.0005054223584011197 9.964088530978188e-05 -5.0010159611701965e-05
v 0.0005054223584011197 9.964088530978188e-05 -5.0010159611701965e-05
v 0.0005054223584011197 9.964088530978188e-05 -5.0010159611701965e-05
v 0.0005054223584011197 9.964088530978188e-05 5.0010159611701965e-05
v 0.0005054223584011197 9.964088530978188e-05 5.0010159611701965e-05
v 0.0005054223584011197 9.964088530978188e-05 5.0010159611701965e-05
v 0.0005054223584011197 9.964088530978188e-05 5.0010159611701965e-05
v 0.0005054223584011197 9.964088530978188e-05 5.0010159611701965e-05
v 0.0005844283150509 7.36495348974131e-05 -5.0010159611701965e-05
v 0.0005844283150509 7.36495348974131e-05 -5.0010159611701965e-05
v 0.0005844283150509 7.36495348974131e-05 -5.0010159611701965e-05
v 0.0005844283150509 7.36495348974131e-05 -5.0010159611701965e-05
v 0.0005844283150509 7.36495348974131e-05 -5.0010159611701965e-05
v 0.0005844283150509 7.36495348974131e-05 5.0010159611701965e-05
v 0.0005844283150509 7.36495348974131e-05 5.0010159611701965e-05
v 0.0005844283150509 7.36495348974131e-05 5.0010159611701965e-05
v 0.0005844283150509 7.36495348974131e-05 5.0010159611701965e-05
v 0.0005844283150509 7.36495348974131e-05 5.0010159611701965e-05
v 0.0015027272747829556 -0.00022949969570618123 -5.0010159611701965e-05
v 0.0015027272747829556 -0.00022949969570618123 -5.0010159611701965e-05
v 0.0015027272747829556 -0.00022949969570618123 -5.0010159611701965e-05
v 0.0015027272747829556 -0.00022949969570618123 -5.0010159611701965e-05
v 0.0015027272747829556 -0.00022949969570618123 5.0010159611701965e-05
v 0.0015027272747829556 -0.00022949969570618123 5.0010159611701965e-05
v 0.001514618401415646 -0.00023373162548523396 -5.0010159611701965e-05
v 0.001514618401415646 -0.00023373162548523396 -5.0010159611701965e-05
v 0.001514618401415646 -0.00023373162548523396 -5.0010159611701965e-05
v 0.001514618401415646 -0.00023373162548523396 -5.0010159611701965e-05
v 0.001514618401415646 -0.00023373162548523396 -5.0010159611701965e-05
v 0.001514618401415646 -0.00023373162548523396 -5.0010159611701965e-05
v 0.001514618401415646 -0.00023373162548523396 -5.0010159611701965e-05
v 0.001514618401415646 -0.00023373162548523396 5.0010159611701965e-05
v 0.001514618401415646 -0.00023373162548523396 5.0010159611701965e-05
v 0.001514618401415646 -0.00023373162548523396 5.0010159611701965e-05
v 0.0015885281609371305 -0.0002755219175014645 5.0010159611701965e-05
v 0.0015885281609371305 -0.0002755219175014645 5.0010159611701965e-05
v 0.0015885281609371305 -0.0002755219175014645 -5.0010159611701965e-05
v 0.0015885281609371305 -0.0002755219175014645 -5.0010159611701965e-05
v 0.0015885281609371305 -0.0002755219175014645 -5.0010159611701965e-05
v 0.0016456294106319547 -0.000342569692293182 5.0010159611701965e-05
v 0.0016456294106319547 -0.000342569692293182 5.0010159611701965e-05
v 0.0016456294106319547 -0.000342569692293182 -5.0010159611701965e-05
v 0.0016456294106319547 -0.000342569692293182 -5.0010159611701965e-05
v 0.00167543173301965 -0.00042387042776681483 5.0010159611701965e-05
v 0.00167543173301965 -0.00042387042776681483 5.0010159611701965e-05
v 0.00167543173301965 -0.00042387042776681483 5.0010159611701965e-05
v 0.00167543173301965 -0.00042387042776681483 -5.0010159611701965e-05
v 0.00167543173301965 -0.00042387042776681483 -5.0010159611701965e-05
v 0.001676117186434567 -0.0005077416426502168 5.0010159611701965e-05
v 0.001676117186434567 -0.0005077416426502168 5.0010159611701965e-05
v 0.001676117186434567 -0.0005077416426502168 5.0010159611701965e-05
v 0.001676117186434567 -0.0005077416426502168 -5.0010159611701965e-05
v 0.001676117186434567 -0.0005077416426502168 -5.0010159611701965e-05
v 0.0016468215035274625 -0.000591061485465616 5.0010159611701965e-05
v 0.0016468215035274625 -0.000591061485465616 5.0010159611701965e-05
v 0.0016468215035274625 -0.000591061485465616 -5.0010159611701965e-05
v 0.0016468215035274625 -0.000591061485465616 -5.0010159611701965e-05
v 0.0015891242073848844 -0.0006600799388252199 5.0010159611701965e-05
v 0.0015891242073848844 -0.0006600799388252199 5.0010159611701965e-05
v 0.0015891242073848844 -0.0006600799388252199 5.0010159611701965e-05
v 0.0015891242073848844 -0.0006600799388252199 5.0010159611701965e-05
v 0.0015891242073848844 -0.0006600799388252199 -5.0010159611701965e-05
v 0.0015891242073848844 -0.0006600799388252199 -5.0010159611701965e-05
v 0.0015891242073848844 -0.0006600799388252199 -5.0010159611701965e-05
v 0.0015891242073848844 -0.0006600799388252199 -5.0010159611701965e-05
v 0.001555030350573361 -0.0006840484566055238 5.0010159611701965e-05
v 0.001555030350573361 -0.0006840484566055238 5.0010159611701965e-05
v 0.001555030350573361 -0.0006840484566055238 5.0010159611701965e-05
v 0.001555030350573361 -0.0006840484566055238 -5.0010159611701965e-05
v 0.001555030350573361 -0.0006840484566055238 -5.0010159611701965e-05
v 0.001555030350573361 -0.0006840484566055238 -5.0010159611701965e-05
v 0.001555030350573361 -0.0006840484566055238 -5.0010159611701965e-05
v 0.0014731335686519742 -0.0007139699882827699 5.0010159611701965e-05
v 0.0014731335686519742 -0.0007139699882827699 5.0010159611701965e-05
v 0.0014731335686519742 -0.0007139699882827699 5.0010159611701965e-05
v 0.0014731335686519742 -0.0007139699882827699 -5.0010159611701965e-05
v 0.0014731335686519742 -0.0007139699882827699 -5.0010159611701965e-05
v 0.0013889122055843472 -0.0007143201655708253 5.0010159611701965e-05
v 0.0013889122055843472 -0.0007143201655708253 5.0010159611701965e-05
v 0.0013889122055843472 -0.0007143201655708253 5.0010159611701965e-05
v 0.0013889122055843472 -0.0007143201655708253 -5.0010159611701965e-05
v 0.0013889122055843472 -0.0007143201655708253 -5.0010159611701965e-05
v 0.0013889122055843472 -0.0007143201655708253 -5.0010159611701965e-05
v 0.0013509142445400357 -0.0007047312683425844 5.0010159611701965e-05
v 0.0013509142445400357 -0.0007047312683425844 5.0010159611701965e-05
v 0.0013509142445400357 -0.0007047312683425844 -5.0010159611701965e-05
v 0.0013509142445400357 -0.0007047312683425844 -5.0010159611701965e-05
v 0.0013509142445400357 -0.0007047312683425844 -5.0010159611701965e-05
v 0.0013418245362117887 -0.0007015684968791902 -5.0010159611701965e-05
v 0.0013418245362117887 -0.0007015684968791902 -5.0010159611701965e-05
v 0.0013418245362117887 -0.0007015684968791902 -5.0010159611701965e-05
v 0.0013418245362117887 -0.0007015684968791902 -5.0010159611701965e-05
v 0.0013418245362117887 -0.0007015684968791902 -5.0010159611701965e-05
v 0.0013418245362117887 -0.0007015684968791902 5.0010159611701965e-05
v 0.0013418245362117887 -0.0007015684968791902 5.0010159611701965e-05
v 0.0013418245362117887 -0.0007015684968791902 5.0010159611701965e-05
v 0.0013418245362117887 -0.0007015684968791902 5.0010159611701965e-05
v 0.0006659376667812467 -0.0004750112129841 -5.0010159611701965e-05
v 0.0006659376667812467 -0.0004750112129841 -5.0010159611701965e-05
v 0.0006659376667812467 -0.0004750112129841 -5.0010159611701965e-05
v 0.0006659376667812467 -0.0004750112129841 -5.0010159611701965e-05
v 0.0006659376667812467 -0.0004750112129841 5.0010159611701965e-05
v 0.0006659376667812467 -0.0004750112129841 5.0010159611701965e-05
v 0.0006659376667812467 -0.0004750112129841 5.0010159611701965e-05
v 0.0006659376667812467 -0.0004750112129841 5.0010159611701965e-05
v 0.0006659376667812467 -0.0004750112129841 5.0010159611701965e-05
v 0.0004310357617214322 -0.0003959791793022305 -5.0010159611701965e-05
v 0.0004310357617214322 -0.0003959791793022305 -5.0010159611701965e-05
v 0.0004310357617214322 -0.0003959791793022305 5.0010159611701965e-05
v 0.0004310357617214322 -0.0003959791793022305 5.0010159611701965e-05
v 0.0004310357617214322 -0.0003959791793022305 5.0010159611701965e-05
v 0.0004074323223903775 -0.00038966108695603907 -5.0010159611701965e-05
v 0.0004074323223903775 -0.00038966108695603907 -5.0010159611701965e-05
v 0.0004074323223903775 -0.00038966108695603907 -5.0010159611701965e-05
v 0.0004074323223903775 -0.00038966108695603907 -5.0010159611701965e-05
v 0.0004074323223903775 -0.00038966108695603907 5.0010159611701965e-05
v 0.0004074323223903775 -0.00038966108695603907 5.0010159611701965e-05
v 0.0004074323223903775 -0.00038966108695603907 5.0010159611701965e-05
v 0.0003860342549160123 -0.00038298164145089686 -5.0010159611701965e-05
v 0.0003860342549160123 -0.00038298164145089686 -5.0010159611701965e-05
v 0.0003860342549160123 -0.00038298164145089686 -5.0010159611701965e-05
v 0.0003860342549160123 -0.00038298164145089686 -5.0010159611701965e-05
v 0.0003860342549160123 -0.00038298164145089686 -5.0010159611701965e-05
v 0.0003860342549160123 -0.00038298164145089686 5.0010159611701965e-05
v 0.0003860342549160123 -0.00038298164145089686 5.0010159611701965e-05
v 0.0003860342549160123 -0.00038298164145089686 5.0010159611701965e-05
v 0.00018191816343460232 -0.0003211716248188168 -5.0010159611701965e-05
v 0.00018191816343460232 -0.0003211716248188168 -5.0010159611701965e-05
v 0.00018191816343460232 -0.0003211716248188168 -5.0010159611701965e-05
v 0.00018191816343460232 -0.0003211716248188168 -5.0010159611701965e-05
v 0.00018191816343460232 -0.0003211716248188168 -5.0010159611701965e-05
v 0.00018191816343460232 -0.0003211716248188168 -5.0010159611701965e-05
v 0.00018191816343460232 -0.0003211716248188168 -5.0010159611701965e-05
v 0.00018191816343460232 -0.0003211716248188168 -5.0010159611701965e-05
v 0.00018191816343460232 -0.0003211716248188168 -5.0010159611701965e-05
v 0.00018191816343460232 -0.0003211716248188168 5.0010159611701965e-05
v 0.00018191816343460232 -0.0003211716248188168 5.0010159611701965e-05
v 0.00018191816343460232 -0.0003211716248188168 5.0010159611701965e-05
v 0.00018191816343460232 -0.0003211716248188168 5.0010159611701965e-05
v 0.00018191816343460232 -0.0003211716248188168 5.0010159611701965e-05
v 0.00018191816343460232 -0.0003211716248188168 5.0010159611701965e-05
v 0.00018191816343460232 -0.0003211716248188168 5.0010159611701965e-05
v 0.00018191816343460232 -0.0003211716248188168 5.0010159611701965e-05
v 0.00018191816343460232 -0.0003211716248188168 5.0010159611701965e-05
v 0.00017673255933914334 -0.00034506936208344996 -5.0010159611701965e-05
v 0.00017673255933914334 -0.00034506936208344996 -5.0010159611701965e-05
v 0.00017673255933914334 -0.00034506936208344996 -5.0010159611701965e-05
v 0.00017673255933914334 -0.00034506936208344996 -5.0010159611701965e-05
v 0.00017673255933914334 -0.00034506936208344996 5.0010159611701965e-05
v 0.00017673255933914334 -0.00034506936208344996 5.0010159611701965e-05
v 0.00017673255933914334 -0.00034506936208344996 5.0010159611701965e-05
v 8.643152250442654e-05 -0.0008093895739875734 -5.0010159611701965e-05
v 8.643152250442654e-05 -0.0008093895739875734 -5.0010159611701965e-05
v 8.643152250442654e-05 -0.0008093895739875734 -5.0010159611701965e-05
v 8.643152250442654e-05 -0.0008093895739875734 5.0010159611701965e-05
v 8.643152250442654e-05 -0.0008093895739875734 5.0010159611701965e-05
v 8.643152250442654e-05 -0.0008093895739875734 5.0010159611701965e-05
v -5.027173028793186e-05 -0.0015098111471161246 -5.0010159611701965e-05
v -5.027173028793186e-05 -0.0015098111471161246 -5.0010159611701965e-05
v -5.027173028793186e-05 -0.0015098111471161246 -5.0010159611701965e-05
v -5.027173028793186e-05 -0.0015098111471161246 5.0010159611701965e-05
v -5.027173028793186e-05 -0.0015098111471161246 5.0010159611701965e-05
v -5.027173028793186e-05 -0.0015098111471161246 5.0010159611701965e-05
v -5.027173028793186e-05 -0.0015098111471161246 5.0010159611701965e-05
v -5.167243944015354e-05 -0.001518628909252584 -5.0010159611701965e-05
v -5.167243944015354e-05 -0.001518628909252584 -5.0010159611701965e-05
v -5.167243944015354e-05 -0.001518628909252584 -5.0010159611701965e-05
v -5.167243944015354e-05 -0.001518628909252584 5.0010159611701965e-05
v -5.167243944015354e-05 -0.001518628909252584 5.0010159611701965e-05
v -8.36801336845383e-05 -0.001600350602529943 5.0010159611701965e-05
v -8.36801336845383e-05 -0.001600350602529943 5.0010159611701965e-05
v -8.36801336845383e-05 -0.001600350602529943 -5.0010159611701965e-05
v -8.36801336845383e-05 -0.001600350602529943 -5.0010159611701965e-05
v -0.00014376161561813205 -0.0016669289907440543 5.0010159611701965e-05
v -0.00014376161561813205 -0.0016669289907440543 5.0010159611701965e-05
v -0.00014376161561813205 -0.0016669289907440543 -5.0010159611701965e-05
v -0.00014376161561813205 -0.0016669289907440543 -5.0010159611701965e-05
v -0.00017106054292526096 -0.0016851084074005485 5.0010159611701965e-05
v -0.00017106054292526096 -0.0016851084074005485 5.0010159611701965e-05
v -0.00017106054292526096 -0.0016851084074005485 5.0010159611701965e-05
v -0.00017106054292526096 -0.0016851084074005485 5.0010159611701965e-05
v -0.00017106054292526096 -0.0016851084074005485 5.0010159611701965e-05
v -0.00017106054292526096 -0.0016851084074005485 5.0010159611701965e-05
v -0.00017106054292526096 -0.0016851084074005485 -5.0010159611701965e-05
v -0.00017106054292526096 -0.0016851084074005485 -5.0010159611701965e-05
v -0.00017106054292526096 -0.0016851084074005485 -5.0010159611701965e-05
v -0.00017106054292526096 -0.0016851084074005485 -5.0010159611701965e-05
v -0.00017106054292526096 -0.0016851084074005485 -5.0010159611701965e-05
v -0.00017106054292526096 -0.0016851084074005485 -5.0010159611701965e-05
v -0.00017106054292526096 -0.0016851084074005485 -5.0010159611701965e-05
v -0.00025218247901648283 -0.0017149703344330192 5.0010159611701965e-05
v -0.00025218247901648283 -0.0017149703344330192 5.0010159611701965e-05
v -0.00025218247901648283 -0.0017149703344330192 5.0010159611701965e-05
v -0.00025218247901648283 -0.0017149703344330192 -5.0010159611701965e-05
v -0.00025218247901648283 -0.0017149703344330192 -5.0010159611701965e-05
v -0.00025218247901648283 -0.0017149703344330192 -5.0010159611701965e-05
v -0.00033607601653784513 -0.0017156818648800254 5.0010159611701965e-05
v -0.00033607601653784513 -0.0017156818648800254 5.0010159611701965e-05
v -0.00033607601653784513 -0.0017156818648800254 5.0010159611701965e-05
v -0.00033607601653784513 -0.0017156818648800254 -5.0010159611701965e-05
v -0.00033607601653784513 -0.0017156818648800254 -5.0010159611701965e-05
v -0.00041937350761145353 -0.0016864793142303824 5.0010159611701965e-05
v -0.00041937350761145353 -0.0016864793142303824 5.0010159611701965e-05
v -0.00041937350761145353 -0.0016864793142303824 -5.0010159611701965e-05
v -0.00041937350761145353 -0.0016864793142303824 -5.0010159611701965e-05
v -0.000488187070004642 -0.0016288416227325797 5.0010159611701965e-05
v -0.000488187070004642 -0.0016288416227325797 5.0010159611701965e-05
v -0.000488187070004642 -0.0016288416227325797 5.0010159611701965e-05
v -0.000488187070004642 -0.0016288416227325797 5.0010159611701965e-05
v -0.000488187070004642 -0.0016288416227325797 5.0010159611701965e-05
v -0.000488187070004642 -0.0016288416227325797 -5.0010159611701965e-05
v -0.000488187070004642 -0.0016288416227325797 -5.0010159611701965e-05
v -0.000488187070004642 -0.0016288416227325797 -5.0010159611701965e-05
v -0.000488187070004642 -0.0016288416227325797 -5.0010159611701965e-05
v -0.0005121779395267367 -0.0015944497426971793 5.0010159611701965e-05
v -0.0005121779395267367 -0.0015944497426971793 5.0010159611701965e-05
v -0.0005121779395267367 -0.0015944497426971793 5.0010159611701965e-05
v -0.0005121779395267367 -0.0015944497426971793 5.0010159611701965e-05
v -0.0005121779395267367 -0.0015944497426971793 -5.0010159611701965e-05
v -0.0005121779395267367 -0.0015944497426971793 -5.0010159611701965e-05
v -0.0005121779395267367 -0.0015944497426971793 -5.0010159611701965e-05
v -0.0005417716456577182 -0.001513499184511602 5.0010159611701965e-05
v -0.0005417716456577182 -0.001513499184511602 5.0010159611701965e-05
v -0.0005417716456577182 -0.001513499184511602 -5.0010159611701965e-05
v -0.0005417716456577182 -0.001513499184511602 -5.0010159611701965e-05
v -0.0005417716456577182 -0.001513499184511602 -5.0010159611701965e-05
v -0.000542278285138309 -0.0014298813184723258 5.0010159611701965e-05
v -0.000542278285138309 -0.0014298813184723258 5.0010159611701965e-05
v -0.000542278285138309 -0.0014298813184723258 5.0010159611701965e-05
v -0.000542278285138309 -0.0014298813184723258 5.0010159611701965e-05
v -0.000542278285138309 -0.0014298813184723258 -5.0010159611701965e-05
v -0.000542278285138309 -0.0014298813184723258 -5.0010159611701965e-05
v -0.000542278285138309 -0.0014298813184723258 -5.0010159611701965e-05
v -0.0005271685076877475 -0.0013759987195953727 5.0010159611701965e-05
v -0.0005271685076877475 -0.0013759987195953727 5.0010159611701965e-05
v -0.0005271685076877475 -0.0013759987195953727 5.0010159611701965e-05
v -0.0005271685076877475 -0.0013759987195953727 5.0010159611701965e-05
v -0.0005271685076877475 -0.0013759987195953727 -5.0010159611701965e-05
v -0.0005271685076877475 -0.0013759987195953727 -5.0010159611701965e-05
v -0.0005271685076877475 -0.0013759987195953727 -5.0010159611701965e-05
v -0.0005271685076877475 -0.0013759987195953727 -5.0010159611701965e-05
v -0.00030278682243078947 -0.00025233198539353907 -5.0010159611701965e-05
v -0.00030278682243078947 -0.00025233198539353907 -5.0010159611701965e-05
v -0.00030278682243078947 -0.00025233198539353907 -5.0010159611701965e-05
v -0.00030278682243078947 -0.00025233198539353907 -5.0010159611701965e-05
v -0.00030278682243078947 -0.00025233198539353907 5.0010159611701965e-05
v -0.00030278682243078947 -0.00025233198539353907 5.0010159611701965e-05
v -0.00030278682243078947 -0.00025233198539353907 5.0010159611701965e-05
v -0.00030278682243078947 -0.00025233198539353907 5.0010159611701965e-05
v -0.00030278682243078947 -0.00025233198539353907 5.0010159611701965e-05
v -0.00029858469497412443 -0.0002277711610076949 5.0010159611701965e-05
v -0.00029858469497412443 -0.0002277711610076949 5.0010159611701965e-05
v -0.00029858469497412443 -0.0002277711610076949 5.0010159611701965e-05
v -0.00029858469497412443 -0.0002277711610076949 -5.0010159611701965e-05
v -0.00029858469497412443 -0.0002277711610076949 -5.0010159611701965e-05
v -0.00029858469497412443 -0.0002277711610076949 -5.0010159611701965e-05
v -0.0002929818583652377 -0.00020350834529381245 5.0010159611701965e-05
v -0.0002929818583652377 -0.00020350834529381245 5.0010159611701965e-05
v -0.0002929818583652377 -0.00020350834529381245 5.0010159611701965e-05
v -0.0002929818583652377 -0.00020350834529381245 -5.0010159611701965e-05
v -0.0002929818583652377 -0.00020350834529381245 -5.0010159611701965e-05
v -0.0002929818583652377 -0.00020350834529381245 -5.0010159611701965e-05
v -0.00029026984702795744 -0.0001857498864410445 5.0010159611701965e-05
v -0.00029026984702795744 -0.0001857498864410445 5.0010159611701965e-05
v -0.00029026984702795744 -0.0001857498864410445 5.0010159611701965e-05
v -0.00029026984702795744 -0.0001857498864410445 -5.0010159611701965e-05
v -0.00029026984702795744 -0.0001857498864410445 -5.0010159611701965e-05
v -0.00029026984702795744 -0.0001857498864410445 -5.0010159611701965e-05
v -0.0002866637660190463 -0.00016805103223305196 5.0010159611701965e-05
v -0.0002866637660190463 -0.00016805103223305196 5.0010159611701965e-05
v -0.0002866637660190463 -0.00016805103223305196 5.0010159611701965e-05
v -0.0002866637660190463 -0.00016805103223305196 5.0010159611701965e-05
v -0.0002866637660190463 -0.00016805103223305196 5.0010159611701965e-05
v -0.0002866637660190463 -0.00016805103223305196 -5.0010159611701965e-05
v -0.0002866637660190463 -0.00016805103223305196 -5.0010159611701965e-05
v -0.0002866637660190463 -0.00016805103223305196 -5.0010159611701965e-05
v -0.0002866637660190463 -0.00016805103223305196 -5.0010159611701965e-05
v -0.00030427693855017424 -0.00016441142361145467 5.0010159611701965e-05
v -0.00030427693855017424 -0.00016441142361145467 5.0010159611701965e-05
v -0.00030427693855017424 -0.00016441142361145467 5.0010159611701965e-05
v -0.00030427693855017424 -0.00016441142361145467 -5.0010159611701965e-05
v -0.00030427693855017424 -0.00016441142361145467 -5.0010159611701965e-05
v -0.00030427693855017424 -0.00016441142361145467 -5.0010159611701965e-05
v -0.00032346963416785 -0.00015922954480629414 5.0010159611701965e-05
v -0.00032346963416785 -0.00015922954480629414 5.0010159611701965e-05
v -0.00032346963416785 -0.00015922954480629414 5.0010159611701965e-05
v -0.00032346963416785 -0.00015922954480629414 -5.0010159611701965e-05
v -0.00032346963416785 -0.00015922954480629414 -5.0010159611701965e-05
v -0.00032346963416785 -0.00015922954480629414 -5.0010159611701965e-05
v -0.00037168979179114103 -0.00014379194180946797 -5.0010159611701965e-05
v -0.00037168979179114103 -0.00014379194180946797 -5.0010159611701965e-05
v -0.00037168979179114103 -0.00014379194180946797 -5.0010159611701965e-05
v -0.00037168979179114103 -0.00014379194180946797 -5.0010159611701965e-05
v -0.00037168979179114103 -0.00014379194180946797 -5.0010159611701965e-05
v -0.00037168979179114103 -0.00014379194180946797 5.0010159611701965e-05
v -0.00037168979179114103 -0.00014379194180946797 5.0010159611701965e-05
v -0.00037168979179114103 -0.00014379194180946797 5.0010159611701965e-05
v -0.0005054724169895053 -9.956156281987205e-05 -5.0010159611701965e-05
v -0.0005054724169895053 -9.956156281987205e-05 -5.0010159611701965e-05
v -0.0005054724169895053 -9.956156281987205e-05 -5.0010159611701965e-05
v -0.0005054724169895053 -9.956156281987205e-05 -5.0010159611701965e-05
v -0.0005054724169895053 -9.956156281987205e-05 -5.0010159611701965e-05
v -0.0005054724169895053 -9.956156281987205e-05 -5.0010159611701965e-05
v -0.0005054724169895053 -9.956156281987205e-05 5.0010159611701965e-05
v -0.0005054724169895053 -9.956156281987205e-05 5.0010159611701965e-05
v -0.0005054724169895053 -9.956156281987205e-05 5.0010159611701965e-05
v -0.0005054724169895053 -9.956156281987205e-05 5.0010159611701965e-05
v -0.0005054724169895053 -9.956156281987205e-05 5.0010159611701965e-05
v -0.0005054724169895053 -9.956156281987205e-05 5.0010159611701965e-05
v -0.0005844783736392856 -7.352178363362327e-05 -5.0010159611701965e-05
v -0.0005844783736392856 -7.352178363362327e-05 -5.0010159611701965e-05
v -0.0005844783736392856 -7.352178363362327e-05 -5.0010159611701965e-05
v -0.0005844783736392856 -7.352178363362327e-05 -5.0010159611701965e-05
v -0.0005844783736392856 -7.352178363362327e-05 -5.0010159611701965e-05
v -0.0005844783736392856 -7.352178363362327e-05 -5.0010159611701965e-05
v -0.0005844783736392856 -7.352178363362327e-05 5.0010159611701965e-05
v -0.0005844783736392856 -7.352178363362327e-05 5.0010159611701965e-05
v -0.0005844783736392856 -7.352178363362327e-05 5.0010159611701965e-05
v -0.0005844783736392856 -7.352178363362327e-05 5.0010159611701965e-05
v -0.0005844783736392856 -7.352178363362327e-05 5.0010159611701965e-05
v -0.0005844783736392856 -7.352178363362327e-05 5.0010159611701965e-05
v -0.0005844783736392856 -7.352178363362327e-05 5.0010159611701965e-05
v -0.0015033733798190951 0.0002295715530635789 -5.0010159611701965e-05
v -0.0015033733798190951 0.0002295715530635789 -5.0010159611701965e-05
v -0.0015033733798190951 0.0002295715530635789 -5.0010159611701965e-05
v -0.0015033733798190951 0.0002295715530635789 -5.0010159611701965e-05
v -0.0015033733798190951 0.0002295715530635789 -5.0010159611701965e-05
v -0.0015033733798190951 0.0002295715530635789 5.0010159611701965e-05
v -0.0015033733798190951 0.0002295715530635789 5.0010159611701965e-05
v -0.0015033733798190951 0.0002295715530635789 5.0010159611701965e-05
v -0.0015033733798190951 0.0002295715530635789 5.0010159611701965e-05
v -0.0015145790530368686 0.00023344958026427776 -5.0010159611701965e-05
v -0.0015145790530368686 0.00023344958026427776 -5.0010159611701965e-05
v -0.0015145790530368686 0.00023344958026427776 5.0010159611701965e-05
v -0.0015145790530368686 0.00023344958026427776 5.0010159611701965e-05
v -0.0015145790530368686 0.00023344958026427776 5.0010159611701965e-05
v -0.0015145790530368686 0.00023344958026427776 5.0010159611701965e-05
v -0.0015145790530368686 0.00023344958026427776 5.0010159611701965e-05
v -0.0015145790530368686 0.00023344958026427776 5.0010159611701965e-05
v -0.0015886676264926791 0.00027553047402761877 5.0010159611701965e-05
v -0.0015886676264926791 0.00027553047402761877 5.0010159611701965e-05
v -0.0015886676264926791 0.00027553047402761877 -5.0010159611701965e-05
v -0.0015886676264926791 0.00027553047402761877 -5.0010159611701965e-05
v -0.0015886676264926791 0.00027553047402761877 -5.0010159611701965e-05
f 1 4 8
f 1 8 10
f 10 8 12
f 10 12 15
f 15 12 20
f 15 20 21
f 21 20 23
f 21 23 28
f 28 23 32
f 28 32 34
f 34 32 38
f 34 38 41
f 41 38 44
f 41 44 45
f 45 44 51
f 45 51 53
f 55 53 60
f 60 53 51
f 62 55 65
f 65 55 60
f 68 62 69
f 69 62 65
f 75 68 77
f 77 68 69
f 82 75 84
f 84 75 77
f 88 80 95
f 96 82 84
f 107 89 109
f 109 89 97
f 118 107 120
f 120 107 109
f 122 115 127
f 128 116 121
f 129 122 132
f 132 122 127
f 129 132 134
f 129 134 136
f 136 134 139
f 136 139 142
f 142 139 145
f 142 145 150
f 150 145 153
f 150 153 158
f 158 153 159
f 158 159 162
f 162 159 164
f 162 164 166
f 166 164 168
f 166 168 174
f 174 168 176
f 174 176 180
f 180 176 183
f 180 183 186
f 186 183 189
f 186 189 195
f 195 189 197
f 195 197 199
f 204 199 207
f 207 199 197
f 204 207 212
f 204 212 214
f 214 212 215
f 214 215 218
f 218 215 222
f 218 222 226
f 226 222 227
f 226 227 230
f 231 229 236
f 231 236 238
f 238 236 241
f 238 241 243
f 248 243 251
f 251 243 241
f 256 248 258
f 258 248 251
f 263 254 267
f 269 256 258
f 271 264 277
f 278 265 270
f 284 274 285
f 285 274 280
f 288 284 296
f 296 284 285
f 288 296 297
f 288 297 301
f 301 297 303
f 301 303 304
f 304 303 306
f 304 306 309
f 309 306 312
f 309 312 314
f 314 312 317
f 314 317 318
f 318 317 320
f 318 320 324
f 324 320 328
f 324 328 331
f 331 328 337
f 331 337 339
f 339 337 342
f 339 342 343
f 343 342 346
f 343 346 349
f 351 349 357
f 357 349 346
f 362 354 364
f 365 351 357
f 369 360 372
f 372 360 366
f 375 369 378
f 378 369 372
f 383 375 387
f 387 375 378
f 397 384 401
f 401 383 387
f 408 393 411
f 411 393 400
f 416 408 418
f 418 408 411
f 422 416 423
f 423 416 418
f 427 422 431
f 431 422 423
f 427 431 433
f 427 433 435
f 435 433 437
f 435 437 439
f 439 437 444
f 439 444 448
f 448 444 454
f 448 454 457
f 457 454 461
f 457 461 463
f 463 461 464
f 463 464 467
f 467 464 470
f 467 470 476
f 476 470 480
f 476 480 482
f 482 480 485
f 482 485 486
f 486 485 489
f 486 489 495
f 495 489 496
f 495 496 503
f 504 503 509
f 509 503 496
f 504 509 515
f 504 515 518
f 518 515 519
f 518 519 522
f 522 519 526
f 522 526 529
f 529 526 533
f 529 533 537
f 539 535 540
f 539 540 545
f 545 540 548
f 545 548 551
f 556 551 557
f 557 551 548
f 561 555 571
f 566 556 557
f 575 565 584
f 581 564 568
f 588 576 591
f 591 576 578
f 595 588 596
f 596 588 591
f 595 596 602
f 595 602 604
f 604 602 4
f 604 4 1
f 344 350 287
f 289 348 352
f 528 536 389
f 585 594 606
f 105 220 223
f 104 225 93
f 92 224 233
f 93 234 389
f 395 232 239
f 392 237 244
f 389 536 93
f 87 538 544
f 91 543 549
f 500 421 429
f 502 428 434
f 420 502 415
f 415 502 507
f 414 506 407
f 410 505 516
f 409 517 389
f 389 517 523
f 391 524 530
f 213 219 104
f 213 104 206
f 205 106 114
f 203 117 200
f 202 113 123
f 201 124 193
f 190 125 131
f 130 138 194
f 192 137 143
f 191 141 151
f 282 293 355
f 283 353 363
f 281 361 272
f 61 572 54
f 56 577 586
f 54 589 52
f 52 589 47
f 90 550 552
f 93 553 81
f 79 554 563
f 81 560 72
f 73 562 573
f 74 574 66
f 67 572 61
f 245 247 396
f 390 246 253
f 394 252 381
f 385 255 262
f 382 260 377
f 376 261 273
f 374 275 370
f 370 275 363
f 434 438 502
f 502 438 452
f 501 449 493
f 494 446 488
f 163 167 156
f 156 167 172
f 157 173 149
f 148 175 182
f 152 179 194
f 196 181 187
f 315 319 310
f 310 319 326
f 462 466 456
f 456 466 473
f 458 474 451
f 450 475 481
f 447 483 487
f 305 310 299
f 299 310 326
f 300 325 291
f 290 327 332
f 292 334 345
f 344 333 338
f 605 2 589
f 589 2 9
f 587 11 18
f 40 46 35
f 36 47 589
f 36 589 29
f 29 589 16
f 30 17 22
f 356 347 340
f 112 100 404
f 399 520 513
f 99 558 546
f 547 541 98
f 94 542 534
f 101 531 405
f 402 532 525
f 403 527 521
f 133 126 188
f 188 126 198
f 430 424 498
f 497 425 512
f 508 426 419
f 511 417 413
f 510 412 514
f 513 413 399
f 268 257 399
f 398 259 249
f 406 250 240
f 216 111 221
f 221 111 228
f 228 111 399
f 228 399 235
f 235 399 242
f 559 102 570
f 569 103 83
f 567 85 582
f 579 86 76
f 580 78 71
f 432 430 436
f 436 430 498
f 436 498 442
f 445 499 490
f 399 386 268
f 266 388 379
f 268 380 279
f 135 133 140
f 140 133 188
f 140 188 146
f 146 188 184
f 110 217 211
f 108 210 208
f 198 126 209
f 209 126 119
f 209 119 111
f 70 64 582
f 583 63 59
f 582 58 590
f 593 57 50
f 592 48 599
f 598 49 43
f 597 42 37
f 472 465 460
f 380 373 279
f 276 371 368
f 279 367 286
f 286 367 359
f 286 359 294
f 171 165 161
f 459 455 468
f 469 453 443
f 471 440 479
f 478 441 492
f 477 491 484
f 316 313 322
f 323 311 308
f 322 307 302
f 185 177 144
f 146 178 170
f 147 169 154
f 155 170 160
f 341 335 358
f 359 336 329
f 359 329 294
f 295 330 321
f 294 322 298
f 298 322 302
f 19 13 27
f 24 14 7
f 26 6 5
f 39 33 600
f 601 31 25
f 600 27 603
f 603 27 3
