mtllib converted_link2_17_d12626ff.mtl
usemtl material
v 0.00023388520639855415 3.5925162933381216e-07 5.0010159611701965e-05
v 0.00023388520639855415 3.5925162933381216e-07 5.0010159611701965e-05
v 0.00023388520639855415 3.5925162933381216e-07 -5.0010159611701965e-05
v 0.00023388520639855415 3.5925162933381216e-07 -5.0010159611701965e-05
v 0.00023388520639855415 3.5925162933381216e-07 -5.0010159611701965e-05
v 0.00023176924150902778 3.0928982596378773e-05 -5.0010159611701965e-05
v 0.00023176924150902778 3.0928982596378773e-05 -5.0010159611701965e-05
v 0.00023176924150902778 3.0928982596378773e-05 -5.0010159611701965e-05
v 0.00023176924150902778 3.0928982596378773e-05 5.0010159611701965e-05
v 0.00023176924150902778 3.0928982596378773e-05 5.0010159611701965e-05
v 0.00023176924150902778 3.0928982596378773e-05 5.0010159611701965e-05
v 0.00022568956774193794 6.0321523051243275e-05 -5.0010159611701965e-05
v 0.00022568956774193794 6.0321523051243275e-05 -5.0010159611701965e-05
v 0.00022568956774193794 6.0321523051243275e-05 -5.0010159611701965e-05
v 0.00022568956774193794 6.0321523051243275e-05 5.0010159611701965e-05
v 0.00022568956774193794 6.0321523051243275e-05 5.0010159611701965e-05
v 0.00022568956774193794 6.0321523051243275e-05 5.0010159611701965e-05
v 0.0002156759874196723 8.874921331880614e-05 -5.0010159611701965e-05
v 0.0002156759874196723 8.874921331880614e-05 -5.0010159611701965e-05
v 0.0002156759874196723 8.874921331880614e-05 -5.0010159611701965e-05
v 0.0002156759874196723 8.874921331880614e-05 5.0010159611701965e-05
v 0.0002156759874196723 8.874921331880614e-05 5.0010159611701965e-05
v 0.0002156759874196723 8.874921331880614e-05 5.0010159611701965e-05
v 0.0002017881051870063 0.0001157501174020581 -5.0010159611701965e-05
v 0.0002017881051870063 0.0001157501174020581 -5.0010159611701965e-05
v 0.0002017881051870063 0.0001157501174020581 5.0010159611701965e-05
v 0.0002017881051870063 0.0001157501174020581 5.0010159611701965e-05
v 0.0002017881051870063 0.0001157501174020581 5.0010159611701965e-05
v 0.00018438354891259223 0.0001408995594829321 -5.0010159611701965e-05
v 0.00018438354891259223 0.0001408995594829321 -5.0010159611701965e-05
v 0.00018438354891259223 0.0001408995594829321 -5.0010159611701965e-05
v 0.00018438354891259223 0.0001408995594829321 5.0010159611701965e-05
v 0.00018438354891259223 0.0001408995594829321 5.0010159611701965e-05
v 0.00018438354891259223 0.0001408995594829321 5.0010159611701965e-05
v 0.00016328350466210395 0.00016379146836698055 -5.0010159611701965e-05
v 0.00016328350466210395 0.00016379146836698055 -5.0010159611701965e-05
v 0.00016328350466210395 0.00016379146836698055 -5.0010159611701965e-05
v 0.00016328350466210395 0.00016379146836698055 5.0010159611701965e-05
v 0.00016328350466210395 0.00016379146836698055 5.0010159611701965e-05
v 0.00016328350466210395 0.00016379146836698055 5.0010159611701965e-05
v 0.00013929263514000922 0.00018358021043241024 -5.0010159611701965e-05
v 0.00013929263514000922 0.00018358021043241024 -5.0010159611701965e-05
v 0.00013929263514000922 0.00018358021043241024 5.0010159611701965e-05
v 0.00013929263514000922 0.00018358021043241024 5.0010159611701965e-05
v 0.00013929263514000922 0.00018358021043241024 5.0010159611701965e-05
v 0.0001127685682149604 0.00020003109239041805 -5.0010159611701965e-05
v 0.0001127685682149604 0.00020003109239041805 -5.0010159611701965e-05
v 0.0001127685682149604 0.00020003109239041805 -5.0010159611701965e-05
v 0.0001127685682149604 0.00020003109239041805 5.0010159611701965e-05
v 0.0001127685682149604 0.00020003109239041805 5.0010159611701965e-05
v 0.0001127685682149604 0.00020003109239041805 5.0010159611701965e-05
v 8.427754801232368e-05 0.00021261139772832394 -5.0010159611701965e-05
v 8.427754801232368e-05 0.00021261139772832394 -5.0010159611701965e-05
v 8.427754801232368e-05 0.00021261139772832394 -5.0010159611701965e-05
v 8.427754801232368e-05 0.00021261139772832394 5.0010159611701965e-05
v 8.427754801232368e-05 0.00021261139772832394 5.0010159611701965e-05
v 8.427754801232368e-05 0.00021261139772832394 5.0010159611701965e-05
v 5.42666093679145e-05 0.00022107153199613094 -5.0010159611701965e-05
v 5.42666093679145e-05 0.00022107153199613094 -5.0010159611701965e-05
v 5.42666093679145e-05 0.00022107153199613094 -5.0010159611701965e-05
v 5.42666093679145e-05 0.00022107153199613094 5.0010159611701965e-05
v 5.42666093679145e-05 0.00022107153199613094 5.0010159611701965e-05
v 5.42666093679145e-05 0.00022107153199613094 5.0010159611701965e-05
v 2.3480808522435836e-05 0.0002253109123557806 -5.0010159611701965e-05
v 2.3480808522435836e-05 0.0002253109123557806 -5.0010159611701965e-05
v 2.3480808522435836e-05 0.0002253109123557806 -5.0010159611701965e-05
v 2.3480808522435836e-05 0.0002253109123557806 5.0010159611701965e-05
v 2.3480808522435836e-05 0.0002253109123557806 5.0010159611701965e-05
v 2.3480808522435836e-05 0.0002253109123557806 5.0010159611701965e-05
v 8.371031071874313e-06 0.0002258399035781622 -5.0010159611701965e-05
v 8.371031071874313e-06 0.0002258399035781622 -5.0010159611701965e-05
v 8.371031071874313e-06 0.0002258399035781622 -5.0010159611701965e-05
v 8.371031071874313e-06 0.0002258399035781622 5.0010159611701965e-05
v 8.371031071874313e-06 0.0002258399035781622 5.0010159611701965e-05
v 8.371031071874313e-06 0.0002258399035781622 5.0010159611701965e-05
v -8.109653208521195e-06 0.0002258399035781622 5.0010159611701965e-05
v -8.109653208521195e-06 0.0002258399035781622 5.0010159611701965e-05
v -8.109653208521195e-06 0.0002258399035781622 5.0010159611701965e-05
v -8.109653208521195e-06 0.0002258399035781622 5.0010159611701965e-05
v -8.109653208521195e-06 0.0002258399035781622 5.0010159611701965e-05
v -8.109653208521195e-06 0.0002258399035781622 5.0010159611701965e-05
v -8.109653208521195e-06 0.0002258399035781622 5.0010159611701965e-05
v -8.109653208521195e-06 0.0002258399035781622 5.0010159611701965e-05
v -8.109653208521195e-06 0.0002258399035781622 5.0010159611701965e-05
v -8.109653208521195e-06 0.0002258399035781622 5.0010159611701965e-05
v -8.109653208521195e-06 0.0002258399035781622 5.0010159611701965e-05
v -8.109653208521195e-06 0.0002258399035781622 -5.0010159611701965e-05
v -8.109653208521195e-06 0.0002258399035781622 -5.0010159611701965e-05
v -8.109653208521195e-06 0.0002258399035781622 -5.0010159611701965e-05
v -8.109653208521195e-06 0.0002258399035781622 -5.0010159611701965e-05
v -8.109653208521195e-06 0.0002258399035781622 -5.0010159611701965e-05
v -8.109653208521195e-06 0.0002258399035781622 -5.0010159611701965e-05
v -8.109653208521195e-06 0.0002258399035781622 -5.0010159611701965e-05
v -8.109653208521195e-06 0.0002258399035781622 -5.0010159611701965e-05
v -8.109653208521195e-06 0.0002258399035781622 -5.0010159611701965e-05
v -8.109653208521195e-06 0.0002258399035781622 -5.0010159611701965e-05
v -3.8925252738408744e-05 0.00022376119159162045 -5.0010159611701965e-05
v -3.8925252738408744e-05 0.00022376119159162045 -5.0010159611701965e-05
v -3.8925252738408744e-05 0.00022376119159162045 5.0010159611701965e-05
v -3.8925252738408744e-05 0.00022376119159162045 5.0010159611701965e-05
v -3.8925252738408744e-05 0.00022376119159162045 5.0010159611701965e-05
v -6.831034261267632e-05 0.000217741122469306 -5.0010159611701965e-05
v -6.831034261267632e-05 0.000217741122469306 -5.0010159611701965e-05
v -6.831034261267632e-05 0.000217741122469306 -5.0010159611701965e-05
v -6.831034261267632e-05 0.000217741122469306 5.0010159611701965e-05
v -6.831034261267632e-05 0.000217741122469306 5.0010159611701965e-05
v -6.831034261267632e-05 0.000217741122469306 5.0010159611701965e-05
v -9.662254888098687e-05 0.00020777969621121883 -5.0010159611701965e-05
v -9.662254888098687e-05 0.00020777969621121883 -5.0010159611701965e-05
v -9.662254888098687e-05 0.00020777969621121883 -5.0010159611701965e-05
v -9.662254888098687e-05 0.00020777969621121883 5.0010159611701965e-05
v -9.662254888098687e-05 0.00020777969621121883 5.0010159611701965e-05
v -9.662254888098687e-05 0.00020777969621121883 5.0010159611701965e-05
v -0.00012353404599707574 0.000194070627912879 -5.0010159611701965e-05
v -0.00012353404599707574 0.000194070627912879 -5.0010159611701965e-05
v -0.00012353404599707574 0.000194070627912879 -5.0010159611701965e-05
v -0.00012353404599707574 0.000194070627912879 5.0010159611701965e-05
v -0.00012353404599707574 0.000194070627912879 5.0010159611701965e-05
v -0.00012353404599707574 0.000194070627912879 5.0010159611701965e-05
v -0.0001486276014475152 0.0001766697969287634 -5.0010159611701965e-05
v -0.0001486276014475152 0.0001766697969287634 -5.0010159611701965e-05
v -0.0001486276014475152 0.0001766697969287634 5.0010159611701965e-05
v -0.0001486276014475152 0.0001766697969287634 5.0010159611701965e-05
v -0.0001486276014475152 0.0001766697969287634 5.0010159611701965e-05
v -0.0001676116808084771 0.00015980168245732784 -5.0010159611701965e-05
v -0.0001676116808084771 0.00015980168245732784 -5.0010159611701965e-05
v -0.0001676116808084771 0.00015980168245732784 5.0010159611701965e-05
v -0.0001676116808084771 0.00015980168245732784 5.0010159611701965e-05
v -0.0001676116808084771 0.00015980168245732784 5.0010159611701965e-05
v -0.00018781765538733453 0.0001367309596389532 -5.0010159611701965e-05
v -0.00018781765538733453 0.0001367309596389532 -5.0010159611701965e-05
v -0.00018781765538733453 0.0001367309596389532 -5.0010159611701965e-05
v -0.00018781765538733453 0.0001367309596389532 5.0010159611701965e-05
v -0.00018781765538733453 0.0001367309596389532 5.0010159611701965e-05
v -0.00018781765538733453 0.0001367309596389532 5.0010159611701965e-05
v -0.00020483478147070855 0.00011104135046480224 -5.0010159611701965e-05
v -0.00020483478147070855 0.00011104135046480224 -5.0010159611701965e-05
v -0.00020483478147070855 0.00011104135046480224 -5.0010159611701965e-05
v -0.00020483478147070855 0.00011104135046480224 -5.0010159611701965e-05
v -0.00020483478147070855 0.00011104135046480224 5.0010159611701965e-05
v -0.00020483478147070855 0.00011104135046480224 5.0010159611701965e-05
v -0.00020483478147070855 0.00011104135046480224 5.0010159611701965e-05
v -0.00021812661725562066 8.315010200021788e-05 -5.0010159611701965e-05
v -0.00021812661725562066 8.315010200021788e-05 -5.0010159611701965e-05
v -0.00021812661725562066 8.315010200021788e-05 5.0010159611701965e-05
v -0.00021812661725562066 8.315010200021788e-05 5.0010159611701965e-05
v -0.0002274249418405816 5.351914296625182e-05 -5.0010159611701965e-05
v -0.0002274249418405816 5.351914296625182e-05 -5.0010159611701965e-05
v -0.0002274249418405816 5.351914296625182e-05 -5.0010159611701965e-05
v -0.0002274249418405816 5.351914296625182e-05 5.0010159611701965e-05
v -0.0002274249418405816 5.351914296625182e-05 5.0010159611701965e-05
v -0.0002325211389688775 2.2710994016961195e-05 -5.0010159611701965e-05
v -0.0002325211389688775 2.2710994016961195e-05 -5.0010159611701965e-05
v -0.0002325211389688775 2.2710994016961195e-05 -5.0010159611701965e-05
v -0.0002325211389688775 2.2710994016961195e-05 -5.0010159611701965e-05
v -0.0002325211389688775 2.2710994016961195e-05 -5.0010159611701965e-05
v -0.0002325211389688775 2.2710994016961195e-05 -5.0010159611701965e-05
v -0.0002325211389688775 2.2710994016961195e-05 -5.0010159611701965e-05
v -0.0002325211389688775 2.2710994016961195e-05 5.0010159611701965e-05
v -0.0002325211389688775 2.2710994016961195e-05 5.0010159611701965e-05
v -0.0002325211389688775 2.2710994016961195e-05 5.0010159611701965e-05
v -0.0002325211389688775 2.2710994016961195e-05 5.0010159611701965e-05
v -0.0002325211389688775 2.2710994016961195e-05 5.0010159611701965e-05
v -0.0002325211389688775 2.2710994016961195e-05 5.0010159611701965e-05
v -0.0002325211389688775 2.2710994016961195e-05 5.0010159611701965e-05
v -0.0002325211389688775 2.2710994016961195e-05 5.0010159611701965e-05
v -0.0002337132318643853 3.5925162933381216e-07 -5.0010159611701965e-05
v -0.0002337132318643853 3.5925162933381216e-07 -5.0010159611701965e-05
v -0.0002337132318643853 3.5925162933381216e-07 -5.0010159611701965e-05
v -0.0002337132318643853 3.5925162933381216e-07 5.0010159611701965e-05
v -0.0002337132318643853 3.5925162933381216e-07 5.0010159611701965e-05
v -0.00023162706929724663 -3.05196808767505e-05 -5.0010159611701965e-05
v -0.00023162706929724663 -3.05196808767505e-05 -5.0010159611701965e-05
v -0.00023162706929724663 -3.05196808767505e-05 -5.0010159611701965e-05
v -0.00023162706929724663 -3.05196808767505e-05 5.0010159611701965e-05
v -0.00023162706929724663 -3.05196808767505e-05 5.0010159611701965e-05
v -0.00023162706929724663 -3.05196808767505e-05 5.0010159611701965e-05
v -0.0002255175932077691 -6.013946403982118e-05 -5.0010159611701965e-05
v -0.0002255175932077691 -6.013946403982118e-05 -5.0010159611701965e-05
v -0.0002255175932077691 -6.013946403982118e-05 -5.0010159611701965e-05
v -0.0002255175932077691 -6.013946403982118e-05 5.0010159611701965e-05
v -0.0002255175932077691 -6.013946403982118e-05 5.0010159611701965e-05
v -0.0002255175932077691 -6.013946403982118e-05 5.0010159611701965e-05
v -0.00021553381520789117 -8.869008888723329e-05 -5.0010159611701965e-05
v -0.00021553381520789117 -8.869008888723329e-05 -5.0010159611701965e-05
v -0.00021553381520789117 -8.869008888723329e-05 -5.0010159611701965e-05
v -0.00021553381520789117 -8.869008888723329e-05 5.0010159611701965e-05
v -0.00021553381520789117 -8.869008888723329e-05 5.0010159611701965e-05
v -0.00021553381520789117 -8.869008888723329e-05 5.0010159611701965e-05
v -0.00020173533994238824 -0.00011581020226003602 -5.0010159611701965e-05
v -0.00020173533994238824 -0.00011581020226003602 -5.0010159611701965e-05
v -0.00020173533994238824 -0.00011581020226003602 -5.0010159611701965e-05
v -0.00020173533994238824 -0.00011581020226003602 5.0010159611701965e-05
v -0.00020173533994238824 -0.00011581020226003602 5.0010159611701965e-05
v -0.00020173533994238824 -0.00011581020226003602 5.0010159611701965e-05
v -0.0001842115743784234 -0.00014097080565989017 -5.0010159611701965e-05
v -0.0001842115743784234 -0.00014097080565989017 -5.0010159611701965e-05
v -0.0001842115743784234 -0.00014097080565989017 -5.0010159611701965e-05
v -0.0001842115743784234 -0.00014097080565989017 5.0010159611701965e-05
v -0.0001842115743784234 -0.00014097080565989017 5.0010159611701965e-05
v -0.0001842115743784234 -0.00014097080565989017 5.0010159611701965e-05
v -0.0001632307394174859 -0.0001638478133827448 -5.0010159611701965e-05
v -0.0001632307394174859 -0.0001638478133827448 -5.0010159611701965e-05
v -0.0001632307394174859 -0.0001638478133827448 -5.0010159611701965e-05
v -0.0001632307394174859 -0.0001638478133827448 5.0010159611701965e-05
v -0.0001632307394174859 -0.0001638478133827448 5.0010159611701965e-05
v -0.0001632307394174859 -0.0001638478133827448 5.0010159611701965e-05
v -0.00013932927686255425 -0.00018364028073847294 -5.0010159611701965e-05
v -0.00013932927686255425 -0.00018364028073847294 -5.0010159611701965e-05
v -0.00013932927686255425 -0.00018364028073847294 -5.0010159611701965e-05
v -0.00013932927686255425 -0.00018364028073847294 5.0010159611701965e-05
v -0.00013932927686255425 -0.00018364028073847294 5.0010159611701965e-05
v -0.00013932927686255425 -0.00018364028073847294 5.0010159611701965e-05
v -0.0001129244192270562 -0.0002000278327614069 -5.0010159611701965e-05
v -0.0001129244192270562 -0.0002000278327614069 -5.0010159611701965e-05
v -0.0001129244192270562 -0.0002000278327614069 -5.0010159611701965e-05
v -0.0001129244192270562 -0.0002000278327614069 5.0010159611701965e-05
v -0.0001129244192270562 -0.0002000278327614069 5.0010159611701965e-05
v -0.0001129244192270562 -0.0002000278327614069 5.0010159611701965e-05
v -8.452280599158257e-05 -0.00021260813809931278 -5.0010159611701965e-05
v -8.452280599158257e-05 -0.00021260813809931278 -5.0010159611701965e-05
v -8.452280599158257e-05 -0.00021260813809931278 -5.0010159611701965e-05
v -8.452280599158257e-05 -0.00021260813809931278 5.0010159611701965e-05
v -8.452280599158257e-05 -0.00021260813809931278 5.0010159611701965e-05
v -8.452280599158257e-05 -0.00021260813809931278 5.0010159611701965e-05
v -5.451186734717339e-05 -0.0002210682723671198 -5.0010159611701965e-05
v -5.451186734717339e-05 -0.0002210682723671198 -5.0010159611701965e-05
v -5.451186734717339e-05 -0.0002210682723671198 -5.0010159611701965e-05
v -5.451186734717339e-05 -0.0002210682723671198 5.0010159611701965e-05
v -5.451186734717339e-05 -0.0002210682723671198 5.0010159611701965e-05
v -5.451186734717339e-05 -0.0002210682723671198 5.0010159611701965e-05
v -2.3606860850122757e-05 -0.0002253709826618433 -5.0010159611701965e-05
v -2.3606860850122757e-05 -0.0002253709826618433 -5.0010159611701965e-05
v -2.3606860850122757e-05 -0.0002253709826618433 -5.0010159611701965e-05
v -2.3606860850122757e-05 -0.0002253709826618433 5.0010159611701965e-05
v -2.3606860850122757e-05 -0.0002253709826618433 5.0010159611701965e-05
v -2.3606860850122757e-05 -0.0002253709826618433 5.0010159611701965e-05
v -8.109653208521195e-06 -0.0002258999738842249 -5.0010159611701965e-05
v -8.109653208521195e-06 -0.0002258999738842249 -5.0010159611701965e-05
v -8.109653208521195e-06 -0.0002258999738842249 -5.0010159611701965e-05
v -8.109653208521195e-06 -0.0002258999738842249 5.0010159611701965e-05
v -8.109653208521195e-06 -0.0002258999738842249 5.0010159611701965e-05
v -8.109653208521195e-06 -0.0002258999738842249 5.0010159611701965e-05
v 8.371031071874313e-06 -0.0002258999738842249 5.0010159611701965e-05
v 8.371031071874313e-06 -0.0002258999738842249 5.0010159611701965e-05
v 8.371031071874313e-06 -0.0002258999738842249 5.0010159611701965e-05
v 8.371031071874313e-06 -0.0002258999738842249 5.0010159611701965e-05
v 8.371031071874313e-06 -0.0002258999738842249 5.0010159611701965e-05
v 8.371031071874313e-06 -0.0002258999738842249 5.0010159611701965e-05
v 8.371031071874313e-06 -0.0002258999738842249 5.0010159611701965e-05
v 8.371031071874313e-06 -0.0002258999738842249 5.0010159611701965e-05
v 8.371031071874313e-06 -0.0002258999738842249 5.0010159611701965e-05
v 8.371031071874313e-06 -0.0002258999738842249 5.0010159611701965e-05
v 8.371031071874313e-06 -0.0002258999738842249 5.0010159611701965e-05
v 8.371031071874313e-06 -0.0002258999738842249 5.0010159611701965e-05
v 8.371031071874313e-06 -0.0002258999738842249 -5.0010159611701965e-05
v 8.371031071874313e-06 -0.0002258999738842249 -5.0010159611701965e-05
v 8.371031071874313e-06 -0.0002258999738842249 -5.0010159611701965e-05
v 8.371031071874313e-06 -0.0002258999738842249 -5.0010159611701965e-05
v 8.371031071874313e-06 -0.0002258999738842249 -5.0010159611701965e-05
v 8.371031071874313e-06 -0.0002258999738842249 -5.0010159611701965e-05
v 8.371031071874313e-06 -0.0002258999738842249 -5.0010159611701965e-05
v 8.371031071874313e-06 -0.0002258999738842249 -5.0010159611701965e-05
v 8.371031071874313e-06 -0.0002258999738842249 -5.0010159611701965e-05
v 3.8888611015863717e-05 -0.00022381753660738468 -5.0010159611701965e-05
v 3.8888611015863717e-05 -0.00022381753660738468 -5.0010159611701965e-05
v 3.8888611015863717e-05 -0.00022381753660738468 5.0010159611701965e-05
v 3.8888611015863717e-05 -0.00022381753660738468 5.0010159611701965e-05
v 3.8888611015863717e-05 -0.00022381753660738468 5.0010159611701965e-05
v 6.82737008901313e-05 -0.00021773786284029484 -5.0010159611701965e-05
v 6.82737008901313e-05 -0.00021773786284029484 -5.0010159611701965e-05
v 6.82737008901313e-05 -0.00021773786284029484 -5.0010159611701965e-05
v 6.82737008901313e-05 -0.00021773786284029484 5.0010159611701965e-05
v 6.82737008901313e-05 -0.00021773786284029484 5.0010159611701965e-05
v 6.82737008901313e-05 -0.00021773786284029484 5.0010159611701965e-05
v 9.667531412560493e-05 -0.00020778016187250614 -5.0010159611701965e-05
v 9.667531412560493e-05 -0.00020778016187250614 -5.0010159611701965e-05
v 9.667531412560493e-05 -0.00020778016187250614 -5.0010159611701965e-05
v 9.667531412560493e-05 -0.00020778016187250614 5.0010159611701965e-05
v 9.667531412560493e-05 -0.00020778016187250614 5.0010159611701965e-05
v 9.667531412560493e-05 -0.00020778016187250614 5.0010159611701965e-05
v 0.00012388483446557075 -0.00019394815899431705 -5.0010159611701965e-05
v 0.00012388483446557075 -0.00019394815899431705 -5.0010159611701965e-05
v 0.00012388483446557075 -0.00019394815899431705 -5.0010159611701965e-05
v 0.00012388483446557075 -0.00019394815899431705 5.0010159611701965e-05
v 0.00012388483446557075 -0.00019394815899431705 5.0010159611701965e-05
v 0.00012388483446557075 -0.00019394815899431705 5.0010159611701965e-05
v 0.0001490677968831733 -0.00017648772336542606 -5.0010159611701965e-05
v 0.0001490677968831733 -0.00017648772336542606 -5.0010159611701965e-05
v 0.0001490677968831733 -0.00017648772336542606 5.0010159611701965e-05
v 0.0001490677968831733 -0.00017648772336542606 5.0010159611701965e-05
v 0.0001490677968831733 -0.00017648772336542606 5.0010159611701965e-05
v 0.00016778365534264594 -0.00015985802747309208 -5.0010159611701965e-05
v 0.00016778365534264594 -0.00015985802747309208 -5.0010159611701965e-05
v 0.00016778365534264594 -0.00015985802747309208 5.0010159611701965e-05
v 0.00016778365534264594 -0.00015985802747309208 5.0010159611701965e-05
v 0.00016778365534264594 -0.00015985802747309208 5.0010159611701965e-05
v 0.0001883770601125434 -0.00013565854169428349 -5.0010159611701965e-05
v 0.0001883770601125434 -0.00013565854169428349 -5.0010159611701965e-05
v 0.0001883770601125434 -0.00013565854169428349 5.0010159611701965e-05
v 0.0001883770601125434 -0.00013565854169428349 5.0010159611701965e-05
v 0.0001883770601125434 -0.00013565854169428349 5.0010159611701965e-05
v 0.0002055730001302436 -0.00010889978875638917 -5.0010159611701965e-05
v 0.0002055730001302436 -0.00010889978875638917 -5.0010159611701965e-05
v 0.0002055730001302436 -0.00010889978875638917 5.0010159611701965e-05
v 0.0002055730001302436 -0.00010889978875638917 5.0010159611701965e-05
v 0.0002055730001302436 -0.00010889978875638917 5.0010159611701965e-05
v 0.0002189840452047065 -8.017034997465089e-05 -5.0010159611701965e-05
v 0.0002189840452047065 -8.017034997465089e-05 -5.0010159611701965e-05
v 0.0002189840452047065 -8.017034997465089e-05 -5.0010159611701965e-05
v 0.0002189840452047065 -8.017034997465089e-05 5.0010159611701965e-05
v 0.0002189840452047065 -8.017034997465089e-05 5.0010159611701965e-05
v 0.0002189840452047065 -8.017034997465089e-05 5.0010159611701965e-05
v 0.00022807375353295356 -5.0070004363078624e-05 -5.0010159611701965e-05
v 0.00022807375353295356 -5.0070004363078624e-05 -5.0010159611701965e-05
v 0.00022807375353295356 -5.0070004363078624e-05 5.0010159611701965e-05
v 0.00022807375353295356 -5.0070004363078624e-05 5.0010159611701965e-05
v 0.0002329911367269233 -1.906813668028917e-05 -5.0010159611701965e-05
v 0.0002329911367269233 -1.906813668028917e-05 -5.0010159611701965e-05
v 0.0002329911367269233 -1.906813668028917e-05 -5.0010159611701965e-05
v 0.0002329911367269233 -1.906813668028917e-05 -5.0010159611701965e-05
v 0.0002329911367269233 -1.906813668028917e-05 -5.0010159611701965e-05
v 0.0002329911367269233 -1.906813668028917e-05 -5.0010159611701965e-05
v 0.0002329911367269233 -1.906813668028917e-05 5.0010159611701965e-05
v 0.0002329911367269233 -1.906813668028917e-05 5.0010159611701965e-05
v 0.0002329911367269233 -1.906813668028917e-05 5.0010159611701965e-05
v 0.0002329911367269233 -1.906813668028917e-05 5.0010159611701965e-05
v 0.0002329911367269233 -1.906813668028917e-05 5.0010159611701965e-05
v 0.0002329911367269233 -1.906813668028917e-05 5.0010159611701965e-05
v 0.0002329911367269233 -1.906813668028917e-05 5.0010159611701965e-05
v 0.0002329911367269233 -1.906813668028917e-05 5.0010159611701965e-05
v 0.0002329911367269233 -1.906813668028917e-05 5.0010159611701965e-05
v 0.0002329911367269233 -1.906813668028917e-05 5.0010159611701965e-05
f 1 5 6
f 1 6 10
f 10 6 13
f 10 13 17
f 17 13 19
f 17 19 23
f 23 19 25
f 23 25 27
f 27 25 30
f 27 30 34
f 34 30 37
f 34 37 38
f 38 37 42
f 38 42 43
f 43 42 48
f 43 48 51
f 51 48 52
f 51 52 55
f 55 52 60
f 55 60 62
f 62 60 66
f 62 66 67
f 67 66 71
f 67 71 73
f 82 73 89
f 89 73 71
f 82 89 97
f 82 97 100
f 100 97 103
f 100 103 106
f 106 103 109
f 106 109 112
f 112 109 115
f 112 115 118
f 118 115 120
f 118 120 122
f 122 120 125
f 122 125 128
f 128 125 132
f 128 132 133
f 133 132 139
f 133 139 140
f 140 139 143
f 140 143 145
f 145 143 149
f 145 149 150
f 150 149 153
f 150 153 161
f 161 153 168
f 161 168 170
f 170 168 172
f 170 172 175
f 175 172 180
f 175 180 181
f 181 180 186
f 181 186 189
f 189 186 190
f 189 190 193
f 193 190 197
f 193 197 200
f 200 197 203
f 200 203 205
f 205 203 208
f 205 208 211
f 211 208 215
f 211 215 217
f 217 215 220
f 217 220 225
f 225 220 228
f 225 228 231
f 231 228 234
f 231 234 236
f 236 234 238
f 236 238 241
f 244 241 261
f 261 241 238
f 244 261 265
f 244 265 268
f 268 265 271
f 268 271 274
f 274 271 278
f 274 278 281
f 281 278 284
f 281 284 285
f 285 284 289
f 285 289 292
f 292 289 293
f 292 293 295
f 295 293 298
f 295 298 300
f 300 298 304
f 300 304 306
f 306 304 310
f 306 310 313
f 313 310 315
f 313 315 316
f 316 315 322
f 316 322 332
f 332 322 5
f 332 5 1
f 250 74 242
f 242 74 86
f 279 287 327
f 22 28 251
f 252 26 32
f 253 33 39
f 171 177 86
f 80 176 183
f 85 182 188
f 280 329 275
f 286 291 328
f 331 290 297
f 325 296 302
f 2 11 250
f 254 9 16
f 249 15 21
f 164 124 127
f 301 305 329
f 333 307 312
f 326 311 317
f 107 111 159
f 160 113 119
f 166 117 123
f 2 250 329
f 324 248 267
f 330 269 273
f 40 45 250
f 245 44 49
f 246 50 56
f 187 195 86
f 84 194 199
f 83 201 206
f 57 63 250
f 247 61 68
f 255 69 75
f 171 86 166
f 165 81 101
f 163 99 105
f 129 135 166
f 162 134 141
f 166 142 151
f 151 142 146
f 207 213 86
f 77 212 218
f 78 219 223
f 224 230 86
f 79 229 237
f 76 235 243
f 263 72 64
f 70 260 95
f 95 260 239
f 94 240 233
f 29 24 260
f 93 178 173
f 126 121 157
f 198 192 95
f 92 191 185
f 95 184 179
f 126 157 131
f 47 41 260
f 260 41 36
f 259 35 31
f 24 18 260
f 256 20 12
f 257 14 7
f 288 319 294
f 294 319 299
f 314 309 320
f 319 308 303
f 319 303 299
f 288 282 319
f 321 283 277
f 318 276 270
f 121 114 157
f 155 116 110
f 152 108 104
f 8 3 260
f 258 4 323
f 260 319 266
f 266 319 272
f 214 210 95
f 91 209 204
f 90 202 196
f 130 154 136
f 137 158 148
f 138 147 144
f 174 167 95
f 87 169 156
f 95 157 98
f 98 157 102
f 65 59 260
f 264 58 53
f 262 54 46
f 232 226 95
f 88 227 221
f 96 222 216
