mtllib converted_link2_24_d12626ff.mtl
usemtl material
v -0.0005922882119193673 -0.002704320242628455 5.0010159611701965e-05
v -0.0005922882119193673 -0.002704320242628455 5.0010159611701965e-05
v -0.0005922882119193673 -0.002704320242628455 5.0010159611701965e-05
v -0.0005922882119193673 -0.002704320242628455 -5.0010159611701965e-05
v -0.0005922882119193673 -0.002704320242628455 -5.0010159611701965e-05
v -0.0005922882119193673 -0.002704320242628455 -5.0010159611701965e-05
v -0.0005963860312476754 -0.0023685104679316282 -5.0010159611701965e-05
v -0.0005963860312476754 -0.0023685104679316282 -5.0010159611701965e-05
v -0.0005963860312476754 -0.0023685104679316282 -5.0010159611701965e-05
v -0.0005963860312476754 -0.0023685104679316282 -5.0010159611701965e-05
v -0.0005963860312476754 -0.0023685104679316282 -5.0010159611701965e-05
v -0.0005963860312476754 -0.0023685104679316282 5.0010159611701965e-05
v -0.0005963860312476754 -0.0023685104679316282 5.0010159611701965e-05
v -0.0005963860312476754 -0.0023685104679316282 5.0010159611701965e-05
v -0.0005963860312476754 -0.0023685104679316282 5.0010159611701965e-05
v -0.0005963860312476754 -0.0023685104679316282 5.0010159611701965e-05
v -0.0005963860312476754 -0.0023685104679316282 5.0010159611701965e-05
v -0.0005486874142661691 -0.0019473505672067404 -5.0010159611701965e-05
v -0.0005486874142661691 -0.0019473505672067404 -5.0010159611701965e-05
v -0.0005486874142661691 -0.0019473505672067404 -5.0010159611701965e-05
v -0.0005486874142661691 -0.0019473505672067404 -5.0010159611701965e-05
v -0.0005486874142661691 -0.0019473505672067404 5.0010159611701965e-05
v -0.0005486874142661691 -0.0019473505672067404 5.0010159611701965e-05
v -0.0005486874142661691 -0.0019473505672067404 5.0010159611701965e-05
v -0.0004429860273376107 -0.0015380408149212599 -5.0010159611701965e-05
v -0.0004429860273376107 -0.0015380408149212599 -5.0010159611701965e-05
v -0.0004429860273376107 -0.0015380408149212599 -5.0010159611701965e-05
v -0.0004429860273376107 -0.0015380408149212599 -5.0010159611701965e-05
v -0.0004429860273376107 -0.0015380408149212599 5.0010159611701965e-05
v -0.0004429860273376107 -0.0015380408149212599 5.0010159611701965e-05
v -0.0004429860273376107 -0.0015380408149212599 5.0010159611701965e-05
v -0.00028158409986644983 -0.0011481705587357283 -5.0010159611701965e-05
v -0.00028158409986644983 -0.0011481705587357283 -5.0010159611701965e-05
v -0.00028158409986644983 -0.0011481705587357283 -5.0010159611701965e-05
v -0.00028158409986644983 -0.0011481705587357283 -5.0010159611701965e-05
v -0.00028158409986644983 -0.0011481705587357283 5.0010159611701965e-05
v -0.00028158409986644983 -0.0011481705587357283 5.0010159611701965e-05
v -0.00028158409986644983 -0.0011481705587357283 5.0010159611701965e-05
v -0.00028158409986644983 -0.0011481705587357283 5.0010159611701965e-05
v -6.878805288579315e-05 -0.0007857101154513657 -5.0010159611701965e-05
v -6.878805288579315e-05 -0.0007857101154513657 -5.0010159611701965e-05
v -6.878805288579315e-05 -0.0007857101154513657 -5.0010159611701965e-05
v -6.878805288579315e-05 -0.0007857101154513657 5.0010159611701965e-05
v -6.878805288579315e-05 -0.0007857101154513657 5.0010159611701965e-05
v -6.878805288579315e-05 -0.0007857101154513657 5.0010159611701965e-05
v -6.878805288579315e-05 -0.0007857101154513657 5.0010159611701965e-05
v 0.00015741157403681427 -0.0004946005647070706 -5.0010159611701965e-05
v 0.00015741157403681427 -0.0004946005647070706 -5.0010159611701965e-05
v 0.00015741157403681427 -0.0004946005647070706 -5.0010159611701965e-05
v 0.00015741157403681427 -0.0004946005647070706 5.0010159611701965e-05
v 0.00015741157403681427 -0.0004946005647070706 5.0010159611701965e-05
v 0.00015741157403681427 -0.0004946005647070706 5.0010159611701965e-05
v 0.00045201496686786413 -0.00020254058472346514 -5.0010159611701965e-05
v 0.00045201496686786413 -0.00020254058472346514 -5.0010159611701965e-05
v 0.00045201496686786413 -0.00020254058472346514 -5.0010159611701965e-05
v 0.00045201496686786413 -0.00020254058472346514 5.0010159611701965e-05
v 0.00045201496686786413 -0.00020254058472346514 5.0010159611701965e-05
v 0.00045201496686786413 -0.00020254058472346514 5.0010159611701965e-05
v 0.0007815094431862235 4.5179582230048254e-05 -5.0010159611701965e-05
v 0.0007815094431862235 4.5179582230048254e-05 -5.0010159611701965e-05
v 0.0007815094431862235 4.5179582230048254e-05 -5.0010159611701965e-05
v 0.0007815094431862235 4.5179582230048254e-05 -5.0010159611701965e-05
v 0.0007815094431862235 4.5179582230048254e-05 5.0010159611701965e-05
v 0.0007815094431862235 4.5179582230048254e-05 5.0010159611701965e-05
v 0.0007815094431862235 4.5179582230048254e-05 5.0010159611701965e-05
v 0.0007815094431862235 4.5179582230048254e-05 5.0010159611701965e-05
v 0.0011404113611206412 0.00024520952138118446 -5.0010159611701965e-05
v 0.0011404113611206412 0.00024520952138118446 -5.0010159611701965e-05
v 0.0011404113611206412 0.00024520952138118446 -5.0010159611701965e-05
v 0.0011404113611206412 0.00024520952138118446 -5.0010159611701965e-05
v 0.0011404113611206412 0.00024520952138118446 5.0010159611701965e-05
v 0.0011404113611206412 0.00024520952138118446 5.0010159611701965e-05
v 0.0011404113611206412 0.00024520952138118446 5.0010159611701965e-05
v 0.001530113979242742 0.000397029536543414 -5.0010159611701965e-05
v 0.001530113979242742 0.000397029536543414 -5.0010159611701965e-05
v 0.001530113979242742 0.000397029536543414 -5.0010159611701965e-05
v 0.001530113979242742 0.000397029536543414 5.0010159611701965e-05
v 0.001530113979242742 0.000397029536543414 5.0010159611701965e-05
v 0.001530113979242742 0.000397029536543414 5.0010159611701965e-05
v 0.001744914217852056 0.0004829095851164311 -5.0010159611701965e-05
v 0.001744914217852056 0.0004829095851164311 -5.0010159611701965e-05
v 0.001744914217852056 0.0004829095851164311 -5.0010159611701965e-05
v 0.001744914217852056 0.0004829095851164311 5.0010159611701965e-05
v 0.001744914217852056 0.0004829095851164311 5.0010159611701965e-05
v 0.001744914217852056 0.0004829095851164311 5.0010159611701965e-05
v 0.0019977125339210033 0.0006407496402971447 -5.0010159611701965e-05
v 0.0019977125339210033 0.0006407496402971447 -5.0010159611701965e-05
v 0.0019977125339210033 0.0006407496402971447 -5.0010159611701965e-05
v 0.0019977125339210033 0.0006407496402971447 5.0010159611701965e-05
v 0.0019977125339210033 0.0006407496402971447 5.0010159611701965e-05
v 0.0019977125339210033 0.0006407496402971447 5.0010159611701965e-05
v 0.0019977125339210033 0.0006407496402971447 5.0010159611701965e-05
v 0.002213011961430311 0.000845129310619086 -5.0010159611701965e-05
v 0.002213011961430311 0.000845129310619086 -5.0010159611701965e-05
v 0.002213011961430311 0.000845129310619086 -5.0010159611701965e-05
v 0.002213011961430311 0.000845129310619086 -5.0010159611701965e-05
v 0.002213011961430311 0.000845129310619086 5.0010159611701965e-05
v 0.002213011961430311 0.000845129310619086 5.0010159611701965e-05
v 0.002213011961430311 0.000845129310619086 5.0010159611701965e-05
v 0.0023828106932342052 0.001086829463019967 -5.0010159611701965e-05
v 0.0023828106932342052 0.001086829463019967 -5.0010159611701965e-05
v 0.0023828106932342052 0.001086829463019967 -5.0010159611701965e-05
v 0.0023828106932342052 0.001086829463019967 5.0010159611701965e-05
v 0.0023828106932342052 0.001086829463019967 5.0010159611701965e-05
v 0.0024124118499457836 0.0011419595684856176 -5.0010159611701965e-05
v 0.0024124118499457836 0.0011419595684856176 -5.0010159611701965e-05
v 0.0024124118499457836 0.0011419595684856176 -5.0010159611701965e-05
v 0.0024124118499457836 0.0011419595684856176 5.0010159611701965e-05
v 0.0024124118499457836 0.0011419595684856176 5.0010159611701965e-05
v 0.002518612425774336 0.0014120296109467745 -5.0010159611701965e-05
v 0.002518612425774336 0.0014120296109467745 -5.0010159611701965e-05
v 0.002518612425774336 0.0014120296109467745 -5.0010159611701965e-05
v 0.002518612425774336 0.0014120296109467745 5.0010159611701965e-05
v 0.002518612425774336 0.0014120296109467745 5.0010159611701965e-05
v 0.002518612425774336 0.0014120296109467745 5.0010159611701965e-05
v 0.0025702151469886303 0.001693659694865346 -5.0010159611701965e-05
v 0.0025702151469886303 0.001693659694865346 -5.0010159611701965e-05
v 0.0025702151469886303 0.001693659694865346 -5.0010159611701965e-05
v 0.0025702151469886303 0.001693659694865346 -5.0010159611701965e-05
v 0.0025702151469886303 0.001693659694865346 5.0010159611701965e-05
v 0.0025702151469886303 0.001693659694865346 5.0010159611701965e-05
v 0.0025702151469886303 0.001693659694865346 5.0010159611701965e-05
v 0.0025702151469886303 0.001693659694865346 5.0010159611701965e-05
v 0.002566914539784193 0.001977799693122506 -5.0010159611701965e-05
v 0.002566914539784193 0.001977799693122506 -5.0010159611701965e-05
v 0.002566914539784193 0.001977799693122506 -5.0010159611701965e-05
v 0.002566914539784193 0.001977799693122506 5.0010159611701965e-05
v 0.002566914539784193 0.001977799693122506 5.0010159611701965e-05
v 0.0025072130374610424 0.002263659378513694 -5.0010159611701965e-05
v 0.0025072130374610424 0.002263659378513694 -5.0010159611701965e-05
v 0.0025072130374610424 0.002263659378513694 -5.0010159611701965e-05
v 0.0025072130374610424 0.002263659378513694 5.0010159611701965e-05
v 0.0025072130374610424 0.002263659378513694 5.0010159611701965e-05
v 0.0025072130374610424 0.002263659378513694 5.0010159611701965e-05
v 0.0024215090088546276 0.0024783594999462366 -5.0010159611701965e-05
v 0.0024215090088546276 0.0024783594999462366 -5.0010159611701965e-05
v 0.0024215090088546276 0.0024783594999462366 -5.0010159611701965e-05
v 0.0024215090088546276 0.0024783594999462366 5.0010159611701965e-05
v 0.0024215090088546276 0.0024783594999462366 5.0010159611701965e-05
v 0.0024215090088546276 0.0024783594999462366 5.0010159611701965e-05
v 0.002263713162392378 0.002731139538809657 -5.0010159611701965e-05
v 0.002263713162392378 0.002731139538809657 -5.0010159611701965e-05
v 0.002263713162392378 0.002731139538809657 -5.0010159611701965e-05
v 0.002263713162392378 0.002731139538809657 5.0010159611701965e-05
v 0.002263713162392378 0.002731139538809657 5.0010159611701965e-05
v 0.002263713162392378 0.002731139538809657 5.0010159611701965e-05
v 0.0020594107918441296 0.0029463793616741896 -5.0010159611701965e-05
v 0.0020594107918441296 0.0029463793616741896 -5.0010159611701965e-05
v 0.0020594107918441296 0.0029463793616741896 -5.0010159611701965e-05
v 0.0020594107918441296 0.0029463793616741896 5.0010159611701965e-05
v 0.0020594107918441296 0.0029463793616741896 5.0010159611701965e-05
v 0.0020594107918441296 0.0029463793616741896 5.0010159611701965e-05
v 0.0018177138408645988 0.0031161296647042036 -5.0010159611701965e-05
v 0.0018177138408645988 0.0031161296647042036 -5.0010159611701965e-05
v 0.0018177138408645988 0.0031161296647042036 -5.0010159611701965e-05
v 0.0018177138408645988 0.0031161296647042036 5.0010159611701965e-05
v 0.0018177138408645988 0.0031161296647042036 5.0010159611701965e-05
v 0.0018177138408645988 0.0031161296647042036 5.0010159611701965e-05
v 0.00176241563167423 0.003145809518173337 -5.0010159611701965e-05
v 0.00176241563167423 0.003145809518173337 -5.0010159611701965e-05
v 0.00176241563167423 0.003145809518173337 -5.0010159611701965e-05
v 0.00176241563167423 0.003145809518173337 5.0010159611701965e-05
v 0.00176241563167423 0.003145809518173337 5.0010159611701965e-05
v 0.0014923097332939506 0.003252029651775956 -5.0010159611701965e-05
v 0.0014923097332939506 0.003252029651775956 -5.0010159611701965e-05
v 0.0014923097332939506 0.003252029651775956 -5.0010159611701965e-05
v 0.0014923097332939506 0.003252029651775956 5.0010159611701965e-05
v 0.0014923097332939506 0.003252029651775956 5.0010159611701965e-05
v 0.0014923097332939506 0.003252029651775956 5.0010159611701965e-05
v 0.0012107150396332145 0.003303649602457881 -5.0010159611701965e-05
v 0.0012107150396332145 0.003303649602457881 -5.0010159611701965e-05
v 0.0012107150396332145 0.003303649602457881 -5.0010159611701965e-05
v 0.0012107150396332145 0.003303649602457881 5.0010159611701965e-05
v 0.0012107150396332145 0.003303649602457881 5.0010159611701965e-05
v 0.0012107150396332145 0.003303649602457881 5.0010159611701965e-05
v 0.0009266095003113151 0.0033003094140440226 -5.0010159611701965e-05
v 0.0009266095003113151 0.0033003094140440226 -5.0010159611701965e-05
v 0.0009266095003113151 0.0033003094140440226 -5.0010159611701965e-05
v 0.0009266095003113151 0.0033003094140440226 5.0010159611701965e-05
v 0.0009266095003113151 0.0033003094140440226 5.0010159611701965e-05
v 0.0009266095003113151 0.0033003094140440226 5.0010159611701965e-05
v 0.0006408126791939139 0.003240579506382346 -5.0010159611701965e-05
v 0.0006408126791939139 0.003240579506382346 -5.0010159611701965e-05
v 0.0006408126791939139 0.003240579506382346 5.0010159611701965e-05
v 0.0006408126791939139 0.003240579506382346 5.0010159611701965e-05
v 0.0006408126791939139 0.003240579506382346 5.0010159611701965e-05
v 0.0005264090141281486 0.0031996893230825663 -5.0010159611701965e-05
v 0.0005264090141281486 0.0031996893230825663 -5.0010159611701965e-05
v 0.0005264090141281486 0.0031996893230825663 -5.0010159611701965e-05
v 0.0005264090141281486 0.0031996893230825663 -5.0010159611701965e-05
v 0.0005264090141281486 0.0031996893230825663 5.0010159611701965e-05
v 0.0005264090141281486 0.0031996893230825663 5.0010159611701965e-05
v 0.0005264090141281486 0.0031996893230825663 5.0010159611701965e-05
v 0.0005264090141281486 0.0031996893230825663 5.0010159611701965e-05
v 0.0002622114261612296 0.003060699673369527 -5.0010159611701965e-05
v 0.0002622114261612296 0.003060699673369527 -5.0010159611701965e-05
v 0.0002622114261612296 0.003060699673369527 5.0010159611701965e-05
v 0.0002622114261612296 0.003060699673369527 5.0010159611701965e-05
v 3.24131797242444e-05 0.002872759709134698 -5.0010159611701965e-05
v 3.24131797242444e-05 0.002872759709134698 -5.0010159611701965e-05
v 3.24131797242444e-05 0.002872759709134698 5.0010159611701965e-05
v 3.24131797242444e-05 0.002872759709134698 5.0010159611701965e-05
v -0.000154387773363851 0.002644539577886462 -5.0010159611701965e-05
v -0.000154387773363851 0.002644539577886462 -5.0010159611701965e-05
v -0.000154387773363851 0.002644539577886462 -5.0010159611701965e-05
v -0.000154387773363851 0.002644539577886462 5.0010159611701965e-05
v -0.000154387773363851 0.002644539577886462 5.0010159611701965e-05
v -0.0002925886074081063 0.0023847196716815233 -5.0010159611701965e-05
v -0.0002925886074081063 0.0023847196716815233 -5.0010159611701965e-05
v -0.0002925886074081063 0.0023847196716815233 -5.0010159611701965e-05
v -0.0002925886074081063 0.0023847196716815233 5.0010159611701965e-05
v -0.0002925886074081063 0.0023847196716815233 5.0010159611701965e-05
v -0.0002925886074081063 0.0023847196716815233 5.0010159611701965e-05
v -0.0003758860984817147 0.002109529683366418 -5.0010159611701965e-05
v -0.0003758860984817147 0.002109529683366418 -5.0010159611701965e-05
v -0.0003758860984817147 0.002109529683366418 -5.0010159611701965e-05
v -0.0003758860984817147 0.002109529683366418 5.0010159611701965e-05
v -0.0003758860984817147 0.002109529683366418 5.0010159611701965e-05
v -0.0003758860984817147 0.002109529683366418 5.0010159611701965e-05
v -0.0004044888773933053 0.0018261095974594355 -5.0010159611701965e-05
v -0.0004044888773933053 0.0018261095974594355 -5.0010159611701965e-05
v -0.0004044888773933053 0.0018261095974594355 5.0010159611701965e-05
v -0.0004044888773933053 0.0018261095974594355 5.0010159611701965e-05
v -0.00037708564195781946 0.0015355295035988092 -5.0010159611701965e-05
v -0.00037708564195781946 0.0015355295035988092 -5.0010159611701965e-05
v -0.00037708564195781946 0.0015355295035988092 -5.0010159611701965e-05
v -0.00037708564195781946 0.0015355295035988092 -5.0010159611701965e-05
v -0.00037708564195781946 0.0015355295035988092 -5.0010159611701965e-05
v -0.00037708564195781946 0.0015355295035988092 -5.0010159611701965e-05
v -0.00037708564195781946 0.0015355295035988092 -5.0010159611701965e-05
v -0.00037708564195781946 0.0015355295035988092 -5.0010159611701965e-05
v -0.00037708564195781946 0.0015355295035988092 -5.0010159611701965e-05
v -0.00037708564195781946 0.0015355295035988092 5.0010159611701965e-05
v -0.00037708564195781946 0.0015355295035988092 5.0010159611701965e-05
v -0.00037708564195781946 0.0015355295035988092 5.0010159611701965e-05
v -0.00037708564195781946 0.0015355295035988092 5.0010159611701965e-05
v -0.00037708564195781946 0.0015355295035988092 5.0010159611701965e-05
v -0.00037708564195781946 0.0015355295035988092 5.0010159611701965e-05
v -0.00037708564195781946 0.0015355295035988092 5.0010159611701965e-05
v -0.00037708564195781946 0.0015355295035988092 5.0010159611701965e-05
v -0.00037708564195781946 0.0015355295035988092 5.0010159611701965e-05
v -0.00037708564195781946 0.0015355295035988092 5.0010159611701965e-05
v -0.0003313912311568856 0.0012025793548673391 -5.0010159611701965e-05
v -0.0003313912311568856 0.0012025793548673391 -5.0010159611701965e-05
v -0.0003313912311568856 0.0012025793548673391 -5.0010159611701965e-05
v -0.0003313912311568856 0.0012025793548673391 -5.0010159611701965e-05
v -0.0003313912311568856 0.0012025793548673391 -5.0010159611701965e-05
v -0.0003313912311568856 0.0012025793548673391 -5.0010159611701965e-05
v -0.0003313912311568856 0.0012025793548673391 5.0010159611701965e-05
v -0.0003313912311568856 0.0012025793548673391 5.0010159611701965e-05
v -0.0003313912311568856 0.0012025793548673391 5.0010159611701965e-05
v -0.0003313912311568856 0.0012025793548673391 5.0010159611701965e-05
v -0.0003313912311568856 0.0012025793548673391 5.0010159611701965e-05
v -0.0003313912311568856 0.0012025793548673391 5.0010159611701965e-05
v -0.0003266899148002267 0.0007787893409840763 -5.0010159611701965e-05
v -0.0003266899148002267 0.0007787893409840763 -5.0010159611701965e-05
v -0.0003266899148002267 0.0007787893409840763 -5.0010159611701965e-05
v -0.0003266899148002267 0.0007787893409840763 -5.0010159611701965e-05
v -0.0003266899148002267 0.0007787893409840763 -5.0010159611701965e-05
v -0.0003266899148002267 0.0007787893409840763 -5.0010159611701965e-05
v -0.0003266899148002267 0.0007787893409840763 5.0010159611701965e-05
v -0.0003266899148002267 0.0007787893409840763 5.0010159611701965e-05
v -0.0003266899148002267 0.0007787893409840763 5.0010159611701965e-05
v -0.0003266899148002267 0.0007787893409840763 5.0010159611701965e-05
v -0.0003266899148002267 0.0007787893409840763 5.0010159611701965e-05
v -0.0003266899148002267 0.0007787893409840763 5.0010159611701965e-05
v -0.00038108660373836756 0.00035964950802735984 -5.0010159611701965e-05
v -0.00038108660373836756 0.00035964950802735984 -5.0010159611701965e-05
v -0.00038108660373836756 0.00035964950802735984 -5.0010159611701965e-05
v -0.00038108660373836756 0.00035964950802735984 -5.0010159611701965e-05
v -0.00038108660373836756 0.00035964950802735984 5.0010159611701965e-05
v -0.00038108660373836756 0.00035964950802735984 5.0010159611701965e-05
v -0.00038108660373836756 0.00035964950802735984 5.0010159611701965e-05
v -0.0004929868737235665 -4.715034083346836e-05 -5.0010159611701965e-05
v -0.0004929868737235665 -4.715034083346836e-05 -5.0010159611701965e-05
v -0.0004929868737235665 -4.715034083346836e-05 -5.0010159611701965e-05
v -0.0004929868737235665 -4.715034083346836e-05 -5.0010159611701965e-05
v -0.0004929868737235665 -4.715034083346836e-05 -5.0010159611701965e-05
v -0.0004929868737235665 -4.715034083346836e-05 5.0010159611701965e-05
v -0.0004929868737235665 -4.715034083346836e-05 5.0010159611701965e-05
v -0.0004929868737235665 -4.715034083346836e-05 5.0010159611701965e-05
v -0.0006594849983230233 -0.00043309040484018624 -5.0010159611701965e-05
v -0.0006594849983230233 -0.00043309040484018624 -5.0010159611701965e-05
v -0.0006594849983230233 -0.00043309040484018624 5.0010159611701965e-05
v -0.0006594849983230233 -0.00043309040484018624 5.0010159611701965e-05
v -0.0006594849983230233 -0.00043309040484018624 5.0010159611701965e-05
v -0.0008480889955535531 -0.0007499501225538552 -5.0010159611701965e-05
v -0.0008480889955535531 -0.0007499501225538552 -5.0010159611701965e-05
v -0.0008480889955535531 -0.0007499501225538552 -5.0010159611701965e-05
v -0.0008480889955535531 -0.0007499501225538552 -5.0010159611701965e-05
v -0.0008480889955535531 -0.0007499501225538552 5.0010159611701965e-05
v -0.0008480889955535531 -0.0007499501225538552 5.0010159611701965e-05
v -0.0008480889955535531 -0.0007499501225538552 5.0010159611701965e-05
v -0.0011042846599593759 -0.0010762203019112349 -5.0010159611701965e-05
v -0.0011042846599593759 -0.0010762203019112349 -5.0010159611701965e-05
v -0.0011042846599593759 -0.0010762203019112349 -5.0010159611701965e-05
v -0.0011042846599593759 -0.0010762203019112349 5.0010159611701965e-05
v -0.0011042846599593759 -0.0010762203019112349 5.0010159611701965e-05
v -0.0014007879653945565 -0.0013627407606691122 -5.0010159611701965e-05
v -0.0014007879653945565 -0.0013627407606691122 -5.0010159611701965e-05
v -0.0014007879653945565 -0.0013627407606691122 -5.0010159611701965e-05
v -0.0014007879653945565 -0.0013627407606691122 5.0010159611701965e-05
v -0.0014007879653945565 -0.0013627407606691122 5.0010159611701965e-05
v -0.0017322866478934884 -0.0016055104788392782 -5.0010159611701965e-05
v -0.0017322866478934884 -0.0016055104788392782 -5.0010159611701965e-05
v -0.0017322866478934884 -0.0016055104788392782 -5.0010159611701965e-05
v -0.0017322866478934884 -0.0016055104788392782 -5.0010159611701965e-05
v -0.0017322866478934884 -0.0016055104788392782 5.0010159611701965e-05
v -0.0017322866478934884 -0.0016055104788392782 5.0010159611701965e-05
v -0.0017322866478934884 -0.0016055104788392782 5.0010159611701965e-05
v -0.0021000844426453114 -0.0018042901065200567 -5.0010159611701965e-05
v -0.0021000844426453114 -0.0018042901065200567 -5.0010159611701965e-05
v -0.0021000844426453114 -0.0018042901065200567 5.0010159611701965e-05
v -0.0021000844426453114 -0.0018042901065200567 5.0010159611701965e-05
v -0.0021000844426453114 -0.0018042901065200567 5.0010159611701965e-05
v -0.0021000844426453114 -0.0018042901065200567 5.0010159611701965e-05
v -0.002294186968356371 -0.001918500056490302 -5.0010159611701965e-05
v -0.002294186968356371 -0.001918500056490302 -5.0010159611701965e-05
v -0.002294186968356371 -0.001918500056490302 -5.0010159611701965e-05
v -0.002294186968356371 -0.001918500056490302 -5.0010159611701965e-05
v -0.002294186968356371 -0.001918500056490302 5.0010159611701965e-05
v -0.002294186968356371 -0.001918500056490302 5.0010159611701965e-05
v -0.002294186968356371 -0.001918500056490302 5.0010159611701965e-05
v -0.002477687317878008 -0.002091830363497138 -5.0010159611701965e-05
v -0.002477687317878008 -0.002091830363497138 -5.0010159611701965e-05
v -0.002477687317878008 -0.002091830363497138 -5.0010159611701965e-05
v -0.002477687317878008 -0.002091830363497138 5.0010159611701965e-05
v -0.002477687317878008 -0.002091830363497138 5.0010159611701965e-05
v -0.002477687317878008 -0.002091830363497138 5.0010159611701965e-05
v -0.0026144874282181263 -0.0023019302170723677 -5.0010159611701965e-05
v -0.0026144874282181263 -0.0023019302170723677 -5.0010159611701965e-05
v -0.0026144874282181263 -0.0023019302170723677 -5.0010159611701965e-05
v -0.0026144874282181263 -0.0023019302170723677 5.0010159611701965e-05
v -0.0026144874282181263 -0.0023019302170723677 5.0010159611701965e-05
v -0.0026144874282181263 -0.0023019302170723677 5.0010159611701965e-05
v -0.0026907888241112232 -0.002505600219592452 -5.0010159611701965e-05
v -0.0026907888241112232 -0.002505600219592452 -5.0010159611701965e-05
v -0.0026907888241112232 -0.002505600219592452 -5.0010159611701965e-05
v -0.0026907888241112232 -0.002505600219592452 -5.0010159611701965e-05
v -0.0026907888241112232 -0.002505600219592452 5.0010159611701965e-05
v -0.0026907888241112232 -0.002505600219592452 5.0010159611701965e-05
v -0.0026907888241112232 -0.002505600219592452 5.0010159611701965e-05
v -0.0026907888241112232 -0.002505600219592452 5.0010159611701965e-05
v -0.0027254861779510975 -0.002745630918070674 -5.0010159611701965e-05
v -0.0027254861779510975 -0.002745630918070674 -5.0010159611701965e-05
v -0.0027254861779510975 -0.002745630918070674 -5.0010159611701965e-05
v -0.0027254861779510975 -0.002745630918070674 -5.0010159611701965e-05
v -0.0027254861779510975 -0.002745630918070674 -5.0010159611701965e-05
v -0.0027254861779510975 -0.002745630918070674 -5.0010159611701965e-05
v -0.0027254861779510975 -0.002745630918070674 -5.0010159611701965e-05
v -0.0027254861779510975 -0.002745630918070674 -5.0010159611701965e-05
v -0.0027254861779510975 -0.002745630918070674 -5.0010159611701965e-05
v -0.0027254861779510975 -0.002745630918070674 -5.0010159611701965e-05
v -0.0027254861779510975 -0.002745630918070674 5.0010159611701965e-05
v -0.0027254861779510975 -0.002745630918070674 5.0010159611701965e-05
v -0.0027254861779510975 -0.002745630918070674 5.0010159611701965e-05
v -0.0027254861779510975 -0.002745630918070674 5.0010159611701965e-05
v -0.0027254861779510975 -0.002745630918070674 5.0010159611701965e-05
v -0.0027254861779510975 -0.002745630918070674 5.0010159611701965e-05
v -0.0027254861779510975 -0.002745630918070674 5.0010159611701965e-05
v -0.0027254861779510975 -0.002745630918070674 5.0010159611701965e-05
v -0.002705585677176714 -0.0029841007199138403 -5.0010159611701965e-05
v -0.002705585677176714 -0.0029841007199138403 -5.0010159611701965e-05
v -0.002705585677176714 -0.0029841007199138403 5.0010159611701965e-05
v -0.002705585677176714 -0.0029841007199138403 5.0010159611701965e-05
v -0.002705585677176714 -0.0029841007199138403 5.0010159611701965e-05
v -0.002629790920764208 -0.0032185900490731 -5.0010159611701965e-05
v -0.002629790920764208 -0.0032185900490731 -5.0010159611701965e-05
v -0.002629790920764208 -0.0032185900490731 5.0010159611701965e-05
v -0.002629790920764208 -0.0032185900490731 5.0010159611701965e-05
v -0.002629790920764208 -0.0032185900490731 5.0010159611701965e-05
v -0.0025155884213745594 -0.003412720514461398 -5.0010159611701965e-05
v -0.0025155884213745594 -0.003412720514461398 -5.0010159611701965e-05
v -0.0025155884213745594 -0.003412720514461398 -5.0010159611701965e-05
v -0.0025155884213745594 -0.003412720514461398 5.0010159611701965e-05
v -0.0025155884213745594 -0.003412720514461398 5.0010159611701965e-05
v -0.0025155884213745594 -0.003412720514461398 5.0010159611701965e-05
v -0.002342384774237871 -0.003596240421757102 -5.0010159611701965e-05
v -0.002342384774237871 -0.003596240421757102 -5.0010159611701965e-05
v -0.002342384774237871 -0.003596240421757102 5.0010159611701965e-05
v -0.002342384774237871 -0.003596240421757102 5.0010159611701965e-05
v -0.002132285851985216 -0.003733100136741996 -5.0010159611701965e-05
v -0.002132285851985216 -0.003733100136741996 -5.0010159611701965e-05
v -0.002132285851985216 -0.003733100136741996 -5.0010159611701965e-05
v -0.002132285851985216 -0.003733100136741996 -5.0010159611701965e-05
v -0.002132285851985216 -0.003733100136741996 5.0010159611701965e-05
v -0.002132285851985216 -0.003733100136741996 5.0010159611701965e-05
v -0.002132285851985216 -0.003733100136741996 5.0010159611701965e-05
v -0.002132285851985216 -0.003733100136741996 5.0010159611701965e-05
v -0.002132285851985216 -0.003733100136741996 5.0010159611701965e-05
v -0.0019283859292045236 -0.0038094508927315474 -5.0010159611701965e-05
v -0.0019283859292045236 -0.0038094508927315474 -5.0010159611701965e-05
v -0.0019283859292045236 -0.0038094508927315474 -5.0010159611701965e-05
v -0.0019283859292045236 -0.0038094508927315474 5.0010159611701965e-05
v -0.0019283859292045236 -0.0038094508927315474 5.0010159611701965e-05
v -0.0019283859292045236 -0.0038094508927315474 5.0010159611701965e-05
v -0.0016883878270164132 -0.0038440802600234747 -5.0010159611701965e-05
v -0.0016883878270164132 -0.0038440802600234747 -5.0010159611701965e-05
v -0.0016883878270164132 -0.0038440802600234747 -5.0010159611701965e-05
v -0.0016883878270164132 -0.0038440802600234747 5.0010159611701965e-05
v -0.0016883878270164132 -0.0038440802600234747 5.0010159611701965e-05
v -0.0016883878270164132 -0.0038440802600234747 5.0010159611701965e-05
v -0.0014499841490760446 -0.0038241108413785696 -5.0010159611701965e-05
v -0.0014499841490760446 -0.0038241108413785696 -5.0010159611701965e-05
v -0.0014499841490760446 -0.0038241108413785696 -5.0010159611701965e-05
v -0.0014499841490760446 -0.0038241108413785696 5.0010159611701965e-05
v -0.0014499841490760446 -0.0038241108413785696 5.0010159611701965e-05
v -0.0014499841490760446 -0.0038241108413785696 5.0010159611701965e-05
v -0.001215484575368464 -0.003748290939256549 -5.0010159611701965e-05
v -0.001215484575368464 -0.003748290939256549 -5.0010159611701965e-05
v -0.001215484575368464 -0.003748290939256549 -5.0010159611701965e-05
v -0.001215484575368464 -0.003748290939256549 5.0010159611701965e-05
v -0.001215484575368464 -0.003748290939256549 5.0010159611701965e-05
v -0.001215484575368464 -0.003748290939256549 5.0010159611701965e-05
v -0.0011520875850692391 -0.0037168802227824926 -5.0010159611701965e-05
v -0.0011520875850692391 -0.0037168802227824926 -5.0010159611701965e-05
v -0.0011520875850692391 -0.0037168802227824926 -5.0010159611701965e-05
v -0.0011520875850692391 -0.0037168802227824926 5.0010159611701965e-05
v -0.0011520875850692391 -0.0037168802227824926 5.0010159611701965e-05
v -0.0011520875850692391 -0.0037168802227824926 5.0010159611701965e-05
v -0.0009600861230865121 -0.003584920195862651 -5.0010159611701965e-05
v -0.0009600861230865121 -0.003584920195862651 -5.0010159611701965e-05
v -0.0009600861230865121 -0.003584920195862651 -5.0010159611701965e-05
v -0.0009600861230865121 -0.003584920195862651 5.0010159611701965e-05
v -0.0009600861230865121 -0.003584920195862651 5.0010159611701965e-05
v -0.0009600861230865121 -0.003584920195862651 5.0010159611701965e-05
v -0.0007911889115348458 -0.003400620771571994 -5.0010159611701965e-05
v -0.0007911889115348458 -0.003400620771571994 -5.0010159611701965e-05
v -0.0007911889115348458 -0.003400620771571994 -5.0010159611701965e-05
v -0.0007911889115348458 -0.003400620771571994 5.0010159611701965e-05
v -0.0007911889115348458 -0.003400620771571994 5.0010159611701965e-05
v -0.0007911889115348458 -0.003400620771571994 5.0010159611701965e-05
v -0.0006703851977363229 -0.0031833609100431204 -5.0010159611701965e-05
v -0.0006703851977363229 -0.0031833609100431204 -5.0010159611701965e-05
v -0.0006703851977363229 -0.0031833609100431204 -5.0010159611701965e-05
v -0.0006703851977363229 -0.0031833609100431204 5.0010159611701965e-05
v -0.0006703851977363229 -0.0031833609100431204 5.0010159611701965e-05
v -0.0006703851977363229 -0.0031833609100431204 5.0010159611701965e-05
v -0.0006040899315848947 -0.0029506103601306677 -5.0010159611701965e-05
v -0.0006040899315848947 -0.0029506103601306677 -5.0010159611701965e-05
v -0.0006040899315848947 -0.0029506103601306677 -5.0010159611701965e-05
v -0.0006040899315848947 -0.0029506103601306677 5.0010159611701965e-05
v -0.0006040899315848947 -0.0029506103601306677 5.0010159611701965e-05
f 1 4 9
f 1 9 17
f 17 9 19
f 17 19 23
f 23 19 26
f 23 26 29
f 29 26 32
f 29 32 39
f 39 32 40
f 39 40 46
f 46 40 48
f 46 48 51
f 51 48 55
f 51 55 56
f 56 55 60
f 56 60 66
f 66 60 69
f 66 69 71
f 71 69 74
f 71 74 79
f 79 74 82
f 79 82 85
f 85 82 88
f 85 88 91
f 91 88 93
f 91 93 98
f 98 93 100
f 98 100 104
f 104 100 107
f 104 107 108
f 108 107 110
f 108 110 113
f 113 110 117
f 113 117 123
f 123 117 125
f 123 125 128
f 128 125 131
f 128 131 133
f 133 131 135
f 133 135 138
f 138 135 143
f 138 143 146
f 146 143 149
f 146 149 152
f 152 149 154
f 152 154 158
f 158 154 160
f 158 160 163
f 163 160 166
f 163 166 169
f 169 166 172
f 169 172 173
f 173 172 178
f 173 178 180
f 180 178 182
f 180 182 184
f 184 182 188
f 184 188 191
f 191 188 196
f 191 196 197
f 197 196 199
f 197 199 202
f 202 199 204
f 202 204 207
f 207 204 210
f 207 210 213
f 213 210 214
f 213 214 217
f 217 214 220
f 217 220 222
f 222 220 224
f 222 224 236
f 236 224 243
f 236 243 249
f 249 243 256
f 249 256 262
f 262 256 270
f 262 270 272
f 272 270 278
f 272 278 280
f 280 278 282
f 280 282 286
f 286 282 289
f 286 289 293
f 293 289 295
f 293 295 298
f 298 295 299
f 298 299 303
f 303 299 307
f 303 307 309
f 309 307 311
f 309 311 316
f 316 311 317
f 316 317 323
f 323 317 326
f 323 326 329
f 329 326 332
f 329 332 335
f 335 332 338
f 335 338 342
f 342 338 349
f 342 349 360
f 360 349 362
f 360 362 364
f 364 362 367
f 364 367 371
f 371 367 372
f 371 372 377
f 377 372 378
f 377 378 380
f 380 378 383
f 380 383 386
f 386 383 391
f 386 391 395
f 395 391 399
f 395 399 402
f 402 399 405
f 402 405 407
f 407 405 410
f 407 410 412
f 412 410 415
f 412 415 420
f 420 415 423
f 420 423 425
f 425 423 428
f 425 428 430
f 430 428 435
f 430 435 436
f 436 435 440
f 436 440 442
f 442 440 4
f 442 4 1
f 103 109 252
f 157 162 234
f 109 115 252
f 250 114 120
f 253 121 239
f 308 314 22
f 328 333 16
f 12 334 340
f 13 341 2
f 3 343 355
f 3 355 443
f 24 313 16
f 14 315 322
f 15 321 327
f 361 418 424
f 78 84 266
f 265 83 90
f 263 92 251
f 254 89 97
f 252 99 103
f 279 57 271
f 273 58 65
f 271 64 266
f 261 63 72
f 264 73 77
f 310 24 302
f 302 24 31
f 302 31 297
f 122 127 234
f 234 127 132
f 237 134 139
f 162 168 234
f 242 167 174
f 233 175 181
f 211 219 193
f 179 186 234
f 240 185 192
f 234 194 223
f 223 194 218
f 140 145 235
f 238 144 151
f 241 150 156
f 401 406 355
f 354 408 414
f 356 413 419
f 426 431 355
f 357 432 438
f 355 437 443
f 297 31 291
f 292 30 37
f 291 36 284
f 285 38 45
f 284 43 279
f 281 44 52
f 279 50 57
f 198 201 194
f 194 201 206
f 194 206 212
f 365 390 355
f 358 387 394
f 359 396 400
f 366 370 388
f 390 369 375
f 389 376 381
f 80 76 255
f 258 75 67
f 257 70 267
f 269 68 62
f 268 61 277
f 330 324 8
f 7 325 318
f 10 320 20
f 129 124 226
f 227 126 116
f 226 118 248
f 247 119 111
f 248 112 105
f 189 183 226
f 319 312 18
f 18 312 304
f 21 305 28
f 106 102 246
f 244 101 95
f 245 94 259
f 255 96 87
f 260 86 81
f 183 177 226
f 225 176 171
f 231 170 164
f 331 11 339
f 336 8 5
f 337 6 351
f 345 5 441
f 350 439 433
f 226 221 189
f 189 221 216
f 187 215 208
f 165 159 226
f 229 161 155
f 228 153 147
f 306 300 27
f 25 301 296
f 25 296 33
f 34 294 288
f 35 290 42
f 41 287 283
f 41 283 47
f 47 283 274
f 49 275 53
f 54 276 59
f 434 427 345
f 344 429 422
f 348 421 416
f 417 409 345
f 347 411 404
f 352 403 397
f 148 141 230
f 226 142 137
f 232 136 130
f 368 382 373
f 374 385 379
f 398 392 353
f 346 393 384
f 345 382 363
f 363 382 368
f 209 203 190
f 189 205 200
f 189 200 195
