mtllib converted_link3_4_969696ff.mtl
usemtl material
v 0.0019791522063314915 0.002832813886925578 -0.00011290457769064233
v 0.0019791522063314915 0.002832813886925578 -0.00011290457769064233
v 0.001981953624635935 0.0027912657242268324 -0.00011374463065294549
v 0.001981953624635935 0.0027912657242268324 -0.00011374463065294549
v 0.0005073942593298852 0.0019073362927883863 -1.1284246284049004e-05
v 0.0005073942593298852 0.0019073362927883863 -1.1284246284049004e-05
v 0.0005073942593298852 0.0019073362927883863 -1.1284246284049004e-05
v 0.0005073942593298852 0.0019073362927883863 -1.1284246284049004e-05
v 0.0005073942593298852 0.0019073362927883863 -1.1284246284049004e-05
v 0.0005073942593298852 0.0019073362927883863 -1.1284246284049004e-05
v 0.0005073942593298852 0.0019073362927883863 -1.1284246284049004e-05
v 0.0005073942593298852 0.0019073362927883863 -1.1284246284049004e-05
v 0.00197891378775239 0.002748775063082576 -0.00011416372581152245
v 0.00197891378775239 0.002748775063082576 -0.00011416372581152245
v 0.00197891378775239 0.002748775063082576 -0.00011416372581152245
v 0.0005183615139685571 0.0018917161505669355 -1.2414871889632195e-05
v 0.0005183615139685571 0.0018917161505669355 -1.2414871889632195e-05
v 0.0005183615139685571 0.0018917161505669355 -1.2414871889632195e-05
v 0.0005183615139685571 0.0018917161505669355 -1.2414871889632195e-05
v 0.0004114904149901122 0.0007547538261860609 -2.0994215446989983e-05
v 0.0004114904149901122 0.0007547538261860609 -2.0994215446989983e-05
v 0.0004114904149901122 0.0007547538261860609 -2.0994215446989983e-05
v 0.0004114904149901122 0.0007547538261860609 -2.0994215446989983e-05
v 0.00042770287836901844 0.000759585527703166 -2.219375892309472e-05
v 0.00042770287836901844 0.000759585527703166 -2.219375892309472e-05
v 0.0017863311804831028 -1.8735654521151446e-05 -0.00014038418885320425
v 0.0017863311804831028 -1.8735654521151446e-05 -0.00014038418885320425
v 0.0017863311804831028 -1.8735654521151446e-05 -0.00014038418885320425
v 0.0017863311804831028 -1.8735654521151446e-05 -0.00014038418885320425
v 0.0017863311804831028 -1.8735654521151446e-05 -0.00014038418885320425
v 0.0017863311804831028 -1.8735654521151446e-05 -0.00014038418885320425
v 0.0017863311804831028 -1.8735654521151446e-05 -0.00014038418885320425
v 0.0004368819936644286 0.0007688242476433516 -2.2784217435400933e-05
v 0.0004368819936644286 0.0007688242476433516 -2.2784217435400933e-05
v 0.0004368819936644286 0.0007688242476433516 -2.2784217435400933e-05
v 0.0018120803870260715 0.00035886350087821484 -0.00013675389345735312
v 0.0018120803870260715 0.00035886350087821484 -0.00013675389345735312
v 0.0018120803870260715 0.00035886350087821484 -0.00013675389345735312
v 0.0004463591321837157 0.0008027951698750257 -2.3024498659651726e-05
v 0.0004463591321837157 0.0008027951698750257 -2.3024498659651726e-05
v 0.0004463591321837157 0.0008027951698750257 -2.3024498659651726e-05
v 0.001837769988924265 0.000736455200240016 -0.00013317388948053122
v 0.001837769988924265 0.000736455200240016 -0.00013317388948053122
v 0.001837769988924265 0.000736455200240016 -0.00013317388948053122
v 0.001837769988924265 0.000736455200240016 -0.00013317388948053122
v 0.0015870132483541965 -0.0028503139037638903 -0.00016709452029317617
v 0.0015870132483541965 -0.0028503139037638903 -0.00016709452029317617
v 0.0015689530409872532 -0.0031396348495036364 -0.0001699536805972457
v 0.0015689530409872532 -0.0031396348495036364 -0.0001699536805972457
v 0.00025376907433383167 -0.0017342765349894762 -4.5795335609000176e-05
v 0.00025376907433383167 -0.0017342765349894762 -4.5795335609000176e-05
v 0.00025376907433383167 -0.0017342765349894762 -4.5795335609000176e-05
v 0.00025376907433383167 -0.0017342765349894762 -4.5795335609000176e-05
v 0.00025376907433383167 -0.0017342765349894762 -4.5795335609000176e-05
v 0.00025376907433383167 -0.0017342765349894762 -4.5795335609000176e-05
v 0.00025376907433383167 -0.0017342765349894762 -4.5795335609000176e-05
v 0.0015533887781202793 -0.003203523578122258 -0.00016971526201814413
v 0.0015533887781202793 -0.003203523578122258 -0.00016971526201814413
v 0.0018868171609938145 0.002918342826887965 -0.00010438483877805993
v 0.0018868171609938145 0.002918342826887965 -0.00010438483877805993
v 0.0018280544318258762 0.002931575058028102 -9.955499990610406e-05
v 0.0018280544318258762 0.002931575058028102 -9.955499990610406e-05
v 0.0018280544318258762 0.002931575058028102 -9.955499990610406e-05
v 0.0018280544318258762 0.002931575058028102 -9.955499990610406e-05
v 0.0018280544318258762 0.002931575058028102 -9.955499990610406e-05
v 0.0018280544318258762 0.002931575058028102 -9.955499990610406e-05
v 0.0018280544318258762 0.002931575058028102 -9.955499990610406e-05
v 0.0018280544318258762 0.002931575058028102 -9.955499990610406e-05
v 0.0018280544318258762 0.002931575058028102 -9.955499990610406e-05
v 0.0018280544318258762 0.002931575058028102 -9.955499990610406e-05
v 0.0004839100583922118 0.0019190746825188398 -9.253963071387261e-06
v 0.0004839100583922118 0.0019190746825188398 -9.253963071387261e-06
v 0.00045845887507312 0.0019248563330620527 -7.175251539592864e-06
v 0.00045845887507312 0.0019248563330620527 -7.175251539592864e-06
v 0.00017991891945712268 -0.0017342169303447008 -4.0013685065787286e-05
v 0.00017991891945712268 -0.0017342169303447008 -4.0013685065787286e-05
v 0.00023500106181018054 -0.001739816041663289 -4.442442877916619e-05
v 0.00023500106181018054 -0.001739816041663289 -4.442442877916619e-05
v 0.001487592700868845 -0.0032531742472201586 -0.00016530451830476522
v 0.001487592700868845 -0.0032531742472201586 -0.00016530451830476522
v 0.001487592700868845 -0.0032531742472201586 -0.00016530451830476522
v 0.001487592700868845 -0.0032531742472201586 -0.00016530451830476522
v 0.001487592700868845 -0.0032531742472201586 -0.00016530451830476522
v 0.0015258588828146458 -0.00323476386256516 -0.00016798486467450857
v 0.0015258588828146458 -0.00323476386256516 -0.00016798486467450857
v 0.0016078674234449863 -0.0025611643213778734 -0.00016440486069768667
v 0.0016078674234449863 -0.0025611643213778734 -0.00016440486069768667
v 0.0016078674234449863 -0.0025611643213778734 -0.00016440486069768667
v 0.0002640285238157958 -0.0017240841407328844 -4.6454711991827935e-05
v 0.0002640285238157958 -0.0017240841407328844 -4.6454711991827935e-05
v 0.0002640285238157958 -0.0017240841407328844 -4.6454711991827935e-05
v 0.0016373791731894016 -0.0021475155372172594 -0.00016053428407758474
v 0.0016373791731894016 -0.0021475155372172594 -0.00016053428407758474
v 0.0016373791731894016 -0.0021475155372172594 -0.00016053428407758474
v 0.00027361742104403675 -0.0016946953255683184 -4.6804889279883355e-05
v 0.00027361742104403675 -0.0016946953255683184 -4.6804889279883355e-05
v 0.00027361742104403675 -0.0016946953255683184 -4.6804889279883355e-05
v 0.0016666972078382969 -0.00173385557718575 -0.00015665439423173666
v 0.0016666972078382969 -0.00173385557718575 -0.00015665439423173666
v 0.0016666972078382969 -0.00173385557718575 -0.00015665439423173666
v 0.0016666972078382969 -0.00173385557718575 -0.00015665439423173666
v -0.0014150417409837246 0.0004368263762444258 0.0001175251163658686
v -0.0014150417409837246 0.0004368263762444258 0.0001175251163658686
v -0.0014150417409837246 0.0004368263762444258 0.0001175251163658686
v -0.0013916096650063992 0.000762085197493434 0.00012056495324941352
v -0.0013916096650063992 0.000762085197493434 0.00012056495324941352
v 0.0003642835363280028 0.0007595259230583906 -1.7244710761588067e-05
v 0.0003642835363280028 0.0007595259230583906 -1.7244710761588067e-05
v 0.0003642835363280028 0.0007595259230583906 -1.7244710761588067e-05
v 0.0003642835363280028 0.0007595259230583906 -1.7244710761588067e-05
v 0.0003642835363280028 0.0007595259230583906 -1.7244710761588067e-05
v 0.0003642835363280028 0.0007595259230583906 -1.7244710761588067e-05
v -0.0013836896978318691 0.0008765857201069593 0.00012163597421022132
v -0.0013836896978318691 0.0008765857201069593 0.00012163597421022132
v -0.0013836896978318691 0.0008765857201069593 0.00012163597421022132
v -0.0013836896978318691 0.0008765857201069593 0.00012163597421022132
v -0.0022160611115396023 0.002563874004408717 0.00021211581770330667
v -0.0022160611115396023 0.002563874004408717 0.00021211581770330667
v -0.0022160611115396023 0.002563874004408717 0.00021211581770330667
v -0.0022160611115396023 0.002563874004408717 0.00021211581770330667
v -0.002209929283708334 0.0026845138054341078 0.00021342525724321604
v -0.002209929283708334 0.0026845138054341078 0.00021342525724321604
v -0.0023491582833230495 -0.0012442667502909899 0.0001656856620684266
v -0.0023491582833230495 -0.0012442667502909899 0.0001656856620684266
v -0.0023491582833230495 -0.0012442667502909899 0.0001656856620684266
v -0.0023491582833230495 -0.0012442667502909899 0.0001656856620684266
v -0.0023491582833230495 -0.0012442667502909899 0.0001656856620684266
v -0.002527316566556692 -0.0018571738619357347 0.00017051550094038248
v -0.002527316566556692 -0.0018571738619357347 0.00017051550094038248
v -0.0025073192082345486 -0.001582105876877904 0.00017301517073065042
v -0.0025073192082345486 -0.001582105876877904 0.00017301517073065042
v -0.0025073192082345486 -0.001582105876877904 0.00017301517073065042
v -0.0025073192082345486 -0.001582105876877904 0.00017301517073065042
v -0.0010846457444131374 -0.0014892343897372484 6.280618981691077e-05
v -0.0010846457444131374 -0.0014892343897372484 6.280618981691077e-05
v -0.0010846457444131374 -0.0014892343897372484 6.280618981691077e-05
v -0.0010846457444131374 -0.0014892343897372484 6.280618981691077e-05
v -0.0010846457444131374 -0.0014892343897372484 6.280618981691077e-05
v -0.0010846457444131374 -0.0014892343897372484 6.280618981691077e-05
v -0.0024979165755212307 -0.002480705501511693 0.00015888514462858438
v -0.0024979165755212307 -0.002480705501511693 0.00015888514462858438
v -0.002544817980378866 -0.002432366134598851 0.0001632362836971879
v -0.002544817980378866 -0.002432366134598851 0.0001632362836971879
v -0.0014383397065103054 0.00011156382242916152 0.00011448527948232368
v -0.0014383397065103054 0.00011156382242916152 0.00011448527948232368
v -0.0014383397065103054 0.00011156382242916152 0.00011448527948232368
v 0.00026617429102770984 -0.0004785854835063219 -2.8035014111083e-05
v 0.00026617429102770984 -0.0004785854835063219 -2.8035014111083e-05
v 0.00026617429102770984 -0.0004785854835063219 -2.8035014111083e-05
v 0.00026617429102770984 -0.0004785854835063219 -2.8035014111083e-05
v -0.0005367003032006323 -0.00032289442606270313 3.7295401853043586e-05
v -0.0005367003032006323 -0.00032289442606270313 3.7295401853043586e-05
v -0.0005367003032006323 -0.00032289442606270313 3.7295401853043586e-05
v -0.0005367003032006323 -0.00032289442606270313 3.7295401853043586e-05
v 0.00032440057839266956 -0.0004940268117934465 -3.280524833826348e-05
v 0.00032440057839266956 -0.0004940268117934465 -3.280524833826348e-05
v 0.00032440057839266956 -0.0004940268117934465 -3.280524833826348e-05
v 0.00034275880898348987 -0.0005073745269328356 -3.4464865166228265e-05
v 0.00034275880898348987 -0.0005073745269328356 -3.4464865166228265e-05
v 0.00034275880898348987 -0.0005073745269328356 -3.4464865166228265e-05
v 0.0019567408598959446 0.002433462766930461 -0.00011714395805029199
v 0.0019567408598959446 0.002433462766930461 -0.00011714395805029199
v 0.0019343891181051731 0.00211821380071342 -0.00012006458564428613
v 0.0019343891181051731 0.00211821380071342 -0.00012006458564428613
v 0.0019343891181051731 0.00211821380071342 -0.00012006458564428613
v 0.0005217589787207544 0.0018654230516403913 -1.3074248272459954e-05
v 0.0005217589787207544 0.0018654230516403913 -1.3074248272459954e-05
v 0.0005217589787207544 0.0018654230516403913 -1.3074248272459954e-05
v 0.0019130506552755833 0.0018068950157612562 -0.00012304482515901327
v 0.0019130506552755833 0.0018068950157612562 -0.00012304482515901327
v 0.0019130506552755833 0.0018068950157612562 -0.00012304482515901327
v 0.0004996382049284875 0.0015582244377583265 -1.5935271221678704e-05
v 0.0004996382049284875 0.0015582244377583265 -1.5935271221678704e-05
v 0.0004996382049284875 0.0015582244377583265 -1.5935271221678704e-05
v 0.0018915929831564426 0.0014955836813896894 -0.0001260250573977828
v 0.0018915929831564426 0.0014955836813896894 -0.0001260250573977828
v 0.0018915929831564426 0.0014955836813896894 -0.0001260250573977828
v 0.0004775919660460204 0.0012510258238762617 -1.8794431525748223e-05
v 0.0004775919660460204 0.0012510258238762617 -1.8794431525748223e-05
v 0.0004775919660460204 0.0012510258238762617 -1.8794431525748223e-05
v 0.001864651683717966 0.0011160250287503004 -0.00012959388550370932
v 0.001864651683717966 0.0011160250287503004 -0.00012959388550370932
v 0.001864651683717966 0.0011160250287503004 -0.00012959388550370932
v 0.00046245238627307117 0.0010381739120930433 -2.0765110093634576e-05
v 0.00046245238627307117 0.0010381739120930433 -2.0765110093634576e-05
v 0.00046245238627307117 0.0010381739120930433 -2.0765110093634576e-05
v 0.0004482590302359313 0.000825266120955348 -2.2843822080176324e-05
v 0.0004482590302359313 0.000825266120955348 -2.2843822080176324e-05
v 0.001946131233125925 0.0028888459783047438 -0.00010951456351904199
v 0.001946131233125925 0.0028888459783047438 -0.00010951456351904199
v 0.0019739591516554356 0.0028499129693955183 -0.00011225451453356072
v 0.0019739591516554356 0.0028499129693955183 -0.00011225451453356072
v -0.002562922891229391 -0.0023702543694525957 0.00016562605742365122
v -0.002562922891229391 -0.0023702543694525957 0.00016562605742365122
v -0.002562721725553274 -0.0023349050898104906 0.00016609544400125742
v -0.002562721725553274 -0.0023349050898104906 0.00016609544400125742
v -0.002562721725553274 -0.0023349050898104906 0.00016609544400125742
v -0.002544721122831106 -0.0020960767287760973 0.00016830640379339457
v -0.002544721122831106 -0.0020960767287760973 0.00016830640379339457
v -0.0021159923635423183 0.003661795286461711 0.00022069516126066446
v -0.002081481274217367 0.00367693486623466 0.00021819549147039652
v -0.002081481274217367 0.00367693486623466 0.00021819549147039652
v -0.0021370328031480312 0.0036333638709038496 0.00022188539151102304
v -0.0021370328031480312 0.0036333638709038496 0.00022188539151102304
v -0.0021370328031480312 0.0036333638709038496 0.00022188539151102304
v -0.0019899210892617702 0.0036714549642056227 0.0002109255874529481
v -0.0019899210892617702 0.0036714549642056227 0.0002109255874529481
v -0.0019899210892617702 0.0036714549642056227 0.0002109255874529481
v -0.0021544299088418484 0.0035403731744736433 0.00022188539151102304
v -0.0021544299088418484 0.0035403731744736433 0.00022188539151102304
v -0.0021544299088418484 0.0035403731744736433 0.00022188539151102304
v -0.001979371067136526 0.003669424680992961 0.00021008553449064493
v -0.001979371067136526 0.003669424680992961 0.00021008553449064493
v -0.001979371067136526 0.003669424680992961 0.00021008553449064493
v -0.002177437301725149 0.003172675846144557 0.00021819549147039652
v -0.002177437301725149 0.003172675846144557 0.00021819549147039652
v -0.002177437301725149 0.003172675846144557 0.00021819549147039652
v -0.002201815601438284 0.0028050343971699476 0.00021461548749357462
v -0.002201815601438284 0.0028050343971699476 0.00021461548749357462
v -0.0021763122640550137 0.0024537246208637953 0.0002073455834761262
v -0.0022056899033486843 0.002494553802534938 0.00021026621107012033
v -0.0022056899033486843 0.002494553802534938 0.00021026621107012033
v -0.002100189682096243 0.002420945791527629 0.00020090641919523478
v -0.002100189682096243 0.002420945791527629 0.00020090641919523478
v -0.002100189682096243 0.002420945791527629 0.00020090641919523478
v -0.0008337102481164038 0.0021753746550530195 9.791518823476508e-05
v -0.0008337102481164038 0.0021753746550530195 9.791518823476508e-05
v -0.0008337102481164038 0.0021753746550530195 9.791518823476508e-05
v 0.00043276927317492664 0.0019298035185784101 -5.08536368215573e-06
v 0.00043276927317492664 0.0019298035185784101 -5.08536368215573e-06
v 0.0002771415456663817 -0.0016593572217971087 -4.650500341085717e-05
v 0.0002771415456663817 -0.0016593572217971087 -4.650500341085717e-05
v 0.0002888240560423583 -0.0014825661201030016 -4.4783919292967767e-05
v 0.0002888240560423583 -0.0014825661201030016 -4.4783919292967767e-05
v 0.0002888240560423583 -0.0014825661201030016 -4.4783919292967767e-05
v 0.0016973414458334446 -0.0012879569549113512 -0.00015236472245305777
v 0.0016973414458334446 -0.0012879569549113512 -0.00015236472245305777
v 0.0016973414458334446 -0.0012879569549113512 -0.00015236472245305777
v 0.00030163905466906726 -0.0013058942276984453 -4.317459388403222e-05
v 0.00030163905466906726 -0.0013058942276984453 -4.317459388403222e-05
v 0.00030163905466906726 -0.0013058942276984453 -4.317459388403222e-05
v 0.0017279782332479954 -0.0008421142119914293 -0.00014813465531915426
v 0.0017279782332479954 -0.0008421142119914293 -0.00014813465531915426
v 0.0017279782332479954 -0.0008421142119914293 -0.00014813465531915426
v 0.00032750001992098987 -0.0009464744944125414 -3.9834871131461114e-05
v 0.00032750001992098987 -0.0009464744944125414 -3.9834871131461114e-05
v 0.00032750001992098987 -0.0009464744944125414 -3.9834871131461114e-05
v 0.0017571770586073399 -0.0004304249305278063 -0.00014426407869905233
v 0.0017571770586073399 -0.0004304249305278063 -0.00014426407869905233
v 0.0017571770586073399 -0.0004304249305278063 -0.00014426407869905233
v 0.00035254142130725086 -0.0005870063323527575 -3.6433681088965386e-05
v 0.00035254142130725086 -0.0005870063323527575 -3.6433681088965386e-05
v 0.00035254142130725086 -0.0005870063323527575 -3.6433681088965386e-05
v 0.00035128972376696765 -0.0005256135482341051 -3.542412741808221e-05
v 0.00035128972376696765 -0.0005256135482341051 -3.542412741808221e-05
v -0.0013738474808633327 0.00099085527472198 0.0001225859159603715
v -0.0013738474808633327 0.00099085527472198 0.0001225859159603715
v -0.0013738474808633327 0.00099085527472198 0.0001225859159603715
v -0.0013738474808633327 0.00099085527472198 0.0001225859159603715
v -0.0013583502732217312 0.001039243070408702 0.00012205506936879829
v -0.0013317069970071316 0.0010650556068867445 0.00012038613931508735
v -0.0013317069970071316 0.0010650556068867445 0.00012038613931508735
v -0.002487016376107931 -0.0013070863205939531 0.00017551484052091837
v -0.002487016376107931 -0.0013070863205939531 0.00017551484052091837
v -0.002487016376107931 -0.0013070863205939531 0.00017551484052091837
v -0.002487016376107931 -0.0013070863205939531 0.00017551484052091837
v -0.0024750209413468838 -0.001271204324439168 0.0001751553500071168
v -0.002448280807584524 -0.0012459356803447008 0.00017343612853437662
v -0.002448280807584524 -0.0012459356803447008 0.00017343612853437662
v -0.00133958226069808 -0.00016714376397430897 0.00010256621317239478
v -0.00133958226069808 -0.00016714376397430897 0.00010256621317239478
v -0.00133958226069808 -0.00016714376397430897 0.00010256621317239478
v -0.00133958226069808 -0.00016714376397430897 0.00010256621317239478
v -0.0014069280587136745 -0.00013978523202240467 0.00010828639642568305
v -0.0014367303811013699 -0.00010313583334209397 0.00011114555672975257
v -0.0014367303811013699 -0.00010313583334209397 0.00011114555672975257
v -0.0012909374199807644 0.0010760861914604902 0.00011734630243154243
v -0.0012909374199807644 0.0010760861914604902 0.00011734630243154243
v -0.0012852824293076992 0.0010761457961052656 0.00011686573998304084
v -0.0012852824293076992 0.0010761457961052656 0.00011686573998304084
v -0.0012852824293076992 0.0010761457961052656 0.00011686573998304084
v -0.0012297309003770351 0.0010682146530598402 0.00011239539162488654
v -0.0012297309003770351 0.0010682146530598402 0.00011239539162488654
v -0.002410849090665579 -0.0012352664489299059 0.0001706253970041871
v -0.002410849090665579 -0.0012352664489299059 0.0001706253970041871
v -0.002400656696408987 -0.001235445262864232 0.00016985612455755472
v -0.002400656696408987 -0.001235445262864232 0.00016985612455755472
v -0.002400656696408987 -0.001235445262864232 0.00016985612455755472
v -0.002374847885221243 -0.0012391370255500078 0.0001677662367001176
v -0.002374847885221243 -0.0012391370255500078 0.0001677662367001176
v -0.0014485917054116726 -3.595394446165301e-05 0.00011311623529763892
v -0.0014485917054116726 -3.595394446165301e-05 0.00011311623529763892
v -0.0014481223188340664 -2.499414222256746e-05 0.0001132354445871897
v -0.0014481223188340664 -2.499414222256746e-05 0.0001132354445871897
v -0.0014481223188340664 -2.499414222256746e-05 0.0001132354445871897
v -0.0014433464966714382 4.33127825090196e-05 0.00011388550774427131
v -0.0014433464966714382 4.33127825090196e-05 0.00011388550774427131
f 1 3 5
f 6 4 14
f 8 15 19
f 20 24 27
f 26 25 35
f 32 33 36
f 38 34 41
f 37 40 45
f 46 48 53
f 51 49 57
f 60 12 68
f 69 11 71
f 70 72 74
f 75 78 79
f 81 77 50
f 80 56 85
f 84 52 58
f 47 54 88
f 87 55 90
f 86 89 93
f 94 91 95
f 92 97 101
f 103 105 112
f 109 106 114
f 120 121 66
f 127 129 132
f 76 82 138
f 137 83 141
f 135 140 142
f 146 148 153
f 145 102 149
f 150 104 107
f 147 110 157
f 156 111 21
f 155 22 159
f 158 23 31
f 13 161 16
f 17 162 164
f 18 165 166
f 167 163 170
f 168 171 173
f 172 169 177
f 174 175 178
f 179 176 181
f 180 182 184
f 185 183 44
f 186 42 187
f 188 43 39
f 59 190 7
f 9 189 192
f 10 191 2
f 143 194 136
f 134 193 197
f 139 196 124
f 123 195 198
f 125 199 128
f 200 201 205
f 203 202 206
f 204 208 210
f 209 207 212
f 211 214 217
f 216 213 61
f 215 64 219
f 218 67 122
f 220 221 223
f 225 222 119
f 224 117 228
f 227 118 63
f 226 62 229
f 230 65 73
f 96 231 100
f 99 232 235
f 98 234 237
f 236 233 241
f 238 240 244
f 242 239 247
f 243 246 249
f 248 245 253
f 250 251 29
f 30 252 255
f 28 254 160
f 259 260 262
f 263 267 268
f 271 274 275
f 261 277 257
f 256 278 281
f 258 280 116
f 113 279 283
f 115 282 108
f 269 285 266
f 265 284 288
f 264 286 133
f 131 287 290
f 130 289 126
f 276 292 273
f 270 291 293
f 272 294 154
f 152 295 296
f 151 297 144
