mtllib converted_link3_24_969696ff.mtl
usemtl material
v 0.00037835101829841733 0.002471204847097397 0.0052499715238809586
v 0.00037835101829841733 0.002471204847097397 0.0052499715238809586
v -0.0001809789682738483 0.0024934345856308937 -0.0052499789744615555
v -0.0001809789682738483 0.0024934345856308937 -0.0052499789744615555
v -0.0001809789682738483 0.0024934345856308937 0.0052499715238809586
v -0.0001809789682738483 0.0024934345856308937 0.0052499715238809586
v -0.0007313086534850299 0.0023906147107481956 -0.0052499789744615555
v -0.0007313086534850299 0.0023906147107481956 -0.0052499789744615555
v -0.0007313086534850299 0.0023906147107481956 0.0052499715238809586
v -0.0007313086534850299 0.0023906147107481956 0.0052499715238809586
v -0.0012449787463992834 0.002167994622141123 -0.0052499789744615555
v -0.0012449787463992834 0.002167994622141123 -0.0052499789744615555
v -0.0012449787463992834 0.002167994622141123 0.0052499715238809586
v -0.0012449787463992834 0.002167994622141123 0.0052499715238809586
v -0.0016961887013167143 0.0018365946598351002 -0.0052499789744615555
v -0.0016961887013167143 0.0018365946598351002 -0.0052499789744615555
v -0.0016961887013167143 0.0018365946598351002 0.0052499715238809586
v -0.0016961887013167143 0.0018365946598351002 0.0052499715238809586
v -0.0020622785668820143 0.001413094811141491 -0.0052499789744615555
v -0.0020622785668820143 0.001413094811141491 -0.0052499789744615555
v -0.0020622785668820143 0.001413094811141491 0.0052499715238809586
v -0.0020622785668820143 0.001413094811141491 0.0052499715238809586
v -0.00232507917098701 0.0009187949472106993 -0.0052499789744615555
v -0.00232507917098701 0.0009187949472106993 -0.0052499789744615555
v -0.00232507917098701 0.0009187949472106993 0.0052499715238809586
v -0.00232507917098701 0.0009187949472106993 0.0052499715238809586
v -0.002471169224008918 0.0003783647553063929 -0.0052499789744615555
v -0.002471169224008918 0.0003783647553063929 -0.0052499789744615555
v -0.002471169224008918 0.0003783647553063929 0.0052499715238809586
v -0.002471169224008918 0.0003783647553063929 0.0052499715238809586
v -0.00249345856718719 -0.00018102530157193542 -0.0052499789744615555
v -0.00249345856718719 -0.00018102530157193542 -0.0052499789744615555
v -0.00249345856718719 -0.00018102530157193542 0.0052499715238809586
v -0.00249345856718719 -0.00018102530157193542 0.0052499715238809586
v -0.0023906489368528128 -0.0007313549867831171 -0.0052499789744615555
v -0.0023906489368528128 -0.0007313549867831171 -0.0052499789744615555
v -0.0023906489368528128 -0.0007313549867831171 0.0052499715238809586
v -0.0023906489368528128 -0.0007313549867831171 0.0052499715238809586
v -0.0021679585333913565 -0.0012449652422219515 -0.0052499789744615555
v -0.0021679585333913565 -0.0012449652422219515 -0.0052499789744615555
v -0.0021679585333913565 -0.0012449652422219515 0.0052499715238809586
v -0.0021679585333913565 -0.0012449652422219515 0.0052499715238809586
v -0.0018365585710853338 -0.0016961751971393824 -0.0052499789744615555
v -0.0018365585710853338 -0.0016961751971393824 -0.0052499789744615555
v -0.0018365585710853338 -0.0016961751971393824 0.0052499715238809586
v -0.0018365585710853338 -0.0016961751971393824 0.0052499715238809586
v -0.001413129037246108 -0.002062325133010745 -0.0052499789744615555
v -0.001413129037246108 -0.002062325133010745 -0.0052499789744615555
v -0.001413129037246108 -0.002062325133010745 0.0052499715238809586
v -0.001413129037246108 -0.002062325133010745 0.0052499715238809586
v -0.0009187689865939319 -0.0023250652011483908 -0.0052499789744615555
v -0.0009187689865939319 -0.0023250652011483908 -0.0052499789744615555
v -0.0009187689865939319 -0.0023250652011483908 0.0052499715238809586
v -0.0009187689865939319 -0.0023250652011483908 0.0052499715238809586
v -0.00037832901580259204 -0.0024712153244763613 -0.0052499789744615555
v -0.00037832901580259204 -0.0024712153244763613 -0.0052499789744615555
v -0.00037832901580259204 -0.0024712153244763613 0.0052499715238809586
v -0.00037832901580259204 -0.0024712153244763613 0.0052499715238809586
v 0.00018100097076967359 -0.002493445295840502 -0.0052499789744615555
v 0.00018100097076967359 -0.002493445295840502 -0.0052499789744615555
v 0.00018100097076967359 -0.002493445295840502 0.0052499715238809586
v 0.00018100097076967359 -0.002493445295840502 0.0052499715238809586
v 0.0007313315873034298 -0.002390635199844837 -0.0052499789744615555
v 0.0007313315873034298 -0.002390635199844837 -0.0052499789744615555
v 0.0007313315873034298 -0.002390635199844837 0.0052499715238809586
v 0.0007313315873034298 -0.002390635199844837 0.0052499715238809586
v 0.0012449410278350115 -0.002167945262044668 -0.0052499789744615555
v 0.0012449410278350115 -0.002167945262044668 -0.0052499789744615555
v 0.0012449410278350115 -0.002167945262044668 0.0052499715238809586
v 0.0012449410278350115 -0.002167945262044668 0.0052499715238809586
v 0.0016961509827524424 -0.0018366051372140646 -0.0052499789744615555
v 0.0016961509827524424 -0.0018366051372140646 -0.0052499789744615555
v 0.0016961509827524424 -0.0018366051372140646 0.0052499715238809586
v 0.0016961509827524424 -0.0018366051372140646 0.0052499715238809586
v 0.0020623013842850924 -0.0014131153002381325 -0.0052499789744615555
v 0.0020623013842850924 -0.0014131153002381325 -0.0052499789744615555
v 0.0020623013842850924 -0.0014131153002381325 0.0052499715238809586
v 0.0020623013842850924 -0.0014131153002381325 0.0052499715238809586
v 0.002325041452422738 -0.0009187552495859563 -0.0052499789744615555
v 0.002325041452422738 -0.0009187552495859563 -0.0052499789744615555
v 0.002325041452422738 -0.0009187552495859563 0.0052499715238809586
v 0.002325041452422738 -0.0009187552495859563 0.0052499715238809586
v 0.0024711911100894213 -0.00037837534910067916 -0.0052499789744615555
v 0.0024711911100894213 -0.00037837534910067916 -0.0052499789744615555
v 0.0024711911100894213 -0.00037837534910067916 0.0052499715238809586
v 0.0024711911100894213 -0.00037837534910067916 0.0052499715238809586
v 0.002493481384590268 0.00018101470777764916 -0.0052499789744615555
v 0.002493481384590268 0.00018101470777764916 -0.0052499789744615555
v 0.002493481384590268 0.00018101470777764916 0.0052499715238809586
v 0.002493481384590268 0.00018101470777764916 0.0052499715238809586
v 0.00239066150970757 0.0007313448586501181 -0.0052499789744615555
v 0.00239066150970757 0.0007313448586501181 -0.0052499789744615555
v 0.00239066150970757 0.0007313448586501181 0.0052499715238809586
v 0.00239066150970757 0.0007313448586501181 0.0052499715238809586
v 0.0021679813507944345 0.001244954764842987 -0.0052499789744615555
v 0.0021679813507944345 0.001244954764842987 -0.0052499789744615555
v 0.0021679813507944345 0.001244954764842987 0.0052499715238809586
v 0.0021679813507944345 0.001244954764842987 0.0052499715238809586
v 0.001836581388488412 0.001696164719760418 -0.0052499789744615555
v 0.001836581388488412 0.001696164719760418 -0.0052499789744615555
v 0.001836581388488412 0.001696164719760418 0.0052499715238809586
v 0.001836581388488412 0.001696164719760418 0.0052499715238809586
v 0.0014130810741335154 0.0020623146556317806 -0.0052499789744615555
v 0.0014130810741335154 0.0020623146556317806 -0.0052499789744615555
v 0.0014130810741335154 0.0020623146556317806 0.0052499715238809586
v 0.0014130810741335154 0.0020623146556317806 0.0052499715238809586
v 0.000918781675864011 0.0023250547237694263 -0.0052499789744615555
v 0.000918781675864011 0.0023250547237694263 -0.0052499789744615555
v 0.000918781675864011 0.0023250547237694263 0.0052499715238809586
v 0.000918781675864011 0.0023250547237694263 0.0052499715238809586
v 0.00037835101829841733 0.002471204847097397 -0.0052499789744615555
v 0.00037835101829841733 0.002471204847097397 -0.0052499789744615555
v -0.0003026991034857929 -0.001976975239813328 -0.005749998614192009
v -0.0003026991034857929 -0.001976975239813328 -0.005749998614192009
v -0.0003026991034857929 -0.001976975239813328 -0.005749998614192009
v -0.0007350087980739772 -0.00186002510599792 -0.005749998614192009
v -0.0007350087980739772 -0.00186002510599792 -0.005749998614192009
v -0.0007350087980739772 -0.00186002510599792 -0.005749998614192009
v -1.8341271612598575e-08 -5.064272556865035e-09 -0.005749998614192009
v -1.8341271612598575e-08 -5.064272556865035e-09 -0.005749998614192009
v -1.8341271612598575e-08 -5.064272556865035e-09 -0.005749998614192009
v -1.8341271612598575e-08 -5.064272556865035e-09 -0.005749998614192009
v -1.8341271612598575e-08 -5.064272556865035e-09 -0.005749998614192009
v -1.8341271612598575e-08 -5.064272556865035e-09 -0.005749998614192009
v -1.8341271612598575e-08 -5.064272556865035e-09 -0.005749998614192009
v -1.8341271612598575e-08 -5.064272556865035e-09 -0.005749998614192009
v -1.8341271612598575e-08 -5.064272556865035e-09 -0.005749998614192009
v -1.8341271612598575e-08 -5.064272556865035e-09 -0.005749998614192009
v -1.8341271612598575e-08 -5.064272556865035e-09 -0.005749998614192009
v -1.8341271612598575e-08 -5.064272556865035e-09 -0.005749998614192009
v -1.8341271612598575e-08 -5.064272556865035e-09 -0.005749998614192009
v -1.8341271612598575e-08 -5.064272556865035e-09 -0.005749998614192009
v -1.8341271612598575e-08 -5.064272556865035e-09 -0.005749998614192009
v 0.0009959714952856302 -0.0017343852669000626 -0.005749998614192009
v 0.0009959714952856302 -0.0017343852669000626 -0.005749998614192009
v 0.0009959714952856302 -0.0017343852669000626 -0.005749998614192009
v 0.0005850608577020466 -0.0019125451799482107 -0.005749998614192009
v 0.0005850608577020466 -0.0019125451799482107 -0.005749998614192009
v 0.0005850608577020466 -0.0019125451799482107 -0.005749998614192009
v 0.00014482095139101148 -0.0019947353284806013 -0.005749998614192009
v 0.00014482095139101148 -0.0019947353284806013 -0.005749998614192009
v 0.00014482095139101148 -0.0019947353284806013 -0.005749998614192009
v 0.0018600609619170427 -0.0007350551313720644 -0.005749998614192009
v 0.0018600609619170427 -0.0007350551313720644 -0.005749998614192009
v 0.0018600609619170427 -0.0007350551313720644 -0.005749998614192009
v 0.0016498316545039415 -0.0011304651852697134 -0.005749998614192009
v 0.0016498316545039415 -0.0011304651852697134 -0.005749998614192009
v 0.0016498316545039415 -0.0011304651852697134 -0.005749998614192009
v 0.0013569409493356943 -0.001469265203922987 -0.005749998614192009
v 0.0013569409493356943 -0.001469265203922987 -0.005749998614192009
v 0.0013569409493356943 -0.001469265203922987 -0.005749998614192009
v 0.0019125111866742373 0.0005850750603713095 -0.005749998614192009
v 0.0019125111866742373 0.0005850750603713095 -0.005749998614192009
v 0.0019125111866742373 0.0005850750603713095 -0.005749998614192009
v 0.001994771184399724 0.00014483468839898705 -0.005749998614192009
v 0.001994771184399724 0.00014483468839898705 -0.005749998614192009
v 0.001994771184399724 0.00014483468839898705 -0.005749998614192009
v 0.0019770015496760607 -0.0003026751219294965 -0.005749998614192009
v 0.0019770015496760607 -0.0003026751219294965 -0.005749998614192009
v 0.001130501041188836 0.0016498547047376633 -0.005749998614192009
v 0.001130501041188836 0.0016498547047376633 -0.005749998614192009
v 0.001130501041188836 0.0016498547047376633 -0.005749998614192009
v 0.0014692910481244326 0.0013568946160376072 -0.005749998614192009
v 0.0014692910481244326 0.0013568946160376072 -0.005749998614192009
v 0.0017344115767627954 0.0009959246963262558 -0.005749998614192009
v 0.0017344115767627954 0.0009959246963262558 -0.005749998614192009
v 0.0017344115767627954 0.0009959246963262558 -0.005749998614192009
v -0.00014479894889518619 0.001994724851101637 -0.005749998614192009
v -0.00014479894889518619 0.001994724851101637 -0.005749998614192009
v -0.00014479894889518619 0.001994724851101637 -0.005749998614192009
v 0.0003027108614332974 0.0019769547507166862 -0.005749998614192009
v 0.0003027108614332974 0.0019769547507166862 -0.005749998614192009
v 0.0007350214873440564 0.0018600146286189556 -0.005749998614192009
v 0.0007350214873440564 0.0018600146286189556 -0.005749998614192009
v 0.0007350214873440564 0.0018600146286189556 -0.005749998614192009
v -0.0013569190632551908 0.0014692447148263454 -0.005749998614192009
v -0.0013569190632551908 0.0014692447148263454 -0.005749998614192009
v -0.0013569190632551908 0.0014692447148263454 -0.005749998614192009
v -0.000995958922430873 0.001734364777803421 -0.005749998614192009
v -0.000995958922430873 0.001734364777803421 -0.005749998614192009
v -0.000995958922430873 0.001734364777803421 -0.005749998614192009
v -0.0005850388552062213 0.0019125249236822128 -0.005749998614192009
v -0.0005850388552062213 0.0019125249236822128 -0.005749998614192009
v -0.0005850388552062213 0.0019125249236822128 -0.005749998614192009
v -0.0019769889768213034 0.0003026649937964976 -0.005749998614192009
v -0.0019769889768213034 0.0003026649937964976 -0.005749998614192009
v -0.0018600483890622854 0.0007350347586907446 -0.005749998614192009
v -0.0018600483890622854 0.0007350347586907446 -0.005749998614192009
v -0.0018600483890622854 0.0007350347586907446 -0.005749998614192009
v -0.0016498190816491842 0.001130454707890749 -0.005749998614192009
v -0.0016498190816491842 0.001130454707890749 -0.005749998614192009
v -0.0016498190816491842 0.001130454707890749 -0.005749998614192009
v -0.0017343990039080381 -0.0009959451854228973 -0.005749998614192009
v -0.0017343990039080381 -0.0009959451854228973 -0.005749998614192009
v -0.0017343990039080381 -0.0009959451854228973 -0.005749998614192009
v -0.00191249861381948 -0.0005850851885043085 -0.005749998614192009
v -0.00191249861381948 -0.0005850851885043085 -0.005749998614192009
v -0.00191249861381948 -0.0005850851885043085 -0.005749998614192009
v -0.001994748366996646 -0.0001448452821932733 -0.005749998614192009
v -0.001994748366996646 -0.0001448452821932733 -0.005749998614192009
v -0.001994748366996646 -0.0001448452821932733 -0.005749998614192009
v -0.0011304791551083326 -0.0016498651821166277 -0.005749998614192009
v -0.0011304791551083326 -0.0016498651821166277 -0.005749998614192009
v -0.0011304791551083326 -0.0016498651821166277 -0.005749998614192009
v -0.0014692784752696753 -0.0013569053262472153 -0.005749998614192009
v -0.0014692784752696753 -0.0013569053262472153 -0.005749998614192009
v -0.0014692784752696753 -0.0013569053262472153 -0.005749998614192009
v -0.0003026991034857929 -0.001976975239813328 0.005750000476837158
v -0.0003026991034857929 -0.001976975239813328 0.005750000476837158
v -0.0003026991034857929 -0.001976975239813328 0.005750000476837158
v 0.00014482095139101148 -0.0019947353284806013 0.005750000476837158
v 0.00014482095139101148 -0.0019947353284806013 0.005750000476837158
v -1.8341271612598575e-08 -5.064272556865035e-09 0.005750000476837158
v -1.8341271612598575e-08 -5.064272556865035e-09 0.005750000476837158
v -1.8341271612598575e-08 -5.064272556865035e-09 0.005750000476837158
v -1.8341271612598575e-08 -5.064272556865035e-09 0.005750000476837158
v -1.8341271612598575e-08 -5.064272556865035e-09 0.005750000476837158
v -1.8341271612598575e-08 -5.064272556865035e-09 0.005750000476837158
v -1.8341271612598575e-08 -5.064272556865035e-09 0.005750000476837158
v -1.8341271612598575e-08 -5.064272556865035e-09 0.005750000476837158
v -1.8341271612598575e-08 -5.064272556865035e-09 0.005750000476837158
v -1.8341271612598575e-08 -5.064272556865035e-09 0.005750000476837158
v -1.8341271612598575e-08 -5.064272556865035e-09 0.005750000476837158
v -1.8341271612598575e-08 -5.064272556865035e-09 0.005750000476837158
v -1.8341271612598575e-08 -5.064272556865035e-09 0.005750000476837158
v -1.8341271612598575e-08 -5.064272556865035e-09 0.005750000476837158
v -0.0014692784752696753 -0.0013569053262472153 0.005750000476837158
v -0.0014692784752696753 -0.0013569053262472153 0.005750000476837158
v -0.0014692784752696753 -0.0013569053262472153 0.005750000476837158
v -0.0011304791551083326 -0.0016498651821166277 0.005750000476837158
v -0.0011304791551083326 -0.0016498651821166277 0.005750000476837158
v -0.0011304791551083326 -0.0016498651821166277 0.005750000476837158
v -0.0007350087980739772 -0.00186002510599792 0.005750000476837158
v -0.0007350087980739772 -0.00186002510599792 0.005750000476837158
v -0.0007350087980739772 -0.00186002510599792 0.005750000476837158
v -0.001994748366996646 -0.0001448452821932733 0.005750000476837158
v -0.001994748366996646 -0.0001448452821932733 0.005750000476837158
v -0.00191249861381948 -0.0005850851885043085 0.005750000476837158
v -0.00191249861381948 -0.0005850851885043085 0.005750000476837158
v -0.00191249861381948 -0.0005850851885043085 0.005750000476837158
v -0.0017343990039080381 -0.0009959451854228973 0.005750000476837158
v -0.0017343990039080381 -0.0009959451854228973 0.005750000476837158
v -0.0017343990039080381 -0.0009959451854228973 0.005750000476837158
v -0.0016498190816491842 0.001130454707890749 0.005750000476837158
v -0.0016498190816491842 0.001130454707890749 0.005750000476837158
v -0.0016498190816491842 0.001130454707890749 0.005750000476837158
v -0.0018600483890622854 0.0007350347586907446 0.005750000476837158
v -0.0018600483890622854 0.0007350347586907446 0.005750000476837158
v -0.0018600483890622854 0.0007350347586907446 0.005750000476837158
v -0.0019769889768213034 0.0003026649937964976 0.005750000476837158
v -0.0019769889768213034 0.0003026649937964976 0.005750000476837158
v -0.0019769889768213034 0.0003026649937964976 0.005750000476837158
v -0.0005850388552062213 0.0019125249236822128 0.005750000476837158
v -0.0005850388552062213 0.0019125249236822128 0.005750000476837158
v -0.0005850388552062213 0.0019125249236822128 0.005750000476837158
v -0.000995958922430873 0.001734364777803421 0.005750000476837158
v -0.000995958922430873 0.001734364777803421 0.005750000476837158
v -0.000995958922430873 0.001734364777803421 0.005750000476837158
v -0.0013569190632551908 0.0014692447148263454 0.005750000476837158
v -0.0013569190632551908 0.0014692447148263454 0.005750000476837158
v -0.0013569190632551908 0.0014692447148263454 0.005750000476837158
v 0.0007350214873440564 0.0018600146286189556 0.005750000476837158
v 0.0007350214873440564 0.0018600146286189556 0.005750000476837158
v 0.0007350214873440564 0.0018600146286189556 0.005750000476837158
v 0.0003027108614332974 0.0019769547507166862 0.005750000476837158
v 0.0003027108614332974 0.0019769547507166862 0.005750000476837158
v 0.0003027108614332974 0.0019769547507166862 0.005750000476837158
v -0.00014479894889518619 0.001994724851101637 0.005750000476837158
v -0.00014479894889518619 0.001994724851101637 0.005750000476837158
v -0.00014479894889518619 0.001994724851101637 0.005750000476837158
v 0.0017344115767627954 0.0009959246963262558 0.005750000476837158
v 0.0017344115767627954 0.0009959246963262558 0.005750000476837158
v 0.0017344115767627954 0.0009959246963262558 0.005750000476837158
v 0.0014692910481244326 0.0013568946160376072 0.005750000476837158
v 0.0014692910481244326 0.0013568946160376072 0.005750000476837158
v 0.0014692910481244326 0.0013568946160376072 0.005750000476837158
v 0.001130501041188836 0.0016498547047376633 0.005750000476837158
v 0.001130501041188836 0.0016498547047376633 0.005750000476837158
v 0.001130501041188836 0.0016498547047376633 0.005750000476837158
v 0.0019770015496760607 -0.0003026751219294965 0.005750000476837158
v 0.0019770015496760607 -0.0003026751219294965 0.005750000476837158
v 0.0019770015496760607 -0.0003026751219294965 0.005750000476837158
v 0.001994771184399724 0.00014483468839898705 0.005750000476837158
v 0.001994771184399724 0.00014483468839898705 0.005750000476837158
v 0.001994771184399724 0.00014483468839898705 0.005750000476837158
v 0.0019125111866742373 0.0005850750603713095 0.005750000476837158
v 0.0019125111866742373 0.0005850750603713095 0.005750000476837158
v 0.0019125111866742373 0.0005850750603713095 0.005750000476837158
v 0.0013569409493356943 -0.001469265203922987 0.005750000476837158
v 0.0013569409493356943 -0.001469265203922987 0.005750000476837158
v 0.0013569409493356943 -0.001469265203922987 0.005750000476837158
v 0.0016498316545039415 -0.0011304651852697134 0.005750000476837158
v 0.0016498316545039415 -0.0011304651852697134 0.005750000476837158
v 0.0018600609619170427 -0.0007350551313720644 0.005750000476837158
v 0.0018600609619170427 -0.0007350551313720644 0.005750000476837158
v 0.0018600609619170427 -0.0007350551313720644 0.005750000476837158
v 0.0005850608577020466 -0.0019125451799482107 0.005750000476837158
v 0.0005850608577020466 -0.0019125451799482107 0.005750000476837158
v 0.0005850608577020466 -0.0019125451799482107 0.005750000476837158
v 0.0009959714952856302 -0.0017343852669000626 0.005750000476837158
v 0.0009959714952856302 -0.0017343852669000626 0.005750000476837158
v 0.0009959714952856302 -0.0017343852669000626 0.005750000476837158
f 1 4 5
f 5 4 7
f 5 7 10
f 10 7 11
f 10 11 14
f 14 11 15
f 14 15 18
f 18 15 19
f 18 19 22
f 22 19 23
f 22 23 25
f 25 23 28
f 25 28 30
f 30 28 32
f 30 32 33
f 33 32 36
f 33 36 38
f 38 36 39
f 38 39 41
f 41 39 43
f 41 43 45
f 45 43 47
f 45 47 50
f 50 47 51
f 50 51 53
f 53 51 55
f 53 55 57
f 57 55 59
f 57 59 62
f 62 59 64
f 62 64 66
f 66 64 67
f 66 67 69
f 69 67 71
f 69 71 74
f 74 71 75
f 74 75 78
f 78 75 79
f 78 79 82
f 82 79 83
f 82 83 85
f 85 83 87
f 85 87 90
f 90 87 91
f 90 91 94
f 94 91 95
f 94 95 97
f 97 95 100
f 97 100 102
f 102 100 103
f 102 103 106
f 106 103 108
f 106 108 110
f 110 108 111
f 110 111 1
f 1 111 4
f 113 118 127
f 135 137 127
f 123 138 140
f 130 142 115
f 143 146 120
f 127 147 150
f 124 151 134
f 152 157 126
f 127 156 158
f 127 158 145
f 160 164 127
f 127 164 166
f 128 167 153
f 168 171 127
f 127 171 173
f 132 174 161
f 176 181 127
f 125 180 184
f 121 183 170
f 186 188 127
f 122 189 191
f 129 190 177
f 193 197 127
f 126 196 199
f 127 200 186
f 117 203 119
f 133 204 206
f 131 207 194
f 209 212 223
f 228 232 213
f 219 231 235
f 216 234 210
f 236 240 223
f 214 238 242
f 223 241 229
f 244 249 223
f 219 247 252
f 223 251 236
f 255 257 226
f 223 256 259
f 220 260 246
f 264 266 223
f 215 267 269
f 217 268 253
f 272 275 223
f 218 276 278
f 221 279 262
f 280 285 223
f 222 283 286
f 214 288 271
f 290 293 223
f 223 293 294
f 222 295 282
f 212 297 223
f 224 299 301
f 225 302 291
f 112 169 3
f 3 169 182
f 3 182 8
f 8 182 179
f 8 179 12
f 12 179 178
f 12 178 16
f 16 178 192
f 16 192 20
f 20 192 187
f 20 187 24
f 24 187 185
f 24 185 27
f 27 185 201
f 27 201 31
f 31 201 198
f 31 198 35
f 35 198 195
f 35 195 40
f 40 195 205
f 40 205 44
f 44 205 202
f 44 202 48
f 48 202 116
f 48 116 52
f 52 116 114
f 52 114 56
f 56 114 141
f 56 141 60
f 60 141 139
f 60 139 63
f 63 139 136
f 63 136 68
f 68 136 149
f 68 149 72
f 72 149 148
f 72 148 76
f 76 148 144
f 76 144 80
f 80 144 159
f 80 159 84
f 84 159 155
f 84 155 88
f 88 155 154
f 88 154 92
f 92 154 165
f 92 165 96
f 96 165 163
f 96 163 99
f 99 163 162
f 99 162 104
f 104 162 175
f 104 175 107
f 107 175 172
f 107 172 112
f 112 172 169
f 58 233 54
f 54 233 230
f 54 230 49
f 49 230 227
f 49 227 46
f 46 227 243
f 46 243 42
f 42 243 239
f 42 239 37
f 37 239 237
f 37 237 34
f 34 237 250
f 34 250 29
f 29 250 248
f 29 248 26
f 26 248 245
f 26 245 21
f 21 245 261
f 21 261 17
f 17 261 258
f 17 258 13
f 13 258 254
f 13 254 9
f 9 254 270
f 9 270 6
f 6 270 265
f 6 265 2
f 2 265 263
f 2 263 109
f 109 263 277
f 109 277 105
f 105 277 274
f 105 274 101
f 101 274 273
f 101 273 98
f 98 273 287
f 98 287 93
f 93 287 284
f 93 284 89
f 89 284 281
f 89 281 86
f 86 281 296
f 86 296 81
f 81 296 292
f 81 292 77
f 77 292 289
f 77 289 73
f 73 289 300
f 73 300 70
f 70 300 298
f 70 298 65
f 65 298 211
f 65 211 61
f 61 211 208
f 61 208 58
f 58 208 233
