mtllib converted_link2_11_d12626ff.mtl
usemtl material
v -0.001119517837651074 -0.001253835973329842 -5.0010159611701965e-05
v -0.001119517837651074 -0.001253835973329842 -5.0010159611701965e-05
v -0.001119517837651074 -0.001253835973329842 -5.0010159611701965e-05
v -0.001119517837651074 -0.001253835973329842 -5.0010159611701965e-05
v -0.001119517837651074 -0.001253835973329842 5.0010159611701965e-05
v -0.001119517837651074 -0.001253835973329842 5.0010159611701965e-05
v -0.001119517837651074 -0.001253835973329842 5.0010159611701965e-05
v -0.001119517837651074 -0.001253835973329842 5.0010159611701965e-05
v -0.0011947090970352292 -0.0012425055028870702 5.0010159611701965e-05
v -0.0011947090970352292 -0.0012425055028870702 5.0010159611701965e-05
v -0.0011947090970352292 -0.0012425055028870702 5.0010159611701965e-05
v -0.0011947090970352292 -0.0012425055028870702 -5.0010159611701965e-05
v -0.0011947090970352292 -0.0012425055028870702 -5.0010159611701965e-05
v -0.0011947090970352292 -0.0012425055028870702 -5.0010159611701965e-05
v -0.0012609000550583005 -0.0012103264452889562 5.0010159611701965e-05
v -0.0012609000550583005 -0.0012103264452889562 5.0010159611701965e-05
v -0.0012609000550583005 -0.0012103264452889562 5.0010159611701965e-05
v -0.0012609000550583005 -0.0012103264452889562 -5.0010159611701965e-05
v -0.0012609000550583005 -0.0012103264452889562 -5.0010159611701965e-05
v -0.0012609000550583005 -0.0012103264452889562 -5.0010159611701965e-05
v -0.0013171072350814939 -0.0011574552627280354 5.0010159611701965e-05
v -0.0013171072350814939 -0.0011574552627280354 5.0010159611701965e-05
v -0.0013171072350814939 -0.0011574552627280354 -5.0010159611701965e-05
v -0.0013171072350814939 -0.0011574552627280354 -5.0010159611701965e-05
v -0.0013547177659347653 -0.001089206081815064 5.0010159611701965e-05
v -0.0013547177659347653 -0.001089206081815064 5.0010159611701965e-05
v -0.0013547177659347653 -0.001089206081815064 5.0010159611701965e-05
v -0.0013547177659347653 -0.001089206081815064 5.0010159611701965e-05
v -0.0013547177659347653 -0.001089206081815064 -5.0010159611701965e-05
v -0.0013547177659347653 -0.001089206081815064 -5.0010159611701965e-05
v -0.0013547177659347653 -0.001089206081815064 -5.0010159611701965e-05
v -0.0013547177659347653 -0.001089206081815064 -5.0010159611701965e-05
v -0.0013547177659347653 -0.001089206081815064 -5.0010159611701965e-05
v -0.0013692016946151853 -0.0010185764404013753 5.0010159611701965e-05
v -0.0013692016946151853 -0.0010185764404013753 5.0010159611701965e-05
v -0.0013692016946151853 -0.0010185764404013753 5.0010159611701965e-05
v -0.0013692016946151853 -0.0010185764404013753 5.0010159611701965e-05
v -0.0013692016946151853 -0.0010185764404013753 5.0010159611701965e-05
v -0.0013692016946151853 -0.0010185764404013753 -5.0010159611701965e-05
v -0.0013692016946151853 -0.0010185764404013753 -5.0010159611701965e-05
v -0.0013692016946151853 -0.0010185764404013753 -5.0010159611701965e-05
v -0.0013692016946151853 -0.0010185764404013753 -5.0010159611701965e-05
v -0.001369618927128613 -0.0010044464142993093 5.0010159611701965e-05
v -0.001369618927128613 -0.0010044464142993093 5.0010159611701965e-05
v -0.001369618927128613 -0.0010044464142993093 5.0010159611701965e-05
v -0.001369618927128613 -0.0010044464142993093 -5.0010159611701965e-05
v -0.001369618927128613 -0.0010044464142993093 -5.0010159611701965e-05
v -0.0013585026608780026 -0.0009294059709645808 5.0010159611701965e-05
v -0.0013585026608780026 -0.0009294059709645808 5.0010159611701965e-05
v -0.0013585026608780026 -0.0009294059709645808 5.0010159611701965e-05
v -0.0013585026608780026 -0.0009294059709645808 -5.0010159611701965e-05
v -0.0013585026608780026 -0.0009294059709645808 -5.0010159611701965e-05
v -0.0013585026608780026 -0.0009294059709645808 -5.0010159611701965e-05
v -0.0013265247689560056 -0.0008633062825538218 5.0010159611701965e-05
v -0.0013265247689560056 -0.0008633062825538218 5.0010159611701965e-05
v -0.0013265247689560056 -0.0008633062825538218 5.0010159611701965e-05
v -0.0013265247689560056 -0.0008633062825538218 -5.0010159611701965e-05
v -0.0013265247689560056 -0.0008633062825538218 -5.0010159611701965e-05
v -0.0013265247689560056 -0.0008633062825538218 -5.0010159611701965e-05
v -0.0012861128197982907 -0.0008175857947207987 5.0010159611701965e-05
v -0.0012861128197982907 -0.0008175857947207987 5.0010159611701965e-05
v -0.0012861128197982907 -0.0008175857947207987 -5.0010159611701965e-05
v -0.0012861128197982907 -0.0008175857947207987 -5.0010159611701965e-05
v -0.0012790198670700192 -0.0008119252161122859 -5.0010159611701965e-05
v -0.0012790198670700192 -0.0008119252161122859 -5.0010159611701965e-05
v -0.0012790198670700192 -0.0008119252161122859 5.0010159611701965e-05
v -0.0012790198670700192 -0.0008119252161122859 5.0010159611701965e-05
v -0.0012790198670700192 -0.0008119252161122859 5.0010159611701965e-05
v -0.0007440086337737739 -0.00033914679079316556 -5.0010159611701965e-05
v -0.0007440086337737739 -0.00033914679079316556 -5.0010159611701965e-05
v -0.0007440086337737739 -0.00033914679079316556 -5.0010159611701965e-05
v -0.0007440086337737739 -0.00033914679079316556 5.0010159611701965e-05
v -0.0007440086337737739 -0.00033914679079316556 5.0010159611701965e-05
v -0.0007440086337737739 -0.00033914679079316556 5.0010159611701965e-05
v -0.0005582209560088813 -0.0001751054951455444 -5.0010159611701965e-05
v -0.0005582209560088813 -0.0001751054951455444 -5.0010159611701965e-05
v -0.0005582209560088813 -0.0001751054951455444 -5.0010159611701965e-05
v -0.0005582209560088813 -0.0001751054951455444 5.0010159611701965e-05
v -0.0005582209560088813 -0.0001751054951455444 5.0010159611701965e-05
v -0.0005410250159911811 -0.00015794680803082883 -5.0010159611701965e-05
v -0.0005410250159911811 -0.00015794680803082883 -5.0010159611701965e-05
v -0.0005410250159911811 -0.00015794680803082883 -5.0010159611701965e-05
v -0.0005410250159911811 -0.00015794680803082883 -5.0010159611701965e-05
v -0.0005410250159911811 -0.00015794680803082883 5.0010159611701965e-05
v -0.0005410250159911811 -0.00015794680803082883 5.0010159611701965e-05
v -0.0005410250159911811 -0.00015794680803082883 5.0010159611701965e-05
v -0.0005245145293883979 -0.00014280536561273038 -5.0010159611701965e-05
v -0.0005245145293883979 -0.00014280536561273038 -5.0010159611701965e-05
v -0.0005245145293883979 -0.00014280536561273038 -5.0010159611701965e-05
v -0.0005245145293883979 -0.00014280536561273038 -5.0010159611701965e-05
v -0.0005245145293883979 -0.00014280536561273038 -5.0010159611701965e-05
v -0.0005245145293883979 -0.00014280536561273038 5.0010159611701965e-05
v -0.0005245145293883979 -0.00014280536561273038 5.0010159611701965e-05
v -0.0005245145293883979 -0.00014280536561273038 5.0010159611701965e-05
v -0.00036891657509841025 2.9242660275485832e-06 -5.0010159611701965e-05
v -0.00036891657509841025 2.9242660275485832e-06 -5.0010159611701965e-05
v -0.00036891657509841025 2.9242660275485832e-06 -5.0010159611701965e-05
v -0.00036891657509841025 2.9242660275485832e-06 -5.0010159611701965e-05
v -0.00036891657509841025 2.9242660275485832e-06 -5.0010159611701965e-05
v -0.00036891657509841025 2.9242660275485832e-06 -5.0010159611701965e-05
v -0.00036891657509841025 2.9242660275485832e-06 -5.0010159611701965e-05
v -0.00036891657509841025 2.9242660275485832e-06 -5.0010159611701965e-05
v -0.00036891657509841025 2.9242660275485832e-06 -5.0010159611701965e-05
v -0.00036891657509841025 2.9242660275485832e-06 5.0010159611701965e-05
v -0.00036891657509841025 2.9242660275485832e-06 5.0010159611701965e-05
v -0.00036891657509841025 2.9242660275485832e-06 5.0010159611701965e-05
v -0.00036891657509841025 2.9242660275485832e-06 5.0010159611701965e-05
v -0.00036891657509841025 2.9242660275485832e-06 5.0010159611701965e-05
v -0.00036891657509841025 2.9242660275485832e-06 5.0010159611701965e-05
v -0.00036891657509841025 2.9242660275485832e-06 5.0010159611701965e-05
v -0.00036891657509841025 2.9242660275485832e-06 5.0010159611701965e-05
v -0.00036891657509841025 2.9242660275485832e-06 5.0010159611701965e-05
v -0.00038721520104445517 1.878468901850283e-05 -5.0010159611701965e-05
v -0.00038721520104445517 1.878468901850283e-05 -5.0010159611701965e-05
v -0.00038721520104445517 1.878468901850283e-05 -5.0010159611701965e-05
v -0.00038721520104445517 1.878468901850283e-05 -5.0010159611701965e-05
v -0.00038721520104445517 1.878468901850283e-05 -5.0010159611701965e-05
v -0.00038721520104445517 1.878468901850283e-05 -5.0010159611701965e-05
v -0.00038721520104445517 1.878468901850283e-05 -5.0010159611701965e-05
v -0.00038721520104445517 1.878468901850283e-05 5.0010159611701965e-05
v -0.00038721520104445517 1.878468901850283e-05 5.0010159611701965e-05
v -0.00038721520104445517 1.878468901850283e-05 5.0010159611701965e-05
v -0.00038721520104445517 1.878468901850283e-05 5.0010159611701965e-05
v -0.00038721520104445517 1.878468901850283e-05 5.0010159611701965e-05
v -0.00038721520104445517 1.878468901850283e-05 5.0010159611701965e-05
v -0.0007444258662872016 0.00032998426468111575 -5.0010159611701965e-05
v -0.0007444258662872016 0.00032998426468111575 -5.0010159611701965e-05
v -0.0007444258662872016 0.00032998426468111575 -5.0010159611701965e-05
v -0.0007444258662872016 0.00032998426468111575 5.0010159611701965e-05
v -0.0007444258662872016 0.00032998426468111575 5.0010159611701965e-05
v -0.0007444258662872016 0.00032998426468111575 5.0010159611701965e-05
v -0.0007444258662872016 0.00032998426468111575 5.0010159611701965e-05
v -0.0007444258662872016 0.00032998426468111575 5.0010159611701965e-05
v -0.0012818212853744626 0.0007975138141773641 -5.0010159611701965e-05
v -0.0012818212853744626 0.0007975138141773641 -5.0010159611701965e-05
v -0.0012818212853744626 0.0007975138141773641 -5.0010159611701965e-05
v -0.0012818212853744626 0.0007975138141773641 -5.0010159611701965e-05
v -0.0012818212853744626 0.0007975138141773641 -5.0010159611701965e-05
v -0.0012818212853744626 0.0007975138141773641 -5.0010159611701965e-05
v -0.0012818212853744626 0.0007975138141773641 5.0010159611701965e-05
v -0.0012818212853744626 0.0007975138141773641 5.0010159611701965e-05
v -0.0012818212853744626 0.0007975138141773641 5.0010159611701965e-05
v -0.0012818212853744626 0.0007975138141773641 5.0010159611701965e-05
v -0.0012818212853744626 0.0007975138141773641 5.0010159611701965e-05
v -0.0012818212853744626 0.0007975138141773641 5.0010159611701965e-05
v -0.0012896294938400388 0.0008038337691687047 -5.0010159611701965e-05
v -0.0012896294938400388 0.0008038337691687047 -5.0010159611701965e-05
v -0.0012896294938400388 0.0008038337691687047 -5.0010159611701965e-05
v -0.0012896294938400388 0.0008038337691687047 5.0010159611701965e-05
v -0.0012896294938400388 0.0008038337691687047 5.0010159611701965e-05
v -0.0012896294938400388 0.0008038337691687047 5.0010159611701965e-05
v -0.001338713918812573 0.0008628442301414907 5.0010159611701965e-05
v -0.001338713918812573 0.0008628442301414907 5.0010159611701965e-05
v -0.001338713918812573 0.0008628442301414907 5.0010159611701965e-05
v -0.001338713918812573 0.0008628442301414907 -5.0010159611701965e-05
v -0.001338713918812573 0.0008628442301414907 -5.0010159611701965e-05
v -0.001338713918812573 0.0008628442301414907 -5.0010159611701965e-05
v -0.0013677115784958005 0.0009354445501230657 5.0010159611701965e-05
v -0.0013677115784958005 0.0009354445501230657 5.0010159611701965e-05
v -0.0013677115784958005 0.0009354445501230657 5.0010159611701965e-05
v -0.0013677115784958005 0.0009354445501230657 -5.0010159611701965e-05
v -0.0013677115784958005 0.0009354445501230657 -5.0010159611701965e-05
v -0.0013677115784958005 0.0009354445501230657 -5.0010159611701965e-05
v -0.001373821054585278 0.0009906942723318934 5.0010159611701965e-05
v -0.001373821054585278 0.0009906942723318934 5.0010159611701965e-05
v -0.001373821054585278 0.0009906942723318934 5.0010159611701965e-05
v -0.001373821054585278 0.0009906942723318934 -5.0010159611701965e-05
v -0.001373821054585278 0.0009906942723318934 -5.0010159611701965e-05
v -0.001373821054585278 0.0009906942723318934 -5.0010159611701965e-05
v -0.0013625259744003415 0.0010658538667485118 5.0010159611701965e-05
v -0.0013625259744003415 0.0010658538667485118 5.0010159611701965e-05
v -0.0013625259744003415 0.0010658538667485118 5.0010159611701965e-05
v -0.0013625259744003415 0.0010658538667485118 5.0010159611701965e-05
v -0.0013625259744003415 0.0010658538667485118 -5.0010159611701965e-05
v -0.0013625259744003415 0.0010658538667485118 -5.0010159611701965e-05
v -0.0013625259744003415 0.0010658538667485118 -5.0010159611701965e-05
v -0.0013625259744003415 0.0010658538667485118 -5.0010159611701965e-05
v -0.0013303096638992429 0.0011321342317387462 5.0010159611701965e-05
v -0.0013303096638992429 0.0011321342317387462 5.0010159611701965e-05
v -0.0013303096638992429 0.0011321342317387462 5.0010159611701965e-05
v -0.0013303096638992429 0.0011321342317387462 -5.0010159611701965e-05
v -0.0013303096638992429 0.0011321342317387462 -5.0010159611701965e-05
v -0.0012774105416610837 0.0011883432744070888 5.0010159611701965e-05
v -0.0012774105416610837 0.0011883432744070888 5.0010159611701965e-05
v -0.0012774105416610837 0.0011883432744070888 -5.0010159611701965e-05
v -0.0012774105416610837 0.0011883432744070888 -5.0010159611701965e-05
v -0.001209103618748486 0.0012259538052603602 5.0010159611701965e-05
v -0.001209103618748486 0.0012259538052603602 5.0010159611701965e-05
v -0.001209103618748486 0.0012259538052603602 5.0010159611701965e-05
v -0.001209103618748486 0.0012259538052603602 -5.0010159611701965e-05
v -0.001209103618748486 0.0012259538052603602 -5.0010159611701965e-05
v -0.001209103618748486 0.0012259538052603602 -5.0010159611701965e-05
v -0.0011386211263015866 0.0012403837172314525 5.0010159611701965e-05
v -0.0011386211263015866 0.0012403837172314525 5.0010159611701965e-05
v -0.0011386211263015866 0.0012403837172314525 5.0010159611701965e-05
v -0.0011386211263015866 0.0012403837172314525 5.0010159611701965e-05
v -0.0011386211263015866 0.0012403837172314525 5.0010159611701965e-05
v -0.0011386211263015866 0.0012403837172314525 5.0010159611701965e-05
v -0.0011386211263015866 0.0012403837172314525 -5.0010159611701965e-05
v -0.0011386211263015866 0.0012403837172314525 -5.0010159611701965e-05
v -0.0011386211263015866 0.0012403837172314525 -5.0010159611701965e-05
v -0.0011386211263015866 0.0012403837172314525 -5.0010159611701965e-05
v -0.0011386211263015866 0.0012403837172314525 -5.0010159611701965e-05
v -0.0011386211263015866 0.0012403837172314525 -5.0010159611701965e-05
v -0.0011386211263015866 0.0012403837172314525 -5.0010159611701965e-05
v -0.0011386211263015866 0.0012403837172314525 -5.0010159611701965e-05
v -0.0011248226510360837 0.0012407934991642833 5.0010159611701965e-05
v -0.0011248226510360837 0.0012407934991642833 5.0010159611701965e-05
v -0.0011248226510360837 0.0012407934991642833 5.0010159611701965e-05
v -0.0011248226510360837 0.0012407934991642833 -5.0010159611701965e-05
v -0.0011248226510360837 0.0012407934991642833 -5.0010159611701965e-05
v -0.0011248226510360837 0.0012407934991642833 -5.0010159611701965e-05
v -0.0010496015893295407 0.0012292935280129313 5.0010159611701965e-05
v -0.0010496015893295407 0.0012292935280129313 5.0010159611701965e-05
v -0.0010496015893295407 0.0012292935280129313 5.0010159611701965e-05
v -0.0010496015893295407 0.0012292935280129313 -5.0010159611701965e-05
v -0.0010496015893295407 0.0012292935280129313 -5.0010159611701965e-05
v -0.0010496015893295407 0.0012292935280129313 -5.0010159611701965e-05
v -0.0009835000382736325 0.0011969244806095958 5.0010159611701965e-05
v -0.0009835000382736325 0.0011969244806095958 5.0010159611701965e-05
v -0.0009835000382736325 0.0011969244806095958 5.0010159611701965e-05
v -0.0009835000382736325 0.0011969244806095958 -5.0010159611701965e-05
v -0.0009835000382736325 0.0011969244806095958 -5.0010159611701965e-05
v -0.0009835000382736325 0.0011969244806095958 -5.0010159611701965e-05
v -0.0009281273814849555 0.0011445338604971766 5.0010159611701965e-05
v -0.0009281273814849555 0.0011445338604971766 5.0010159611701965e-05
v -0.0009281273814849555 0.0011445338604971766 5.0010159611701965e-05
v -0.0009281273814849555 0.0011445338604971766 -5.0010159611701965e-05
v -0.0009281273814849555 0.0011445338604971766 -5.0010159611701965e-05
v -0.0009281273814849555 0.0011445338604971766 -5.0010159611701965e-05
v -6.710846355417743e-05 0.00038791439146734774 -5.0010159611701965e-05
v -6.710846355417743e-05 0.00038791439146734774 -5.0010159611701965e-05
v -6.710846355417743e-05 0.00038791439146734774 -5.0010159611701965e-05
v -6.710846355417743e-05 0.00038791439146734774 5.0010159611701965e-05
v -6.710846355417743e-05 0.00038791439146734774 5.0010159611701965e-05
v -6.710846355417743e-05 0.00038791439146734774 5.0010159611701965e-05
v -4.791577157448046e-05 0.0003724134585354477 5.0010159611701965e-05
v -4.791577157448046e-05 0.0003724134585354477 5.0010159611701965e-05
v -4.791577157448046e-05 0.0003724134585354477 5.0010159611701965e-05
v -4.791577157448046e-05 0.0003724134585354477 5.0010159611701965e-05
v -4.791577157448046e-05 0.0003724134585354477 -5.0010159611701965e-05
v -4.791577157448046e-05 0.0003724134585354477 -5.0010159611701965e-05
v -4.791577157448046e-05 0.0003724134585354477 -5.0010159611701965e-05
v -3.0004575819475576e-05 0.0003556142619345337 5.0010159611701965e-05
v -3.0004575819475576e-05 0.0003556142619345337 5.0010159611701965e-05
v -3.0004575819475576e-05 0.0003556142619345337 5.0010159611701965e-05
v -3.0004575819475576e-05 0.0003556142619345337 -5.0010159611701965e-05
v -3.0004575819475576e-05 0.0003556142619345337 -5.0010159611701965e-05
v -3.0004575819475576e-05 0.0003556142619345337 -5.0010159611701965e-05
v -1.572926339576952e-05 0.0003444048634264618 5.0010159611701965e-05
v -1.572926339576952e-05 0.0003444048634264618 5.0010159611701965e-05
v -1.572926339576952e-05 0.0003444048634264618 5.0010159611701965e-05
v -1.572926339576952e-05 0.0003444048634264618 -5.0010159611701965e-05
v -1.572926339576952e-05 0.0003444048634264618 -5.0010159611701965e-05
v -2.2288111267698696e-06 0.0003320648393128067 5.0010159611701965e-05
v -2.2288111267698696e-06 0.0003320648393128067 5.0010159611701965e-05
v -2.2288111267698696e-06 0.0003320648393128067 5.0010159611701965e-05
v -2.2288111267698696e-06 0.0003320648393128067 5.0010159611701965e-05
v -2.2288111267698696e-06 0.0003320648393128067 5.0010159611701965e-05
v -2.2288111267698696e-06 0.0003320648393128067 -5.0010159611701965e-05
v -2.2288111267698696e-06 0.0003320648393128067 -5.0010159611701965e-05
v -2.2288111267698696e-06 0.0003320648393128067 -5.0010159611701965e-05
v -2.2288111267698696e-06 0.0003320648393128067 -5.0010159611701965e-05
v -2.2288111267698696e-06 0.0003320648393128067 -5.0010159611701965e-05
v 2.2685930161969736e-05 0.00035912348539568484 5.0010159611701965e-05
v 2.2685930161969736e-05 0.00035912348539568484 5.0010159611701965e-05
v 2.2685930161969736e-05 0.00035912348539568484 5.0010159611701965e-05
v 2.2685930161969736e-05 0.00035912348539568484 -5.0010159611701965e-05
v 2.2685930161969736e-05 0.00035912348539568484 -5.0010159611701965e-05
v 2.2685930161969736e-05 0.00035912348539568484 -5.0010159611701965e-05
v 6.098191443015821e-05 0.0003935731074307114 -5.0010159611701965e-05
v 6.098191443015821e-05 0.0003935731074307114 -5.0010159611701965e-05
v 6.098191443015821e-05 0.0003935731074307114 -5.0010159611701965e-05
v 6.098191443015821e-05 0.0003935731074307114 -5.0010159611701965e-05
v 6.098191443015821e-05 0.0003935731074307114 -5.0010159611701965e-05
v 6.098191443015821e-05 0.0003935731074307114 -5.0010159611701965e-05
v 6.098191443015821e-05 0.0003935731074307114 5.0010159611701965e-05
v 6.098191443015821e-05 0.0003935731074307114 5.0010159611701965e-05
v 6.098191443015821e-05 0.0003935731074307114 5.0010159611701965e-05
v 6.098191443015821e-05 0.0003935731074307114 5.0010159611701965e-05
v 0.00016639272507745773 0.0004876944294665009 -5.0010159611701965e-05
v 0.00016639272507745773 0.0004876944294665009 -5.0010159611701965e-05
v 0.00016639272507745773 0.0004876944294665009 -5.0010159611701965e-05
v 0.00016639272507745773 0.0004876944294665009 -5.0010159611701965e-05
v 0.00016639272507745773 0.0004876944294665009 -5.0010159611701965e-05
v 0.00016639272507745773 0.0004876944294665009 -5.0010159611701965e-05
v 0.00016639272507745773 0.0004876944294665009 5.0010159611701965e-05
v 0.00016639272507745773 0.0004876944294665009 5.0010159611701965e-05
v 0.00016639272507745773 0.0004876944294665009 5.0010159611701965e-05
v 0.00016639272507745773 0.0004876944294665009 5.0010159611701965e-05
v 0.00016639272507745773 0.0004876944294665009 5.0010159611701965e-05
v 0.00016639272507745773 0.0004876944294665009 5.0010159611701965e-05
v 0.00022859017190057784 0.00054282316705212 -5.0010159611701965e-05
v 0.00022859017190057784 0.00054282316705212 -5.0010159611701965e-05
v 0.00022859017190057784 0.00054282316705212 -5.0010159611701965e-05
v 0.00022859017190057784 0.00054282316705212 -5.0010159611701965e-05
v 0.00022859017190057784 0.00054282316705212 -5.0010159611701965e-05
v 0.00022859017190057784 0.00054282316705212 -5.0010159611701965e-05
v 0.00022859017190057784 0.00054282316705212 5.0010159611701965e-05
v 0.00022859017190057784 0.00054282316705212 5.0010159611701965e-05
v 0.00022859017190057784 0.00054282316705212 5.0010159611701965e-05
v 0.00022859017190057784 0.00054282316705212 5.0010159611701965e-05
v 0.00022859017190057784 0.00054282316705212 5.0010159611701965e-05
v 0.0009496871498413384 0.0011866743443533778 -5.0010159611701965e-05
v 0.0009496871498413384 0.0011866743443533778 -5.0010159611701965e-05
v 0.0009496871498413384 0.0011866743443533778 -5.0010159611701965e-05
v 0.0009496871498413384 0.0011866743443533778 5.0010159611701965e-05
v 0.0009496871498413384 0.0011866743443533778 5.0010159611701965e-05
v 0.0009496871498413384 0.0011866743443533778 5.0010159611701965e-05
v 0.0009594921139068902 0.0011947843013331294 -5.0010159611701965e-05
v 0.0009594921139068902 0.0011947843013331294 -5.0010159611701965e-05
v 0.0009594921139068902 0.0011947843013331294 -5.0010159611701965e-05
v 0.0009594921139068902 0.0011947843013331294 -5.0010159611701965e-05
v 0.0009594921139068902 0.0011947843013331294 -5.0010159611701965e-05
v 0.0009594921139068902 0.0011947843013331294 -5.0010159611701965e-05
v 0.0009594921139068902 0.0011947843013331294 5.0010159611701965e-05
v 0.0009594921139068902 0.0011947843013331294 5.0010159611701965e-05
v 0.0009594921139068902 0.0011947843013331294 5.0010159611701965e-05
v 0.0009594921139068902 0.0011947843013331294 5.0010159611701965e-05
v 0.0009594921139068902 0.0011947843013331294 5.0010159611701965e-05
v 0.0009594921139068902 0.0011947843013331294 5.0010159611701965e-05
v 0.0010250870836898685 0.0012350137112662196 5.0010159611701965e-05
v 0.0010250870836898685 0.0012350137112662196 5.0010159611701965e-05
v 0.0010250870836898685 0.0012350137112662196 5.0010159611701965e-05
v 0.0010250870836898685 0.0012350137112662196 -5.0010159611701965e-05
v 0.0010250870836898685 0.0012350137112662196 -5.0010159611701965e-05
v 0.0010250870836898685 0.0012350137112662196 -5.0010159611701965e-05
v 0.0010938708437606692 0.0012524834601208568 5.0010159611701965e-05
v 0.0010938708437606692 0.0012524834601208568 5.0010159611701965e-05
v 0.0010938708437606692 0.0012524834601208568 5.0010159611701965e-05
v 0.0010938708437606692 0.0012524834601208568 -5.0010159611701965e-05
v 0.0010938708437606692 0.0012524834601208568 -5.0010159611701965e-05
v 0.0010938708437606692 0.0012524834601208568 -5.0010159611701965e-05
v 0.0011192922247573733 0.0012537947623059154 5.0010159611701965e-05
v 0.0011192922247573733 0.0012537947623059154 5.0010159611701965e-05
v 0.0011192922247573733 0.0012537947623059154 5.0010159611701965e-05
v 0.0011192922247573733 0.0012537947623059154 5.0010159611701965e-05
v 0.0011192922247573733 0.0012537947623059154 -5.0010159611701965e-05
v 0.0011192922247573733 0.0012537947623059154 -5.0010159611701965e-05
v 0.0011192922247573733 0.0012537947623059154 -5.0010159611701965e-05
v 0.0011192922247573733 0.0012537947623059154 -5.0010159611701965e-05
v 0.0011945728911086917 0.0012424642918631434 5.0010159611701965e-05
v 0.0011945728911086917 0.0012424642918631434 5.0010159611701965e-05
v 0.0011945728911086917 0.0012424642918631434 5.0010159611701965e-05
v 0.0011945728911086917 0.0012424642918631434 -5.0010159611701965e-05
v 0.0011945728911086917 0.0012424642918631434 -5.0010159611701965e-05
v 0.0011945728911086917 0.0012424642918631434 -5.0010159611701965e-05
v 0.0012608830584213138 0.0012102833716198802 5.0010159611701965e-05
v 0.0012608830584213138 0.0012102833716198802 5.0010159611701965e-05
v 0.0012608830584213138 0.0012102833716198802 5.0010159611701965e-05
v 0.0012608830584213138 0.0012102833716198802 -5.0010159611701965e-05
v 0.0012608830584213138 0.0012102833716198802 -5.0010159611701965e-05
v 0.0012608830584213138 0.0012102833716198802 -5.0010159611701965e-05
v 0.0013170902384445071 0.0011574140517041087 5.0010159611701965e-05
v 0.0013170902384445071 0.0011574140517041087 5.0010159611701965e-05
v 0.0013170902384445071 0.0011574140517041087 -5.0010159611701965e-05
v 0.0013170902384445071 0.0011574140517041087 -5.0010159611701965e-05
v 0.0013545815600082278 0.0010892244754359126 5.0010159611701965e-05
v 0.0013545815600082278 0.0010892244754359126 5.0010159611701965e-05
v 0.0013545815600082278 0.0010892244754359126 5.0010159611701965e-05
v 0.0013545815600082278 0.0010892244754359126 5.0010159611701965e-05
v 0.0013545815600082278 0.0010892244754359126 5.0010159611701965e-05
v 0.0013545815600082278 0.0010892244754359126 -5.0010159611701965e-05
v 0.0013545815600082278 0.0010892244754359126 -5.0010159611701965e-05
v 0.0013545815600082278 0.0010892244754359126 -5.0010159611701965e-05
v 0.0013545815600082278 0.0010892244754359126 -5.0010159611701965e-05
v 0.0013689760817214847 0.0010186544386669993 5.0010159611701965e-05
v 0.0013689760817214847 0.0010186544386669993 5.0010159611701965e-05
v 0.0013689760817214847 0.0010186544386669993 5.0010159611701965e-05
v 0.0013689760817214847 0.0010186544386669993 5.0010159611701965e-05
v 0.0013689760817214847 0.0010186544386669993 5.0010159611701965e-05
v 0.0013689760817214847 0.0010186544386669993 -5.0010159611701965e-05
v 0.0013689760817214847 0.0010186544386669993 -5.0010159611701965e-05
v 0.0013689760817214847 0.0010186544386669993 -5.0010159611701965e-05
v 0.0013689760817214847 0.0010186544386669993 -5.0010159611701965e-05
v 0.0013689760817214847 0.0010186544386669993 -5.0010159611701965e-05
v 0.0013693933142349124 0.0010047032264992595 5.0010159611701965e-05
v 0.0013693933142349124 0.0010047032264992595 5.0010159611701965e-05
v 0.0013693933142349124 0.0010047032264992595 5.0010159611701965e-05
v 0.0013693933142349124 0.0010047032264992595 -5.0010159611701965e-05
v 0.0013693933142349124 0.0010047032264992595 -5.0010159611701965e-05
v 0.0013693933142349124 0.0010047032264992595 -5.0010159611701965e-05
v 0.001358277047984302 0.000929543690290302 5.0010159611701965e-05
v 0.001358277047984302 0.000929543690290302 5.0010159611701965e-05
v 0.001358277047984302 0.000929543690290302 5.0010159611701965e-05
v 0.001358277047984302 0.000929543690290302 -5.0010159611701965e-05
v 0.001358277047984302 0.000929543690290302 -5.0010159611701965e-05
v 0.001358277047984302 0.000929543690290302 -5.0010159611701965e-05
v 0.0013261799467727542 0.0008632633253000677 5.0010159611701965e-05
v 0.0013261799467727542 0.0008632633253000677 5.0010159611701965e-05
v 0.0013261799467727542 0.0008632633253000677 5.0010159611701965e-05
v 0.0013261799467727542 0.0008632633253000677 -5.0010159611701965e-05
v 0.0013261799467727542 0.0008632633253000677 -5.0010159611701965e-05
v 0.0013261799467727542 0.0008632633253000677 -5.0010159611701965e-05
v 0.0012858872069045901 0.0008174832328222692 5.0010159611701965e-05
v 0.0012858872069045901 0.0008174832328222692 5.0010159611701965e-05
v 0.0012858872069045901 0.0008174832328222692 5.0010159611701965e-05
v 0.0012858872069045901 0.0008174832328222692 5.0010159611701965e-05
v 0.0012858872069045901 0.0008174832328222692 -5.0010159611701965e-05
v 0.0012858872069045901 0.0008174832328222692 -5.0010159611701965e-05
v 0.0012858872069045901 0.0008174832328222692 -5.0010159611701965e-05
v 0.0012787942541763186 0.0008115246309898794 -5.0010159611701965e-05
v 0.0012787942541763186 0.0008115246309898794 -5.0010159611701965e-05
v 0.0012787942541763186 0.0008115246309898794 -5.0010159611701965e-05
v 0.0012787942541763186 0.0008115246309898794 5.0010159611701965e-05
v 0.0012787942541763186 0.0008115246309898794 5.0010159611701965e-05
v 0.0012787942541763186 0.0008115246309898794 5.0010159611701965e-05
v 0.0007437829044647515 0.00033909446210600436 -5.0010159611701965e-05
v 0.0007437829044647515 0.00033909446210600436 -5.0010159611701965e-05
v 0.0007437829044647515 0.00033909446210600436 -5.0010159611701965e-05
v 0.0007437829044647515 0.00033909446210600436 5.0010159611701965e-05
v 0.0007437829044647515 0.00033909446210600436 5.0010159611701965e-05
v 0.0005587998894043267 0.00017471416504122317 -5.0010159611701965e-05
v 0.0005587998894043267 0.00017471416504122317 -5.0010159611701965e-05
v 0.0005587998894043267 0.00017471416504122317 -5.0010159611701965e-05
v 0.0005587998894043267 0.00017471416504122317 5.0010159611701965e-05
v 0.0005587998894043267 0.00017471416504122317 5.0010159611701965e-05
v 0.0005407992866821587 0.0001581943652126938 -5.0010159611701965e-05
v 0.0005407992866821587 0.0001581943652126938 -5.0010159611701965e-05
v 0.0005407992866821587 0.0001581943652126938 -5.0010159611701965e-05
v 0.0005407992866821587 0.0001581943652126938 -5.0010159611701965e-05
v 0.0005407992866821587 0.0001581943652126938 -5.0010159611701965e-05
v 0.0005407992866821587 0.0001581943652126938 5.0010159611701965e-05
v 0.0005407992866821587 0.0001581943652126938 5.0010159611701965e-05
v 0.0005242888000793755 0.00014276421279646456 -5.0010159611701965e-05
v 0.0005242888000793755 0.00014276421279646456 -5.0010159611701965e-05
v 0.0005242888000793755 0.00014276421279646456 -5.0010159611701965e-05
v 0.0005242888000793755 0.00014276421279646456 -5.0010159611701965e-05
v 0.0005242888000793755 0.00014276421279646456 -5.0010159611701965e-05
v 0.0005242888000793755 0.00014276421279646456 -5.0010159611701965e-05
v 0.0005242888000793755 0.00014276421279646456 5.0010159611701965e-05
v 0.0005242888000793755 0.00014276421279646456 5.0010159611701965e-05
v 0.0005242888000793755 0.00014276421279646456 5.0010159611701965e-05
v 0.0005242888000793755 0.00014276421279646456 5.0010159611701965e-05
v 0.0005242888000793755 0.00014276421279646456 5.0010159611701965e-05
v 0.0003690783341880888 -3.0361984499904793e-06 -5.0010159611701965e-05
v 0.0003690783341880888 -3.0361984499904793e-06 -5.0010159611701965e-05
v 0.0003690783341880888 -3.0361984499904793e-06 -5.0010159611701965e-05
v 0.0003690783341880888 -3.0361984499904793e-06 -5.0010159611701965e-05
v 0.0003690783341880888 -3.0361984499904793e-06 -5.0010159611701965e-05
v 0.0003690783341880888 -3.0361984499904793e-06 -5.0010159611701965e-05
v 0.0003690783341880888 -3.0361984499904793e-06 -5.0010159611701965e-05
v 0.0003690783341880888 -3.0361984499904793e-06 5.0010159611701965e-05
v 0.0003690783341880888 -3.0361984499904793e-06 5.0010159611701965e-05
v 0.0003690783341880888 -3.0361984499904793e-06 5.0010159611701965e-05
v 0.0003690783341880888 -3.0361984499904793e-06 5.0010159611701965e-05
v 0.0003690783341880888 -3.0361984499904793e-06 5.0010159611701965e-05
v 0.0003690783341880888 -3.0361984499904793e-06 5.0010159611701965e-05
v 0.0003690783341880888 -3.0361984499904793e-06 5.0010159611701965e-05
v 0.0003690783341880888 -3.0361984499904793e-06 5.0010159611701965e-05
v 0.00038698952994309366 -1.9546685507521033e-05 -5.0010159611701965e-05
v 0.00038698952994309366 -1.9546685507521033e-05 -5.0010159611701965e-05
v 0.00038698952994309366 -1.9546685507521033e-05 -5.0010159611701965e-05
v 0.00038698952994309366 -1.9546685507521033e-05 -5.0010159611701965e-05
v 0.00038698952994309366 -1.9546685507521033e-05 5.0010159611701965e-05
v 0.00038698952994309366 -1.9546685507521033e-05 5.0010159611701965e-05
v 0.00038698952994309366 -1.9546685507521033e-05 5.0010159611701965e-05
v 0.00038698952994309366 -1.9546685507521033e-05 5.0010159611701965e-05
v 0.00038698952994309366 -1.9546685507521033e-05 5.0010159611701965e-05
v 0.00038698952994309366 -1.9546685507521033e-05 5.0010159611701965e-05
v 0.0007442895439453423 -0.00032966592698358 -5.0010159611701965e-05
v 0.0007442895439453423 -0.00032966592698358 -5.0010159611701965e-05
v 0.0007442895439453423 -0.00032966592698358 5.0010159611701965e-05
v 0.0007442895439453423 -0.00032966592698358 5.0010159611701965e-05
v 0.0007442895439453423 -0.00032966592698358 5.0010159611701965e-05
v 0.001281595672480762 -0.0007975660846568644 -5.0010159611701965e-05
v 0.001281595672480762 -0.0007975660846568644 -5.0010159611701965e-05
v 0.001281595672480762 -0.0007975660846568644 -5.0010159611701965e-05
v 0.001281595672480762 -0.0007975660846568644 -5.0010159611701965e-05
v 0.001281595672480762 -0.0007975660846568644 5.0010159611701965e-05
v 0.001281595672480762 -0.0007975660846568644 5.0010159611701965e-05
v 0.001281595672480762 -0.0007975660846568644 5.0010159611701965e-05
v 0.001281595672480762 -0.0007975660846568644 5.0010159611701965e-05
v 0.0012893740786239505 -0.0008038767264224589 -5.0010159611701965e-05
v 0.0012893740786239505 -0.0008038767264224589 -5.0010159611701965e-05
v 0.0012893740786239505 -0.0008038767264224589 -5.0010159611701965e-05
v 0.0012893740786239505 -0.0008038767264224589 -5.0010159611701965e-05
v 0.0012893740786239505 -0.0008038767264224589 -5.0010159611701965e-05
v 0.0012893740786239505 -0.0008038767264224589 5.0010159611701965e-05
v 0.0012893740786239505 -0.0008038767264224589 5.0010159611701965e-05
v 0.0012893740786239505 -0.0008038767264224589 5.0010159611701965e-05
v 0.0012893740786239505 -0.0008038767264224589 5.0010159611701965e-05
v 0.0013385777128860354 -0.0008630063966847956 5.0010159611701965e-05
v 0.0013385777128860354 -0.0008630063966847956 5.0010159611701965e-05
v 0.0013385777128860354 -0.0008630063966847956 -5.0010159611701965e-05
v 0.0013385777128860354 -0.0008630063966847956 -5.0010159611701965e-05
v 0.0013385777128860354 -0.0008630063966847956 -5.0010159611701965e-05
v 0.001367575372569263 -0.0009356067166663706 5.0010159611701965e-05
v 0.001367575372569263 -0.0009356067166663706 5.0010159611701965e-05
v 0.001367575372569263 -0.0009356067166663706 -5.0010159611701965e-05
v 0.001367575372569263 -0.0009356067166663706 -5.0010159611701965e-05
v 0.001367575372569263 -0.0009356067166663706 -5.0010159611701965e-05
v 0.0013736848486587405 -0.0009903853060677648 5.0010159611701965e-05
v 0.0013736848486587405 -0.0009903853060677648 5.0010159611701965e-05
v 0.0013736848486587405 -0.0009903853060677648 5.0010159611701965e-05
v 0.0013736848486587405 -0.0009903853060677648 -5.0010159611701965e-05
v 0.0013736848486587405 -0.0009903853060677648 -5.0010159611701965e-05
v 0.0013736848486587405 -0.0009903853060677648 -5.0010159611701965e-05
v 0.001362389768473804 -0.0010657255770638585 5.0010159611701965e-05
v 0.001362389768473804 -0.0010657255770638585 5.0010159611701965e-05
v 0.001362389768473804 -0.0010657255770638585 5.0010159611701965e-05
v 0.001362389768473804 -0.0010657255770638585 5.0010159611701965e-05
v 0.001362389768473804 -0.0010657255770638585 -5.0010159611701965e-05
v 0.001362389768473804 -0.0010657255770638585 -5.0010159611701965e-05
v 0.001362389768473804 -0.0010657255770638585 -5.0010159611701965e-05
v 0.001362389768473804 -0.0010657255770638585 -5.0010159611701965e-05
v 0.0013300840510055423 -0.001132127013988793 5.0010159611701965e-05
v 0.0013300840510055423 -0.001132127013988793 5.0010159611701965e-05
v 0.0013300840510055423 -0.001132127013988793 5.0010159611701965e-05
v 0.0013300840510055423 -0.001132127013988793 -5.0010159611701965e-05
v 0.0013300840510055423 -0.001132127013988793 -5.0010159611701965e-05
v 0.0013300840510055423 -0.001132127013988793 -5.0010159611701965e-05
v 0.001277184928767383 -0.0011883267434313893 5.0010159611701965e-05
v 0.001277184928767383 -0.0011883267434313893 5.0010159611701965e-05
v 0.001277184928767383 -0.0011883267434313893 -5.0010159611701965e-05
v 0.001277184928767383 -0.0011883267434313893 -5.0010159611701965e-05
v 0.0012090866221114993 -0.0012259968789294362 5.0010159611701965e-05
v 0.0012090866221114993 -0.0012259968789294362 5.0010159611701965e-05
v 0.0012090866221114993 -0.0012259968789294362 5.0010159611701965e-05
v 0.0012090866221114993 -0.0012259968789294362 5.0010159611701965e-05
v 0.0012090866221114993 -0.0012259968789294362 -5.0010159611701965e-05
v 0.0012090866221114993 -0.0012259968789294362 -5.0010159611701965e-05
v 0.0012090866221114993 -0.0012259968789294362 -5.0010159611701965e-05
v 0.0012090866221114993 -0.0012259968789294362 -5.0010159611701965e-05
v 0.0011385743273422122 -0.0012404267909005284 5.0010159611701965e-05
v 0.0011385743273422122 -0.0012404267909005284 5.0010159611701965e-05
v 0.0011385743273422122 -0.0012404267909005284 5.0010159611701965e-05
v 0.0011385743273422122 -0.0012404267909005284 -5.0010159611701965e-05
v 0.0011385743273422122 -0.0012404267909005284 -5.0010159611701965e-05
v 0.0011385743273422122 -0.0012404267909005284 -5.0010159611701965e-05
v 0.0011385743273422122 -0.0012404267909005284 -5.0010159611701965e-05
v 0.0011385743273422122 -0.0012404267909005284 -5.0010159611701965e-05
v 0.0011385743273422122 -0.0012404267909005284 -5.0010159611701965e-05
v 0.0011246864451095462 -0.0012408458860591054 5.0010159611701965e-05
v 0.0011246864451095462 -0.0012408458860591054 5.0010159611701965e-05
v 0.0011246864451095462 -0.0012408458860591054 5.0010159611701965e-05
v 0.0011246864451095462 -0.0012408458860591054 -5.0010159611701965e-05
v 0.0011246864451095462 -0.0012408458860591054 -5.0010159611701965e-05
v 0.0011246864451095462 -0.0012408458860591054 -5.0010159611701965e-05
v 0.001049673999659717 -0.0012293366016820073 5.0010159611701965e-05
v 0.001049673999659717 -0.0012293366016820073 5.0010159611701965e-05
v 0.001049673999659717 -0.0012293366016820073 5.0010159611701965e-05
v 0.001049673999659717 -0.0012293366016820073 -5.0010159611701965e-05
v 0.001049673999659717 -0.0012293366016820073 -5.0010159611701965e-05
v 0.001049673999659717 -0.0012293366016820073 -5.0010159611701965e-05
v 0.0009837810648605227 -0.0011970960767939687 5.0010159611701965e-05
v 0.0009837810648605227 -0.0011970960767939687 5.0010159611701965e-05
v 0.0009837810648605227 -0.0011970960767939687 5.0010159611701965e-05
v 0.0009837810648605227 -0.0011970960767939687 -5.0010159611701965e-05
v 0.0009837810648605227 -0.0011970960767939687 -5.0010159611701965e-05
v 0.0009837810648605227 -0.0011970960767939687 -5.0010159611701965e-05
v 0.0009837810648605227 -0.0011970960767939687 -5.0010159611701965e-05
v 0.0009279910591430962 -0.0011445769341662526 5.0010159611701965e-05
v 0.0009279910591430962 -0.0011445769341662526 5.0010159611701965e-05
v 0.0009279910591430962 -0.0011445769341662526 5.0010159611701965e-05
v 0.0009279910591430962 -0.0011445769341662526 -5.0010159611701965e-05
v 0.0009279910591430962 -0.0011445769341662526 -5.0010159611701965e-05
v 0.0009279910591430962 -0.0011445769341662526 -5.0010159611701965e-05
v 6.697218486806378e-05 -0.00038831689744256437 -5.0010159611701965e-05
v 6.697218486806378e-05 -0.00038831689744256437 -5.0010159611701965e-05
v 6.697218486806378e-05 -0.00038831689744256437 5.0010159611701965e-05
v 6.697218486806378e-05 -0.00038831689744256437 5.0010159611701965e-05
v 6.697218486806378e-05 -0.00038831689744256437 5.0010159611701965e-05
v 6.697218486806378e-05 -0.00038831689744256437 5.0010159611701965e-05
v 6.697218486806378e-05 -0.00038831689744256437 5.0010159611701965e-05
v 4.777948561240919e-05 -0.00037257568328641355 5.0010159611701965e-05
v 4.777948561240919e-05 -0.00037257568328641355 5.0010159611701965e-05
v 4.777948561240919e-05 -0.00037257568328641355 5.0010159611701965e-05
v 4.777948561240919e-05 -0.00037257568328641355 -5.0010159611701965e-05
v 4.777948561240919e-05 -0.00037257568328641355 -5.0010159611701965e-05
v 4.777948561240919e-05 -0.00037257568328641355 -5.0010159611701965e-05
v 2.977888289024122e-05 -0.00035600559203885496 5.0010159611701965e-05
v 2.977888289024122e-05 -0.00035600559203885496 5.0010159611701965e-05
v 2.977888289024122e-05 -0.00035600559203885496 5.0010159611701965e-05
v 2.977888289024122e-05 -0.00035600559203885496 -5.0010159611701965e-05
v 2.977888289024122e-05 -0.00035600559203885496 -5.0010159611701965e-05
v 2.977888289024122e-05 -0.00035600559203885496 -5.0010159611701965e-05
v 1.5592977433698252e-05 -0.00034426533966325223 5.0010159611701965e-05
v 1.5592977433698252e-05 -0.00034426533966325223 5.0010159611701965e-05
v 1.5592977433698252e-05 -0.00034426533966325223 5.0010159611701965e-05
v 1.5592977433698252e-05 -0.00034426533966325223 -5.0010159611701965e-05
v 1.5592977433698252e-05 -0.00034426533966325223 -5.0010159611701965e-05
v 1.5592977433698252e-05 -0.00034426533966325223 -5.0010159611701965e-05
v 1.5592977433698252e-05 -0.00034426533966325223 -5.0010159611701965e-05
v 1.9733163298951695e-06 -0.00033216559677384794 5.0010159611701965e-05
v 1.9733163298951695e-06 -0.00033216559677384794 5.0010159611701965e-05
v 1.9733163298951695e-06 -0.00033216559677384794 5.0010159611701965e-05
v 1.9733163298951695e-06 -0.00033216559677384794 5.0010159611701965e-05
v 1.9733163298951695e-06 -0.00033216559677384794 5.0010159611701965e-05
v 1.9733163298951695e-06 -0.00033216559677384794 -5.0010159611701965e-05
v 1.9733163298951695e-06 -0.00033216559677384794 -5.0010159611701965e-05
v 1.9733163298951695e-06 -0.00033216559677384794 -5.0010159611701965e-05
v 1.9733163298951695e-06 -0.00033216559677384794 -5.0010159611701965e-05
v 1.9733163298951695e-06 -0.00033216559677384794 -5.0010159611701965e-05
v -9.917810530168936e-06 -0.0003454555699136108 5.0010159611701965e-05
v -9.917810530168936e-06 -0.0003454555699136108 5.0010159611701965e-05
v -9.917810530168936e-06 -0.0003454555699136108 5.0010159611701965e-05
v -9.917810530168936e-06 -0.0003454555699136108 -5.0010159611701965e-05
v -9.917810530168936e-06 -0.0003454555699136108 -5.0010159611701965e-05
v -9.917810530168936e-06 -0.0003454555699136108 -5.0010159611701965e-05
v -2.401430901954882e-05 -0.00036024683504365385 5.0010159611701965e-05
v -2.401430901954882e-05 -0.00036024683504365385 5.0010159611701965e-05
v -2.401430901954882e-05 -0.00036024683504365385 5.0010159611701965e-05
v -2.401430901954882e-05 -0.00036024683504365385 -5.0010159611701965e-05
v -2.401430901954882e-05 -0.00036024683504365385 -5.0010159611701965e-05
v -2.401430901954882e-05 -0.00036024683504365385 -5.0010159611701965e-05
v -6.192285945871845e-05 -0.0003936254361178726 -5.0010159611701965e-05
v -6.192285945871845e-05 -0.0003936254361178726 -5.0010159611701965e-05
v -6.192285945871845e-05 -0.0003936254361178726 -5.0010159611701965e-05
v -6.192285945871845e-05 -0.0003936254361178726 -5.0010159611701965e-05
v -6.192285945871845e-05 -0.0003936254361178726 -5.0010159611701965e-05
v -6.192285945871845e-05 -0.0003936254361178726 5.0010159611701965e-05
v -6.192285945871845e-05 -0.0003936254361178726 5.0010159611701965e-05
v -6.192285945871845e-05 -0.0003936254361178726 5.0010159611701965e-05
v -0.0001666184252826497 -0.0004873760917689651 -5.0010159611701965e-05
v -0.0001666184252826497 -0.0004873760917689651 -5.0010159611701965e-05
v -0.0001666184252826497 -0.0004873760917689651 -5.0010159611701965e-05
v -0.0001666184252826497 -0.0004873760917689651 -5.0010159611701965e-05
v -0.0001666184252826497 -0.0004873760917689651 -5.0010159611701965e-05
v -0.0001666184252826497 -0.0004873760917689651 -5.0010159611701965e-05
v -0.0001666184252826497 -0.0004873760917689651 5.0010159611701965e-05
v -0.0001666184252826497 -0.0004873760917689651 5.0010159611701965e-05
v -0.0001666184252826497 -0.0004873760917689651 5.0010159611701965e-05
v -0.0001666184252826497 -0.0004873760917689651 5.0010159611701965e-05
v -0.0001666184252826497 -0.0004873760917689651 5.0010159611701965e-05
v -0.0001666184252826497 -0.0004873760917689651 5.0010159611701965e-05
v -0.00022842844191472977 -0.0005428754375316203 -5.0010159611701965e-05
v -0.00022842844191472977 -0.0005428754375316203 -5.0010159611701965e-05
v -0.00022842844191472977 -0.0005428754375316203 -5.0010159611701965e-05
v -0.00022842844191472977 -0.0005428754375316203 -5.0010159611701965e-05
v -0.00022842844191472977 -0.0005428754375316203 -5.0010159611701965e-05
v -0.00022842844191472977 -0.0005428754375316203 5.0010159611701965e-05
v -0.00022842844191472977 -0.0005428754375316203 5.0010159611701965e-05
v -0.00022842844191472977 -0.0005428754375316203 5.0010159611701965e-05
v -0.00022842844191472977 -0.0005428754375316203 5.0010159611701965e-05
v -0.00022842844191472977 -0.0005428754375316203 5.0010159611701965e-05
v -0.0009506281348876655 -0.0011870769085362554 -5.0010159611701965e-05
v -0.0009506281348876655 -0.0011870769085362554 -5.0010159611701965e-05
v -0.0009506281348876655 -0.0011870769085362554 5.0010159611701965e-05
v -0.0009506281348876655 -0.0011870769085362554 5.0010159611701965e-05
v -0.0009506281348876655 -0.0011870769085362554 5.0010159611701965e-05
v -0.0009506281348876655 -0.0011870769085362554 5.0010159611701965e-05
v -0.0009597178432159126 -0.0011948255123570561 -5.0010159611701965e-05
v -0.0009597178432159126 -0.0011948255123570561 -5.0010159611701965e-05
v -0.0009597178432159126 -0.0011948255123570561 -5.0010159611701965e-05
v -0.0009597178432159126 -0.0011948255123570561 5.0010159611701965e-05
v -0.0009597178432159126 -0.0011948255123570561 5.0010159611701965e-05
v -0.0009597178432159126 -0.0011948255123570561 5.0010159611701965e-05
v -0.0009597178432159126 -0.0011948255123570561 5.0010159611701965e-05
v -0.0009597178432159126 -0.0011948255123570561 5.0010159611701965e-05
v -0.0009597178432159126 -0.0011948255123570561 5.0010159611701965e-05
v -0.0010244186269119382 -0.0012345855357125401 5.0010159611701965e-05
v -0.0010244186269119382 -0.0012345855357125401 5.0010159611701965e-05
v -0.0010244186269119382 -0.0012345855357125401 5.0010159611701965e-05
v -0.0010244186269119382 -0.0012345855357125401 -5.0010159611701965e-05
v -0.0010244186269119382 -0.0012345855357125401 -5.0010159611701965e-05
v -0.0010941262589767575 -0.0012524054618552327 5.0010159611701965e-05
v -0.0010941262589767575 -0.0012524054618552327 5.0010159611701965e-05
v -0.0010941262589767575 -0.0012524054618552327 5.0010159611701965e-05
v -0.0010941262589767575 -0.0012524054618552327 -5.0010159611701965e-05
v -0.0010941262589767575 -0.0012524054618552327 -5.0010159611701965e-05
v -0.0010941262589767575 -0.0012524054618552327 -5.0010159611701965e-05
f 1 8 10
f 1 10 12
f 12 10 16
f 12 16 20
f 20 16 21
f 20 21 24
f 24 21 28
f 24 28 30
f 30 28 37
f 30 37 40
f 40 37 44
f 40 44 46
f 46 44 48
f 46 48 53
f 53 48 56
f 53 56 59
f 59 56 61
f 59 61 63
f 65 63 67
f 67 63 61
f 69 65 73
f 73 65 67
f 76 69 78
f 78 69 73
f 82 76 85
f 85 76 78
f 90 82 92
f 92 82 85
f 100 89 109
f 108 90 92
f 115 97 123
f 124 101 105
f 127 114 129
f 132 116 121
f 138 128 143
f 143 128 133
f 148 138 149
f 149 138 143
f 148 149 154
f 148 154 155
f 155 154 158
f 155 158 163
f 163 158 166
f 163 166 169
f 169 166 171
f 169 171 174
f 174 171 180
f 174 180 181
f 181 180 184
f 181 184 185
f 185 184 187
f 185 187 190
f 190 187 198
f 190 198 206
f 206 198 207
f 206 207 210
f 210 207 215
f 210 215 218
f 218 215 220
f 218 220 224
f 224 220 226
f 224 226 230
f 233 230 235
f 235 230 226
f 233 235 240
f 233 240 243
f 243 240 244
f 243 244 248
f 248 244 251
f 248 251 253
f 253 251 257
f 253 257 264
f 258 267 262
f 262 267 269
f 274 269 279
f 279 269 267
f 282 276 290
f 288 275 278
f 297 281 300
f 299 284 287
f 305 294 307
f 307 294 302
f 315 305 320
f 320 305 307
f 315 320 322
f 315 322 325
f 325 322 329
f 325 329 333
f 333 329 334
f 333 334 341
f 341 334 344
f 341 344 345
f 345 344 349
f 345 349 352
f 352 349 354
f 352 354 356
f 356 354 361
f 356 361 365
f 365 361 369
f 365 369 375
f 375 369 379
f 375 379 381
f 381 379 385
f 381 385 387
f 387 385 390
f 387 390 392
f 392 390 395
f 392 395 401
f 402 401 405
f 405 401 395
f 409 402 411
f 411 402 405
f 414 409 416
f 416 409 411
f 421 414 423
f 423 414 416
f 428 418 434
f 433 421 423
f 442 429 447
f 449 426 431
f 453 437 460
f 460 437 443
f 462 453 465
f 465 453 460
f 467 462 472
f 472 462 465
f 476 467 482
f 482 467 472
f 476 482 484
f 476 484 485
f 485 484 489
f 485 489 492
f 492 489 493
f 492 493 498
f 498 493 502
f 498 502 503
f 503 502 508
f 503 508 510
f 510 508 513
f 510 513 516
f 516 513 519
f 516 519 523
f 523 519 527
f 523 527 530
f 530 527 535
f 530 535 538
f 538 535 540
f 538 540 543
f 543 540 548
f 543 548 552
f 552 548 555
f 552 555 556
f 559 556 564
f 564 556 555
f 559 564 568
f 559 568 571
f 571 568 573
f 571 573 576
f 576 573 580
f 576 580 584
f 584 580 586
f 584 586 594
f 590 585 597
f 590 597 598
f 598 597 601
f 598 601 604
f 609 604 614
f 614 604 601
f 619 611 623
f 626 609 614
f 631 617 636
f 632 620 622
f 638 630 642
f 642 630 634
f 643 638 650
f 650 638 642
f 643 650 652
f 643 652 656
f 656 652 658
f 656 658 661
f 661 658 8
f 661 8 1
f 439 263 270
f 468 549 557
f 64 645 62
f 436 103 261
f 260 98 119
f 261 113 254
f 254 113 249
f 400 304 314
f 136 229 126
f 126 229 231
f 126 231 113
f 117 232 242
f 118 241 247
f 466 558 461
f 461 558 560
f 461 560 454
f 560 570 454
f 451 569 577
f 452 575 582
f 454 583 436
f 438 581 591
f 436 592 103
f 95 593 600
f 96 599 605
f 551 469 478
f 550 475 545
f 544 474 539
f 637 645 64
f 637 64 70
f 637 70 629
f 102 606 608
f 99 607 87
f 91 610 615
f 88 618 81
f 80 616 628
f 83 629 75
f 77 627 71
f 655 39 645
f 645 39 47
f 156 162 199
f 211 217 135
f 134 216 222
f 139 223 228
f 410 295 404
f 403 298 306
f 403 306 399
f 440 268 272
f 441 273 427
f 430 271 283
f 425 286 422
f 420 285 293
f 419 298 413
f 415 296 408
f 537 475 533
f 532 477 487
f 528 486 491
f 19 23 33
f 212 136 203
f 205 137 147
f 202 146 157
f 382 312 374
f 372 310 327
f 490 496 529
f 531 497 505
f 533 504 524
f 522 506 512
f 521 511 515
f 47 52 645
f 644 51 58
f 645 57 62
f 161 168 200
f 204 167 177
f 201 175 192
f 191 176 182
f 191 182 186
f 353 357 363
f 380 388 311
f 313 386 394
f 311 393 399
f 655 662 39
f 42 660 2
f 41 3 32
f 31 4 13
f 29 14 18
f 326 331 376
f 373 332 339
f 376 340 364
f 366 338 347
f 364 346 351
f 553 546 470
f 424 417 303
f 265 256 444
f 266 448 280
f 209 194 141
f 66 60 54
f 653 647 38
f 125 255 250
f 255 125 106
f 259 107 445
f 450 106 455
f 208 140 214
f 621 612 106
f 104 613 603
f 234 131 237
f 239 130 125
f 238 120 246
f 245 122 252
f 130 236 227
f 130 227 141
f 34 648 45
f 110 94 624
f 625 93 86
f 621 84 635
f 574 455 579
f 578 457 587
f 588 456 112
f 589 111 596
f 595 106 602
f 424 303 435
f 432 301 291
f 435 289 450
f 446 292 277
f 383 377 321
f 318 378 370
f 317 368 323
f 142 225 219
f 144 221 213
f 646 641 68
f 66 640 74
f 72 639 633
f 74 635 79
f 79 635 84
f 470 546 479
f 480 547 541
f 481 542 536
f 458 572 567
f 459 566 565
f 554 471 562
f 561 473 463
f 563 464 455
f 160 153 194
f 196 152 150
f 193 151 145
f 534 525 479
f 479 525 488
f 479 488 483
f 417 412 303
f 303 412 407
f 303 407 309
f 308 406 397
f 309 398 321
f 316 396 391
f 319 389 384
f 362 335 371
f 367 337 328
f 371 330 324
f 183 179 188
f 189 178 173
f 188 170 194
f 197 172 165
f 195 164 159
f 66 54 648
f 651 55 50
f 649 49 43
f 25 5 34
f 35 7 659
f 36 657 654
f 514 509 517
f 518 507 499
f 520 501 525
f 526 500 494
f 525 495 488
f 355 350 360
f 358 348 342
f 359 343 336
f 22 15 25
f 26 17 11
f 27 9 6
