mtllib converted_link3_11_ffffffff.mtl
usemtl material
v 0.00019593918113969266 0.0006347134476527572 5.874076578038512e-06
v 0.00019593918113969266 0.0006347134476527572 5.874076578038512e-06
v 0.00019593918113969266 0.0006347134476527572 5.874076578038512e-06
v 0.00019593918113969266 0.0006347134476527572 5.874076578038512e-06
v 0.00019117080955766141 0.0006415121024474502 5.393514129536925e-06
v 0.00019117080955766141 0.0006415121024474502 5.393514129536925e-06
v -0.0010542086092755198 0.0013697616523131728 -0.00010314654355170205
v -0.0010542086092755198 0.0013697616523131728 -0.00010314654355170205
v -0.0010542086092755198 0.0013697616523131728 -0.00010314654355170205
v -0.0010542086092755198 0.0013697616523131728 -0.00010314654355170205
v -0.0010542086092755198 0.0013697616523131728 -0.00010314654355170205
v -0.0010542086092755198 0.0013697616523131728 -0.00010314654355170205
v -0.0010542086092755198 0.0013697616523131728 -0.00010314654355170205
v 0.0001899191120173782 0.0006531908875331283 5.162546131032286e-06
v 0.0001899191120173782 0.0006531908875331283 5.162546131032286e-06
v -0.00042263782233931124 0.0033724107779562473 -8.353661542059854e-05
v -0.00042263782233931124 0.0033724107779562473 -8.353661542059854e-05
v 0.0006255694315768778 0.002022972796112299 1.8873477529268712e-05
v 0.0006255694315768778 0.002022972796112299 1.8873477529268712e-05
v 0.0006255694315768778 0.002022972796112299 1.8873477529268712e-05
v 0.0006255694315768778 0.002022972796112299 1.8873477529268712e-05
v 0.0006255694315768778 0.002022972796112299 1.8873477529268712e-05
v -0.00041732555837370455 0.003387852106243372 -8.335593884112313e-05
v -0.00041732555837370455 0.003387852106243372 -8.335593884112313e-05
v -0.00041732555837370455 0.003387852106243372 -8.335593884112313e-05
v -0.00041732555837370455 0.003387852106243372 -8.335593884112313e-05
v 0.000644531159196049 0.002032200340181589 2.0182917069178075e-05
v 0.000644531159196049 0.002032200340181589 2.0182917069178075e-05
v 0.000644531159196049 0.002032200340181589 2.0182917069178075e-05
v 0.000644531159196049 0.002032200340181589 2.0182917069178075e-05
v 0.0019140505464747548 0.001700440770946443 0.00012472386879380792
v 0.0019140505464747548 0.001700440770946443 0.00012472386879380792
v 0.0019140505464747548 0.001700440770946443 0.00012472386879380792
v 0.0019140505464747548 0.001700440770946443 0.00012472386879380792
v 0.0020736120641231537 0.0014485031133517623 0.00014099407417234033
v 0.0020736120641231537 0.0014485031133517623 0.00014099407417234033
v 0.0020736120641231537 0.0014485031133517623 0.00014099407417234033
v 0.0020736120641231537 0.0014485031133517623 0.00014099407417234033
v 0.003248002380132675 0.002405992243438959 0.00021884332818444818
v 0.003248002380132675 0.002405992243438959 0.00021884332818444818
v 0.003248002380132675 0.002405992243438959 0.00021884332818444818
v -0.000850055308546871 -0.0025945468805730343 -2.791616861941293e-05
v -0.000850055308546871 -0.0025945468805730343 -2.791616861941293e-05
v -0.000850055308546871 -0.0025945468805730343 -2.791616861941293e-05
v -0.000850055308546871 -0.0025945468805730343 -2.791616861941293e-05
v -0.000818651111330837 -0.002539889421314001 -2.6256551791448146e-05
v -0.000818651111330837 -0.002539889421314001 -2.6256551791448146e-05
v -0.000818651111330837 -0.002539889421314001 -2.6256551791448146e-05
v -0.0022022463381290436 -0.0022727972827851772 -0.0001387864031130448
v -0.0022022463381290436 -0.0022727972827851772 -0.0001387864031130448
v -0.0022022463381290436 -0.0022727972827851772 -0.0001387864031130448
v -0.0020972304046154022 -0.001940676593221724 -0.00013550628500524908
v -0.0020972304046154022 -0.001940676593221724 -0.00013550628500524908
v -0.0020972304046154022 -0.001940676593221724 -0.00013550628500524908
v -0.0020972304046154022 -0.001940676593221724 -0.00013550628500524908
v -0.0007865763618610799 -0.0024381368421018124 -2.5297289539594203e-05
v -0.0007865763618610799 -0.0024381368421018124 -2.5297289539594203e-05
v -0.0007550455047748983 -0.0023361570201814175 -2.4347340513486415e-05
v -0.0007550455047748983 -0.0023361570201814175 -2.4347340513486415e-05
v -0.0007550455047748983 -0.0023361570201814175 -2.4347340513486415e-05
v -0.001992795616388321 -0.0016084477538242936 -0.00013228577154222876
v -0.001992795616388321 -0.0016084477538242936 -0.00013228577154222876
v -0.001992795616388321 -0.0016084477538242936 -0.00013228577154222876
v -0.0006481147720478475 -0.001989976968616247 -2.112682705046609e-05
v -0.0006481147720478475 -0.001989976968616247 -2.112682705046609e-05
v -0.0006481147720478475 -0.001989976968616247 -2.112682705046609e-05
v -0.0018878391711041331 -0.0012763269478455186 -0.00012900565343443304
v -0.0018878391711041331 -0.0012763269478455186 -0.00012900565343443304
v -0.0018878391711041331 -0.0012763269478455186 -0.00012900565343443304
v -0.0005407072021625936 -0.0016439087921753526 -1.7846708942670375e-05
v -0.0005407072021625936 -0.0016439087921753526 -1.7846708942670375e-05
v -0.0005407072021625936 -0.0016439087921753526 -1.7846708942670375e-05
v -0.0017829275457188487 -0.0009442061418667436 -0.0001257367111975327
v -0.0017829275457188487 -0.0009442061418667436 -0.0001257367111975327
v -0.0017829275457188487 -0.0009442061418667436 -0.0001257367111975327
v -0.00042501455754972994 -0.0012751385802403092 -1.4276019101089332e-05
v -0.00042501455754972994 -0.0012751385802403092 -1.4276019101089332e-05
v -0.00042501455754972994 -0.0012751385802403092 -1.4276019101089332e-05
v -0.0016790366498753428 -0.0006138772005215287 -0.0001225161977345124
v -0.0016790366498753428 -0.0006138772005215287 -0.0001225161977345124
v -0.0016790366498753428 -0.0006138772005215287 -0.0001225161977345124
v -0.0003090909740421921 -0.0009064167970791459 -1.0696015124267433e-05
v -0.0003090909740421921 -0.0009064167970791459 -1.0696015124267433e-05
v -0.0003090909740421921 -0.0009064167970791459 -1.0696015124267433e-05
v -0.0015752053586766124 -0.00028349607600830495 -0.00011929567699553445
v -0.0015752053586766124 -0.00028349607600830495 -0.00011929567699553445
v -0.0015752053586766124 -0.00028349607600830495 -0.00011929567699553445
v -0.0002550891658756882 -0.000731369131244719 -9.086689715331886e-06
v -0.0002550891658756882 -0.000731369131244719 -9.086689715331886e-06
v -0.0002550891658756882 -0.000731369131244719 -9.086689715331886e-06
v -0.0014703086344525218 4.8620997404213995e-05 -0.00011607702617766336
v -0.0014703086344525218 4.8620997404213995e-05 -0.00011607702617766336
v -0.0014703086344525218 4.8620997404213995e-05 -0.00011607702617766336
v -0.00020078933448530734 -0.0005564294988289475 -7.415896561724367e-06
v -0.00020078933448530734 -0.0005564294988289475 -7.415896561724367e-06
v -0.00020078933448530734 -0.0005564294988289475 -7.415896561724367e-06
v -0.001365337404422462 0.00038074181065894663 -0.00011279690806986764
v -0.001365337404422462 0.00038074181065894663 -0.00011279690806986764
v -0.001365337404422462 0.00038074181065894663 -0.00011279690806986764
v -0.00018027788610197604 -0.0005108282202854753 -6.5274148255412e-06
v -0.00018027788610197604 -0.0005108282202854753 -6.5274148255412e-06
v -0.00018027788610197604 -0.0005108282202854753 -6.5274148255412e-06
v -0.0012614465085789561 0.000711070722900331 -0.00010957639460684732
v -0.0012614465085789561 0.000711070722900331 -0.00010957639460684732
v -0.0012614465085789561 0.000711070722900331 -0.00010957639460684732
v -0.00016358858556486666 -0.0004972383612766862 -5.387475994211854e-06
v -0.00016358858556486666 -0.0004972383612766862 -5.387475994211854e-06
v -0.00016358858556486666 -0.0004972383612766862 -5.387475994211854e-06
v -0.00016358858556486666 -0.0004972383612766862 -5.387475994211854e-06
v -0.00016358858556486666 -0.0004972383612766862 -5.387475994211854e-06
v -0.0011576152173802257 0.0010414033895358443 -0.00010635588114382699
v -0.0011576152173802257 0.0010414033895358443 -0.00010635588114382699
v 0.0012120791943743825 0.00044863150105811656 8.836318011162803e-05
v 0.0012120791943743825 0.00044863150105811656 8.836318011162803e-05
v 0.0012120791943743825 0.00044863150105811656 8.836318011162803e-05
v 0.0012120791943743825 0.00044863150105811656 8.836318011162803e-05
v 0.0016692542703822255 -0.0007073372835293412 0.0001414727739756927
v 0.0016692542703822255 -0.0007073372835293412 0.0001414727739756927
v 0.0016692542703822255 -0.0007073372835293412 0.0001414727739756927
v 0.0015639328630641103 0.0004947021370753646 0.00011531379277585074
v 0.0015639328630641103 0.0004947021370753646 0.00011531379277585074
v 0.0015639328630641103 0.0004947021370753646 0.00011531379277585074
v 0.0020675919950008392 -0.000620798789896071 0.00017145391029771417
v 0.0020675919950008392 -0.000620798789896071 0.00017145391029771417
v 0.0020675919950008392 -0.000620798789896071 0.00017145391029771417
v 0.001863081124611199 0.0006870537763461471 0.00013587366265710443
v 0.001863081124611199 0.0006870537763461471 0.00013587366265710443
v 0.001863081124611199 0.0006870537763461471 0.00013587366265710443
v 0.002619650214910507 -0.00035322605981491506 0.0002107333712046966
v 0.002619650214910507 -0.00035322605981491506 0.0002107333712046966
v 0.002619650214910507 -0.00035322605981491506 0.0002107333712046966
v 0.00200822576880455 0.0008917920058593154 0.00014421272499021143
v 0.00200822576880455 0.0008917920058593154 0.00014421272499021143
v 0.00200822576880455 0.0008917920058593154 0.00014421272499021143
v 0.0030656717717647552 6.764232966816053e-05 0.00023946280998643488
v 0.0030656717717647552 6.764232966816053e-05 0.00023946280998643488
v 0.0030656717717647552 6.764232966816053e-05 0.00023946280998643488
v 0.0020874403417110443 0.0011299721663817763 0.00014684277994092554
v 0.0020874403417110443 0.0011299721663817763 0.00014684277994092554
v 0.0020874403417110443 0.0011299721663817763 0.00014684277994092554
v 0.0034094713628292084 0.0006801917916163802 0.00025728275068104267
v 0.0034094713628292084 0.0006801917916163802 0.00025728275068104267
v 0.0034094713628292084 0.0006801917916163802 0.00025728275068104267
v 0.002102341502904892 0.0012902527814731002 0.0001456432364648208
v 0.002102341502904892 0.0012902527814731002 0.0001456432364648208
v 0.002102341502904892 0.0012902527814731002 0.0001456432364648208
v 0.0035524629056453705 0.001367731369100511 0.00025818427093327045
v 0.0035524629056453705 0.001367731369100511 0.00025818427093327045
v 0.0035524629056453705 0.001367731369100511 0.00025818427093327045
v 0.0034994743764400482 0.0019153229659423232 0.00024584424681961536
v 0.0034994743764400482 0.0019153229659423232 0.00024584424681961536
v -0.0007400847389362752 0.002366351429373026 -9.342726116301492e-05
v -0.0007400847389362752 0.002366351429373026 -9.342726116301492e-05
v -0.0007400847389362752 0.002366351429373026 -9.342726116301492e-05
v -0.0007400847389362752 0.002366351429373026 -9.342726116301492e-05
v 0.000602562038693577 0.0019813613034784794 1.7673934053163975e-05
v 0.000602562038693577 0.0019813613034784794 1.7673934053163975e-05
v 0.000602562038693577 0.0019813613034784794 1.7673934053163975e-05
v -0.0006448961212299764 0.0026677721180021763 -9.044702892424539e-05
v -0.0006448961212299764 0.0026677721180021763 -9.044702892424539e-05
v -0.0006448961212299764 0.0026677721180021763 -9.044702892424539e-05
v 0.0006087013171054423 0.0019981139339506626 1.791421527741477e-05
v 0.0006087013171054423 0.0019981139339506626 1.791421527741477e-05
v 0.0006087013171054423 0.0019981139339506626 1.791421527741477e-05
v -0.0005497075035236776 0.0029691332019865513 -8.746679668547586e-05
v -0.0005497075035236776 0.0029691332019865513 -8.746679668547586e-05
v -0.0005497075035236776 0.0029691332019865513 -8.746679668547586e-05
v -0.00048604971379972994 0.0031707719899713993 -8.54961181175895e-05
v -0.00048604971379972994 0.0031707719899713993 -8.54961181175895e-05
v -0.0021662451326847076 -0.0024107894860208035 -0.00013389695959631354
v -0.0009253359748981893 -0.002641038503497839 -3.3107360650319606e-05
v -0.0009253359748981893 -0.002641038503497839 -3.3107360650319606e-05
v -0.0022026710212230682 -0.002371629234403372 -0.00013735589163843542
v -0.0022026710212230682 -0.002371629234403372 -0.00013735589163843542
v -0.0022026710212230682 -0.002371629234403372 -0.00013735589163843542
v -0.0022139884531497955 -0.0023406273685395718 -0.00013866719382349402
v -0.0022139884531497955 -0.0023406273685395718 -0.00013866719382349402
v -0.00013468778342939913 -0.0004928872222080827 -3.185829427820863e-06
v -0.00013468778342939913 -0.0004928872222080827 -3.185829427820863e-06
v -0.00013468778342939913 -0.0004928872222080827 -3.185829427820863e-06
v 0.00021054231910966337 0.0006273224717006087 7.123911473172484e-06
v 0.00021054231910966337 0.0006273224717006087 7.123911473172484e-06
v 0.00021054231910966337 0.0006273224717006087 7.123911473172484e-06
v -0.00010010963887907565 -0.0004971191519871354 -4.4587847014554427e-07
v -0.00010010963887907565 -0.0004971191519871354 -4.4587847014554427e-07
v -0.00010010963887907565 -0.0004971191519871354 -4.4587847014554427e-07
v -0.00010010963887907565 -0.0004971191519871354 -4.4587847014554427e-07
v 0.0002429150918032974 0.0006199911003932357 9.813570613914635e-06
v 0.0002429150918032974 0.0006199911003932357 9.813570613914635e-06
v 0.0030231736600399017 0.00263809273019433 0.0001977432839339599
v 0.0030231736600399017 0.00263809273019433 0.0001977432839339599
v 0.002755720168352127 0.0028188140131533146 0.0001740243606036529
v 0.002755720168352127 0.0028188140131533146 0.0001740243606036529
v 0.002755720168352127 0.0028188140131533146 0.0001740243606036529
v 0.00180603947956115 0.0017797223990783095 0.00011507351155159995
v 0.00180603947956115 0.0017797223990783095 0.00011507351155159995
v 0.00180603947956115 0.0017797223990783095 0.00011507351155159995
v 0.0024320147931575775 0.002955483738332987 0.00014660436136182398
v 0.0024320147931575775 0.002955483738332987 0.00014660436136182398
v 0.0024320147931575775 0.002955483738332987 0.00014660436136182398
v 0.0015919992001727223 0.00185989064630121 9.707290882943198e-05
v 0.0015919992001727223 0.00185989064630121 9.707290882943198e-05
v 0.0015919992001727223 0.00185989064630121 9.707290882943198e-05
v 0.0020915530622005463 0.00303964177146554 0.0001186442023026757
v 0.0020915530622005463 0.00303964177146554 0.0001186442023026757
v 0.0020915530622005463 0.00303964177146554 0.0001186442023026757
v 0.0006835722015239298 0.0020310119725763798 2.3284221242647618e-05
v 0.0006835722015239298 0.0020310119725763798 2.3284221242647618e-05
v 0.0006835722015239298 0.0020310119725763798 2.3284221242647618e-05
v -0.0002553797385189682 0.0034760707058012486 -7.196586375357583e-05
v -0.0002553797385189682 0.0034760707058012486 -7.196586375357583e-05
v -0.0002553797385189682 0.0034760707058012486 -7.196586375357583e-05
v -0.00033174073905684054 0.0034755305387079716 -7.79263282311149e-05
v -0.00033174073905684054 0.0034755305387079716 -7.79263282311149e-05
v -0.00033174073905684054 0.0034755305387079716 -7.79263282311149e-05
v -0.0003777480742428452 0.003450381103903055 -8.120644633891061e-05
v 0.0001989194133784622 0.0006900302832946181 5.283618065732298e-06
v 0.0001989194133784622 0.0006900302832946181 5.283618065732298e-06
v 0.0003083013871219009 0.001039730734191835 8.614027137809899e-06
v 0.0003083013871219009 0.001039730734191835 8.614027137809899e-06
v 0.0003083013871219009 0.001039730734191835 8.614027137809899e-06
v -0.0009507275535725057 0.0016981236403807998 -9.992603008868173e-05
v -0.0009507275535725057 0.0016981236403807998 -9.992603008868173e-05
v -0.0009507275535725057 0.0016981236403807998 -9.992603008868173e-05
v 0.0004177355149295181 0.0013894311850890517 1.2013354535156395e-05
v 0.0004177355149295181 0.0013894311850890517 1.2013354535156395e-05
v 0.0004177355149295181 0.0013894311850890517 1.2013354535156395e-05
v 0.0005100630805827677 0.0016854204004630446 1.4812910194450524e-05
v 0.0005100630805827677 0.0016854204004630446 1.4812910194450524e-05
v 0.0004703589656855911 0.0005776718026027083 2.8283560823183507e-05
v 0.0004703589656855911 0.0005776718026027083 2.8283560823183507e-05
v 0.0004703589656855911 0.0005776718026027083 2.8283560823183507e-05
v 0.00045868390589021146 -0.0006013080710545182 4.497286136029288e-05
v 0.00045868390589021146 -0.0006013080710545182 4.497286136029288e-05
v 0.00045868390589021146 -0.0006013080710545182 4.497286136029288e-05
v 0.0007230900810100138 0.0005308225518092513 4.8793146561365575e-05
v 0.0007230900810100138 0.0005308225518092513 4.8793146561365575e-05
v 0.0007230900810100138 0.0005308225518092513 4.8793146561365575e-05
v 0.0010189005406573415 -0.0006982773775234818 9.033385867951438e-05
v 0.0010189005406573415 -0.0006982773775234818 9.033385867951438e-05
v 0.0010189005406573415 -0.0006982773775234818 9.033385867951438e-05
v 0.0009541698382236063 0.00048654378042556345 6.756302173016593e-05
v 0.0009541698382236063 0.00048654378042556345 6.756302173016593e-05
v 0.0009541698382236063 0.00048654378042556345 6.756302173016593e-05
v 0.0011405610712245107 -0.0007132493192330003 0.0001001127457129769
v 0.0011405610712245107 -0.0007132493192330003 0.0001001127457129769
v 0.0011405610712245107 -0.0007132493192330003 0.0001001127457129769
v 0.001262392965145409 -0.0007220074767246842 0.00010982271487591788
v 0.001262392965145409 -0.0007220074767246842 0.00010982271487591788
f 1 5 12
f 13 6 14
f 17 21 23
f 26 18 30
f 34 38 40
f 42 46 50
f 51 48 52
f 47 57 53
f 55 56 58
f 54 59 61
f 62 60 66
f 63 64 67
f 68 65 71
f 69 72 73
f 74 70 78
f 75 77 79
f 81 76 84
f 80 82 87
f 86 83 90
f 85 89 92
f 93 88 96
f 91 94 97
f 98 95 100
f 99 102 103
f 105 101 110
f 104 109 111
f 112 107 11
f 115 119 120
f 121 118 124
f 122 125 126
f 127 123 129
f 128 130 133
f 132 131 135
f 134 136 138
f 140 137 141
f 139 142 144
f 146 143 149
f 145 148 37
f 36 147 151
f 35 150 41
f 153 157 160
f 159 156 164
f 161 163 165
f 166 162 19
f 167 20 168
f 169 22 16
f 170 171 174
f 175 172 44
f 173 45 177
f 176 43 49
f 7 106 3
f 2 108 180
f 4 179 183
f 181 178 184
f 182 187 189
f 39 191 33
f 32 190 192
f 31 193 196
f 195 194 200
f 197 198 201
f 202 199 205
f 203 206 207
f 208 204 210
f 209 211 29
f 28 212 215
f 27 214 25
f 24 213 216
f 15 217 8
f 9 218 220
f 10 219 223
f 222 221 225
f 224 226 154
f 152 227 228
f 155 229 158
f 188 185 230
f 231 186 233
f 232 234 238
f 236 235 240
f 237 241 242
f 243 239 245
f 244 246 113
f 114 247 248
f 116 249 117
