mtllib converted_link7_969696ff.mtl
usemtl material
v 0.0015970456879585981 0.013451184146106243 -0.044529855251312256
v 0.0016366431955248117 -0.011938227340579033 -0.045068562030792236
v 0.0008179704891517758 -0.010867181234061718 -0.0492941178381443
v 0.0007814353448338807 0.012557781301438808 -0.04879710078239441
v -0.00024477372062392533 -0.009037205949425697 -0.05476654693484306
v -0.00027596100699156523 0.010958272032439709 -0.054342299699783325
v 0.002475493121892214 0.014692449942231178 -0.036158524453639984
v 0.0030477496329694986 0.015343914739787579 -0.030710749328136444
v 0.0030941572040319443 -0.014410863630473614 -0.03134206682443619
v 0.0038380648475140333 0.016276922076940536 -0.023185910657048225
v 0.0038878736086189747 -0.015659745782613754 -0.02386353351175785
v 0.002519509755074978 -0.013530711643397808 -0.03675735741853714
v 0.0019463136559352279 -0.012551522813737392 -0.04215533658862114
v 0.0019049934344366193 0.013941321521997452 -0.04159322753548622
v 0.01124012190848589 0.0274747833609581 0.01661427691578865
v 0.011335363611578941 0.026964617893099785 0.017094559967517853
v 0.010389959439635277 0.027567198500037193 0.012196279130876064
v 0.011364053934812546 0.008568785153329372 0.016704237088561058
v 0.0097988685593009 0.025900650769472122 0.009073827415704727
v 0.011270372197031975 0.008079169318079948 0.01620274968445301
v 0.008475725539028645 0.022734129801392555 0.0021008288022130728
v 0.010986985638737679 0.008109978400170803 0.014730088412761688
v 0.007050208747386932 0.02008971944451332 -0.005389184691011906
v 0.011203508824110031 -0.009606553241610527 0.015336394309997559
v 0.01123220007866621 -0.02800239995121956 0.014946079812943935
v 0.01113851647824049 -0.028492016717791557 0.014444584026932716
v 0.009880789555609226 -0.026624508202075958 0.00795937329530716
v 0.00854731909930706 -0.02316921018064022 0.0011268765665590763
v 0.011013804003596306 -0.009086143225431442 0.014365221373736858
v 0.010477280244231224 -0.028420137241482735 0.011008369736373425
v 0.011108268052339554 -0.009096403606235981 0.014856118708848953
v 0.004531956277787685 -0.01650196872651577 -0.019556831568479538
v 0.004479800350964069 0.016937723383307457 -0.018847333267331123
v 0.005723284557461739 -0.01798848994076252 -0.013405711390078068
v 0.005666899029165506 0.018165698274970055 -0.012638597749173641
v 0.007113066501915455 -0.020213952288031578 -0.006244336720556021
v 0.004253456834703684 -0.016178008168935776 -0.021127311512827873
v 0.004202210810035467 0.01667979545891285 -0.020430145785212517
v -0.0038271581288427114 -0.007950116880238056 -0.040267463773489
v 0.005895722191780806 -0.009006991982460022 0.010258959606289864
v -0.0038539795204997063 0.00924599077552557 -0.03990261256694794
v 0.005868901032954454 0.008189115673303604 0.010623810812830925
v -0.002915898570790887 -0.011384823359549046 -0.019744176417589188
v 0.002387654036283493 -0.0119613166898489 0.007816539146006107
v 0.003731566248461604 -0.011750232428312302 0.008731693960726261
v -0.0037983348593115807 -0.008393721655011177 -0.039961107075214386
v -0.003764428896829486 -0.008616901002824306 -0.03958093002438545
v -0.0038270745426416397 -0.007969234138727188 -0.04026726633310318
v -0.003808719338849187 -0.008301998488605022 -0.040074821561574936
v -0.0038229150231927633 -0.008114629425108433 -0.04022657871246338
v -0.0037142913788557053 -0.00886361114680767 -0.03899788483977318
v -0.003694061655551195 -0.00894977804273367 -0.03875577077269554
v 0.005829136818647385 -0.009591272100806236 0.010200828313827515
v -0.0036019536200910807 -0.009293452836573124 -0.037600237876176834
v 0.005630119703710079 -0.010151359252631664 0.010053529404103756
v -0.0035040758084505796 -0.00961210671812296 -0.03626371547579765
v -0.0034050624817609787 -0.00991158839315176 -0.034770410507917404
v -0.003308569546788931 -0.010193153284490108 -0.03313659131526947
v 0.004870169330388308 -0.011114653199911118 0.009517223574221134
v -0.003217636374756694 -0.010455726645886898 -0.0313744992017746
v -0.003134836908429861 -0.010696723125874996 -0.02949375845491886
v -0.0030235834419727325 -0.011031187139451504 -0.026217646896839142
v -0.0029516369104385376 -0.011261571198701859 -0.022957559674978256
v -0.0042837816290557384 -0.011602013371884823 -0.00960861798375845
v -0.0033699979539960623 -0.01146551501005888 -0.01597445085644722
v -0.005383622832596302 -0.01174031663686037 -0.003170633688569069
v -0.00666391896083951 -0.011880029924213886 0.003319523064419627
v -0.008124485611915588 -0.012020605616271496 0.009838166646659374
v -0.008364818058907986 -0.011999662965536118 0.010327974334359169
v -0.008639563806355 -0.011897051706910133 0.010883093811571598
v -0.008896575309336185 -0.011718938127160072 0.011397975496947765
v -0.009137799963355064 -0.011465674266219139 0.011877705343067646
v -0.00933233555406332 -0.011181590147316456 0.012262463569641113
v -0.009514196775853634 -0.010819931514561176 0.012621074914932251
v -0.009650694206357002 -0.010443747974932194 0.012890365906059742
v -0.009757351130247116 -0.010013734921813011 0.013102223165333271
v -0.00982301589101553 -0.009557337500154972 0.013235685415565968
v -0.009845106862485409 -0.009095771238207817 0.013286135159432888
v 0.004836734384298325 0.010323128663003445 0.009972084313631058
v 0.005395944695919752 0.009694796986877918 0.010336940176784992
v -0.009242394007742405 0.010430525057017803 0.012480104342103004
v -0.00987192802131176 0.008100336417555809 0.013650987297296524
v -0.009859548881649971 0.008461153134703636 0.013634023256599903
v -0.009852061048150063 0.008554999716579914 0.013621492311358452
v -0.009301183745265007 0.010339191183447838 0.012593148276209831
v -0.009790021926164627 0.009009627625346184 0.013511578552424908
v -0.009687055833637714 0.009446283802390099 0.013322624377906322
v 0.005800491664558649 0.008775115013122559 0.01059051789343357
v -0.00964589137583971 0.009580262005329132 0.013246090151369572
v -0.009490570053458214 0.009981796145439148 0.01295420154929161
v 0.004094945732504129 0.010815905407071114 0.009480517357587814
v -0.009011449292302132 0.010723493061959743 0.012032018974423409
v -0.008758959360420704 0.01094855461269617 0.011535212397575378
v -0.008438723161816597 0.011119227856397629 0.01089510414749384
v -0.008160661906003952 0.01117414515465498 0.010330302640795708
v 0.002351478673517704 0.01123343501240015 0.008308674208819866
v -0.008711221627891064 0.010981671512126923 0.01144049409776926
v 0.0036961049772799015 0.010987904854118824 0.00921415165066719
v -0.003793560666963458 0.011668105609714985 -0.012629551813006401
v -0.0029520741663873196 0.01180992741137743 -0.01925204135477543
v -0.004854290280491114 0.01152287982404232 -0.0058631389401853085
v -0.007553334813565016 0.01123055350035429 0.007715919520705938
v -0.006115776486694813 0.011376218870282173 0.0009564274805597961
v -0.0029582399874925613 0.01182396337389946 -0.020101463422179222
v -0.003409737255424261 0.011037291027605534 -0.03386852145195007
v -0.0032518343068659306 0.011373733170330524 -0.030914511531591415
v -0.00312148523516953 0.011624302715063095 -0.027735117822885513
v -0.00302667124196887 0.011779161170125008 -0.02445346489548683
v -0.00300164264626801 0.011810027062892914 -0.02326182834804058
v -0.003551936475560069 0.010696519166231155 -0.03606473281979561
v -0.003629120299592614 0.010486345738172531 -0.0371318943798542
v -0.0037245487328618765 0.010178668424487114 -0.03835790604352951
v -0.003783594584092498 0.009932123124599457 -0.03907361254096031
v -0.0038050042930990458 0.009818760678172112 -0.03932642564177513
v -0.0038316636346280575 0.00963454507291317 -0.039637550711631775
v -0.0038386783562600613 0.009568867273628712 -0.0397191159427166
v -0.003849292639642954 0.00942750833928585 -0.039843425154685974
v -0.003851676592603326 0.009375019930303097 -0.03987201303243637
v 0.003585744183510542 -0.007546176202595234 0.010734017007052898
v 0.004052265547215939 -0.0070678167976439 0.010654250159859657
v 0.004222283139824867 -0.006416996009647846 0.010635146871209145
v -0.004288889467716217 0.004406801890581846 0.012499370612204075
v 0.0022869345266371965 0.006695070769637823 0.011281839571893215
v 0.0018204122316092253 0.006216711364686489 0.011361602693796158
v 0.002290445612743497 0.004443909972906113 0.011234074831008911
v -0.00380365620367229 -0.007112124934792519 0.012165050953626633
v -0.0036336397752165794 -0.006461303681135178 0.01214594766497612
v 0.0029477227944880724 -0.007723908871412277 0.01085307914763689
v 0.00230915704742074 -0.007553376257419586 0.01097952201962471
v 0.0018224407685920596 0.00491699855774641 0.01133403368294239
v 0.0016503965016454458 0.005565890576690435 0.011380709707736969
v -0.004926910623908043 0.004229068756103516 0.012618432752788067
v -0.0055654761381447315 0.004399601835757494 0.012744875624775887
v -0.0038056811317801476 -0.0058124130591750145 0.012192638590931892
v -0.006033481098711491 0.004872690420597792 0.012844834476709366
v -0.004273689351975918 -0.005339323543012142 0.01229257881641388
v -0.006205525249242783 0.005521582439541817 0.012891510501503944
v -0.00427017780020833 -0.007590483874082565 0.012244817800819874
v 0.0016691080527380109 -0.0064313956536352634 0.011126156896352768
v 0.0040502408519387245 -0.005768104922026396 0.010681837797164917
v 0.002929011359810829 0.004273376893252134 0.011107631959021091
v 0.003567032516002655 0.004451110027730465 0.0109885698184371
v 0.004033554811030626 0.004929469432681799 0.010908806696534157
v 0.00420357147231698 0.00558029068633914 0.010889699682593346
v -0.0049309637397527695 0.006828479468822479 0.012673589400947094
v 0.0035822323989123106 -0.0052950154058635235 0.010781778022646904
v 0.002943669445812702 -0.005124498624354601 0.010908235795795918
v 0.002305645262822509 -0.005302215460687876 0.011027283035218716
v 0.0018391265766695142 -0.005780575796961784 0.01110706478357315
v -0.006014770362526178 -0.007124595809727907 0.012590277940034866
v -0.005546764936298132 -0.007597683928906918 0.012490322813391685
v -0.004908198956400156 -0.007768217008560896 0.012363879941403866
v 0.0018411515047773719 -0.0070802876725792885 0.011079477146267891
v 0.004031526390463114 0.006229182239621878 0.010936375707387924
v 0.0035635216627269983 0.006702270824462175 0.011036334559321404
v 0.002924958011135459 0.006872787605971098 0.011162788607180119
v -0.005568987224251032 0.006650762632489204 0.01279264036566019
v -0.006035509519279003 0.006172403693199158 0.012872403487563133
v -0.003822366939857602 0.00488516129553318 0.012419607490301132
v -0.0036523512098938227 0.005535982549190521 0.012400500476360321
v -0.0038243953604251146 0.006184874568134546 0.0124471765011549
v -0.00429240008816123 0.006657962687313557 0.012547135353088379
v -0.00491225253790617 -0.00516880676150322 0.012419036589562893
v -0.00555027648806572 -0.0053465235978364944 0.012538083828985691
v -0.00601679552346468 -0.005824883934110403 0.012617865577340126
v -0.006186814047396183 -0.006475703790783882 0.012636957690119743
v -0.003889425192028284 0.009252937510609627 -0.04023261368274689
v -0.0038626038003712893 -0.007943170145154 -0.04059746488928795
v -0.0038837126921862364 0.009250602684915066 -0.040122006088495255
v -0.0038568940944969654 -0.007945503108203411 -0.04048687219619751
v -0.0038718851283192635 0.00924829114228487 -0.04001189395785332
v -0.0038450665306299925 -0.007947815582156181 -0.040376756340265274
v -0.0038568307645618916 -0.007973115891218185 -0.04048684611916542
v -0.0038449973799288273 -0.007971180602908134 -0.04037664458155632
v -0.003833916736766696 -0.009587767533957958 -0.03910595551133156
v -0.0038224351592361927 -0.009249457158148289 -0.03922758623957634
v -0.0038369442336261272 -0.009447586722671986 -0.039346106350421906
v -0.003836078569293022 -0.008900444954633713 -0.039807695895433426
v -0.0038464239332824945 -0.009044637903571129 -0.03992351517081261
v -0.0038466842379420996 -0.008582616224884987 -0.04018523544073105
v -0.0038544076960533857 -0.00867808423936367 -0.04029889032244682
v -0.003850166453048587 -0.008451436646282673 -0.04029788449406624
v -0.0038571255281567574 -0.008526823483407497 -0.04041077196598053
v -0.0038551785983145237 -0.008182571269571781 -0.04044761881232262
v -0.003861134871840477 -0.008216752670705318 -0.040559135377407074
v -0.0038625404704362154 -0.00797504372894764 -0.04059753939509392
v -0.003827369539067149 -0.010008187964558601 -0.03826715797185898
v -0.0038013423327356577 -0.009850848466157913 -0.03783443570137024
v -0.003817632794380188 -0.009370720013976097 -0.0389864556491375
v -0.0038264815229922533 -0.010144293308258057 -0.037957850843667984
v -0.0038316790014505386 -0.010656625032424927 -0.03662678971886635
v -0.0037955071311444044 -0.010290216654539108 -0.03650016337633133
v -0.0038540945388376713 -0.011134868487715721 -0.0351363830268383
v -0.00380455213598907 -0.010696840472519398 -0.03500763326883316
v -0.003897696267813444 -0.011581351980566978 -0.033502381294965744
v -0.0038322077598422766 -0.011071950197219849 -0.03337305411696434
v -0.003965948708355427 -0.011994456872344017 -0.0317365936934948
v -0.003881614189594984 -0.011413227766752243 -0.031608663499355316
v -0.004061875864863396 -0.01237005926668644 -0.029848234727978706
v -0.003955398220568895 -0.011716135777533054 -0.0297242421656847
v -0.004077874589711428 -0.012419956736266613 -0.02957100048661232
v -0.004131800960749388 -0.012107960879802704 -0.02644018642604351
v -0.004282456357032061 -0.012882247567176819 -0.02655067853629589
v -0.004564907401800156 -0.013221371918916702 -0.02325991913676262
v -0.004361957311630249 -0.012332175858318806 -0.023172875866293907
v -0.004900486208498478 -0.01338277105242014 -0.02000802755355835
v -0.004635742399841547 -0.012383213266730309 -0.019957149401307106
v -0.003842422738671303 -0.0081484941765666 -0.04033663496375084
v -0.0038340056780725718 -0.008376378566026688 -0.04018572345376015
v -0.0038279586005955935 -0.008487656712532043 -0.04007242992520332
v -0.0038086692802608013 -0.008757446892559528 -0.03969318047165871
v -0.003781369188800454 -0.009053932502865791 -0.039110999554395676
v -0.003770774696022272 -0.00915695633739233 -0.03886913135647774
v -0.0037258577067404985 -0.00956480111926794 -0.03771420568227768
v -0.0036849076859652996 -0.009937590919435024 -0.03637758269906044
v -0.003652198938652873 -0.010281789116561413 -0.034883465617895126
v -0.0036311328876763582 -0.010598139837384224 -0.033248208463191986
v -0.0036244355142116547 -0.01088439766317606 -0.03148422762751579
v -0.00363422860391438 -0.01113640982657671 -0.02960144728422165
v -0.003688753815367818 -0.011456499807536602 -0.02632298320531845
v -0.003783752676099539 -0.011629768647253513 -0.02306450344622135
v -0.0039093331433832645 -0.011651907116174698 -0.01986056938767433
v -0.004940538201481104 -0.01339039858430624 -0.019651351496577263
v -0.005086191929876804 -0.012463252060115337 -0.016217760741710663
v -0.004361326806247234 -0.011732233688235283 -0.01610836759209633
v -0.005350370891392231 -0.013462718576192856 -0.016273334622383118
v -0.006256348919123411 -0.013598033227026463 -0.009961933828890324
v -0.00599321536719799 -0.012598734349012375 -0.009899066761136055
v -0.0064594135619699955 -0.013625264167785645 -0.008693586103618145
v -0.0070855035446584225 -0.012736103497445583 -0.003505344968289137
v -0.007347464095801115 -0.013735257089138031 -0.003575048176571727
v -0.008357291109859943 -0.012874881736934185 0.002941675251349807
v -0.008615448139607906 -0.013873632065951824 0.002853452693670988
v -0.008617937564849854 -0.013873891904950142 0.002865294460207224
v -0.010067054070532322 -0.01401336770504713 0.009332847781479359
v -0.009807941503822803 -0.013014513999223709 0.009416073560714722
v -0.005271207075566053 -0.011868133209645748 -0.009769750759005547
v -0.006366684101521969 -0.01200590468943119 -0.0033573086839169264
v -0.007642070762813091 -0.012145070359110832 0.0031079340260475874
v -0.009096912108361721 -0.012285103090107441 0.009601032361388206
v -0.010251113213598728 -0.01397711131721735 0.010101544670760632
v -0.00998132023960352 -0.01301886048167944 0.010056042112410069
v -0.009295825846493244 -0.01230024453252554 0.01013832539319992
v -0.010462377220392227 -0.013804543763399124 0.01097243744879961
v -0.010181484743952751 -0.012913333252072334 0.010791289620101452
v -0.010660815984010696 -0.013506262563169003 0.011779905296862125
v -0.010370448231697083 -0.012697705067694187 0.0114815728738904
v -0.010847790166735649 -0.013082828372716904 0.012531982734799385
v -0.01054919883608818 -0.012372015975415707 0.01213117130100727
v -0.010999097488820553 -0.012608252465724945 0.013135088607668877
v -0.010694283992052078 -0.011994931846857071 0.012656251899898052
v -0.01114101056009531 -0.012004483491182327 0.01369714830070734
v -0.010830658487975597 -0.011505251750349998 0.013148661702871323
v -0.011247876100242138 -0.011376779526472092 0.014119278639554977
v -0.010933506302535534 -0.010989073663949966 0.013520203530788422
v -0.011331689544022083 -0.010659501887857914 0.01445156428962946
v -0.011014232411980629 -0.010393803007900715 0.013813533820211887
v -0.011383607983589172 -0.009898458607494831 0.014661258086562157
v -0.011064218357205391 -0.0097584817558527 0.01399878691881895
v -0.011401508003473282 -0.009129075333476067 0.014741146005690098
v -0.011081359349191189 -0.009114312008023262 0.01406892854720354
v -0.009524260647594929 -0.01222556084394455 0.010759066790342331
v -0.009738831780850887 -0.012057837098836899 0.011344850063323975
v -0.00994092971086502 -0.011796762235462666 0.011898426339030266
v -0.010104363784193993 -0.011489986442029476 0.012347416020929813
v -0.010257513262331486 -0.011087914928793907 0.012769556604325771
v -0.010372696444392204 -0.010661465115845203 0.013088707812130451
v -0.010462875477969646 -0.01016764435917139 0.013340975157916546
v -0.010518534108996391 -0.009639200754463673 0.013500310480594635
v -0.010537420399487019 -0.00910266861319542 0.013560419902205467
v -0.011428330093622208 0.008067033253610134 0.015105998143553734
v -0.011108177714049816 0.00808179471641779 0.014433794654905796
v -0.01056423969566822 0.008093438111245632 0.013925283215939999
v -0.011419152840971947 0.008668323047459126 0.015080273151397705
v -0.011099189519882202 0.008585410192608833 0.014410282485187054
v -0.010553962551057339 0.008512981235980988 0.013904685154557228
v -0.011413431726396084 0.008824712596833706 0.01506088301539421
v -0.011093633249402046 0.008716304786503315 0.014392880722880363
v -0.011365605518221855 0.00958204548805952 0.014889979735016823
v -0.011047287844121456 0.009349066764116287 0.014240355230867863
v -0.011285864748060703 0.010309243574738503 0.014595416374504566
v -0.01097018737345934 0.009953493252396584 0.013978716917335987
v -0.011253956705331802 0.01053231954574585 0.014475992880761623
v -0.010939370840787888 0.01013796404004097 0.013872942887246609
v -0.011133573018014431 0.011200678534805775 0.014020122587680817
v -0.0108232656493783 0.01068680826574564 0.013470575213432312
v -0.010986915789544582 0.011795264668762684 0.013455708511173725
v -0.010682149790227413 0.011167912743985653 0.012975410558283329
v -0.010941431857645512 0.011947164312005043 0.013278897851705551
v -0.010638464242219925 0.011289245449006557 0.012820974923670292
v -0.01076300349086523 0.012434164062142372 0.012577643617987633
v -0.010467438027262688 0.011671380139887333 0.012211865745484829
v -0.010568403638899326 0.012807841412723064 0.011799510568380356
v -0.010281645692884922 0.011952415108680725 0.01154262199997902
v -0.010531670413911343 0.01286277361214161 0.011651082895696163
v -0.010246668942272663 0.0119920140132308 0.011415817774832249
v -0.01032236311584711 0.013090509921312332 0.010796035639941692
v -0.010048018768429756 0.012144684791564941 0.010690909810364246
v -0.010109464637935162 0.013180477544665337 0.00990984495729208
v -0.009847232140600681 0.01217979658395052 0.009950648993253708
v -0.010547686368227005 0.0086220046505332 0.013889585621654987
v -0.010495536029338837 0.009148599579930305 0.013757654465734959
v -0.010408880189061165 0.009650517255067825 0.013531859964132309
v -0.010374238714575768 0.009803383611142635 0.013440713286399841
v -0.010243604891002178 0.010256772860884666 0.013094506226480007
v -0.010084525682032108 0.010651704855263233 0.012669614516198635
v -0.010035199113190174 0.010750743560492992 0.012537357397377491
v -0.009841715916991234 0.011060264892876148 0.01201695017516613
v -0.009630766697227955 0.011283593252301216 0.011447553522884846
v -0.009590961039066315 0.01131446287035942 0.011339963413774967
v -0.009364242665469646 0.011429094709455967 0.01072688214480877
v -0.00913392286747694 0.011445428244769573 0.01010453887283802
v -0.009506981819868088 0.013236446306109428 0.007316286675632
v -0.008529017679393291 0.011501609347760677 0.0075005702674388885
v -0.0092441001906991 0.012235816568136215 0.007354299537837505
v -0.007816138677299023 0.012380513362586498 0.0006399477133527398
v -0.00865786150097847 0.013320214115083218 0.003430435433983803
v -0.008080506697297096 0.01338098756968975 0.0006089070229791105
v -0.006828797981142998 0.013526512309908867 -0.006157792638987303
v -0.006563120987266302 0.012526179663836956 -0.006133838556706905
v -0.006501826923340559 0.013568582013249397 -0.008116602897644043
v -0.005509929731488228 0.012670368887484074 -0.012852097861468792
v -0.005776770878583193 0.01367053110152483 -0.012868591584265232
v -0.004675036761909723 0.01281108520925045 -0.019422588869929314
v -0.004982949234545231 0.013803445734083652 -0.01907435618340969
v -0.004942896775901318 0.013811073265969753 -0.01943103037774563
v -0.0070970007218420506 0.011646720580756664 0.0007671348284929991
v -0.005840402562171221 0.011792805977165699 -0.006025996524840593
v -0.004784025251865387 0.01193743571639061 -0.012764601968228817
v -0.00394634623080492 0.012078612111508846 -0.019357075914740562
v -0.004848877899348736 0.013822845183312893 -0.020291516557335854
v -0.004598586820065975 0.012851250357925892 -0.020270755514502525
v -0.003910640720278025 0.012123913504183292 -0.020201604813337326
v -0.004532665014266968 0.01375633105635643 -0.02349000982940197
v -0.004340603947639465 0.012892147526144981 -0.02343280427157879
v -0.004427642095834017 0.013688535429537296 -0.02469465881586075
v -0.004255011677742004 0.012865670025348663 -0.024626877158880234
v -0.0041808318346738815 0.013385321944952011 -0.02800786681473255
v -0.004055770114064217 0.01267946232110262 -0.027917977422475815
v -0.0041178022511303425 0.013257027603685856 -0.029028257355093956
v -0.003918551839888096 0.012338117696344852 -0.031107909977436066
v -0.004004667047411203 0.012923847883939743 -0.031211072579026222
v -0.0039010823238641024 0.012322228401899338 -0.034180525690317154
v -0.003845798084512353 0.011858809739351273 -0.034071002155542374
v -0.0038645355962216854 0.011723781004548073 -0.03638375550508499
v -0.0038292165845632553 0.011364295147359371 -0.03627273440361023
v -0.003859986085444689 0.011358649469912052 -0.03745303675532341
v -0.003833530470728874 0.011057451367378235 -0.03734215721487999
v -0.0038604740984737873 0.011217051185667515 -0.037817589938640594
v -0.003848936641588807 0.010607535019516945 -0.03857055678963661
v -0.0038658438716083765 0.010828806087374687 -0.03868073225021362
v -0.003874820424243808 0.01040792465209961 -0.03939751908183098
v -0.0038631889037787914 0.010247264057397842 -0.03928784653544426
v -0.003878947114571929 0.010215481743216515 -0.039650917053222656
v -0.0038691319059580564 0.010081872344017029 -0.039541374891996384
v -0.0038846400566399097 0.009904120117425919 -0.03996329382061958
v -0.003877031384035945 0.009813634678721428 -0.03985374793410301
v -0.003886215155944228 0.009793558157980442 -0.04004541039466858
v -0.0038791829720139503 0.009718197397887707 -0.03993579372763634
v -0.003888598410412669 0.00955624133348465 -0.04017113521695137
v -0.003882448188960552 0.00951311830431223 -0.04006123170256615
v -0.003889101790264249 0.009468371979892254 -0.04020032286643982
v -0.003883156692609191 0.009437104687094688 -0.04009024798870087
v -0.0037944449577480555 0.012197848409414291 -0.023351402953267097
v -0.003758589969947934 0.012189098633825779 -0.024541420862078667
v -0.0036865947768092155 0.012065774761140347 -0.027822915464639664
v -0.003659820184111595 0.011805374175310135 -0.031005987897515297
v -0.0036788182333111763 0.011422131210565567 -0.033964965492486954
v -0.003723760601133108 0.011017760261893272 -0.036165107041597366
v -0.0037559042684733868 0.010764144361019135 -0.03723417595028877
v -0.0038015965837985277 0.010389710776507854 -0.03846239671111107
v -0.0038326862268149853 0.010088147595524788 -0.03917954862117767
v -0.003844422986730933 0.009949312545359135 -0.03943294286727905
v -0.0038593453355133533 0.009723623283207417 -0.03974499553442001
v -0.00386331370100379 0.009643198922276497 -0.03982686996459961
v -0.003869330044835806 0.009470157325267792 -0.039951860904693604
v -0.0038706674240529537 0.009405943565070629 -0.0399806909263134
v -0.011513914912939072 0.017459090799093246 0.015574396587908268
v -0.011457781307399273 -0.01853276789188385 0.014810734428465366
v -0.011611766181886196 0.017444845288991928 0.016238372772932053
v -0.011555631645023823 -0.018547000363469124 0.015474715270102024
v -0.011559492908418179 0.017430733889341354 0.016907470300793648
v -0.011503358371555805 -0.018561124801635742 0.016143811866641045
v -0.0002100292476825416 0.013049629516899586 0.012913825921714306
v 0.00023854909522924572 0.013509581796824932 0.012837126851081848
v -0.0008254619897343218 0.014128454960882664 0.013054813258349895
v 0.00040202561649493873 0.014135378412902355 0.01281875092536211
v 0.0002365978725720197 0.014759303070604801 0.01286363136023283
v -0.0018875220557674766 0.013497591018676758 0.01324599888175726
v -0.0014375168830156326 0.013042706064879894 0.013149888254702091
v -0.0008235129062086344 0.012878735549747944 0.013028297573328018
v -0.0014408949064090848 0.015207280404865742 0.013195804320275784
v -0.0018894732929766178 0.014747311361134052 0.013272504322230816
v -0.0020529504399746656 0.014121531508862972 0.013290876522660255
v -0.0002134073292836547 0.015214203856885433 0.012959741987287998
v -0.0008274104329757392 0.015378172509372234 0.013081332668662071
v -0.0013953623129054904 -0.013986114412546158 0.012576400302350521
v -0.0018439412815496325 -0.014446082524955273 0.01265309564769268
v -0.0007799292798154056 -0.015064939856529236 0.012435408309102058
v -0.0020074178464710712 -0.015071863308548927 0.012671471573412418
v -0.0018419921398162842 -0.015695801004767418 0.012626579962670803
v 0.0002821298548951745 -0.014434090815484524 0.012244222685694695
v -0.0001678746339166537 -0.013979190960526466 0.012340337038040161
v -0.0007818805170245469 -0.013815219514071941 0.012461913749575615
v -0.00016449937538709491 -0.016143763437867165 0.01229440700262785
v 0.0002840789675246924 -0.01568380929529667 0.012217707000672817
v 0.00044755832641385496 -0.015058017335832119 0.012199345976114273
v -0.0013919869670644403 -0.016150686889886856 0.012530469335615635
v -0.0007779801962897182 -0.016314657405018806 0.012408892624080181
v -0.005242187529802322 -0.006578380241990089 0.017545850947499275
v -0.00507014524191618 -0.00722727132961154 0.0174991637468338
v -0.004602139815688133 -0.00770035944879055 0.01739921048283577
v -0.003963574767112732 -0.007870892062783241 0.017272762954235077
v -0.003325552912428975 -0.007693159393966198 0.017153704538941383
v -0.002859031315892935 -0.007214800454676151 0.017073936760425568
v -0.0026890134904533625 -0.006563980132341385 0.017054840922355652
v -0.0028610583394765854 -0.005915103014558554 0.017101513221859932
v -0.003329063765704632 -0.005442014429718256 0.017201468348503113
v -0.003967628814280033 -0.005271481815725565 0.017327915877103806
v -0.004605650901794434 -0.005449214484542608 0.0174469742923975
v -0.0050721727311611176 -0.005927573423832655 0.017526740208268166
v 0.002595022786408663 0.005463199224323034 0.0162896029651165
v 0.002767066238448024 0.004814321640878916 0.016242923215031624
v 0.003235071897506714 0.004341233521699905 0.016142969951033592
v 0.0038736341521143913 0.004170702304691076 0.016016507521271706
v 0.004511659033596516 0.004348433576524258 0.015897464007139206
v 0.004978180397301912 0.004826792515814304 0.01581769622862339
v 0.005148197989910841 0.005477599333971739 0.015798592939972878
v 0.0049761519767344 0.006126491352915764 0.015845265239477158
v 0.004508146550506353 0.006599579472094774 0.01594522036612034
v 0.003869581501930952 0.006770112551748753 0.01607166789472103
v 0.0032315594144165516 0.006592379417270422 0.016190726310014725
v 0.0027650378178805113 0.006114020477980375 0.01627049222588539
v -0.005260899197310209 0.005418891552835703 0.017800403758883476
v -0.005088855512440205 0.004770013969391584 0.0177537240087986
v -0.004620850086212158 0.004296925384551287 0.017653770744800568
v -0.003982287831604481 0.004126394633203745 0.01752730831503868
v -0.0033442629501223564 0.004304125439375639 0.01740826480090618
v -0.002877741353586316 0.004782484844326973 0.017328497022390366
v -0.0027077249251306057 0.00543329119682312 0.017309393733739853
v -0.0028797697741538286 0.006082183215767145 0.017356066033244133
v -0.0033477754332125187 0.006555271800607443 0.017456021159887314
v -0.00398634048178792 0.006725804414600134 0.017582468688488007
v -0.0046243625693023205 0.006548071745783091 0.0177015271037817
v -0.005090883933007717 0.006069712806493044 0.017781293019652367
v 0.002613734221085906 -0.006534072104841471 0.0160350501537323
v 0.0027857765089720488 -0.007182963192462921 0.015988362953066826
v 0.003253781935200095 -0.007656051777303219 0.015888409689068794
v 0.0038923469837754965 -0.00782658439129591 0.0157619621604681
v 0.004530368838459253 -0.007648851722478867 0.015642903745174408
v 0.004996890667825937 -0.007170492317527533 0.015563135966658592
v 0.005166909191757441 -0.006519671995192766 0.015544040128588676
v 0.004994863644242287 -0.005870794877409935 0.015590712428092957
v 0.00452685821801424 -0.005397706758230925 0.015690667554736137
v 0.0038882929366081953 -0.005227173678576946 0.01581711508333683
v 0.0032502710819244385 -0.005404906813055277 0.015936173498630524
v 0.0027837492525577545 -0.0058832657523453236 0.01601593941450119
v -0.004145589657127857 0.012012194842100143 -0.045324940234422684
v -0.00417998805642128 0.011920992285013199 -0.04576690495014191
v -0.004110344219952822 -0.010425815358757973 -0.045797720551490784
v -0.004398159217089415 0.011396901682019234 -0.04808256775140762
v -0.004218320827931166 -0.010096834972500801 -0.04707876965403557
v -0.004576656501740217 -0.009166767820715904 -0.05025311931967735
v -0.004607789684087038 0.010943461209535599 -0.04982469230890274
v -0.004819255787879229 -0.008606968447566032 -0.051895201206207275
v -0.005184152163565159 0.009802695363759995 -0.053421974182128906
v -0.005156580358743668 -0.007876493036746979 -0.05379708856344223
v -0.003891613567247987 -0.011314541101455688 -0.04184151813387871
v -0.003984860610216856 0.012505754828453064 -0.042695824056863785
v -0.003863647812977433 0.013257087208330631 -0.03777197748422623
v -0.0038630531635135412 0.013297581113874912 -0.03747120499610901
v -0.0038689645007252693 0.013469952158629894 -0.03615081310272217
v -0.004033912438899279 0.014130298048257828 -0.03059910237789154
v -0.0041196998208761215 0.014311742037534714 -0.029001550748944283
v -0.004685852210968733 0.015166278928518295 -0.021865801885724068
v -0.004808453377336264 0.015327323228120804 -0.020662793889641762
v -0.004986628424376249 0.015558551996946335 -0.019028818234801292
v -0.005637075286358595 0.01641431264579296 -0.013839910738170147
v -0.006509965285658836 0.017628708854317665 -0.008019322529435158
v -0.006865200120955706 0.018147123977541924 -0.0058893440291285515
v -0.0071654366329312325 0.01859639398753643 -0.004170464351773262
v -0.008316815830767155 0.020412221550941467 0.0018787645967677236
v -0.009987596422433853 0.023117581382393837 0.009540146216750145
v -0.009934418834745884 0.023196032270789146 0.009314831346273422
v -0.008672657422721386 0.021002275869250298 0.0036068269982934
v -0.010966163128614426 0.021042099222540855 0.01351346354931593
v -0.010902179405093193 0.02123304456472397 0.013263534754514694
v -0.010615850798785686 0.02196238562464714 0.012128142639994621
v -0.010282907634973526 0.02263275533914566 0.01077335700392723
v -0.011152406223118305 0.020397944375872612 0.014232726767659187
v -0.011297731660306454 0.019749468192458153 0.014784734696149826
v -0.011400609277188778 0.01912842132151127 0.0151693569496274
v -0.011502454988658428 0.018004104495048523 0.015539356507360935
v -0.011466062627732754 0.018552420660853386 0.015409731306135654
v -0.01144462451338768 -0.019075751304626465 0.01475260965526104
v -0.011087199673056602 -0.021410932764410973 0.013345644809305668
v -0.011234508827328682 -0.020786898210644722 0.013924656435847282
v -0.011339296586811543 -0.020183051005005836 0.0143352672457695
v -0.011406531557440758 -0.019617976620793343 0.014599845744669437
v -0.010898998007178307 -0.022023404017090797 0.012599708512425423
v -0.010834435932338238 -0.02220338024199009 0.012341910041868687
v -0.009883512742817402 -0.023965230211615562 0.008410736918449402
v -0.009914226830005646 -0.02392544038593769 0.008542005904018879
v -0.010210966691374779 -0.023494262248277664 0.009794647805392742
v -0.010545909404754639 -0.022882996127009392 0.01117662712931633
v -0.0049383072182536125 -0.015084296464920044 -0.019683651626110077
v -0.0050830235704779625 -0.015325907617807388 -0.01844034343957901
v -0.005791911855340004 -0.01650318317115307 -0.013074182905256748
v -0.006168244872242212 -0.017134718596935272 -0.010565638542175293
v -0.006455074995756149 -0.01762188784778118 -0.00876670889556408
v -0.007538431789726019 -0.01951884850859642 -0.002623939188197255
v -0.008607069030404091 -0.02148764580488205 0.0027085302863270044
v -0.008641152642667294 -0.021552057936787605 0.002869355259463191
v -0.009115854278206825 -0.022459371015429497 0.005057680886238813
v -0.004758972674608231 -0.01478031650185585 -0.021325645968317986
v -0.0042267050594091415 -0.01377671305090189 -0.027298767119646072
v -0.0040763868018984795 -0.01341493334621191 -0.029591029509902
v -0.003873796435073018 -0.012675182893872261 -0.03426063433289528
v -0.0038242798764258623 -0.011988449841737747 -0.03830912709236145
v -0.011107795871794224 0.007985361851751804 0.018979215994477272
v -0.011080977506935596 -0.009210759773850441 0.018614349886775017
v -0.010824409313499928 0.00795455276966095 0.020451877266168594
v -0.010839066468179226 0.017352428287267685 0.020651277154684067
v -0.010986513458192348 -0.009221019223332405 0.019105246290564537
v -0.010971857234835625 -0.01861889474093914 0.018905838951468468
v -0.0010138644138351083 0.014008581638336182 0.018690645694732666
v -0.0008484359132125974 0.013384641148149967 0.018645767122507095
v -0.000398430711356923 0.012929756194353104 0.018549656495451927
v 0.00021557467698585242 0.012765784747898579 0.018428074195981026
v 0.0008290568948723376 0.01293667871505022 0.018313594162464142
v 0.0012776352232322097 0.013396631926298141 0.01823689416050911
v 0.0014411117881536484 0.01402242761105299 0.018218519166111946
v 0.0012756846845149994 0.014646352268755436 0.018263403326272964
v 0.0008256809087470174 0.015101252123713493 0.01835952140390873
v 0.0002116764517268166 0.015265223570168018 0.01848110556602478
v -0.0004018066974822432 0.015094329603016376 0.018595583736896515
v -0.0008503864519298077 0.014634360559284687 0.01867227628827095
v -0.0009395151864737272 0.02689538709819317 0.019455185160040855
v -0.0010347574716433883 0.027405552566051483 0.018974902108311653
v -0.003575802780687809 0.027050547301769257 0.01945645362138748
v -0.0033535100519657135 0.026558147743344307 0.019912652671337128
v -0.005942618008702993 0.026038412004709244 0.019890733063220978
v -0.00560198538005352 0.02559661492705345 0.02032521739602089
v -0.007973908446729183 0.02443810924887657 0.02024814300239086
v -0.007531709503382444 0.024076338857412338 0.020664764568209648
v -0.00953124649822712 0.022358709946274757 0.02050432190299034
v -0.009011178277432919 0.022100895643234253 0.020908139646053314
v -0.010508498176932335 0.019941912963986397 0.020641829818487167
v -0.009939568117260933 0.0198049396276474 0.02103876695036888
v -0.010253611020743847 0.017344923689961433 0.02104773372411728
v -0.0018849197076633573 0.027497967705130577 0.014556906186044216
v -0.010239733383059502 0.00844693835824728 0.020858939737081528
v -0.0005535187083296478 0.015515593811869621 0.019142864271998405
v 0.000305359426420182 0.015754839405417442 0.018982600420713425
v 0.0011649650987237692 0.015525286085903645 0.018812377005815506
v 0.0017949719913303852 0.014888428151607513 0.01867782138288021
v 0.002026570960879326 0.01401492115110159 0.018614990636706352
v 0.0017977020470425487 0.013138833455741405 0.018640706315636635
v 0.0011696928413584828 0.012494879774749279 0.01874808594584465
v 0.0003108155506197363 0.012255634181201458 0.01890834979712963
v -0.0005487909656949341 0.012485187500715256 0.01907857321202755
v -0.001178797916509211 0.013122045435011387 0.019213128834962845
v -0.0014103956054896116 0.013995536603033543 0.0192759670317173
v -0.0011815279722213745 0.014871640130877495 0.01925024390220642
v -0.011361640878021717 0.019812023267149925 0.016495289281010628
v -0.011475777253508568 0.018991168588399887 0.016743211075663567
v -0.011539311148226261 0.018208950757980347 0.016875023022294044
v -0.011182209476828575 0.020696090534329414 0.01609628088772297
v -0.010928482748568058 0.021618012338876724 0.015521900728344917
v -0.009401530958712101 0.02478274703025818 0.011912673711776733
v -0.009988161735236645 0.02383597381412983 0.013326850719749928
v -0.010490693151950836 0.02280319482088089 0.014511572197079659
v -0.010602755472064018 0.022532423958182335 0.014772237278521061
v -0.009155882522463799 0.02511976845562458 0.011310724541544914
v -0.007998913526535034 0.025800269097089767 0.01249658316373825
v -0.00726563623175025 0.02617146633565426 0.013097599148750305
v -0.006718512624502182 0.026418745517730713 0.013476834632456303
v -0.0027516239788383245 0.027456579729914665 0.014655864797532558
v -0.0036132473032921553 0.027346326038241386 0.014625185169279575
v -0.004448786377906799 0.027176933363080025 0.014476700685918331
v -0.005252479109913111 0.026957808062434196 0.014224058017134666
v -0.009730907157063484 0.024512045085430145 0.010912254452705383
v -0.009943748824298382 0.024113155901432037 0.010672495700418949
v -0.010110612958669662 0.023825405165553093 0.011328618973493576
v -0.009381027892231941 0.024952517822384834 0.010997478850185871
v -0.009450145065784454 0.0248760636895895 0.010995672084391117
v -0.010037188418209553 0.02376401610672474 0.01031461637467146
v -0.01003686897456646 0.023502852767705917 0.009932824410498142
v -0.01051927451044321 0.022978398948907852 0.012717442587018013
v -0.01086905226111412 0.022068964317440987 0.013880503363907337
v -0.01094701699912548 0.021832354366779327 0.014136383309960365
v -0.011173569597303867 0.02103758603334427 0.014872405678033829
v -0.011349964886903763 0.020241525024175644 0.015436669811606407
v -0.011474641971290112 0.01948169246315956 0.015829158946871758
v -0.01155388355255127 0.018778396770358086 0.016073690727353096
v -0.011597911827266216 0.018109535798430443 0.016204597428441048
v -0.008371010422706604 0.023187557235360146 0.006723369006067514
v -0.008048211224377155 0.022642668336629868 0.005283086560666561
v -0.006753342691808939 0.02055959776043892 -0.0009342252160422504
v -0.00639514671638608 0.020013945177197456 -0.0028032988775521517
v -0.006361857987940311 0.01996392011642456 -0.002980901161208749
v -0.0050628152675926685 0.01810576394200325 -0.010572451166808605
v -0.00313542690128088 0.015545553527772427 -0.027460696175694466
v -0.003731626085937023 0.016375992447137833 -0.02069241553544998
v -0.004958976060152054 0.017965085804462433 -0.011249499395489693
v -0.003994382917881012 0.01670864224433899 -0.018361391499638557
v -0.003935778047889471 0.016634607687592506 -0.018860425800085068
v -0.0030062422156333923 0.015311023220419884 -0.02953539974987507
v -0.0028409413062036037 0.014875673688948154 -0.03335702046751976
v -0.0027827720623463392 0.014511720277369022 -0.03636043891310692
v -0.0040901293978095055 0.01093676034361124 -0.053608786314725876
v -0.00355850369669497 0.011971618048846722 -0.05024351179599762
v -0.003360114060342312 0.012388541363179684 -0.04862559214234352
v -0.0032936350908130407 0.012535206973552704 -0.04801163822412491
v -0.003112983889877796 0.012962608598172665 -0.04606766626238823
v -0.0029398573096841574 0.013449533842504025 -0.04352106899023056
v -0.0028231514152139425 0.01391613483428955 -0.040674131363630295
v -0.00411492632701993 -0.00905903335660696 -0.05402226373553276
v -0.004574781283736229 0.026823779568076134 0.013829506002366543
v -0.008536607027053833 -0.02419177070260048 0.006464156787842512
v -0.0035835918970406055 -0.01022733561694622 -0.0507248193025589
v -0.0034255776554346085 -0.010607464239001274 -0.04948531836271286
v -0.0033142666798084974 -0.010891229845583439 -0.048496704548597336
v -0.003134500700980425 -0.011394007131457329 -0.04659689590334892
v -0.00296387099660933 -0.01197095774114132 -0.044153016060590744
v -0.00284008402377367 -0.012580068781971931 -0.041226837784051895
v -0.0027941972948610783 -0.013214808888733387 -0.03777541220188141
v -0.002854118123650551 -0.013843982480466366 -0.03398958966135979
v -0.0030188579112291336 -0.014445743523538113 -0.0301639623939991
v -0.0030432031489908695 -0.014512174762785435 -0.029737943783402443
v -0.003766146022826433 -0.015928154811263084 -0.021145060658454895
v -0.003946548793464899 -0.016225889325141907 -0.019541969522833824
v -0.004223432391881943 -0.016674986109137535 -0.017282050102949142
v -0.004853201098740101 -0.0176949892193079 -0.012749250046908855
v -0.005420999135822058 -0.01862892135977745 -0.009147888980805874
v -0.006152816582471132 -0.01986502856016159 -0.004963341169059277
v -0.005070762243121862 -0.01805063709616661 -0.01132505014538765
v -0.0063997856341302395 -0.020291592925786972 -0.003641407238319516
v -0.006871575955301523 -0.021120376884937286 -0.0012203073129057884
v -0.007669093552976847 -0.02256336435675621 0.0026085975114256144
v -0.00804679375141859 -0.02326500602066517 0.0043231891468167305
v -0.00935041531920433 -0.025771357119083405 0.009837194345891476
v -0.00959076453000307 -0.025467393919825554 0.009842593222856522
v -0.009788569994270802 -0.025143947452306747 0.009755748324096203
v -0.009859261102974415 -0.02499404549598694 0.009681652300059795
v -0.009935420006513596 -0.024779900908470154 0.009535429067909718
v -0.009988777339458466 -0.02440539374947548 0.009148159064352512
v -0.009915677830576897 -0.024036021903157234 0.008555331267416477
v -0.009076157584786415 -0.025998301804065704 0.010226117447018623
v -0.009322816506028175 -0.025687888264656067 0.010841799899935722
v -0.010034918785095215 -0.024708852171897888 0.010298834182322025
v -0.00991230271756649 -0.02480378933250904 0.012294827029109001
v -0.010446127504110336 -0.023922789841890335 0.011722307652235031
v -0.010417968966066837 -0.023823758587241173 0.01352227758616209
v -0.01079865824431181 -0.023064596578478813 0.01292288675904274
v -0.010530858300626278 -0.023564638569951057 0.013794181868433952
v -0.010877343825995922 -0.022839317098259926 0.013188567012548447
v -0.010859386995434761 -0.022683873772621155 0.014581927098333836
v -0.011106322519481182 -0.022077197209000587 0.013957630842924118
v -0.011115949600934982 -0.02178792841732502 0.015194874256849289
v -0.011285165324807167 -0.021306319162249565 0.0145551273599267
v -0.011298109777271748 -0.02092215046286583 0.01563101075589657
v -0.011412182822823524 -0.02056422084569931 0.014979491010308266
v -0.011414787732064724 -0.020112914964556694 0.015913525596261024
v -0.011493600904941559 -0.019872169941663742 0.015253628604114056
v -0.011480753310024738 -0.01933719590306282 0.01607837714254856
v -0.011539705097675323 -0.019209615886211395 0.015412787906825542
v -0.008084647357463837 -0.025672147050499916 0.018202712759375572
v -0.0017975987866520882 -0.0284893698990345 0.013368995860219002
v -0.0011363624362275004 -0.028561247512698174 0.016805211082100868
v -0.002658987883478403 -0.028455380350351334 0.013469328172504902
v -0.0036784703843295574 -0.02823491394519806 0.017301218584179878
v -0.00415352638810873 -0.02822253853082657 0.013348224572837353
v -0.0052122860215604305 -0.027931498363614082 0.013042223639786243
v -0.006048400886356831 -0.027249492704868317 0.017777880653738976
v -0.00665136706084013 -0.027372797951102257 0.012324899435043335
v -0.007916992530226707 -0.026724889874458313 0.011382129043340683
v -0.007181958761066198 -0.027119247242808342 0.011967312544584274
v -0.009648442268371582 -0.02361033484339714 0.01854676380753517
v -0.010633217170834541 -0.021204620599746704 0.018786586821079254
v -0.0011572570074349642 -0.015164277516305447 0.017089461907744408
v -0.0009918299037963152 -0.015788216143846512 0.01704457588493824
v -0.0005418247310444713 -0.01624310202896595 0.01694846712052822
v 7.218069367809221e-05 -0.0164070725440979 0.01682688295841217
v 0.0006856629042886198 -0.01623617857694626 0.016712404787540436
v 0.0011342412326484919 -0.015776226297020912 0.016635704785585403
v 0.0012977191945537925 -0.015150431543588638 0.016617335379123688
v 0.0011322922073304653 -0.014526505954563618 0.016662219539284706
v 0.0006822869763709605 -0.01407160609960556 0.016758330166339874
v 6.828246114309877e-05 -0.013907634653151035 0.016879914328455925
v -0.0005452006589621305 -0.014078529551625252 0.01699439249932766
v -0.0009937790455296636 -0.014538496732711792 0.017071092501282692
v -0.010386399924755096 -0.018626386299729347 0.019302302971482277
v -0.010400277562439442 -0.00972840003669262 0.019491096958518028
v -0.010064690373837948 -0.021082831546664238 0.01918901316821575
v -0.009129155427217484 -0.02336827665567398 0.018961181864142418
v -0.007643551100045443 -0.025326980277895927 0.018634334206581116
v -0.005709117278456688 -0.02682545967400074 0.01823074370622635
v -0.003457682440057397 -0.027761615812778473 0.01777791418135166
v -0.0010426794178783894 -0.028071632608771324 0.017306705936789513
v 0.0010215711081400514 -0.013647573068737984 0.01721118576824665
v 0.0001619654503883794 -0.013418019749224186 0.01738141104578972
v -0.0006969126989133656 -0.013657265342772007 0.01754167303442955
v 0.0016515780007466674 -0.01428443007171154 0.017076630145311356
v 0.0018831770867109299 -0.015157937072217464 0.017013799399137497
v -0.000692184956278652 -0.016687670722603798 0.017477383837103844
v -0.0013221919070929289 -0.01605081371963024 0.01761193759739399
v -0.0015537895960733294 -0.015177321620285511 0.017674775794148445
v -0.0013249219628050923 -0.014301217161118984 0.017649052664637566
v 0.00016742295701988041 -0.01691722311079502 0.017307166010141373
v 0.001026298850774765 -0.01667797937989235 0.017146894708275795
v 0.0016543081728741527 -0.016034025698900223 0.01703951694071293
v -0.0044893184676766396 -0.02779347635805607 0.012670863419771194
v 0.012222949415445328 0.0028776442632079124 0.021003451198339462
v 0.012215151451528072 0.007876507006585598 0.021109506487846375
v -0.009871832095086575 0.002753028180450201 0.025252578780055046
v -0.00987963005900383 0.007751890923827887 0.02535863406956196
v 0.01161041110754013 -0.004053003154695034 0.017615094780921936
v 0.012233862653374672 -0.004120779223740101 0.020854953676462173
v 0.012241660617291927 -0.009119641967117786 0.02074889838695526
v 0.010987138375639915 0.00800999253988266 0.01472795195877552
v 0.011599495075643063 0.0029454065952450037 0.017763575538992882
v 0.011005442589521408 -0.0037248539738357067 0.014478974975645542
v 0.01101364754140377 -0.00898615550249815 0.014367342926561832
v -0.0007579609518870711 -0.009052548557519913 0.01663118414580822
v -0.0098531199619174 -0.00924425758421421 0.024998025968670845
v -0.011081133037805557 -0.009110772050917149 0.01861647143959999
v -0.009860917925834656 -0.004245395306497812 0.025104081258177757
v -0.010484369471669197 -0.0041776192374527454 0.02186422236263752
v -0.01049528643488884 0.0028207905124872923 0.022012703120708466
v -0.011107642203569412 0.007885376922786236 0.018977079540491104
v -0.011089338921010494 -0.003849470056593418 0.0187281034886837
v -0.0007844702922739089 0.007943600416183472 0.016991792246699333
v -0.00448896549642086 0.006310739554464817 0.017670515924692154
v -0.003985910210758448 0.006450861692428589 0.017576642334461212
v -0.0034824267495423555 0.006316416431218386 0.017476944252848625
v -0.0031134241726249456 0.005943401250988245 0.017398126423358917
v -0.003982715308666229 0.004401335958391428 0.01753314957022667
v -0.0007661667186766863 -0.003791246796026826 0.01674281619489193
v -0.004486197140067816 0.004535781219601631 0.017632855102419853
v -0.004856801126152277 0.005933568347245455 0.01773340068757534
v -0.004990852437913418 0.005420414265245199 0.017748471349477768
v -0.0048552025109529495 0.004908797796815634 0.017711658030748367
v -0.003479658393189311 0.0045414580963552 0.017439283430576324
v -0.003111825790256262 0.004918630700558424 0.017376383766531944
v -0.00297777121886611 0.005431768484413624 0.01736132800579071
v 0.0038700115401297808 0.00649516936391592 0.016065841540694237
v 0.003366955555975437 0.0063550472259521484 0.01615971513092518
v 0.004878150764852762 0.005476076155900955 0.015850527212023735
v 0.004742498509585857 0.005987708922475576 0.015887325629591942
v 0.0043734959326684475 0.006360724102705717 0.01596614345908165
v 0.0029991199262440205 0.005977876018732786 0.016222599893808365
v 0.002865070244297385 0.005464722402393818 0.016237668693065643
v 0.0030007183086127043 0.004953105468302965 0.016200857236981392
v 0.003369723679497838 0.00458008935675025 0.016122054308652878
v 0.0030552688986063004 -0.002024345565587282 0.016044409945607185
v 0.003637491725385189 -0.0018283684039488435 0.0159364715218544
v 0.004092018585652113 -0.001408535405062139 0.015857787802815437
v 0.004340257495641708 -0.0008374464814551175 0.01582196354866028
v 0.0043392847292125225 -0.00021385012951213866 0.015835195779800415
v 0.003873206675052643 0.004445643629878759 0.016022348776459694
v 0.0036334421020001173 0.0007691269856877625 0.015991590917110443
v 0.0030506167095154524 0.0009585333173163235 0.016107698902487755
v 0.002441572956740856 0.0008899245876818895 0.016223471611738205
v 0.004744097124785185 0.004962938372045755 0.01586558111011982
v 0.004376264289021492 0.0045857662335038185 0.01592848263680935
v 0.004089269321411848 0.0003544286300893873 0.015895193442702293
v 0.0024460218846797943 -0.0019626091234385967 0.016162946820259094
v 0.0019150925800204277 -0.0016537947813048959 0.016271566972136497
v 0.0015542858745902777 -0.0011513284407556057 0.01635150797665119
v 0.0019116161856800318 0.0005751278367824852 0.01631885953247547
v 0.0015523831825703382 6.860047142254189e-05 0.016377391293644905
v 0.0014259895542636514 -0.0005420901579782367 0.016388947144150734
v -0.00483649130910635 -0.007088488899171352 0.017457105219364166
v -0.004467485938221216 -0.007461505010724068 0.017378302291035652
v -0.003964003641158342 -0.007595950271934271 0.017278596758842468
v -0.003460946958512068 -0.007455828133970499 0.017184730619192123
v -0.0030931143555790186 -0.007078655995428562 0.017121829092502594
v -0.0029590597841888666 -0.006565502844750881 0.01710677519440651
v -0.0030947125051170588 -0.006053884979337454 0.017143573611974716
v -0.00483808945864439 -0.006063717883080244 0.01747884787619114
v -0.004972141236066818 -0.006576857063919306 0.017493918538093567
v -0.0034637167118489742 -0.005680869799107313 0.017222383990883827
v -0.003967199940234423 -0.005546423606574535 0.017322082072496414
v -0.004470255225896835 -0.005686546675860882 0.017415955662727356
v 0.004394975956529379 -0.00741151999682188 0.015673929825425148
v 0.0038919183425605297 -0.0075516426004469395 0.015767795965075493
v 0.003388435347005725 -0.007417196873575449 0.015867501497268677
v 0.0030194297432899475 -0.007044181227684021 0.01594630442559719
v 0.0038887218106538057 -0.005502115935087204 0.01581128127872944
v 0.0043922062031924725 -0.0056365616619586945 0.015711583197116852
v 0.0047628083266317844 -0.007034348323941231 0.015611029230058193
v 0.004896861966699362 -0.00652119517326355 0.015595974400639534
v 0.004761210177093744 -0.0060095773078501225 0.01563277281820774
v 0.0033856655936688185 -0.00564223900437355 0.01590515486896038
v 0.0030178315937519073 -0.006019410211592913 0.015968047082424164
v 0.0028837816789746284 -0.006532548926770687 0.01598311774432659
v -0.003421187400817871 0.005364882759749889 0.020481260493397713
v -0.004192966502159834 0.005770827643573284 0.020148662850260735
v -0.003905877470970154 0.006065203342586756 0.020099567249417305
v -0.004297593142837286 0.005370330065488815 0.02016041986644268
v -0.003120284527540207 0.006069634109735489 0.019948488101363182
v -0.002832281170412898 0.005778501741588116 0.019886985421180725
v -0.0035132477059960365 0.006174582988023758 0.02002630941569805
v -0.002831035293638706 0.0049786800518631935 0.019870007410645485
v -0.0031181240919977427 0.004684305749833584 0.019919095560908318
v -0.002726407488808036 0.005379192065447569 0.019858259707689285
v -0.003903716802597046 0.004679874982684851 0.02007017470896244
v -0.004191720392554998 0.004971005953848362 0.020131684839725494
v -0.0035107540898025036 0.004574939608573914 0.019992360845208168
v -0.00472739664837718 0.005417040083557367 0.017926879227161407
v -0.004622771870344877 0.005817552097141743 0.017915116623044014
v -0.004335679579526186 0.006111926399171352 0.017866035923361778
v -0.003943051211535931 0.006221292540431023 0.01779276877641678
v -0.0035500868689268827 0.0061163571663200855 0.017714954912662506
v -0.0032620863057672977 0.0058252266608178616 0.017653437331318855
v -0.00315621099434793 0.005425901617854834 0.017624719068408012
v -0.0032608387991786003 0.005025404505431652 0.017636466771364212
v -0.0035479275975376368 0.004731029737740755 0.017685554921627045
v -0.003940558061003685 0.004621663596481085 0.017758822068572044
v -0.00433352030813694 0.004726598970592022 0.017836635932326317
v -0.00462152436375618 0.005017729941755533 0.01789814606308937
v 0.0044534457847476006 -0.006588095799088478 0.018715906888246536
v 0.003681665286421776 -0.006182150449603796 0.01838330179452896
v 0.0039687566459178925 -0.005887775681912899 0.018334221094846725
v 0.003577039111405611 -0.0065826475620269775 0.018395058810710907
v 0.004754349123686552 -0.005883344914764166 0.018183141946792603
v 0.005042350850999355 -0.0061744763515889645 0.01812162436544895
v 0.004361385945230722 -0.005778395105153322 0.018260955810546875
v 0.005043598357588053 -0.006974298041313887 0.01810465380549431
v 0.00475650979205966 -0.007268673274666071 0.01815374754369259
v 0.0051482245326042175 -0.006573786027729511 0.018092898651957512
v 0.003970917314291 -0.007273104041814804 0.01830482855439186
v 0.0036829127930104733 -0.0069819726049900055 0.018366331234574318
v 0.004363879095762968 -0.007378038484603167 0.01822700724005699
v 0.003147236770018935 -0.006535923574119806 0.01616152562201023
v 0.0032518631778657436 -0.006135426461696625 0.016149770468473434
v 0.0035389515105634928 -0.0058410512283444405 0.016100674867630005
v 0.003931580577045679 -0.00573168508708477 0.016027407720685005
v 0.004324544221162796 -0.005836620461195707 0.015949593856930733
v 0.004612548276782036 -0.006127752363681793 0.015888091176748276
v 0.004718422424048185 -0.00652706203982234 0.015859365463256836
v 0.004613794386386871 -0.006927574053406715 0.015871113166213036
v 0.004326704889535904 -0.007221948355436325 0.015920201316475868
v 0.003934075590223074 -0.007331314496695995 0.015993468463420868
v 0.003541111946105957 -0.007226379122585058 0.01607128232717514
v 0.0032531090546399355 -0.006935248151421547 0.016132792457938194
v -0.003402475966140628 -0.0066324034705758095 0.02022670768201351
v -0.004174256697297096 -0.006226458586752415 0.019894102588295937
v -0.003887164406478405 -0.005932083819061518 0.0198450218886137
v -0.004278882872313261 -0.006626955233514309 0.019905859604477882
v -0.0031015716958791018 -0.005927653051912785 0.019693942740559578
v -0.0028135711327195168 -0.006218784023076296 0.019632425159215927
v -0.0034945362713187933 -0.005822702776640654 0.01977175660431385
v -0.0028123236261308193 -0.007018606178462505 0.019615454599261284
v -0.003099411027505994 -0.007312980946153402 0.019664548337459564
v -0.0027076974511146545 -0.006618093699216843 0.019603699445724487
v -0.0038850039709359407 -0.0073174117133021355 0.019815629348158836
v -0.004173009190708399 -0.007026280276477337 0.019877132028341293
v -0.0034920426551252604 -0.007422346621751785 0.019737808033823967
v -0.004708684980869293 -0.006580231245607138 0.017672326415777206
v -0.004604058805853128 -0.0061797345988452435 0.01766057126224041
v -0.004316969774663448 -0.005885358899831772 0.01761147566139698
v -0.003924341406673193 -0.005775993224233389 0.01753820851445198
v -0.0035313768312335014 -0.005880928132683039 0.017460394650697708
v -0.0032433734741061926 -0.006172060035169125 0.01739889197051525
v -0.0031374995596706867 -0.006571369711309671 0.01737016625702381
v -0.003242127364501357 -0.006971881724894047 0.01738191395998001
v -0.0035292161628603935 -0.007266256492584944 0.017431002110242844
v -0.003921846393495798 -0.007375622168183327 0.017504269257187843
v -0.00431480910629034 -0.007270687259733677 0.017582083120942116
v -0.004602812696248293 -0.006979556288570166 0.01764359325170517
v 0.004434734582901001 0.005409190431237221 0.018970459699630737
v 0.0036629552487283945 0.0058151353150606155 0.01863786205649376
v 0.003950043581426144 0.006109511014074087 0.01858876831829548
v 0.003558328840881586 0.005414638202637434 0.018649619072675705
v 0.0047356365248560905 0.00611394178122282 0.018437687307596207
v 0.00502364058047533 0.005822809878736734 0.01837618462741375
v 0.0043426742777228355 0.006218890659511089 0.018515508621931076
v 0.005024886690080166 0.005022988189011812 0.01835920661687851
v 0.004737796727567911 0.0047286138869822025 0.018408294767141342
v 0.0051295142620801926 0.0054234997369349 0.01834745705127716
v 0.0039522042497992516 0.004724182654172182 0.018559373915195465
v 0.00366420135833323 0.005015313625335693 0.01862088404595852
v 0.0043451678939163685 0.004619247280061245 0.018481560051441193
v 0.003128525335341692 0.005461347755044699 0.016416078433394432
v 0.003233150113373995 0.005861860234290361 0.01640431582927704
v 0.003520241240039468 0.006156234070658684 0.016355235129594803
v 0.0039128707721829414 0.006265600677579641 0.016281967982649803
v 0.004305833950638771 0.006160664837807417 0.01620415411889553
v 0.004593835677951574 0.00586953479796648 0.01614263653755188
v 0.0046997107565402985 0.005470209289342165 0.016113918274641037
v 0.004595083184540272 0.0050697121769189835 0.016125665977597237
v 0.004307993222028017 0.004775337874889374 0.01617475412786007
v 0.003915363922715187 0.004665971267968416 0.01624802127480507
v 0.003522400511428714 0.004770907107740641 0.01632583513855934
v 0.0032343976199626923 0.005062038078904152 0.016387345269322395
v 0.0025196524802595377 -0.0017195193795487285 0.019413255155086517
v 0.0030505803879350424 -0.0020283181220293045 0.019304627552628517
v 0.0035058727953583 -0.0020991486962884665 0.019215533509850502
v 0.003659829031676054 -0.0020900701638311148 0.019186098128557205
v 0.004242051858454943 -0.001894078217446804 0.01907815970480442
v 0.004696578718721867 -0.0014742452185600996 0.018999475985765457
v 0.004944817163050175 -0.0009031555964611471 0.018963651731610298
v 0.004943844862282276 -0.00027957477141171694 0.018976882100105286
v 0.004693828988820314 0.0002887047012336552 0.019036881625652313
v 0.004238000605255365 0.0007034032605588436 0.019133271649479866
v 0.0036551766097545624 0.0008928242023102939 0.019249387085437775
v 0.0030461314599961042 0.0008242008625529706 0.01936515048146248
v 0.0025161763187497854 0.0005094187217764556 0.01946054771542549
v 0.002156943315640092 2.8913582355016842e-06 0.019519079476594925
v 0.0020305481739342213 -0.0006077990983612835 0.019530627876520157
v 0.0021588460076600313 -0.0012170530389994383 0.019493194296956062
f 1 2 3
f 1 3 4
f 4 3 5
f 4 5 6
f 7 8 9
f 9 8 10
f 9 10 11
f 9 12 7
f 7 12 13
f 7 13 14
f 14 13 2
f 14 2 1
f 15 16 17
f 17 16 18
f 17 18 19
f 19 18 20
f 19 20 21
f 21 20 22
f 21 22 23
f 24 25 26
f 27 28 29
f 26 30 24
f 24 30 27
f 24 27 31
f 31 27 29
f 32 33 34
f 34 33 35
f 34 35 36
f 36 35 23
f 36 23 28
f 28 23 22
f 28 22 29
f 11 10 37
f 37 10 38
f 37 38 32
f 32 38 33
f 39 40 41
f 41 40 42
f 43 44 45
f 46 47 40
f 40 39 48
f 46 40 49
f 49 40 48
f 49 48 50
f 47 51 40
f 40 51 52
f 40 52 53
f 53 52 54
f 53 54 55
f 55 54 56
f 56 57 55
f 55 57 58
f 55 58 59
f 59 58 60
f 60 61 59
f 59 61 62
f 59 62 45
f 45 62 63
f 45 63 43
f 64 44 65
f 65 44 43
f 64 66 44
f 44 66 67
f 44 67 68
f 45 44 68
f 68 69 45
f 45 69 70
f 45 70 59
f 59 70 71
f 59 71 72
f 72 73 59
f 59 73 74
f 59 74 55
f 55 74 75
f 55 75 53
f 53 75 76
f 53 76 40
f 40 76 77
f 40 77 78
f 79 80 81
f 82 83 42
f 42 83 84
f 81 80 85
f 84 86 42
f 42 86 87
f 42 87 88
f 88 87 89
f 88 89 80
f 80 89 90
f 80 90 85
f 79 81 91
f 91 81 92
f 91 92 93
f 94 95 96
f 93 97 91
f 91 97 94
f 91 94 98
f 98 94 96
f 99 100 96
f 99 96 101
f 95 102 96
f 96 102 103
f 96 103 101
f 104 98 100
f 100 98 96
f 105 80 106
f 106 80 79
f 106 79 107
f 107 79 91
f 107 91 108
f 108 91 98
f 108 98 109
f 109 98 104
f 105 110 80
f 80 110 111
f 80 111 88
f 88 111 112
f 88 112 42
f 42 112 113
f 113 114 42
f 42 114 115
f 42 115 116
f 116 117 42
f 42 117 118
f 42 118 41
f 119 120 40
f 40 120 121
f 122 123 124
f 125 126 127
f 119 40 128
f 128 40 78
f 128 78 129
f 125 127 130
f 124 131 122
f 122 131 130
f 122 130 132
f 132 130 127
f 132 127 133
f 133 127 134
f 133 134 135
f 135 134 136
f 135 136 137
f 138 126 139
f 140 141 121
f 121 141 142
f 121 142 40
f 40 142 143
f 40 143 42
f 42 143 144
f 145 82 42
f 140 146 141
f 141 146 147
f 141 147 125
f 125 147 148
f 125 148 126
f 126 148 149
f 126 149 139
f 150 151 78
f 78 151 152
f 78 152 129
f 129 152 138
f 129 138 153
f 153 138 139
f 144 154 42
f 42 154 155
f 42 155 156
f 145 157 82
f 82 157 158
f 82 158 137
f 122 159 123
f 123 159 160
f 123 160 156
f 156 160 161
f 156 161 42
f 42 161 162
f 42 162 145
f 136 163 137
f 137 163 164
f 137 164 82
f 82 164 165
f 82 165 78
f 78 165 166
f 78 166 150
f 167 168 169
f 169 168 170
f 169 170 171
f 171 170 172
f 171 172 41
f 41 172 39
f 172 170 173
f 39 172 174
f 175 176 177
f 177 176 178
f 177 178 179
f 179 178 180
f 179 180 181
f 181 180 182
f 181 182 183
f 183 182 184
f 183 184 185
f 185 184 173
f 185 173 186
f 186 173 170
f 186 170 168
f 187 188 175
f 175 188 189
f 175 189 176
f 187 190 188
f 188 190 191
f 188 191 192
f 192 191 193
f 192 193 194
f 194 193 195
f 194 195 196
f 196 195 197
f 196 197 198
f 198 197 199
f 198 199 200
f 200 199 201
f 200 201 202
f 201 203 202
f 202 203 204
f 202 204 205
f 205 204 206
f 205 206 207
f 172 173 174
f 174 173 184
f 174 184 208
f 208 184 182
f 208 182 209
f 209 182 180
f 209 180 210
f 210 180 178
f 210 178 211
f 211 178 176
f 211 176 212
f 212 176 189
f 212 189 213
f 213 189 188
f 213 188 214
f 214 188 192
f 214 192 215
f 215 192 194
f 215 194 216
f 216 194 196
f 216 196 217
f 217 196 198
f 217 198 218
f 218 198 200
f 218 200 219
f 219 200 202
f 219 202 220
f 220 202 205
f 220 205 221
f 221 205 207
f 221 207 222
f 39 174 48
f 48 174 208
f 48 208 50
f 50 208 209
f 50 209 49
f 49 209 210
f 49 210 46
f 46 210 211
f 46 211 47
f 47 211 212
f 47 212 51
f 51 212 213
f 51 213 52
f 52 213 214
f 52 214 54
f 54 214 215
f 54 215 56
f 56 215 216
f 56 216 57
f 57 216 217
f 57 217 58
f 58 217 218
f 58 218 60
f 60 218 219
f 60 219 61
f 61 219 220
f 61 220 62
f 62 220 221
f 62 221 63
f 63 221 222
f 63 222 43
f 206 223 207
f 207 223 224
f 207 224 222
f 43 222 225
f 223 226 224
f 224 226 227
f 224 227 228
f 228 227 229
f 228 229 230
f 230 229 231
f 230 231 232
f 232 231 233
f 233 234 232
f 232 234 235
f 232 235 236
f 222 224 225
f 225 224 228
f 225 228 237
f 237 228 230
f 237 230 238
f 238 230 232
f 238 232 239
f 239 232 236
f 239 236 240
f 43 225 65
f 65 225 237
f 65 237 64
f 64 237 238
f 64 238 66
f 66 238 239
f 66 239 67
f 67 239 240
f 67 240 68
f 236 235 241
f 240 236 242
f 68 240 243
f 236 241 242
f 242 241 244
f 242 244 245
f 245 244 246
f 245 246 247
f 247 246 248
f 247 248 249
f 249 248 250
f 249 250 251
f 251 250 252
f 251 252 253
f 253 252 254
f 253 254 255
f 255 254 256
f 255 256 257
f 257 256 258
f 257 258 259
f 259 258 260
f 259 260 261
f 240 242 243
f 243 242 245
f 243 245 262
f 262 245 247
f 262 247 263
f 263 247 249
f 263 249 264
f 264 249 251
f 264 251 265
f 265 251 253
f 265 253 266
f 266 253 255
f 266 255 267
f 267 255 257
f 267 257 268
f 268 257 259
f 268 259 269
f 269 259 261
f 269 261 270
f 68 243 69
f 69 243 262
f 69 262 70
f 70 262 263
f 70 263 71
f 71 263 264
f 71 264 72
f 72 264 265
f 72 265 73
f 73 265 266
f 73 266 74
f 74 266 267
f 74 267 75
f 75 267 268
f 75 268 76
f 76 268 269
f 76 269 77
f 77 269 270
f 77 270 78
f 260 271 272
f 260 272 261
f 261 272 273
f 261 273 270
f 270 273 82
f 270 82 78
f 272 271 274
f 273 272 275
f 82 273 276
f 272 274 275
f 275 274 277
f 275 277 278
f 278 277 279
f 278 279 280
f 280 279 281
f 280 281 282
f 282 281 283
f 282 283 284
f 284 283 285
f 284 285 286
f 286 285 287
f 286 287 288
f 288 287 289
f 288 289 290
f 290 289 291
f 290 291 292
f 292 291 293
f 292 293 294
f 294 293 295
f 294 295 296
f 296 295 297
f 296 297 298
f 298 297 299
f 298 299 300
f 273 275 276
f 276 275 278
f 276 278 301
f 301 278 280
f 301 280 302
f 302 280 282
f 302 282 303
f 303 282 284
f 303 284 304
f 304 284 286
f 304 286 305
f 305 286 288
f 305 288 306
f 306 288 290
f 306 290 307
f 307 290 292
f 307 292 308
f 308 292 294
f 308 294 309
f 309 294 296
f 309 296 310
f 310 296 298
f 310 298 311
f 311 298 300
f 311 300 312
f 82 276 83
f 83 276 301
f 83 301 84
f 84 301 302
f 84 302 86
f 86 302 303
f 86 303 87
f 87 303 304
f 87 304 89
f 89 304 305
f 89 305 90
f 90 305 306
f 90 306 85
f 85 306 307
f 85 307 81
f 81 307 308
f 81 308 92
f 92 308 309
f 92 309 93
f 93 309 310
f 93 310 97
f 97 310 311
f 97 311 94
f 94 311 312
f 94 312 95
f 300 299 313
f 95 312 314
f 312 300 315
f 315 300 313
f 315 313 316
f 316 313 317
f 317 318 316
f 316 318 319
f 316 319 320
f 320 319 321
f 320 321 322
f 322 321 323
f 322 323 324
f 324 323 325
f 324 325 326
f 312 315 314
f 314 315 316
f 314 316 327
f 327 316 320
f 327 320 328
f 328 320 322
f 328 322 329
f 329 322 324
f 329 324 330
f 95 314 102
f 102 314 327
f 102 327 103
f 103 327 328
f 103 328 101
f 101 328 329
f 101 329 99
f 99 329 330
f 99 330 100
f 324 326 331
f 330 324 332
f 100 330 333
f 324 331 332
f 332 331 334
f 332 334 335
f 335 334 336
f 335 336 337
f 337 336 338
f 337 338 339
f 339 338 340
f 339 340 341
f 340 342 341
f 341 342 343
f 341 343 344
f 344 343 345
f 344 345 346
f 346 345 347
f 346 347 348
f 348 347 349
f 348 349 350
f 349 351 350
f 350 351 352
f 350 352 353
f 353 352 354
f 353 354 355
f 355 354 356
f 355 356 357
f 357 356 358
f 357 358 359
f 359 358 360
f 359 360 361
f 361 360 362
f 361 362 363
f 363 362 167
f 363 167 169
f 330 332 333
f 333 332 335
f 333 335 364
f 364 335 337
f 364 337 365
f 365 337 339
f 365 339 366
f 366 339 341
f 366 341 367
f 367 341 344
f 367 344 368
f 368 344 346
f 368 346 369
f 369 346 348
f 369 348 370
f 370 348 350
f 370 350 371
f 371 350 353
f 371 353 372
f 372 353 355
f 372 355 373
f 373 355 357
f 373 357 374
f 374 357 359
f 374 359 375
f 375 359 361
f 375 361 376
f 376 361 363
f 376 363 377
f 377 363 169
f 377 169 171
f 100 333 104
f 104 333 364
f 104 364 109
f 109 364 365
f 109 365 108
f 108 365 366
f 108 366 107
f 107 366 367
f 107 367 106
f 106 367 368
f 106 368 105
f 105 368 369
f 105 369 110
f 110 369 370
f 110 370 111
f 111 370 371
f 111 371 112
f 112 371 372
f 112 372 113
f 113 372 373
f 113 373 114
f 114 373 374
f 114 374 115
f 115 374 375
f 115 375 116
f 116 375 376
f 116 376 117
f 117 376 377
f 117 377 118
f 118 377 171
f 118 171 41
f 378 379 380
f 380 379 381
f 380 381 382
f 382 381 383
f 384 385 386
f 386 385 387
f 386 387 388
f 389 390 386
f 386 390 391
f 386 391 384
f 392 393 386
f 386 393 394
f 386 394 389
f 388 395 386
f 386 395 396
f 386 396 392
f 397 398 399
f 399 398 400
f 399 400 401
f 402 403 399
f 399 403 404
f 399 404 397
f 405 406 399
f 399 406 407
f 399 407 402
f 401 408 399
f 399 408 409
f 399 409 405
f 166 410 150
f 150 410 411
f 150 411 151
f 151 411 412
f 151 412 152
f 152 412 413
f 152 413 138
f 138 413 414
f 138 414 126
f 126 414 415
f 126 415 127
f 127 415 416
f 127 416 134
f 134 416 417
f 134 417 136
f 136 417 418
f 136 418 163
f 163 418 419
f 163 419 164
f 164 419 420
f 164 420 165
f 165 420 421
f 165 421 166
f 166 421 410
f 131 422 130
f 130 422 423
f 130 423 125
f 125 423 424
f 125 424 141
f 141 424 425
f 141 425 142
f 142 425 426
f 142 426 143
f 143 426 427
f 143 427 144
f 144 427 428
f 144 428 154
f 154 428 429
f 154 429 155
f 155 429 430
f 155 430 156
f 156 430 431
f 156 431 123
f 123 431 432
f 123 432 124
f 124 432 433
f 124 433 131
f 131 433 422
f 137 434 135
f 135 434 435
f 135 435 133
f 133 435 436
f 133 436 132
f 132 436 437
f 132 437 122
f 122 437 438
f 122 438 159
f 159 438 439
f 159 439 160
f 160 439 440
f 160 440 161
f 161 440 441
f 161 441 162
f 162 441 442
f 162 442 145
f 145 442 443
f 145 443 157
f 157 443 444
f 157 444 158
f 158 444 445
f 158 445 137
f 137 445 434
f 139 446 153
f 153 446 447
f 153 447 129
f 129 447 448
f 129 448 128
f 128 448 449
f 128 449 119
f 119 449 450
f 119 450 120
f 120 450 451
f 120 451 121
f 121 451 452
f 121 452 140
f 140 452 453
f 140 453 146
f 146 453 454
f 146 454 147
f 147 454 455
f 147 455 148
f 148 455 456
f 148 456 149
f 149 456 457
f 149 457 139
f 139 457 446
f 458 459 460
f 460 459 461
f 460 461 462
f 462 461 463
f 463 461 464
f 463 464 465
f 465 464 466
f 465 466 467
f 177 179 468
f 468 179 181
f 468 181 460
f 460 181 183
f 460 183 185
f 185 186 460
f 460 186 168
f 460 168 458
f 458 168 167
f 458 167 362
f 362 360 458
f 458 360 358
f 458 358 469
f 469 358 356
f 469 356 354
f 354 352 469
f 469 352 351
f 469 351 470
f 351 349 470
f 470 349 347
f 470 347 471
f 471 347 345
f 471 345 472
f 472 345 343
f 472 343 473
f 473 343 342
f 473 342 474
f 342 340 474
f 474 340 338
f 474 338 475
f 338 336 475
f 475 336 334
f 475 334 476
f 476 334 331
f 476 331 477
f 331 326 477
f 477 326 325
f 477 325 478
f 478 325 323
f 478 323 479
f 479 323 321
f 479 321 480
f 480 321 319
f 480 319 481
f 481 319 318
f 481 318 482
f 482 318 317
f 299 483 313
f 313 483 484
f 313 484 317
f 317 484 485
f 317 485 482
f 486 487 297
f 297 487 488
f 297 488 299
f 299 488 489
f 299 489 483
f 486 297 490
f 490 297 295
f 490 295 491
f 491 295 293
f 491 293 492
f 289 378 291
f 291 378 493
f 291 493 293
f 293 493 494
f 293 494 492
f 289 287 378
f 378 287 285
f 378 285 283
f 283 281 378
f 378 281 279
f 378 279 277
f 277 274 378
f 378 274 271
f 378 271 379
f 379 271 260
f 379 260 258
f 258 256 379
f 379 256 254
f 379 254 252
f 252 250 379
f 379 250 248
f 379 248 495
f 495 248 246
f 496 497 244
f 244 497 498
f 244 498 246
f 246 498 499
f 246 499 495
f 496 244 500
f 500 244 241
f 500 241 501
f 502 503 235
f 235 503 504
f 235 504 241
f 241 504 505
f 241 505 501
f 506 507 226
f 226 507 227
f 507 508 227
f 227 508 509
f 227 509 229
f 229 509 510
f 229 510 231
f 231 510 511
f 231 511 233
f 233 511 512
f 233 512 234
f 234 512 513
f 234 513 235
f 235 513 514
f 235 514 502
f 226 223 506
f 506 223 206
f 506 206 515
f 515 206 204
f 515 204 516
f 516 204 203
f 516 203 517
f 197 518 199
f 199 518 517
f 199 517 201
f 201 517 203
f 191 519 193
f 193 519 518
f 193 518 195
f 195 518 197
f 191 190 519
f 519 190 187
f 519 187 468
f 468 187 175
f 468 175 177
f 410 421 438
f 438 421 420
f 438 420 439
f 439 420 419
f 439 419 440
f 440 419 418
f 22 520 431
f 431 520 432
f 431 430 22
f 22 430 429
f 22 429 428
f 451 450 29
f 29 450 449
f 29 449 521
f 521 449 448
f 521 448 413
f 413 412 521
f 521 412 411
f 521 411 410
f 446 457 426
f 426 457 456
f 426 456 427
f 427 456 455
f 427 455 428
f 428 455 454
f 428 454 22
f 22 454 453
f 22 453 29
f 29 453 452
f 29 452 451
f 417 426 425
f 438 437 410
f 410 437 436
f 410 436 521
f 521 436 435
f 521 435 520
f 520 435 434
f 520 434 445
f 445 444 520
f 520 444 443
f 520 443 432
f 432 443 442
f 432 442 441
f 417 425 418
f 426 417 446
f 446 417 416
f 446 416 447
f 447 416 415
f 447 415 448
f 448 415 414
f 448 414 413
f 425 424 418
f 418 424 423
f 418 423 440
f 440 423 422
f 440 422 441
f 441 422 433
f 441 433 432
f 522 523 520
f 520 523 382
f 520 382 521
f 521 382 383
f 521 383 524
f 524 383 525
f 394 526 389
f 389 526 527
f 389 527 390
f 390 527 528
f 390 528 391
f 391 528 529
f 391 529 384
f 384 529 530
f 384 530 385
f 385 530 531
f 385 531 387
f 387 531 532
f 387 532 388
f 388 532 533
f 388 533 395
f 395 533 534
f 395 534 396
f 396 534 535
f 396 535 392
f 392 535 536
f 392 536 393
f 393 536 537
f 393 537 394
f 394 537 526
f 538 539 540
f 538 540 541
f 541 540 542
f 541 542 543
f 543 542 544
f 543 544 545
f 545 544 546
f 545 546 547
f 547 546 548
f 547 548 549
f 549 548 523
f 549 523 550
f 551 539 17
f 17 539 15
f 552 550 522
f 522 550 523
f 543 553 541
f 541 553 554
f 541 554 538
f 538 554 16
f 554 555 16
f 16 555 556
f 16 556 18
f 18 556 557
f 18 557 558
f 558 559 18
f 18 559 560
f 18 560 552
f 560 561 552
f 552 561 562
f 552 562 550
f 550 562 563
f 550 563 549
f 549 563 564
f 549 564 547
f 547 564 553
f 547 553 545
f 545 553 543
f 522 520 20
f 20 520 22
f 18 552 20
f 20 552 522
f 15 539 16
f 16 539 538
f 548 565 566
f 548 566 523
f 523 566 567
f 523 567 382
f 565 548 568
f 568 548 546
f 568 546 569
f 570 571 544
f 544 571 572
f 544 572 546
f 546 572 573
f 546 573 569
f 574 570 575
f 575 570 544
f 575 544 576
f 576 544 542
f 576 542 577
f 539 551 540
f 540 551 578
f 578 579 540
f 540 579 580
f 540 580 542
f 542 580 581
f 542 581 577
f 582 583 584
f 574 585 570
f 570 585 586
f 570 586 582
f 583 587 489
f 489 587 588
f 489 588 483
f 483 588 484
f 583 489 584
f 584 489 488
f 584 488 589
f 589 488 487
f 589 487 590
f 590 487 486
f 590 486 591
f 591 486 490
f 591 490 592
f 592 490 491
f 592 491 593
f 593 491 492
f 593 492 594
f 594 492 494
f 594 494 595
f 595 494 493
f 595 493 596
f 596 493 378
f 596 378 380
f 582 584 570
f 570 584 589
f 570 589 571
f 571 589 590
f 571 590 572
f 572 590 591
f 572 591 573
f 573 591 592
f 573 592 569
f 569 592 593
f 569 593 568
f 568 593 594
f 568 594 565
f 565 594 595
f 565 595 566
f 566 595 596
f 566 596 567
f 567 596 380
f 567 380 382
f 586 585 597
f 597 484 588
f 582 586 583
f 583 586 597
f 583 597 587
f 587 597 588
f 484 597 485
f 485 597 598
f 485 598 482
f 482 598 599
f 482 599 481
f 599 600 481
f 481 600 601
f 481 601 480
f 480 601 602
f 480 602 479
f 479 602 478
f 603 473 474
f 603 474 604
f 602 605 478
f 478 605 606
f 478 606 477
f 477 606 607
f 477 607 476
f 476 607 604
f 476 604 475
f 475 604 474
f 603 608 473
f 473 608 609
f 473 609 472
f 472 609 610
f 469 470 610
f 610 470 471
f 610 471 472
f 611 466 612
f 612 466 464
f 612 464 613
f 613 464 461
f 613 461 614
f 614 461 459
f 614 459 615
f 615 459 458
f 615 458 616
f 616 458 469
f 616 469 617
f 617 469 610
f 611 6 466
f 466 6 5
f 466 5 467
f 467 5 618
f 551 619 578
f 578 619 579
f 619 576 577
f 577 581 619
f 619 581 580
f 619 580 579
f 551 17 619
f 619 17 19
f 619 19 576
f 576 19 575
f 21 598 19
f 19 598 597
f 597 585 19
f 19 585 574
f 19 574 575
f 23 35 602
f 602 601 23
f 23 601 600
f 23 600 21
f 21 600 599
f 21 599 598
f 10 8 608
f 608 603 10
f 10 603 604
f 10 604 38
f 38 604 607
f 38 607 33
f 33 607 606
f 33 606 35
f 35 606 605
f 35 605 602
f 1 616 14
f 14 616 617
f 14 617 7
f 7 617 610
f 7 610 8
f 8 610 609
f 8 609 608
f 6 611 4
f 4 611 612
f 612 613 4
f 4 613 614
f 4 614 1
f 1 614 615
f 1 615 616
f 502 514 620
f 465 467 618
f 465 618 463
f 618 621 463
f 463 621 622
f 463 622 462
f 622 623 462
f 462 623 624
f 462 624 460
f 460 624 468
f 624 625 468
f 468 625 626
f 468 626 519
f 626 627 519
f 519 627 628
f 519 628 518
f 518 628 629
f 518 629 517
f 517 629 630
f 517 630 516
f 516 630 515
f 515 630 631
f 515 631 506
f 506 631 632
f 506 632 507
f 632 633 507
f 507 633 634
f 507 634 508
f 508 634 509
f 635 636 511
f 634 637 509
f 509 637 635
f 509 635 510
f 510 635 511
f 636 638 511
f 511 638 639
f 511 639 512
f 512 639 640
f 512 640 513
f 513 640 514
f 514 640 641
f 514 641 620
f 620 642 643
f 643 644 620
f 620 644 645
f 620 645 646
f 646 647 620
f 620 647 648
f 620 648 502
f 642 649 643
f 643 649 650
f 643 650 644
f 647 504 648
f 648 504 503
f 648 503 502
f 647 646 651
f 651 646 645
f 651 645 644
f 644 650 651
f 651 650 652
f 651 652 653
f 653 652 654
f 653 654 655
f 655 654 656
f 655 656 657
f 657 656 658
f 657 658 659
f 659 658 660
f 659 660 661
f 661 660 662
f 661 662 663
f 663 662 664
f 663 664 665
f 665 664 666
f 665 666 667
f 667 666 383
f 667 383 381
f 647 651 504
f 504 651 653
f 504 653 505
f 505 653 655
f 505 655 501
f 501 655 657
f 501 657 500
f 500 657 659
f 500 659 496
f 496 659 661
f 496 661 497
f 497 661 663
f 497 663 498
f 498 663 665
f 498 665 499
f 499 665 667
f 499 667 495
f 495 667 381
f 495 381 379
f 652 650 668
f 669 670 671
f 671 670 672
f 671 672 673
f 673 672 674
f 674 672 675
f 674 675 676
f 650 649 668
f 668 649 677
f 668 677 675
f 675 677 678
f 675 678 676
f 660 679 662
f 662 679 680
f 662 680 664
f 660 658 679
f 679 658 656
f 679 656 668
f 668 656 654
f 668 654 652
f 664 680 666
f 666 680 525
f 666 525 383
f 400 681 401
f 401 681 682
f 401 682 408
f 408 682 683
f 408 683 409
f 409 683 684
f 409 684 405
f 405 684 685
f 405 685 406
f 406 685 686
f 406 686 407
f 407 686 687
f 407 687 402
f 402 687 688
f 402 688 403
f 403 688 689
f 403 689 404
f 404 689 690
f 404 690 397
f 397 690 691
f 397 691 398
f 398 691 692
f 398 692 400
f 400 692 681
f 525 693 524
f 524 693 694
f 521 524 29
f 29 524 31
f 693 525 680
f 693 680 695
f 695 680 679
f 695 679 696
f 696 679 668
f 696 668 697
f 697 668 675
f 697 675 698
f 698 675 672
f 698 672 699
f 699 672 670
f 699 670 700
f 701 24 702
f 702 24 694
f 702 694 703
f 701 704 24
f 24 704 705
f 24 705 25
f 706 696 697
f 696 706 695
f 695 706 707
f 695 707 693
f 693 707 708
f 693 708 694
f 694 708 709
f 694 709 703
f 697 698 706
f 706 698 699
f 706 699 710
f 710 699 700
f 710 700 711
f 711 700 25
f 711 25 712
f 712 25 705
f 670 669 26
f 26 669 30
f 25 700 26
f 26 700 670
f 31 524 24
f 24 524 694
f 630 629 9
f 9 629 628
f 9 628 12
f 12 628 627
f 12 627 13
f 13 627 626
f 13 626 2
f 623 3 624
f 624 3 2
f 624 2 625
f 625 2 626
f 618 5 621
f 621 5 3
f 621 3 622
f 622 3 623
f 630 9 631
f 631 9 11
f 631 11 632
f 632 11 37
f 632 37 633
f 633 37 32
f 633 32 634
f 634 32 34
f 634 34 637
f 637 34 635
f 635 34 36
f 635 36 636
f 641 640 28
f 28 640 639
f 28 639 36
f 36 639 638
f 36 638 636
f 649 642 620
f 641 28 620
f 620 28 27
f 620 27 649
f 713 678 27
f 27 678 677
f 27 677 649
f 27 30 669
f 673 674 713
f 713 674 676
f 713 676 678
f 27 669 713
f 713 669 671
f 713 671 673
f 682 707 683
f 683 707 706
f 683 706 684
f 684 706 710
f 684 710 685
f 685 710 711
f 685 711 686
f 686 711 712
f 686 712 687
f 687 712 705
f 687 705 688
f 688 705 704
f 688 704 689
f 689 704 701
f 689 701 690
f 690 701 702
f 690 702 691
f 691 702 703
f 691 703 692
f 692 703 709
f 692 709 681
f 681 709 708
f 681 708 682
f 682 708 707
f 527 562 528
f 528 562 561
f 528 561 529
f 529 561 560
f 529 560 530
f 530 560 559
f 530 559 531
f 531 559 558
f 531 558 532
f 532 558 557
f 532 557 533
f 533 557 556
f 533 556 534
f 534 556 555
f 534 555 535
f 535 555 554
f 535 554 536
f 536 554 553
f 536 553 537
f 537 553 564
f 537 564 526
f 526 564 563
f 526 563 527
f 527 563 562
f 714 715 716
f 716 715 717
f 718 719 720
f 715 714 721
f 721 714 722
f 721 722 723
f 723 722 718
f 723 718 724
f 724 718 720
f 724 720 725
f 725 720 726
f 725 726 727
f 726 728 727
f 727 728 729
f 716 717 730
f 730 717 731
f 730 731 729
f 729 731 732
f 729 732 727
f 715 721 717
f 717 721 733
f 717 733 731
f 734 731 735
f 735 731 733
f 735 733 736
f 736 733 737
f 738 739 740
f 740 739 732
f 734 741 731
f 731 741 742
f 731 742 732
f 732 742 743
f 732 743 740
f 738 744 739
f 739 744 745
f 739 745 733
f 733 745 746
f 733 746 737
f 721 747 733
f 733 747 748
f 749 750 721
f 721 750 751
f 721 751 747
f 748 752 733
f 733 752 753
f 733 753 739
f 739 753 754
f 739 754 755
f 723 756 757
f 757 758 723
f 723 758 759
f 723 759 760
f 761 762 755
f 755 762 763
f 755 763 764
f 749 721 765
f 765 721 723
f 765 723 766
f 766 723 760
f 766 760 761
f 761 760 767
f 761 767 762
f 768 739 769
f 769 739 770
f 764 771 755
f 755 771 772
f 755 772 739
f 739 772 773
f 739 773 770
f 774 775 727
f 727 775 776
f 727 776 725
f 725 776 777
f 777 778 725
f 725 778 779
f 725 779 739
f 739 779 780
f 732 781 727
f 727 781 782
f 727 782 774
f 780 783 739
f 739 783 784
f 739 784 732
f 732 784 785
f 732 785 781
f 786 724 787
f 787 724 725
f 787 725 788
f 788 725 789
f 768 756 739
f 739 756 723
f 739 723 790
f 790 723 791
f 786 792 724
f 724 792 793
f 724 793 723
f 723 793 794
f 723 794 791
f 790 795 739
f 739 795 796
f 739 796 725
f 725 796 797
f 725 797 789
f 728 726 719
f 719 726 720
f 798 799 800
f 801 799 798
f 798 802 803
f 804 802 798
f 800 804 798
f 798 805 806
f 807 805 798
f 803 807 798
f 798 808 809
f 810 808 798
f 806 810 798
f 809 801 798
f 801 811 799
f 799 811 812
f 799 812 800
f 800 812 813
f 800 813 804
f 804 813 814
f 804 814 802
f 802 814 815
f 802 815 803
f 803 815 816
f 803 816 807
f 807 816 817
f 807 817 805
f 805 817 818
f 805 818 806
f 806 818 819
f 806 819 810
f 810 819 820
f 810 820 808
f 808 820 821
f 808 821 809
f 809 821 822
f 809 822 801
f 801 822 811
f 812 741 813
f 813 741 734
f 813 734 814
f 814 734 735
f 814 735 815
f 815 735 736
f 815 736 816
f 816 736 737
f 816 737 817
f 817 737 746
f 817 746 818
f 818 746 745
f 818 745 819
f 819 745 744
f 819 744 820
f 820 744 738
f 820 738 821
f 821 738 740
f 821 740 822
f 822 740 743
f 822 743 811
f 811 743 742
f 811 742 812
f 812 742 741
f 823 824 825
f 826 824 823
f 823 827 828
f 829 827 823
f 825 829 823
f 823 830 831
f 832 830 823
f 828 832 823
f 823 833 834
f 835 833 823
f 831 835 823
f 834 826 823
f 826 836 824
f 824 836 837
f 824 837 825
f 825 837 838
f 825 838 829
f 829 838 839
f 829 839 827
f 827 839 840
f 827 840 828
f 828 840 841
f 828 841 832
f 832 841 842
f 832 842 830
f 830 842 843
f 830 843 831
f 831 843 844
f 831 844 835
f 835 844 845
f 835 845 833
f 833 845 846
f 833 846 834
f 834 846 847
f 834 847 826
f 826 847 836
f 837 796 838
f 838 796 795
f 838 795 839
f 839 795 790
f 839 790 840
f 840 790 791
f 840 791 841
f 841 791 794
f 841 794 842
f 842 794 793
f 842 793 843
f 843 793 792
f 843 792 844
f 844 792 786
f 844 786 845
f 845 786 787
f 845 787 846
f 846 787 788
f 846 788 847
f 847 788 789
f 847 789 836
f 836 789 797
f 836 797 837
f 837 797 796
f 848 849 850
f 851 849 848
f 848 852 853
f 854 852 848
f 850 854 848
f 848 855 856
f 857 855 848
f 853 857 848
f 848 858 859
f 860 858 848
f 856 860 848
f 859 851 848
f 851 861 849
f 849 861 862
f 849 862 850
f 850 862 863
f 850 863 854
f 854 863 864
f 854 864 852
f 852 864 865
f 852 865 853
f 853 865 866
f 853 866 857
f 857 866 867
f 857 867 855
f 855 867 868
f 855 868 856
f 856 868 869
f 856 869 860
f 860 869 870
f 860 870 858
f 858 870 871
f 858 871 859
f 859 871 872
f 859 872 851
f 851 872 861
f 862 781 863
f 863 781 785
f 863 785 864
f 864 785 784
f 864 784 865
f 865 784 783
f 865 783 866
f 866 783 780
f 866 780 867
f 867 780 779
f 867 779 868
f 868 779 778
f 868 778 869
f 869 778 777
f 869 777 870
f 870 777 776
f 870 776 871
f 871 776 775
f 871 775 872
f 872 775 774
f 872 774 861
f 861 774 782
f 861 782 862
f 862 782 781
f 873 874 875
f 876 874 873
f 873 877 878
f 879 877 873
f 875 879 873
f 873 880 881
f 882 880 873
f 878 882 873
f 873 883 884
f 885 883 873
f 881 885 873
f 884 876 873
f 876 886 874
f 874 886 887
f 874 887 875
f 875 887 888
f 875 888 879
f 879 888 889
f 879 889 877
f 877 889 890
f 877 890 878
f 878 890 891
f 878 891 882
f 882 891 892
f 882 892 880
f 880 892 893
f 880 893 881
f 881 893 894
f 881 894 885
f 885 894 895
f 885 895 883
f 883 895 896
f 883 896 884
f 884 896 897
f 884 897 876
f 876 897 886
f 887 752 888
f 888 752 748
f 888 748 889
f 889 748 747
f 889 747 890
f 890 747 751
f 890 751 891
f 891 751 750
f 891 750 892
f 892 750 749
f 892 749 893
f 893 749 765
f 893 765 894
f 894 765 766
f 894 766 895
f 895 766 761
f 895 761 896
f 896 761 755
f 896 755 897
f 897 755 754
f 897 754 886
f 886 754 753
f 886 753 887
f 887 753 752
f 898 899 768
f 768 899 900
f 768 900 756
f 756 900 901
f 756 901 757
f 757 901 902
f 757 902 758
f 758 902 903
f 758 903 759
f 759 903 904
f 759 904 760
f 760 904 905
f 760 905 767
f 767 905 906
f 767 906 762
f 762 906 907
f 762 907 763
f 763 907 908
f 763 908 764
f 764 908 909
f 764 909 771
f 771 909 910
f 771 910 772
f 772 910 911
f 772 911 773
f 773 911 912
f 773 912 770
f 770 912 913
f 770 913 769
f 769 913 898
f 769 898 768
f 714 716 722
f 722 716 730
f 718 729 719
f 719 729 728
f 730 908 722
f 722 908 907
f 898 913 729
f 907 906 722
f 722 906 905
f 722 905 718
f 729 913 730
f 730 913 912
f 730 912 911
f 905 904 718
f 718 904 903
f 718 903 902
f 911 910 730
f 730 910 909
f 730 909 908
f 902 901 718
f 718 901 900
f 718 900 729
f 729 900 899
f 729 899 898
