mtllib converted_link2_5_d12626ff.mtl
usemtl material
v -0.00016774186224211007 -0.0001598537783138454 -5.0010159611701965e-05
v -0.00016774186224211007 -0.0001598537783138454 -5.0010159611701965e-05
v -0.00016774186224211007 -0.0001598537783138454 -5.0010159611701965e-05
v -0.00016774186224211007 -0.0001598537783138454 5.0010159611701965e-05
v -0.00016774186224211007 -0.0001598537783138454 5.0010159611701965e-05
v -0.00018845447630155832 -0.0001356542925350368 5.0010159611701965e-05
v -0.00018845447630155832 -0.0001356542925350368 5.0010159611701965e-05
v -0.00018845447630155832 -0.0001356542925350368 -5.0010159611701965e-05
v -0.00018845447630155832 -0.0001356542925350368 -5.0010159611701965e-05
v -0.00018845447630155832 -0.0001356542925350368 -5.0010159611701965e-05
v -0.00020553120702970773 -0.00010889553232118487 5.0010159611701965e-05
v -0.00020553120702970773 -0.00010889553232118487 5.0010159611701965e-05
v -0.00020553120702970773 -0.00010889553232118487 -5.0010159611701965e-05
v -0.00020553120702970773 -0.00010889553232118487 -5.0010159611701965e-05
v -0.00020553120702970773 -0.00010889553232118487 -5.0010159611701965e-05
v -0.00021894225210417062 -8.016609353944659e-05 5.0010159611701965e-05
v -0.00021894225210417062 -8.016609353944659e-05 5.0010159611701965e-05
v -0.00021894225210417062 -8.016609353944659e-05 5.0010159611701965e-05
v -0.00021894225210417062 -8.016609353944659e-05 -5.0010159611701965e-05
v -0.00021894225210417062 -8.016609353944659e-05 -5.0010159611701965e-05
v -0.00021894225210417062 -8.016609353944659e-05 -5.0010159611701965e-05
v -0.00022815116972196847 -5.006574792787433e-05 5.0010159611701965e-05
v -0.00022815116972196847 -5.006574792787433e-05 5.0010159611701965e-05
v -0.00022815116972196847 -5.006574792787433e-05 -5.0010159611701965e-05
v -0.00022815116972196847 -5.006574792787433e-05 -5.0010159611701965e-05
v -0.0002330387505935505 -1.906388388306368e-05 5.0010159611701965e-05
v -0.0002330387505935505 -1.906388388306368e-05 5.0010159611701965e-05
v -0.0002330387505935505 -1.906388388306368e-05 5.0010159611701965e-05
v -0.0002330387505935505 -1.906388388306368e-05 5.0010159611701965e-05
v -0.0002330387505935505 -1.906388388306368e-05 5.0010159611701965e-05
v -0.0002330387505935505 -1.906388388306368e-05 5.0010159611701965e-05
v -0.0002330387505935505 -1.906388388306368e-05 -5.0010159611701965e-05
v -0.0002330387505935505 -1.906388388306368e-05 -5.0010159611701965e-05
v -0.0002330387505935505 -1.906388388306368e-05 -5.0010159611701965e-05
v -0.0002330387505935505 -1.906388388306368e-05 -5.0010159611701965e-05
v -0.0002330387505935505 -1.906388388306368e-05 -5.0010159611701965e-05
v -0.0002330387505935505 -1.906388388306368e-05 -5.0010159611701965e-05
v -0.0002330387505935505 -1.906388388306368e-05 -5.0010159611701965e-05
v -0.0002330387505935505 -1.906388388306368e-05 -5.0010159611701965e-05
v -0.0002330387505935505 -1.906388388306368e-05 -5.0010159611701965e-05
v -0.0002330387505935505 -1.906388388306368e-05 -5.0010159611701965e-05
v -0.00023384341329801828 3.6350581922306446e-07 5.0010159611701965e-05
v -0.00023384341329801828 3.6350581922306446e-07 5.0010159611701965e-05
v -0.00023384341329801828 3.6350581922306446e-07 5.0010159611701965e-05
v -0.00023384341329801828 3.6350581922306446e-07 -5.0010159611701965e-05
v -0.00023384341329801828 3.6350581922306446e-07 -5.0010159611701965e-05
v -0.0002317572507308796 3.093323903158307e-05 5.0010159611701965e-05
v -0.0002317572507308796 3.093323903158307e-05 5.0010159611701965e-05
v -0.0002317572507308796 3.093323903158307e-05 5.0010159611701965e-05
v -0.0002317572507308796 3.093323903158307e-05 -5.0010159611701965e-05
v -0.0002317572507308796 3.093323903158307e-05 -5.0010159611701965e-05
v -0.0002317572507308796 3.093323903158307e-05 -5.0010159611701965e-05
v -0.00022564777464140207 6.032577948644757e-05 5.0010159611701965e-05
v -0.00022564777464140207 6.032577948644757e-05 5.0010159611701965e-05
v -0.00022564777464140207 6.032577948644757e-05 5.0010159611701965e-05
v -0.00022564777464140207 6.032577948644757e-05 -5.0010159611701965e-05
v -0.00022564777464140207 6.032577948644757e-05 -5.0010159611701965e-05
v -0.00022564777464140207 6.032577948644757e-05 -5.0010159611701965e-05
v -0.00021575340360868722 8.875346975401044e-05 5.0010159611701965e-05
v -0.00021575340360868722 8.875346975401044e-05 5.0010159611701965e-05
v -0.00021575340360868722 8.875346975401044e-05 5.0010159611701965e-05
v -0.00021575340360868722 8.875346975401044e-05 -5.0010159611701965e-05
v -0.00021575340360868722 8.875346975401044e-05 -5.0010159611701965e-05
v -0.00021575340360868722 8.875346975401044e-05 -5.0010159611701965e-05
v -0.0002018357190536335 0.00011575437383726239 5.0010159611701965e-05
v -0.0002018357190536335 0.00011575437383726239 5.0010159611701965e-05
v -0.0002018357190536335 0.00011575437383726239 -5.0010159611701965e-05
v -0.0002018357190536335 0.00011575437383726239 -5.0010159611701965e-05
v -0.0002018357190536335 0.00011575437383726239 -5.0010159611701965e-05
v -0.00018434175581205636 0.00014090380864217877 5.0010159611701965e-05
v -0.00018434175581205636 0.00014090380864217877 5.0010159611701965e-05
v -0.00018434175581205636 0.00014090380864217877 5.0010159611701965e-05
v -0.00018434175581205636 0.00014090380864217877 -5.0010159611701965e-05
v -0.00018434175581205636 0.00014090380864217877 -5.0010159611701965e-05
v -0.00018434175581205636 0.00014090380864217877 -5.0010159611701965e-05
v -0.00016324171156156808 0.00016379571752622724 5.0010159611701965e-05
v -0.00016324171156156808 0.00016379571752622724 5.0010159611701965e-05
v -0.00016324171156156808 0.00016379571752622724 5.0010159611701965e-05
v -0.00016324171156156808 0.00016379571752622724 -5.0010159611701965e-05
v -0.00016324171156156808 0.00016379571752622724 -5.0010159611701965e-05
v -0.00016324171156156808 0.00016379571752622724 -5.0010159611701965e-05
v -0.00013934024900663644 0.00018358445959165692 5.0010159611701965e-05
v -0.00013934024900663644 0.00018358445959165692 5.0010159611701965e-05
v -0.00013934024900663644 0.00018358445959165692 -5.0010159611701965e-05
v -0.00013934024900663644 0.00018358445959165692 -5.0010159611701965e-05
v -0.00013934024900663644 0.00018358445959165692 -5.0010159611701965e-05
v -0.00011275657016085461 0.00020003534154966474 5.0010159611701965e-05
v -0.00011275657016085461 0.00020003534154966474 5.0010159611701965e-05
v -0.00011275657016085461 0.00020003534154966474 5.0010159611701965e-05
v -0.00011275657016085461 0.00020003534154966474 -5.0010159611701965e-05
v -0.00011275657016085461 0.00020003534154966474 -5.0010159611701965e-05
v -0.00011275657016085461 0.00020003534154966474 -5.0010159611701965e-05
v -8.42357476358302e-05 0.00021261564688757062 5.0010159611701965e-05
v -8.42357476358302e-05 0.00021261564688757062 5.0010159611701965e-05
v -8.42357476358302e-05 0.00021261564688757062 5.0010159611701965e-05
v -8.42357476358302e-05 0.00021261564688757062 -5.0010159611701965e-05
v -8.42357476358302e-05 0.00021261564688757062 -5.0010159611701965e-05
v -8.42357476358302e-05 0.00021261564688757062 -5.0010159611701965e-05
v -5.43440219189506e-05 0.00022107578115537763 5.0010159611701965e-05
v -5.43440219189506e-05 0.00022107578115537763 5.0010159611701965e-05
v -5.43440219189506e-05 0.00022107578115537763 5.0010159611701965e-05
v -5.43440219189506e-05 0.00022107578115537763 -5.0010159611701965e-05
v -5.43440219189506e-05 0.00022107578115537763 -5.0010159611701965e-05
v -5.43440219189506e-05 0.00022107578115537763 -5.0010159611701965e-05
v -2.343901178392116e-05 0.00022531516151502728 5.0010159611701965e-05
v -2.343901178392116e-05 0.00022531516151502728 5.0010159611701965e-05
v -2.343901178392116e-05 0.00022531516151502728 5.0010159611701965e-05
v -2.343901178392116e-05 0.00022531516151502728 -5.0010159611701965e-05
v -2.343901178392116e-05 0.00022531516151502728 -5.0010159611701965e-05
v -2.343901178392116e-05 0.00022531516151502728 -5.0010159611701965e-05
v -8.359037565242033e-06 0.00022584415273740888 5.0010159611701965e-05
v -8.359037565242033e-06 0.00022584415273740888 5.0010159611701965e-05
v -8.359037565242033e-06 0.00022584415273740888 5.0010159611701965e-05
v -8.359037565242033e-06 0.00022584415273740888 -5.0010159611701965e-05
v -8.359037565242033e-06 0.00022584415273740888 -5.0010159611701965e-05
v -8.359037565242033e-06 0.00022584415273740888 -5.0010159611701965e-05
v 8.15144903754117e-06 0.00022584415273740888 -5.0010159611701965e-05
v 8.15144903754117e-06 0.00022584415273740888 -5.0010159611701965e-05
v 8.15144903754117e-06 0.00022584415273740888 -5.0010159611701965e-05
v 8.15144903754117e-06 0.00022584415273740888 -5.0010159611701965e-05
v 8.15144903754117e-06 0.00022584415273740888 -5.0010159611701965e-05
v 8.15144903754117e-06 0.00022584415273740888 -5.0010159611701965e-05
v 8.15144903754117e-06 0.00022584415273740888 -5.0010159611701965e-05
v 8.15144903754117e-06 0.00022584415273740888 -5.0010159611701965e-05
v 8.15144903754117e-06 0.00022584415273740888 -5.0010159611701965e-05
v 8.15144903754117e-06 0.00022584415273740888 -5.0010159611701965e-05
v 8.15144903754117e-06 0.00022584415273740888 -5.0010159611701965e-05
v 8.15144903754117e-06 0.00022584415273740888 5.0010159611701965e-05
v 8.15144903754117e-06 0.00022584415273740888 5.0010159611701965e-05
v 8.15144903754117e-06 0.00022584415273740888 5.0010159611701965e-05
v 8.15144903754117e-06 0.00022584415273740888 5.0010159611701965e-05
v 8.15144903754117e-06 0.00022584415273740888 5.0010159611701965e-05
v 8.15144903754117e-06 0.00022584415273740888 5.0010159611701965e-05
v 8.15144903754117e-06 0.00022584415273740888 5.0010159611701965e-05
v 8.15144903754117e-06 0.00022584415273740888 5.0010159611701965e-05
v 8.15144903754117e-06 0.00022584415273740888 5.0010159611701965e-05
v 8.15144903754117e-06 0.00022584415273740888 5.0010159611701965e-05
v 3.896704947692342e-05 0.00022376544075086713 5.0010159611701965e-05
v 3.896704947692342e-05 0.00022376544075086713 5.0010159611701965e-05
v 3.896704947692342e-05 0.00022376544075086713 -5.0010159611701965e-05
v 3.896704947692342e-05 0.00022376544075086713 -5.0010159611701965e-05
v 3.896704947692342e-05 0.00022376544075086713 -5.0010159611701965e-05
v 6.826273602200672e-05 0.00021774537162855268 5.0010159611701965e-05
v 6.826273602200672e-05 0.00021774537162855268 5.0010159611701965e-05
v 6.826273602200672e-05 0.00021774537162855268 5.0010159611701965e-05
v 6.826273602200672e-05 0.00021774537162855268 -5.0010159611701965e-05
v 6.826273602200672e-05 0.00021774537162855268 -5.0010159611701965e-05
v 6.826273602200672e-05 0.00021774537162855268 -5.0010159611701965e-05
v 9.666434925748035e-05 0.00020778394537046552 5.0010159611701965e-05
v 9.666434925748035e-05 0.00020778394537046552 5.0010159611701965e-05
v 9.666434925748035e-05 0.00020778394537046552 5.0010159611701965e-05
v 9.666434925748035e-05 0.00020778394537046552 -5.0010159611701965e-05
v 9.666434925748035e-05 0.00020778394537046552 -5.0010159611701965e-05
v 9.666434925748035e-05 0.00020778394537046552 -5.0010159611701965e-05
v 0.00012345662980806082 0.00019407487707212567 5.0010159611701965e-05
v 0.00012345662980806082 0.00019407487707212567 5.0010159611701965e-05
v 0.00012345662980806082 0.00019407487707212567 5.0010159611701965e-05
v 0.00012345662980806082 0.00019407487707212567 -5.0010159611701965e-05
v 0.00012345662980806082 0.00019407487707212567 -5.0010159611701965e-05
v 0.00012345662980806082 0.00019407487707212567 -5.0010159611701965e-05
v 0.00014855018525850028 0.00017667404608801007 5.0010159611701965e-05
v 0.00014855018525850028 0.00017667404608801007 5.0010159611701965e-05
v 0.00014855018525850028 0.00017667404608801007 -5.0010159611701965e-05
v 0.00014855018525850028 0.00017667404608801007 -5.0010159611701965e-05
v 0.00014855018525850028 0.00017667404608801007 -5.0010159611701965e-05
v 0.0001675640669418499 0.00015980593161657453 5.0010159611701965e-05
v 0.0001675640669418499 0.00015980593161657453 5.0010159611701965e-05
v 0.0001675640669418499 0.00015980593161657453 -5.0010159611701965e-05
v 0.0001675640669418499 0.00015980593161657453 -5.0010159611701965e-05
v 0.0001675640669418499 0.00015980593161657453 -5.0010159611701965e-05
v 0.0001878594484878704 0.0001367352087981999 5.0010159611701965e-05
v 0.0001878594484878704 0.0001367352087981999 5.0010159611701965e-05
v 0.0001878594484878704 0.0001367352087981999 5.0010159611701965e-05
v 0.0001878594484878704 0.0001367352087981999 -5.0010159611701965e-05
v 0.0001878594484878704 0.0001367352087981999 -5.0010159611701965e-05
v 0.0001878594484878704 0.0001367352087981999 -5.0010159611701965e-05
v 0.00020475736528169364 0.00011104560690000653 5.0010159611701965e-05
v 0.00020475736528169364 0.00011104560690000653 5.0010159611701965e-05
v 0.00020475736528169364 0.00011104560690000653 5.0010159611701965e-05
v 0.00020475736528169364 0.00011104560690000653 5.0010159611701965e-05
v 0.00020475736528169364 0.00011104560690000653 -5.0010159611701965e-05
v 0.00020475736528169364 0.00011104560690000653 -5.0010159611701965e-05
v 0.00020475736528169364 0.00011104560690000653 -5.0010159611701965e-05
v 0.00021804920106660575 8.315435843542218e-05 5.0010159611701965e-05
v 0.00021804920106660575 8.315435843542218e-05 5.0010159611701965e-05
v 0.00021804920106660575 8.315435843542218e-05 -5.0010159611701965e-05
v 0.00021804920106660575 8.315435843542218e-05 -5.0010159611701965e-05
v 0.00022746673494111747 5.352339940145612e-05 5.0010159611701965e-05
v 0.00022746673494111747 5.352339940145612e-05 5.0010159611701965e-05
v 0.00022746673494111747 5.352339940145612e-05 5.0010159611701965e-05
v 0.00022746673494111747 5.352339940145612e-05 -5.0010159611701965e-05
v 0.00022746673494111747 5.352339940145612e-05 -5.0010159611701965e-05
v 0.00023256293206941336 2.2715246814186685e-05 5.0010159611701965e-05
v 0.00023256293206941336 2.2715246814186685e-05 5.0010159611701965e-05
v 0.00023256293206941336 2.2715246814186685e-05 5.0010159611701965e-05
v 0.00023256293206941336 2.2715246814186685e-05 5.0010159611701965e-05
v 0.00023256293206941336 2.2715246814186685e-05 5.0010159611701965e-05
v 0.00023256293206941336 2.2715246814186685e-05 5.0010159611701965e-05
v 0.00023256293206941336 2.2715246814186685e-05 5.0010159611701965e-05
v 0.00023256293206941336 2.2715246814186685e-05 -5.0010159611701965e-05
v 0.00023256293206941336 2.2715246814186685e-05 -5.0010159611701965e-05
v 0.00023256293206941336 2.2715246814186685e-05 -5.0010159611701965e-05
v 0.00023256293206941336 2.2715246814186685e-05 -5.0010159611701965e-05
v 0.00023256293206941336 2.2715246814186685e-05 -5.0010159611701965e-05
v 0.00023256293206941336 2.2715246814186685e-05 -5.0010159611701965e-05
v 0.00023256293206941336 2.2715246814186685e-05 -5.0010159611701965e-05
v 0.00023256293206941336 2.2715246814186685e-05 -5.0010159611701965e-05
v 0.00023375502496492118 3.6350581922306446e-07 5.0010159611701965e-05
v 0.00023375502496492118 3.6350581922306446e-07 5.0010159611701965e-05
v 0.00023375502496492118 3.6350581922306446e-07 5.0010159611701965e-05
v 0.00023375502496492118 3.6350581922306446e-07 -5.0010159611701965e-05
v 0.00023375502496492118 3.6350581922306446e-07 -5.0010159611701965e-05
v 0.0002316688623977825 -3.0515426260535605e-05 5.0010159611701965e-05
v 0.0002316688623977825 -3.0515426260535605e-05 5.0010159611701965e-05
v 0.0002316688623977825 -3.0515426260535605e-05 5.0010159611701965e-05
v 0.0002316688623977825 -3.0515426260535605e-05 -5.0010159611701965e-05
v 0.0002316688623977825 -3.0515426260535605e-05 -5.0010159611701965e-05
v 0.0002316688623977825 -3.0515426260535605e-05 -5.0010159611701965e-05
v 0.00022555938630830497 -6.013520760461688e-05 5.0010159611701965e-05
v 0.00022555938630830497 -6.013520760461688e-05 5.0010159611701965e-05
v 0.00022555938630830497 -6.013520760461688e-05 5.0010159611701965e-05
v 0.00022555938630830497 -6.013520760461688e-05 -5.0010159611701965e-05
v 0.00022555938630830497 -6.013520760461688e-05 -5.0010159611701965e-05
v 0.00022555938630830497 -6.013520760461688e-05 -5.0010159611701965e-05
v 0.00021554580598603934 -8.868583245202899e-05 5.0010159611701965e-05
v 0.00021554580598603934 -8.868583245202899e-05 5.0010159611701965e-05
v 0.00021554580598603934 -8.868583245202899e-05 5.0010159611701965e-05
v 0.00021554580598603934 -8.868583245202899e-05 -5.0010159611701965e-05
v 0.00021554580598603934 -8.868583245202899e-05 -5.0010159611701965e-05
v 0.00021554580598603934 -8.868583245202899e-05 -5.0010159611701965e-05
v 0.00020165792375337332 -0.00011580594582483172 5.0010159611701965e-05
v 0.00020165792375337332 -0.00011580594582483172 5.0010159611701965e-05
v 0.00020165792375337332 -0.00011580594582483172 5.0010159611701965e-05
v 0.00020165792375337332 -0.00011580594582483172 -5.0010159611701965e-05
v 0.00020165792375337332 -0.00011580594582483172 -5.0010159611701965e-05
v 0.00020165792375337332 -0.00011580594582483172 -5.0010159611701965e-05
v 0.00018425336747895926 -0.0001409665565006435 5.0010159611701965e-05
v 0.00018425336747895926 -0.0001409665565006435 5.0010159611701965e-05
v 0.00018425336747895926 -0.0001409665565006435 5.0010159611701965e-05
v 0.00018425336747895926 -0.0001409665565006435 -5.0010159611701965e-05
v 0.00018425336747895926 -0.0001409665565006435 -5.0010159611701965e-05
v 0.00018425336747895926 -0.0001409665565006435 -5.0010159611701965e-05
v 0.00016324273019563407 -0.0001638435642234981 5.0010159611701965e-05
v 0.00016324273019563407 -0.0001638435642234981 5.0010159611701965e-05
v 0.00016324273019563407 -0.0001638435642234981 5.0010159611701965e-05
v 0.00016324273019563407 -0.0001638435642234981 -5.0010159611701965e-05
v 0.00016324273019563407 -0.0001638435642234981 -5.0010159611701965e-05
v 0.00016324273019563407 -0.0001638435642234981 -5.0010159611701965e-05
v 0.00013934126764070243 -0.00018363603157922626 5.0010159611701965e-05
v 0.00013934126764070243 -0.00018363603157922626 5.0010159611701965e-05
v 0.00013934126764070243 -0.00018363603157922626 5.0010159611701965e-05
v 0.00013934126764070243 -0.00018363603157922626 -5.0010159611701965e-05
v 0.00013934126764070243 -0.00018363603157922626 -5.0010159611701965e-05
v 0.00013934126764070243 -0.00018363603157922626 -5.0010159611701965e-05
v 0.00011296621960354969 -0.00020002358360216022 5.0010159611701965e-05
v 0.00011296621960354969 -0.00020002358360216022 5.0010159611701965e-05
v 0.00011296621960354969 -0.00020002358360216022 5.0010159611701965e-05
v 0.00011296621960354969 -0.00020002358360216022 -5.0010159611701965e-05
v 0.00011296621960354969 -0.00020002358360216022 -5.0010159611701965e-05
v 0.00011296621960354969 -0.00020002358360216022 -5.0010159611701965e-05
v 8.456460636807606e-05 -0.0002126038889400661 5.0010159611701965e-05
v 8.456460636807606e-05 -0.0002126038889400661 5.0010159611701965e-05
v 8.456460636807606e-05 -0.0002126038889400661 5.0010159611701965e-05
v 8.456460636807606e-05 -0.0002126038889400661 -5.0010159611701965e-05
v 8.456460636807606e-05 -0.0002126038889400661 -5.0010159611701965e-05
v 8.456460636807606e-05 -0.0002126038889400661 -5.0010159611701965e-05
v 5.455366408568807e-05 -0.0002210640232078731 5.0010159611701965e-05
v 5.455366408568807e-05 -0.0002210640232078731 5.0010159611701965e-05
v 5.455366408568807e-05 -0.0002210640232078731 5.0010159611701965e-05
v 5.455366408568807e-05 -0.0002210640232078731 -5.0010159611701965e-05
v 5.455366408568807e-05 -0.0002210640232078731 -5.0010159611701965e-05
v 5.455366408568807e-05 -0.0002210640232078731 -5.0010159611701965e-05
v 2.3559250621474348e-05 -0.00022536673350259662 5.0010159611701965e-05
v 2.3559250621474348e-05 -0.00022536673350259662 5.0010159611701965e-05
v 2.3559250621474348e-05 -0.00022536673350259662 5.0010159611701965e-05
v 2.3559250621474348e-05 -0.00022536673350259662 -5.0010159611701965e-05
v 2.3559250621474348e-05 -0.00022536673350259662 -5.0010159611701965e-05
v 2.3559250621474348e-05 -0.00022536673350259662 -5.0010159611701965e-05
v 8.15144903754117e-06 -0.0002258957247249782 5.0010159611701965e-05
v 8.15144903754117e-06 -0.0002258957247249782 5.0010159611701965e-05
v 8.15144903754117e-06 -0.0002258957247249782 5.0010159611701965e-05
v 8.15144903754117e-06 -0.0002258957247249782 -5.0010159611701965e-05
v 8.15144903754117e-06 -0.0002258957247249782 -5.0010159611701965e-05
v 8.15144903754117e-06 -0.0002258957247249782 -5.0010159611701965e-05
v -8.359037565242033e-06 -0.0002258957247249782 -5.0010159611701965e-05
v -8.359037565242033e-06 -0.0002258957247249782 -5.0010159611701965e-05
v -8.359037565242033e-06 -0.0002258957247249782 -5.0010159611701965e-05
v -8.359037565242033e-06 -0.0002258957247249782 -5.0010159611701965e-05
v -8.359037565242033e-06 -0.0002258957247249782 -5.0010159611701965e-05
v -8.359037565242033e-06 -0.0002258957247249782 -5.0010159611701965e-05
v -8.359037565242033e-06 -0.0002258957247249782 -5.0010159611701965e-05
v -8.359037565242033e-06 -0.0002258957247249782 -5.0010159611701965e-05
v -8.359037565242033e-06 -0.0002258957247249782 -5.0010159611701965e-05
v -8.359037565242033e-06 -0.0002258957247249782 -5.0010159611701965e-05
v -8.359037565242033e-06 -0.0002258957247249782 -5.0010159611701965e-05
v -8.359037565242033e-06 -0.0002258957247249782 -5.0010159611701965e-05
v -8.359037565242033e-06 -0.0002258957247249782 5.0010159611701965e-05
v -8.359037565242033e-06 -0.0002258957247249782 5.0010159611701965e-05
v -8.359037565242033e-06 -0.0002258957247249782 5.0010159611701965e-05
v -8.359037565242033e-06 -0.0002258957247249782 5.0010159611701965e-05
v -8.359037565242033e-06 -0.0002258957247249782 5.0010159611701965e-05
v -8.359037565242033e-06 -0.0002258957247249782 5.0010159611701965e-05
v -8.359037565242033e-06 -0.0002258957247249782 5.0010159611701965e-05
v -8.359037565242033e-06 -0.0002258957247249782 5.0010159611701965e-05
v -8.359037565242033e-06 -0.0002258957247249782 5.0010159611701965e-05
v -3.884681427734904e-05 -0.000223813287448138 5.0010159611701965e-05
v -3.884681427734904e-05 -0.000223813287448138 5.0010159611701965e-05
v -3.884681427734904e-05 -0.000223813287448138 -5.0010159611701965e-05
v -3.884681427734904e-05 -0.000223813287448138 -5.0010159611701965e-05
v -3.884681427734904e-05 -0.000223813287448138 -5.0010159611701965e-05
v -6.823190051363781e-05 -0.00021773361368104815 5.0010159611701965e-05
v -6.823190051363781e-05 -0.00021773361368104815 5.0010159611701965e-05
v -6.823190051363781e-05 -0.00021773361368104815 5.0010159611701965e-05
v -6.823190051363781e-05 -0.00021773361368104815 -5.0010159611701965e-05
v -6.823190051363781e-05 -0.00021773361368104815 -5.0010159611701965e-05
v -6.823190051363781e-05 -0.00021773361368104815 -5.0010159611701965e-05
v -9.663351374911144e-05 -0.00020777591271325946 5.0010159611701965e-05
v -9.663351374911144e-05 -0.00020777591271325946 5.0010159611701965e-05
v -9.663351374911144e-05 -0.00020777591271325946 5.0010159611701965e-05
v -9.663351374911144e-05 -0.00020777591271325946 -5.0010159611701965e-05
v -9.663351374911144e-05 -0.00020777591271325946 -5.0010159611701965e-05
v -9.663351374911144e-05 -0.00020777591271325946 -5.0010159611701965e-05
v -0.00012384304136503488 -0.00019394390983507037 5.0010159611701965e-05
v -0.00012384304136503488 -0.00019394390983507037 5.0010159611701965e-05
v -0.00012384304136503488 -0.00019394390983507037 5.0010159611701965e-05
v -0.00012384304136503488 -0.00019394390983507037 -5.0010159611701965e-05
v -0.00012384304136503488 -0.00019394390983507037 -5.0010159611701965e-05
v -0.00012384304136503488 -0.00019394390983507037 -5.0010159611701965e-05
v -0.0001490558061050251 -0.00017648347420617938 5.0010159611701965e-05
v -0.0001490558061050251 -0.00017648347420617938 5.0010159611701965e-05
v -0.0001490558061050251 -0.00017648347420617938 -5.0010159611701965e-05
v -0.0001490558061050251 -0.00017648347420617938 -5.0010159611701965e-05
v -0.0001490558061050251 -0.00017648347420617938 -5.0010159611701965e-05
f 1 4 6
f 1 6 10
f 10 6 11
f 10 11 15
f 15 11 18
f 15 18 20
f 20 18 22
f 20 22 25
f 25 22 31
f 25 31 33
f 33 31 44
f 33 44 46
f 46 44 49
f 46 49 51
f 51 49 53
f 51 53 56
f 56 53 60
f 56 60 63
f 63 60 66
f 63 66 68
f 68 66 70
f 68 70 73
f 73 70 77
f 73 77 81
f 81 77 82
f 81 82 84
f 84 82 88
f 84 88 90
f 90 88 93
f 90 93 97
f 97 93 101
f 97 101 102
f 102 101 105
f 102 105 110
f 110 105 111
f 110 111 115
f 119 115 135
f 135 115 111
f 119 135 139
f 119 139 141
f 141 139 143
f 141 143 148
f 148 143 149
f 148 149 152
f 152 149 157
f 152 157 158
f 158 157 161
f 158 161 164
f 164 161 167
f 164 167 169
f 169 167 173
f 169 173 176
f 176 173 178
f 176 178 182
f 182 178 185
f 182 185 187
f 187 185 188
f 187 188 192
f 192 188 197
f 192 197 207
f 207 197 210
f 207 210 212
f 212 210 215
f 212 215 218
f 218 215 219
f 218 219 224
f 224 219 226
f 224 226 228
f 228 226 231
f 228 231 236
f 236 231 237
f 236 237 240
f 240 237 243
f 240 243 247
f 247 243 251
f 247 251 254
f 254 251 257
f 254 257 258
f 258 257 261
f 258 261 265
f 265 261 269
f 265 269 271
f 271 269 275
f 271 275 278
f 278 275 279
f 278 279 284
f 285 284 302
f 302 284 279
f 285 302 307
f 285 307 310
f 310 307 313
f 310 313 314
f 314 313 317
f 314 317 321
f 321 317 323
f 321 323 327
f 327 323 330
f 327 330 331
f 331 330 4
f 331 4 1
f 287 114 282
f 282 114 124
f 320 326 35
f 62 69 288
f 289 67 74
f 292 75 79
f 211 217 124
f 117 216 223
f 118 222 229
f 322 34 316
f 328 332 37
f 39 333 3
f 38 2 8
f 45 52 287
f 294 50 58
f 296 57 64
f 203 163 168
f 9 14 34
f 40 13 19
f 36 21 24
f 147 154 204
f 205 153 159
f 206 160 165
f 45 287 34
f 32 293 309
f 41 308 315
f 80 86 287
f 291 85 92
f 290 91 96
f 230 235 124
f 125 234 242
f 123 241 246
f 98 104 287
f 286 103 108
f 295 109 116
f 211 124 206
f 201 122 142
f 202 140 146
f 170 174 206
f 200 175 183
f 206 181 191
f 191 181 186
f 248 252 124
f 127 253 260
f 120 259 264
f 266 270 124
f 126 272 276
f 121 277 283
f 304 112 107
f 113 297 128
f 128 297 280
f 131 281 273
f 72 65 297
f 132 220 214
f 166 162 194
f 239 233 128
f 133 232 227
f 128 225 221
f 166 194 172
f 89 83 297
f 297 83 76
f 299 78 71
f 65 59 297
f 301 61 55
f 303 54 47
f 329 26 5
f 5 26 7
f 23 17 27
f 26 16 12
f 26 12 7
f 329 325 26
f 28 324 319
f 29 318 311
f 162 156 194
f 196 155 151
f 198 150 144
f 48 43 297
f 305 42 30
f 297 26 306
f 306 26 312
f 255 249 128
f 136 250 245
f 137 244 238
f 171 195 179
f 180 193 190
f 177 189 184
f 213 209 128
f 134 208 199
f 128 194 138
f 138 194 145
f 106 99 297
f 298 100 94
f 300 95 87
f 274 267 128
f 130 268 263
f 129 262 256
