mtllib converted_link2_6_161616ff.mtl
usemtl material
v -0.00022185816487763077 6.524702621391043e-05 -5.0010159611701965e-05
v -0.00022185816487763077 6.524702621391043e-05 -5.0010159611701965e-05
v -0.00022185816487763077 6.524702621391043e-05 -5.0010159611701965e-05
v -0.00022185816487763077 6.524702621391043e-05 5.0010159611701965e-05
v -0.00022185816487763077 6.524702621391043e-05 5.0010159611701965e-05
v -0.00022185816487763077 6.524702621391043e-05 5.0010159611701965e-05
v -0.0002120830031344667 9.46377040236257e-05 5.0010159611701965e-05
v -0.0002120830031344667 9.46377040236257e-05 5.0010159611701965e-05
v -0.0002120830031344667 9.46377040236257e-05 5.0010159611701965e-05
v -0.0002120830031344667 9.46377040236257e-05 -5.0010159611701965e-05
v -0.0002120830031344667 9.46377040236257e-05 -5.0010159611701965e-05
v -0.0002120830031344667 9.46377040236257e-05 -5.0010159611701965e-05
v -0.00019828452786896378 0.00012240787327755243 5.0010159611701965e-05
v -0.00019828452786896378 0.00012240787327755243 5.0010159611701965e-05
v -0.00019828452786896378 0.00012240787327755243 5.0010159611701965e-05
v -0.00019828452786896378 0.00012240787327755243 -5.0010159611701965e-05
v -0.00019828452786896378 0.00012240787327755243 -5.0010159611701965e-05
v -0.00019828452786896378 0.00012240787327755243 -5.0010159611701965e-05
v -0.00018046273908112198 0.00014809747517574579 5.0010159611701965e-05
v -0.00018046273908112198 0.00014809747517574579 5.0010159611701965e-05
v -0.00018046273908112198 0.00014809747517574579 -5.0010159611701965e-05
v -0.00018046273908112198 0.00014809747517574579 -5.0010159611701965e-05
v -0.00018046273908112198 0.00014809747517574579 -5.0010159611701965e-05
v -0.00015906467160675675 0.00017116819799412042 5.0010159611701965e-05
v -0.00015906467160675675 0.00017116819799412042 5.0010159611701965e-05
v -0.00015906467160675675 0.00017116819799412042 -5.0010159611701965e-05
v -0.00015906467160675675 0.00017116819799412042 -5.0010159611701965e-05
v -0.00015906467160675675 0.00017116819799412042 -5.0010159611701965e-05
v -0.00013426913938019425 0.00019131643057335168 5.0010159611701965e-05
v -0.00013426913938019425 0.00019131643057335168 5.0010159611701965e-05
v -0.00013426913938019425 0.00019131643057335168 5.0010159611701965e-05
v -0.00013426913938019425 0.00019131643057335168 -5.0010159611701965e-05
v -0.00013426913938019425 0.00019131643057335168 -5.0010159611701965e-05
v -0.00013426913938019425 0.00019131643057335168 -5.0010159611701965e-05
v -0.0001172818083432503 0.00020221662998665124 5.0010159611701965e-05
v -0.0001172818083432503 0.00020221662998665124 5.0010159611701965e-05
v -0.0001172818083432503 0.00020221662998665124 5.0010159611701965e-05
v -0.0001172818083432503 0.00020221662998665124 -5.0010159611701965e-05
v -0.0001172818083432503 0.00020221662998665124 -5.0010159611701965e-05
v -0.0001172818083432503 0.00020221662998665124 -5.0010159611701965e-05
v -8.888019510777667e-05 0.0002161063748644665 5.0010159611701965e-05
v -8.888019510777667e-05 0.0002161063748644665 5.0010159611701965e-05
v -8.888019510777667e-05 0.0002161063748644665 5.0010159611701965e-05
v -8.888019510777667e-05 0.0002161063748644665 -5.0010159611701965e-05
v -8.888019510777667e-05 0.0002161063748644665 -5.0010159611701965e-05
v -8.888019510777667e-05 0.0002161063748644665 -5.0010159611701965e-05
v -5.9584515838650987e-05 0.00022576791525352746 5.0010159611701965e-05
v -5.9584515838650987e-05 0.00022576791525352746 5.0010159611701965e-05
v -5.9584515838650987e-05 0.00022576791525352746 -5.0010159611701965e-05
v -5.9584515838650987e-05 0.00022576791525352746 -5.0010159611701965e-05
v -5.9584515838650987e-05 0.00022576791525352746 -5.0010159611701965e-05
v -2.9156344680814072e-05 0.00023136702657211572 5.0010159611701965e-05
v -2.9156344680814072e-05 0.00023136702657211572 5.0010159611701965e-05
v -2.9156344680814072e-05 0.00023136702657211572 5.0010159611701965e-05
v -2.9156344680814072e-05 0.00023136702657211572 -5.0010159611701965e-05
v -2.9156344680814072e-05 0.00023136702657211572 -5.0010159611701965e-05
v -2.9156344680814072e-05 0.00023136702657211572 -5.0010159611701965e-05
v 1.8380711708232411e-06 0.00023267646611202508 5.0010159611701965e-05
v 1.8380711708232411e-06 0.00023267646611202508 5.0010159611701965e-05
v 1.8380711708232411e-06 0.00023267646611202508 5.0010159611701965e-05
v 1.8380711708232411e-06 0.00023267646611202508 -5.0010159611701965e-05
v 1.8380711708232411e-06 0.00023267646611202508 -5.0010159611701965e-05
v 1.8380711708232411e-06 0.00023267646611202508 -5.0010159611701965e-05
v 3.2921892852755263e-05 0.00022975770116318017 5.0010159611701965e-05
v 3.2921892852755263e-05 0.00022975770116318017 5.0010159611701965e-05
v 3.2921892852755263e-05 0.00022975770116318017 5.0010159611701965e-05
v 3.2921892852755263e-05 0.00022975770116318017 -5.0010159611701965e-05
v 3.2921892852755263e-05 0.00022975770116318017 -5.0010159611701965e-05
v 3.2921892852755263e-05 0.00022975770116318017 -5.0010159611701965e-05
v 6.361828855006024e-05 0.00022248779714573175 5.0010159611701965e-05
v 6.361828855006024e-05 0.00022248779714573175 5.0010159611701965e-05
v 6.361828855006024e-05 0.00022248779714573175 5.0010159611701965e-05
v 6.361828855006024e-05 0.00022248779714573175 -5.0010159611701965e-05
v 6.361828855006024e-05 0.00022248779714573175 -5.0010159611701965e-05
v 6.361828855006024e-05 0.00022248779714573175 -5.0010159611701965e-05
v 9.31225877138786e-05 0.00021092822134960443 5.0010159611701965e-05
v 9.31225877138786e-05 0.00021092822134960443 5.0010159611701965e-05
v 9.31225877138786e-05 0.00021092822134960443 5.0010159611701965e-05
v 9.31225877138786e-05 0.00021092822134960443 -5.0010159611701965e-05
v 9.31225877138786e-05 0.00021092822134960443 -5.0010159611701965e-05
v 0.00012071953824488446 0.000195367683772929 5.0010159611701965e-05
v 0.00012071953824488446 0.000195367683772929 5.0010159611701965e-05
v 0.00012071953824488446 0.000195367683772929 5.0010159611701965e-05
v 0.00012071953824488446 0.000195367683772929 -5.0010159611701965e-05
v 0.00012071953824488446 0.000195367683772929 -5.0010159611701965e-05
v 0.00012071953824488446 0.000195367683772929 -5.0010159611701965e-05
v 0.000145842888741754 0.00017605764151085168 5.0010159611701965e-05
v 0.000145842888741754 0.00017605764151085168 5.0010159611701965e-05
v 0.000145842888741754 0.00017605764151085168 -5.0010159611701965e-05
v 0.000145842888741754 0.00017605764151085168 -5.0010159611701965e-05
v 0.0001681350258877501 0.00015334640920627862 5.0010159611701965e-05
v 0.0001681350258877501 0.00015334640920627862 5.0010159611701965e-05
v 0.0001681350258877501 0.00015334640920627862 -5.0010159611701965e-05
v 0.0001681350258877501 0.00015334640920627862 -5.0010159611701965e-05
v 0.0001681350258877501 0.00015334640920627862 -5.0010159611701965e-05
v 0.00018694029131438583 0.00012753759801853448 5.0010159611701965e-05
v 0.00018694029131438583 0.00012753759801853448 5.0010159611701965e-05
v 0.00018694029131438583 0.00012753759801853448 5.0010159611701965e-05
v 0.00018694029131438583 0.00012753759801853448 5.0010159611701965e-05
v 0.00018694029131438583 0.00012753759801853448 5.0010159611701965e-05
v 0.00018694029131438583 0.00012753759801853448 5.0010159611701965e-05
v 0.00018694029131438583 0.00012753759801853448 5.0010159611701965e-05
v 0.00018694029131438583 0.00012753759801853448 5.0010159611701965e-05
v 0.00018694029131438583 0.00012753759801853448 5.0010159611701965e-05
v 0.00018694029131438583 0.00012753759801853448 5.0010159611701965e-05
v 0.00018694029131438583 0.00012753759801853448 5.0010159611701965e-05
v 0.00018694029131438583 0.00012753759801853448 5.0010159611701965e-05
v 0.00018694029131438583 0.00012753759801853448 5.0010159611701965e-05
v 0.00018694029131438583 0.00012753759801853448 5.0010159611701965e-05
v 0.00018694029131438583 0.00012753759801853448 -5.0010159611701965e-05
v 0.00018694029131438583 0.00012753759801853448 -5.0010159611701965e-05
v 0.00018694029131438583 0.00012753759801853448 -5.0010159611701965e-05
v 0.00018694029131438583 0.00012753759801853448 -5.0010159611701965e-05
v 0.00018694029131438583 0.00012753759801853448 -5.0010159611701965e-05
v 0.00018694029131438583 0.00012753759801853448 -5.0010159611701965e-05
v 0.00018694029131438583 0.00012753759801853448 -5.0010159611701965e-05
v 0.00018694029131438583 0.00012753759801853448 -5.0010159611701965e-05
v 0.00018694029131438583 0.00012753759801853448 -5.0010159611701965e-05
v 0.00018694029131438583 0.00012753759801853448 -5.0010159611701965e-05
v 0.00018694029131438583 0.00012753759801853448 -5.0010159611701965e-05
v 0.00018694029131438583 0.00012753759801853448 -5.0010159611701965e-05
v 0.00018694029131438583 0.00012753759801853448 -5.0010159611701965e-05
v 0.00018694029131438583 0.00012753759801853448 -5.0010159611701965e-05
v 0.00018694029131438583 0.00012753759801853448 -5.0010159611701965e-05
v 0.0001915298489620909 0.00012002742005279288 5.0010159611701965e-05
v 0.0001915298489620909 0.00012002742005279288 5.0010159611701965e-05
v 0.0001915298489620909 0.00012002742005279288 5.0010159611701965e-05
v 0.0001915298489620909 0.00012002742005279288 -5.0010159611701965e-05
v 0.0001915298489620909 0.00012002742005279288 -5.0010159611701965e-05
v 0.0001915298489620909 0.00012002742005279288 -5.0010159611701965e-05
v 0.0001915298489620909 0.00012002742005279288 -5.0010159611701965e-05
v 0.000199934103875421 0.00010565711272647604 -5.0010159611701965e-05
v 0.000199934103875421 0.00010565711272647604 -5.0010159611701965e-05
v 0.000199934103875421 0.00010565711272647604 -5.0010159611701965e-05
v 0.000199934103875421 0.00010565711272647604 -5.0010159611701965e-05
v 0.000199934103875421 0.00010565711272647604 -5.0010159611701965e-05
v 0.000199934103875421 0.00010565711272647604 -5.0010159611701965e-05
v 0.000199934103875421 0.00010565711272647604 -5.0010159611701965e-05
v 0.000199934103875421 0.00010565711272647604 -5.0010159611701965e-05
v 0.000199934103875421 0.00010565711272647604 -5.0010159611701965e-05
v 0.000199934103875421 0.00010565711272647604 -5.0010159611701965e-05
v 0.000199934103875421 0.00010565711272647604 -5.0010159611701965e-05
v 0.000199934103875421 0.00010565711272647604 -5.0010159611701965e-05
v 0.000199934103875421 0.00010565711272647604 -5.0010159611701965e-05
v 0.000199934103875421 0.00010565711272647604 -5.0010159611701965e-05
v 0.000199934103875421 0.00010565711272647604 -5.0010159611701965e-05
v 0.000199934103875421 0.00010565711272647604 5.0010159611701965e-05
v 0.000199934103875421 0.00010565711272647604 5.0010159611701965e-05
v 0.000199934103875421 0.00010565711272647604 5.0010159611701965e-05
v 0.000199934103875421 0.00010565711272647604 5.0010159611701965e-05
v 0.000199934103875421 0.00010565711272647604 5.0010159611701965e-05
v 0.000199934103875421 0.00010565711272647604 5.0010159611701965e-05
v 0.000199934103875421 0.00010565711272647604 5.0010159611701965e-05
v 0.000199934103875421 0.00010565711272647604 5.0010159611701965e-05
v 0.000199934103875421 0.00010565711272647604 5.0010159611701965e-05
v 0.000199934103875421 0.00010565711272647604 5.0010159611701965e-05
v 0.000199934103875421 0.00010565711272647604 5.0010159611701965e-05
v 0.000199934103875421 0.00010565711272647604 5.0010159611701965e-05
v 0.000199934103875421 0.00010565711272647604 5.0010159611701965e-05
v 0.000199934103875421 0.00010565711272647604 5.0010159611701965e-05
v 0.000199934103875421 0.00010565711272647604 5.0010159611701965e-05
v 0.000199934103875421 0.00010565711272647604 5.0010159611701965e-05
v 0.000199934103875421 0.00010565711272647604 5.0010159611701965e-05
v 0.000199934103875421 0.00010565711272647604 5.0010159611701965e-05
v 0.000199934103875421 0.00010565711272647604 5.0010159611701965e-05
v 0.000199934103875421 0.00010565711272647604 5.0010159611701965e-05
v 0.000199934103875421 0.00010565711272647604 5.0010159611701965e-05
v 0.000199934103875421 0.00010565711272647604 5.0010159611701965e-05
v 0.0002151332882931456 7.371647370746359e-05 5.0010159611701965e-05
v 0.0002151332882931456 7.371647370746359e-05 5.0010159611701965e-05
v 0.0002151332882931456 7.371647370746359e-05 5.0010159611701965e-05
v 0.0002151332882931456 7.371647370746359e-05 -5.0010159611701965e-05
v 0.0002151332882931456 7.371647370746359e-05 -5.0010159611701965e-05
v 0.0002151332882931456 7.371647370746359e-05 -5.0010159611701965e-05
v 0.00022511706629302353 3.9797705539967865e-05 5.0010159611701965e-05
v 0.00022511706629302353 3.9797705539967865e-05 5.0010159611701965e-05
v 0.00022511706629302353 3.9797705539967865e-05 5.0010159611701965e-05
v 0.00022511706629302353 3.9797705539967865e-05 -5.0010159611701965e-05
v 0.00022511706629302353 3.9797705539967865e-05 -5.0010159611701965e-05
v 0.00022511706629302353 3.9797705539967865e-05 -5.0010159611701965e-05
v 0.00022961721697356552 4.686842657974921e-06 5.0010159611701965e-05
v 0.00022961721697356552 4.686842657974921e-06 5.0010159611701965e-05
v 0.00022961721697356552 4.686842657974921e-06 -5.0010159611701965e-05
v 0.00022961721697356552 4.686842657974921e-06 -5.0010159611701965e-05
v 0.00022863374033477157 -3.065312193939462e-05 5.0010159611701965e-05
v 0.00022863374033477157 -3.065312193939462e-05 5.0010159611701965e-05
v 0.00022863374033477157 -3.065312193939462e-05 5.0010159611701965e-05
v 0.00022863374033477157 -3.065312193939462e-05 5.0010159611701965e-05
v 0.00022863374033477157 -3.065312193939462e-05 -5.0010159611701965e-05
v 0.00022863374033477157 -3.065312193939462e-05 -5.0010159611701965e-05
v 0.00022863374033477157 -3.065312193939462e-05 -5.0010159611701965e-05
v 0.000222136834054254 -6.540262984344736e-05 5.0010159611701965e-05
v 0.000222136834054254 -6.540262984344736e-05 5.0010159611701965e-05
v 0.000222136834054254 -6.540262984344736e-05 5.0010159611701965e-05
v 0.000222136834054254 -6.540262984344736e-05 -5.0010159611701965e-05
v 0.000222136834054254 -6.540262984344736e-05 -5.0010159611701965e-05
v 0.00021143780031707138 -9.580286132404581e-05 5.0010159611701965e-05
v 0.00021143780031707138 -9.580286132404581e-05 5.0010159611701965e-05
v 0.00021143780031707138 -9.580286132404581e-05 5.0010159611701965e-05
v 0.00021143780031707138 -9.580286132404581e-05 -5.0010159611701965e-05
v 0.00021143780031707138 -9.580286132404581e-05 -5.0010159611701965e-05
v 0.00019653663912322372 -0.0001244727027369663 5.0010159611701965e-05
v 0.00019653663912322372 -0.0001244727027369663 5.0010159611701965e-05
v 0.00019653663912322372 -0.0001244727027369663 5.0010159611701965e-05
v 0.00019653663912322372 -0.0001244727027369663 -5.0010159611701965e-05
v 0.00019653663912322372 -0.0001244727027369663 -5.0010159611701965e-05
v 0.00017793998995330185 -0.00015076207637321204 5.0010159611701965e-05
v 0.00017793998995330185 -0.00015076207637321204 5.0010159611701965e-05
v 0.00017793998995330185 -0.00015076207637321204 5.0010159611701965e-05
v 0.00017793998995330185 -0.00015076207637321204 -5.0010159611701965e-05
v 0.00017793998995330185 -0.00015076207637321204 -5.0010159611701965e-05
v 0.0001560352829983458 -0.0001740022999001667 5.0010159611701965e-05
v 0.0001560352829983458 -0.0001740022999001667 5.0010159611701965e-05
v 0.0001560352829983458 -0.0001740022999001667 5.0010159611701965e-05
v 0.0001560352829983458 -0.0001740022999001667 -5.0010159611701965e-05
v 0.0001560352829983458 -0.0001740022999001667 -5.0010159611701965e-05
v 0.0001560352829983458 -0.0001740022999001667 -5.0010159611701965e-05
v 0.00013103113451506943 -0.00019373329996597022 5.0010159611701965e-05
v 0.00013103113451506943 -0.00019373329996597022 5.0010159611701965e-05
v 0.00013103113451506943 -0.00019373329996597022 5.0010159611701965e-05
v 0.00013103113451506943 -0.00019373329996597022 -5.0010159611701965e-05
v 0.00013103113451506943 -0.00019373329996597022 -5.0010159611701965e-05
v 0.00013103113451506943 -0.00019373329996597022 -5.0010159611701965e-05
v 0.00011672602704493329 -0.0002027336013270542 5.0010159611701965e-05
v 0.00011672602704493329 -0.0002027336013270542 5.0010159611701965e-05
v 0.00011672602704493329 -0.0002027336013270542 5.0010159611701965e-05
v 0.00011672602704493329 -0.0002027336013270542 -5.0010159611701965e-05
v 0.00011672602704493329 -0.0002027336013270542 -5.0010159611701965e-05
v 0.00011672602704493329 -0.0002027336013270542 -5.0010159611701965e-05
v 8.853303006617352e-05 -0.00021650227427016944 5.0010159611701965e-05
v 8.853303006617352e-05 -0.00021650227427016944 5.0010159611701965e-05
v 8.853303006617352e-05 -0.00021650227427016944 5.0010159611701965e-05
v 8.853303006617352e-05 -0.00021650227427016944 -5.0010159611701965e-05
v 8.853303006617352e-05 -0.00021650227427016944 -5.0010159611701965e-05
v 8.853303006617352e-05 -0.00021650227427016944 -5.0010159611701965e-05
v 5.953536674496718e-05 -0.0002260427427245304 5.0010159611701965e-05
v 5.953536674496718e-05 -0.0002260427427245304 5.0010159611701965e-05
v 5.953536674496718e-05 -0.0002260427427245304 5.0010159611701965e-05
v 5.953536674496718e-05 -0.0002260427427245304 -5.0010159611701965e-05
v 5.953536674496718e-05 -0.0002260427427245304 -5.0010159611701965e-05
v 5.953536674496718e-05 -0.0002260427427245304 -5.0010159611701965e-05
v 2.931581184384413e-05 -0.00023152264475356787 5.0010159611701965e-05
v 2.931581184384413e-05 -0.00023152264475356787 5.0010159611701965e-05
v 2.931581184384413e-05 -0.00023152264475356787 5.0010159611701965e-05
v 2.931581184384413e-05 -0.00023152264475356787 -5.0010159611701965e-05
v 2.931581184384413e-05 -0.00023152264475356787 -5.0010159611701965e-05
v 2.931581184384413e-05 -0.00023152264475356787 -5.0010159611701965e-05
v -1.5593935813740245e-06 -0.00023277247964870185 5.0010159611701965e-05
v -1.5593935813740245e-06 -0.00023277247964870185 5.0010159611701965e-05
v -1.5593935813740245e-06 -0.00023277247964870185 5.0010159611701965e-05
v -1.5593935813740245e-06 -0.00023277247964870185 -5.0010159611701965e-05
v -1.5593935813740245e-06 -0.00023277247964870185 -5.0010159611701965e-05
v -1.5593935813740245e-06 -0.00023277247964870185 -5.0010159611701965e-05
v -3.267301872256212e-05 -0.00022979224740993232 5.0010159611701965e-05
v -3.267301872256212e-05 -0.00022979224740993232 5.0010159611701965e-05
v -3.267301872256212e-05 -0.00022979224740993232 5.0010159611701965e-05
v -3.267301872256212e-05 -0.00022979224740993232 -5.0010159611701965e-05
v -3.267301872256212e-05 -0.00022979224740993232 -5.0010159611701965e-05
v -3.267301872256212e-05 -0.00022979224740993232 -5.0010159611701965e-05
v -6.345881411107257e-05 -0.0002224627387477085 5.0010159611701965e-05
v -6.345881411107257e-05 -0.0002224627387477085 5.0010159611701965e-05
v -6.345881411107257e-05 -0.0002224627387477085 5.0010159611701965e-05
v -6.345881411107257e-05 -0.0002224627387477085 -5.0010159611701965e-05
v -6.345881411107257e-05 -0.0002224627387477085 -5.0010159611701965e-05
v -6.345881411107257e-05 -0.0002224627387477085 -5.0010159611701965e-05
v -9.296311327489093e-05 -0.0002108435583068058 5.0010159611701965e-05
v -9.296311327489093e-05 -0.0002108435583068058 5.0010159611701965e-05
v -9.296311327489093e-05 -0.0002108435583068058 5.0010159611701965e-05
v -9.296311327489093e-05 -0.0002108435583068058 -5.0010159611701965e-05
v -9.296311327489093e-05 -0.0002108435583068058 -5.0010159611701965e-05
v -9.296311327489093e-05 -0.0002108435583068058 -5.0010159611701965e-05
v -0.00012067927309544757 -0.00019522341608535498 5.0010159611701965e-05
v -0.00012067927309544757 -0.00019522341608535498 5.0010159611701965e-05
v -0.00012067927309544757 -0.00019522341608535498 5.0010159611701965e-05
v -0.00012067927309544757 -0.00019522341608535498 -5.0010159611701965e-05
v -0.00012067927309544757 -0.00019522341608535498 -5.0010159611701965e-05
v -0.00012067927309544757 -0.00019522341608535498 -5.0010159611701965e-05
v -0.00014586224278900772 -0.00017591337382327765 5.0010159611701965e-05
v -0.00014586224278900772 -0.00017591337382327765 5.0010159611701965e-05
v -0.00014586224278900772 -0.00017591337382327765 5.0010159611701965e-05
v -0.00014586224278900772 -0.00017591337382327765 -5.0010159611701965e-05
v -0.00014586224278900772 -0.00017591337382327765 -5.0010159611701965e-05
v -0.00014586224278900772 -0.00017591337382327765 -5.0010159611701965e-05
v -0.0001681841822573915 -0.0001531425368739292 5.0010159611701965e-05
v -0.0001681841822573915 -0.0001531425368739292 5.0010159611701965e-05
v -0.0001681841822573915 -0.0001531425368739292 5.0010159611701965e-05
v -0.0001681841822573915 -0.0001531425368739292 -5.0010159611701965e-05
v -0.0001681841822573915 -0.0001531425368739292 -5.0010159611701965e-05
v -0.0001681841822573915 -0.0001531425368739292 -5.0010159611701965e-05
v -0.00018695964536163956 -0.00012739333033096045 5.0010159611701965e-05
v -0.00018695964536163956 -0.00012739333033096045 5.0010159611701965e-05
v -0.00018695964536163956 -0.00012739333033096045 5.0010159611701965e-05
v -0.00018695964536163956 -0.00012739333033096045 -5.0010159611701965e-05
v -0.00018695964536163956 -0.00012739333033096045 -5.0010159611701965e-05
v -0.00018695964536163956 -0.00012739333033096045 -5.0010159611701965e-05
v -0.00019137038907501847 -0.0001201830236823298 5.0010159611701965e-05
v -0.00019137038907501847 -0.0001201830236823298 5.0010159611701965e-05
v -0.00019137038907501847 -0.0001201830236823298 5.0010159611701965e-05
v -0.00019137038907501847 -0.0001201830236823298 -5.0010159611701965e-05
v -0.00019137038907501847 -0.0001201830236823298 -5.0010159611701965e-05
v -0.00019137038907501847 -0.0001201830236823298 -5.0010159611701965e-05
v -0.00019137038907501847 -0.0001201830236823298 -5.0010159611701965e-05
v -0.00019977464398834854 -0.00010581271635601297 -5.0010159611701965e-05
v -0.00019977464398834854 -0.00010581271635601297 -5.0010159611701965e-05
v -0.00019977464398834854 -0.00010581271635601297 -5.0010159611701965e-05
v -0.00019977464398834854 -0.00010581271635601297 -5.0010159611701965e-05
v -0.00019977464398834854 -0.00010581271635601297 5.0010159611701965e-05
v -0.00019977464398834854 -0.00010581271635601297 5.0010159611701965e-05
v -0.00019977464398834854 -0.00010581271635601297 5.0010159611701965e-05
v -0.00019977464398834854 -0.00010581271635601297 5.0010159611701965e-05
v -0.00019977464398834854 -0.00010581271635601297 5.0010159611701965e-05
v -0.00021357311925385147 -7.738316344330087e-05 5.0010159611701965e-05
v -0.00021357311925385147 -7.738316344330087e-05 5.0010159611701965e-05
v -0.00021357311925385147 -7.738316344330087e-05 5.0010159611701965e-05
v -0.00021357311925385147 -7.738316344330087e-05 -5.0010159611701965e-05
v -0.00021357311925385147 -7.738316344330087e-05 -5.0010159611701965e-05
v -0.00021357311925385147 -7.738316344330087e-05 -5.0010159611701965e-05
v -0.00022308006009552628 -4.812287079403177e-05 5.0010159611701965e-05
v -0.00022308006009552628 -4.812287079403177e-05 5.0010159611701965e-05
v -0.00022308006009552628 -4.812287079403177e-05 5.0010159611701965e-05
v -0.00022308006009552628 -4.812287079403177e-05 -5.0010159611701965e-05
v -0.00022308006009552628 -4.812287079403177e-05 -5.0010159611701965e-05
v -0.00022308006009552628 -4.812287079403177e-05 -5.0010159611701965e-05
v -0.00022856368741486222 -1.7962922356673516e-05 5.0010159611701965e-05
v -0.00022856368741486222 -1.7962922356673516e-05 5.0010159611701965e-05
v -0.00022856368741486222 -1.7962922356673516e-05 5.0010159611701965e-05
v -0.00022856368741486222 -1.7962922356673516e-05 -5.0010159611701965e-05
v -0.00022856368741486222 -1.7962922356673516e-05 -5.0010159611701965e-05
v -0.00022856368741486222 -1.7962922356673516e-05 -5.0010159611701965e-05
v -0.00022966637334320694 1.2737194992951117e-05 5.0010159611701965e-05
v -0.00022966637334320694 1.2737194992951117e-05 5.0010159611701965e-05
v -0.00022966637334320694 1.2737194992951117e-05 5.0010159611701965e-05
v -0.00022966637334320694 1.2737194992951117e-05 -5.0010159611701965e-05
v -0.00022966637334320694 1.2737194992951117e-05 -5.0010159611701965e-05
v -0.00022966637334320694 1.2737194992951117e-05 -5.0010159611701965e-05
v -0.00022665633878204972 4.361799074104056e-05 5.0010159611701965e-05
v -0.00022665633878204972 4.361799074104056e-05 5.0010159611701965e-05
v -0.00022665633878204972 4.361799074104056e-05 5.0010159611701965e-05
v -0.00022665633878204972 4.361799074104056e-05 -5.0010159611701965e-05
v -0.00022665633878204972 4.361799074104056e-05 -5.0010159611701965e-05
v -0.00022665633878204972 4.361799074104056e-05 -5.0010159611701965e-05
f 1 6 8
f 1 8 10
f 10 8 13
f 10 13 16
f 16 13 20
f 16 20 23
f 23 20 25
f 23 25 28
f 28 25 29
f 28 29 34
f 34 29 37
f 34 37 38
f 38 37 42
f 38 42 44
f 44 42 47
f 44 47 51
f 51 47 53
f 51 53 55
f 55 53 60
f 55 60 61
f 61 60 66
f 61 66 67
f 67 66 70
f 67 70 75
f 75 70 76
f 75 76 80
f 80 76 83
f 80 83 85
f 85 83 87
f 85 87 89
f 89 87 91
f 89 91 94
f 94 91 100
f 94 100 114
f 114 100 126
f 114 126 131
f 138 131 160
f 160 131 126
f 138 160 169
f 138 169 174
f 174 169 176
f 174 176 179
f 179 176 182
f 179 182 184
f 184 182 187
f 184 187 189
f 189 187 194
f 189 194 195
f 195 194 197
f 195 197 200
f 200 197 202
f 200 202 206
f 206 202 207
f 206 207 210
f 210 207 212
f 210 212 215
f 215 212 220
f 215 220 222
f 222 220 224
f 222 224 229
f 229 224 232
f 229 232 235
f 235 232 238
f 235 238 241
f 241 238 243
f 241 243 247
f 247 243 250
f 247 250 252
f 252 250 254
f 252 254 259
f 259 254 262
f 259 262 263
f 263 262 267
f 263 267 270
f 270 267 273
f 270 273 277
f 277 273 279
f 277 279 281
f 281 279 285
f 281 285 287
f 287 285 291
f 287 291 294
f 294 291 298
f 294 298 301
f 306 301 307
f 307 301 298
f 306 307 313
f 306 313 315
f 315 313 320
f 315 320 323
f 323 320 326
f 323 326 327
f 327 326 330
f 327 330 335
f 335 330 337
f 335 337 339
f 339 337 6
f 339 6 1
f 341 3 122
f 21 27 122
f 118 26 32
f 116 33 40
f 141 300 130
f 128 299 305
f 129 303 122
f 113 304 316
f 117 317 321
f 39 46 122
f 121 45 50
f 115 49 56
f 245 253 136
f 137 251 257
f 140 258 265
f 322 329 112
f 122 328 334
f 111 333 340
f 2 12 119
f 122 11 18
f 110 17 22
f 178 183 191
f 196 201 144
f 144 201 205
f 144 205 211
f 228 233 144
f 146 234 240
f 143 239 246
f 211 217 144
f 142 216 223
f 134 221 227
f 57 63 124
f 123 62 68
f 120 69 74
f 196 144 191
f 191 144 173
f 190 172 180
f 264 271 144
f 145 269 275
f 139 276 282
f 283 288 135
f 133 289 295
f 132 293 302
f 73 79 122
f 122 79 86
f 122 86 93
f 95 84 90
f 314 311 109
f 96 308 127
f 125 309 151
f 150 310 297
f 159 296 292
f 54 48 96
f 255 249 154
f 162 248 244
f 155 242 237
f 52 102 58
f 48 43 96
f 99 41 36
f 101 35 30
f 31 24 96
f 96 24 19
f 96 19 14
f 103 336 332
f 274 266 152
f 158 268 260
f 163 261 256
f 236 231 166
f 167 230 226
f 168 225 219
f 204 199 147
f 157 198 192
f 147 193 186
f 15 9 97
f 96 7 4
f 106 5 338
f 331 324 96
f 107 325 318
f 108 319 312
f 218 213 149
f 148 214 209
f 165 208 203
f 181 177 186
f 188 175 171
f 185 170 153
f 77 71 96
f 104 72 64
f 105 65 59
f 290 284 161
f 156 286 278
f 164 280 272
f 78 98 82
f 81 96 92
f 81 92 88
