mtllib converted_link3_12_ffffffff.mtl
usemtl material
v -0.0010100242216140032 0.00288232765160501 -0.00012228476407472044
v -0.0010100242216140032 0.00288232765160501 -0.00012228476407472044
v -0.001027853460982442 0.002844657516106963 -0.00012311550381127745
v -0.001027853460982442 0.002844657516106963 -0.00012311550381127745
v 2.059970393020194e-05 0.001482214662246406 -2.0535917428787798e-05
v 2.059970393020194e-05 0.001482214662246406 -2.0535917428787798e-05
v 2.059970393020194e-05 0.001482214662246406 -2.0535917428787798e-05
v 2.059970393020194e-05 0.001482214662246406 -2.0535917428787798e-05
v 2.059970393020194e-05 0.001482214662246406 -2.0535917428787798e-05
v 2.059970393020194e-05 0.001482214662246406 -2.0535917428787798e-05
v 2.059970393020194e-05 0.001482214662246406 -2.0535917428787798e-05
v 2.059970393020194e-05 0.001482214662246406 -2.0535917428787798e-05
v -0.0010406014043837786 0.0028040071483701468 -0.00012353459896985441
v -0.0010406014043837786 0.0028040071483701468 -0.00012353459896985441
v -0.0010406014043837786 0.0028040071483701468 -0.00012353459896985441
v 4.6778131945757195e-06 0.001471664640121162 -2.1614388970192522e-05
v 4.6778131945757195e-06 0.001471664640121162 -2.1614388970192522e-05
v 4.6778131945757195e-06 0.001471664640121162 -2.1614388970192522e-05
v 4.6778131945757195e-06 0.001471664640121162 -2.1614388970192522e-05
v -0.00031223264522850513 0.0003745256399270147 -3.007452323799953e-05
v -0.00031223264522850513 0.0003745256399270147 -3.007452323799953e-05
v -0.00031223264522850513 0.0003745256399270147 -3.007452323799953e-05
v -0.00031223264522850513 0.0003745256399270147 -3.007452323799953e-05
v -0.00032558408565819263 0.00038501605740748346 -3.126475348835811e-05
v -0.00032558408565819263 0.00038501605740748346 -3.126475348835811e-05
v -0.0018748354632407427 0.0001582762779435143 -0.00014940487744752318
v -0.0018748354632407427 0.0001582762779435143 -0.00014940487744752318
v -0.0018748354632407427 0.0001582762779435143 -0.00014940487744752318
v -0.0018748354632407427 0.0001582762779435143 -0.00014940487744752318
v -0.0018748354632407427 0.0001582762779435143 -0.00014940487744752318
v -0.0018748354632407427 0.0001582762779435143 -0.00014940487744752318
v -0.0018748354632407427 0.0001582762779435143 -0.00014940487744752318
v -0.00033071008510887623 0.0003969369863625616 -3.186452522641048e-05
v -0.00033071008510887623 0.0003969369863625616 -3.186452522641048e-05
v -0.00033071008510887623 0.0003969369863625616 -3.186452522641048e-05
v -0.0017605137545615435 0.0005190669326111674 -0.00014582487347070128
v -0.0017605137545615435 0.0005190669326111674 -0.00014582487347070128
v -0.0017605137545615435 0.0005190669326111674 -0.00014582487347070128
v -0.0003270742017775774 0.00043198451749049127 -3.210480645066127e-05
v -0.0003270742017775774 0.00043198451749049127 -3.210480645066127e-05
v -0.0003270742017775774 0.00043198451749049127 -3.210480645066127e-05
v -0.0016461324412375689 0.0008798575727269053 -0.00014225418271962553
v -0.0016461324412375689 0.0008798575727269053 -0.00014225418271962553
v -0.0016461324412375689 0.0008798575727269053 -0.00014225418271962553
v -0.0016461324412375689 0.0008798575727269053 -0.00014225418271962553
v -0.002726280363276601 -0.002549622440710664 -0.00017574454250279814
v -0.002726280363276601 -0.002549622440710664 -0.00017574454250279814
v -0.00281538930721581 -0.0028254727367311716 -0.00017861487867776304
v -0.00281538930721581 -0.0028254727367311716 -0.00017861487867776304
v -0.0010769602376967669 -0.0019993523601442575 -5.457575753098354e-05
v -0.0010769602376967669 -0.0019993523601442575 -5.457575753098354e-05
v -0.0010769602376967669 -0.0019993523601442575 -5.457575753098354e-05
v -0.0010769602376967669 -0.0019993523601442575 -5.457575753098354e-05
v -0.0010769602376967669 -0.0019993523601442575 -5.457575753098354e-05
v -0.0010769602376967669 -0.0019993523601442575 -5.457575753098354e-05
v -0.0010769602376967669 -0.0019993523601442575 -5.457575753098354e-05
v -0.002824389608576894 -0.0028906131628900766 -0.00017837459745351225
v -0.002824389608576894 -0.0028906131628900766 -0.00017837459745351225
v -0.0008927818853408098 0.00292810401879251 -0.00011376503243809566
v -0.0008927818853408098 0.00292810401879251 -0.00011376503243809566
v -0.0008332442957907915 0.0029189249034971 -0.00010899479821091518
v -0.0008332442957907915 0.0029189249034971 -0.00010899479821091518
v -0.0008332442957907915 0.0029189249034971 -0.00010899479821091518
v -0.0008332442957907915 0.0029189249034971 -0.00010899479821091518
v -0.0008332442957907915 0.0029189249034971 -0.00010899479821091518
v -0.0008332442957907915 0.0029189249034971 -0.00010899479821091518
v -0.0008332442957907915 0.0029189249034971 -0.00010899479821091518
v -0.0008332442957907915 0.0029189249034971 -0.00010899479821091518
v -0.0008332442957907915 0.0029189249034971 -0.00010899479821091518
v -0.0008332442957907915 0.0029189249034971 -0.00010899479821091518
v 4.676614480558783e-05 0.0014845466939732432 -1.851494744187221e-05
v 4.676614480558783e-05 0.0014845466939732432 -1.851494744187221e-05
v 7.256750541273504e-05 0.0014806053368374705 -1.6425059584435076e-05
v 7.256750541273504e-05 0.0014806053368374705 -1.6425059584435076e-05
v -0.0010082435328513384 -0.002026293659582734 -4.879410698777065e-05
v -0.0010082435328513384 -0.002026293659582734 -4.879410698777065e-05
v -0.0010615226346999407 -0.0020113924983888865 -5.320485070114955e-05
v -0.0010615226346999407 -0.0020113924983888865 -5.320485070114955e-05
v -0.0027813029009848833 -0.002960894489660859 -0.00017390424909535795
v -0.0027813029009848833 -0.002960894489660859 -0.00017390424909535795
v -0.0027813029009848833 -0.002960894489660859 -0.00017390424909535795
v -0.0027813029009848833 -0.002960894489660859 -0.00017390424909535795
v -0.0027813029009848833 -0.002960894489660859 -0.00017390424909535795
v -0.0028101440984755754 -0.0029297734145075083 -0.0001766442001098767
v -0.0028101440984755754 -0.0029297734145075083 -0.0001766442001098767
v -0.0026398536283522844 -0.002272933954373002 -0.00017312566342297941
v -0.0026398536283522844 -0.002272933954373002 -0.00017312566342297941
v -0.0026398536283522844 -0.002272933954373002 -0.00017312566342297941
v -0.0010828014928847551 -0.001986112678423524 -5.522582068806514e-05
v -0.0010828014928847551 -0.001986112678423524 -5.522582068806514e-05
v -0.0010828014928847551 -0.001986112678423524 -5.522582068806514e-05
v -0.002515764208510518 -0.0018772223265841603 -0.00016925508680287749
v -0.002515764208510518 -0.0018772223265841603 -0.00016925508680287749
v -0.002515764208510518 -0.0018772223265841603 -0.00016925508680287749
v -0.001080953748896718 -0.001955185318365693 -5.5585311201866716e-05
v -0.001080953748896718 -0.001955185318365693 -5.5585311201866716e-05
v -0.001080953748896718 -0.001955185318365693 -5.5585311201866716e-05
v -0.002391540678218007 -0.0014815033646300435 -0.0001654348016018048
v -0.002391540678218007 -0.0014815033646300435 -0.0001654348016018048
v -0.002391540678218007 -0.0014815033646300435 -0.0001654348016018048
v -0.002391540678218007 -0.0014815033646300435 -0.0001654348016018048
v 0.0012709859292954206 -0.0005901159020140767 0.00010850441321963444
v 0.0012709859292954206 -0.0005901159020140767 0.00010850441321963444
v 0.0012709859292954206 -0.0005901159020140767 0.00010850441321963444
v 0.0013683203142136335 -0.0002788642013911158 0.00011148464545840397
v 0.0013683203142136335 -0.0002788642013911158 0.00011148464545840397
v -0.00026658293791115284 0.00036170691601000726 -2.6325018552597612e-05
v -0.00026658293791115284 0.00036170691601000726 -2.6325018552597612e-05
v -0.00026658293791115284 0.00036170691601000726 -2.6325018552597612e-05
v -0.00026658293791115284 0.00036170691601000726 -2.6325018552597612e-05
v -0.00026658293791115284 0.00036170691601000726 -2.6325018552597612e-05
v -0.00026658293791115284 0.00036170691601000726 -2.6325018552597612e-05
v 0.0014028314035385847 -0.00016942260845098644 0.00011255566641921178
v 0.0014028314035385847 -0.00016942260845098644 0.00011255566641921178
v 0.0014028314035385847 -0.00016942260845098644 0.00011255566641921178
v 0.0014028314035385847 -0.00016942260845098644 0.00011255566641921178
v 0.002795248059555888 0.001095857354812324 0.00020285484788473696
v 0.002795248059555888 0.001095857354812324 0.00020285484788473696
v 0.002795248059555888 0.001095857354812324 0.00020285484788473696
v 0.002795248059555888 0.001095857354812324 0.00020285484788473696
v 0.0028337601106613874 0.001210354152135551 0.0002041754632955417
v 0.0028337601106613874 0.001210354152135551 0.0002041754632955417
v 0.0015245962422341108 -0.002496574306860566 0.00015690525469835848
v 0.0015245962422341108 -0.002496574306860566 0.00015690525469835848
v 0.0015245962422341108 -0.002496574306860566 0.00015690525469835848
v 0.0015245962422341108 -0.002496574306860566 0.00015690525469835848
v 0.0015245962422341108 -0.002496574306860566 0.00015690525469835848
v 0.0014659452717751265 -0.0031320753041654825 0.00016179469821508974
v 0.0014659452717751265 -0.0031320753041654825 0.00016179469821508974
v 0.0015480879228562117 -0.0028688053134828806 0.00016429436800535768
v 0.0015480879228562117 -0.0028688053134828806 0.00016429436800535768
v 0.0015480879228562117 -0.0028688053134828806 0.00016429436800535768
v 0.0015480879228562117 -0.0028688053134828806 0.00016429436800535768
v 0.0002581763546913862 -0.00226143398322165 5.402576789492741e-05
v 0.0002581763546913862 -0.00226143398322165 5.402576789492741e-05
v 0.0002581763546913862 -0.00226143398322165 5.402576789492741e-05
v 0.0002581763546913862 -0.00226143398322165 5.402576789492741e-05
v 0.0002581763546913862 -0.00226143398322165 5.402576789492741e-05
v 0.0002581763546913862 -0.00226143398322165 5.402576789492741e-05
v 0.0012102487962692976 -0.0037015455309301615 0.00015022580919321626
v 0.0012102487962692976 -0.0037015455309301615 0.00015022580919321626
v 0.0012715745251625776 -0.003673702711239457 0.00015463469026144594
v 0.0012715745251625776 -0.003673702711239457 0.00015463469026144594
v 0.0011735919397324324 -0.000901375082321465 0.00010552418098086491
v 0.0011735919397324324 -0.000901375082321465 0.00010552418098086491
v 0.0011735919397324324 -0.000901375082321465 0.00010552418098086491
v -0.000628673704341054 -0.0008262732299044728 -3.698493674164638e-05
v -0.000628673704341054 -0.0008262732299044728 -3.698493674164638e-05
v -0.000628673704341054 -0.0008262732299044728 -3.698493674164638e-05
v -0.000628673704341054 -0.0008262732299044728 -3.698493674164638e-05
v 0.00017544512229505926 -0.0009754636557772756 2.8334303351584822e-05
v 0.00017544512229505926 -0.0009754636557772756 2.8334303351584822e-05
v 0.00017544512229505926 -0.0009754636557772756 2.8334303351584822e-05
v 0.00017544512229505926 -0.0009754636557772756 2.8334303351584822e-05
v -0.0006885242182761431 -0.000819355365820229 -4.175517096882686e-05
v -0.0006885242182761431 -0.000819355365820229 -4.175517096882686e-05
v -0.0006885242182761431 -0.000819355365820229 -4.175517096882686e-05
v -0.0007104512769728899 -0.0008250252576544881 -4.34241010225378e-05
v -0.0007104512769728899 -0.0008250252576544881 -4.34241010225378e-05
v -0.0007104512769728899 -0.0008250252576544881 -4.34241010225378e-05
v -0.0011353727895766497 0.002502526855096221 -0.00012645522656384856
v -0.0011353727895766497 0.002502526855096221 -0.00012645522656384856
v -0.0012300920207053423 0.00220098695717752 -0.0001293758541578427
v -0.0012300920207053423 0.00220098695717752 -0.0001293758541578427
v -0.0012300920207053423 0.00220098695717752 -0.0001293758541578427
v -8.129734851536341e-06 0.0014484747080132365 -2.2264452127274126e-05
v -8.129734851536341e-06 0.0014484747080132365 -2.2264452127274126e-05
v -8.129734851536341e-06 0.0014484747080132365 -2.2264452127274126e-05
v -0.0013242003042250872 0.00190344441216439 -0.0001322946191066876
v -0.0013242003042250872 0.00190344441216439 -0.0001322946191066876
v -0.0013242003042250872 0.00190344441216439 -0.0001322946191066876
v -0.00010004009527619928 0.00115450459998101 -2.5065870431717485e-05
v -0.00010004009527619928 0.00115450459998101 -2.5065870431717485e-05
v -0.00010004009527619928 0.00115450459998101 -2.5065870431717485e-05
v -0.0014182638842612505 0.0016058943001553416 -0.00013521524670068175
v -0.0014182638842612505 0.0016058943001553416 -0.00013521524670068175
v -0.0014182638842612505 0.0016058943001553416 -0.00013521524670068175
v -0.00019201006216462702 0.0008605940965935588 -2.793434396153316e-05
v -0.00019201006216462702 0.0008605940965935588 -2.793434396153316e-05
v -0.00019201006216462702 0.0008605940965935588 -2.793434396153316e-05
v -0.001532160909846425 0.0012428461341187358 -0.00013873564603272825
v -0.001532160909846425 0.0012428461341187358 -0.00013873564603272825
v -0.001532160909846425 0.0012428461341187358 -0.00013873564603272825
v -0.00025585410185158253 0.0006569362012669444 -2.9895709303673357e-05
v -0.00025585410185158253 0.0006569362012669444 -2.9895709303673357e-05
v -0.00025585410185158253 0.0006569362012669444 -2.9895709303673357e-05
v -0.00032064435072243214 0.0004536172782536596 -3.192412987118587e-05
v -0.00032064435072243214 0.0004536172782536596 -3.192412987118587e-05
v -0.0009587642271071672 0.0029223260935395956 -0.00011888544395333156
v -0.0009587642271071672 0.0029223260935395956 -0.00011888544395333156
v -0.0009989452082663774 0.002896334743127227 -0.0001216253949678503
v -0.0009989452082663774 0.002896334743127227 -0.0001216253949678503
v 0.0013112190645188093 -0.0036225656513124704 0.00015696485934313387
v 0.0013112190645188093 -0.0036225656513124704 0.00015696485934313387
v 0.001323967007920146 -0.003589663887396455 0.00015750502643641084
v 0.001323967007920146 -0.003589663887396455 0.00015750502643641084
v 0.001323967007920146 -0.003589663887396455 0.00015750502643641084
v 0.0013946581166237593 -0.0033607857767492533 0.00015958560106810182
v 0.0013946581166237593 -0.0033607857767492533 0.00015958560106810182
v 0.00310424598865211 0.0021541339810937643 0.00021132429537829012
v 0.003077654866501689 0.0021808443125337362 0.00020881531236227602
v 0.003077654866501689 0.0021808443125337362 0.00020881531236227602
v 0.003113358048722148 0.002119984244927764 0.0002125145256286487
v 0.003113358048722148 0.002119984244927764 0.0002125145256286487
v 0.003113358048722148 0.002119984244927764 0.0002125145256286487
v 0.0029904607217758894 0.002209335332736373 0.0002015454083448276
v 0.0029904607217758894 0.002209335332736373 0.0002015454083448276
v 0.0029904607217758894 0.002209335332736373 0.0002015454083448276
v 0.003095536259934306 0.0020270643290132284 0.0002125145256286487
v 0.003095536259934306 0.0020270643290132284 0.0002125145256286487
v 0.003095536259934306 0.0020270643290132284 0.0002125145256286487
v 0.0029799106996506453 0.0022113060113042593 0.00020071466860827059
v 0.0029799106996506453 0.0022113060113042593 0.00020071466860827059
v 0.0029799106996506453 0.0022113060113042593 0.00020071466860827059
v 0.002982287434861064 0.0016764661995694041 0.0002088749170070514
v 0.002982287434861064 0.0016764661995694041 0.0002088749170070514
v 0.002982287434861064 0.0016764661995694041 0.0002088749170070514
v 0.0028703573625534773 0.0013254544464871287 0.00020536569354590029
v 0.0028703573625534773 0.0013254544464871287 0.00020536569354590029
v 0.0027179482858628035 0.001007884624414146 0.00019815539417322725
v 0.002760267583653331 0.0010351872770115733 0.00020107415912207216
v 0.002760267583653331 0.0010351872770115733 0.00020107415912207216
v 0.0026350978296250105 0.0010052545694634318 0.0001916547626024112
v 0.0026350978296250105 0.0010052545694634318 0.0001916547626024112
v 0.0026350978296250105 0.0010052545694634318 0.0001916547626024112
v 0.001366710988804698 0.0012405141023918986 8.865420386428013e-05
v 0.001366710988804698 0.0012405141023918986 8.865420386428013e-05
v 0.001366710988804698 0.0012405141023918986 8.865420386428013e-05
v 9.82571073109284e-05 0.0014758369652554393 -1.4344484952744097e-05
v 9.82571073109284e-05 0.0014758369652554393 -1.4344484952744097e-05
v -0.0010712381917983294 -0.001921035465784371 -5.534502997761592e-05
v -0.0010712381917983294 -0.001921035465784371 -5.534502997761592e-05
v -0.0010174226481467485 -0.0017522835405543447 -5.3614632633980364e-05
v -0.0010174226481467485 -0.0017522835405543447 -5.3614632633980364e-05
v -0.0010174226481467485 -0.0017522835405543447 -5.3614632633980364e-05
v -0.0022568341810256243 -0.0010553934844210744 -0.00016126433911267668
v -0.0022568341810256243 -0.0010553934844210744 -0.00016126433911267668
v -0.0022568341810256243 -0.0010553934844210744 -0.00016126433911267668
v -0.0009646129328757524 -0.0015831926139071584 -5.201462045079097e-05
v -0.0009646129328757524 -0.0015831926139071584 -5.201462045079097e-05
v -0.0009646129328757524 -0.0015831926139071584 -5.201462045079097e-05
v -0.002122068079188466 -0.0006292724283412099 -0.00015703427197877318
v -0.002122068079188466 -0.0006292724283412099 -0.00015703427197877318
v -0.002122068079188466 -0.0006292724283412099 -0.00015703427197877318
v -0.0008570787031203508 -0.001239214208908379 -4.8734502342995256e-05
v -0.0008570787031203508 -0.001239214208908379 -4.8734502342995256e-05
v -0.0008570787031203508 -0.001239214208908379 -4.8734502342995256e-05
v -0.001998455496504903 -0.00023553533537779003 -0.00015321584942284971
v -0.001998455496504903 -0.00023553533537779003 -0.00015321584942284971
v -0.001998455496504903 -0.00023553533537779003 -0.00015321584942284971
v -0.000748784514144063 -0.0008955934317782521 -4.533517494564876e-05
v -0.000748784514144063 -0.0008955934317782521 -4.533517494564876e-05
v -0.000748784514144063 -0.0008955934317782521 -4.533517494564876e-05
v -0.000725114019587636 -0.0008389056893065572 -4.432562127476558e-05
v -0.000725114019587636 -0.0008389056893065572 -4.432562127476558e-05
v 0.0014355469029396772 -5.95153724134434e-05 0.00011351492867106572
v 0.0014355469029396772 -5.95153724134434e-05 0.00011351492867106572
v 0.0014355469029396772 -5.95153724134434e-05 0.00011351492867106572
v 0.0014355469029396772 -5.95153724134434e-05 0.00011351492867106572
v 0.0014388251584023237 -8.795545909379143e-06 0.00011297476157778874
v 0.001423447160050273 2.4944409233285114e-05 0.0001113058315240778
v 0.001423447160050273 2.4944409233285114e-05 0.0001113058315240778
v 0.0016298580449074507 -0.0026054757181555033 0.00016679590044077486
v 0.0016298580449074507 -0.0026054757181555033 0.00016679590044077486
v 0.0016298580449074507 -0.0026054757181555033 0.00016679590044077486
v 0.0016298580449074507 -0.0026054757181555033 0.00016679590044077486
v 0.001631884602829814 -0.002567682648077607 0.00016638425586279482
v 0.0016162160318344831 -0.002534363651648164 0.0001646557211643085
v 0.0016162160318344831 -0.002534363651648164 0.0001646557211643085
v 0.0009795788209885359 -0.0011244752677157521 9.366471931571141e-05
v 0.0009795788209885359 -0.0011244752677157521 9.366471931571141e-05
v 0.0009795788209885359 -0.0011244752677157521 9.366471931571141e-05
v 0.0009795788209885359 -0.0011244752677157521 9.366471931571141e-05
v 0.0010522964876145124 -0.0011237525613978505 9.932529792422429e-05
v 0.001093416241928935 -0.001100514200516045 0.0001021844582282938
v 0.001093416241928935 -0.001100514200516045 0.0001021844582282938
v 0.001389599172398448 5.015717397327535e-05 0.00010826413199538365
v 0.001389599172398448 5.015717397327535e-05 0.00010826413199538365
v 0.0013843465130776167 5.230666647548787e-05 0.0001077854321920313
v 0.0013843465130776167 5.230666647548787e-05 0.0001077854321920313
v 0.0013843465130776167 5.230666647548787e-05 0.0001077854321920313
v 0.0013297561090439558 6.529675010824576e-05 0.000103315083833877
v 0.0013297561090439558 6.529675010824576e-05 0.000103315083833877
v 0.0015852812211960554 -0.002510752761736512 0.00016185430285986513
v 0.0015852812211960554 -0.002510752761736512 0.00016185430285986513
v 0.001575737027451396 -0.0025071839336305857 0.0001610757171874866
v 0.001575737027451396 -0.0025071839336305857 0.0001610757171874866
v 0.001575737027451396 -0.0025071839336305857 0.0001610757171874866
v 0.001550405053421855 -0.0025011638645082712 0.0001589951425557956
v 0.001550405053421855 -0.0025011638645082712 0.0001589951425557956
v 0.0011290672700852156 -0.0010423922212794423 0.00010415513679618016
v 0.0011290672700852156 -0.0010423922212794423 0.00010415513679618016
v 0.001132636098191142 -0.0010319651337340474 0.00010427434608573094
v 0.001132636098191142 -0.0010319651337340474 0.00010427434608573094
v 0.001132636098191142 -0.0010319651337340474 0.00010427434608573094
v 0.0011532071512192488 -0.0009667054982855916 0.00010486480459803715
v 0.0011532071512192488 -0.0009667054982855916 0.00010486480459803715
f 1 3 5
f 6 4 14
f 8 15 19
f 20 24 27
f 26 25 33
f 32 35 36
f 38 34 41
f 37 40 45
f 46 48 53
f 51 49 57
f 60 12 68
f 69 11 71
f 70 72 74
f 75 78 79
f 81 77 50
f 80 56 85
f 84 52 58
f 47 54 88
f 87 55 90
f 86 89 93
f 94 91 95
f 92 97 101
f 103 105 112
f 109 106 114
f 120 121 66
f 127 129 132
f 76 82 138
f 137 83 141
f 135 140 142
f 144 148 153
f 145 102 149
f 150 104 107
f 147 110 157
f 156 111 21
f 155 22 159
f 158 23 31
f 13 161 16
f 17 162 164
f 18 165 166
f 167 163 170
f 168 171 173
f 172 169 177
f 174 175 178
f 179 176 181
f 180 182 184
f 185 183 44
f 186 42 187
f 188 43 39
f 59 190 7
f 9 189 192
f 10 191 2
f 143 194 136
f 134 193 197
f 139 196 124
f 123 195 198
f 125 199 128
f 200 201 205
f 203 202 206
f 204 208 210
f 209 207 212
f 211 214 217
f 216 213 61
f 215 64 219
f 218 67 122
f 220 221 223
f 225 222 119
f 224 117 228
f 227 118 63
f 226 62 229
f 230 65 73
f 96 231 100
f 99 232 235
f 98 234 237
f 236 233 241
f 238 240 244
f 242 239 247
f 243 246 249
f 248 245 253
f 250 251 29
f 30 252 255
f 28 254 160
f 259 260 262
f 263 267 268
f 271 274 275
f 261 277 256
f 257 278 281
f 258 280 116
f 113 279 283
f 115 282 108
f 269 285 266
f 265 284 288
f 264 286 133
f 131 287 290
f 130 289 126
f 276 292 273
f 270 291 293
f 272 294 154
f 152 295 296
f 151 297 146
