mtllib converted_link8_969696ff.mtl
usemtl material
v -0.0002444919082336128 0.009035690687596798 0.054767340421676636
v -0.00027624069480225444 -0.01095978170633316 0.05434286966919899
v 0.0008226105710491538 0.01087200827896595 0.04927258566021919
v 0.0007853955030441284 -0.012564642354846 0.0487750768661499
v 0.0016369649674743414 0.011936759576201439 0.045069366693496704
v 0.0015966488281264901 -0.013452645391225815 0.04453040286898613
v 0.0024865607265383005 -0.01470760628581047 0.03604918718338013
v 0.0030639050528407097 -0.015363829210400581 0.03055259771645069
v 0.0031112213619053364 0.01443472784012556 0.03118516318500042
v 0.00383749115280807 -0.01627822406589985 0.023186417296528816
v 0.003888203762471676 0.015658434480428696 0.023864366114139557
v 0.002531427424401045 0.013547671027481556 0.036648984998464584
v 0.0019530704012140632 0.012562044896185398 0.0420956127345562
v 0.0019109699642285705 -0.013952177949249744 0.041532762348651886
v 0.011239053681492805 -0.02747587114572525 -0.016613926738500595
v 0.011334306560456753 -0.02696571685373783 -0.017094196751713753
v 0.010388909839093685 -0.027568304911255836 -0.012195929884910583
v 0.011363518424332142 -0.008569873869419098 -0.01670369692146778
v 0.00982473511248827 -0.025973955169320107 -0.009215230122208595
v 0.011269849725067616 -0.008080261759459972 -0.016202187165617943
v 0.008498149923980236 -0.0227847620844841 -0.0022229973692446947
v 0.010986469686031342 -0.008111083880066872 -0.01472952589392662
v 0.00706883380189538 -0.020122122019529343 0.0052879066206514835
v 0.011013776063919067 0.0090850330889225 -0.014364493079483509
v 0.0085712019354105 0.02322258986532688 -0.0012463437160477042
v 0.01123269833624363 0.028001295402646065 -0.014945139177143574
v 0.011139033362269402 0.028490906581282616 -0.014443645253777504
v 0.011203489266335964 0.009605451487004757 -0.01533565390855074
v 0.010477809235453606 0.028419015929102898 -0.01100742444396019
v 0.009908376261591911 0.026701409369707108 -0.008097034879028797
v 0.011108235456049442 0.009095297195017338 -0.014855376444756985
v 0.005739197134971619 0.018009068444371223 0.013326269574463367
v 0.0045322878286242485 0.01650068908929825 0.019557684659957886
v 0.004479191731661558 -0.016938993707299232 0.018847815692424774
v 0.007132937200367451 0.02024814672768116 0.0061448849737644196
v 0.005681722890585661 -0.01818540133535862 0.012557942420244217
v 0.004262775648385286 0.01618781127035618 0.02107260935008526
v 0.004210568964481354 -0.0166898425668478 0.020374685525894165
v -0.0038269725628197193 0.007948839105665684 0.04026826098561287
v 0.005895708221942186 0.009005987085402012 -0.01025819405913353
v -0.0038542761467397213 -0.009247262962162495 0.03990321233868599
v 0.005868404172360897 -0.008190115913748741 -0.01062324084341526
v -0.0029157085809856653 0.011383745819330215 0.019744999706745148
v 0.0023877350613474846 0.011960391886532307 -0.007815733551979065
v 0.0037316393572837114 0.011749270372092724 -0.008730907924473286
v -0.0037982549984008074 0.008391506969928741 0.03996320813894272
v -0.0037642274983227253 0.008615638129413128 0.03958173468708992
v -0.003826890839263797 0.007967405021190643 0.040268078446388245
v -0.0038085223641246557 0.008300725370645523 0.04007561132311821
v -0.0038227245677262545 0.008113375864923 0.04022737592458725
v -0.0037140841595828533 0.008862365037202835 0.03899868205189705
v -0.0036959657445549965 0.008939790539443493 0.038782019168138504
v 0.00582914100959897 0.00959025789052248 -0.010200063697993755
v -0.00360366003587842 0.009285607375204563 0.037626057863235474
v 0.005630137398838997 0.010150350630283356 -0.010052748024463654
v -0.003505441825836897 0.009605958126485348 0.03628711774945259
v -0.0034060159232467413 0.009906908497214317 0.034789860248565674
v -0.0033090992365032434 0.010189792141318321 0.03315086290240288
v 0.004870219621807337 0.011113664135336876 -0.009516442194581032
v -0.003217763267457485 0.010453535243868828 0.03138250112533569
v -0.003134622238576412 0.01069554965943098 0.029494579881429672
v -0.003024066099897027 0.011027906090021133 0.02624327316880226
v -0.0029516390059143305 0.01125978771597147 0.022970715537667274
v -0.004271955695003271 0.011599485762417316 0.009683695621788502
v -0.003357195295393467 0.011462396942079067 0.016073115170001984
v -0.005374308209866285 0.011738413944840431 0.0032214070670306683
v -0.006658537779003382 0.011878753080964088 -0.0032935705967247486
v -0.008124412968754768 0.012019998393952847 -0.009837313555181026
v -0.008363684639334679 0.011999290436506271 -0.010324956849217415
v -0.008639497682452202 0.011896460317075253 -0.0108822425827384
v -0.008895555511116982 0.011719190515577793 -0.011395212262868881
v -0.009137753397226334 0.011465108022093773 -0.011876842007040977
v -0.009331542067229748 0.011182298883795738 -0.012260125018656254
v -0.00951417163014412 0.01081937737762928 -0.012620228342711926
v -0.009650195948779583 0.010444794781506062 -0.012888580560684204
v -0.009757352992892265 0.010013195686042309 -0.013101372867822647
v -0.009822861291468143 0.009558536112308502 -0.01323450542986393
v -0.009845132939517498 0.009095240384340286 -0.013285297900438309
v 0.0048361788503825665 -0.010324112139642239 -0.009971520863473415
v 0.005395404063165188 -0.009695793502032757 -0.010336373001337051
v -0.009244659915566444 -0.01042856089770794 -0.012482741847634315
v -0.0098724365234375 -0.008100862614810467 -0.01365034468472004
v -0.009860068559646606 -0.008461677469313145 -0.013633380644023418
v -0.009852901101112366 -0.00855197012424469 -0.013621391728520393
v -0.009301754646003246 -0.010339751839637756 -0.012592517770826817
v -0.009790875017642975 -0.009008446708321571 -0.013511503115296364
v -0.009687602519989014 -0.009446819312870502 -0.013321997597813606
v 0.00574747659265995 -0.008967931382358074 -0.010558657348155975
v -0.00964750163257122 -0.00957753136754036 -0.013247452676296234
v -0.009491794742643833 -0.009980891831219196 -0.012954824604094028
v 0.004107909742742777 -0.010810066014528275 -0.009488972835242748
v -0.009012957103550434 -0.010723059065639973 -0.012033224105834961
v -0.008759542368352413 -0.010949140414595604 -0.01153459120541811
v -0.008440366946160793 -0.011119458824396133 -0.010896624065935612
v -0.008161243051290512 -0.011174746789038181 -0.010329692624509335
v 0.0023509047459810972 -0.011234353296458721 -0.008308112621307373
v -0.008713878691196442 -0.010980871506035328 -0.011443995870649815
v 0.003260230179876089 -0.011120532639324665 -0.008921618573367596
v -0.0037976622115820646 -0.01166852843016386 0.01260475441813469
v -0.0029525388963520527 -0.011810997501015663 0.01925262063741684
v -0.004863663110882044 -0.01152263768017292 0.005811996757984161
v -0.007577178068459034 -0.011228996329009533 -0.00781786534935236
v -0.006131757982075214 -0.011375309899449348 -0.0010333898244425654
v -0.003002089448273182 -0.011811142787337303 0.02326240949332714
v -0.0029585978481918573 -0.01182489562779665 0.020089926198124886
v -0.0030260023195296526 -0.011781792156398296 0.024405771866440773
v -0.0031206870917230844 -0.011627651751041412 0.0277006383985281
v -0.0032512047328054905 -0.011376993730664253 0.030893342569470406
v -0.0034095519222319126 -0.011039771139621735 0.03385971114039421
v -0.003552291775122285 -0.010697741992771626 0.03606531769037247
v -0.0036287596449255943 -0.010489617474377155 0.037123046815395355
v -0.0037246125284582376 -0.010180915705859661 0.03835517540574074
v -0.0037839170545339584 -0.009933380410075188 0.03907421976327896
v -0.0038052068557590246 -0.009820699691772461 0.03932566940784454
v -0.0038319742307066917 -0.0096358023583889 0.039638154208660126
v -0.0038389351684600115 -0.00957066472619772 0.039719127118587494
v -0.003849596483632922 -0.009428772144019604 0.03984403237700462
v -0.0038519601803272963 -0.009376762434840202 0.03987240046262741
v -0.004931434523314238 -0.006829169578850269 -0.01267294492572546
v -0.004292864352464676 -0.006658656056970358 -0.012546495534479618
v 0.0018410796765238047 0.007079406175762415 -0.011078717187047005
v 0.0023090997710824013 0.007552480325102806 -0.010978762991726398
v -0.003803732106462121 0.0071114138700068 -0.012164264917373657
v 0.0018220323836430907 -0.00491787726059556 -0.011333410628139973
v 0.0029435432516038418 0.00512356823310256 -0.01090750191360712
v 0.0016499682096764445 -0.00556676322594285 -0.011380085721611977
v 0.0023055251222103834 0.00530132045969367 -0.011026551015675068
v -0.005569452419877052 -0.006651417352259159 -0.012791994959115982
v -0.006035961210727692 -0.006173044443130493 -0.0128717552870512
v -0.006205959245562553 -0.005522218532860279 -0.012890850193798542
v 0.003585687605664134 0.007545242086052895 -0.010733264498412609
v 0.0029476715717464685 0.007722978480160236 -0.010852324776351452
v 0.0022900488693267107 -0.004444802645593882 -0.011233438737690449
v 0.002928621368482709 -0.004274304490536451 -0.011107003316283226
v 0.00358211318962276 0.0052940817549824715 -0.010781051591038704
v -0.004289290867745876 -0.004407496191561222 -0.01249870378524065
v -0.004273814614862204 0.0053386264480650425 -0.01229181606322527
v -0.004927305970340967 -0.00422975979745388 -0.012617768719792366
v -0.004912384320050478 0.005168113391846418 -0.012418266385793686
v -0.005565878469496965 -0.004400257952511311 -0.012744203209877014
v -0.006033895071595907 -0.004873332567512989 -0.012844175100326538
v 0.00181996647734195 -0.006217589136213064 -0.01136098988354206
v -0.003822779282927513 -0.004885870032012463 -0.012418958358466625
v -0.0036527833435684443 -0.005536695476621389 -0.012399852275848389
v -0.0060148476622998714 0.007123951334506273 -0.01258948165923357
v -0.0055468278005719185 0.007597025483846664 -0.012489528395235538
v -0.0049082557670772076 0.007767523173242807 -0.012363089248538017
v -0.004270239733159542 0.007589786779135466 -0.012244028970599174
v 0.004052195698022842 0.007066868711262941 -0.010653500445187092
v 0.004222195129841566 0.006416042800992727 -0.010634408332407475
v 0.004050133284181356 0.00576715636998415 -0.010681097395718098
v 0.002286474918946624 -0.00669596204534173 -0.011281229555606842
v -0.005550402216613293 0.005345865152776241 -0.012537315487861633
v -0.006016910076141357 0.0058242385275661945 -0.01261707954108715
v -0.006186909042298794 0.006475064903497696 -0.012636171653866768
v 0.0035666367039084435 -0.004452040884643793 -0.010987939313054085
v 0.004033148288726807 -0.004930414725095034 -0.01090819388628006
v 0.0042031449265778065 -0.00558124016970396 -0.010889086872339249
v 0.004031082149595022 -0.006230126600712538 -0.010935773141682148
v 0.003563062986359 -0.006703200750052929 -0.011035731062293053
v 0.002924493048340082 -0.00687371427193284 -0.011162180453538895
v -0.003824845189228654 -0.006185581907629967 -0.012446537613868713
v 0.0016690184129402041 0.006430519744753838 -0.011125407181680202
v -0.0036337331403046846 0.006460587494075298 -0.01214517280459404
v 0.0018390172626823187 0.0057796938344836235 -0.011106315068900585
v -0.0038057942874729633 0.005811701063066721 -0.012191862799227238
v -0.003889720421284437 -0.009254212491214275 0.04023321717977524
v -0.003862416837364435 0.007941890507936478 0.04059826582670212
v -0.0038840111810714006 -0.009251869283616543 0.0401226244866848
v -0.003856704803183675 0.007944232784211636 0.040487658232450485
v -0.0038721845485270023 -0.009249544702470303 0.040012508630752563
v -0.0038448781706392765 0.007946557365357876 0.04037754237651825
v -0.0038566445000469685 0.007971025072038174 0.04048765450716019
v -0.0038448129780590534 0.007969221100211143 0.040377456694841385
v -0.0038339844904839993 0.00957232154905796 0.0391320064663887
v -0.0038222172297537327 0.009248202666640282 0.039228398352861404
v -0.003836719086393714 0.009446324780583382 0.03934691473841667
v -0.003835868090391159 0.008899175561964512 0.03980850428342819
v -0.0038462094962596893 0.009043373167514801 0.03992432355880737
v -0.003846517764031887 0.008580002933740616 0.04018731787800789
v -0.0038542314432561398 0.008675252087414265 0.04030098393559456
v -0.003849966451525688 0.00845017097890377 0.04029868543148041
v -0.0038569211028516293 0.008525553159415722 0.0404115654528141
v -0.0038549834862351418 0.008181308396160603 0.04044840857386589
v -0.0038609374314546585 0.008215484209358692 0.04055992141366005
v -0.003862353041768074 0.00797282438725233 0.040598347783088684
v -0.0038278819993138313 0.009935673326253891 0.038422588258981705
v -0.0038013537414371967 0.009840440936386585 0.0378602035343647
v -0.003817895893007517 0.009357193484902382 0.039012610912323
v -0.003826284781098366 0.010132390074431896 0.037983547896146774
v -0.003831226145848632 0.01064749900251627 0.036650124937295914
v -0.0037952580023556948 0.0102822445333004 0.03652353212237358
v -0.0038534568157047033 0.011128144338726997 0.035155825316905975
v -0.0038041032385081053 0.01069097314029932 0.035027097910642624
v -0.003896999405696988 0.011576749384403229 0.033516671508550644
v -0.0038316647987812757 0.011067907325923443 0.03338734433054924
v -0.003965362440794706 0.0119917131960392 0.03174462914466858
v -0.0038811287377029657 0.011410784907639027 0.0316166989505291
v -0.004061612766236067 0.012368905358016491 0.02984907478094101
v -0.003955155145376921 0.011714992113411427 0.0297250859439373
v -0.0040693278424441814 0.012393319047987461 0.029714317992329597
v -0.0041300090961158276 0.012104512192308903 0.02646588906645775
v -0.004280277527868748 0.012877905741333961 0.02657652087509632
v -0.004563468974083662 0.013219345360994339 0.02327323891222477
v -0.004360760562121868 0.012330565601587296 0.023186074569821358
v -0.004900235682725906 0.01338175032287836 0.020008869469165802
v -0.004635523539036512 0.01238218229264021 0.01995799131691456
v -0.003842231584712863 0.0081472247838974 0.04033743590116501
v -0.0038338066078722477 0.00837510172277689 0.04018651694059372
v -0.003827825654298067 0.008485238067805767 0.04007452726364136
v -0.003808461595326662 0.008756199851632118 0.03969397395849228
v -0.003781156847253442 0.009052666835486889 0.03911180794239044
v -0.0037716540973633528 0.00914527103304863 0.038895346224308014
v -0.0037265149876475334 0.009555768221616745 0.03774002566933632
v -0.0036852825433015823 0.00993063859641552 0.03640099614858627
v -0.0036522969603538513 0.010276631452143192 0.03490293025970459
v -0.003631017869338393 0.010594543069601059 0.033262498676776886
v -0.003624200588092208 0.010882155038416386 0.03149224445223808
v -0.0036339974030852318 0.01113525964319706 0.029602261260151863
v -0.003687952645123005 0.011453505605459213 0.02634861320257187
v -0.003783115651458502 0.011628304608166218 0.02307765558362007
v -0.003909136634320021 0.011650859378278255 0.019861409440636635
v -0.00492652365937829 0.013386769220232964 0.019774163141846657
v -0.0050734574906528 0.012460198253393173 0.016315681859850883
v -0.0043485709466040134 0.011729140765964985 0.016206596046686172
v -0.00533762201666832 0.013459664769470692 0.016371143981814384
v -0.006244559772312641 0.013595575466752052 0.010036435909569263
v -0.0059814453125 0.012596267275512218 0.009973647072911263
v -0.006444608327001333 0.013622479513287544 0.008784262463450432
v -0.007076222449541092 0.012734239920973778 0.0035558054223656654
v -0.007338167168200016 0.013733402825891972 0.0036254762671887875
v -0.008351914584636688 0.012873650528490543 -0.002915878314524889
v -0.008605116978287697 0.013871916569769382 -0.0028042166959494352
v -0.008612540550529957 0.013872670009732246 -0.0028394984547048807
v -0.010066920891404152 0.014012806117534637 -0.009331975132226944
v -0.009807837195694447 0.013013937510550022 -0.009415216743946075
v -0.00525942025706172 0.011865640059113503 0.009844531305134296
v -0.0063574002124369144 0.012004026211798191 0.003407906973734498
v -0.007636699825525284 0.01214382890611887 -0.0030820725951343775
v -0.00909682922065258 0.012284519150853157 -0.009600174613296986
v -0.010250170715153217 0.013976935297250748 -0.010097270831465721
v -0.009980451315641403 0.01301847118884325 -0.010052324272692204
v -0.009294864721596241 0.012299755588173866 -0.010135072283446789
v -0.010462259873747826 0.013804006390273571 -0.010971547104418278
v -0.010181392543017864 0.012912782840430737 -0.010790410451591015
v -0.010659969411790371 0.013507126830518246 -0.011776006780564785
v -0.010369655676186085 0.012698212638497353 -0.011478115804493427
v -0.010847698897123337 0.013082305900752544 -0.012531117536127567
v -0.010549127124249935 0.012371483258903027 -0.012130296789109707
v -0.010998435318470001 0.012609882280230522 -0.013131876476109028
v -0.010693661868572235 0.011996124871075153 -0.01265334989875555
v -0.011140957474708557 0.012003989890217781 -0.013696282170712948
v -0.010830613784492016 0.011504747904837132 -0.013147801160812378
v -0.011247463524341583 0.011378921568393707 -0.014116925187408924
v -0.01093311421573162 0.0109907491132617 -0.013518044725060463
v -0.011331679299473763 0.010659012012183666 -0.014450700022280216
v -0.011014223098754883 0.010393309406936169 -0.013812684454023838
v -0.011383485049009323 0.009900892153382301 -0.014659866690635681
v -0.01106409914791584 0.009760417975485325 -0.013997462578117847
v -0.011401539668440819 0.00912859383970499 -0.014740301296114922
v -0.011081385426223278 0.009113816544413567 -0.014068099670112133
v -0.009524188004434109 0.01222500205039978 -0.010758205316960812
v -0.009737962856888771 0.012058090418577194 -0.011341791599988937
v -0.00994087290018797 0.011796223931014538 -0.011897563003003597
v -0.010103683918714523 0.01149084884673357 -0.012344807386398315
v -0.010257480666041374 0.01108739897608757 -0.012768695130944252
v -0.01037226989865303 0.010662747547030449 -0.013086728751659393
v -0.010462870821356773 0.010167130269110203 -0.013340122997760773
v -0.010518403723835945 0.009640716016292572 -0.013499056920409203
v -0.010537447407841682 0.009102163836359978 -0.013559590093791485
v -0.011428844183683395 -0.008067509159445763 -0.015105348080396652
v -0.011108691804111004 -0.008082285523414612 -0.014433132484555244
v -0.010564752854406834 -0.0080939382314682 -0.013924626633524895
v -0.011419685557484627 -0.008668789640069008 -0.015079622156918049
v -0.011099719442427158 -0.008585885167121887 -0.014409628696739674
v -0.010554487816989422 -0.008513486944139004 -0.013904022052884102
v -0.01141421403735876 -0.008819232694804668 -0.015061063691973686
v -0.01109439879655838 -0.008711821399629116 -0.014392981305718422
v -0.011366406455636024 -0.009579678997397423 -0.014890233054757118
v -0.011048072949051857 -0.009347168728709221 -0.014240508899092674
v -0.01128644123673439 -0.010309719480574131 -0.014594780281186104
v -0.010970749892294407 -0.009953992441296577 -0.013978085480630398
v -0.011255363933742046 -0.010527356527745724 -0.014478446915745735
v -0.010940737091004848 -0.010133967734873295 -0.013875041157007217
v -0.011134685017168522 -0.011198733933269978 -0.014021463692188263
v -0.010824342258274555 -0.010685324668884277 -0.013471678830683231
v -0.01098752673715353 -0.011795769445598125 -0.013455103151500225
v -0.010682742111384869 -0.011168433353304863 -0.012974794022738934
v -0.01094336062669754 -0.011943473480641842 -0.01328338123857975
v -0.010640316642820835 -0.011286416091024876 -0.01282481849193573
v -0.010764350183308125 -0.012433018535375595 -0.012579882517457008
v -0.010468730702996254 -0.01167063508182764 -0.012213717214763165
v -0.01056903786957264 -0.012808370403945446 -0.011798907071352005
v -0.010282255709171295 -0.011952955275774002 -0.01154201477766037
v -0.010533901862800121 -0.012861011549830437 -0.011656936258077621
v -0.010248797945678234 -0.011990919709205627 -0.01142070908099413
v -0.010323816910386086 -0.013090440072119236 -0.010798775590956211
v -0.010049399919807911 -0.012144877575337887 -0.010693125426769257
v -0.010110102593898773 -0.013181031681597233 -0.009909235872328281
v -0.009847844950854778 -0.012180366553366184 -0.00995002780109644
v -0.010548477992415428 -0.008618371561169624 -0.01388959027826786
v -0.010496341623365879 -0.009147130884230137 -0.01375770103186369
v -0.010409434325993061 -0.009651041589677334 -0.013531231321394444
v -0.010375688783824444 -0.009800177998840809 -0.01344243809580803
v -0.010244730859994888 -0.010255669243633747 -0.013095354661345482
v -0.01008510123938322 -0.010652243159711361 -0.01266899798065424
v -0.010037200525403023 -0.010748552158474922 -0.012540551833808422
v -0.00984308309853077 -0.011059785261750221 -0.012018430046737194
v -0.00963135901838541 -0.011284156702458858 -0.011446935124695301
v -0.009593280032277107 -0.011313743889331818 -0.011344014666974545
v -0.009365716949105263 -0.011429413221776485 -0.010728642344474792
v -0.009134511463344097 -0.01144600659608841 -0.010103924199938774
v -0.009530696086585522 -0.013234849087893963 -0.007417450658977032
v -0.008552774786949158 -0.01150004006922245 -0.007602125406265259
v -0.00926781166344881 -0.012234232388436794 -0.0074555655010044575
v -0.00783204659819603 -0.01237957738339901 -0.000716392882168293
v -0.008648299612104893 -0.013321936130523682 -0.0033814781345427036
v -0.00809642393141985 -0.013380038551986217 -0.0006852972437627614
v -0.006838152185082436 -0.013526223599910736 0.006107032299041748
v -0.006572459824383259 -0.012525909580290318 0.006083042826503515
v -0.006487788166850805 -0.013571358285844326 0.0082069868221879
v -0.00551403034478426 -0.01267076563090086 0.01282748207449913
v -0.00578089477494359 -0.013670913875102997 0.012843997217714787
v -0.00467552850022912 -0.012812108732759953 0.019423164427280426
v -0.004969705827534199 -0.013807068578898907 0.019196901470422745
v -0.004943418316543102 -0.01381208747625351 0.01943160966038704
v -0.007112929597496986 -0.011645792052149773 -0.0008438033983111382
v -0.0058497479185462 -0.011792547069489956 0.0059750559739768505
v -0.0047881160862743855 -0.01193784549832344 0.012739908881485462
v -0.003946816083043814 -0.012079652398824692 0.019357647746801376
v -0.004850710276514292 -0.01382379699498415 0.020279813557863235
v -0.004600147716701031 -0.01285179890692234 0.020259227603673935
v -0.003911607898771763 -0.012124402448534966 0.020190130919218063
v -0.004533165134489536 -0.013757411390542984 0.023490574210882187
v -0.0043410793878138065 -0.012893233448266983 0.023433376103639603
v -0.00443223537877202 -0.013692800886929035 0.024646449834108353
v -0.00425881939008832 -0.012868265621364117 0.02457907423377037
v -0.004183600656688213 -0.013390591368079185 0.027973074465990067
v -0.004058049060404301 -0.012683466076850891 0.027883363887667656
v -0.00410987064242363 -0.013238687999546528 0.029172932729125023
v -0.003919715993106365 -0.012342195026576519 0.031086675822734833
v -0.004006093833595514 -0.012928776443004608 0.031189769506454468
v -0.0039017258677631617 -0.01232567522674799 0.03417166694998741
v -0.0038463387172669172 -0.01186184398829937 0.034062158316373825
v -0.0038649197667837143 -0.011725006625056267 0.03638434037566185
v -0.003829590044915676 -0.011365527287125587 0.03627331927418709
v -0.0038603541906923056 -0.011363415978848934 0.03744415193796158
v -0.0038338154554367065 -0.011061669327318668 0.037333276122808456
v -0.0038613721262663603 -0.01115364022552967 0.03797566145658493
v -0.0038492234889417887 -0.010610222816467285 0.03856781870126724
v -0.0038661600556224585 -0.010831750929355621 0.03867798298597336
v -0.003875154536217451 -0.01040918380022049 0.03939811885356903
v -0.0038635183591395617 -0.010248507373034954 0.03928844630718231
v -0.00387925049290061 -0.010217878036201 0.03965014964342117
v -0.003869422245770693 -0.010084115900099277 0.0395406074821949
v -0.0038849564734846354 -0.009905380196869373 0.039963897317647934
v -0.003877348033711314 -0.009814887307584286 0.03985436260700226
v -0.0038865162059664726 -0.00979569461196661 0.04004541411995888
v -0.003879479132592678 -0.009720221161842346 0.03993580490350723
v -0.0038889036513864994 -0.009557501412928104 0.04017173871397972
v -0.0038827527314424515 -0.009514379315078259 0.0400618351995945
v -0.003889402374625206 -0.009470434859395027 0.04020071029663086
v -0.0038834549486637115 -0.009439058601856232 0.040090639144182205
v -0.003794902004301548 -0.012198942713439465 0.02335198223590851
v -0.00376039813272655 -0.012190927751362324 0.024493759498000145
v -0.0036875740624964237 -0.01206899806857109 0.027788415551185608
v -0.0036602558102458715 -0.011808831244707108 0.030984792858362198
v -0.0036790722515434027 -0.011424810625612736 0.033956144005060196
v -0.003724128007888794 -0.011018984019756317 0.03616570681333542
v -0.0037559429183602333 -0.010767862200737 0.03722530975937843
v -0.0038017956539988518 -0.010392163880169392 0.038459647446870804
v -0.003833010559901595 -0.010089411400258541 0.03918014466762543
v -0.003844678634777665 -0.009951388463377953 0.03943217173218727
v -0.003859656397253275 -0.009724871255457401 0.039745595306158066
v -0.0038635949604213238 -0.009645103476941586 0.039826881140470505
v -0.003869634587317705 -0.009471409022808075 0.03995247185230255
v -0.003870961256325245 -0.009407796896994114 0.03998108580708504
v -0.011514699086546898 -0.017459560185670853 -0.015573835000395775
v -0.011457548476755619 0.018532291054725647 -0.014809801243245602
v -0.011612550355494022 -0.01744529977440834 -0.016237813979387283
v -0.011555399745702744 0.018546534702181816 -0.015473777428269386
v -0.011560279875993729 -0.017431188374757767 -0.01690691150724888
v -0.011503130197525024 0.018560659140348434 -0.01614287495613098
v -0.00021067573106847703 -0.013050432316958904 -0.012913268059492111
v 0.00023788931139279157 -0.013510413467884064 -0.012836572714149952
v -0.0008261373732239008 -0.01412923913449049 -0.013054274953901768
v 0.00040135113522410393 -0.014136199839413166 -0.01281821820884943
v 0.00023590491036884487 -0.014760131947696209 -0.012863101437687874
v -0.0018881824798882008 -0.013498358428478241 -0.013245434500277042
v -0.0014381642686203122 -0.013043472543358803 -0.013149325735867023
v -0.0008241550531238317 -0.012879518792033195 -0.01302773505449295
v -0.0014416020130738616 -0.015208044089376926 -0.013195271603763103
v -0.0018901668954640627 -0.014748076908290386 -0.013271964155137539
v -0.0020536258816719055 -0.014122279360890388 -0.01329033263027668
v -0.00021411350462585688 -0.015215004794299603 -0.012959214858710766
v -0.0008281217305921018 -0.01537895668298006 -0.013080804608762264
v -0.0013952451990917325 0.013985340483486652 -0.012575560249388218
v -0.0018438100814819336 0.014445307664573193 -0.012652252800762653
v -0.0007797833532094955 0.015064147301018238 -0.012434549629688263
v -0.0020072718616575003 0.015071108005940914 -0.0126706063747406
v -0.0018418277613818645 0.015695028007030487 -0.012625712901353836
v 0.00028226172435097396 0.014433251693844795 -0.012243390083312988
v -0.00016775669064372778 0.013978380709886551 -0.01233950350433588
v -0.0007817677687853575 0.013814427889883518 -0.012461078353226185
v -0.000164321725605987 0.0161429550498724 -0.012293542735278606
v 0.00028424401534721255 0.015682971104979515 -0.012216850183904171
v 0.0004477051552385092 0.015057187527418137 -0.012198492884635925
v -0.001391810248605907 0.016149913892149925 -0.012529599480330944
v -0.0007777982391417027 0.016313865780830383 -0.012408023700118065
v -0.005242302082479 0.006577761378139257 -0.017545068636536598
v -0.005070241633802652 0.007226647809147835 -0.017498375847935677
v -0.004602222237735987 0.007699721958488226 -0.017398416996002197
v -0.003963652066886425 0.007870235480368137 -0.017271971330046654
v -0.003325634403154254 0.007692483253777027 -0.017152918502688408
v -0.0028591258451342583 0.007214110344648361 -0.01707315817475319
v -0.002689126180484891 0.006563284434378147 -0.01705406978726387
v -0.0028611882589757442 0.005914411973208189 -0.017100755125284195
v -0.0033292074222117662 0.005441338289529085 -0.017200713977217674
v -0.0039677806198596954 0.005270825698971748 -0.017327144742012024
v -0.004605795256793499 0.005448576528578997 -0.017446212470531464
v -0.005072304047644138 0.00592694990336895 -0.017525972798466682
v 0.00259457528591156 -0.0054640513844788074 -0.016288982704281807
v 0.002766635734587908 -0.004815180320292711 -0.016242289915680885
v 0.00323465489782393 -0.00434210617095232 -0.016142332926392555
v 0.003873225534334779 -0.004171592649072409 -0.016015885397791862
v 0.00451124319806695 -0.004349344410002232 -0.015896832570433617
v 0.004977751523256302 -0.004827717784792185 -0.015817072242498398
v 0.0051477518863976 -0.005478528793901205 -0.01579798385500908
v 0.004975687712430954 -0.006127414759248495 -0.015844661742448807
v 0.004507668316364288 -0.006600488908588886 -0.015944620594382286
v 0.003869097912684083 -0.006771002430468798 -0.01607106626033783
v 0.0032310804817825556 -0.006593250669538975 -0.016190119087696075
v 0.00276457192376256 -0.0061148772947490215 -0.016269879415631294
v -0.00526135228574276 -0.005419506691396236 -0.017799748107790947
v -0.005089291837066412 -0.004770635161548853 -0.017753055319190025
v -0.004621272440999746 -0.004297561012208462 -0.017653096467256546
v -0.003982701804488897 -0.004127047955989838 -0.017526650801301003
v -0.0033446846064180136 -0.004304799716919661 -0.017407597973942757
v -0.002878176048398018 -0.0047831726260483265 -0.017327837646007538
v -0.0027081763837486506 -0.005433983635157347 -0.01730874925851822
v -0.002880239859223366 -0.006082870066165924 -0.017355427145957947
v -0.0033482590224593878 -0.006555944215506315 -0.017455384135246277
v -0.003986829426139593 -0.006726457737386227 -0.01758183166384697
v -0.0046248468570411205 -0.006548705510795116 -0.017700884491205215
v -0.00509135564789176 -0.0060703326016664505 -0.017780644819140434
v 0.002613625256344676 0.006533216685056686 -0.016034303233027458
v 0.0027856859378516674 0.007182103116065264 -0.015987610444426537
v 0.0032537051010876894 0.007655176799744368 -0.015887653455138206
v 0.0038922757375985384 0.007825690321624279 -0.015761207789182663
v 0.004530292935669422 0.007647938560694456 -0.015642153099179268
v 0.0049968017265200615 0.00716956565156579 -0.015562393702566624
v 0.00516680208966136 0.006518739275634289 -0.015543305315077305
v 0.0049947393126785755 0.005869867280125618 -0.01558999065309763
v 0.00452671991661191 0.005396793130785227 -0.015689948573708534
v 0.0038881467189639807 0.005226281005889177 -0.015816379338502884
v 0.003250132082030177 0.005404031835496426 -0.015935447067022324
v 0.0027836235240101814 0.0058824047446250916 -0.016015207394957542
v -0.004158018622547388 -0.011981101706624031 0.045483995229005814
v -0.004180337302386761 -0.011922306381165981 0.04576750099658966
v -0.004122194368392229 0.01038559339940548 0.045954830944538116
v -0.004415798932313919 -0.011359380558133125 0.04824109002947807
v -0.004215601831674576 0.010102570056915283 0.0470530204474926
v -0.004576391074806452 0.009165423922240734 0.05025392770767212
v -0.004608089104294777 -0.010944808833301067 0.0498252771794796
v -0.004817829001694918 0.008608234114944935 0.051888737827539444
v -0.005184403620660305 -0.009804059751331806 0.05342257767915726
v -0.005156332161277533 0.007875125855207443 0.053797878324985504
v -0.0038246612530201674 0.011959521099925041 0.03846416994929314
v -0.0038895858451724052 0.011323424987494946 0.04179255664348602
v -0.003993374295532703 -0.012477719224989414 0.042864732444286346
v -0.0038646627217531204 -0.013237211853265762 0.037927836179733276
v -0.0038677328266203403 -0.013447302393615246 0.03633813560009003
v -0.0040374393574893475 -0.014138557016849518 0.03053729049861431
v -0.004111806396394968 -0.014296535402536392 0.029146041721105576
v -0.004183599725365639 -0.013390591368079185 0.027973074465990067
v -0.004695778246968985 -0.01517973467707634 0.021771695464849472
v -0.004809008911252022 -0.015328346751630306 0.020663335919380188
v -0.004973325412720442 -0.01554160751402378 0.019152378663420677
v -0.009988512843847275 -0.023118164390325546 -0.00953965075314045
v -0.009935332462191582 -0.02319660410284996 -0.009314343333244324
v -0.009568012319505215 -0.022542446851730347 -0.007714192848652601
v -0.010281202383339405 -0.022637980058789253 -0.010762087069451809
v -0.00866327341645956 -0.020985830575227737 -0.003557513700798154
v -0.00831171777099371 -0.02040325477719307 -0.0018491155933588743
v -0.007914651185274124 -0.019760986790060997 0.00015278224600479007
v -0.006855566520243883 -0.0181326512247324 0.005950291641056538
v -0.006496021524071693 -0.01760851964354515 0.00811002217233181
v -0.005624864716082811 -0.016398008912801743 0.01393403485417366
v -0.01061558723449707 -0.021965518593788147 -0.012123001739382744
v -0.01090306043624878 -0.02123355306684971 -0.013263007625937462
v -0.011466875672340393 -0.01855289191007614 -0.015409179963171482
v -0.011401140131056309 -0.019131038337945938 -0.01516771875321865
v -0.011298573575913906 -0.019749943166971207 -0.01478420477360487
v -0.0111526595428586 -0.020400797948241234 -0.014229883439838886
v -0.010965542867779732 -0.021047208458185196 -0.01350711565464735
v -0.011503164656460285 -0.01800663210451603 -0.015538488514721394
v -0.011444279924035072 0.019077328965067863 -0.014751271344721317
v -0.011086267419159412 0.021412689238786697 -0.013342253863811493
v -0.011234208010137081 0.020786412060260773 -0.01392369344830513
v -0.011338709853589535 0.020184669643640518 -0.014333129860460758
v -0.011406265199184418 0.019617494195699692 -0.014598901383578777
v -0.010897145606577396 0.022027242928743362 -0.012592732906341553
v -0.010834087617695332 0.022202860563993454 -0.012340947985649109
v -0.0098830945789814 0.023964636027812958 -0.00840976182371378
v -0.009913813322782516 0.023924846202135086 -0.00854102335870266
v -0.010207944549620152 0.023497920483350754 -0.009782715700566769
v -0.010544370859861374 0.022884877398610115 -0.011170915327966213
v -0.0049243164248764515 0.015060292556881905 0.01980568654835224
v -0.005082729272544384 0.015324913896620274 0.018441220745444298
v -0.005791608709841967 0.01650225557386875 0.013075076043605804
v -0.006172419060021639 0.01714140921831131 0.010537689551711082
v -0.006440107710659504 0.01759599894285202 0.008857423439621925
v -0.007549066096544266 0.01953781396150589 0.002566894283518195
v -0.008596675470471382 0.02146804891526699 -0.0026601795107126236
v -0.008640781044960022 0.021551385521888733 -0.0028683997225016356
v -0.009133982472121716 0.022494496777653694 -0.005140186287462711
v -0.004758680239319801 0.014779279008507729 0.021326513960957527
v -0.004206009674817324 0.013730263337492943 0.027584614232182503
v -0.004067778587341309 0.0133913429453969 0.02973492443561554
v -0.0038761477917432785 0.012689403258264065 0.034166354686021805
v -0.0038232537917792797 0.012038914486765862 0.03801978379487991
v -0.011081021279096603 0.00921031553298235 -0.01861351914703846
v -0.01110832765698433 -0.007985801436007023 -0.018978552892804146
v -0.010824947617948055 -0.007954979315400124 -0.020451214164495468
v -0.010839870199561119 -0.01735285297036171 -0.02065071277320385
v -0.010971641167998314 0.018618453294038773 -0.018904896453022957
v -0.010986561886966228 0.009220579639077187 -0.019104402512311935
v -0.0010145610431209207 -0.014009303413331509 -0.01869010366499424
v -0.0008491176995448768 -0.013385382480919361 -0.018645206466317177
v -0.00039910015766508877 -0.012930496595799923 -0.01854909397661686
v 0.00021491182269528508 -0.01276654377579689 -0.018427519127726555
v 0.0008283883216790855 -0.012937456369400024 -0.018313037231564522
v 0.0012769540771842003 -0.013397438451647758 -0.018236344680190086
v 0.0014404159737750888 -0.014023223891854286 -0.018217990174889565
v 0.0012749710585922003 -0.014647156931459904 -0.01826288178563118
v 0.000824952672701329 -0.015102029778063297 -0.018358994275331497
v 0.0002109430351993069 -0.015265981666743755 -0.0184805765748024
v -0.0004025358066428453 -0.015095069073140621 -0.018595051020383835
v -0.0008511006599292159 -0.014635101892054081 -0.01867174357175827
v -0.0009405807359144092 -0.026896115392446518 -0.01945476606488228
v -0.0010358337312936783 -0.027406271547079086 -0.01897449605166912
v -0.003576872171834111 -0.02705119177699089 -0.019456032663583755
v -0.0033545661717653275 -0.02655879221856594 -0.01991223357617855
v -0.005943662952631712 -0.026038983836770058 -0.01989028975367546
v -0.0056030163541436195 -0.025597188621759415 -0.02032477781176567
v -0.007974909618496895 -0.024438634514808655 -0.020247675478458405
v -0.0075327022932469845 -0.024076854810118675 -0.020664285868406296
v -0.009532189927995205 -0.02235918864607811 -0.020503822714090347
v -0.009012116119265556 -0.02210138365626335 -0.02090764231979847
v -0.010509373620152473 -0.01994236186146736 -0.020641295239329338
v -0.009940441697835922 -0.01980539783835411 -0.021038232371211052
v -0.01025441288948059 -0.017345374450087547 -0.021047186106443405
v -0.001885977922938764 -0.027498703449964523 -0.01455649919807911
v -0.0102402837947011 -0.00844737607985735 -0.020858298987150192
v 0.0017970263725146651 -0.013139632530510426 -0.018640154972672462
v 0.0011690347455441952 -0.012495661154389381 -0.018747525289654732
v 0.00031016627326607704 -0.012256389483809471 -0.01890779659152031
v -0.0005542607977986336 -0.015516321174800396 -0.01914234273135662
v 0.00030460854759439826 -0.01575559377670288 -0.018982071429491043
v 0.0011642242316156626 -0.015526065602898598 -0.018811862915754318
v 0.001794249634258449 -0.014889228157699108 -0.018677303567528725
v 0.0020258708391338587 -0.014015743508934975 -0.018614450469613075
v -0.000549450283870101 -0.012485917657613754 -0.019078005105257034
v -0.0011794748716056347 -0.013122755102813244 -0.01921256259083748
v -0.001411098288372159 -0.013996255584061146 -0.01927541010081768
v -0.001182251493446529 -0.014872350730001926 -0.01924971118569374
v -0.011361976154148579 -0.019815536215901375 -0.016493627801537514
v -0.011476606130599976 -0.01899162121117115 -0.016742676496505737
v -0.011539963074028492 -0.018212342634797096 -0.01687416061758995
v -0.011183086782693863 -0.020696550607681274 -0.016095757484436035
v -0.010928320698440075 -0.02162185311317444 -0.015518981963396072
v -0.009397892281413078 -0.024789920076727867 -0.01190095767378807
v -0.009987086057662964 -0.02384018711745739 -0.013321521691977978
v -0.01049161795526743 -0.022803694009780884 -0.014511088840663433
v -0.010601057671010494 -0.02253945730626583 -0.014765661209821701
v -0.009156862273812294 -0.025120334699749947 -0.01131024956703186
v -0.00786301214247942 -0.025873662903904915 -0.01261674053966999
v -0.007266358472406864 -0.026172228157520294 -0.013097370974719524
v -0.006600639317184687 -0.02646978572010994 -0.013551341369748116
v -0.002727820770815015 -0.027459483593702316 -0.014654453843832016
v -0.0035658732522279024 -0.027354979887604713 -0.014629809185862541
v -0.004379296209663153 -0.027194233611226082 -0.014493299648165703
v -0.00516437878832221 -0.02698543854057789 -0.014257007278501987
v -0.009731864556670189 -0.02451261319220066 -0.010911785066127777
v -0.009944700635969639 -0.024113716557621956 -0.010672000236809254
v -0.0101083442568779 -0.02383192628622055 -0.011317080818116665
v -0.009382001124322414 -0.02495308220386505 -0.010997001081705093
v -0.009451113641262054 -0.024876641109585762 -0.010995207354426384
v -0.01003812626004219 -0.02376456931233406 -0.010314126498997211
v -0.010037984699010849 -0.023504771292209625 -0.009934616275131702
v -0.010518788360059261 -0.022982200607657433 -0.012712186202406883
v -0.010869954712688923 -0.022069452330470085 -0.013880002312362194
v -0.010946094989776611 -0.021838568150997162 -0.014129912480711937
v -0.011173713020980358 -0.021040985360741615 -0.014869525097310543
v -0.011350824497640133 -0.020241985097527504 -0.015436140820384026
v -0.011475121602416039 -0.019484763965010643 -0.01582750305533409
v -0.011554703116416931 -0.01877884566783905 -0.016073152422904968
v -0.01159860473126173 -0.018112512305378914 -0.01620374247431755
v -0.002783915027976036 -0.014523143880069256 0.036280520260334015
v -0.008078997023403645 -0.022693395614624023 -0.005417655687779188
v -0.00869824830442667 -0.023748721927404404 -0.008140698075294495
v -0.007044035941362381 -0.021011848002672195 -0.0005256954464130104
v -0.006416702643036842 -0.020046019926667213 0.0026932661421597004
v -0.006271239370107651 -0.01982804387807846 0.0034726157318800688
v -0.005077277775853872 -0.01812545396387577 0.010484080761671066
v -0.00487787090241909 -0.017856009304523468 0.011792748235166073
v -0.00401689438149333 -0.016737354919314384 0.01817813143134117
v -0.003943321760743856 -0.016644414514303207 0.018801307305693626
v -0.0037322123534977436 -0.016377057880163193 0.020692948251962662
v -0.003144773654639721 -0.015561254695057869 0.02733350172638893
v -0.0030308356508612633 -0.01535964384675026 0.029114583507180214
v -0.003015971975401044 -0.015330618247389793 0.02937236800789833
v -0.00282187364064157 -0.013926834799349308 0.040612660348415375
v -0.002938021905720234 -0.01345810666680336 0.04348064213991165
v -0.004090412054210901 -0.01093815453350544 0.053609371185302734
v -0.003558830823749304 -0.011972998268902302 0.05024408921599388
v -0.003358216257765889 -0.012394793331623077 0.04860612004995346
v -0.0032915924675762653 -0.0125419395044446 0.04798923805356026
v -0.004114646930247545 0.009057635441422462 0.054023075848817825
v -0.0045756748877465725 -0.026824522763490677 -0.013829176314175129
v -0.00853617675602436 0.024191129952669144 -0.006463170051574707
v -0.003583295037969947 0.010225956328213215 0.05072563886642456
v -0.0033889070618897676 0.010697079822421074 0.049175310879945755
v -0.003311608685180545 0.010896041989326477 0.048475369811058044
v -0.0031341887079179287 0.01139264926314354 0.04659772664308548
v -0.002942275023087859 0.012055136263370514 0.043765414506196976
v -0.0028380320873111486 0.012590805999934673 0.04116610065102577
v -0.002795503241941333 0.013300951570272446 0.03726988658308983
v -0.0030275818426162004 0.014469623565673828 0.0300041101872921
v -0.0030331339221447706 0.014484775252640247 0.029906924813985825
v -0.003752017393708229 0.015903988853096962 0.02127380110323429
v -0.003953142091631889 0.01623614877462387 0.019483676180243492
v -0.004223105497658253 0.016673974692821503 0.017282936722040176
v -0.004839178640395403 0.017671741545200348 0.012841814197599888
v -0.005420652683824301 0.018628014251589775 0.009148799814283848
v -0.006141601596027613 0.019845567643642426 0.005023308098316193
v -0.005083910189568996 0.01807182841002941 0.011239610612392426
v -0.006420013960450888 0.02032659202814102 0.0035338946618139744
v -0.0068711997009813786 0.021119602024555206 0.0012212574947625399
v -0.007662550546228886 0.022551339119672775 -0.0025792568922042847
v -0.008075731806457043 0.023319337517023087 -0.004453073721379042
v -0.009349953383207321 0.025770770385861397 -0.009836198762059212
v -0.009590313769876957 0.02546681836247444 -0.00984159205108881
v -0.00978812761604786 0.025143379345536232 -0.00975474901497364
v -0.009858823381364346 0.024993466213345528 -0.009680654853582382
v -0.009934984147548676 0.024779323488473892 -0.00953444093465805
v -0.009988349862396717 0.024404821917414665 -0.009147178381681442
v -0.009914767928421497 0.02403423748910427 -0.008551967330276966
v -0.009075691923499107 0.025997722521424294 -0.01022512000054121
v -0.009317731484770775 0.02569342777132988 -0.01082929503172636
v -0.0100312614813447 0.02471378818154335 -0.01028654258698225
v -0.009909839369356632 0.024806711822748184 -0.012288850732147694
v -0.01044430397450924 0.023925332352519035 -0.011716438457369804
v -0.010417582467198372 0.023823244497179985 -0.013521275483071804
v -0.010798289440572262 0.02306409552693367 -0.012921897694468498
v -0.010527840815484524 0.023570407181978226 -0.013786839321255684
v -0.010875143110752106 0.02284424379467964 -0.013181391172111034
v -0.010857965797185898 0.022686628624796867 -0.014578395523130894
v -0.011105244047939777 0.02207951433956623 -0.013954153284430504
v -0.011115627363324165 0.021787459030747414 -0.015193905681371689
v -0.011284852400422096 0.02130584605038166 -0.014554161578416824
v -0.011297287419438362 0.020924683660268784 -0.015628784894943237
v -0.011411523446440697 0.020566312596201897 -0.014977307990193367
v -0.011414514854550362 0.020112449303269386 -0.01591256633400917
v -0.01149333268404007 0.019871709868311882 -0.015252669341862202
v -0.011480333283543587 0.01933966763317585 -0.016077011823654175
v -0.011539340019226074 0.019211649894714355 -0.015411420725286007
v -0.008084231056272984 0.02567160315811634 -0.018201708793640137
v -0.0017970778280869126 0.02848861739039421 -0.01336799468845129
v -0.0011358543997630477 0.02856050804257393 -0.01680421456694603
v -0.0026341674383729696 0.02845665253698826 -0.013467247597873211
v -0.0036779746878892183 0.028234250843524933 -0.017300214618444443
v -0.004088391084223986 0.028236277401447296 -0.013359980657696724
v -0.005121658556163311 0.027959568426012993 -0.013074418529868126
v -0.006047938484698534 0.02724890038371086 -0.017776869237422943
v -0.006533935200423002 0.02742457576096058 -0.012395719066262245
v -0.007779370527714491 0.02680170349776745 -0.011498545296490192
v -0.0071812341921031475 0.0271187424659729 -0.011966473422944546
v -0.00964808464050293 0.02360985241830349 -0.018545782193541527
v -0.010632927529513836 0.021204151213169098 -0.018785618245601654
v -0.0011571256909519434 0.015163540840148926 -0.017088614404201508
v -0.0009916822891682386 0.015787459909915924 -0.017043717205524445
v -0.0005416647181846201 0.016242345795035362 -0.016947602853178978
v 7.234724762383848e-05 0.01640629954636097 -0.016826028004288673
v 0.0006858237902633846 0.016235386952757835 -0.01671154610812664
v 0.0011343895457684994 0.0157754048705101 -0.016634853556752205
v 0.001297851325944066 0.015149620361626148 -0.016616499051451683
v 0.0011324037332087755 0.01452570129185915 -0.016661375761032104
v 0.0006823852891102433 0.014070815406739712 -0.016757488250732422
v 6.837704859208316e-05 0.013906861655414104 -0.01687907800078392
v -0.0005451032193377614 0.014077775180339813 -0.01699354499578476
v -0.0009936679853126407 0.014537756331264973 -0.017070237547159195
v -0.010386183857917786 0.018625933676958084 -0.019301369786262512
v -0.010400312952697277 0.00972795020788908 -0.019490256905555725
v -0.010064404457807541 0.021082352846860886 -0.019188057631254196
v -0.009128806181252003 0.02336776815354824 -0.01896020583808422
v -0.007643143180757761 0.0253264419734478 -0.018633343279361725
v -0.0057086641900241375 0.026824865490198135 -0.018229752779006958
v -0.003457200713455677 0.027760950848460197 -0.01777692325413227
v -0.0010421888437122107 0.028070896863937378 -0.017305709421634674
v -0.0013220394030213356 0.01605008728802204 -0.017611073330044746
v -0.00155366281978786 0.015176588669419289 -0.0176739189773798
v 0.001021658186800778 0.013646776787936687 -0.01721036434173584
v 0.0001620439870748669 0.013417250476777554 -0.01738058030605316
v -0.0006968267844058573 0.01365652121603489 -0.017540844157338142
v 0.0016516837058588862 0.014283615164458752 -0.017075804993510246
v 0.001883306191302836 0.015157099813222885 -0.017012959346175194
v 0.0016544618410989642 0.01603320986032486 -0.01703866571187973
v 0.0010264700977131724 0.01667718216776848 -0.01714603416621685
v 0.0001676002866588533 0.01691645383834839 -0.01730629801750183
v -0.0006920148734934628 0.016686925664544106 -0.017476513981819153
v -0.0013248175382614136 0.014300492592155933 -0.017648212611675262
v -0.004488695878535509 0.02779284119606018 -0.012669950723648071
v -0.009861131198704243 0.004244986455887556 -0.025103310123085976
v -0.009853195399045944 0.00924384780228138 -0.024997185915708542
v 0.012233666144311428 0.004119704477488995 -0.02085428312420845
v 0.012241601943969727 0.009118565358221531 -0.020748160779476166
v 0.011610223911702633 0.00405191071331501 -0.01761440746486187
v 0.012214615941047668 -0.007877578027546406 -0.0211089625954628
v 0.012222551740705967 -0.0028787178453058004 -0.021002838388085365
v 0.010986628010869026 -0.00801109615713358 -0.014727403409779072
v 0.01159911323338747 -0.0029464969411492348 -0.01776297762989998
v 0.011005260981619358 0.0037237463984638453 -0.014478296041488647
v 0.011013614013791084 0.008985047228634357 -0.014366601593792439
v -0.0007580032106488943 0.009051795117557049 -0.0166303887963295
v -0.011081182397902012 0.009110329672694206 -0.01861562766134739
v -0.010484572499990463 0.0041771926917135715 -0.021863432601094246
v -0.009872245602309704 -0.0027534356340765953 -0.02525186538696289
v -0.009880181401968002 -0.007752296049147844 -0.025357987731695175
v -0.0104956841096282 -0.0028212147299200296 -0.022012002766132355
v -0.011108169332146645 -0.00788581371307373 -0.018976429477334023
v -0.011089535430073738 0.003849028842523694 -0.018727321177721024
v -0.0007849895628169179 -0.007944349199533463 -0.01699119061231613
v -0.004486628342419863 -0.004536420572549105 -0.01763218455016613
v -0.003983138594776392 -0.004401989746838808 -0.017532486468553543
v -0.0007663561264052987 0.003790494054555893 -0.016742082312703133
v -0.004489445127546787 -0.006311377976089716 -0.01766987144947052
v -0.003986393101513386 -0.006451515946537256 -0.01757599413394928
v -0.0034829038195312023 -0.00631708512082696 -0.01747630350291729
v -0.0031138902995735407 -0.005944080650806427 -0.017397483810782433
v -0.004857270512729883 -0.005934195592999458 -0.017732752487063408
v -0.004991305526345968 -0.005421038251370192 -0.01774781569838524
v -0.004855643026530743 -0.00490942457690835 -0.01771099865436554
v -0.003480086801573634 -0.004542127717286348 -0.01743861846625805
v -0.003112263046205044 -0.004919310100376606 -0.017375729978084564
v -0.0029782247729599476 -0.005432452540844679 -0.017360681667923927
v 0.003869534470140934 -0.006496060639619827 -0.01606523059308529
v 0.0033664831425994635 -0.006355922669172287 -0.01615910604596138
v 0.004877704661339521 -0.00547699723392725 -0.015849916264414787
v 0.00474203797057271 -0.005988625343888998 -0.015886720269918442
v 0.004373024683445692 -0.006361629813909531 -0.0159655399620533
v 0.002998658223077655 -0.005978740286082029 -0.016221987083554268
v 0.0028646227438002825 -0.005465582944452763 -0.0162370502948761
v 0.003000285243615508 -0.004953969269990921 -0.0162002332508564
v 0.0019148451974615455 0.0016529618296772242 -0.016270868480205536
v 0.002445784630253911 0.00196175929158926 -0.016162248328328133
v 0.003055033041164279 0.002023478038609028 -0.016043713316321373
v 0.003637253073975444 0.0018274836475029588 -0.015935786068439484
v 0.0038727889768779278 -0.004446534439921379 -0.016021722927689552
v 0.0036331273149698973 -0.0007700113928876817 -0.01599091850221157
v 0.0033693001605570316 -0.004580965265631676 -0.01612142100930214
v 0.0030502965673804283 -0.0009593999129720032 -0.01610703393816948
v 0.0024412551429122686 -0.0008907735464163125 -0.016222801059484482
v 0.004091766197234392 0.0014076369116082788 -0.01585710048675537
v 0.004339988809078932 0.0008365405956283212 -0.015821285545825958
v 0.0043389988131821156 0.0002129444183083251 -0.015834523364901543
v 0.004743665456771851 -0.004963854793459177 -0.015864966437220573
v 0.004375841468572617 -0.004586672410368919 -0.01592785306274891
v 0.004088967107236385 -0.00035532665788196027 -0.01589452475309372
v 0.001554024056531489 0.0011505065485835075 -0.01635081321001053
v 0.001911305938847363 -0.0005759602063335478 -0.0163181833922863
v 0.0015520869055762887 -6.942210893612355e-05 -0.016376709565520287
v 0.0014257112052291632 0.0005412566824816167 -0.01638825796544552
v -0.0034638536162674427 0.005680197849869728 -0.01722162589430809
v -0.003967342898249626 0.005545767489820719 -0.01732131652534008
v -0.004836592823266983 0.007087858393788338 -0.01745631918311119
v -0.004467576742172241 0.00746086286380887 -0.017377514392137527
v -0.0039640869945287704 0.007595292758196592 -0.01727781631052494
v -0.0034610352013260126 0.007455155253410339 -0.017183946445584297
v -0.004470394924283028 0.005685904994606972 -0.01741519197821617
v -0.004838220309466124 0.006063088309019804 -0.01747807301580906
v -0.004972255788743496 0.00657623028382659 -0.01749313622713089
v -0.003093212842941284 0.007077972870320082 -0.017121052369475365
v -0.0029591748025268316 0.006564815528690815 -0.01710600219666958
v -0.003094840096309781 0.006053202785551548 -0.017142806202173233
v 0.004394893068820238 0.007410610560327768 -0.015673181042075157
v 0.0038918405771255493 0.007550748065114021 -0.0157670509070158
v 0.003388351760804653 0.007416317705065012 -0.015866748988628387
v 0.0030193354468792677 0.007043313700705767 -0.01594555377960205
v 0.0038885846734046936 0.00550122233107686 -0.01581055112183094
v 0.004392074886709452 0.005635653156787157 -0.01571086049079895
v 0.00476271566003561 0.007033428177237511 -0.015610286965966225
v 0.004896754864603281 0.006520270835608244 -0.015595237724483013
v 0.00476108817383647 0.006008658092468977 -0.015632040798664093
v 0.003385533345863223 0.005641360301524401 -0.01590442843735218
v 0.003017708193510771 0.006018543150275946 -0.01596730761229992
v 0.002883672947064042 0.006531685125082731 -0.01598237082362175
v -0.0034216514322906733 -0.005365530028939247 -0.02048061229288578
v -0.004193441942334175 -0.005771457217633724 -0.020148007199168205
v -0.003906359896063805 -0.00606584083288908 -0.020098932087421417
v -0.0042980569414794445 -0.005370941944420338 -0.020159758627414703
v -0.0031207664869725704 -0.006070295348763466 -0.019947854802012444
v -0.0028327556792646646 -0.005779172759503126 -0.019886335358023643
v -0.003513733856379986 -0.006175218150019646 -0.02002566121518612
v -0.002831485588103533 -0.004979351069778204 -0.019869357347488403
v -0.0031185667030513287 -0.004684967454522848 -0.019918447360396385
v -0.0027268703561276197 -0.005379850976169109 -0.019857605919241905
v -0.003904160112142563 -0.004680512938648462 -0.02006952464580536
v -0.004192172084003687 -0.004971635993570089 -0.020131029188632965
v -0.00351119227707386 -0.004575574770569801 -0.019991710782051086
v -0.004727850202471018 -0.00541766919195652 -0.017926225438714027
v -0.00462323660030961 -0.005818184465169907 -0.017914466559886932
v -0.004336155951023102 -0.006112567614763975 -0.017865383997559547
v -0.003943528514355421 -0.006221945397555828 -0.017792118713259697
v -0.0035505627747625113 -0.006117022130638361 -0.017714306712150574
v -0.0032625503372401 -0.0058259000070393085 -0.01765279471874237
v -0.0031566638499498367 -0.005426578223705292 -0.01762407086789608
v -0.003261278849095106 -0.005026078317314386 -0.017635822296142578
v -0.0035483629908412695 -0.004731694236397743 -0.017684899270534515
v -0.003940988332033157 -0.00462231645360589 -0.017758162692189217
v -0.00433395616710186 -0.004727239720523357 -0.01783597469329834
v -0.00462196534499526 -0.0050183627754449844 -0.01789749413728714
v 0.0044533261097967625 0.0065872082486748695 -0.01871516928076744
v 0.0036815358325839043 0.006181280594319105 -0.018382564187049866
v 0.0039686174131929874 0.005886897910386324 -0.01833348162472248
v 0.0035769229289144278 0.006581795867532492 -0.01839432306587696
v 0.004754210822284222 0.005882443394511938 -0.018182404339313507
v 0.005042222328484058 0.0061735655181109905 -0.018120892345905304
v 0.004361243918538094 0.005777519661933184 -0.01826021634042263
v 0.0050434935837984085 0.006973387207835913 -0.01810391992330551
v 0.004756410606205463 0.007267771288752556 -0.01815299689769745
v 0.005148108582943678 0.00657288683578372 -0.018092168495059013
v 0.003970817197114229 0.007272225804626942 -0.018304072320461273
v 0.0036828070878982544 0.006981102749705315 -0.018365591764450073
v 0.004363785497844219 0.007377163041383028 -0.018226267769932747
v 0.003147128038108349 0.006535054184496403 -0.01616078056395054
v 0.0032517409417778254 0.00613455381244421 -0.016149023547768593
v 0.0035388225223869085 0.0058401706628501415 -0.01609993912279606
v 0.003931449260562658 0.005730792414397001 -0.016026675701141357
v 0.004324415698647499 0.005835716146975756 -0.015948863700032234
v 0.004612427204847336 0.006126838270574808 -0.015887349843978882
v 0.004718313924968243 0.006526145152747631 -0.01585862785577774
v 0.004613697528839111 0.006926660425961018 -0.01587037183344364
v 0.004326616879552603 0.007221043109893799 -0.015919461846351624
v 0.003933990374207497 0.007330421358346939 -0.015992725268006325
v 0.003541023703292012 0.007225497625768185 -0.016070539131760597
v 0.003253011032938957 0.0069343759678304195 -0.016132043674588203
v -0.0034026012290269136 0.006631752941757441 -0.02022593282163143
v -0.0041743917390704155 0.0062258257530629635 -0.019893329590559006
v -0.003887311089783907 0.005931442603468895 -0.01984424516558647
v -0.004279005341231823 0.006626340560615063 -0.01990508660674095
v -0.0031017176806926727 0.005926988087594509 -0.019693169742822647
v -0.002813705476000905 0.0062181102111935616 -0.019631655886769295
v -0.003494683653116226 0.005822064355015755 -0.01977098174393177
v -0.0028124339878559113 0.007017931900918484 -0.01961468532681465
v -0.003099517896771431 0.007312315981835127 -0.01966376043856144
v -0.002707818755879998 0.006617431528866291 -0.019602933898568153
v -0.003885111305862665 0.007316770497709513 -0.019814837723970413
v -0.004173120483756065 0.007025647442787886 -0.019876357167959213
v -0.0034921420738101006 0.007421707734465599 -0.019737031310796738
v -0.0047088004648685455 0.006579598877578974 -0.01767154596745968
v -0.004604186397045851 0.006179098505526781 -0.017659787088632584
v -0.004317105747759342 0.0058847153559327126 -0.0176107045263052
v -0.0039244783110916615 0.005775337107479572 -0.017537441104650497
v -0.0035315125714987516 0.005880260840058327 -0.017459627240896225
v -0.0032435001339763403 0.006171382963657379 -0.017398115247488022
v -0.003137613646686077 0.006570690311491489 -0.01736939325928688
v -0.003242230275645852 0.006971205119043589 -0.01738113723695278
v -0.003529311390593648 0.007265588268637657 -0.017430227249860764
v -0.003921937197446823 0.00737496605142951 -0.017503490671515465
v -0.0043149045668542385 0.007270042784512043 -0.017581304535269737
v -0.0046029165387153625 0.006978920660912991 -0.017642809078097343
v 0.004434275906533003 -0.005410074722021818 -0.01896984688937664
v 0.0036624856293201447 -0.0058160023763775826 -0.018637243658304214
v 0.00394956860691309 -0.006110385525971651 -0.018588166683912277
v 0.0035578713286668062 -0.005415487103164196 -0.018648993223905563
v 0.004735162016004324 -0.006114840041846037 -0.018437091261148453
v 0.005023172125220299 -0.005823717452585697 -0.018375569954514503
v 0.004342193715274334 -0.006219762843102217 -0.01851489581167698
v 0.005024441983550787 -0.005023895762860775 -0.018358591943979263
v 0.004737361799925566 -0.004729512147605419 -0.018407681956887245
v 0.005129056982696056 -0.005424396134912968 -0.018346840515732765
v 0.0039517683908343315 -0.004725057631731033 -0.01855875924229622
v 0.003663755487650633 -0.00501618068665266 -0.018620263785123825
v 0.00434473529458046 -0.004620119463652372 -0.018480945378541946
v 0.003128078067675233 -0.005462213885039091 -0.016415460035204887
v 0.0032326907385140657 -0.005862729158252478 -0.016403701156377792
v 0.0035197725519537926 -0.006157112307846546 -0.016354618594050407
v 0.003912399057298899 -0.006266490090638399 -0.016281355172395706
v 0.004305365961045027 -0.006161566823720932 -0.016203541308641434
v 0.004593377001583576 -0.00587044470012188 -0.01614202931523323
v 0.004699263721704483 -0.005471122916787863 -0.01611330732703209
v 0.004594648722559214 -0.005070623010396957 -0.016125058755278587
v 0.004307565279304981 -0.004776238929480314 -0.016174133867025375
v 0.003914938773959875 -0.004666861146688461 -0.016247397288680077
v 0.0035219721030443907 -0.004771784413605928 -0.01632521115243435
v 0.0032339622266590595 -0.0050629074685275555 -0.01638673059642315
v 0.00423767464235425 -0.0007042732322588563 -0.01913260668516159
v 0.0036548441275954247 -0.0008936765370890498 -0.0192487221211195
v 0.0035008620470762253 -0.0009010135545395315 -0.01927850767970085
v 0.003045801306143403 -0.0008250348619185388 -0.019364483654499054
v 0.0025158533826470375 -0.0005102368304505944 -0.01945987343788147
v 0.002156634582206607 -3.6987248677178286e-06 -0.019518399611115456
v 0.0020302573684602976 0.0006069953669793904 -0.01952994056046009
v 0.0021585715003311634 0.001216245349496603 -0.01949250139296055
v 0.00251939264126122 0.0017187006305903196 -0.019412558525800705
v 0.0030503307934850454 0.0020274831913411617 -0.019303930923342705
v 0.0036595806013792753 0.002089217072352767 -0.019185401499271393
v 0.004241799470037222 0.0018932075472548604 -0.019077468663454056
v 0.0046963137574493885 0.0014733609277755022 -0.01899879053235054
v 0.004944536369293928 0.0009022639133036137 -0.018962975591421127
v 0.004943546373397112 0.00027868329198099673 -0.01897621341049671
v 0.004693514667451382 -0.00028958849725313485 -0.01903621479868889
f 1 2 3
f 3 2 4
f 3 4 5
f 5 4 6
f 7 8 9
f 9 8 10
f 9 10 11
f 9 12 7
f 7 12 13
f 7 13 14
f 14 13 5
f 14 5 6
f 15 16 17
f 17 16 18
f 17 18 19
f 19 18 20
f 19 20 21
f 21 20 22
f 21 22 23
f 23 22 24
f 23 24 25
f 26 27 28
f 28 27 29
f 28 29 30
f 25 24 30
f 30 24 31
f 30 31 28
f 32 33 34
f 25 35 23
f 23 35 32
f 23 32 36
f 36 32 34
f 11 10 37
f 37 10 38
f 37 38 33
f 33 38 34
f 39 40 41
f 41 40 42
f 43 44 45
f 46 47 40
f 40 39 48
f 46 40 49
f 49 40 48
f 49 48 50
f 47 51 40
f 40 51 52
f 40 52 53
f 53 52 54
f 53 54 55
f 55 54 56
f 56 57 55
f 55 57 58
f 55 58 59
f 59 58 60
f 60 61 59
f 59 61 62
f 59 62 45
f 45 62 63
f 45 63 43
f 64 44 65
f 65 44 43
f 64 66 44
f 44 66 67
f 44 67 68
f 45 44 68
f 68 69 45
f 45 69 70
f 45 70 59
f 59 70 71
f 59 71 72
f 72 73 59
f 59 73 74
f 59 74 55
f 55 74 75
f 55 75 53
f 53 75 76
f 53 76 40
f 40 76 77
f 40 77 78
f 79 80 81
f 82 83 42
f 42 83 84
f 81 80 85
f 84 86 42
f 42 86 87
f 42 87 88
f 88 87 89
f 88 89 80
f 80 89 90
f 80 90 85
f 79 81 91
f 91 81 92
f 91 92 93
f 94 95 96
f 93 97 91
f 91 97 94
f 91 94 98
f 98 94 96
f 99 100 96
f 99 96 101
f 95 102 96
f 96 102 103
f 96 103 101
f 104 91 105
f 105 91 98
f 105 98 100
f 100 98 96
f 104 106 91
f 91 106 107
f 91 107 79
f 79 107 108
f 79 108 80
f 108 109 80
f 80 109 110
f 80 110 88
f 88 110 111
f 88 111 42
f 42 111 112
f 42 112 113
f 113 114 42
f 42 114 115
f 42 115 116
f 116 117 42
f 42 117 118
f 42 118 41
f 82 42 119
f 119 42 120
f 121 122 123
f 124 125 126
f 126 125 127
f 119 128 82
f 82 128 129
f 82 129 130
f 131 40 132
f 132 40 78
f 132 78 122
f 124 133 125
f 125 133 134
f 125 134 135
f 136 137 138
f 138 137 139
f 138 139 140
f 140 139 141
f 142 143 144
f 145 146 78
f 78 146 147
f 78 147 122
f 122 147 148
f 122 148 123
f 131 149 40
f 40 149 150
f 40 150 42
f 42 150 151
f 42 151 135
f 142 144 152
f 141 139 130
f 130 139 153
f 130 153 82
f 82 153 154
f 82 154 78
f 78 154 155
f 78 155 145
f 134 156 135
f 135 156 157
f 135 157 42
f 42 157 158
f 42 158 159
f 159 160 42
f 42 160 161
f 42 161 120
f 120 161 152
f 120 152 162
f 162 152 144
f 121 123 163
f 163 123 164
f 163 164 165
f 165 164 166
f 165 166 127
f 127 166 126
f 126 166 137
f 126 137 142
f 142 137 136
f 142 136 143
f 167 168 169
f 169 168 170
f 169 170 171
f 171 170 172
f 171 172 41
f 41 172 39
f 172 170 173
f 39 172 174
f 175 176 177
f 177 176 178
f 177 178 179
f 179 178 180
f 179 180 181
f 181 180 182
f 181 182 183
f 183 182 184
f 183 184 185
f 185 184 173
f 185 173 186
f 186 173 170
f 186 170 168
f 187 188 175
f 175 188 189
f 175 189 176
f 187 190 188
f 188 190 191
f 188 191 192
f 192 191 193
f 192 193 194
f 194 193 195
f 194 195 196
f 196 195 197
f 196 197 198
f 198 197 199
f 198 199 200
f 200 199 201
f 200 201 202
f 201 203 202
f 202 203 204
f 202 204 205
f 205 204 206
f 205 206 207
f 172 173 174
f 174 173 184
f 174 184 208
f 208 184 182
f 208 182 209
f 209 182 180
f 209 180 210
f 210 180 178
f 210 178 211
f 211 178 176
f 211 176 212
f 212 176 189
f 212 189 213
f 213 189 188
f 213 188 214
f 214 188 192
f 214 192 215
f 215 192 194
f 215 194 216
f 216 194 196
f 216 196 217
f 217 196 198
f 217 198 218
f 218 198 200
f 218 200 219
f 219 200 202
f 219 202 220
f 220 202 205
f 220 205 221
f 221 205 207
f 221 207 222
f 39 174 48
f 48 174 208
f 48 208 50
f 50 208 209
f 50 209 49
f 49 209 210
f 49 210 46
f 46 210 211
f 46 211 47
f 47 211 212
f 47 212 51
f 51 212 213
f 51 213 52
f 52 213 214
f 52 214 54
f 54 214 215
f 54 215 56
f 56 215 216
f 56 216 57
f 57 216 217
f 57 217 58
f 58 217 218
f 58 218 60
f 60 218 219
f 60 219 61
f 61 219 220
f 61 220 62
f 62 220 221
f 62 221 63
f 63 221 222
f 63 222 43
f 206 223 207
f 207 223 224
f 207 224 222
f 43 222 225
f 223 226 224
f 224 226 227
f 224 227 228
f 228 227 229
f 228 229 230
f 230 229 231
f 230 231 232
f 232 231 233
f 233 234 232
f 232 234 235
f 232 235 236
f 222 224 225
f 225 224 228
f 225 228 237
f 237 228 230
f 237 230 238
f 238 230 232
f 238 232 239
f 239 232 236
f 239 236 240
f 43 225 65
f 65 225 237
f 65 237 64
f 64 237 238
f 64 238 66
f 66 238 239
f 66 239 67
f 67 239 240
f 67 240 68
f 236 235 241
f 240 236 242
f 68 240 243
f 236 241 242
f 242 241 244
f 242 244 245
f 245 244 246
f 245 246 247
f 247 246 248
f 247 248 249
f 249 248 250
f 249 250 251
f 251 250 252
f 251 252 253
f 253 252 254
f 253 254 255
f 255 254 256
f 255 256 257
f 257 256 258
f 257 258 259
f 259 258 260
f 259 260 261
f 240 242 243
f 243 242 245
f 243 245 262
f 262 245 247
f 262 247 263
f 263 247 249
f 263 249 264
f 264 249 251
f 264 251 265
f 265 251 253
f 265 253 266
f 266 253 255
f 266 255 267
f 267 255 257
f 267 257 268
f 268 257 259
f 268 259 269
f 269 259 261
f 269 261 270
f 68 243 69
f 69 243 262
f 69 262 70
f 70 262 263
f 70 263 71
f 71 263 264
f 71 264 72
f 72 264 265
f 72 265 73
f 73 265 266
f 73 266 74
f 74 266 267
f 74 267 75
f 75 267 268
f 75 268 76
f 76 268 269
f 76 269 77
f 77 269 270
f 77 270 78
f 260 271 272
f 260 272 261
f 261 272 273
f 261 273 270
f 270 273 82
f 270 82 78
f 272 271 274
f 273 272 275
f 82 273 276
f 272 274 275
f 275 274 277
f 275 277 278
f 278 277 279
f 278 279 280
f 280 279 281
f 280 281 282
f 282 281 283
f 282 283 284
f 284 283 285
f 284 285 286
f 286 285 287
f 286 287 288
f 288 287 289
f 288 289 290
f 290 289 291
f 290 291 292
f 292 291 293
f 292 293 294
f 294 293 295
f 294 295 296
f 296 295 297
f 296 297 298
f 298 297 299
f 298 299 300
f 273 275 276
f 276 275 278
f 276 278 301
f 301 278 280
f 301 280 302
f 302 280 282
f 302 282 303
f 303 282 284
f 303 284 304
f 304 284 286
f 304 286 305
f 305 286 288
f 305 288 306
f 306 288 290
f 306 290 307
f 307 290 292
f 307 292 308
f 308 292 294
f 308 294 309
f 309 294 296
f 309 296 310
f 310 296 298
f 310 298 311
f 311 298 300
f 311 300 312
f 82 276 83
f 83 276 301
f 83 301 84
f 84 301 302
f 84 302 86
f 86 302 303
f 86 303 87
f 87 303 304
f 87 304 89
f 89 304 305
f 89 305 90
f 90 305 306
f 90 306 85
f 85 306 307
f 85 307 81
f 81 307 308
f 81 308 92
f 92 308 309
f 92 309 93
f 93 309 310
f 93 310 97
f 97 310 311
f 97 311 94
f 94 311 312
f 94 312 95
f 300 299 313
f 95 312 314
f 312 300 315
f 315 300 313
f 315 313 316
f 316 313 317
f 317 318 316
f 316 318 319
f 316 319 320
f 320 319 321
f 320 321 322
f 322 321 323
f 322 323 324
f 324 323 325
f 324 325 326
f 312 315 314
f 314 315 316
f 314 316 327
f 327 316 320
f 327 320 328
f 328 320 322
f 328 322 329
f 329 322 324
f 329 324 330
f 95 314 102
f 102 314 327
f 102 327 103
f 103 327 328
f 103 328 101
f 101 328 329
f 101 329 99
f 99 329 330
f 99 330 100
f 324 326 331
f 330 324 332
f 100 330 333
f 324 331 332
f 332 331 334
f 332 334 335
f 335 334 336
f 335 336 337
f 337 336 338
f 337 338 339
f 339 338 340
f 339 340 341
f 340 342 341
f 341 342 343
f 341 343 344
f 344 343 345
f 344 345 346
f 346 345 347
f 346 347 348
f 348 347 349
f 348 349 350
f 349 351 350
f 350 351 352
f 350 352 353
f 353 352 354
f 353 354 355
f 355 354 356
f 355 356 357
f 357 356 358
f 357 358 359
f 359 358 360
f 359 360 361
f 361 360 362
f 361 362 363
f 363 362 167
f 363 167 169
f 330 332 333
f 333 332 335
f 333 335 364
f 364 335 337
f 364 337 365
f 365 337 339
f 365 339 366
f 366 339 341
f 366 341 367
f 367 341 344
f 367 344 368
f 368 344 346
f 368 346 369
f 369 346 348
f 369 348 370
f 370 348 350
f 370 350 371
f 371 350 353
f 371 353 372
f 372 353 355
f 372 355 373
f 373 355 357
f 373 357 374
f 374 357 359
f 374 359 375
f 375 359 361
f 375 361 376
f 376 361 363
f 376 363 377
f 377 363 169
f 377 169 171
f 100 333 105
f 105 333 364
f 105 364 104
f 104 364 365
f 104 365 106
f 106 365 366
f 106 366 107
f 107 366 367
f 107 367 108
f 108 367 368
f 108 368 109
f 109 368 369
f 109 369 110
f 110 369 370
f 110 370 111
f 111 370 371
f 111 371 112
f 112 371 372
f 112 372 113
f 113 372 373
f 113 373 114
f 114 373 374
f 114 374 115
f 115 374 375
f 115 375 116
f 116 375 376
f 116 376 117
f 117 376 377
f 117 377 118
f 118 377 171
f 118 171 41
f 378 379 380
f 380 379 381
f 380 381 382
f 382 381 383
f 384 385 386
f 386 385 387
f 386 387 388
f 389 390 386
f 386 390 391
f 386 391 384
f 392 393 386
f 386 393 394
f 386 394 389
f 388 395 386
f 386 395 396
f 386 396 392
f 397 398 399
f 399 398 400
f 399 400 401
f 402 403 399
f 399 403 404
f 399 404 397
f 405 406 399
f 399 406 407
f 399 407 402
f 401 408 399
f 399 408 409
f 399 409 405
f 155 410 145
f 145 410 411
f 145 411 146
f 146 411 412
f 146 412 147
f 147 412 413
f 147 413 148
f 148 413 414
f 148 414 123
f 123 414 415
f 123 415 164
f 164 415 416
f 164 416 166
f 166 416 417
f 166 417 137
f 137 417 418
f 137 418 139
f 139 418 419
f 139 419 153
f 153 419 420
f 153 420 154
f 154 420 421
f 154 421 155
f 155 421 410
f 126 422 124
f 124 422 423
f 124 423 133
f 133 423 424
f 133 424 134
f 134 424 425
f 134 425 156
f 156 425 426
f 156 426 157
f 157 426 427
f 157 427 158
f 158 427 428
f 158 428 159
f 159 428 429
f 159 429 160
f 160 429 430
f 160 430 161
f 161 430 431
f 161 431 152
f 152 431 432
f 152 432 142
f 142 432 433
f 142 433 126
f 126 433 422
f 130 434 141
f 141 434 435
f 141 435 140
f 140 435 436
f 140 436 138
f 138 436 437
f 138 437 136
f 136 437 438
f 136 438 143
f 143 438 439
f 143 439 144
f 144 439 440
f 144 440 162
f 162 440 441
f 162 441 120
f 120 441 442
f 120 442 119
f 119 442 443
f 119 443 128
f 128 443 444
f 128 444 129
f 129 444 445
f 129 445 130
f 130 445 434
f 163 446 121
f 121 446 447
f 121 447 122
f 122 447 448
f 122 448 132
f 132 448 449
f 132 449 131
f 131 449 450
f 131 450 149
f 149 450 451
f 149 451 150
f 150 451 452
f 150 452 151
f 151 452 453
f 151 453 135
f 135 453 454
f 135 454 125
f 125 454 455
f 125 455 127
f 127 455 456
f 127 456 165
f 165 456 457
f 165 457 163
f 163 457 446
f 458 459 460
f 460 459 461
f 460 461 462
f 462 461 463
f 463 461 464
f 463 464 465
f 465 464 466
f 465 466 467
f 468 187 469
f 469 187 175
f 469 175 177
f 177 179 469
f 469 179 181
f 469 181 460
f 460 181 183
f 460 183 185
f 185 186 460
f 460 186 168
f 460 168 458
f 458 168 167
f 458 167 362
f 362 360 458
f 458 360 358
f 458 358 470
f 470 358 356
f 470 356 354
f 354 352 470
f 470 352 351
f 470 351 471
f 351 349 471
f 471 349 347
f 471 347 472
f 347 345 472
f 472 345 343
f 472 343 473
f 473 343 342
f 473 342 474
f 342 340 474
f 474 340 475
f 474 475 476
f 475 336 476
f 476 336 334
f 476 334 477
f 477 334 331
f 477 331 478
f 479 480 481
f 482 479 299
f 299 479 481
f 299 481 313
f 313 481 483
f 313 483 317
f 317 483 484
f 317 484 318
f 318 484 485
f 318 485 319
f 319 485 486
f 319 486 321
f 321 486 487
f 321 487 323
f 323 487 488
f 323 488 325
f 325 488 478
f 325 478 326
f 326 478 331
f 482 299 489
f 489 299 297
f 489 297 490
f 491 492 293
f 293 492 493
f 293 493 295
f 295 493 494
f 295 494 297
f 297 494 495
f 297 495 490
f 491 293 496
f 496 293 291
f 496 291 378
f 378 291 289
f 378 289 287
f 287 285 378
f 378 285 283
f 378 283 281
f 281 279 378
f 378 279 277
f 378 277 274
f 274 271 378
f 378 271 260
f 378 260 379
f 379 260 258
f 258 256 379
f 379 256 254
f 379 254 252
f 252 250 379
f 379 250 248
f 379 248 497
f 497 248 246
f 498 499 244
f 244 499 500
f 244 500 246
f 246 500 501
f 246 501 497
f 498 244 502
f 502 244 241
f 502 241 503
f 504 505 235
f 235 505 506
f 235 506 241
f 241 506 507
f 241 507 503
f 508 509 226
f 226 509 227
f 509 510 227
f 227 510 511
f 227 511 229
f 229 511 512
f 229 512 231
f 231 512 513
f 231 513 233
f 233 513 514
f 233 514 234
f 234 514 515
f 234 515 235
f 235 515 516
f 235 516 504
f 226 223 508
f 508 223 206
f 508 206 517
f 517 206 204
f 517 204 518
f 518 204 203
f 518 203 519
f 197 520 199
f 199 520 519
f 199 519 201
f 201 519 203
f 197 195 520
f 520 195 193
f 520 193 521
f 521 193 191
f 521 191 468
f 468 191 190
f 468 190 187
f 415 414 24
f 24 414 413
f 24 413 522
f 413 412 522
f 522 412 411
f 522 411 410
f 451 450 24
f 24 450 449
f 24 449 415
f 415 449 448
f 415 448 416
f 447 418 448
f 448 418 417
f 448 417 416
f 428 427 456
f 456 427 426
f 456 426 457
f 457 426 425
f 457 425 446
f 446 425 424
f 22 523 431
f 431 523 432
f 431 430 22
f 22 430 429
f 22 429 428
f 445 444 523
f 523 444 443
f 523 443 432
f 432 443 442
f 432 442 441
f 456 455 428
f 428 455 454
f 428 454 22
f 22 454 453
f 22 453 24
f 24 453 452
f 24 452 451
f 421 437 410
f 410 437 436
f 410 436 522
f 522 436 435
f 522 435 523
f 523 435 434
f 523 434 445
f 421 420 437
f 437 420 419
f 437 419 438
f 438 419 418
f 438 418 439
f 447 446 418
f 418 446 424
f 418 424 439
f 439 424 423
f 439 423 440
f 440 423 422
f 440 422 441
f 441 422 433
f 441 433 432
f 523 524 525
f 383 526 527
f 527 522 383
f 383 522 523
f 383 523 382
f 382 523 525
f 394 528 389
f 389 528 529
f 389 529 390
f 390 529 530
f 390 530 391
f 391 530 531
f 391 531 384
f 384 531 532
f 384 532 385
f 385 532 533
f 385 533 387
f 387 533 534
f 387 534 388
f 388 534 535
f 388 535 395
f 395 535 536
f 395 536 396
f 396 536 537
f 396 537 392
f 392 537 538
f 392 538 393
f 393 538 539
f 393 539 394
f 394 539 528
f 540 541 542
f 540 542 543
f 543 542 544
f 543 544 545
f 545 544 546
f 545 546 547
f 547 546 548
f 547 548 549
f 549 548 550
f 549 550 551
f 551 550 525
f 551 525 552
f 553 541 17
f 17 541 15
f 554 552 524
f 524 552 525
f 555 556 18
f 18 556 557
f 18 557 554
f 545 558 543
f 543 558 559
f 543 559 540
f 540 559 16
f 559 560 16
f 16 560 561
f 16 561 18
f 18 561 562
f 18 562 555
f 557 563 554
f 554 563 564
f 554 564 552
f 552 564 565
f 552 565 551
f 551 565 566
f 551 566 549
f 549 566 558
f 549 558 547
f 547 558 545
f 524 523 20
f 20 523 22
f 18 554 20
f 20 554 524
f 15 541 16
f 16 541 540
f 550 567 568
f 550 568 525
f 525 568 569
f 525 569 382
f 567 550 570
f 570 550 548
f 570 548 571
f 572 573 546
f 546 573 574
f 546 574 548
f 548 574 575
f 548 575 571
f 576 572 577
f 577 572 546
f 577 546 578
f 578 546 544
f 578 544 579
f 541 553 542
f 542 553 580
f 580 581 542
f 542 581 582
f 542 582 544
f 544 582 583
f 544 583 579
f 584 585 586
f 576 587 572
f 572 587 588
f 572 588 584
f 585 589 482
f 482 589 590
f 482 590 479
f 479 590 480
f 585 482 586
f 586 482 489
f 586 489 591
f 591 489 490
f 591 490 592
f 592 490 495
f 592 495 593
f 593 495 494
f 593 494 594
f 594 494 493
f 594 493 595
f 595 493 492
f 595 492 596
f 596 492 491
f 596 491 597
f 597 491 496
f 597 496 598
f 598 496 378
f 598 378 380
f 584 586 572
f 572 586 591
f 572 591 573
f 573 591 592
f 573 592 574
f 574 592 593
f 574 593 575
f 575 593 594
f 575 594 571
f 571 594 595
f 571 595 570
f 570 595 596
f 570 596 567
f 567 596 597
f 567 597 568
f 568 597 598
f 568 598 569
f 569 598 380
f 569 380 382
f 471 472 599
f 599 472 473
f 483 481 600
f 588 587 601
f 600 481 601
f 601 481 480
f 601 480 590
f 584 588 585
f 585 588 601
f 585 601 589
f 589 601 590
f 483 600 484
f 484 600 602
f 484 602 485
f 485 602 603
f 485 603 486
f 603 604 486
f 486 604 605
f 486 605 487
f 487 605 488
f 605 606 488
f 488 606 607
f 488 607 478
f 478 607 608
f 478 608 477
f 477 608 609
f 477 609 476
f 476 609 474
f 609 610 474
f 474 610 611
f 474 611 473
f 473 611 612
f 473 612 599
f 471 599 470
f 470 599 613
f 470 613 614
f 615 466 616
f 616 466 464
f 616 464 617
f 617 464 461
f 617 461 618
f 618 461 459
f 618 459 614
f 614 459 458
f 614 458 470
f 615 2 466
f 466 2 1
f 466 1 467
f 467 1 619
f 582 581 620
f 620 581 580
f 620 580 553
f 578 579 620
f 620 579 583
f 620 583 582
f 553 17 620
f 620 17 19
f 620 19 578
f 578 19 577
f 21 600 19
f 19 600 601
f 601 587 19
f 19 587 576
f 19 576 577
f 23 36 605
f 605 604 23
f 23 604 603
f 23 603 21
f 21 603 602
f 21 602 600
f 10 609 38
f 38 609 608
f 38 608 34
f 34 608 607
f 34 607 36
f 36 607 606
f 36 606 605
f 8 611 10
f 10 611 610
f 10 610 609
f 2 615 4
f 4 615 616
f 616 617 4
f 4 617 618
f 4 618 6
f 6 618 614
f 6 614 14
f 14 614 613
f 14 613 7
f 7 613 599
f 7 599 8
f 8 599 612
f 8 612 611
f 504 516 621
f 465 467 619
f 465 619 463
f 619 622 463
f 463 622 623
f 463 623 462
f 623 624 462
f 462 624 625
f 462 625 460
f 460 625 469
f 625 626 469
f 469 626 627
f 469 627 468
f 468 627 628
f 468 628 521
f 521 628 520
f 520 628 629
f 520 629 519
f 519 629 630
f 519 630 518
f 518 630 631
f 518 631 517
f 517 631 508
f 508 631 632
f 508 632 509
f 632 633 509
f 509 633 634
f 509 634 510
f 510 634 511
f 635 636 513
f 634 637 511
f 511 637 635
f 511 635 512
f 512 635 513
f 636 638 513
f 513 638 639
f 513 639 514
f 514 639 640
f 514 640 515
f 515 640 516
f 516 640 641
f 516 641 621
f 621 642 643
f 643 644 621
f 621 644 645
f 621 645 646
f 646 647 621
f 621 647 648
f 621 648 504
f 642 649 643
f 643 649 650
f 643 650 644
f 647 506 648
f 648 506 505
f 648 505 504
f 647 646 651
f 651 646 645
f 651 645 644
f 644 650 651
f 651 650 652
f 651 652 653
f 653 652 654
f 653 654 655
f 655 654 656
f 655 656 657
f 657 656 658
f 657 658 659
f 659 658 660
f 659 660 661
f 661 660 662
f 661 662 663
f 663 662 664
f 663 664 665
f 665 664 666
f 665 666 667
f 667 666 383
f 667 383 381
f 647 651 506
f 506 651 653
f 506 653 507
f 507 653 655
f 507 655 503
f 503 655 657
f 503 657 502
f 502 657 659
f 502 659 498
f 498 659 661
f 498 661 499
f 499 661 663
f 499 663 500
f 500 663 665
f 500 665 501
f 501 665 667
f 501 667 497
f 497 667 381
f 497 381 379
f 652 650 668
f 669 670 671
f 671 670 672
f 671 672 673
f 673 672 674
f 674 672 675
f 674 675 676
f 650 649 668
f 668 649 677
f 668 677 675
f 675 677 678
f 675 678 676
f 660 679 662
f 662 679 680
f 662 680 664
f 660 658 679
f 679 658 656
f 679 656 668
f 668 656 654
f 668 654 652
f 664 680 666
f 666 680 526
f 666 526 383
f 400 681 401
f 401 681 682
f 401 682 408
f 408 682 683
f 408 683 409
f 409 683 684
f 409 684 405
f 405 684 685
f 405 685 406
f 406 685 686
f 406 686 407
f 407 686 687
f 407 687 402
f 402 687 688
f 402 688 403
f 403 688 689
f 403 689 404
f 404 689 690
f 404 690 397
f 397 690 691
f 397 691 398
f 398 691 692
f 398 692 400
f 400 692 681
f 526 693 527
f 527 693 694
f 522 527 24
f 24 527 31
f 693 526 680
f 693 680 695
f 695 680 679
f 695 679 696
f 696 679 668
f 696 668 697
f 697 668 675
f 697 675 698
f 698 675 672
f 698 672 699
f 699 672 670
f 699 670 700
f 701 702 693
f 703 28 704
f 704 28 694
f 704 694 705
f 703 706 28
f 28 706 707
f 28 707 26
f 707 708 26
f 26 708 709
f 26 709 700
f 700 709 710
f 700 710 699
f 699 710 711
f 699 711 698
f 693 702 694
f 694 702 712
f 694 712 705
f 693 695 701
f 701 695 696
f 701 696 711
f 711 696 697
f 711 697 698
f 670 669 27
f 27 669 29
f 26 700 27
f 27 700 670
f 31 527 28
f 28 527 694
f 9 11 631
f 631 11 37
f 631 37 632
f 631 630 9
f 9 630 629
f 9 629 12
f 12 629 628
f 12 628 13
f 13 628 627
f 13 627 5
f 624 3 625
f 625 3 5
f 625 5 626
f 626 5 627
f 619 1 622
f 622 1 3
f 622 3 623
f 623 3 624
f 632 37 633
f 633 37 33
f 633 33 634
f 634 33 32
f 634 32 637
f 637 32 635
f 635 32 35
f 635 35 636
f 641 640 25
f 25 640 639
f 25 639 35
f 35 639 638
f 35 638 636
f 649 642 621
f 641 25 621
f 621 25 30
f 621 30 649
f 673 674 713
f 30 29 669
f 674 676 713
f 713 676 678
f 713 678 30
f 30 678 677
f 30 677 649
f 30 669 713
f 713 669 671
f 713 671 673
f 682 701 683
f 683 701 711
f 683 711 684
f 684 711 710
f 684 710 685
f 685 710 709
f 685 709 686
f 686 709 708
f 686 708 687
f 687 708 707
f 687 707 688
f 688 707 706
f 688 706 689
f 689 706 703
f 689 703 690
f 690 703 704
f 690 704 691
f 691 704 705
f 691 705 692
f 692 705 712
f 692 712 681
f 681 712 702
f 681 702 682
f 682 702 701
f 529 564 530
f 530 564 563
f 530 563 531
f 531 563 557
f 531 557 532
f 532 557 556
f 532 556 533
f 533 556 555
f 533 555 534
f 534 555 562
f 534 562 535
f 535 562 561
f 535 561 536
f 536 561 560
f 536 560 537
f 537 560 559
f 537 559 538
f 538 559 558
f 538 558 539
f 539 558 566
f 539 566 528
f 528 566 565
f 528 565 529
f 529 565 564
f 714 715 716
f 716 715 717
f 718 716 717
f 719 720 721
f 721 720 722
f 721 722 723
f 723 722 718
f 723 718 724
f 724 718 717
f 724 717 725
f 725 717 715
f 725 715 726
f 715 714 726
f 726 714 727
f 728 729 730
f 730 729 731
f 730 731 727
f 727 731 732
f 727 732 726
f 719 721 729
f 729 721 733
f 729 733 731
f 734 735 736
f 737 731 738
f 738 731 733
f 738 733 739
f 739 733 740
f 737 741 731
f 731 741 742
f 731 742 732
f 732 742 743
f 735 744 736
f 736 744 745
f 736 745 733
f 733 745 746
f 733 746 740
f 721 747 733
f 733 747 748
f 749 750 721
f 721 750 751
f 721 751 747
f 748 752 733
f 733 752 753
f 733 753 736
f 736 753 754
f 755 756 736
f 723 757 758
f 759 760 761
f 761 760 762
f 761 762 754
f 754 762 763
f 758 764 723
f 723 764 765
f 723 765 766
f 749 721 767
f 767 721 723
f 767 723 768
f 768 723 766
f 768 766 759
f 759 766 769
f 759 769 760
f 755 736 770
f 763 771 754
f 754 771 772
f 754 772 736
f 736 772 773
f 736 773 770
f 774 775 736
f 736 775 732
f 736 732 734
f 734 732 743
f 776 777 726
f 726 777 778
f 726 778 725
f 725 778 779
f 775 780 732
f 732 780 781
f 732 781 726
f 726 781 782
f 726 782 776
f 779 783 725
f 725 783 784
f 725 784 736
f 736 784 785
f 736 785 774
f 786 724 787
f 787 724 725
f 787 725 788
f 788 725 789
f 756 757 736
f 736 757 723
f 736 723 790
f 790 723 791
f 786 792 724
f 724 792 793
f 724 793 723
f 723 793 794
f 723 794 791
f 790 795 736
f 736 795 796
f 736 796 725
f 725 796 797
f 725 797 789
f 720 719 728
f 728 719 729
f 798 799 800
f 801 799 798
f 798 802 803
f 804 802 798
f 800 804 798
f 798 805 806
f 807 805 798
f 803 807 798
f 798 808 809
f 810 808 798
f 806 810 798
f 809 801 798
f 801 811 799
f 799 811 812
f 799 812 800
f 800 812 813
f 800 813 804
f 804 813 814
f 804 814 802
f 802 814 815
f 802 815 803
f 803 815 816
f 803 816 807
f 807 816 817
f 807 817 805
f 805 817 818
f 805 818 806
f 806 818 819
f 806 819 810
f 810 819 820
f 810 820 808
f 808 820 821
f 808 821 809
f 809 821 822
f 809 822 801
f 801 822 811
f 812 741 813
f 813 741 737
f 813 737 814
f 814 737 738
f 814 738 815
f 815 738 739
f 815 739 816
f 816 739 740
f 816 740 817
f 817 740 746
f 817 746 818
f 818 746 745
f 818 745 819
f 819 745 744
f 819 744 820
f 820 744 735
f 820 735 821
f 821 735 734
f 821 734 822
f 822 734 743
f 822 743 811
f 811 743 742
f 811 742 812
f 812 742 741
f 823 824 825
f 826 824 823
f 823 827 828
f 829 827 823
f 825 829 823
f 823 830 831
f 832 830 823
f 828 832 823
f 823 833 834
f 835 833 823
f 831 835 823
f 834 826 823
f 826 836 824
f 824 836 837
f 824 837 825
f 825 837 838
f 825 838 829
f 829 838 839
f 829 839 827
f 827 839 840
f 827 840 828
f 828 840 841
f 828 841 832
f 832 841 842
f 832 842 830
f 830 842 843
f 830 843 831
f 831 843 844
f 831 844 835
f 835 844 845
f 835 845 833
f 833 845 846
f 833 846 834
f 834 846 847
f 834 847 826
f 826 847 836
f 837 796 838
f 838 796 795
f 838 795 839
f 839 795 790
f 839 790 840
f 840 790 791
f 840 791 841
f 841 791 794
f 841 794 842
f 842 794 793
f 842 793 843
f 843 793 792
f 843 792 844
f 844 792 786
f 844 786 845
f 845 786 787
f 845 787 846
f 846 787 788
f 846 788 847
f 847 788 789
f 847 789 836
f 836 789 797
f 836 797 837
f 837 797 796
f 848 849 850
f 851 849 848
f 848 852 853
f 854 852 848
f 850 854 848
f 848 855 856
f 857 855 848
f 853 857 848
f 848 858 859
f 860 858 848
f 856 860 848
f 859 851 848
f 851 861 849
f 849 861 862
f 849 862 850
f 850 862 863
f 850 863 854
f 854 863 864
f 854 864 852
f 852 864 865
f 852 865 853
f 853 865 866
f 853 866 857
f 857 866 867
f 857 867 855
f 855 867 868
f 855 868 856
f 856 868 869
f 856 869 860
f 860 869 870
f 860 870 858
f 858 870 871
f 858 871 859
f 859 871 872
f 859 872 851
f 851 872 861
f 862 781 863
f 863 781 780
f 863 780 864
f 864 780 775
f 864 775 865
f 865 775 774
f 865 774 866
f 866 774 785
f 866 785 867
f 867 785 784
f 867 784 868
f 868 784 783
f 868 783 869
f 869 783 779
f 869 779 870
f 870 779 778
f 870 778 871
f 871 778 777
f 871 777 872
f 872 777 776
f 872 776 861
f 861 776 782
f 861 782 862
f 862 782 781
f 873 874 875
f 876 874 873
f 873 877 878
f 879 877 873
f 875 879 873
f 873 880 881
f 882 880 873
f 878 882 873
f 873 883 884
f 885 883 873
f 881 885 873
f 884 876 873
f 876 886 874
f 874 886 887
f 874 887 875
f 875 887 888
f 875 888 879
f 879 888 889
f 879 889 877
f 877 889 890
f 877 890 878
f 878 890 891
f 878 891 882
f 882 891 892
f 882 892 880
f 880 892 893
f 880 893 881
f 881 893 894
f 881 894 885
f 885 894 895
f 885 895 883
f 883 895 896
f 883 896 884
f 884 896 897
f 884 897 876
f 876 897 886
f 887 752 888
f 888 752 748
f 888 748 889
f 889 748 747
f 889 747 890
f 890 747 751
f 890 751 891
f 891 751 750
f 891 750 892
f 892 750 749
f 892 749 893
f 893 749 767
f 893 767 894
f 894 767 768
f 894 768 895
f 895 768 759
f 895 759 896
f 896 759 761
f 896 761 897
f 897 761 754
f 897 754 886
f 886 754 753
f 886 753 887
f 887 753 752
f 898 899 762
f 762 899 900
f 762 900 763
f 763 900 901
f 763 901 771
f 771 901 902
f 771 902 772
f 772 902 903
f 772 903 773
f 773 903 904
f 773 904 770
f 770 904 905
f 770 905 755
f 755 905 906
f 755 906 756
f 756 906 907
f 756 907 757
f 757 907 908
f 757 908 758
f 758 908 909
f 758 909 764
f 764 909 910
f 764 910 765
f 765 910 911
f 765 911 766
f 766 911 912
f 766 912 769
f 769 912 913
f 769 913 760
f 760 913 898
f 760 898 762
f 718 727 716
f 716 727 714
f 720 728 722
f 722 728 730
f 910 909 718
f 718 909 908
f 718 908 727
f 727 908 907
f 727 907 906
f 898 913 722
f 722 913 912
f 722 912 718
f 718 912 911
f 718 911 910
f 906 905 727
f 727 905 904
f 727 904 730
f 730 904 903
f 730 903 902
f 902 901 730
f 730 901 900
f 730 900 722
f 722 900 899
f 722 899 898
