mtllib converted_link2_12_d12626ff.mtl
usemtl material
v -0.0016369137447327375 0.0003537890443112701 5.0010159611701965e-05
v -0.0016369137447327375 0.0003537890443112701 5.0010159611701965e-05
v -0.0016369137447327375 0.0003537890443112701 5.0010159611701965e-05
v -0.0016369137447327375 0.0003537890443112701 5.0010159611701965e-05
v -0.0016369137447327375 0.0003537890443112701 -5.0010159611701965e-05
v -0.0016369137447327375 0.0003537890443112701 -5.0010159611701965e-05
v -0.0016369137447327375 0.0003537890443112701 -5.0010159611701965e-05
v -0.001581898657605052 0.00028787003247998655 -5.0010159611701965e-05
v -0.001581898657605052 0.00028787003247998655 -5.0010159611701965e-05
v -0.001581898657605052 0.00028787003247998655 5.0010159611701965e-05
v -0.001581898657605052 0.00028787003247998655 5.0010159611701965e-05
v -0.001510015456005931 0.00024554887204431 -5.0010159611701965e-05
v -0.001510015456005931 0.00024554887204431 -5.0010159611701965e-05
v -0.001510015456005931 0.00024554887204431 -5.0010159611701965e-05
v -0.001510015456005931 0.00024554887204431 5.0010159611701965e-05
v -0.001510015456005931 0.00024554887204431 5.0010159611701965e-05
v -0.001510015456005931 0.00024554887204431 5.0010159611701965e-05
v -0.001510015456005931 0.00024554887204431 5.0010159611701965e-05
v -0.001510015456005931 0.00024554887204431 5.0010159611701965e-05
v -0.001510015456005931 0.00024554887204431 5.0010159611701965e-05
v -0.001510015456005931 0.00024554887204431 5.0010159611701965e-05
v -0.001510015456005931 0.00024554887204431 5.0010159611701965e-05
v -0.0014552089851349592 0.00023153993242885917 -5.0010159611701965e-05
v -0.0014552089851349592 0.00023153993242885917 -5.0010159611701965e-05
v -0.0014552089851349592 0.00023153993242885917 -5.0010159611701965e-05
v -0.0014552089851349592 0.00023153993242885917 5.0010159611701965e-05
v -0.0014552089851349592 0.00023153993242885917 5.0010159611701965e-05
v -0.0014552089851349592 0.00023153993242885917 5.0010159611701965e-05
v -0.0003699275548569858 -0.00013622072583530098 5.0010159611701965e-05
v -0.0003699275548569858 -0.00013622072583530098 5.0010159611701965e-05
v -0.0003699275548569858 -0.00013622072583530098 5.0010159611701965e-05
v -0.0003699275548569858 -0.00013622072583530098 -5.0010159611701965e-05
v -0.0003699275548569858 -0.00013622072583530098 -5.0010159611701965e-05
v -0.0003699275548569858 -0.00013622072583530098 -5.0010159611701965e-05
v -0.0003464135224930942 -0.0001446212554583326 -5.0010159611701965e-05
v -0.0003464135224930942 -0.0001446212554583326 -5.0010159611701965e-05
v -0.0003464135224930942 -0.0001446212554583326 -5.0010159611701965e-05
v -0.0003464135224930942 -0.0001446212554583326 -5.0010159611701965e-05
v -0.0003464135224930942 -0.0001446212554583326 5.0010159611701965e-05
v -0.0003464135224930942 -0.0001446212554583326 5.0010159611701965e-05
v -0.0003464135224930942 -0.0001446212554583326 5.0010159611701965e-05
v -0.0003228100831620395 -0.0001520103687653318 -5.0010159611701965e-05
v -0.0003228100831620395 -0.0001520103687653318 -5.0010159611701965e-05
v -0.0003228100831620395 -0.0001520103687653318 -5.0010159611701965e-05
v -0.0003228100831620395 -0.0001520103687653318 5.0010159611701965e-05
v -0.0003228100831620395 -0.0001520103687653318 5.0010159611701965e-05
v -0.0003228100831620395 -0.0001520103687653318 5.0010159611701965e-05
v -0.00030612078262493014 -0.00015851100033614784 -5.0010159611701965e-05
v -0.00030612078262493014 -0.00015851100033614784 -5.0010159611701965e-05
v -0.00030612078262493014 -0.00015851100033614784 -5.0010159611701965e-05
v -0.00030612078262493014 -0.00015851100033614784 5.0010159611701965e-05
v -0.00030612078262493014 -0.00015851100033614784 5.0010159611701965e-05
v -0.00030612078262493014 -0.00015851100033614784 5.0010159611701965e-05
v -0.0002887162263505161 -0.00016399090236518532 -5.0010159611701965e-05
v -0.0002887162263505161 -0.00016399090236518532 -5.0010159611701965e-05
v -0.0002887162263505161 -0.00016399090236518532 -5.0010159611701965e-05
v -0.0002887162263505161 -0.00016399090236518532 -5.0010159611701965e-05
v -0.0002887162263505161 -0.00016399090236518532 -5.0010159611701965e-05
v -0.0002887162263505161 -0.00016399090236518532 5.0010159611701965e-05
v -0.0002887162263505161 -0.00016399090236518532 5.0010159611701965e-05
v -0.0002887162263505161 -0.00016399090236518532 5.0010159611701965e-05
v -0.0002887162263505161 -0.00016399090236518532 5.0010159611701965e-05
v -0.0002943190629594028 -0.00018116076535079628 -5.0010159611701965e-05
v -0.0002943190629594028 -0.00018116076535079628 -5.0010159611701965e-05
v -0.0002943190629594028 -0.00018116076535079628 -5.0010159611701965e-05
v -0.0002943190629594028 -0.00018116076535079628 5.0010159611701965e-05
v -0.0002943190629594028 -0.00018116076535079628 5.0010159611701965e-05
v -0.0002943190629594028 -0.00018116076535079628 5.0010159611701965e-05
v -0.00029962387634441257 -0.00020047080761287361 -5.0010159611701965e-05
v -0.00029962387634441257 -0.00020047080761287361 -5.0010159611701965e-05
v -0.00029962387634441257 -0.00020047080761287361 5.0010159611701965e-05
v -0.00029962387634441257 -0.00020047080761287361 5.0010159611701965e-05
v -0.00029962387634441257 -0.00020047080761287361 5.0010159611701965e-05
v -0.00030981627060100436 -0.0002503599098417908 5.0010159611701965e-05
v -0.00030981627060100436 -0.0002503599098417908 5.0010159611701965e-05
v -0.00030981627060100436 -0.0002503599098417908 5.0010159611701965e-05
v -0.00030981627060100436 -0.0002503599098417908 5.0010159611701965e-05
v -0.00030981627060100436 -0.0002503599098417908 5.0010159611701965e-05
v -0.00030981627060100436 -0.0002503599098417908 5.0010159611701965e-05
v -0.00030981627060100436 -0.0002503599098417908 -5.0010159611701965e-05
v -0.00030981627060100436 -0.0002503599098417908 -5.0010159611701965e-05
v -0.00030981627060100436 -0.0002503599098417908 -5.0010159611701965e-05
v -0.00030981627060100436 -0.0002503599098417908 -5.0010159611701965e-05
v -0.00033902254654094577 -0.0003880503645632416 5.0010159611701965e-05
v -0.00033902254654094577 -0.0003880503645632416 5.0010159611701965e-05
v -0.00033902254654094577 -0.0003880503645632416 5.0010159611701965e-05
v -0.00033902254654094577 -0.0003880503645632416 5.0010159611701965e-05
v -0.00033902254654094577 -0.0003880503645632416 5.0010159611701965e-05
v -0.00033902254654094577 -0.0003880503645632416 5.0010159611701965e-05
v -0.00033902254654094577 -0.0003880503645632416 -5.0010159611701965e-05
v -0.00033902254654094577 -0.0003880503645632416 -5.0010159611701965e-05
v -0.00033902254654094577 -0.0003880503645632416 -5.0010159611701965e-05
v -0.00033902254654094577 -0.0003880503645632416 -5.0010159611701965e-05
v -0.00033902254654094577 -0.0003880503645632416 -5.0010159611701965e-05
v -0.00033902254654094577 -0.0003880503645632416 -5.0010159611701965e-05
v -0.00035580125404521823 -0.0004692300281021744 5.0010159611701965e-05
v -0.00035580125404521823 -0.0004692300281021744 5.0010159611701965e-05
v -0.00035580125404521823 -0.0004692300281021744 5.0010159611701965e-05
v -0.00035580125404521823 -0.0004692300281021744 5.0010159611701965e-05
v -0.00035580125404521823 -0.0004692300281021744 5.0010159611701965e-05
v -0.00035580125404521823 -0.0004692300281021744 5.0010159611701965e-05
v -0.00035580125404521823 -0.0004692300281021744 -5.0010159611701965e-05
v -0.00035580125404521823 -0.0004692300281021744 -5.0010159611701965e-05
v -0.00035580125404521823 -0.0004692300281021744 -5.0010159611701965e-05
v -0.00035580125404521823 -0.0004692300281021744 -5.0010159611701965e-05
v -0.00035580125404521823 -0.0004692300281021744 -5.0010159611701965e-05
v -0.00035580125404521823 -0.0004692300281021744 -5.0010159611701965e-05
v -0.00035580125404521823 -0.0004692300281021744 -5.0010159611701965e-05
v -0.000552913814317435 -0.001416880520991981 5.0010159611701965e-05
v -0.000552913814317435 -0.001416880520991981 5.0010159611701965e-05
v -0.000552913814317435 -0.001416880520991981 5.0010159611701965e-05
v -0.000552913814317435 -0.001416880520991981 5.0010159611701965e-05
v -0.000552913814317435 -0.001416880520991981 -5.0010159611701965e-05
v -0.000552913814317435 -0.001416880520991981 -5.0010159611701965e-05
v -0.000552913814317435 -0.001416880520991981 -5.0010159611701965e-05
v -0.000552913814317435 -0.001416880520991981 -5.0010159611701965e-05
v -0.0005549999768845737 -0.001428150455467403 5.0010159611701965e-05
v -0.0005549999768845737 -0.001428150455467403 5.0010159611701965e-05
v -0.0005549999768845737 -0.001428150455467403 5.0010159611701965e-05
v -0.0005549999768845737 -0.001428150455467403 5.0010159611701965e-05
v -0.0005549999768845737 -0.001428150455467403 -5.0010159611701965e-05
v -0.0005549999768845737 -0.001428150455467403 -5.0010159611701965e-05
v -0.0005549999768845737 -0.001428150455467403 -5.0010159611701965e-05
v -0.0005549999768845737 -0.001428150455467403 -5.0010159611701965e-05
v -0.0005549999768845737 -0.001428150455467403 -5.0010159611701965e-05
v -0.0005558046395890415 -0.0015135601861402392 -5.0010159611701965e-05
v -0.0005558046395890415 -0.0015135601861402392 -5.0010159611701965e-05
v -0.0005558046395890415 -0.0015135601861402392 5.0010159611701965e-05
v -0.0005558046395890415 -0.0015135601861402392 5.0010159611701965e-05
v -0.0005558046395890415 -0.0015135601861402392 5.0010159611701965e-05
v -0.0005558046395890415 -0.0015135601861402392 5.0010159611701965e-05
v -0.00052621093345806 -0.0015963501064106822 -5.0010159611701965e-05
v -0.00052621093345806 -0.0015963501064106822 -5.0010159611701965e-05
v -0.00052621093345806 -0.0015963501064106822 5.0010159611701965e-05
v -0.00052621093345806 -0.0015963501064106822 5.0010159611701965e-05
v -0.00047080841613933444 -0.001662750612013042 -5.0010159611701965e-05
v -0.00047080841613933444 -0.001662750612013042 -5.0010159611701965e-05
v -0.00047080841613933444 -0.001662750612013042 5.0010159611701965e-05
v -0.00047080841613933444 -0.001662750612013042 5.0010159611701965e-05
v -0.00047080841613933444 -0.001662750612013042 5.0010159611701965e-05
v -0.00047080841613933444 -0.001662750612013042 5.0010159611701965e-05
v -0.00047080841613933444 -0.001662750612013042 5.0010159611701965e-05
v -0.0003985079820267856 -0.0017051900504156947 -5.0010159611701965e-05
v -0.0003985079820267856 -0.0017051900504156947 -5.0010159611701965e-05
v -0.0003985079820267856 -0.0017051900504156947 -5.0010159611701965e-05
v -0.0003985079820267856 -0.0017051900504156947 5.0010159611701965e-05
v -0.0003985079820267856 -0.0017051900504156947 5.0010159611701965e-05
v -0.00031172361923381686 -0.0017215207917615771 -5.0010159611701965e-05
v -0.00031172361923381686 -0.0017215207917615771 -5.0010159611701965e-05
v -0.00031172361923381686 -0.0017215207917615771 5.0010159611701965e-05
v -0.00031172361923381686 -0.0017215207917615771 5.0010159611701965e-05
v -0.00031172361923381686 -0.0017215207917615771 5.0010159611701965e-05
v -0.00022321072174236178 -0.0017061409307643771 -5.0010159611701965e-05
v -0.00022321072174236178 -0.0017061409307643771 -5.0010159611701965e-05
v -0.00022321072174236178 -0.0017061409307643771 -5.0010159611701965e-05
v -0.00022321072174236178 -0.0017061409307643771 -5.0010159611701965e-05
v -0.00022321072174236178 -0.0017061409307643771 5.0010159611701965e-05
v -0.00022321072174236178 -0.0017061409307643771 5.0010159611701965e-05
v -0.00022321072174236178 -0.0017061409307643771 5.0010159611701965e-05
v -0.00022321072174236178 -0.0017061409307643771 5.0010159611701965e-05
v -0.00022321072174236178 -0.0017061409307643771 5.0010159611701965e-05
v -0.00018512335373088717 -0.00168838060926646 -5.0010159611701965e-05
v -0.00018512335373088717 -0.00168838060926646 -5.0010159611701965e-05
v -0.00018512335373088717 -0.00168838060926646 -5.0010159611701965e-05
v -0.00018512335373088717 -0.00168838060926646 5.0010159611701965e-05
v -0.00018512335373088717 -0.00168838060926646 5.0010159611701965e-05
v -0.00018512335373088717 -0.00168838060926646 5.0010159611701965e-05
v -0.00011851516319438815 -0.0016328309429809451 -5.0010159611701965e-05
v -0.00011851516319438815 -0.0016328309429809451 -5.0010159611701965e-05
v -0.00011851516319438815 -0.0016328309429809451 -5.0010159611701965e-05
v -0.00011851516319438815 -0.0016328309429809451 5.0010159611701965e-05
v -0.00011851516319438815 -0.0016328309429809451 5.0010159611701965e-05
v -7.610645843669772e-05 -0.0015604709042236209 -5.0010159611701965e-05
v -7.610645843669772e-05 -0.0015604709042236209 -5.0010159611701965e-05
v -7.610645843669772e-05 -0.0015604709042236209 -5.0010159611701965e-05
v -7.610645843669772e-05 -0.0015604709042236209 5.0010159611701965e-05
v -7.610645843669772e-05 -0.0015604709042236209 5.0010159611701965e-05
v -6.501999450847507e-05 -0.001522260601632297 -5.0010159611701965e-05
v -6.501999450847507e-05 -0.001522260601632297 -5.0010159611701965e-05
v -6.501999450847507e-05 -0.001522260601632297 -5.0010159611701965e-05
v -6.501999450847507e-05 -0.001522260601632297 -5.0010159611701965e-05
v -6.501999450847507e-05 -0.001522260601632297 5.0010159611701965e-05
v -6.501999450847507e-05 -0.001522260601632297 5.0010159611701965e-05
v -6.501999450847507e-05 -0.001522260601632297 5.0010159611701965e-05
v -6.361928535625339e-05 -0.0015142204938456416 5.0010159611701965e-05
v -6.361928535625339e-05 -0.0015142204938456416 5.0010159611701965e-05
v -6.361928535625339e-05 -0.0015142204938456416 5.0010159611701965e-05
v -6.361928535625339e-05 -0.0015142204938456416 -5.0010159611701965e-05
v -6.361928535625339e-05 -0.0015142204938456416 -5.0010159611701965e-05
v -6.361928535625339e-05 -0.0015142204938456416 -5.0010159611701965e-05
v -6.361928535625339e-05 -0.0015142204938456416 -5.0010159611701965e-05
v 7.829937385395169e-05 -0.0008138007251545787 5.0010159611701965e-05
v 7.829937385395169e-05 -0.0008138007251545787 5.0010159611701965e-05
v 7.829937385395169e-05 -0.0008138007251545787 5.0010159611701965e-05
v 7.829937385395169e-05 -0.0008138007251545787 -5.0010159611701965e-05
v 7.829937385395169e-05 -0.0008138007251545787 -5.0010159611701965e-05
v 7.829937385395169e-05 -0.0008138007251545787 -5.0010159611701965e-05
v 0.00012818846153095365 -0.0005713904974982142 5.0010159611701965e-05
v 0.00012818846153095365 -0.0005713904974982142 5.0010159611701965e-05
v 0.00012818846153095365 -0.0005713904974982142 5.0010159611701965e-05
v 0.00012818846153095365 -0.0005713904974982142 5.0010159611701965e-05
v 0.00012818846153095365 -0.0005713904974982142 -5.0010159611701965e-05
v 0.00012818846153095365 -0.0005713904974982142 -5.0010159611701965e-05
v 0.00012818846153095365 -0.0005713904974982142 -5.0010159611701965e-05
v 0.00013379129813984036 -0.0005475505022332072 5.0010159611701965e-05
v 0.00013379129813984036 -0.0005475505022332072 5.0010159611701965e-05
v 0.00013379129813984036 -0.0005475505022332072 5.0010159611701965e-05
v 0.00013379129813984036 -0.0005475505022332072 5.0010159611701965e-05
v 0.00013379129813984036 -0.0005475505022332072 5.0010159611701965e-05
v 0.00013379129813984036 -0.0005475505022332072 5.0010159611701965e-05
v 0.00013379129813984036 -0.0005475505022332072 -5.0010159611701965e-05
v 0.00013379129813984036 -0.0005475505022332072 -5.0010159611701965e-05
v 0.00013379129813984036 -0.0005475505022332072 -5.0010159611701965e-05
v 0.00013379129813984036 -0.0005475505022332072 -5.0010159611701965e-05
v 0.00013379129813984036 -0.0005475505022332072 -5.0010159611701965e-05
v 0.00013879808830097318 -0.0005254409043118358 5.0010159611701965e-05
v 0.00013879808830097318 -0.0005254409043118358 5.0010159611701965e-05
v 0.00013879808830097318 -0.0005254409043118358 5.0010159611701965e-05
v 0.00013879808830097318 -0.0005254409043118358 5.0010159611701965e-05
v 0.00013879808830097318 -0.0005254409043118358 5.0010159611701965e-05
v 0.00013879808830097318 -0.0005254409043118358 5.0010159611701965e-05
v 0.00013879808830097318 -0.0005254409043118358 -5.0010159611701965e-05
v 0.00013879808830097318 -0.0005254409043118358 -5.0010159611701965e-05
v 0.00013879808830097318 -0.0005254409043118358 -5.0010159611701965e-05
v 0.00013879808830097318 -0.0005254409043118358 -5.0010159611701965e-05
v 0.00013879808830097318 -0.0005254409043118358 -5.0010159611701965e-05
v 0.00018719705985859036 -0.00031783050508238375 5.0010159611701965e-05
v 0.00018719705985859036 -0.00031783050508238375 5.0010159611701965e-05
v 0.00018719705985859036 -0.00031783050508238375 5.0010159611701965e-05
v 0.00018719705985859036 -0.00031783050508238375 5.0010159611701965e-05
v 0.00018719705985859036 -0.00031783050508238375 5.0010159611701965e-05
v 0.00018719705985859036 -0.00031783050508238375 5.0010159611701965e-05
v 0.00018719705985859036 -0.00031783050508238375 5.0010159611701965e-05
v 0.00018719705985859036 -0.00031783050508238375 5.0010159611701965e-05
v 0.00018719705985859036 -0.00031783050508238375 5.0010159611701965e-05
v 0.00018719705985859036 -0.00031783050508238375 5.0010159611701965e-05
v 0.00018719705985859036 -0.00031783050508238375 -5.0010159611701965e-05
v 0.00018719705985859036 -0.00031783050508238375 -5.0010159611701965e-05
v 0.00018719705985859036 -0.00031783050508238375 -5.0010159611701965e-05
v 0.00018719705985859036 -0.00031783050508238375 -5.0010159611701965e-05
v 0.00018719705985859036 -0.00031783050508238375 -5.0010159611701965e-05
v 0.00018719705985859036 -0.00031783050508238375 -5.0010159611701965e-05
v 0.00018719705985859036 -0.00031783050508238375 -5.0010159611701965e-05
v 0.00021068128990009427 -0.00032588085741735995 5.0010159611701965e-05
v 0.00021068128990009427 -0.00032588085741735995 5.0010159611701965e-05
v 0.00021068128990009427 -0.00032588085741735995 5.0010159611701965e-05
v 0.00021068128990009427 -0.00032588085741735995 5.0010159611701965e-05
v 0.00021068128990009427 -0.00032588085741735995 5.0010159611701965e-05
v 0.00021068128990009427 -0.00032588085741735995 -5.0010159611701965e-05
v 0.00021068128990009427 -0.00032588085741735995 -5.0010159611701965e-05
v 0.00021068128990009427 -0.00032588085741735995 -5.0010159611701965e-05
v 0.00021068128990009427 -0.00032588085741735995 -5.0010159611701965e-05
v 0.00021068128990009427 -0.00032588085741735995 -5.0010159611701965e-05
v 0.00021068128990009427 -0.00032588085741735995 -5.0010159611701965e-05
v 0.0006574777071364224 -0.0004793609550688416 5.0010159611701965e-05
v 0.0006574777071364224 -0.0004793609550688416 5.0010159611701965e-05
v 0.0006574777071364224 -0.0004793609550688416 5.0010159611701965e-05
v 0.0006574777071364224 -0.0004793609550688416 5.0010159611701965e-05
v 0.0006574777071364224 -0.0004793609550688416 5.0010159611701965e-05
v 0.0006574777071364224 -0.0004793609550688416 -5.0010159611701965e-05
v 0.0006574777071364224 -0.0004793609550688416 -5.0010159611701965e-05
v 0.0006574777071364224 -0.0004793609550688416 -5.0010159611701965e-05
v 0.0006574777071364224 -0.0004793609550688416 -5.0010159611701965e-05
v 0.0006574777071364224 -0.0004793609550688416 -5.0010159611701965e-05
v 0.0006574777071364224 -0.0004793609550688416 -5.0010159611701965e-05
v 0.0006574777071364224 -0.0004793609550688416 -5.0010159611701965e-05
v 0.0013315763790160418 -0.0007112202001735568 5.0010159611701965e-05
v 0.0013315763790160418 -0.0007112202001735568 5.0010159611701965e-05
v 0.0013315763790160418 -0.0007112202001735568 5.0010159611701965e-05
v 0.0013315763790160418 -0.0007112202001735568 5.0010159611701965e-05
v 0.0013315763790160418 -0.0007112202001735568 -5.0010159611701965e-05
v 0.0013315763790160418 -0.0007112202001735568 -5.0010159611701965e-05
v 0.0013315763790160418 -0.0007112202001735568 -5.0010159611701965e-05
v 0.0013315763790160418 -0.0007112202001735568 -5.0010159611701965e-05
v 0.0013406958896666765 -0.0007147405995056033 5.0010159611701965e-05
v 0.0013406958896666765 -0.0007147405995056033 5.0010159611701965e-05
v 0.0013406958896666765 -0.0007147405995056033 5.0010159611701965e-05
v 0.0013406958896666765 -0.0007147405995056033 -5.0010159611701965e-05
v 0.0013406958896666765 -0.0007147405995056033 -5.0010159611701965e-05
v 0.0013406958896666765 -0.0007147405995056033 -5.0010159611701965e-05
v 0.0013406958896666765 -0.0007147405995056033 -5.0010159611701965e-05
v 0.0014274802524596453 -0.00072773068677634 -5.0010159611701965e-05
v 0.0014274802524596453 -0.00072773068677634 -5.0010159611701965e-05
v 0.0014274802524596453 -0.00072773068677634 5.0010159611701965e-05
v 0.0014274802524596453 -0.00072773068677634 5.0010159611701965e-05
v 0.0014274802524596453 -0.00072773068677634 5.0010159611701965e-05
v 0.0015149798709899187 -0.000709020416252315 -5.0010159611701965e-05
v 0.0015149798709899187 -0.000709020416252315 -5.0010159611701965e-05
v 0.0015149798709899187 -0.000709020416252315 -5.0010159611701965e-05
v 0.0015149798709899187 -0.000709020416252315 -5.0010159611701965e-05
v 0.0015149798709899187 -0.000709020416252315 5.0010159611701965e-05
v 0.0015149798709899187 -0.000709020416252315 5.0010159611701965e-05
v 0.0015149798709899187 -0.000709020416252315 5.0010159611701965e-05
v 0.001544782193377614 -0.0006943604676052928 -5.0010159611701965e-05
v 0.001544782193377614 -0.0006943604676052928 -5.0010159611701965e-05
v 0.001544782193377614 -0.0006943604676052928 -5.0010159611701965e-05
v 0.001544782193377614 -0.0006943604676052928 -5.0010159611701965e-05
v 0.001544782193377614 -0.0006943604676052928 5.0010159611701965e-05
v 0.001544782193377614 -0.0006943604676052928 5.0010159611701965e-05
v 0.001544782193377614 -0.0006943604676052928 5.0010159611701965e-05
v 0.001544782193377614 -0.0006943604676052928 5.0010159611701965e-05
v 0.001544782193377614 -0.0006943604676052928 5.0010159611701965e-05
v 0.001611092360690236 -0.000639101373963058 -5.0010159611701965e-05
v 0.001611092360690236 -0.000639101373963058 -5.0010159611701965e-05
v 0.001611092360690236 -0.000639101373963058 -5.0010159611701965e-05
v 0.001611092360690236 -0.000639101373963058 5.0010159611701965e-05
v 0.001611092360690236 -0.000639101373963058 5.0010159611701965e-05
v 0.001611092360690236 -0.000639101373963058 5.0010159611701965e-05
v 0.001611092360690236 -0.000639101373963058 5.0010159611701965e-05
v 0.0016536798793822527 -0.00056692014914006 -5.0010159611701965e-05
v 0.0016536798793822527 -0.00056692014914006 -5.0010159611701965e-05
v 0.0016536798793822527 -0.00056692014914006 -5.0010159611701965e-05
v 0.0016536798793822527 -0.00056692014914006 5.0010159611701965e-05
v 0.0016536798793822527 -0.00056692014914006 5.0010159611701965e-05
v 0.0016701009590178728 -0.00048026061267592013 -5.0010159611701965e-05
v 0.0016701009590178728 -0.00048026061267592013 -5.0010159611701965e-05
v 0.0016701009590178728 -0.00048026061267592013 5.0010159611701965e-05
v 0.0016701009590178728 -0.00048026061267592013 5.0010159611701965e-05
v 0.0016701009590178728 -0.00048026061267592013 5.0010159611701965e-05
v 0.0016547825653105974 -0.0003919805458281189 -5.0010159611701965e-05
v 0.0016547825653105974 -0.0003919805458281189 -5.0010159611701965e-05
v 0.0016547825653105974 -0.0003919805458281189 -5.0010159611701965e-05
v 0.0016547825653105974 -0.0003919805458281189 -5.0010159611701965e-05
v 0.0016547825653105974 -0.0003919805458281189 -5.0010159611701965e-05
v 0.0016547825653105974 -0.0003919805458281189 5.0010159611701965e-05
v 0.0016547825653105974 -0.0003919805458281189 5.0010159611701965e-05
v 0.0016547825653105974 -0.0003919805458281189 5.0010159611701965e-05
v 0.0016547825653105974 -0.0003919805458281189 5.0010159611701965e-05
v 0.0016369011718779802 -0.00035366034717299044 -5.0010159611701965e-05
v 0.0016369011718779802 -0.00035366034717299044 -5.0010159611701965e-05
v 0.0016369011718779802 -0.00035366034717299044 -5.0010159611701965e-05
v 0.0016369011718779802 -0.00035366034717299044 5.0010159611701965e-05
v 0.0016369011718779802 -0.00035366034717299044 5.0010159611701965e-05
v 0.0016369011718779802 -0.00035366034717299044 5.0010159611701965e-05
v 0.0016369011718779802 -0.00035366034717299044 5.0010159611701965e-05
v 0.0015820947010070086 -0.0002877897641155869 -5.0010159611701965e-05
v 0.0015820947010070086 -0.0002877897641155869 -5.0010159611701965e-05
v 0.0015820947010070086 -0.0002877897641155869 5.0010159611701965e-05
v 0.0015820947010070086 -0.0002877897641155869 5.0010159611701965e-05
v 0.0015105989295989275 -0.00024565114290453494 -5.0010159611701965e-05
v 0.0015105989295989275 -0.00024565114290453494 -5.0010159611701965e-05
v 0.0015105989295989275 -0.00024565114290453494 -5.0010159611701965e-05
v 0.0015105989295989275 -0.00024565114290453494 -5.0010159611701965e-05
v 0.0015105989295989275 -0.00024565114290453494 -5.0010159611701965e-05
v 0.0015105989295989275 -0.00024565114290453494 5.0010159611701965e-05
v 0.0015105989295989275 -0.00024565114290453494 5.0010159611701965e-05
v 0.0015105989295989275 -0.00024565114290453494 5.0010159611701965e-05
v 0.0015105989295989275 -0.00024565114290453494 5.0010159611701965e-05
v 0.0015105989295989275 -0.00024565114290453494 5.0010159611701965e-05
v 0.0015105989295989275 -0.00024565114290453494 5.0010159611701965e-05
v 0.0015105989295989275 -0.00024565114290453494 5.0010159611701965e-05
v 0.0015105989295989275 -0.00024565114290453494 5.0010159611701965e-05
v 0.001455196412280202 -0.00023141120618674904 -5.0010159611701965e-05
v 0.001455196412280202 -0.00023141120618674904 -5.0010159611701965e-05
v 0.001455196412280202 -0.00023141120618674904 -5.0010159611701965e-05
v 0.001455196412280202 -0.00023141120618674904 5.0010159611701965e-05
v 0.001455196412280202 -0.00023141120618674904 5.0010159611701965e-05
v 0.001455196412280202 -0.00023141120618674904 5.0010159611701965e-05
v 0.001455196412280202 -0.00023141120618674904 5.0010159611701965e-05
v 0.00036979588912799954 0.00013634945207741112 5.0010159611701965e-05
v 0.00036979588912799954 0.00013634945207741112 5.0010159611701965e-05
v 0.00036979588912799954 0.00013634945207741112 5.0010159611701965e-05
v 0.00036979588912799954 0.00013634945207741112 -5.0010159611701965e-05
v 0.00036979588912799954 0.00013634945207741112 -5.0010159611701965e-05
v 0.00036979588912799954 0.00013634945207741112 -5.0010159611701965e-05
v 0.0003464904730208218 0.00014481889957096428 -5.0010159611701965e-05
v 0.0003464904730208218 0.00014481889957096428 -5.0010159611701965e-05
v 0.0003464904730208218 0.00014481889957096428 -5.0010159611701965e-05
v 0.0003464904730208218 0.00014481889957096428 5.0010159611701965e-05
v 0.0003464904730208218 0.00014481889957096428 5.0010159611701965e-05
v 0.0003464904730208218 0.00014481889957096428 5.0010159611701965e-05
v 0.00032279762672260404 0.00015215027087833732 -5.0010159611701965e-05
v 0.00032279762672260404 0.00015215027087833732 -5.0010159611701965e-05
v 0.00032279762672260404 0.00015215027087833732 -5.0010159611701965e-05
v 0.00032279762672260404 0.00015215027087833732 -5.0010159611701965e-05
v 0.00032279762672260404 0.00015215027087833732 5.0010159611701965e-05
v 0.00032279762672260404 0.00015215027087833732 5.0010159611701965e-05
v 0.00032279762672260404 0.00015215027087833732 5.0010159611701965e-05
v 0.00032279762672260404 0.00015215027087833732 5.0010159611701965e-05
v 0.0003059891168959439 0.00015870864444877952 -5.0010159611701965e-05
v 0.0003059891168959439 0.00015870864444877952 -5.0010159611701965e-05
v 0.0003059891168959439 0.00015870864444877952 -5.0010159611701965e-05
v 0.0003059891168959439 0.00015870864444877952 5.0010159611701965e-05
v 0.0003059891168959439 0.00015870864444877952 5.0010159611701965e-05
v 0.0003059891168959439 0.00015870864444877952 5.0010159611701965e-05
v 0.0003059891168959439 0.00015870864444877952 5.0010159611701965e-05
v 0.0002886739675886929 0.00016449029499199241 -5.0010159611701965e-05
v 0.0002886739675886929 0.00016449029499199241 -5.0010159611701965e-05
v 0.0002886739675886929 0.00016449029499199241 -5.0010159611701965e-05
v 0.0002886739675886929 0.00016449029499199241 5.0010159611701965e-05
v 0.0002886739675886929 0.00016449029499199241 5.0010159611701965e-05
v 0.0002886739675886929 0.00016449029499199241 5.0010159611701965e-05
v 0.0002886739675886929 0.00016449029499199241 5.0010159611701965e-05
v 0.0002886739675886929 0.00016449029499199241 5.0010159611701965e-05
v 0.0002943960134871304 0.00018129880481865257 -5.0010159611701965e-05
v 0.0002943960134871304 0.00018129880481865257 -5.0010159611701965e-05
v 0.0002943960134871304 0.00018129880481865257 -5.0010159611701965e-05
v 0.0002943960134871304 0.00018129880481865257 5.0010159611701965e-05
v 0.0002943960134871304 0.00018129880481865257 5.0010159611701965e-05
v 0.0002943960134871304 0.00018129880481865257 5.0010159611701965e-05
v 0.0002995816175825894 0.00019923980289604515 -5.0010159611701965e-05
v 0.0002995816175825894 0.00019923980289604515 -5.0010159611701965e-05
v 0.0002995816175825894 0.00019923980289604515 -5.0010159611701965e-05
v 0.0002995816175825894 0.00019923980289604515 5.0010159611701965e-05
v 0.0002995816175825894 0.00019923980289604515 5.0010159611701965e-05
v 0.0002995816175825894 0.00019923980289604515 5.0010159611701965e-05
v 0.00031007203506305814 0.0002497789391782135 5.0010159611701965e-05
v 0.00031007203506305814 0.0002497789391782135 5.0010159611701965e-05
v 0.00031007203506305814 0.0002497789391782135 5.0010159611701965e-05
v 0.00031007203506305814 0.0002497789391782135 5.0010159611701965e-05
v 0.00031007203506305814 0.0002497789391782135 5.0010159611701965e-05
v 0.00031007203506305814 0.0002497789391782135 -5.0010159611701965e-05
v 0.00031007203506305814 0.0002497789391782135 -5.0010159611701965e-05
v 0.00031007203506305814 0.0002497789391782135 -5.0010159611701965e-05
v 0.00031007203506305814 0.0002497789391782135 -5.0010159611701965e-05
v 0.0003388908808119595 0.0003881790617015213 5.0010159611701965e-05
v 0.0003388908808119595 0.0003881790617015213 5.0010159611701965e-05
v 0.0003388908808119595 0.0003881790617015213 5.0010159611701965e-05
v 0.0003388908808119595 0.0003881790617015213 5.0010159611701965e-05
v 0.0003388908808119595 0.0003881790617015213 -5.0010159611701965e-05
v 0.0003388908808119595 0.0003881790617015213 -5.0010159611701965e-05
v 0.0003388908808119595 0.0003881790617015213 -5.0010159611701965e-05
v 0.0003388908808119595 0.0003881790617015213 -5.0010159611701965e-05
v 0.0003388908808119595 0.0003881790617015213 -5.0010159611701965e-05
v 0.0003388908808119595 0.0003881790617015213 -5.0010159611701965e-05
v 0.0003388908808119595 0.0003881790617015213 -5.0010159611701965e-05
v 0.00035578879760578275 0.00046936990111134946 5.0010159611701965e-05
v 0.00035578879760578275 0.00046936990111134946 5.0010159611701965e-05
v 0.00035578879760578275 0.00046936990111134946 5.0010159611701965e-05
v 0.00035578879760578275 0.00046936990111134946 5.0010159611701965e-05
v 0.00035578879760578275 0.00046936990111134946 -5.0010159611701965e-05
v 0.00035578879760578275 0.00046936990111134946 -5.0010159611701965e-05
v 0.00035578879760578275 0.00046936990111134946 -5.0010159611701965e-05
v 0.00035578879760578275 0.00046936990111134946 -5.0010159611701965e-05
v 0.00035578879760578275 0.00046936990111134946 -5.0010159611701965e-05
v 0.00035578879760578275 0.00046936990111134946 -5.0010159611701965e-05
v 0.00035578879760578275 0.00046936990111134946 -5.0010159611701965e-05
v 0.0005524841253645718 0.0014159494312480092 5.0010159611701965e-05
v 0.0005524841253645718 0.0014159494312480092 5.0010159611701965e-05
v 0.0005524841253645718 0.0014159494312480092 5.0010159611701965e-05
v 0.0005524841253645718 0.0014159494312480092 -5.0010159611701965e-05
v 0.0005524841253645718 0.0014159494312480092 -5.0010159611701965e-05
v 0.0005524841253645718 0.0014159494312480092 -5.0010159611701965e-05
v 0.0005552855436690152 0.0014279299648478627 5.0010159611701965e-05
v 0.0005552855436690152 0.0014279299648478627 5.0010159611701965e-05
v 0.0005552855436690152 0.0014279299648478627 5.0010159611701965e-05
v 0.0005552855436690152 0.0014279299648478627 5.0010159611701965e-05
v 0.0005552855436690152 0.0014279299648478627 5.0010159611701965e-05
v 0.0005552855436690152 0.0014279299648478627 5.0010159611701965e-05
v 0.0005552855436690152 0.0014279299648478627 -5.0010159611701965e-05
v 0.0005552855436690152 0.0014279299648478627 -5.0010159611701965e-05
v 0.0005552855436690152 0.0014279299648478627 -5.0010159611701965e-05
v 0.0005552855436690152 0.0014279299648478627 -5.0010159611701965e-05
v 0.000555792183149606 0.0015134589048102498 -5.0010159611701965e-05
v 0.000555792183149606 0.0015134589048102498 -5.0010159611701965e-05
v 0.000555792183149606 0.0015134589048102498 5.0010159611701965e-05
v 0.000555792183149606 0.0015134589048102498 5.0010159611701965e-05
v 0.000555792183149606 0.0015134589048102498 5.0010159611701965e-05
v 0.0005260792677290738 0.0015965496422722936 -5.0010159611701965e-05
v 0.0005260792677290738 0.0015965496422722936 -5.0010159611701965e-05
v 0.0005260792677290738 0.0015965496422722936 -5.0010159611701965e-05
v 0.0005260792677290738 0.0015965496422722936 -5.0010159611701965e-05
v 0.0005260792677290738 0.0015965496422722936 5.0010159611701965e-05
v 0.0005260792677290738 0.0015965496422722936 5.0010159611701965e-05
v 0.0005260792677290738 0.0015965496422722936 5.0010159611701965e-05
v 0.0004705873434431851 0.0016630088211968541 -5.0010159611701965e-05
v 0.0004705873434431851 0.0016630088211968541 -5.0010159611701965e-05
v 0.0004705873434431851 0.0016630088211968541 -5.0010159611701965e-05
v 0.0004705873434431851 0.0016630088211968541 5.0010159611701965e-05
v 0.0004705873434431851 0.0016630088211968541 5.0010159611701965e-05
v 0.00039828690933063626 0.0017055087955668569 -5.0010159611701965e-05
v 0.00039828690933063626 0.0017055087955668569 -5.0010159611701965e-05
v 0.00039828690933063626 0.0017055087955668569 -5.0010159611701965e-05
v 0.00039828690933063626 0.0017055087955668569 5.0010159611701965e-05
v 0.00039828690933063626 0.0017055087955668569 5.0010159611701965e-05
v 0.0003115919535048306 0.0017218386055901647 -5.0010159611701965e-05
v 0.0003115919535048306 0.0017218386055901647 -5.0010159611701965e-05
v 0.0003115919535048306 0.0017218386055901647 5.0010159611701965e-05
v 0.0003115919535048306 0.0017218386055901647 5.0010159611701965e-05
v 0.0002231982653029263 0.0017063991399481893 -5.0010159611701965e-05
v 0.0002231982653029263 0.0017063991399481893 -5.0010159611701965e-05
v 0.0002231982653029263 0.0017063991399481893 -5.0010159611701965e-05
v 0.0002231982653029263 0.0017063991399481893 -5.0010159611701965e-05
v 0.0002231982653029263 0.0017063991399481893 -5.0010159611701965e-05
v 0.0002231982653029263 0.0017063991399481893 5.0010159611701965e-05
v 0.0002231982653029263 0.0017063991399481893 5.0010159611701965e-05
v 0.0002231982653029263 0.0017063991399481893 5.0010159611701965e-05
v 0.0002231982653029263 0.0017063991399481893 5.0010159611701965e-05
v 0.000185081094969064 0.0016885196091607213 -5.0010159611701965e-05
v 0.000185081094969064 0.0016885196091607213 -5.0010159611701965e-05
v 0.000185081094969064 0.0016885196091607213 -5.0010159611701965e-05
v 0.000185081094969064 0.0016885196091607213 5.0010159611701965e-05
v 0.000185081094969064 0.0016885196091607213 5.0010159611701965e-05
v 0.000185081094969064 0.0016885196091607213 5.0010159611701965e-05
v 0.000185081094969064 0.0016885196091607213 5.0010159611701965e-05
v 0.0001182940904982388 0.0016326085897162557 -5.0010159611701965e-05
v 0.0001182940904982388 0.0016326085897162557 -5.0010159611701965e-05
v 0.0001182940904982388 0.0016326085897162557 -5.0010159611701965e-05
v 0.0001182940904982388 0.0016326085897162557 5.0010159611701965e-05
v 0.0001182940904982388 0.0016326085897162557 5.0010159611701965e-05
v 7.56767694838345e-05 0.001559769851155579 -5.0010159611701965e-05
v 7.56767694838345e-05 0.001559769851155579 -5.0010159611701965e-05
v 7.56767694838345e-05 0.001559769851155579 -5.0010159611701965e-05
v 7.56767694838345e-05 0.001559769851155579 5.0010159611701965e-05
v 7.56767694838345e-05 0.001559769851155579 5.0010159611701965e-05
v 7.56767694838345e-05 0.001559769851155579 5.0010159611701965e-05
v 7.56767694838345e-05 0.001559769851155579 5.0010159611701965e-05
v 6.497773574665189e-05 0.0015223996015265584 -5.0010159611701965e-05
v 6.497773574665189e-05 0.0015223996015265584 -5.0010159611701965e-05
v 6.497773574665189e-05 0.0015223996015265584 5.0010159611701965e-05
v 6.497773574665189e-05 0.0015223996015265584 5.0010159611701965e-05
v 6.497773574665189e-05 0.0015223996015265584 5.0010159611701965e-05
v 6.348761962726712e-05 0.0015129187377169728 5.0010159611701965e-05
v 6.348761962726712e-05 0.0015129187377169728 5.0010159611701965e-05
v 6.348761962726712e-05 0.0015129187377169728 5.0010159611701965e-05
v 6.348761962726712e-05 0.0015129187377169728 -5.0010159611701965e-05
v 6.348761962726712e-05 0.0015129187377169728 -5.0010159611701965e-05
v 6.348761962726712e-05 0.0015129187377169728 -5.0010159611701965e-05
v 6.348761962726712e-05 0.0015129187377169728 -5.0010159611701965e-05
v -7.840123726055026e-05 0.0008143001468852162 5.0010159611701965e-05
v -7.840123726055026e-05 0.0008143001468852162 5.0010159611701965e-05
v -7.840123726055026e-05 0.0008143001468852162 5.0010159611701965e-05
v -7.840123726055026e-05 0.0008143001468852162 -5.0010159611701965e-05
v -7.840123726055026e-05 0.0008143001468852162 -5.0010159611701965e-05
v -7.840123726055026e-05 0.0008143001468852162 -5.0010159611701965e-05
v -7.840123726055026e-05 0.0008143001468852162 -5.0010159611701965e-05
v -0.00012721744133159518 0.0005712286802008748 5.0010159611701965e-05
v -0.00012721744133159518 0.0005712286802008748 5.0010159611701965e-05
v -0.00012721744133159518 0.0005712286802008748 -5.0010159611701965e-05
v -0.00012721744133159518 0.0005712286802008748 -5.0010159611701965e-05
v -0.00012721744133159518 0.0005712286802008748 -5.0010159611701965e-05
v -0.0001335057313553989 0.000547688570804894 5.0010159611701965e-05
v -0.0001335057313553989 0.000547688570804894 5.0010159611701965e-05
v -0.0001335057313553989 0.000547688570804894 -5.0010159611701965e-05
v -0.0001335057313553989 0.000547688570804894 -5.0010159611701965e-05
v -0.0001335057313553989 0.000547688570804894 -5.0010159611701965e-05
v -0.0001335057313553989 0.000547688570804894 -5.0010159611701965e-05
v -0.00013842311454936862 0.0005258695455268025 5.0010159611701965e-05
v -0.00013842311454936862 0.0005258695455268025 5.0010159611701965e-05
v -0.00013842311454936862 0.0005258695455268025 5.0010159611701965e-05
v -0.00013842311454936862 0.0005258695455268025 5.0010159611701965e-05
v -0.00013842311454936862 0.0005258695455268025 -5.0010159611701965e-05
v -0.00013842311454936862 0.0005258695455268025 -5.0010159611701965e-05
v -0.00013842311454936862 0.0005258695455268025 -5.0010159611701965e-05
v -0.00018729892326518893 0.0003183298686053604 5.0010159611701965e-05
v -0.00018729892326518893 0.0003183298686053604 5.0010159611701965e-05
v -0.00018729892326518893 0.0003183298686053604 5.0010159611701965e-05
v -0.00018729892326518893 0.0003183298686053604 5.0010159611701965e-05
v -0.00018729892326518893 0.0003183298686053604 5.0010159611701965e-05
v -0.00018729892326518893 0.0003183298686053604 5.0010159611701965e-05
v -0.00018729892326518893 0.0003183298686053604 5.0010159611701965e-05
v -0.00018729892326518893 0.0003183298686053604 5.0010159611701965e-05
v -0.00018729892326518893 0.0003183298686053604 -5.0010159611701965e-05
v -0.00018729892326518893 0.0003183298686053604 -5.0010159611701965e-05
v -0.00018729892326518893 0.0003183298686053604 -5.0010159611701965e-05
v -0.00018729892326518893 0.0003183298686053604 -5.0010159611701965e-05
v -0.00018729892326518893 0.0003183298686053604 -5.0010159611701965e-05
v -0.00018729892326518893 0.0003183298686053604 -5.0010159611701965e-05
v -0.00018729892326518893 0.0003183298686053604 -5.0010159611701965e-05
v -0.0002104255254380405 0.00032529988675378263 5.0010159611701965e-05
v -0.0002104255254380405 0.00032529988675378263 5.0010159611701965e-05
v -0.0002104255254380405 0.00032529988675378263 5.0010159611701965e-05
v -0.0002104255254380405 0.00032529988675378263 5.0010159611701965e-05
v -0.0002104255254380405 0.00032529988675378263 5.0010159611701965e-05
v -0.0002104255254380405 0.00032529988675378263 -5.0010159611701965e-05
v -0.0002104255254380405 0.00032529988675378263 -5.0010159611701965e-05
v -0.0002104255254380405 0.00032529988675378263 -5.0010159611701965e-05
v -0.0002104255254380405 0.00032529988675378263 -5.0010159611701965e-05
v -0.0006576093728654087 0.0004794989654328674 5.0010159611701965e-05
v -0.0006576093728654087 0.0004794989654328674 5.0010159611701965e-05
v -0.0006576093728654087 0.0004794989654328674 -5.0010159611701965e-05
v -0.0006576093728654087 0.0004794989654328674 -5.0010159611701965e-05
v -0.0006576093728654087 0.0004794989654328674 -5.0010159611701965e-05
v -0.0006576093728654087 0.0004794989654328674 -5.0010159611701965e-05
v -0.0013327214401215315 0.0007117186905816197 5.0010159611701965e-05
v -0.0013327214401215315 0.0007117186905816197 5.0010159611701965e-05
v -0.0013327214401215315 0.0007117186905816197 5.0010159611701965e-05
v -0.0013327214401215315 0.0007117186905816197 5.0010159611701965e-05
v -0.0013327214401215315 0.0007117186905816197 -5.0010159611701965e-05
v -0.0013327214401215315 0.0007117186905816197 -5.0010159611701965e-05
v -0.0013327214401215315 0.0007117186905816197 -5.0010159611701965e-05
v -0.0013407084625214338 0.0007148795993998647 5.0010159611701965e-05
v -0.0013407084625214338 0.0007148795993998647 5.0010159611701965e-05
v -0.0013407084625214338 0.0007148795993998647 5.0010159611701965e-05
v -0.0013407084625214338 0.0007148795993998647 -5.0010159611701965e-05
v -0.0013407084625214338 0.0007148795993998647 -5.0010159611701965e-05
v -0.0014275226276367903 0.0007278696866706014 -5.0010159611701965e-05
v -0.0014275226276367903 0.0007278696866706014 -5.0010159611701965e-05
v -0.0014275226276367903 0.0007278696866706014 5.0010159611701965e-05
v -0.0014275226276367903 0.0007278696866706014 5.0010159611701965e-05
v -0.0014275226276367903 0.0007278696866706014 5.0010159611701965e-05
v -0.0015151116531342268 0.0007091501029208302 -5.0010159611701965e-05
v -0.0015151116531342268 0.0007091501029208302 -5.0010159611701965e-05
v -0.0015151116531342268 0.0007091501029208302 -5.0010159611701965e-05
v -0.0015151116531342268 0.0007091501029208302 5.0010159611701965e-05
v -0.0015151116531342268 0.0007091501029208302 5.0010159611701965e-05
v -0.0015151116531342268 0.0007091501029208302 5.0010159611701965e-05
v -0.001544824568554759 0.0006944892229512334 -5.0010159611701965e-05
v -0.001544824568554759 0.0006944892229512334 -5.0010159611701965e-05
v -0.001544824568554759 0.0006944892229512334 -5.0010159611701965e-05
v -0.001544824568554759 0.0006944892229512334 -5.0010159611701965e-05
v -0.001544824568554759 0.0006944892229512334 5.0010159611701965e-05
v -0.001544824568554759 0.0006944892229512334 5.0010159611701965e-05
v -0.001544824568554759 0.0006944892229512334 5.0010159611701965e-05
v -0.001544824568554759 0.0006944892229512334 5.0010159611701965e-05
v -0.001544824568554759 0.0006944892229512334 5.0010159611701965e-05
v -0.0016112241428345442 0.0006392990471795201 -5.0010159611701965e-05
v -0.0016112241428345442 0.0006392990471795201 -5.0010159611701965e-05
v -0.0016112241428345442 0.0006392990471795201 -5.0010159611701965e-05
v -0.0016112241428345442 0.0006392990471795201 5.0010159611701965e-05
v -0.0016112241428345442 0.0006392990471795201 5.0010159611701965e-05
v -0.0016112241428345442 0.0006392990471795201 5.0010159611701965e-05
v -0.0016112241428345442 0.0006392990471795201 5.0010159611701965e-05
v -0.0016537222545593977 0.0005671196850016713 -5.0010159611701965e-05
v -0.0016537222545593977 0.0005671196850016713 -5.0010159611701965e-05
v -0.0016537222545593977 0.0005671196850016713 -5.0010159611701965e-05
v -0.0016537222545593977 0.0005671196850016713 5.0010159611701965e-05
v -0.0016537222545593977 0.0005671196850016713 5.0010159611701965e-05
v -0.0016701135318726301 0.0004804489144589752 -5.0010159611701965e-05
v -0.0016701135318726301 0.0004804489144589752 -5.0010159611701965e-05
v -0.0016701135318726301 0.0004804489144589752 5.0010159611701965e-05
v -0.0016701135318726301 0.0004804489144589752 5.0010159611701965e-05
v -0.0016701135318726301 0.0004804489144589752 5.0010159611701965e-05
v -0.0016549143474549055 0.00039211855619214475 -5.0010159611701965e-05
v -0.0016549143474549055 0.00039211855619214475 -5.0010159611701965e-05
v -0.0016549143474549055 0.00039211855619214475 -5.0010159611701965e-05
v -0.0016549143474549055 0.00039211855619214475 -5.0010159611701965e-05
v -0.0016549143474549055 0.00039211855619214475 -5.0010159611701965e-05
v -0.0016549143474549055 0.00039211855619214475 5.0010159611701965e-05
v -0.0016549143474549055 0.00039211855619214475 5.0010159611701965e-05
v -0.0016549143474549055 0.00039211855619214475 5.0010159611701965e-05
v -0.0016549143474549055 0.00039211855619214475 5.0010159611701965e-05
f 1 5 8
f 1 8 11
f 11 8 12
f 11 12 22
f 22 12 24
f 22 24 27
f 31 27 32
f 32 27 24
f 31 32 38
f 31 38 41
f 41 38 42
f 41 42 47
f 47 42 50
f 47 50 52
f 52 50 58
f 52 58 60
f 61 57 65
f 61 65 68
f 68 65 70
f 68 70 73
f 75 73 82
f 82 73 70
f 89 74 92
f 92 76 80
f 101 87 103
f 107 85 91
f 112 100 113
f 113 100 106
f 118 112 125
f 125 112 113
f 118 125 126
f 118 126 131
f 131 126 133
f 131 133 134
f 134 133 136
f 134 136 139
f 139 136 144
f 139 144 146
f 146 144 149
f 146 149 150
f 150 149 154
f 150 154 159
f 159 154 164
f 159 164 165
f 165 164 169
f 165 169 172
f 172 169 175
f 172 175 176
f 176 175 179
f 176 179 184
f 186 184 191
f 191 184 179
f 194 186 195
f 195 186 191
f 199 194 203
f 203 194 195
f 205 198 212
f 211 199 203
f 218 208 225
f 226 209 213
f 230 217 243
f 243 216 222
f 246 227 250
f 252 236 241
f 257 245 263
f 265 247 254
f 267 256 272
f 272 256 261
f 277 267 281
f 281 267 272
f 277 281 283
f 277 283 286
f 286 283 290
f 286 290 292
f 292 290 297
f 292 297 301
f 301 297 303
f 301 303 306
f 306 303 312
f 306 312 314
f 314 312 316
f 314 316 317
f 317 316 321
f 317 321 327
f 327 321 330
f 327 330 334
f 334 330 336
f 334 336 338
f 338 336 341
f 338 341 347
f 347 341 353
f 347 353 357
f 360 357 363
f 363 357 353
f 360 363 366
f 360 366 370
f 370 366 373
f 370 373 376
f 376 373 381
f 376 381 383
f 383 381 388
f 383 388 392
f 393 389 396
f 393 396 399
f 399 396 402
f 399 402 404
f 404 402 411
f 411 402 414
f 418 410 421
f 422 409 413
f 428 416 431
f 434 419 426
f 438 430 442
f 442 430 432
f 448 438 450
f 450 438 442
f 448 450 454
f 448 454 457
f 457 454 460
f 457 460 463
f 463 460 467
f 463 467 470
f 470 467 472
f 470 472 474
f 474 472 477
f 474 477 479
f 479 477 483
f 479 483 488
f 488 483 489
f 488 489 492
f 492 489 496
f 492 496 500
f 500 496 501
f 500 501 505
f 505 501 509
f 505 509 511
f 515 511 517
f 517 511 509
f 522 515 523
f 523 515 517
f 528 522 529
f 529 522 523
f 533 528 535
f 535 528 529
f 540 533 544
f 544 533 535
f 551 538 556
f 558 540 544
f 563 550 565
f 565 550 557
f 570 563 574
f 574 563 565
f 578 570 581
f 581 570 574
f 583 578 586
f 586 578 581
f 583 586 588
f 583 588 589
f 589 588 594
f 589 594 595
f 595 594 601
f 595 601 605
f 605 601 608
f 605 608 613
f 613 608 616
f 613 616 618
f 618 616 620
f 618 620 622
f 622 620 628
f 622 628 630
f 630 628 5
f 630 5 1
f 507 512 444
f 447 510 514
f 21 577 582
f 62 562 51
f 53 561 45
f 552 562 62
f 549 59 228
f 231 62 67
f 229 66 71
f 362 259 358
f 359 255 269
f 356 270 350
f 351 268 276
f 440 445 513
f 440 513 520
f 439 521 427
f 575 16 28
f 576 26 569
f 569 26 29
f 569 29 562
f 564 30 40
f 560 39 46
f 182 109 117
f 183 120 177
f 361 371 255
f 258 369 379
f 255 378 248
f 244 377 385
f 248 384 231
f 233 386 394
f 232 390 548
f 547 391 398
f 546 400 406
f 552 405 408
f 545 407 541
f 539 408 417
f 539 417 532
f 532 417 429
f 532 429 527
f 527 429 520
f 193 96 185
f 187 99 110
f 185 111 183
f 235 72 78
f 234 79 219
f 220 77 88
f 221 84 207
f 206 86 97
f 210 96 201
f 200 98 192
f 275 284 349
f 345 285 293
f 348 291 302
f 584 591 17
f 20 590 597
f 18 596 606
f 313 318 307
f 309 319 325
f 308 326 298
f 299 328 332
f 300 333 352
f 346 335 339
f 475 478 469
f 469 478 487
f 469 487 465
f 617 623 610
f 612 621 629
f 611 631 602
f 604 632 3
f 603 2 19
f 15 4 10
f 499 506 495
f 494 504 449
f 493 445 487
f 486 446 458
f 485 456 464
f 147 152 142
f 138 151 160
f 135 140 129
f 128 141 157
f 130 158 120
f 119 161 166
f 120 167 177
f 177 167 171
f 25 580 571
f 519 508 503
f 273 344 279
f 93 81 240
f 237 83 69
f 567 54 48
f 69 63 237
f 242 64 56
f 237 55 553
f 553 55 566
f 23 573 34
f 204 102 214
f 215 105 94
f 214 90 224
f 223 95 238
f 202 196 104
f 102 197 190
f 108 188 114
f 116 189 180
f 49 44 566
f 568 43 37
f 566 35 573
f 572 36 33
f 462 455 452
f 424 415 553
f 555 412 403
f 375 249 380
f 382 251 239
f 380 237 387
f 387 237 553
f 387 553 395
f 397 554 401
f 372 260 253
f 9 598 13
f 14 599 593
f 452 441 519
f 519 441 525
f 526 443 437
f 374 368 264
f 262 367 364
f 266 365 271
f 271 365 355
f 274 354 342
f 115 181 121
f 123 178 173
f 121 174 170
f 579 23 13
f 579 13 585
f 585 13 592
f 585 592 587
f 559 543 423
f 420 542 534
f 425 536 435
f 436 537 531
f 433 530 524
f 282 280 288
f 289 278 340
f 287 343 294
f 296 340 337
f 625 619 615
f 322 315 311
f 9 7 598
f 600 6 626
f 598 627 609
f 607 624 614
f 476 473 480
f 481 471 466
f 337 331 296
f 295 329 320
f 296 324 304
f 305 323 310
f 148 143 153
f 156 145 137
f 156 137 132
f 468 459 482
f 484 461 451
f 481 452 491
f 490 453 516
f 491 519 497
f 498 518 502
f 168 162 122
f 124 163 155
f 121 156 127
f 127 156 132
