mtllib converted_link2_28_242424ff.mtl
usemtl material
v 0.00010001473128795624 0.00966969970613718 0.03787152096629143
v 0.00010001473128795624 0.00966969970613718 0.03787152096629143
v 0.00010001473128795624 0.00966969970613718 0.03787152096629143
v 0.00010001473128795624 0.00967119075357914 0.03772645443677902
v 0.00010001473128795624 0.00967119075357914 0.03772645443677902
v -0.00010001473128795624 0.00966969970613718 0.03787152096629143
v -0.00010001473128795624 0.00966969970613718 0.03787152096629143
v -0.00010001473128795624 0.00966969970613718 0.03787152096629143
v -0.00010001473128795624 0.00967119075357914 0.03772645443677902
v -0.00010001473128795624 0.00967119075357914 0.03772645443677902
v -0.00010001473128795624 0.00967119075357914 0.03772645443677902
v -0.00010001473128795624 0.00973893515765667 0.04969008266925812
v -0.00010001473128795624 0.00973893515765667 0.04969008266925812
v -0.00010001473128795624 0.00973893515765667 0.04969008266925812
v 0.00010001473128795624 0.00973893515765667 0.04969008266925812
v 0.00010001473128795624 0.00973893515765667 0.04969008266925812
v 0.00010001473128795624 0.00973893515765667 0.04969008266925812
v -0.00010001473128795624 0.00703334528952837 0.05384322628378868
v -0.00010001473128795624 0.00703334528952837 0.05384322628378868
v -0.00010001473128795624 0.00703334528952837 0.05384322628378868
v 0.00010001473128795624 0.00703334528952837 0.05384322628378868
v 0.00010001473128795624 0.00703334528952837 0.05384322628378868
v 0.00010001473128795624 0.00703334528952837 0.05384322628378868
v 0.00010001473128795624 0.00703334528952837 0.05384322628378868
v 0.00010001473128795624 0.008463900536298752 0.052854977548122406
v 0.00010001473128795624 0.008463900536298752 0.052854977548122406
v 0.00010001473128795624 0.008463900536298752 0.052854977548122406
v -0.00010001473128795624 0.008463900536298752 0.052854977548122406
v -0.00010001473128795624 0.008463900536298752 0.052854977548122406
v 0.00010001473128795624 0.009413003921508789 0.05139803886413574
v 0.00010001473128795624 0.009413003921508789 0.05139803886413574
v -0.00010001473128795624 0.009413003921508789 0.05139803886413574
v -0.00010001473128795624 0.009413003921508789 0.05139803886413574
v -0.00010001473128795624 0.009413003921508789 0.05139803886413574
v -0.00010001473128795624 -0.006096834782510996 0.05955226346850395
v -0.00010001473128795624 -0.006096834782510996 0.05955226346850395
v 0.00010001473128795624 -0.006096834782510996 0.05955226346850395
v 0.00010001473128795624 -0.006096834782510996 0.05955226346850395
v 0.00010001473128795624 -0.006096834782510996 0.05955226346850395
v -0.00010001473128795624 -0.00889426190406084 0.05772975832223892
v -0.00010001473128795624 -0.00889426190406084 0.05772975832223892
v -0.00010001473128795624 -0.00889426190406084 0.05772975832223892
v 0.00010001473128795624 -0.00889426190406084 0.05772975832223892
v 0.00010001473128795624 -0.00889426190406084 0.05772975832223892
v 0.00010001473128795624 -0.00889426190406084 0.05772975832223892
v 0.00010001473128795624 -0.00889426190406084 0.05772975832223892
v 0.00010001473128795624 -0.00889426190406084 0.05772975832223892
v 0.00010001473128795624 -0.008649807423353195 0.05867626890540123
v 0.00010001473128795624 -0.008649807423353195 0.05867626890540123
v 0.00010001473128795624 -0.008649807423353195 0.05867626890540123
v 0.00010001473128795624 -0.008649807423353195 0.05867626890540123
v -0.00010001473128795624 -0.008649807423353195 0.05867626890540123
v -0.00010001473128795624 -0.008649807423353195 0.05867626890540123
v -0.00010001473128795624 -0.008649807423353195 0.05867626890540123
v 0.00010001473128795624 -0.007985986769199371 0.05939381942152977
v 0.00010001473128795624 -0.007985986769199371 0.05939381942152977
v 0.00010001473128795624 -0.007985986769199371 0.05939381942152977
v -0.00010001473128795624 -0.007985986769199371 0.05939381942152977
v -0.00010001473128795624 -0.007985986769199371 0.05939381942152977
v -0.00010001473128795624 -0.007985986769199371 0.05939381942152977
v -0.00010001473128795624 -0.007985986769199371 0.05939381942152977
v 0.00010001473128795624 -0.007061370648443699 0.05971105024218559
v 0.00010001473128795624 -0.007061370648443699 0.05971105024218559
v 0.00010001473128795624 -0.007061370648443699 0.05971105024218559
v 0.00010001473128795624 -0.007061370648443699 0.05971105024218559
v 0.00010001473128795624 -0.007061370648443699 0.05971105024218559
v 0.00010001473128795624 -0.007061370648443699 0.05971105024218559
v -0.00010001473128795624 -0.007061370648443699 0.05971105024218559
v -0.00010001473128795624 -0.007061370648443699 0.05971105024218559
v -0.00010001473128795624 -0.007061370648443699 0.05971105024218559
v -0.00010001473128795624 -0.009549953043460846 -0.05413943529129028
v -0.00010001473128795624 -0.009549953043460846 -0.05413943529129028
v -0.00010001473128795624 -0.009549953043460846 -0.05413943529129028
v -0.00010001473128795624 -0.009549953043460846 -0.05413943529129028
v 0.00010001473128795624 -0.009549953043460846 -0.05413943529129028
v 0.00010001473128795624 -0.009549953043460846 -0.05413943529129028
v 0.00010001473128795624 -0.009549953043460846 -0.05413943529129028
v -0.00010001473128795624 -0.007064638659358025 -0.05665404722094536
v -0.00010001473128795624 -0.007064638659358025 -0.05665404722094536
v 0.00010001473128795624 -0.007064638659358025 -0.05665404722094536
v 0.00010001473128795624 -0.007064638659358025 -0.05665404722094536
v 0.00010001473128795624 -0.007064638659358025 -0.05665404722094536
v 0.00010001473128795624 -0.008020240813493729 -0.05645817145705223
v 0.00010001473128795624 -0.008020240813493729 -0.05645817145705223
v 0.00010001473128795624 -0.008020240813493729 -0.05645817145705223
v -0.00010001473128795624 -0.008020240813493729 -0.05645817145705223
v -0.00010001473128795624 -0.008020240813493729 -0.05645817145705223
v -0.00010001473128795624 -0.008020240813493729 -0.05645817145705223
v 0.00010001473128795624 -0.008828100748360157 -0.055911462754011154
v 0.00010001473128795624 -0.008828100748360157 -0.055911462754011154
v -0.00010001473128795624 -0.008828100748360157 -0.055911462754011154
v -0.00010001473128795624 -0.008828100748360157 -0.055911462754011154
v -0.00010001473128795624 -0.008828100748360157 -0.055911462754011154
v 0.00010001473128795624 -0.00936529878526926 -0.05509724095463753
v 0.00010001473128795624 -0.00936529878526926 -0.05509724095463753
v 0.00010001473128795624 -0.00936529878526926 -0.05509724095463753
v -0.00010001473128795624 -0.00936529878526926 -0.05509724095463753
v -0.00010001473128795624 -0.00936529878526926 -0.05509724095463753
v -0.00010001473128795624 -0.00936529878526926 -0.05509724095463753
v -0.00010001473128795624 0.006615071557462215 -0.056734222918748856
v -0.00010001473128795624 0.006615071557462215 -0.056734222918748856
v -0.00010001473128795624 0.006615071557462215 -0.056734222918748856
v 0.00010001473128795624 0.006615071557462215 -0.056734222918748856
v 0.00010001473128795624 0.006615071557462215 -0.056734222918748856
v 0.00010001473128795624 0.006615071557462215 -0.056734222918748856
v 0.00010001473128795624 0.006615071557462215 -0.056734222918748856
v -0.00010001473128795624 0.009129680693149567 -0.05424896255135536
v -0.00010001473128795624 0.009129680693149567 -0.05424896255135536
v -0.00010001473128795624 0.009129680693149567 -0.05424896255135536
v 0.00010001473128795624 0.009129680693149567 -0.05424896255135536
v 0.00010001473128795624 0.009129680693149567 -0.05424896255135536
v 0.00010001473128795624 0.009129680693149567 -0.05424896255135536
v 0.00010001473128795624 0.009129680693149567 -0.05424896255135536
v 0.00010001473128795624 0.00893374253064394 -0.055204518139362335
v 0.00010001473128795624 0.00893374253064394 -0.055204518139362335
v 0.00010001473128795624 0.00893374253064394 -0.055204518139362335
v -0.00010001473128795624 0.00893374253064394 -0.055204518139362335
v -0.00010001473128795624 0.00893374253064394 -0.055204518139362335
v 0.00010001473128795624 0.00838709156960249 -0.05601236969232559
v 0.00010001473128795624 0.00838709156960249 -0.05601236969232559
v -0.00010001473128795624 0.00838709156960249 -0.05601236969232559
v -0.00010001473128795624 0.00838709156960249 -0.05601236969232559
v 0.00010001473128795624 0.007572868373245001 -0.0565495640039444
v 0.00010001473128795624 0.007572868373245001 -0.0565495640039444
v 0.00010001473128795624 0.007572868373245001 -0.0565495640039444
v 0.00010001473128795624 0.007572868373245001 -0.0565495640039444
v 0.00010001473128795624 0.007572868373245001 -0.0565495640039444
v -0.00010001473128795624 0.007572868373245001 -0.0565495640039444
v -0.00010001473128795624 0.007572868373245001 -0.0565495640039444
v -0.00010001473128795624 0.007572868373245001 -0.0565495640039444
v -0.00010001473128795624 0.009189295582473278 -0.044071074575185776
v -0.00010001473128795624 0.009189295582473278 -0.044071074575185776
v -0.00010001473128795624 0.009189295582473278 -0.044071074575185776
v -0.00010001473128795624 0.009189295582473278 -0.044071074575185776
v 0.00010001473128795624 0.009189295582473278 -0.044071074575185776
v 0.00010001473128795624 0.009189295582473278 -0.044071074575185776
v 0.00010001473128795624 0.009189295582473278 -0.044071074575185776
v 0.00010001473128795624 0.009189295582473278 -0.044071074575185776
v 0.00010001473128795624 0.009189295582473278 -0.044071074575185776
v 0.00010001473128795624 0.00919223204255104 -0.043974366039037704
v 0.00010001473128795624 0.00919223204255104 -0.043974366039037704
v 0.00010001473128795624 0.00919223204255104 -0.043974366039037704
v -0.00010001473128795624 0.00919223204255104 -0.043974366039037704
v -0.00010001473128795624 0.00919223204255104 -0.043974366039037704
v -0.00010001473128795624 0.00919223204255104 -0.043974366039037704
f 1 4 8
f 8 4 10
f 8 12 1
f 1 12 15
f 20 22 27
f 20 27 28
f 28 27 30
f 28 30 34
f 34 30 15
f 34 15 12
f 20 36 22
f 22 36 39
f 42 45 48
f 42 48 53
f 54 49 55
f 54 55 59
f 60 56 64
f 61 65 68
f 69 66 39
f 69 39 36
f 42 74 45
f 45 74 77
f 79 81 83
f 79 83 87
f 88 85 90
f 88 90 92
f 92 90 95
f 92 95 99
f 98 96 77
f 98 77 74
f 79 101 81
f 81 101 106
f 108 113 115
f 108 115 118
f 118 115 120
f 118 120 121
f 121 120 126
f 121 126 130
f 129 125 106
f 129 106 101
f 108 133 113
f 113 133 139
f 142 139 145
f 145 139 133
f 145 10 142
f 142 10 4
f 40 7 11
f 107 117 122
f 29 33 18
f 19 32 14
f 18 13 35
f 41 9 71
f 71 9 143
f 72 144 132
f 78 131 100
f 102 134 109
f 100 107 128
f 128 107 122
f 97 73 93
f 91 71 131
f 91 131 86
f 86 131 78
f 58 70 52
f 52 70 35
f 52 35 41
f 41 35 13
f 41 13 6
f 94 89 136
f 119 114 124
f 127 116 110
f 123 112 105
f 104 111 135
f 103 137 82
f 80 136 89
f 80 89 84
f 94 136 76
f 75 138 141
f 76 140 46
f 31 25 16
f 17 26 21
f 16 23 2
f 3 24 47
f 2 46 5
f 5 46 140
f 57 50 67
f 63 51 44
f 62 43 38
f 37 46 23
