mtllib converted_link2_26_d12626ff.mtl
usemtl material
v 5.0010159611701965e-05 0.0087601188570261 -0.0037271531764417887
v 5.0010159611701965e-05 0.0087601188570261 -0.0037271531764417887
v 5.0010159611701965e-05 0.0087601188570261 -0.0037271531764417887
v 5.0010159611701965e-05 0.0087601188570261 -0.0037271531764417887
v 5.0010159611701965e-05 0.009379023686051369 -0.004757605493068695
v 5.0010159611701965e-05 0.009379023686051369 -0.004757605493068695
v 5.0010159611701965e-05 0.009937727823853493 -0.0034430252853780985
v 5.0010159611701965e-05 0.009937727823853493 -0.0034430252853780985
v 5.0010159611701965e-05 0.009937727823853493 -0.0034430252853780985
v 5.0010159611701965e-05 -0.00876007042825222 0.0037271154578775167
v 5.0010159611701965e-05 -0.00876007042825222 0.0037271154578775167
v 5.0010159611701965e-05 -0.00876007042825222 0.0037271154578775167
v 5.0010159611701965e-05 -0.009379064664244652 0.004757625982165337
v 5.0010159611701965e-05 -0.009379064664244652 0.004757625982165337
v 5.0010159611701965e-05 -0.009937768802046776 0.0034430453088134527
v 5.0010159611701965e-05 -0.009937768802046776 0.0034430453088134527
v 5.0010159611701965e-05 -0.009937768802046776 0.0034430453088134527
v 5.0010159611701965e-05 -0.004095261916518211 -0.008593935519456863
v 5.0010159611701965e-05 -0.004095261916518211 -0.008593935519456863
v 5.0010159611701965e-05 -0.004095261916518211 -0.008593935519456863
v 5.0010159611701965e-05 -0.0038844700902700424 -0.009773574769496918
v 5.0010159611701965e-05 -0.0038844700902700424 -0.009773574769496918
v 5.0010159611701965e-05 -0.0038844700902700424 -0.009773574769496918
v 5.0010159611701965e-05 -0.0028291698545217514 -0.00909002497792244
v 5.0010159611701965e-05 -0.0028291698545217514 -0.00909002497792244
v 5.0010159611701965e-05 -0.0028291698545217514 -0.00909002497792244
v 5.0010159611701965e-05 -0.002523159608244896 -0.01020970568060875
v 5.0010159611701965e-05 -0.002523159608244896 -0.01020970568060875
v 5.0010159611701965e-05 -0.002523159608244896 -0.01020970568060875
v 5.0010159611701965e-05 -0.0015020724385976791 -0.009399734437465668
v 5.0010159611701965e-05 -0.0015020724385976791 -0.009399734437465668
v 5.0010159611701965e-05 -0.0011102613061666489 -0.010456524789333344
v 5.0010159611701965e-05 -0.0011102613061666489 -0.010456524789333344
v 5.0010159611701965e-05 -0.0011102613061666489 -0.010456524789333344
v 5.0010159611701965e-05 -0.00013506966934073716 -0.009516675025224686
v 5.0010159611701965e-05 -0.00013506966934073716 -0.009516675025224686
v 5.0010159611701965e-05 -0.00013506966934073716 -0.009516675025224686
v 5.0010159611701965e-05 -0.00013506966934073716 -0.009516675025224686
v 5.0010159611701965e-05 0.00031262083211913705 -0.010509874671697617
v 5.0010159611701965e-05 0.00031262083211913705 -0.010509874671697617
v 5.0010159611701965e-05 0.00031262083211913705 -0.010509874671697617
v 5.0010159611701965e-05 0.00031262083211913705 -0.010509874671697617
v 5.0010159611701965e-05 0.00031262083211913705 -0.010509874671697617
v 5.0010159611701965e-05 -0.009201860055327415 0.002440554788336158
v 5.0010159611701965e-05 -0.009201860055327415 0.002440554788336158
v 5.0010159611701965e-05 -0.009201860055327415 0.002440554788336158
v 5.0010159611701965e-05 -0.009201860055327415 0.002440554788336158
v 5.0010159611701965e-05 -0.010312175378203392 0.002062475075945258
v 5.0010159611701965e-05 -0.010312175378203392 0.002062475075945258
v 5.0010159611701965e-05 -0.010312175378203392 0.002062475075945258
v 5.0010159611701965e-05 -0.009454762563109398 0.0010995062766596675
v 5.0010159611701965e-05 -0.009454762563109398 0.0010995062766596675
v 5.0010159611701965e-05 -0.009454762563109398 0.0010995062766596675
v 5.0010159611701965e-05 -0.010495459660887718 0.0006367953610606492
v 5.0010159611701965e-05 -0.010495459660887718 0.0006367953610606492
v 5.0010159611701965e-05 -0.009517675265669823 -2.4374225304768515e-08
v 5.0010159611701965e-05 -0.009517675265669823 -2.4374225304768515e-08
v 5.0010159611701965e-05 -0.010514473542571068 -2.4374225304768515e-08
v 5.0010159611701965e-05 -0.010514473542571068 -2.4374225304768515e-08
v 5.0010159611701965e-05 -0.009423470124602318 -0.0013435148866847157
v 5.0010159611701965e-05 -0.009423470124602318 -0.0013435148866847157
v 5.0010159611701965e-05 -0.009423470124602318 -0.0013435148866847157
v 5.0010159611701965e-05 -0.010420268401503563 -0.0014133640797808766
v 5.0010159611701965e-05 -0.010420268401503563 -0.0014133640797808766
v 5.0010159611701965e-05 -0.010420268401503563 -0.0014133640797808766
v 5.0010159611701965e-05 -0.009149258956313133 -0.002631142968311906
v 5.0010159611701965e-05 -0.009149258956313133 -0.002631142968311906
v 5.0010159611701965e-05 -0.009149258956313133 -0.002631142968311906
v 5.0010159611701965e-05 -0.009149258956313133 -0.002631142968311906
v 5.0010159611701965e-05 -0.010145371779799461 -0.0027713964227586985
v 5.0010159611701965e-05 -0.010145371779799461 -0.0027713964227586985
v 5.0010159611701965e-05 -0.010145371779799461 -0.0027713964227586985
v 5.0010159611701965e-05 -0.00869826041162014 -0.0038691351655870676
v 5.0010159611701965e-05 -0.00869826041162014 -0.0038691351655870676
v 5.0010159611701965e-05 -0.00869826041162014 -0.0038691351655870676
v 5.0010159611701965e-05 -0.009692972525954247 -0.0040813349187374115
v 5.0010159611701965e-05 -0.009692972525954247 -0.0040813349187374115
v 5.0010159611701965e-05 -0.008075660094618797 -0.0050391145050525665
v 5.0010159611701965e-05 -0.008075660094618797 -0.0050391145050525665
v 5.0010159611701965e-05 -0.009067779406905174 -0.0053258128464221954
v 5.0010159611701965e-05 -0.009067779406905174 -0.0053258128464221954
v 5.0010159611701965e-05 -0.009067779406905174 -0.0053258128464221954
v 5.0010159611701965e-05 -0.007289683446288109 -0.006119634956121445
v 5.0010159611701965e-05 -0.007289683446288109 -0.006119634956121445
v 5.0010159611701965e-05 -0.007289683446288109 -0.006119634956121445
v 5.0010159611701965e-05 -0.007289683446288109 -0.006119634956121445
v 5.0010159611701965e-05 -0.008277183398604393 -0.006484765559434891
v 5.0010159611701965e-05 -0.008277183398604393 -0.006484765559434891
v 5.0010159611701965e-05 -0.008277183398604393 -0.006484765559434891
v 5.0010159611701965e-05 -0.008277183398604393 -0.006484765559434891
v 5.0010159611701965e-05 -0.0063478704541921616 -0.007091604173183441
v 5.0010159611701965e-05 -0.0063478704541921616 -0.007091604173183441
v 5.0010159611701965e-05 -0.0063478704541921616 -0.007091604173183441
v 5.0010159611701965e-05 -0.0063478704541921616 -0.007091604173183441
v 5.0010159611701965e-05 -0.00743476115167141 -0.007434803992509842
v 5.0010159611701965e-05 -0.00743476115167141 -0.007434803992509842
v 5.0010159611701965e-05 -0.00743476115167141 -0.007434803992509842
v 5.0010159611701965e-05 -0.00743476115167141 -0.007434803992509842
v 5.0010159611701965e-05 -0.005276357755064964 -0.007922373712062836
v 5.0010159611701965e-05 -0.005276357755064964 -0.007922373712062836
v 5.0010159611701965e-05 -0.005276357755064964 -0.007922373712062836
v 5.0010159611701965e-05 -0.005276357755064964 -0.007922373712062836
v 5.0010159611701965e-05 -0.00636366568505764 -0.008370716124773026
v 5.0010159611701965e-05 -0.00636366568505764 -0.008370716124773026
v 5.0010159611701965e-05 -0.00636366568505764 -0.008370716124773026
v 5.0010159611701965e-05 -0.00636366568505764 -0.008370716124773026
v 5.0010159611701965e-05 -0.005172377452254295 -0.00915636494755745
v 5.0010159611701965e-05 -0.005172377452254295 -0.00915636494755745
v 5.0010159611701965e-05 0.004095220938324928 0.008593956008553505
v 5.0010159611701965e-05 0.004095220938324928 0.008593956008553505
v 5.0010159611701965e-05 0.004095220938324928 0.008593956008553505
v 5.0010159611701965e-05 0.004095220938324928 0.008593956008553505
v 5.0010159611701965e-05 0.0038844291120767593 0.00977359525859356
v 5.0010159611701965e-05 0.0038844291120767593 0.00977359525859356
v 5.0010159611701965e-05 0.0038844291120767593 0.00977359525859356
v 5.0010159611701965e-05 0.0038844291120767593 0.00977359525859356
v 5.0010159611701965e-05 0.0028291288763284683 0.009090045467019081
v 5.0010159611701965e-05 0.0028291288763284683 0.009090045467019081
v 5.0010159611701965e-05 0.0028291288763284683 0.009090045467019081
v 5.0010159611701965e-05 0.002523118630051613 0.010209714993834496
v 5.0010159611701965e-05 0.002523118630051613 0.010209714993834496
v 5.0010159611701965e-05 0.002523118630051613 0.010209714993834496
v 5.0010159611701965e-05 0.001502031460404396 0.009399745613336563
v 5.0010159611701965e-05 0.001502031460404396 0.009399745613336563
v 5.0010159611701965e-05 0.0011102203279733658 0.010456545278429985
v 5.0010159611701965e-05 0.0011102203279733658 0.010456545278429985
v 5.0010159611701965e-05 0.0011102203279733658 0.010456545278429985
v 5.0010159611701965e-05 0.00013502877845894545 0.009516695514321327
v 5.0010159611701965e-05 0.00013502877845894545 0.009516695514321327
v 5.0010159611701965e-05 0.00013502877845894545 0.009516695514321327
v 5.0010159611701965e-05 0.00013502877845894545 0.009516695514321327
v 5.0010159611701965e-05 -0.0003126616938970983 0.010509885847568512
v 5.0010159611701965e-05 -0.0003126616938970983 0.010509885847568512
v 5.0010159611701965e-05 -0.0003126616938970983 0.010509885847568512
v 5.0010159611701965e-05 -0.0003126616938970983 0.010509885847568512
v 5.0010159611701965e-05 -0.0003126616938970983 0.010509885847568512
v 5.0010159611701965e-05 0.009201819077134132 -0.0024405347649008036
v 5.0010159611701965e-05 0.009201819077134132 -0.0024405347649008036
v 5.0010159611701965e-05 0.009201819077134132 -0.0024405347649008036
v 5.0010159611701965e-05 0.009201819077134132 -0.0024405347649008036
v 5.0010159611701965e-05 0.010312223806977272 -0.00206246436573565
v 5.0010159611701965e-05 0.010312223806977272 -0.00206246436573565
v 5.0010159611701965e-05 0.010312223806977272 -0.00206246436573565
v 5.0010159611701965e-05 0.009454721584916115 -0.0010994841577485204
v 5.0010159611701965e-05 0.009454721584916115 -0.0010994841577485204
v 5.0010159611701965e-05 0.009454721584916115 -0.0010994841577485204
v 5.0010159611701965e-05 0.010495418682694435 -0.0006368348258547485
v 5.0010159611701965e-05 0.010495418682694435 -0.0006368348258547485
v 5.0010159611701965e-05 0.00951763428747654 -2.4374225304768515e-08
v 5.0010159611701965e-05 0.00951763428747654 -2.4374225304768515e-08
v 5.0010159611701965e-05 0.00951763428747654 -2.4374225304768515e-08
v 5.0010159611701965e-05 0.010514432564377785 -2.4374225304768515e-08
v 5.0010159611701965e-05 0.010514432564377785 -2.4374225304768515e-08
v 5.0010159611701965e-05 0.009423518553376198 0.0013435258297249675
v 5.0010159611701965e-05 0.009423518553376198 0.0013435258297249675
v 5.0010159611701965e-05 0.01042022742331028 0.0014133861986920238
v 5.0010159611701965e-05 0.01042022742331028 0.0014133861986920238
v 5.0010159611701965e-05 0.00914921797811985 0.002631105249747634
v 5.0010159611701965e-05 0.00914921797811985 0.002631105249747634
v 5.0010159611701965e-05 0.010145330801606178 0.0027714145835489035
v 5.0010159611701965e-05 0.010145330801606178 0.0027714145835489035
v 5.0010159611701965e-05 0.008698219433426857 0.003869155189022422
v 5.0010159611701965e-05 0.008698219433426857 0.003869155189022422
v 5.0010159611701965e-05 0.009692931547760963 0.004081346094608307
v 5.0010159611701965e-05 0.009692931547760963 0.004081346094608307
v 5.0010159611701965e-05 0.008075738325715065 0.005039075389504433
v 5.0010159611701965e-05 0.008075738325715065 0.005039075389504433
v 5.0010159611701965e-05 0.008075738325715065 0.005039075389504433
v 5.0010159611701965e-05 0.009067738428711891 0.005325835198163986
v 5.0010159611701965e-05 0.009067738428711891 0.005325835198163986
v 5.0010159611701965e-05 0.009067738428711891 0.005325835198163986
v 5.0010159611701965e-05 0.007289731875061989 0.00611964613199234
v 5.0010159611701965e-05 0.007289731875061989 0.00611964613199234
v 5.0010159611701965e-05 0.007289731875061989 0.00611964613199234
v 5.0010159611701965e-05 0.007289731875061989 0.00611964613199234
v 5.0010159611701965e-05 0.00827714242041111 0.006484786048531532
v 5.0010159611701965e-05 0.00827714242041111 0.006484786048531532
v 5.0010159611701965e-05 0.00827714242041111 0.006484786048531532
v 5.0010159611701965e-05 0.0063478294759988785 0.0070916153490543365
v 5.0010159611701965e-05 0.0063478294759988785 0.0070916153490543365
v 5.0010159611701965e-05 0.0063478294759988785 0.0070916153490543365
v 5.0010159611701965e-05 0.007434839382767677 0.007434826344251633
v 5.0010159611701965e-05 0.007434839382767677 0.007434826344251633
v 5.0010159611701965e-05 0.005276316776871681 0.007922384887933731
v 5.0010159611701965e-05 0.005276316776871681 0.007922384887933731
v 5.0010159611701965e-05 0.005276316776871681 0.007922384887933731
v 5.0010159611701965e-05 0.006363624706864357 0.008370734751224518
v 5.0010159611701965e-05 0.006363624706864357 0.008370734751224518
v 5.0010159611701965e-05 0.006363624706864357 0.008370734751224518
v 5.0010159611701965e-05 0.005172336474061012 0.009156385436654091
v 5.0010159611701965e-05 0.005172336474061012 0.009156385436654091
v 5.0010159611701965e-05 0.005172336474061012 0.009156385436654091
v 5.0010159611701965e-05 0.00864722765982151 -0.005983315408229828
v 5.0010159611701965e-05 0.00864722765982151 -0.005983315408229828
v 5.0010159611701965e-05 0.00864722765982151 -0.005983315408229828
v 5.0010159611701965e-05 0.00864722765982151 -0.005983315408229828
v 5.0010159611701965e-05 0.008139217272400856 -0.004936005920171738
v 5.0010159611701965e-05 0.008139217272400856 -0.004936005920171738
v 5.0010159611701965e-05 0.008139217272400856 -0.004936005920171738
v 5.0010159611701965e-05 0.008139217272400856 -0.004936005920171738
v 5.0010159611701965e-05 0.00775834359228611 -0.0070966146886348724
v 5.0010159611701965e-05 0.00775834359228611 -0.0070966146886348724
v 5.0010159611701965e-05 0.00775834359228611 -0.0070966146886348724
v 5.0010159611701965e-05 0.007353628054261208 -0.006042744964361191
v 5.0010159611701965e-05 0.007353628054261208 -0.006042744964361191
v 5.0010159611701965e-05 0.00672953762114048 -0.008079074323177338
v 5.0010159611701965e-05 0.00672953762114048 -0.008079074323177338
v 5.0010159611701965e-05 0.00672953762114048 -0.008079074323177338
v 5.0010159611701965e-05 0.006421322003006935 -0.007025085389614105
v 5.0010159611701965e-05 0.006421322003006935 -0.007025085389614105
v 5.0010159611701965e-05 0.006421322003006935 -0.007025085389614105
v 5.0010159611701965e-05 0.006421322003006935 -0.007025085389614105
v 5.0010159611701965e-05 0.005592638626694679 -0.008905313909053802
v 5.0010159611701965e-05 0.005592638626694679 -0.008905313909053802
v 5.0010159611701965e-05 0.005592638626694679 -0.008905313909053802
v 5.0010159611701965e-05 0.005592638626694679 -0.008905313909053802
v 5.0010159611701965e-05 0.0053720418363809586 -0.007857702672481537
v 5.0010159611701965e-05 0.0053720418363809586 -0.007857702672481537
v 5.0010159611701965e-05 0.0053720418363809586 -0.007857702672481537
v 5.0010159611701965e-05 0.004365438595414162 -0.009568173438310623
v 5.0010159611701965e-05 0.004365438595414162 -0.009568173438310623
v 5.0010159611701965e-05 0.004226440563797951 -0.008530043065547943
v 5.0010159611701965e-05 0.004226440563797951 -0.008530043065547943
v 5.0010159611701965e-05 0.0030685309320688248 -0.010059613734483719
v 5.0010159611701965e-05 0.0030685309320688248 -0.010059613734483719
v 5.0010159611701965e-05 0.0030067209154367447 -0.009032923728227615
v 5.0010159611701965e-05 0.0030067209154367447 -0.009032923728227615
v 5.0010159611701965e-05 0.0030067209154367447 -0.009032923728227615
v 5.0010159611701965e-05 0.0017199162393808365 -0.010374445468187332
v 5.0010159611701965e-05 0.0017199162393808365 -0.010374445468187332
v 5.0010159611701965e-05 0.0017199162393808365 -0.010374445468187332
v 5.0010159611701965e-05 0.0017321351915597916 -0.009360335767269135
v 5.0010159611701965e-05 0.0017321351915597916 -0.009360335767269135
v 5.0010159611701965e-05 0.0017321351915597916 -0.009360335767269135
v 5.0010159611701965e-05 0.0017321351915597916 -0.009360335767269135
v 5.0010159611701965e-05 0.0004037265316583216 -0.009509164839982986
v 5.0010159611701965e-05 0.0004037265316583216 -0.009509164839982986
v 5.0010159611701965e-05 0.0004037265316583216 -0.009509164839982986
v 5.0010159611701965e-05 0.0004037265316583216 -0.009509164839982986
v 5.0010159611701965e-05 -0.00864717923104763 0.005983276292681694
v 5.0010159611701965e-05 -0.00864717923104763 0.005983276292681694
v 5.0010159611701965e-05 -0.00864717923104763 0.005983276292681694
v 5.0010159611701965e-05 -0.008139168843626976 0.004936015233397484
v 5.0010159611701965e-05 -0.008139168843626976 0.004936015233397484
v 5.0010159611701965e-05 -0.008139168843626976 0.004936015233397484
v 5.0010159611701965e-05 -0.008139168843626976 0.004936015233397484
v 5.0010159611701965e-05 -0.007758354768157005 0.007096625864505768
v 5.0010159611701965e-05 -0.007758354768157005 0.007096625864505768
v 5.0010159611701965e-05 -0.007758354768157005 0.007096625864505768
v 5.0010159611701965e-05 -0.007758354768157005 0.007096625864505768
v 5.0010159611701965e-05 -0.007353579625487328 0.006042756140232086
v 5.0010159611701965e-05 -0.007353579625487328 0.006042756140232086
v 5.0010159611701965e-05 -0.007353579625487328 0.006042756140232086
v 5.0010159611701965e-05 -0.006729578599333763 0.008079085499048233
v 5.0010159611701965e-05 -0.006729578599333763 0.008079085499048233
v 5.0010159611701965e-05 -0.006729578599333763 0.008079085499048233
v 5.0010159611701965e-05 -0.006421362981200218 0.007025046274065971
v 5.0010159611701965e-05 -0.006421362981200218 0.007025046274065971
v 5.0010159611701965e-05 -0.006421362981200218 0.007025046274065971
v 5.0010159611701965e-05 -0.006421362981200218 0.007025046274065971
v 5.0010159611701965e-05 -0.0055925603955984116 0.008905325084924698
v 5.0010159611701965e-05 -0.0055925603955984116 0.008905325084924698
v 5.0010159611701965e-05 -0.0055925603955984116 0.008905325084924698
v 5.0010159611701965e-05 -0.0055925603955984116 0.008905325084924698
v 5.0010159611701965e-05 -0.005371963605284691 0.007857656106352806
v 5.0010159611701965e-05 -0.005371963605284691 0.007857656106352806
v 5.0010159611701965e-05 -0.005371963605284691 0.007857656106352806
v 5.0010159611701965e-05 -0.004365360364317894 0.009568195790052414
v 5.0010159611701965e-05 -0.004365360364317894 0.009568195790052414
v 5.0010159611701965e-05 -0.004226481541991234 0.008530056104063988
v 5.0010159611701965e-05 -0.004226481541991234 0.008530056104063988
v 5.0010159611701965e-05 -0.0030684825032949448 0.01005963608622551
v 5.0010159611701965e-05 -0.0030684825032949448 0.01005963608622551
v 5.0010159611701965e-05 -0.0030066724866628647 0.009032946079969406
v 5.0010159611701965e-05 -0.0030066724866628647 0.009032946079969406
v 5.0010159611701965e-05 -0.0030066724866628647 0.009032946079969406
v 5.0010159611701965e-05 -0.0017198678106069565 0.010374465957283974
v 5.0010159611701965e-05 -0.0017198678106069565 0.010374465957283974
v 5.0010159611701965e-05 -0.0017198678106069565 0.010374465957283974
v 5.0010159611701965e-05 -0.0017321761697530746 0.009360356256365776
v 5.0010159611701965e-05 -0.0017321761697530746 0.009360356256365776
v 5.0010159611701965e-05 -0.0017321761697530746 0.009360356256365776
v 5.0010159611701965e-05 -0.0017321761697530746 0.009360356256365776
v 5.0010159611701965e-05 -0.0004037673934362829 0.009509185329079628
v 5.0010159611701965e-05 -0.0004037673934362829 0.009509185329079628
v 5.0010159611701965e-05 -0.0004037673934362829 0.009509185329079628
v 5.0010159611701965e-05 -0.0004037673934362829 0.009509185329079628
v -5.0010159611701965e-05 0.004095220938324928 0.008593956008553505
v -5.0010159611701965e-05 0.004095220938324928 0.008593956008553505
v -5.0010159611701965e-05 0.004095220938324928 0.008593956008553505
v -5.0010159611701965e-05 0.0028291288763284683 0.009090045467019081
v -5.0010159611701965e-05 0.0028291288763284683 0.009090045467019081
v -5.0010159611701965e-05 0.0028291288763284683 0.009090045467019081
v -5.0010159611701965e-05 0.002523118630051613 0.010209714993834496
v -5.0010159611701965e-05 0.002523118630051613 0.010209714993834496
v -5.0010159611701965e-05 -0.004095261916518211 -0.008593935519456863
v -5.0010159611701965e-05 -0.004095261916518211 -0.008593935519456863
v -5.0010159611701965e-05 -0.004095261916518211 -0.008593935519456863
v -5.0010159611701965e-05 -0.0028291698545217514 -0.00909002497792244
v -5.0010159611701965e-05 -0.0028291698545217514 -0.00909002497792244
v -5.0010159611701965e-05 -0.0028291698545217514 -0.00909002497792244
v -5.0010159611701965e-05 -0.002523159608244896 -0.01020970568060875
v -5.0010159611701965e-05 -0.002523159608244896 -0.01020970568060875
v -5.0010159611701965e-05 -0.002523159608244896 -0.01020970568060875
v -5.0010159611701965e-05 0.0011102203279733658 0.010456545278429985
v -5.0010159611701965e-05 0.0011102203279733658 0.010456545278429985
v -5.0010159611701965e-05 0.0011102203279733658 0.010456545278429985
v -5.0010159611701965e-05 0.001502031460404396 0.009399745613336563
v -5.0010159611701965e-05 0.001502031460404396 0.009399745613336563
v -5.0010159611701965e-05 0.001502031460404396 0.009399745613336563
v -5.0010159611701965e-05 -0.0003126616938970983 0.010509885847568512
v -5.0010159611701965e-05 -0.0003126616938970983 0.010509885847568512
v -5.0010159611701965e-05 -0.0011102613061666489 -0.010456524789333344
v -5.0010159611701965e-05 -0.0011102613061666489 -0.010456524789333344
v -5.0010159611701965e-05 -0.0011102613061666489 -0.010456524789333344
v -5.0010159611701965e-05 -0.0015020724385976791 -0.009399734437465668
v -5.0010159611701965e-05 -0.0015020724385976791 -0.009399734437465668
v -5.0010159611701965e-05 -0.0015020724385976791 -0.009399734437465668
v -5.0010159611701965e-05 0.00031262083211913705 -0.010509874671697617
v -5.0010159611701965e-05 0.00031262083211913705 -0.010509874671697617
v -5.0010159611701965e-05 0.00031262083211913705 -0.010509874671697617
v -5.0010159611701965e-05 0.0038844291120767593 0.00977359525859356
v -5.0010159611701965e-05 0.0038844291120767593 0.00977359525859356
v -5.0010159611701965e-05 0.0038844291120767593 0.00977359525859356
v -5.0010159611701965e-05 0.005172336474061012 0.009156385436654091
v -5.0010159611701965e-05 0.005172336474061012 0.009156385436654091
v -5.0010159611701965e-05 0.005172336474061012 0.009156385436654091
v -5.0010159611701965e-05 0.005172336474061012 0.009156385436654091
v -5.0010159611701965e-05 0.005276316776871681 0.007922384887933731
v -5.0010159611701965e-05 0.005276316776871681 0.007922384887933731
v -5.0010159611701965e-05 0.005276316776871681 0.007922384887933731
v -5.0010159611701965e-05 0.006363624706864357 0.008370734751224518
v -5.0010159611701965e-05 0.006363624706864357 0.008370734751224518
v -5.0010159611701965e-05 0.006363624706864357 0.008370734751224518
v -5.0010159611701965e-05 0.0063478294759988785 0.0070916153490543365
v -5.0010159611701965e-05 0.0063478294759988785 0.0070916153490543365
v -5.0010159611701965e-05 0.007434839382767677 0.007434826344251633
v -5.0010159611701965e-05 0.007434839382767677 0.007434826344251633
v -5.0010159611701965e-05 0.007434839382767677 0.007434826344251633
v -5.0010159611701965e-05 0.007289731875061989 0.00611964613199234
v -5.0010159611701965e-05 0.007289731875061989 0.00611964613199234
v -5.0010159611701965e-05 0.007289731875061989 0.00611964613199234
v -5.0010159611701965e-05 0.00827714242041111 0.006484786048531532
v -5.0010159611701965e-05 0.00827714242041111 0.006484786048531532
v -5.0010159611701965e-05 0.00827714242041111 0.006484786048531532
v -5.0010159611701965e-05 0.00827714242041111 0.006484786048531532
v -5.0010159611701965e-05 0.008075738325715065 0.005039075389504433
v -5.0010159611701965e-05 0.008075738325715065 0.005039075389504433
v -5.0010159611701965e-05 0.008075738325715065 0.005039075389504433
v -5.0010159611701965e-05 0.009067738428711891 0.005325835198163986
v -5.0010159611701965e-05 0.009067738428711891 0.005325835198163986
v -5.0010159611701965e-05 0.009067738428711891 0.005325835198163986
v -5.0010159611701965e-05 0.009067738428711891 0.005325835198163986
v -5.0010159611701965e-05 0.008698219433426857 0.003869155189022422
v -5.0010159611701965e-05 0.008698219433426857 0.003869155189022422
v -5.0010159611701965e-05 0.008698219433426857 0.003869155189022422
v -5.0010159611701965e-05 0.009692931547760963 0.004081346094608307
v -5.0010159611701965e-05 0.009692931547760963 0.004081346094608307
v -5.0010159611701965e-05 0.009692931547760963 0.004081346094608307
v -5.0010159611701965e-05 0.00914921797811985 0.002631105249747634
v -5.0010159611701965e-05 0.00914921797811985 0.002631105249747634
v -5.0010159611701965e-05 0.010145330801606178 0.0027714145835489035
v -5.0010159611701965e-05 0.010145330801606178 0.0027714145835489035
v -5.0010159611701965e-05 0.009423518553376198 0.0013435258297249675
v -5.0010159611701965e-05 0.009423518553376198 0.0013435258297249675
v -5.0010159611701965e-05 0.01042022742331028 0.0014133861986920238
v -5.0010159611701965e-05 0.01042022742331028 0.0014133861986920238
v -5.0010159611701965e-05 0.00951763428747654 -2.4374225304768515e-08
v -5.0010159611701965e-05 0.00951763428747654 -2.4374225304768515e-08
v -5.0010159611701965e-05 0.00951763428747654 -2.4374225304768515e-08
v -5.0010159611701965e-05 0.010514432564377785 -2.4374225304768515e-08
v -5.0010159611701965e-05 0.010514432564377785 -2.4374225304768515e-08
v -5.0010159611701965e-05 0.009454721584916115 -0.0010994841577485204
v -5.0010159611701965e-05 0.009454721584916115 -0.0010994841577485204
v -5.0010159611701965e-05 0.010495418682694435 -0.0006368348258547485
v -5.0010159611701965e-05 0.010495418682694435 -0.0006368348258547485
v -5.0010159611701965e-05 0.010495418682694435 -0.0006368348258547485
v -5.0010159611701965e-05 0.009201819077134132 -0.0024405347649008036
v -5.0010159611701965e-05 0.009201819077134132 -0.0024405347649008036
v -5.0010159611701965e-05 0.009201819077134132 -0.0024405347649008036
v -5.0010159611701965e-05 0.010312223806977272 -0.00206246436573565
v -5.0010159611701965e-05 0.010312223806977272 -0.00206246436573565
v -5.0010159611701965e-05 0.010312223806977272 -0.00206246436573565
v -5.0010159611701965e-05 0.010312223806977272 -0.00206246436573565
v -5.0010159611701965e-05 0.0087601188570261 -0.0037271531764417887
v -5.0010159611701965e-05 0.0087601188570261 -0.0037271531764417887
v -5.0010159611701965e-05 0.0087601188570261 -0.0037271531764417887
v -5.0010159611701965e-05 -0.0038844700902700424 -0.009773574769496918
v -5.0010159611701965e-05 -0.0038844700902700424 -0.009773574769496918
v -5.0010159611701965e-05 -0.0038844700902700424 -0.009773574769496918
v -5.0010159611701965e-05 -0.005172377452254295 -0.00915636494755745
v -5.0010159611701965e-05 -0.005172377452254295 -0.00915636494755745
v -5.0010159611701965e-05 -0.005276357755064964 -0.007922373712062836
v -5.0010159611701965e-05 -0.005276357755064964 -0.007922373712062836
v -5.0010159611701965e-05 -0.00636366568505764 -0.008370716124773026
v -5.0010159611701965e-05 -0.00636366568505764 -0.008370716124773026
v -5.0010159611701965e-05 -0.0063478704541921616 -0.007091604173183441
v -5.0010159611701965e-05 -0.0063478704541921616 -0.007091604173183441
v -5.0010159611701965e-05 -0.00743476115167141 -0.007434803992509842
v -5.0010159611701965e-05 -0.00743476115167141 -0.007434803992509842
v -5.0010159611701965e-05 -0.007289683446288109 -0.006119634956121445
v -5.0010159611701965e-05 -0.007289683446288109 -0.006119634956121445
v -5.0010159611701965e-05 -0.008277183398604393 -0.006484765559434891
v -5.0010159611701965e-05 -0.008277183398604393 -0.006484765559434891
v -5.0010159611701965e-05 -0.008277183398604393 -0.006484765559434891
v -5.0010159611701965e-05 -0.008075660094618797 -0.0050391145050525665
v -5.0010159611701965e-05 -0.008075660094618797 -0.0050391145050525665
v -5.0010159611701965e-05 -0.008075660094618797 -0.0050391145050525665
v -5.0010159611701965e-05 -0.009067779406905174 -0.0053258128464221954
v -5.0010159611701965e-05 -0.009067779406905174 -0.0053258128464221954
v -5.0010159611701965e-05 -0.009067779406905174 -0.0053258128464221954
v -5.0010159611701965e-05 -0.009067779406905174 -0.0053258128464221954
v -5.0010159611701965e-05 -0.00869826041162014 -0.0038691351655870676
v -5.0010159611701965e-05 -0.00869826041162014 -0.0038691351655870676
v -5.0010159611701965e-05 -0.00869826041162014 -0.0038691351655870676
v -5.0010159611701965e-05 -0.009692972525954247 -0.0040813349187374115
v -5.0010159611701965e-05 -0.009692972525954247 -0.0040813349187374115
v -5.0010159611701965e-05 -0.009692972525954247 -0.0040813349187374115
v -5.0010159611701965e-05 -0.009149258956313133 -0.002631142968311906
v -5.0010159611701965e-05 -0.009149258956313133 -0.002631142968311906
v -5.0010159611701965e-05 -0.010145371779799461 -0.0027713964227586985
v -5.0010159611701965e-05 -0.010145371779799461 -0.0027713964227586985
v -5.0010159611701965e-05 -0.009423470124602318 -0.0013435148866847157
v -5.0010159611701965e-05 -0.009423470124602318 -0.0013435148866847157
v -5.0010159611701965e-05 -0.010420268401503563 -0.0014133640797808766
v -5.0010159611701965e-05 -0.010420268401503563 -0.0014133640797808766
v -5.0010159611701965e-05 -0.009517675265669823 -2.4374225304768515e-08
v -5.0010159611701965e-05 -0.009517675265669823 -2.4374225304768515e-08
v -5.0010159611701965e-05 -0.010514473542571068 -2.4374225304768515e-08
v -5.0010159611701965e-05 -0.010514473542571068 -2.4374225304768515e-08
v -5.0010159611701965e-05 -0.010514473542571068 -2.4374225304768515e-08
v -5.0010159611701965e-05 -0.009454762563109398 0.0010995062766596675
v -5.0010159611701965e-05 -0.009454762563109398 0.0010995062766596675
v -5.0010159611701965e-05 -0.009454762563109398 0.0010995062766596675
v -5.0010159611701965e-05 -0.009454762563109398 0.0010995062766596675
v -5.0010159611701965e-05 -0.010495459660887718 0.0006367953610606492
v -5.0010159611701965e-05 -0.010495459660887718 0.0006367953610606492
v -5.0010159611701965e-05 -0.010495459660887718 0.0006367953610606492
v -5.0010159611701965e-05 -0.010495459660887718 0.0006367953610606492
v -5.0010159611701965e-05 -0.009201860055327415 0.002440554788336158
v -5.0010159611701965e-05 -0.009201860055327415 0.002440554788336158
v -5.0010159611701965e-05 -0.009201860055327415 0.002440554788336158
v -5.0010159611701965e-05 -0.010312175378203392 0.002062475075945258
v -5.0010159611701965e-05 -0.010312175378203392 0.002062475075945258
v -5.0010159611701965e-05 -0.010312175378203392 0.002062475075945258
v -5.0010159611701965e-05 -0.00876007042825222 0.0037271154578775167
v -5.0010159611701965e-05 -0.00876007042825222 0.0037271154578775167
v -5.0010159611701965e-05 -0.00876007042825222 0.0037271154578775167
v -5.0010159611701965e-05 -0.00876007042825222 0.0037271154578775167
v -5.0010159611701965e-05 -0.009937768802046776 0.0034430453088134527
v -5.0010159611701965e-05 -0.009937768802046776 0.0034430453088134527
v -5.0010159611701965e-05 -0.009937768802046776 0.0034430453088134527
v -5.0010159611701965e-05 -0.009379064664244652 0.004757625982165337
v -5.0010159611701965e-05 -0.009379064664244652 0.004757625982165337
v -5.0010159611701965e-05 -0.009379064664244652 0.004757625982165337
v -5.0010159611701965e-05 -0.009379064664244652 0.004757625982165337
v -5.0010159611701965e-05 -0.008139168843626976 0.004936015233397484
v -5.0010159611701965e-05 -0.008139168843626976 0.004936015233397484
v -5.0010159611701965e-05 -0.008139168843626976 0.004936015233397484
v -5.0010159611701965e-05 -0.008139168843626976 0.004936015233397484
v -5.0010159611701965e-05 -0.00864717923104763 0.005983276292681694
v -5.0010159611701965e-05 -0.00864717923104763 0.005983276292681694
v -5.0010159611701965e-05 -0.00864717923104763 0.005983276292681694
v -5.0010159611701965e-05 -0.00864717923104763 0.005983276292681694
v -5.0010159611701965e-05 -0.007353579625487328 0.006042756140232086
v -5.0010159611701965e-05 -0.007353579625487328 0.006042756140232086
v -5.0010159611701965e-05 -0.007353579625487328 0.006042756140232086
v -5.0010159611701965e-05 -0.007353579625487328 0.006042756140232086
v -5.0010159611701965e-05 -0.007758354768157005 0.007096625864505768
v -5.0010159611701965e-05 -0.007758354768157005 0.007096625864505768
v -5.0010159611701965e-05 -0.007758354768157005 0.007096625864505768
v -5.0010159611701965e-05 -0.006421362981200218 0.007025046274065971
v -5.0010159611701965e-05 -0.006421362981200218 0.007025046274065971
v -5.0010159611701965e-05 -0.006421362981200218 0.007025046274065971
v -5.0010159611701965e-05 -0.006421362981200218 0.007025046274065971
v -5.0010159611701965e-05 -0.006729578599333763 0.008079085499048233
v -5.0010159611701965e-05 -0.006729578599333763 0.008079085499048233
v -5.0010159611701965e-05 -0.006729578599333763 0.008079085499048233
v -5.0010159611701965e-05 -0.005371963605284691 0.007857656106352806
v -5.0010159611701965e-05 -0.005371963605284691 0.007857656106352806
v -5.0010159611701965e-05 -0.005371963605284691 0.007857656106352806
v -5.0010159611701965e-05 -0.0055925603955984116 0.008905325084924698
v -5.0010159611701965e-05 -0.0055925603955984116 0.008905325084924698
v -5.0010159611701965e-05 -0.0055925603955984116 0.008905325084924698
v -5.0010159611701965e-05 -0.004226481541991234 0.008530056104063988
v -5.0010159611701965e-05 -0.004226481541991234 0.008530056104063988
v -5.0010159611701965e-05 -0.004226481541991234 0.008530056104063988
v -5.0010159611701965e-05 -0.004365360364317894 0.009568195790052414
v -5.0010159611701965e-05 -0.004365360364317894 0.009568195790052414
v -5.0010159611701965e-05 -0.004365360364317894 0.009568195790052414
v -5.0010159611701965e-05 -0.004365360364317894 0.009568195790052414
v -5.0010159611701965e-05 -0.0030066724866628647 0.009032946079969406
v -5.0010159611701965e-05 -0.0030066724866628647 0.009032946079969406
v -5.0010159611701965e-05 -0.0030066724866628647 0.009032946079969406
v -5.0010159611701965e-05 -0.0030066724866628647 0.009032946079969406
v -5.0010159611701965e-05 -0.0030684825032949448 0.01005963608622551
v -5.0010159611701965e-05 -0.0030684825032949448 0.01005963608622551
v -5.0010159611701965e-05 -0.0030684825032949448 0.01005963608622551
v -5.0010159611701965e-05 -0.0030684825032949448 0.01005963608622551
v -5.0010159611701965e-05 -0.0017321761697530746 0.009360356256365776
v -5.0010159611701965e-05 -0.0017321761697530746 0.009360356256365776
v -5.0010159611701965e-05 -0.0017321761697530746 0.009360356256365776
v -5.0010159611701965e-05 -0.0017321761697530746 0.009360356256365776
v -5.0010159611701965e-05 -0.0017198678106069565 0.010374465957283974
v -5.0010159611701965e-05 -0.0017198678106069565 0.010374465957283974
v -5.0010159611701965e-05 -0.0017198678106069565 0.010374465957283974
v -5.0010159611701965e-05 -0.0004037673934362829 0.009509185329079628
v -5.0010159611701965e-05 -0.0004037673934362829 0.009509185329079628
v -5.0010159611701965e-05 -0.0004037673934362829 0.009509185329079628
v -5.0010159611701965e-05 0.00013502877845894545 0.009516695514321327
v -5.0010159611701965e-05 0.00013502877845894545 0.009516695514321327
v -5.0010159611701965e-05 0.009937727823853493 -0.0034430252853780985
v -5.0010159611701965e-05 0.009937727823853493 -0.0034430252853780985
v -5.0010159611701965e-05 0.009937727823853493 -0.0034430252853780985
v -5.0010159611701965e-05 0.009379023686051369 -0.004757605493068695
v -5.0010159611701965e-05 0.009379023686051369 -0.004757605493068695
v -5.0010159611701965e-05 0.009379023686051369 -0.004757605493068695
v -5.0010159611701965e-05 0.008139217272400856 -0.004936005920171738
v -5.0010159611701965e-05 0.008139217272400856 -0.004936005920171738
v -5.0010159611701965e-05 0.008139217272400856 -0.004936005920171738
v -5.0010159611701965e-05 0.008139217272400856 -0.004936005920171738
v -5.0010159611701965e-05 0.00864722765982151 -0.005983315408229828
v -5.0010159611701965e-05 0.00864722765982151 -0.005983315408229828
v -5.0010159611701965e-05 0.00864722765982151 -0.005983315408229828
v -5.0010159611701965e-05 0.00864722765982151 -0.005983315408229828
v -5.0010159611701965e-05 0.007353628054261208 -0.006042744964361191
v -5.0010159611701965e-05 0.007353628054261208 -0.006042744964361191
v -5.0010159611701965e-05 0.007353628054261208 -0.006042744964361191
v -5.0010159611701965e-05 0.007353628054261208 -0.006042744964361191
v -5.0010159611701965e-05 0.00775834359228611 -0.0070966146886348724
v -5.0010159611701965e-05 0.00775834359228611 -0.0070966146886348724
v -5.0010159611701965e-05 0.00775834359228611 -0.0070966146886348724
v -5.0010159611701965e-05 0.006421322003006935 -0.007025085389614105
v -5.0010159611701965e-05 0.006421322003006935 -0.007025085389614105
v -5.0010159611701965e-05 0.006421322003006935 -0.007025085389614105
v -5.0010159611701965e-05 0.006421322003006935 -0.007025085389614105
v -5.0010159611701965e-05 0.00672953762114048 -0.008079074323177338
v -5.0010159611701965e-05 0.00672953762114048 -0.008079074323177338
v -5.0010159611701965e-05 0.00672953762114048 -0.008079074323177338
v -5.0010159611701965e-05 0.00672953762114048 -0.008079074323177338
v -5.0010159611701965e-05 0.0053720418363809586 -0.007857702672481537
v -5.0010159611701965e-05 0.0053720418363809586 -0.007857702672481537
v -5.0010159611701965e-05 0.0053720418363809586 -0.007857702672481537
v -5.0010159611701965e-05 0.0053720418363809586 -0.007857702672481537
v -5.0010159611701965e-05 0.005592638626694679 -0.008905313909053802
v -5.0010159611701965e-05 0.005592638626694679 -0.008905313909053802
v -5.0010159611701965e-05 0.005592638626694679 -0.008905313909053802
v -5.0010159611701965e-05 0.005592638626694679 -0.008905313909053802
v -5.0010159611701965e-05 0.004226440563797951 -0.008530043065547943
v -5.0010159611701965e-05 0.004226440563797951 -0.008530043065547943
v -5.0010159611701965e-05 0.004226440563797951 -0.008530043065547943
v -5.0010159611701965e-05 0.004365438595414162 -0.009568173438310623
v -5.0010159611701965e-05 0.004365438595414162 -0.009568173438310623
v -5.0010159611701965e-05 0.004365438595414162 -0.009568173438310623
v -5.0010159611701965e-05 0.004365438595414162 -0.009568173438310623
v -5.0010159611701965e-05 0.0030067209154367447 -0.009032923728227615
v -5.0010159611701965e-05 0.0030067209154367447 -0.009032923728227615
v -5.0010159611701965e-05 0.0030067209154367447 -0.009032923728227615
v -5.0010159611701965e-05 0.0030067209154367447 -0.009032923728227615
v -5.0010159611701965e-05 0.0030685309320688248 -0.010059613734483719
v -5.0010159611701965e-05 0.0030685309320688248 -0.010059613734483719
v -5.0010159611701965e-05 0.0030685309320688248 -0.010059613734483719
v -5.0010159611701965e-05 0.0030685309320688248 -0.010059613734483719
v -5.0010159611701965e-05 0.0017321351915597916 -0.009360335767269135
v -5.0010159611701965e-05 0.0017321351915597916 -0.009360335767269135
v -5.0010159611701965e-05 0.0017321351915597916 -0.009360335767269135
v -5.0010159611701965e-05 0.0017321351915597916 -0.009360335767269135
v -5.0010159611701965e-05 0.0017199162393808365 -0.010374445468187332
v -5.0010159611701965e-05 0.0017199162393808365 -0.010374445468187332
v -5.0010159611701965e-05 0.0017199162393808365 -0.010374445468187332
v -5.0010159611701965e-05 0.0017199162393808365 -0.010374445468187332
v -5.0010159611701965e-05 0.0004037265316583216 -0.009509164839982986
v -5.0010159611701965e-05 0.0004037265316583216 -0.009509164839982986
v -5.0010159611701965e-05 0.0004037265316583216 -0.009509164839982986
v -5.0010159611701965e-05 0.0004037265316583216 -0.009509164839982986
v -5.0010159611701965e-05 -0.00013506966934073716 -0.009516675025224686
v -5.0010159611701965e-05 -0.00013506966934073716 -0.009516675025224686
f 1 6 9
f 10 14 16
f 18 22 26
f 25 23 29
f 26 27 31
f 31 27 33
f 31 33 38
f 37 32 39
f 12 15 45
f 46 16 48
f 47 50 52
f 53 48 55
f 53 55 56
f 56 55 58
f 56 58 61
f 61 58 63
f 60 64 68
f 67 63 71
f 66 72 74
f 73 71 77
f 73 77 78
f 78 77 82
f 78 82 85
f 83 80 88
f 86 87 92
f 91 89 98
f 94 97 102
f 100 95 106
f 101 105 20
f 18 104 107
f 18 107 22
f 112 116 117
f 119 113 121
f 117 122 123
f 123 122 126
f 123 126 128
f 129 127 132
f 2 7 138
f 140 9 141
f 139 142 146
f 144 141 147
f 144 147 151
f 151 147 152
f 151 152 155
f 155 152 156
f 155 156 159
f 159 156 160
f 159 160 162
f 162 160 164
f 162 164 168
f 168 164 169
f 166 170 172
f 173 169 176
f 174 178 180
f 181 176 183
f 181 183 186
f 186 183 187
f 184 188 110
f 112 187 190
f 109 192 114
f 6 1 193
f 195 4 197
f 196 200 202
f 203 199 204
f 203 204 208
f 208 204 209
f 207 211 214
f 216 212 219
f 213 217 221
f 221 217 222
f 221 222 224
f 224 222 226
f 224 226 230
f 229 227 232
f 230 235 42
f 40 234 239
f 41 238 36
f 14 10 241
f 241 10 243
f 240 244 248
f 249 245 252
f 250 253 255
f 255 253 259
f 254 258 264
f 261 257 267
f 263 265 268
f 268 265 271
f 268 271 273
f 273 271 275
f 273 275 278
f 279 274 280
f 278 283 135
f 134 281 287
f 136 285 130
f 289 293 294
f 296 300 304
f 294 293 305
f 306 292 309
f 305 308 311
f 304 300 313
f 315 299 316
f 313 318 320
f 294 324 289
f 288 323 327
f 289 326 329
f 331 328 334
f 329 332 335
f 335 332 338
f 335 338 341
f 340 337 343
f 341 346 349
f 347 344 350
f 349 352 356
f 354 353 359
f 356 358 360
f 360 358 362
f 360 362 365
f 365 362 367
f 365 367 370
f 370 367 371
f 370 371 373
f 373 371 377
f 373 377 378
f 380 375 384
f 378 383 387
f 303 389 298
f 296 388 391
f 296 391 394
f 394 391 395
f 394 395 398
f 398 395 400
f 398 400 401
f 401 400 405
f 401 405 408
f 407 403 411
f 408 410 414
f 413 412 416
f 414 418 419
f 419 418 421
f 419 421 423
f 423 421 426
f 423 426 428
f 428 426 430
f 428 430 432
f 433 431 438
f 435 439 442
f 440 436 445
f 440 445 446
f 444 450 449
f 446 452 456
f 448 454 460
f 459 455 464
f 458 462 465
f 468 463 469
f 466 470 472
f 475 469 478
f 474 477 481
f 480 478 484
f 480 484 486
f 485 482 488
f 486 490 495
f 494 491 497
f 493 498 502
f 503 499 506
f 501 504 508
f 508 504 311
f 508 311 510
f 510 311 308
f 382 512 385
f 387 513 515
f 387 515 518
f 521 517 524
f 520 523 528
f 526 525 530
f 527 532 533
f 534 530 538
f 535 537 541
f 544 540 545
f 543 548 550
f 549 546 552
f 550 553 557
f 559 555 563
f 556 562 567
f 566 561 571
f 565 570 573
f 572 569 319
f 573 320 577
f 577 320 318
f 59 429 425
f 59 425 65
f 65 425 422
f 65 422 70
f 70 422 417
f 70 417 76
f 76 417 409
f 76 409 81
f 81 409 404
f 81 404 90
f 90 404 399
f 90 399 96
f 96 399 396
f 96 396 103
f 103 396 392
f 103 392 108
f 108 392 390
f 108 390 21
f 21 390 302
f 21 302 28
f 28 302 314
f 28 314 34
f 34 314 321
f 34 321 43
f 43 321 568
f 43 568 231
f 231 568 560
f 231 560 225
f 225 560 554
f 225 554 220
f 220 554 547
f 220 547 215
f 215 547 539
f 215 539 206
f 206 539 531
f 206 531 201
f 201 531 522
f 201 522 194
f 194 522 516
f 194 516 5
f 5 516 514
f 5 514 8
f 8 514 381
f 8 381 143
f 143 381 376
f 143 376 148
f 148 376 372
f 148 372 153
f 153 372 366
f 153 366 157
f 157 366 363
f 157 363 161
f 161 363 357
f 161 357 165
f 165 357 351
f 165 351 171
f 171 351 345
f 171 345 177
f 177 345 339
f 177 339 182
f 182 339 333
f 182 333 189
f 189 333 325
f 189 325 191
f 191 325 322
f 191 322 115
f 115 322 295
f 115 295 120
f 120 295 307
f 120 307 125
f 125 307 312
f 125 312 133
f 133 312 505
f 133 505 277
f 277 505 496
f 277 496 272
f 272 496 489
f 272 489 269
f 269 489 483
f 269 483 262
f 262 483 476
f 262 476 256
f 256 476 471
f 256 471 247
f 247 471 461
f 247 461 242
f 242 461 453
f 242 453 13
f 13 453 451
f 13 451 17
f 17 451 443
f 17 443 49
f 49 443 437
f 49 437 54
f 54 437 429
f 54 429 59
f 149 368 374
f 149 374 145
f 145 374 379
f 145 379 137
f 137 379 386
f 137 386 3
f 3 386 519
f 3 519 198
f 198 519 529
f 198 529 205
f 205 529 536
f 205 536 210
f 210 536 542
f 210 542 218
f 218 542 551
f 218 551 223
f 223 551 558
f 223 558 228
f 228 558 564
f 228 564 233
f 233 564 574
f 233 574 236
f 237 575 576
f 237 576 35
f 35 576 317
f 35 317 30
f 30 317 301
f 30 301 24
f 24 301 297
f 24 297 19
f 19 297 393
f 19 393 99
f 99 393 397
f 99 397 93
f 93 397 402
f 93 402 84
f 84 402 406
f 84 406 79
f 79 406 415
f 79 415 75
f 75 415 420
f 75 420 69
f 69 420 424
f 69 424 62
f 62 424 427
f 62 427 57
f 57 427 434
f 57 434 51
f 51 434 441
f 51 441 44
f 44 441 447
f 44 447 11
f 11 447 457
f 11 457 246
f 246 457 467
f 246 467 251
f 251 467 473
f 251 473 260
f 260 473 479
f 260 479 266
f 266 479 487
f 266 487 270
f 270 487 492
f 270 492 276
f 276 492 500
f 276 500 282
f 282 500 507
f 282 507 284
f 286 509 511
f 286 511 131
f 131 511 310
f 131 310 124
f 124 310 291
f 124 291 118
f 118 291 290
f 118 290 111
f 111 290 330
f 111 330 185
f 185 330 336
f 185 336 179
f 179 336 342
f 179 342 175
f 175 342 348
f 175 348 167
f 167 348 355
f 167 355 163
f 163 355 361
f 163 361 158
f 158 361 364
f 158 364 154
f 154 364 369
f 154 369 150
