mtllib converted_link2_7_969696ff.mtl
usemtl material
v -5.0010159611701965e-05 0.004095250274986029 -0.008593939244747162
v -5.0010159611701965e-05 0.004095250274986029 -0.008593939244747162
v -5.0010159611701965e-05 0.004095250274986029 -0.008593939244747162
v -5.0010159611701965e-05 0.003884428646415472 -0.009773578494787216
v -5.0010159611701965e-05 0.003884428646415472 -0.009773578494787216
v -5.0010159611701965e-05 0.003884428646415472 -0.009773578494787216
v -5.0010159611701965e-05 0.002829247619956732 -0.009090028703212738
v -5.0010159611701965e-05 0.002829247619956732 -0.009090028703212738
v -5.0010159611701965e-05 0.002829247619956732 -0.009090028703212738
v -5.0010159611701965e-05 0.0025232373736798763 -0.010209709405899048
v -5.0010159611701965e-05 0.0025232373736798763 -0.010209709405899048
v -5.0010159611701965e-05 0.0025232373736798763 -0.010209709405899048
v -5.0010159611701965e-05 0.001502030878327787 -0.009399738162755966
v -5.0010159611701965e-05 0.001502030878327787 -0.009399738162755966
v -5.0010159611701965e-05 0.0011102495482191443 -0.010456528514623642
v -5.0010159611701965e-05 0.0011102495482191443 -0.010456528514623642
v -5.0010159611701965e-05 0.0011102495482191443 -0.010456528514623642
v -5.0010159611701965e-05 0.00013502821093425155 -0.009516678750514984
v -5.0010159611701965e-05 0.00013502821093425155 -0.009516678750514984
v -5.0010159611701965e-05 0.00013502821093425155 -0.009516678750514984
v -5.0010159611701965e-05 -0.00031257286900654435 -0.010509878396987915
v -5.0010159611701965e-05 -0.00031257286900654435 -0.010509878396987915
v -5.0010159611701965e-05 -0.00031257286900654435 -0.010509878396987915
v -5.0010159611701965e-05 -0.00031257286900654435 -0.010509878396987915
v -5.0010159611701965e-05 -0.00031257286900654435 -0.010509878396987915
v -5.0010159611701965e-05 -0.000403767975512892 -0.009509168565273285
v -5.0010159611701965e-05 -0.000403767975512892 -0.009509168565273285
v -5.0010159611701965e-05 -0.000403767975512892 -0.009509168565273285
v -5.0010159611701965e-05 0.008760147728025913 0.0037271121982485056
v -5.0010159611701965e-05 0.008760147728025913 0.0037271121982485056
v -5.0010159611701965e-05 0.008760147728025913 0.0037271121982485056
v -5.0010159611701965e-05 0.009379022754728794 0.004757622256875038
v -5.0010159611701965e-05 0.009379022754728794 0.004757622256875038
v -5.0010159611701965e-05 0.009937726892530918 0.0034430420491844416
v -5.0010159611701965e-05 0.009937726892530918 0.0034430420491844416
v -5.0010159611701965e-05 0.009937726892530918 0.0034430420491844416
v -5.0010159611701965e-05 -0.0017322661587968469 -0.009360339492559433
v -5.0010159611701965e-05 -0.0017322661587968469 -0.009360339492559433
v -5.0010159611701965e-05 -0.0017322661587968469 -0.009360339492559433
v -5.0010159611701965e-05 -0.0017322661587968469 -0.009360339492559433
v -5.0010159611701965e-05 -0.0017199577996507287 -0.01037444919347763
v -5.0010159611701965e-05 -0.0017199577996507287 -0.01037444919347763
v -5.0010159611701965e-05 -0.0017199577996507287 -0.01037444919347763
v -5.0010159611701965e-05 -0.0017199577996507287 -0.01037444919347763
v -5.0010159611701965e-05 -0.003006672952324152 -0.009032927453517914
v -5.0010159611701965e-05 -0.003006672952324152 -0.009032927453517914
v -5.0010159611701965e-05 -0.003006672952324152 -0.009032927453517914
v -5.0010159611701965e-05 -0.0030684531666338444 -0.010059617459774017
v -5.0010159611701965e-05 -0.0030684531666338444 -0.010059617459774017
v -5.0010159611701965e-05 -0.0030684531666338444 -0.010059617459774017
v -5.0010159611701965e-05 -0.0042264522053301334 -0.008530046790838242
v -5.0010159611701965e-05 -0.0042264522053301334 -0.008530046790838242
v -5.0010159611701965e-05 -0.004365450236946344 -0.009568177163600922
v -5.0010159611701965e-05 -0.004365450236946344 -0.009568177163600922
v -5.0010159611701965e-05 -0.005372053477913141 -0.007857706397771835
v -5.0010159611701965e-05 -0.005372053477913141 -0.007857706397771835
v -5.0010159611701965e-05 -0.005372053477913141 -0.007857706397771835
v -5.0010159611701965e-05 -0.005592650268226862 -0.008905317634344101
v -5.0010159611701965e-05 -0.005592650268226862 -0.008905317634344101
v -5.0010159611701965e-05 -0.005592650268226862 -0.008905317634344101
v -5.0010159611701965e-05 -0.005592650268226862 -0.008905317634344101
v -5.0010159611701965e-05 -0.0064213634468615055 -0.007025089114904404
v -5.0010159611701965e-05 -0.0064213634468615055 -0.007025089114904404
v -5.0010159611701965e-05 -0.0064213634468615055 -0.007025089114904404
v -5.0010159611701965e-05 -0.0064213634468615055 -0.007025089114904404
v -5.0010159611701965e-05 -0.006729549262672663 -0.008079078048467636
v -5.0010159611701965e-05 -0.006729549262672663 -0.008079078048467636
v -5.0010159611701965e-05 -0.006729549262672663 -0.008079078048467636
v -5.0010159611701965e-05 -0.007353550288826227 -0.006042748689651489
v -5.0010159611701965e-05 -0.007353550288826227 -0.006042748689651489
v -5.0010159611701965e-05 -0.007758355233818293 -0.007096618413925171
v -5.0010159611701965e-05 -0.007758355233818293 -0.007096618413925171
v -5.0010159611701965e-05 -0.007758355233818293 -0.007096618413925171
v -5.0010159611701965e-05 -0.008139259181916714 -0.004936009645462036
v -5.0010159611701965e-05 -0.008139259181916714 -0.004936009645462036
v -5.0010159611701965e-05 -0.008139259181916714 -0.004936009645462036
v -5.0010159611701965e-05 -0.008647150360047817 -0.005983319133520126
v -5.0010159611701965e-05 -0.008647150360047817 -0.005983319133520126
v -5.0010159611701965e-05 -0.008647150360047817 -0.005983319133520126
v -5.0010159611701965e-05 -0.008760160766541958 -0.0037271564360708
v -5.0010159611701965e-05 -0.008760160766541958 -0.0037271564360708
v -5.0010159611701965e-05 -0.008760160766541958 -0.0037271564360708
v -5.0010159611701965e-05 0.009201728738844395 0.0024405515287071466
v -5.0010159611701965e-05 0.009201728738844395 0.0024405515287071466
v -5.0010159611701965e-05 0.009201728738844395 0.0024405515287071466
v -5.0010159611701965e-05 0.009201728738844395 0.0024405515287071466
v -5.0010159611701965e-05 0.010312222875654697 0.002062471816316247
v -5.0010159611701965e-05 0.010312222875654697 0.002062471816316247
v -5.0010159611701965e-05 0.010312222875654697 0.002062471816316247
v -5.0010159611701965e-05 0.009454839862883091 0.0010995029006153345
v -5.0010159611701965e-05 0.009454839862883091 0.0010995029006153345
v -5.0010159611701965e-05 0.009454839862883091 0.0010995029006153345
v -5.0010159611701965e-05 0.010495447553694248 0.0006367919850163162
v -5.0010159611701965e-05 0.010495447553694248 0.0006367919850163162
v -5.0010159611701965e-05 0.009517633356153965 -2.775153262746244e-08
v -5.0010159611701965e-05 0.009517633356153965 -2.775153262746244e-08
v -5.0010159611701965e-05 0.009517633356153965 -2.775153262746244e-08
v -5.0010159611701965e-05 0.01051443163305521 -2.775153262746244e-08
v -5.0010159611701965e-05 0.01051443163305521 -2.775153262746244e-08
v -5.0010159611701965e-05 0.009423547424376011 -0.0013435182627290487
v -5.0010159611701965e-05 0.009423547424376011 -0.0013435182627290487
v -5.0010159611701965e-05 0.009423547424376011 -0.0013435182627290487
v -5.0010159611701965e-05 0.010420226491987705 -0.0014133674558252096
v -5.0010159611701965e-05 0.010420226491987705 -0.0014133674558252096
v -5.0010159611701965e-05 0.010420226491987705 -0.0014133674558252096
v -5.0010159611701965e-05 0.009149246849119663 -0.002631146227940917
v -5.0010159611701965e-05 0.009149246849119663 -0.002631146227940917
v -5.0010159611701965e-05 0.009149246849119663 -0.002631146227940917
v -5.0010159611701965e-05 0.009149246849119663 -0.002631146227940917
v -5.0010159611701965e-05 0.010145329870283604 -0.0027713996823877096
v -5.0010159611701965e-05 0.010145329870283604 -0.0027713996823877096
v -5.0010159611701965e-05 0.010145329870283604 -0.0027713996823877096
v -5.0010159611701965e-05 0.00869824830442667 -0.0038691384252160788
v -5.0010159611701965e-05 0.00869824830442667 -0.0038691384252160788
v -5.0010159611701965e-05 0.00869824830442667 -0.0038691384252160788
v -5.0010159611701965e-05 0.009692930616438389 -0.00408133864402771
v -5.0010159611701965e-05 0.009692930616438389 -0.00408133864402771
v -5.0010159611701965e-05 0.008075647987425327 -0.005039118230342865
v -5.0010159611701965e-05 0.008075647987425327 -0.005039118230342865
v -5.0010159611701965e-05 0.00906782690435648 -0.005325816571712494
v -5.0010159611701965e-05 0.00906782690435648 -0.005325816571712494
v -5.0010159611701965e-05 0.00906782690435648 -0.005325816571712494
v -5.0010159611701965e-05 0.0072896420024335384 -0.006119638681411743
v -5.0010159611701965e-05 0.0072896420024335384 -0.006119638681411743
v -5.0010159611701965e-05 0.0072896420024335384 -0.006119638681411743
v -5.0010159611701965e-05 0.0072896420024335384 -0.006119638681411743
v -5.0010159611701965e-05 0.008277141489088535 -0.006484769284725189
v -5.0010159611701965e-05 0.008277141489088535 -0.006484769284725189
v -5.0010159611701965e-05 0.008277141489088535 -0.006484769284725189
v -5.0010159611701965e-05 0.008277141489088535 -0.006484769284725189
v -5.0010159611701965e-05 0.006347948219627142 -0.00709160789847374
v -5.0010159611701965e-05 0.006347948219627142 -0.00709160789847374
v -5.0010159611701965e-05 0.006347948219627142 -0.00709160789847374
v -5.0010159611701965e-05 0.006347948219627142 -0.00709160789847374
v -5.0010159611701965e-05 0.00743483891710639 -0.00743480771780014
v -5.0010159611701965e-05 0.00743483891710639 -0.00743480771780014
v -5.0010159611701965e-05 0.00743483891710639 -0.00743480771780014
v -5.0010159611701965e-05 0.00743483891710639 -0.00743480771780014
v -5.0010159611701965e-05 0.005276346113532782 -0.007922377437353134
v -5.0010159611701965e-05 0.005276346113532782 -0.007922377437353134
v -5.0010159611701965e-05 0.005276346113532782 -0.007922377437353134
v -5.0010159611701965e-05 0.005276346113532782 -0.007922377437353134
v -5.0010159611701965e-05 0.00636362424120307 -0.008370719850063324
v -5.0010159611701965e-05 0.00636362424120307 -0.008370719850063324
v -5.0010159611701965e-05 0.00636362424120307 -0.008370719850063324
v -5.0010159611701965e-05 0.00636362424120307 -0.008370719850063324
v -5.0010159611701965e-05 0.005172336008399725 -0.009156368672847748
v -5.0010159611701965e-05 0.005172336008399725 -0.009156368672847748
v -5.0010159611701965e-05 -0.004095262382179499 0.008593952283263206
v -5.0010159611701965e-05 -0.004095262382179499 0.008593952283263206
v -5.0010159611701965e-05 -0.004095262382179499 0.008593952283263206
v -5.0010159611701965e-05 -0.004095262382179499 0.008593952283263206
v -5.0010159611701965e-05 -0.0038844705559313297 0.00977359153330326
v -5.0010159611701965e-05 -0.0038844705559313297 0.00977359153330326
v -5.0010159611701965e-05 -0.0038844705559313297 0.00977359153330326
v -5.0010159611701965e-05 -0.0038844705559313297 0.00977359153330326
v -5.0010159611701965e-05 -0.0028291703201830387 0.009090041741728783
v -5.0010159611701965e-05 -0.0028291703201830387 0.009090041741728783
v -5.0010159611701965e-05 -0.0028291703201830387 0.009090041741728783
v -5.0010159611701965e-05 -0.0025231600739061832 0.010209711268544197
v -5.0010159611701965e-05 -0.0025231600739061832 0.010209711268544197
v -5.0010159611701965e-05 -0.0025231600739061832 0.010209711268544197
v -5.0010159611701965e-05 -0.0015020730206742883 0.009399741888046265
v -5.0010159611701965e-05 -0.0015020730206742883 0.009399741888046265
v -5.0010159611701965e-05 -0.001110261888243258 0.010456541553139687
v -5.0010159611701965e-05 -0.001110261888243258 0.010456541553139687
v -5.0010159611701965e-05 -0.001110261888243258 0.010456541553139687
v -5.0010159611701965e-05 -0.00013507023686543107 0.009516691789031029
v -5.0010159611701965e-05 -0.00013507023686543107 0.009516691789031029
v -5.0010159611701965e-05 -0.00013507023686543107 0.009516691789031029
v -5.0010159611701965e-05 -0.00013507023686543107 0.009516691789031029
v -5.0010159611701965e-05 0.0003126500523649156 0.010509882122278214
v -5.0010159611701965e-05 0.0003126500523649156 0.010509882122278214
v -5.0010159611701965e-05 0.0003126500523649156 0.010509882122278214
v -5.0010159611701965e-05 0.0003126500523649156 0.010509882122278214
v -5.0010159611701965e-05 0.0003126500523649156 0.010509882122278214
v -5.0010159611701965e-05 -0.009379065595567226 -0.0047576092183589935
v -5.0010159611701965e-05 -0.009379065595567226 -0.0047576092183589935
v -5.0010159611701965e-05 -0.00993776973336935 -0.0034430285450071096
v -5.0010159611701965e-05 -0.00993776973336935 -0.0034430285450071096
v -5.0010159611701965e-05 -0.00993776973336935 -0.0034430285450071096
v -5.0010159611701965e-05 -0.009201771579682827 -0.0024405380245298147
v -5.0010159611701965e-05 -0.009201771579682827 -0.0024405380245298147
v -5.0010159611701965e-05 -0.009201771579682827 -0.0024405380245298147
v -5.0010159611701965e-05 -0.009201771579682827 -0.0024405380245298147
v -5.0010159611701965e-05 -0.01031226571649313 -0.002062467625364661
v -5.0010159611701965e-05 -0.01031226571649313 -0.002062467625364661
v -5.0010159611701965e-05 -0.01031226571649313 -0.002062467625364661
v -5.0010159611701965e-05 -0.009454763494431973 -0.0010994875337928534
v -5.0010159611701965e-05 -0.009454763494431973 -0.0010994875337928534
v -5.0010159611701965e-05 -0.009454763494431973 -0.0010994875337928534
v -5.0010159611701965e-05 -0.010495460592210293 -0.0006368382018990815
v -5.0010159611701965e-05 -0.010495460592210293 -0.0006368382018990815
v -5.0010159611701965e-05 -0.009517556987702847 -2.775153262746244e-08
v -5.0010159611701965e-05 -0.009517556987702847 -2.775153262746244e-08
v -5.0010159611701965e-05 -0.010514474473893642 -2.775153262746244e-08
v -5.0010159611701965e-05 -0.010514474473893642 -2.775153262746244e-08
v -5.0010159611701965e-05 -0.009423560462892056 0.0013435224536806345
v -5.0010159611701965e-05 -0.009423560462892056 0.0013435224536806345
v -5.0010159611701965e-05 -0.010420269332826138 0.0014133828226476908
v -5.0010159611701965e-05 -0.010420269332826138 0.0014133828226476908
v -5.0010159611701965e-05 -0.009149259887635708 0.0026311019901186228
v -5.0010159611701965e-05 -0.009149259887635708 0.0026311019901186228
v -5.0010159611701965e-05 -0.010145372711122036 0.0027714113239198923
v -5.0010159611701965e-05 -0.010145372711122036 0.0027714113239198923
v -5.0010159611701965e-05 -0.008698261342942715 0.0038691519293934107
v -5.0010159611701965e-05 -0.008698261342942715 0.0038691519293934107
v -5.0010159611701965e-05 -0.009692973457276821 0.004081342369318008
v -5.0010159611701965e-05 -0.009692973457276821 0.004081342369318008
v -5.0010159611701965e-05 -0.008075661025941372 0.005039071664214134
v -5.0010159611701965e-05 -0.008075661025941372 0.005039071664214134
v -5.0010159611701965e-05 -0.008075661025941372 0.005039071664214134
v -5.0010159611701965e-05 -0.009067750535905361 0.005325831472873688
v -5.0010159611701965e-05 -0.009067750535905361 0.005325831472873688
v -5.0010159611701965e-05 -0.009067750535905361 0.005325831472873688
v -5.0010159611701965e-05 -0.0072896541096270084 0.006119642406702042
v -5.0010159611701965e-05 -0.0072896541096270084 0.006119642406702042
v -5.0010159611701965e-05 -0.0072896541096270084 0.006119642406702042
v -5.0010159611701965e-05 -0.0072896541096270084 0.006119642406702042
v -5.0010159611701965e-05 -0.008277065120637417 0.006484782323241234
v -5.0010159611701965e-05 -0.008277065120637417 0.006484782323241234
v -5.0010159611701965e-05 -0.008277065120637417 0.006484782323241234
v -5.0010159611701965e-05 -0.006347870919853449 0.007091611623764038
v -5.0010159611701965e-05 -0.006347870919853449 0.007091611623764038
v -5.0010159611701965e-05 -0.006347870919853449 0.007091611623764038
v -5.0010159611701965e-05 -0.00743485102429986 0.007434822618961334
v -5.0010159611701965e-05 -0.00743485102429986 0.007434822618961334
v -5.0010159611701965e-05 -0.005276358220726252 0.007922381162643433
v -5.0010159611701965e-05 -0.005276358220726252 0.007922381162643433
v -5.0010159611701965e-05 -0.005276358220726252 0.007922381162643433
v -5.0010159611701965e-05 -0.006363666150718927 0.00837073102593422
v -5.0010159611701965e-05 -0.006363666150718927 0.00837073102593422
v -5.0010159611701965e-05 -0.006363666150718927 0.00837073102593422
v -5.0010159611701965e-05 -0.005172258708626032 0.009156381711363792
v -5.0010159611701965e-05 -0.005172258708626032 0.009156381711363792
v -5.0010159611701965e-05 -0.005172258708626032 0.009156381711363792
v -5.0010159611701965e-05 0.008647137321531773 0.005983272567391396
v -5.0010159611701965e-05 0.008647137321531773 0.005983272567391396
v -5.0010159611701965e-05 0.008647137321531773 0.005983272567391396
v -5.0010159611701965e-05 0.008139246143400669 0.004936011508107185
v -5.0010159611701965e-05 0.008139246143400669 0.004936011508107185
v -5.0010159611701965e-05 0.008139246143400669 0.004936011508107185
v -5.0010159611701965e-05 0.008139246143400669 0.004936011508107185
v -5.0010159611701965e-05 0.007758432533591986 0.007096622139215469
v -5.0010159611701965e-05 0.007758432533591986 0.007096622139215469
v -5.0010159611701965e-05 0.007758432533591986 0.007096622139215469
v -5.0010159611701965e-05 0.007758432533591986 0.007096622139215469
v -5.0010159611701965e-05 0.007353538181632757 0.006042752414941788
v -5.0010159611701965e-05 0.007353538181632757 0.006042752414941788
v -5.0010159611701965e-05 0.007353538181632757 0.006042752414941788
v -5.0010159611701965e-05 0.006729537155479193 0.008079081773757935
v -5.0010159611701965e-05 0.006729537155479193 0.008079081773757935
v -5.0010159611701965e-05 0.006729537155479193 0.008079081773757935
v -5.0010159611701965e-05 0.006421440746635199 0.007025042548775673
v -5.0010159611701965e-05 0.006421440746635199 0.007025042548775673
v -5.0010159611701965e-05 0.006421440746635199 0.007025042548775673
v -5.0010159611701965e-05 0.006421440746635199 0.007025042548775673
v -5.0010159611701965e-05 0.005592638161033392 0.0089053213596344
v -5.0010159611701965e-05 0.005592638161033392 0.0089053213596344
v -5.0010159611701965e-05 0.005592638161033392 0.0089053213596344
v -5.0010159611701965e-05 0.005592638161033392 0.0089053213596344
v -5.0010159611701965e-05 0.005372041370719671 0.007857652381062508
v -5.0010159611701965e-05 0.005372041370719671 0.007857652381062508
v -5.0010159611701965e-05 0.005372041370719671 0.007857652381062508
v -5.0010159611701965e-05 0.004365438129752874 0.009568192064762115
v -5.0010159611701965e-05 0.004365438129752874 0.009568192064762115
v -5.0010159611701965e-05 0.0042264400981366634 0.00853005237877369
v -5.0010159611701965e-05 0.0042264400981366634 0.00853005237877369
v -5.0010159611701965e-05 0.0030684410594403744 0.010059632360935211
v -5.0010159611701965e-05 0.0030684410594403744 0.010059632360935211
v -5.0010159611701965e-05 0.003006750252097845 0.009032942354679108
v -5.0010159611701965e-05 0.003006750252097845 0.009032942354679108
v -5.0010159611701965e-05 0.003006750252097845 0.009032942354679108
v -5.0010159611701965e-05 0.001719945459626615 0.010374462231993675
v -5.0010159611701965e-05 0.001719945459626615 0.010374462231993675
v -5.0010159611701965e-05 0.001719945459626615 0.010374462231993675
v -5.0010159611701965e-05 0.0017321346094831824 0.009360352531075478
v -5.0010159611701965e-05 0.0017321346094831824 0.009360352531075478
v -5.0010159611701965e-05 0.0017321346094831824 0.009360352531075478
v -5.0010159611701965e-05 0.0017321346094831824 0.009360352531075478
v -5.0010159611701965e-05 0.0004037259495817125 0.00950918160378933
v -5.0010159611701965e-05 0.0004037259495817125 0.00950918160378933
v -5.0010159611701965e-05 0.0004037259495817125 0.00950918160378933
v -5.0010159611701965e-05 0.0004037259495817125 0.00950918160378933
v 5.0010159611701965e-05 -0.004095262382179499 0.008593952283263206
v 5.0010159611701965e-05 -0.004095262382179499 0.008593952283263206
v 5.0010159611701965e-05 -0.004095262382179499 0.008593952283263206
v 5.0010159611701965e-05 -0.0028291703201830387 0.009090041741728783
v 5.0010159611701965e-05 -0.0028291703201830387 0.009090041741728783
v 5.0010159611701965e-05 -0.0028291703201830387 0.009090041741728783
v 5.0010159611701965e-05 -0.0025231600739061832 0.010209711268544197
v 5.0010159611701965e-05 -0.0025231600739061832 0.010209711268544197
v 5.0010159611701965e-05 0.004095250274986029 -0.008593939244747162
v 5.0010159611701965e-05 0.004095250274986029 -0.008593939244747162
v 5.0010159611701965e-05 0.004095250274986029 -0.008593939244747162
v 5.0010159611701965e-05 0.002829247619956732 -0.009090028703212738
v 5.0010159611701965e-05 0.002829247619956732 -0.009090028703212738
v 5.0010159611701965e-05 0.002829247619956732 -0.009090028703212738
v 5.0010159611701965e-05 0.0025232373736798763 -0.010209709405899048
v 5.0010159611701965e-05 0.0025232373736798763 -0.010209709405899048
v 5.0010159611701965e-05 0.0025232373736798763 -0.010209709405899048
v 5.0010159611701965e-05 -0.001110261888243258 0.010456541553139687
v 5.0010159611701965e-05 -0.001110261888243258 0.010456541553139687
v 5.0010159611701965e-05 -0.001110261888243258 0.010456541553139687
v 5.0010159611701965e-05 -0.0015020730206742883 0.009399741888046265
v 5.0010159611701965e-05 -0.0015020730206742883 0.009399741888046265
v 5.0010159611701965e-05 -0.0015020730206742883 0.009399741888046265
v 5.0010159611701965e-05 0.0003126500523649156 0.010509882122278214
v 5.0010159611701965e-05 0.0003126500523649156 0.010509882122278214
v 5.0010159611701965e-05 0.008760147728025913 0.0037271121982485056
v 5.0010159611701965e-05 0.008760147728025913 0.0037271121982485056
v 5.0010159611701965e-05 0.008760147728025913 0.0037271121982485056
v 5.0010159611701965e-05 0.009379022754728794 0.004757622256875038
v 5.0010159611701965e-05 0.009379022754728794 0.004757622256875038
v 5.0010159611701965e-05 0.009379022754728794 0.004757622256875038
v 5.0010159611701965e-05 0.009379022754728794 0.004757622256875038
v 5.0010159611701965e-05 0.008139246143400669 0.004936011508107185
v 5.0010159611701965e-05 0.008139246143400669 0.004936011508107185
v 5.0010159611701965e-05 0.008139246143400669 0.004936011508107185
v 5.0010159611701965e-05 0.008139246143400669 0.004936011508107185
v 5.0010159611701965e-05 0.008647137321531773 0.005983272567391396
v 5.0010159611701965e-05 0.008647137321531773 0.005983272567391396
v 5.0010159611701965e-05 0.008647137321531773 0.005983272567391396
v 5.0010159611701965e-05 0.008647137321531773 0.005983272567391396
v 5.0010159611701965e-05 0.007353538181632757 0.006042752414941788
v 5.0010159611701965e-05 0.007353538181632757 0.006042752414941788
v 5.0010159611701965e-05 0.007353538181632757 0.006042752414941788
v 5.0010159611701965e-05 0.007353538181632757 0.006042752414941788
v 5.0010159611701965e-05 0.007758432533591986 0.007096622139215469
v 5.0010159611701965e-05 0.007758432533591986 0.007096622139215469
v 5.0010159611701965e-05 0.007758432533591986 0.007096622139215469
v 5.0010159611701965e-05 0.006421440746635199 0.007025042548775673
v 5.0010159611701965e-05 0.006421440746635199 0.007025042548775673
v 5.0010159611701965e-05 0.006421440746635199 0.007025042548775673
v 5.0010159611701965e-05 0.006421440746635199 0.007025042548775673
v 5.0010159611701965e-05 0.006729537155479193 0.008079081773757935
v 5.0010159611701965e-05 0.006729537155479193 0.008079081773757935
v 5.0010159611701965e-05 0.006729537155479193 0.008079081773757935
v 5.0010159611701965e-05 0.005372041370719671 0.007857652381062508
v 5.0010159611701965e-05 0.005372041370719671 0.007857652381062508
v 5.0010159611701965e-05 0.005372041370719671 0.007857652381062508
v 5.0010159611701965e-05 0.005592638161033392 0.0089053213596344
v 5.0010159611701965e-05 0.005592638161033392 0.0089053213596344
v 5.0010159611701965e-05 0.005592638161033392 0.0089053213596344
v 5.0010159611701965e-05 0.0042264400981366634 0.00853005237877369
v 5.0010159611701965e-05 0.0042264400981366634 0.00853005237877369
v 5.0010159611701965e-05 0.0042264400981366634 0.00853005237877369
v 5.0010159611701965e-05 0.004365438129752874 0.009568192064762115
v 5.0010159611701965e-05 0.004365438129752874 0.009568192064762115
v 5.0010159611701965e-05 0.004365438129752874 0.009568192064762115
v 5.0010159611701965e-05 0.004365438129752874 0.009568192064762115
v 5.0010159611701965e-05 0.003006750252097845 0.009032942354679108
v 5.0010159611701965e-05 0.003006750252097845 0.009032942354679108
v 5.0010159611701965e-05 0.003006750252097845 0.009032942354679108
v 5.0010159611701965e-05 0.003006750252097845 0.009032942354679108
v 5.0010159611701965e-05 0.0030684410594403744 0.010059632360935211
v 5.0010159611701965e-05 0.0030684410594403744 0.010059632360935211
v 5.0010159611701965e-05 0.0030684410594403744 0.010059632360935211
v 5.0010159611701965e-05 0.0030684410594403744 0.010059632360935211
v 5.0010159611701965e-05 0.0017321346094831824 0.009360352531075478
v 5.0010159611701965e-05 0.0017321346094831824 0.009360352531075478
v 5.0010159611701965e-05 0.0017321346094831824 0.009360352531075478
v 5.0010159611701965e-05 0.0017321346094831824 0.009360352531075478
v 5.0010159611701965e-05 0.001719945459626615 0.010374462231993675
v 5.0010159611701965e-05 0.001719945459626615 0.010374462231993675
v 5.0010159611701965e-05 0.001719945459626615 0.010374462231993675
v 5.0010159611701965e-05 0.0004037259495817125 0.00950918160378933
v 5.0010159611701965e-05 0.0004037259495817125 0.00950918160378933
v 5.0010159611701965e-05 0.0004037259495817125 0.00950918160378933
v 5.0010159611701965e-05 -0.00013507023686543107 0.009516691789031029
v 5.0010159611701965e-05 -0.00013507023686543107 0.009516691789031029
v 5.0010159611701965e-05 0.0011102495482191443 -0.010456528514623642
v 5.0010159611701965e-05 0.0011102495482191443 -0.010456528514623642
v 5.0010159611701965e-05 0.0011102495482191443 -0.010456528514623642
v 5.0010159611701965e-05 0.001502030878327787 -0.009399738162755966
v 5.0010159611701965e-05 0.001502030878327787 -0.009399738162755966
v 5.0010159611701965e-05 0.001502030878327787 -0.009399738162755966
v 5.0010159611701965e-05 -0.00031257286900654435 -0.010509878396987915
v 5.0010159611701965e-05 -0.00031257286900654435 -0.010509878396987915
v 5.0010159611701965e-05 -0.00031257286900654435 -0.010509878396987915
v 5.0010159611701965e-05 -0.0038844705559313297 0.00977359153330326
v 5.0010159611701965e-05 -0.0038844705559313297 0.00977359153330326
v 5.0010159611701965e-05 -0.0038844705559313297 0.00977359153330326
v 5.0010159611701965e-05 -0.005172258708626032 0.009156381711363792
v 5.0010159611701965e-05 -0.005172258708626032 0.009156381711363792
v 5.0010159611701965e-05 -0.005172258708626032 0.009156381711363792
v 5.0010159611701965e-05 -0.005172258708626032 0.009156381711363792
v 5.0010159611701965e-05 -0.005276358220726252 0.007922381162643433
v 5.0010159611701965e-05 -0.005276358220726252 0.007922381162643433
v 5.0010159611701965e-05 -0.005276358220726252 0.007922381162643433
v 5.0010159611701965e-05 -0.006363666150718927 0.00837073102593422
v 5.0010159611701965e-05 -0.006363666150718927 0.00837073102593422
v 5.0010159611701965e-05 -0.006363666150718927 0.00837073102593422
v 5.0010159611701965e-05 -0.006347870919853449 0.007091611623764038
v 5.0010159611701965e-05 -0.006347870919853449 0.007091611623764038
v 5.0010159611701965e-05 -0.00743485102429986 0.007434822618961334
v 5.0010159611701965e-05 -0.00743485102429986 0.007434822618961334
v 5.0010159611701965e-05 -0.00743485102429986 0.007434822618961334
v 5.0010159611701965e-05 -0.0072896541096270084 0.006119642406702042
v 5.0010159611701965e-05 -0.0072896541096270084 0.006119642406702042
v 5.0010159611701965e-05 -0.0072896541096270084 0.006119642406702042
v 5.0010159611701965e-05 -0.008277065120637417 0.006484782323241234
v 5.0010159611701965e-05 -0.008277065120637417 0.006484782323241234
v 5.0010159611701965e-05 -0.008277065120637417 0.006484782323241234
v 5.0010159611701965e-05 -0.008277065120637417 0.006484782323241234
v 5.0010159611701965e-05 -0.008075661025941372 0.005039071664214134
v 5.0010159611701965e-05 -0.008075661025941372 0.005039071664214134
v 5.0010159611701965e-05 -0.008075661025941372 0.005039071664214134
v 5.0010159611701965e-05 -0.009067750535905361 0.005325831472873688
v 5.0010159611701965e-05 -0.009067750535905361 0.005325831472873688
v 5.0010159611701965e-05 -0.009067750535905361 0.005325831472873688
v 5.0010159611701965e-05 -0.009067750535905361 0.005325831472873688
v 5.0010159611701965e-05 -0.008698261342942715 0.0038691519293934107
v 5.0010159611701965e-05 -0.008698261342942715 0.0038691519293934107
v 5.0010159611701965e-05 -0.008698261342942715 0.0038691519293934107
v 5.0010159611701965e-05 -0.009692973457276821 0.004081342369318008
v 5.0010159611701965e-05 -0.009692973457276821 0.004081342369318008
v 5.0010159611701965e-05 -0.009692973457276821 0.004081342369318008
v 5.0010159611701965e-05 -0.009149259887635708 0.0026311019901186228
v 5.0010159611701965e-05 -0.009149259887635708 0.0026311019901186228
v 5.0010159611701965e-05 -0.010145372711122036 0.0027714113239198923
v 5.0010159611701965e-05 -0.010145372711122036 0.0027714113239198923
v 5.0010159611701965e-05 -0.009423560462892056 0.0013435224536806345
v 5.0010159611701965e-05 -0.009423560462892056 0.0013435224536806345
v 5.0010159611701965e-05 -0.010420269332826138 0.0014133828226476908
v 5.0010159611701965e-05 -0.010420269332826138 0.0014133828226476908
v 5.0010159611701965e-05 -0.009517556987702847 -2.775153262746244e-08
v 5.0010159611701965e-05 -0.009517556987702847 -2.775153262746244e-08
v 5.0010159611701965e-05 -0.010514474473893642 -2.775153262746244e-08
v 5.0010159611701965e-05 -0.010514474473893642 -2.775153262746244e-08
v 5.0010159611701965e-05 -0.009454763494431973 -0.0010994875337928534
v 5.0010159611701965e-05 -0.009454763494431973 -0.0010994875337928534
v 5.0010159611701965e-05 -0.010495460592210293 -0.0006368382018990815
v 5.0010159611701965e-05 -0.010495460592210293 -0.0006368382018990815
v 5.0010159611701965e-05 -0.010495460592210293 -0.0006368382018990815
v 5.0010159611701965e-05 -0.009201771579682827 -0.0024405380245298147
v 5.0010159611701965e-05 -0.009201771579682827 -0.0024405380245298147
v 5.0010159611701965e-05 -0.009201771579682827 -0.0024405380245298147
v 5.0010159611701965e-05 -0.01031226571649313 -0.002062467625364661
v 5.0010159611701965e-05 -0.01031226571649313 -0.002062467625364661
v 5.0010159611701965e-05 -0.01031226571649313 -0.002062467625364661
v 5.0010159611701965e-05 -0.01031226571649313 -0.002062467625364661
v 5.0010159611701965e-05 -0.008760160766541958 -0.0037271564360708
v 5.0010159611701965e-05 -0.008760160766541958 -0.0037271564360708
v 5.0010159611701965e-05 -0.008760160766541958 -0.0037271564360708
v 5.0010159611701965e-05 0.003884428646415472 -0.009773578494787216
v 5.0010159611701965e-05 0.003884428646415472 -0.009773578494787216
v 5.0010159611701965e-05 0.003884428646415472 -0.009773578494787216
v 5.0010159611701965e-05 0.005172336008399725 -0.009156368672847748
v 5.0010159611701965e-05 0.005172336008399725 -0.009156368672847748
v 5.0010159611701965e-05 0.005276346113532782 -0.007922377437353134
v 5.0010159611701965e-05 0.005276346113532782 -0.007922377437353134
v 5.0010159611701965e-05 0.00636362424120307 -0.008370719850063324
v 5.0010159611701965e-05 0.00636362424120307 -0.008370719850063324
v 5.0010159611701965e-05 0.006347948219627142 -0.00709160789847374
v 5.0010159611701965e-05 0.006347948219627142 -0.00709160789847374
v 5.0010159611701965e-05 0.00743483891710639 -0.00743480771780014
v 5.0010159611701965e-05 0.00743483891710639 -0.00743480771780014
v 5.0010159611701965e-05 0.0072896420024335384 -0.006119638681411743
v 5.0010159611701965e-05 0.0072896420024335384 -0.006119638681411743
v 5.0010159611701965e-05 0.008277141489088535 -0.006484769284725189
v 5.0010159611701965e-05 0.008277141489088535 -0.006484769284725189
v 5.0010159611701965e-05 0.008277141489088535 -0.006484769284725189
v 5.0010159611701965e-05 0.008075647987425327 -0.005039118230342865
v 5.0010159611701965e-05 0.008075647987425327 -0.005039118230342865
v 5.0010159611701965e-05 0.008075647987425327 -0.005039118230342865
v 5.0010159611701965e-05 0.00906782690435648 -0.005325816571712494
v 5.0010159611701965e-05 0.00906782690435648 -0.005325816571712494
v 5.0010159611701965e-05 0.00906782690435648 -0.005325816571712494
v 5.0010159611701965e-05 0.00906782690435648 -0.005325816571712494
v 5.0010159611701965e-05 0.00869824830442667 -0.0038691384252160788
v 5.0010159611701965e-05 0.00869824830442667 -0.0038691384252160788
v 5.0010159611701965e-05 0.00869824830442667 -0.0038691384252160788
v 5.0010159611701965e-05 0.009692930616438389 -0.00408133864402771
v 5.0010159611701965e-05 0.009692930616438389 -0.00408133864402771
v 5.0010159611701965e-05 0.009692930616438389 -0.00408133864402771
v 5.0010159611701965e-05 0.009149246849119663 -0.002631146227940917
v 5.0010159611701965e-05 0.009149246849119663 -0.002631146227940917
v 5.0010159611701965e-05 0.010145329870283604 -0.0027713996823877096
v 5.0010159611701965e-05 0.010145329870283604 -0.0027713996823877096
v 5.0010159611701965e-05 0.009423547424376011 -0.0013435182627290487
v 5.0010159611701965e-05 0.009423547424376011 -0.0013435182627290487
v 5.0010159611701965e-05 0.010420226491987705 -0.0014133674558252096
v 5.0010159611701965e-05 0.010420226491987705 -0.0014133674558252096
v 5.0010159611701965e-05 0.009517633356153965 -2.775153262746244e-08
v 5.0010159611701965e-05 0.009517633356153965 -2.775153262746244e-08
v 5.0010159611701965e-05 0.009517633356153965 -2.775153262746244e-08
v 5.0010159611701965e-05 0.01051443163305521 -2.775153262746244e-08
v 5.0010159611701965e-05 0.01051443163305521 -2.775153262746244e-08
v 5.0010159611701965e-05 0.01051443163305521 -2.775153262746244e-08
v 5.0010159611701965e-05 0.009454839862883091 0.0010995029006153345
v 5.0010159611701965e-05 0.009454839862883091 0.0010995029006153345
v 5.0010159611701965e-05 0.009454839862883091 0.0010995029006153345
v 5.0010159611701965e-05 0.009454839862883091 0.0010995029006153345
v 5.0010159611701965e-05 0.010495447553694248 0.0006367919850163162
v 5.0010159611701965e-05 0.010495447553694248 0.0006367919850163162
v 5.0010159611701965e-05 0.010495447553694248 0.0006367919850163162
v 5.0010159611701965e-05 0.010495447553694248 0.0006367919850163162
v 5.0010159611701965e-05 0.009201728738844395 0.0024405515287071466
v 5.0010159611701965e-05 0.009201728738844395 0.0024405515287071466
v 5.0010159611701965e-05 0.009201728738844395 0.0024405515287071466
v 5.0010159611701965e-05 0.010312222875654697 0.002062471816316247
v 5.0010159611701965e-05 0.010312222875654697 0.002062471816316247
v 5.0010159611701965e-05 0.009937726892530918 0.0034430420491844416
v 5.0010159611701965e-05 0.009937726892530918 0.0034430420491844416
v 5.0010159611701965e-05 -0.00993776973336935 -0.0034430285450071096
v 5.0010159611701965e-05 -0.00993776973336935 -0.0034430285450071096
v 5.0010159611701965e-05 -0.00993776973336935 -0.0034430285450071096
v 5.0010159611701965e-05 -0.009379065595567226 -0.0047576092183589935
v 5.0010159611701965e-05 -0.009379065595567226 -0.0047576092183589935
v 5.0010159611701965e-05 -0.009379065595567226 -0.0047576092183589935
v 5.0010159611701965e-05 -0.008139259181916714 -0.004936009645462036
v 5.0010159611701965e-05 -0.008139259181916714 -0.004936009645462036
v 5.0010159611701965e-05 -0.008139259181916714 -0.004936009645462036
v 5.0010159611701965e-05 -0.008139259181916714 -0.004936009645462036
v 5.0010159611701965e-05 -0.008647150360047817 -0.005983319133520126
v 5.0010159611701965e-05 -0.008647150360047817 -0.005983319133520126
v 5.0010159611701965e-05 -0.008647150360047817 -0.005983319133520126
v 5.0010159611701965e-05 -0.008647150360047817 -0.005983319133520126
v 5.0010159611701965e-05 -0.007353550288826227 -0.006042748689651489
v 5.0010159611701965e-05 -0.007353550288826227 -0.006042748689651489
v 5.0010159611701965e-05 -0.007353550288826227 -0.006042748689651489
v 5.0010159611701965e-05 -0.007353550288826227 -0.006042748689651489
v 5.0010159611701965e-05 -0.007758355233818293 -0.007096618413925171
v 5.0010159611701965e-05 -0.007758355233818293 -0.007096618413925171
v 5.0010159611701965e-05 -0.007758355233818293 -0.007096618413925171
v 5.0010159611701965e-05 -0.0064213634468615055 -0.007025089114904404
v 5.0010159611701965e-05 -0.0064213634468615055 -0.007025089114904404
v 5.0010159611701965e-05 -0.0064213634468615055 -0.007025089114904404
v 5.0010159611701965e-05 -0.0064213634468615055 -0.007025089114904404
v 5.0010159611701965e-05 -0.006729549262672663 -0.008079078048467636
v 5.0010159611701965e-05 -0.006729549262672663 -0.008079078048467636
v 5.0010159611701965e-05 -0.006729549262672663 -0.008079078048467636
v 5.0010159611701965e-05 -0.006729549262672663 -0.008079078048467636
v 5.0010159611701965e-05 -0.005372053477913141 -0.007857706397771835
v 5.0010159611701965e-05 -0.005372053477913141 -0.007857706397771835
v 5.0010159611701965e-05 -0.005372053477913141 -0.007857706397771835
v 5.0010159611701965e-05 -0.005372053477913141 -0.007857706397771835
v 5.0010159611701965e-05 -0.005592650268226862 -0.008905317634344101
v 5.0010159611701965e-05 -0.005592650268226862 -0.008905317634344101
v 5.0010159611701965e-05 -0.005592650268226862 -0.008905317634344101
v 5.0010159611701965e-05 -0.005592650268226862 -0.008905317634344101
v 5.0010159611701965e-05 -0.0042264522053301334 -0.008530046790838242
v 5.0010159611701965e-05 -0.0042264522053301334 -0.008530046790838242
v 5.0010159611701965e-05 -0.0042264522053301334 -0.008530046790838242
v 5.0010159611701965e-05 -0.004365450236946344 -0.009568177163600922
v 5.0010159611701965e-05 -0.004365450236946344 -0.009568177163600922
v 5.0010159611701965e-05 -0.004365450236946344 -0.009568177163600922
v 5.0010159611701965e-05 -0.004365450236946344 -0.009568177163600922
v 5.0010159611701965e-05 -0.003006672952324152 -0.009032927453517914
v 5.0010159611701965e-05 -0.003006672952324152 -0.009032927453517914
v 5.0010159611701965e-05 -0.003006672952324152 -0.009032927453517914
v 5.0010159611701965e-05 -0.003006672952324152 -0.009032927453517914
v 5.0010159611701965e-05 -0.0030684531666338444 -0.010059617459774017
v 5.0010159611701965e-05 -0.0030684531666338444 -0.010059617459774017
v 5.0010159611701965e-05 -0.0030684531666338444 -0.010059617459774017
v 5.0010159611701965e-05 -0.0030684531666338444 -0.010059617459774017
v 5.0010159611701965e-05 -0.0017322661587968469 -0.009360339492559433
v 5.0010159611701965e-05 -0.0017322661587968469 -0.009360339492559433
v 5.0010159611701965e-05 -0.0017322661587968469 -0.009360339492559433
v 5.0010159611701965e-05 -0.0017322661587968469 -0.009360339492559433
v 5.0010159611701965e-05 -0.0017199577996507287 -0.01037444919347763
v 5.0010159611701965e-05 -0.0017199577996507287 -0.01037444919347763
v 5.0010159611701965e-05 -0.0017199577996507287 -0.01037444919347763
v 5.0010159611701965e-05 -0.0017199577996507287 -0.01037444919347763
v 5.0010159611701965e-05 -0.000403767975512892 -0.009509168565273285
v 5.0010159611701965e-05 -0.000403767975512892 -0.009509168565273285
v 5.0010159611701965e-05 -0.000403767975512892 -0.009509168565273285
v 5.0010159611701965e-05 0.00013502821093425155 -0.009516678750514984
v 5.0010159611701965e-05 0.00013502821093425155 -0.009516678750514984
f 1 4 7
f 8 5 11
f 7 12 14
f 14 12 17
f 14 17 18
f 19 16 24
f 18 23 27
f 31 33 36
f 28 21 39
f 38 25 41
f 40 42 47
f 46 44 50
f 47 49 52
f 52 49 54
f 52 54 56
f 56 54 61
f 55 59 64
f 65 58 67
f 62 66 70
f 70 66 71
f 70 71 75
f 74 72 79
f 75 78 81
f 29 35 86
f 83 36 87
f 84 88 90
f 92 87 94
f 92 94 97
f 97 94 98
f 97 98 101
f 101 98 103
f 102 104 106
f 107 103 110
f 109 112 115
f 113 110 116
f 113 116 119
f 119 116 121
f 119 121 123
f 125 120 129
f 124 127 132
f 134 128 135
f 133 138 140
f 141 136 146
f 139 143 2
f 1 145 148
f 1 148 4
f 150 154 159
f 157 156 160
f 159 161 164
f 164 161 165
f 164 165 168
f 171 166 176
f 78 177 81
f 81 177 181
f 82 180 185
f 183 181 186
f 184 187 190
f 189 186 192
f 189 192 194
f 194 192 197
f 194 197 198
f 198 197 200
f 198 200 203
f 203 200 205
f 203 205 207
f 207 205 209
f 207 209 212
f 212 209 213
f 210 214 219
f 216 213 221
f 217 220 224
f 223 221 226
f 223 226 228
f 228 226 231
f 229 233 151
f 150 231 235
f 152 234 155
f 33 31 239
f 239 31 240
f 237 241 244
f 245 242 249
f 246 248 251
f 251 248 254
f 252 257 261
f 258 255 263
f 259 264 265
f 265 264 267
f 265 267 269
f 269 267 271
f 269 271 275
f 276 273 280
f 275 277 175
f 173 279 281
f 172 283 170
f 286 290 292
f 293 296 301
f 292 290 302
f 304 289 307
f 302 305 308
f 311 316 318
f 319 315 322
f 320 323 325
f 328 321 331
f 327 329 332
f 333 331 336
f 334 338 341
f 340 336 343
f 340 343 347
f 346 344 348
f 347 350 353
f 355 349 357
f 354 356 361
f 360 358 365
f 362 366 367
f 367 366 308
f 367 308 370
f 370 308 305
f 301 296 373
f 374 297 375
f 373 377 379
f 292 382 286
f 287 383 385
f 286 386 389
f 390 384 393
f 389 391 395
f 395 391 396
f 395 396 401
f 399 397 405
f 401 403 407
f 408 404 412
f 407 409 414
f 415 411 417
f 414 416 419
f 419 416 422
f 419 422 424
f 424 422 425
f 424 425 427
f 427 425 430
f 427 430 431
f 431 430 433
f 431 433 438
f 437 435 442
f 438 440 444
f 299 447 294
f 293 446 449
f 293 449 452
f 452 449 454
f 452 454 455
f 455 454 457
f 455 457 459
f 459 457 463
f 459 463 466
f 465 462 469
f 466 467 472
f 473 468 475
f 472 474 478
f 478 474 480
f 478 480 481
f 481 480 483
f 481 483 486
f 486 483 489
f 486 489 491
f 493 490 496
f 492 498 501
f 500 495 503
f 500 503 310
f 310 503 504
f 310 504 313
f 439 508 443
f 444 507 510
f 444 510 515
f 513 511 516
f 512 518 520
f 523 519 524
f 521 526 529
f 530 524 534
f 528 533 535
f 536 532 542
f 538 540 545
f 543 541 547
f 545 549 553
f 550 548 557
f 551 554 560
f 559 556 563
f 558 565 566
f 567 562 378
f 566 379 569
f 569 379 377
f 196 429 426
f 196 426 201
f 201 426 421
f 201 421 204
f 204 421 418
f 204 418 208
f 208 418 410
f 208 410 215
f 215 410 402
f 215 402 222
f 222 402 398
f 222 398 227
f 227 398 392
f 227 392 232
f 232 392 387
f 232 387 236
f 236 387 381
f 236 381 153
f 153 381 291
f 153 291 162
f 162 291 303
f 162 303 167
f 167 303 309
f 167 309 174
f 174 309 364
f 174 364 274
f 274 364 359
f 274 359 270
f 270 359 351
f 270 351 266
f 266 351 342
f 266 342 260
f 260 342 337
f 260 337 253
f 253 337 330
f 253 330 247
f 247 330 324
f 247 324 238
f 238 324 314
f 238 314 32
f 32 314 505
f 32 505 34
f 34 505 502
f 34 502 89
f 89 502 497
f 89 497 93
f 93 497 488
f 93 488 99
f 99 488 484
f 99 484 105
f 105 484 479
f 105 479 111
f 111 479 476
f 111 476 117
f 117 476 470
f 117 470 122
f 122 470 461
f 122 461 130
f 130 461 458
f 130 458 137
f 137 458 453
f 137 453 144
f 144 453 450
f 144 450 147
f 147 450 448
f 147 448 6
f 6 448 300
f 6 300 10
f 10 300 372
f 10 372 15
f 15 372 380
f 15 380 22
f 22 380 564
f 22 564 43
f 43 564 555
f 43 555 48
f 48 555 546
f 48 546 53
f 53 546 539
f 53 539 60
f 60 539 531
f 60 531 68
f 68 531 525
f 68 525 73
f 73 525 517
f 73 517 77
f 77 517 509
f 77 509 178
f 178 509 506
f 178 506 179
f 179 506 441
f 179 441 188
f 188 441 434
f 188 434 193
f 193 434 429
f 193 429 196
f 95 485 494
f 95 494 91
f 91 494 499
f 91 499 85
f 85 499 312
f 85 312 30
f 30 312 317
f 30 317 243
f 243 317 326
f 243 326 250
f 250 326 335
f 250 335 256
f 256 335 339
f 256 339 262
f 262 339 345
f 262 345 268
f 268 345 352
f 268 352 272
f 272 352 363
f 272 363 278
f 278 363 369
f 278 369 282
f 284 368 371
f 284 371 169
f 169 371 306
f 169 306 163
f 163 306 288
f 163 288 158
f 158 288 285
f 158 285 149
f 149 285 388
f 149 388 230
f 230 388 394
f 230 394 225
f 225 394 400
f 225 400 218
f 218 400 406
f 218 406 211
f 211 406 413
f 211 413 206
f 206 413 420
f 206 420 202
f 202 420 423
f 202 423 199
f 199 423 428
f 199 428 195
f 195 428 432
f 195 432 191
f 191 432 436
f 191 436 182
f 182 436 445
f 182 445 80
f 80 445 514
f 80 514 76
f 76 514 522
f 76 522 69
f 69 522 527
f 69 527 63
f 63 527 537
f 63 537 57
f 57 537 544
f 57 544 51
f 51 544 552
f 51 552 45
f 45 552 561
f 45 561 37
f 37 561 568
f 37 568 26
f 26 568 570
f 26 570 20
f 20 570 376
f 20 376 13
f 13 376 298
f 13 298 9
f 9 298 295
f 9 295 3
f 3 295 451
f 3 451 142
f 142 451 456
f 142 456 131
f 131 456 460
f 131 460 126
f 126 460 464
f 126 464 118
f 118 464 471
f 118 471 114
f 114 471 477
f 114 477 108
f 108 477 482
f 108 482 100
f 100 482 487
f 100 487 96
