mtllib converted_link2_14_d12626ff.mtl
usemtl material
v 0.001124887727200985 0.0012408250477164984 5.0010159611701965e-05
v 0.001124887727200985 0.0012408250477164984 5.0010159611701965e-05
v 0.001124887727200985 0.0012408250477164984 5.0010159611701965e-05
v 0.001124887727200985 0.0012408250477164984 -5.0010159611701965e-05
v 0.001124887727200985 0.0012408250477164984 -5.0010159611701965e-05
v 0.001124887727200985 0.0012408250477164984 -5.0010159611701965e-05
v 0.0010496964678168297 0.0012293250765651464 -5.0010159611701965e-05
v 0.0010496964678168297 0.0012293250765651464 -5.0010159611701965e-05
v 0.0010496964678168297 0.0012293250765651464 -5.0010159611701965e-05
v 0.0010496964678168297 0.0012293250765651464 5.0010159611701965e-05
v 0.0010496964678168297 0.0012293250765651464 5.0010159611701965e-05
v 0.0010496964678168297 0.0012293250765651464 5.0010159611701965e-05
v 0.0009835949167609215 0.0011969560291618109 -5.0010159611701965e-05
v 0.0009835949167609215 0.0011969560291618109 -5.0010159611701965e-05
v 0.0009835949167609215 0.0011969560291618109 -5.0010159611701965e-05
v 0.0009835949167609215 0.0011969560291618109 5.0010159611701965e-05
v 0.0009835949167609215 0.0011969560291618109 5.0010159611701965e-05
v 0.0009835949167609215 0.0011969560291618109 5.0010159611701965e-05
v 0.0009281030506826937 0.0011445654090493917 -5.0010159611701965e-05
v 0.0009281030506826937 0.0011445654090493917 -5.0010159611701965e-05
v 0.0009281030506826937 0.0011445654090493917 -5.0010159611701965e-05
v 0.0009281030506826937 0.0011445654090493917 5.0010159611701965e-05
v 0.0009281030506826937 0.0011445654090493917 5.0010159611701965e-05
v 0.0009281030506826937 0.0011445654090493917 5.0010159611701965e-05
v 6.720333476550877e-05 0.00038794594001956284 5.0010159611701965e-05
v 6.720333476550877e-05 0.00038794594001956284 5.0010159611701965e-05
v 6.720333476550877e-05 0.00038794594001956284 5.0010159611701965e-05
v 6.720333476550877e-05 0.00038794594001956284 -5.0010159611701965e-05
v 6.720333476550877e-05 0.00038794594001956284 -5.0010159611701965e-05
v 6.720333476550877e-05 0.00038794594001956284 -5.0010159611701965e-05
v 4.801063914783299e-05 0.0003724450070876628 -5.0010159611701965e-05
v 4.801063914783299e-05 0.0003724450070876628 -5.0010159611701965e-05
v 4.801063914783299e-05 0.0003724450070876628 -5.0010159611701965e-05
v 4.801063914783299e-05 0.0003724450070876628 -5.0010159611701965e-05
v 4.801063914783299e-05 0.0003724450070876628 5.0010159611701965e-05
v 4.801063914783299e-05 0.0003724450070876628 5.0010159611701965e-05
v 4.801063914783299e-05 0.0003724450070876628 5.0010159611701965e-05
v 3.0010038244654424e-05 0.0003556458104867488 -5.0010159611701965e-05
v 3.0010038244654424e-05 0.0003556458104867488 -5.0010159611701965e-05
v 3.0010038244654424e-05 0.0003556458104867488 -5.0010159611701965e-05
v 3.0010038244654424e-05 0.0003556458104867488 5.0010159611701965e-05
v 3.0010038244654424e-05 0.0003556458104867488 5.0010159611701965e-05
v 3.0010038244654424e-05 0.0003556458104867488 5.0010159611701965e-05
v 1.579433046572376e-05 0.0003444364119786769 -5.0010159611701965e-05
v 1.579433046572376e-05 0.0003444364119786769 -5.0010159611701965e-05
v 1.579433046572376e-05 0.0003444364119786769 -5.0010159611701965e-05
v 1.579433046572376e-05 0.0003444364119786769 5.0010159611701965e-05
v 1.579433046572376e-05 0.0003444364119786769 5.0010159611701965e-05
v 2.2044707748136716e-06 0.0003320963878650218 -5.0010159611701965e-05
v 2.2044707748136716e-06 0.0003320963878650218 -5.0010159611701965e-05
v 2.2044707748136716e-06 0.0003320963878650218 -5.0010159611701965e-05
v 2.2044707748136716e-06 0.0003320963878650218 -5.0010159611701965e-05
v 2.2044707748136716e-06 0.0003320963878650218 -5.0010159611701965e-05
v 2.2044707748136716e-06 0.0003320963878650218 5.0010159611701965e-05
v 2.2044707748136716e-06 0.0003320963878650218 5.0010159611701965e-05
v 2.2044707748136716e-06 0.0003320963878650218 5.0010159611701965e-05
v 2.2044707748136716e-06 0.0003320963878650218 5.0010159611701965e-05
v 2.2044707748136716e-06 0.0003320963878650218 5.0010159611701965e-05
v -9.686656085250434e-06 0.00034562477958388627 -5.0010159611701965e-05
v -9.686656085250434e-06 0.00034562477958388627 -5.0010159611701965e-05
v -9.686656085250434e-06 0.00034562477958388627 -5.0010159611701965e-05
v -9.686656085250434e-06 0.00034562477958388627 5.0010159611701965e-05
v -9.686656085250434e-06 0.00034562477958388627 5.0010159611701965e-05
v -9.686656085250434e-06 0.00034562477958388627 5.0010159611701965e-05
v -2.4110979211400263e-05 0.0003598758776206523 -5.0010159611701965e-05
v -2.4110979211400263e-05 0.0003598758776206523 -5.0010159611701965e-05
v -2.4110979211400263e-05 0.0003598758776206523 -5.0010159611701965e-05
v -2.4110979211400263e-05 0.0003598758776206523 5.0010159611701965e-05
v -2.4110979211400263e-05 0.0003598758776206523 5.0010159611701965e-05
v -2.4110979211400263e-05 0.0003598758776206523 5.0010159611701965e-05
v -6.169170956127346e-05 0.0003936046559829265 5.0010159611701965e-05
v -6.169170956127346e-05 0.0003936046559829265 5.0010159611701965e-05
v -6.169170956127346e-05 0.0003936046559829265 5.0010159611701965e-05
v -6.169170956127346e-05 0.0003936046559829265 5.0010159611701965e-05
v -6.169170956127346e-05 0.0003936046559829265 5.0010159611701965e-05
v -6.169170956127346e-05 0.0003936046559829265 -5.0010159611701965e-05
v -6.169170956127346e-05 0.0003936046559829265 -5.0010159611701965e-05
v -6.169170956127346e-05 0.0003936046559829265 -5.0010159611701965e-05
v -6.169170956127346e-05 0.0003936046559829265 -5.0010159611701965e-05
v -0.000166297861142084 0.000487725978018716 5.0010159611701965e-05
v -0.000166297861142084 0.000487725978018716 5.0010159611701965e-05
v -0.000166297861142084 0.000487725978018716 5.0010159611701965e-05
v -0.000166297861142084 0.000487725978018716 5.0010159611701965e-05
v -0.000166297861142084 0.000487725978018716 5.0010159611701965e-05
v -0.000166297861142084 0.000487725978018716 5.0010159611701965e-05
v -0.000166297861142084 0.000487725978018716 -5.0010159611701965e-05
v -0.000166297861142084 0.000487725978018716 -5.0010159611701965e-05
v -0.000166297861142084 0.000487725978018716 -5.0010159611701965e-05
v -0.000166297861142084 0.000487725978018716 -5.0010159611701965e-05
v -0.000166297861142084 0.000487725978018716 -5.0010159611701965e-05
v -0.000166297861142084 0.000487725978018716 -5.0010159611701965e-05
v -0.00022849530796520412 0.0005428546573966742 5.0010159611701965e-05
v -0.00022849530796520412 0.0005428546573966742 5.0010159611701965e-05
v -0.00022849530796520412 0.0005428546573966742 5.0010159611701965e-05
v -0.00022849530796520412 0.0005428546573966742 5.0010159611701965e-05
v -0.00022849530796520412 0.0005428546573966742 5.0010159611701965e-05
v -0.00022849530796520412 0.0005428546573966742 5.0010159611701965e-05
v -0.00022849530796520412 0.0005428546573966742 -5.0010159611701965e-05
v -0.00022849530796520412 0.0005428546573966742 -5.0010159611701965e-05
v -0.00022849530796520412 0.0005428546573966742 -5.0010159611701965e-05
v -0.00022849530796520412 0.0005428546573966742 -5.0010159611701965e-05
v -0.00022849530796520412 0.0005428546573966742 -5.0010159611701965e-05
v -0.0009495922713540494 0.001186705892905593 5.0010159611701965e-05
v -0.0009495922713540494 0.001186705892905593 5.0010159611701965e-05
v -0.0009495922713540494 0.001186705892905593 5.0010159611701965e-05
v -0.0009495922713540494 0.001186705892905593 -5.0010159611701965e-05
v -0.0009495922713540494 0.001186705892905593 -5.0010159611701965e-05
v -0.0009495922713540494 0.001186705892905593 -5.0010159611701965e-05
v -0.0009594866423867643 0.0011948158498853445 5.0010159611701965e-05
v -0.0009594866423867643 0.0011948158498853445 5.0010159611701965e-05
v -0.0009594866423867643 0.0011948158498853445 5.0010159611701965e-05
v -0.0009594866423867643 0.0011948158498853445 5.0010159611701965e-05
v -0.0009594866423867643 0.0011948158498853445 5.0010159611701965e-05
v -0.0009594866423867643 0.0011948158498853445 5.0010159611701965e-05
v -0.0009594866423867643 0.0011948158498853445 -5.0010159611701965e-05
v -0.0009594866423867643 0.0011948158498853445 -5.0010159611701965e-05
v -0.0009594866423867643 0.0011948158498853445 -5.0010159611701965e-05
v -0.0009594866423867643 0.0011948158498853445 -5.0010159611701965e-05
v -0.0009594866423867643 0.0011948158498853445 -5.0010159611701965e-05
v -0.0009594866423867643 0.0011948158498853445 -5.0010159611701965e-05
v -0.0010249922052025795 0.0012350452598184347 -5.0010159611701965e-05
v -0.0010249922052025795 0.0012350452598184347 -5.0010159611701965e-05
v -0.0010249922052025795 0.0012350452598184347 -5.0010159611701965e-05
v -0.0010249922052025795 0.0012350452598184347 5.0010159611701965e-05
v -0.0010249922052025795 0.0012350452598184347 5.0010159611701965e-05
v -0.0010249922052025795 0.0012350452598184347 5.0010159611701965e-05
v -0.001093805767595768 0.0012525150086730719 -5.0010159611701965e-05
v -0.001093805767595768 0.0012525150086730719 -5.0010159611701965e-05
v -0.001093805767595768 0.0012525150086730719 -5.0010159611701965e-05
v -0.001093805767595768 0.0012525150086730719 5.0010159611701965e-05
v -0.001093805767595768 0.0012525150086730719 5.0010159611701965e-05
v -0.001093805767595768 0.0012525150086730719 5.0010159611701965e-05
v -0.0011192867532372475 0.0012538263108581305 -5.0010159611701965e-05
v -0.0011192867532372475 0.0012538263108581305 -5.0010159611701965e-05
v -0.0011192867532372475 0.0012538263108581305 -5.0010159611701965e-05
v -0.0011192867532372475 0.0012538263108581305 -5.0010159611701965e-05
v -0.0011192867532372475 0.0012538263108581305 5.0010159611701965e-05
v -0.0011192867532372475 0.0012538263108581305 5.0010159611701965e-05
v -0.0011192867532372475 0.0012538263108581305 5.0010159611701965e-05
v -0.0011192867532372475 0.0012538263108581305 5.0010159611701965e-05
v -0.0011945972219109535 0.0012424958404153585 -5.0010159611701965e-05
v -0.0011945972219109535 0.0012424958404153585 -5.0010159611701965e-05
v -0.0011945972219109535 0.0012424958404153585 -5.0010159611701965e-05
v -0.0011945972219109535 0.0012424958404153585 5.0010159611701965e-05
v -0.0011945972219109535 0.0012424958404153585 5.0010159611701965e-05
v -0.0011945972219109535 0.0012424958404153585 5.0010159611701965e-05
v -0.0012607881799340248 0.0012103149201720953 -5.0010159611701965e-05
v -0.0012607881799340248 0.0012103149201720953 -5.0010159611701965e-05
v -0.0012607881799340248 0.0012103149201720953 -5.0010159611701965e-05
v -0.0012607881799340248 0.0012103149201720953 5.0010159611701965e-05
v -0.0012607881799340248 0.0012103149201720953 5.0010159611701965e-05
v -0.0012607881799340248 0.0012103149201720953 5.0010159611701965e-05
v -0.0013169953599572182 0.0011574456002563238 -5.0010159611701965e-05
v -0.0013169953599572182 0.0011574456002563238 -5.0010159611701965e-05
v -0.0013169953599572182 0.0011574456002563238 5.0010159611701965e-05
v -0.0013169953599572182 0.0011574456002563238 5.0010159611701965e-05
v -0.0013544866815209389 0.0010892560239881277 -5.0010159611701965e-05
v -0.0013544866815209389 0.0010892560239881277 -5.0010159611701965e-05
v -0.0013544866815209389 0.0010892560239881277 -5.0010159611701965e-05
v -0.0013544866815209389 0.0010892560239881277 -5.0010159611701965e-05
v -0.0013544866815209389 0.0010892560239881277 -5.0010159611701965e-05
v -0.0013544866815209389 0.0010892560239881277 5.0010159611701965e-05
v -0.0013544866815209389 0.0010892560239881277 5.0010159611701965e-05
v -0.0013544866815209389 0.0010892560239881277 5.0010159611701965e-05
v -0.0013544866815209389 0.0010892560239881277 5.0010159611701965e-05
v -0.0013690004125237465 0.0010186859872192144 -5.0010159611701965e-05
v -0.0013690004125237465 0.0010186859872192144 -5.0010159611701965e-05
v -0.0013690004125237465 0.0010186859872192144 -5.0010159611701965e-05
v -0.0013690004125237465 0.0010186859872192144 -5.0010159611701965e-05
v -0.0013690004125237465 0.0010186859872192144 -5.0010159611701965e-05
v -0.0013690004125237465 0.0010186859872192144 5.0010159611701965e-05
v -0.0013690004125237465 0.0010186859872192144 5.0010159611701965e-05
v -0.0013690004125237465 0.0010186859872192144 5.0010159611701965e-05
v -0.0013690004125237465 0.0010186859872192144 5.0010159611701965e-05
v -0.0013690004125237465 0.0010186859872192144 5.0010159611701965e-05
v -0.0013693878427147865 0.0010047347750514746 -5.0010159611701965e-05
v -0.0013693878427147865 0.0010047347750514746 -5.0010159611701965e-05
v -0.0013693878427147865 0.0010047347750514746 -5.0010159611701965e-05
v -0.0013693878427147865 0.0010047347750514746 5.0010159611701965e-05
v -0.0013693878427147865 0.0010047347750514746 5.0010159611701965e-05
v -0.0013693878427147865 0.0010047347750514746 5.0010159611701965e-05
v -0.0013582119718194008 0.0009295751806348562 -5.0010159611701965e-05
v -0.0013582119718194008 0.0009295751806348562 -5.0010159611701965e-05
v -0.0013582119718194008 0.0009295751806348562 -5.0010159611701965e-05
v -0.0013582119718194008 0.0009295751806348562 5.0010159611701965e-05
v -0.0013582119718194008 0.0009295751806348562 5.0010159611701965e-05
v -0.0013582119718194008 0.0009295751806348562 5.0010159611701965e-05
v -0.001326204277575016 0.0008632948156446218 -5.0010159611701965e-05
v -0.001326204277575016 0.0008632948156446218 -5.0010159611701965e-05
v -0.001326204277575016 0.0008632948156446218 -5.0010159611701965e-05
v -0.001326204277575016 0.0008632948156446218 5.0010159611701965e-05
v -0.001326204277575016 0.0008632948156446218 5.0010159611701965e-05
v -0.001326204277575016 0.0008632948156446218 5.0010159611701965e-05
v -0.0012857923284173012 0.0008175147231668234 -5.0010159611701965e-05
v -0.0012857923284173012 0.0008175147231668234 -5.0010159611701965e-05
v -0.0012857923284173012 0.0008175147231668234 -5.0010159611701965e-05
v -0.0012857923284173012 0.0008175147231668234 -5.0010159611701965e-05
v -0.0012857923284173012 0.0008175147231668234 5.0010159611701965e-05
v -0.0012857923284173012 0.0008175147231668234 5.0010159611701965e-05
v -0.0012857923284173012 0.0008175147231668234 5.0010159611701965e-05
v -0.0012787887826561928 0.0008115561213344336 5.0010159611701965e-05
v -0.0012787887826561928 0.0008115561213344336 5.0010159611701965e-05
v -0.0012787887826561928 0.0008115561213344336 5.0010159611701965e-05
v -0.0012787887826561928 0.0008115561213344336 -5.0010159611701965e-05
v -0.0012787887826561928 0.0008115561213344336 -5.0010159611701965e-05
v -0.0012787887826561928 0.0008115561213344336 -5.0010159611701965e-05
v -0.0007438072352670133 0.00033912601065821946 5.0010159611701965e-05
v -0.0007438072352670133 0.00033912601065821946 5.0010159611701965e-05
v -0.0007438072352670133 0.00033912601065821946 5.0010159611701965e-05
v -0.0007438072352670133 0.00033912601065821946 -5.0010159611701965e-05
v -0.0007438072352670133 0.00033912601065821946 -5.0010159611701965e-05
v -0.0005587050109170377 0.00017474571359343827 5.0010159611701965e-05
v -0.0005587050109170377 0.00017474571359343827 5.0010159611701965e-05
v -0.0005587050109170377 0.00017474571359343827 5.0010159611701965e-05
v -0.0005587050109170377 0.00017474571359343827 -5.0010159611701965e-05
v -0.0005587050109170377 0.00017474571359343827 -5.0010159611701965e-05
v -0.0005407938151620328 0.0001582259137649089 5.0010159611701965e-05
v -0.0005407938151620328 0.0001582259137649089 5.0010159611701965e-05
v -0.0005407938151620328 0.0001582259137649089 5.0010159611701965e-05
v -0.0005407938151620328 0.0001582259137649089 5.0010159611701965e-05
v -0.0005407938151620328 0.0001582259137649089 5.0010159611701965e-05
v -0.0005407938151620328 0.0001582259137649089 -5.0010159611701965e-05
v -0.0005407938151620328 0.0001582259137649089 -5.0010159611701965e-05
v -0.0005241939215920866 0.00014279576134867966 5.0010159611701965e-05
v -0.0005241939215920866 0.00014279576134867966 5.0010159611701965e-05
v -0.0005241939215920866 0.00014279576134867966 5.0010159611701965e-05
v -0.0005241939215920866 0.00014279576134867966 5.0010159611701965e-05
v -0.0005241939215920866 0.00014279576134867966 5.0010159611701965e-05
v -0.0005241939215920866 0.00014279576134867966 5.0010159611701965e-05
v -0.0005241939215920866 0.00014279576134867966 -5.0010159611701965e-05
v -0.0005241939215920866 0.00014279576134867966 -5.0010159611701965e-05
v -0.0005241939215920866 0.00014279576134867966 -5.0010159611701965e-05
v -0.0005241939215920866 0.00014279576134867966 -5.0010159611701965e-05
v -0.0005241939215920866 0.00014279576134867966 -5.0010159611701965e-05
v -0.0003689834557007998 -3.00465239888581e-06 5.0010159611701965e-05
v -0.0003689834557007998 -3.00465239888581e-06 5.0010159611701965e-05
v -0.0003689834557007998 -3.00465239888581e-06 5.0010159611701965e-05
v -0.0003689834557007998 -3.00465239888581e-06 5.0010159611701965e-05
v -0.0003689834557007998 -3.00465239888581e-06 5.0010159611701965e-05
v -0.0003689834557007998 -3.00465239888581e-06 5.0010159611701965e-05
v -0.0003689834557007998 -3.00465239888581e-06 5.0010159611701965e-05
v -0.0003689834557007998 -3.00465239888581e-06 5.0010159611701965e-05
v -0.0003689834557007998 -3.00465239888581e-06 5.0010159611701965e-05
v -0.0003689834557007998 -3.00465239888581e-06 -5.0010159611701965e-05
v -0.0003689834557007998 -3.00465239888581e-06 -5.0010159611701965e-05
v -0.0003689834557007998 -3.00465239888581e-06 -5.0010159611701965e-05
v -0.0003689834557007998 -3.00465239888581e-06 -5.0010159611701965e-05
v -0.0003689834557007998 -3.00465239888581e-06 -5.0010159611701965e-05
v -0.0003689834557007998 -3.00465239888581e-06 -5.0010159611701965e-05
v -0.0003689834557007998 -3.00465239888581e-06 -5.0010159611701965e-05
v -0.0003689834557007998 -3.00465239888581e-06 -5.0010159611701965e-05
v -0.0003876099071931094 -1.9515138774295337e-05 5.0010159611701965e-05
v -0.0003876099071931094 -1.9515138774295337e-05 5.0010159611701965e-05
v -0.0003876099071931094 -1.9515138774295337e-05 5.0010159611701965e-05
v -0.0003876099071931094 -1.9515138774295337e-05 5.0010159611701965e-05
v -0.0003876099071931094 -1.9515138774295337e-05 5.0010159611701965e-05
v -0.0003876099071931094 -1.9515138774295337e-05 -5.0010159611701965e-05
v -0.0003876099071931094 -1.9515138774295337e-05 -5.0010159611701965e-05
v -0.0003876099071931094 -1.9515138774295337e-05 -5.0010159611701965e-05
v -0.0003876099071931094 -1.9515138774295337e-05 -5.0010159611701965e-05
v -0.0003876099071931094 -1.9515138774295337e-05 -5.0010159611701965e-05
v -0.0003876099071931094 -1.9515138774295337e-05 -5.0010159611701965e-05
v -0.0003876099071931094 -1.9515138774295337e-05 -5.0010159611701965e-05
v -0.0007441052584908903 -0.0003296343784313649 5.0010159611701965e-05
v -0.0007441052584908903 -0.0003296343784313649 5.0010159611701965e-05
v -0.0007441052584908903 -0.0003296343784313649 5.0010159611701965e-05
v -0.0007441052584908903 -0.0003296343784313649 5.0010159611701965e-05
v -0.0007441052584908903 -0.0003296343784313649 -5.0010159611701965e-05
v -0.0007441052584908903 -0.0003296343784313649 -5.0010159611701965e-05
v -0.0007441052584908903 -0.0003296343784313649 -5.0010159611701965e-05
v -0.0007441052584908903 -0.0003296343784313649 -5.0010159611701965e-05
v -0.0012829909101128578 -0.0007982442621141672 5.0010159611701965e-05
v -0.0012829909101128578 -0.0007982442621141672 5.0010159611701965e-05
v -0.0012829909101128578 -0.0007982442621141672 5.0010159611701965e-05
v -0.0012829909101128578 -0.0007982442621141672 5.0010159611701965e-05
v -0.0012829909101128578 -0.0007982442621141672 -5.0010159611701965e-05
v -0.0012829909101128578 -0.0007982442621141672 -5.0010159611701965e-05
v -0.0012829909101128578 -0.0007982442621141672 -5.0010159611701965e-05
v -0.0012829909101128578 -0.0007982442621141672 -5.0010159611701965e-05
v -0.0012829909101128578 -0.0007982442621141672 -5.0010159611701965e-05
v -0.0012893090024590492 -0.0008038452360779047 5.0010159611701965e-05
v -0.0012893090024590492 -0.0008038452360779047 5.0010159611701965e-05
v -0.0012893090024590492 -0.0008038452360779047 5.0010159611701965e-05
v -0.0012893090024590492 -0.0008038452360779047 5.0010159611701965e-05
v -0.0012893090024590492 -0.0008038452360779047 5.0010159611701965e-05
v -0.0012893090024590492 -0.0008038452360779047 -5.0010159611701965e-05
v -0.0012893090024590492 -0.0008038452360779047 -5.0010159611701965e-05
v -0.0012893090024590492 -0.0008038452360779047 -5.0010159611701965e-05
v -0.0012893090024590492 -0.0008038452360779047 -5.0010159611701965e-05
v -0.0012893090024590492 -0.0008038452360779047 -5.0010159611701965e-05
v -0.0013386020436882973 -0.0008629749063402414 -5.0010159611701965e-05
v -0.0013386020436882973 -0.0008629749063402414 -5.0010159611701965e-05
v -0.0013386020436882973 -0.0008629749063402414 5.0010159611701965e-05
v -0.0013386020436882973 -0.0008629749063402414 5.0010159611701965e-05
v -0.0013386020436882973 -0.0008629749063402414 5.0010159611701965e-05
v -0.0013675102964043617 -0.0009355752263218164 -5.0010159611701965e-05
v -0.0013675102964043617 -0.0009355752263218164 -5.0010159611701965e-05
v -0.0013675102964043617 -0.0009355752263218164 5.0010159611701965e-05
v -0.0013675102964043617 -0.0009355752263218164 5.0010159611701965e-05
v -0.0013675102964043617 -0.0009355752263218164 5.0010159611701965e-05
v -0.0013735899701714516 -0.0009903537575155497 -5.0010159611701965e-05
v -0.0013735899701714516 -0.0009903537575155497 -5.0010159611701965e-05
v -0.0013735899701714516 -0.0009903537575155497 -5.0010159611701965e-05
v -0.0013735899701714516 -0.0009903537575155497 5.0010159611701965e-05
v -0.0013735899701714516 -0.0009903537575155497 5.0010159611701965e-05
v -0.0013735899701714516 -0.0009903537575155497 5.0010159611701965e-05
v -0.001362294889986515 -0.0010656940285116434 -5.0010159611701965e-05
v -0.001362294889986515 -0.0010656940285116434 -5.0010159611701965e-05
v -0.001362294889986515 -0.0010656940285116434 -5.0010159611701965e-05
v -0.001362294889986515 -0.0010656940285116434 -5.0010159611701965e-05
v -0.001362294889986515 -0.0010656940285116434 5.0010159611701965e-05
v -0.001362294889986515 -0.0010656940285116434 5.0010159611701965e-05
v -0.001362294889986515 -0.0010656940285116434 5.0010159611701965e-05
v -0.001362294889986515 -0.0010656940285116434 5.0010159611701965e-05
v -0.0013299891725182533 -0.0011320954654365778 -5.0010159611701965e-05
v -0.0013299891725182533 -0.0011320954654365778 -5.0010159611701965e-05
v -0.0013299891725182533 -0.0011320954654365778 -5.0010159611701965e-05
v -0.0013299891725182533 -0.0011320954654365778 5.0010159611701965e-05
v -0.0013299891725182533 -0.0011320954654365778 5.0010159611701965e-05
v -0.0013299891725182533 -0.0011320954654365778 5.0010159611701965e-05
v -0.001277209259569645 -0.0011882951948791742 -5.0010159611701965e-05
v -0.001277209259569645 -0.0011882951948791742 -5.0010159611701965e-05
v -0.001277209259569645 -0.0011882951948791742 5.0010159611701965e-05
v -0.001277209259569645 -0.0011882951948791742 5.0010159611701965e-05
v -0.0012089917436242104 -0.001225965330377221 -5.0010159611701965e-05
v -0.0012089917436242104 -0.001225965330377221 -5.0010159611701965e-05
v -0.0012089917436242104 -0.001225965330377221 -5.0010159611701965e-05
v -0.0012089917436242104 -0.001225965330377221 -5.0010159611701965e-05
v -0.0012089917436242104 -0.001225965330377221 5.0010159611701965e-05
v -0.0012089917436242104 -0.001225965330377221 5.0010159611701965e-05
v -0.0012089917436242104 -0.001225965330377221 5.0010159611701965e-05
v -0.0012089917436242104 -0.001225965330377221 5.0010159611701965e-05
v -0.001138509251177311 -0.0012403952423483133 -5.0010159611701965e-05
v -0.001138509251177311 -0.0012403952423483133 -5.0010159611701965e-05
v -0.001138509251177311 -0.0012403952423483133 -5.0010159611701965e-05
v -0.001138509251177311 -0.0012403952423483133 5.0010159611701965e-05
v -0.001138509251177311 -0.0012403952423483133 5.0010159611701965e-05
v -0.001138509251177311 -0.0012403952423483133 5.0010159611701965e-05
v -0.001138509251177311 -0.0012403952423483133 5.0010159611701965e-05
v -0.001138509251177311 -0.0012403952423483133 5.0010159611701965e-05
v -0.001138509251177311 -0.0012403952423483133 5.0010159611701965e-05
v -0.0011245915666222572 -0.0012408143375068903 -5.0010159611701965e-05
v -0.0011245915666222572 -0.0012408143375068903 -5.0010159611701965e-05
v -0.0011245915666222572 -0.0012408143375068903 -5.0010159611701965e-05
v -0.0011245915666222572 -0.0012408143375068903 5.0010159611701965e-05
v -0.0011245915666222572 -0.0012408143375068903 5.0010159611701965e-05
v -0.0011245915666222572 -0.0012408143375068903 5.0010159611701965e-05
v -0.001049698330461979 -0.0012293050531297922 -5.0010159611701965e-05
v -0.001049698330461979 -0.0012293050531297922 -5.0010159611701965e-05
v -0.001049698330461979 -0.0012293050531297922 -5.0010159611701965e-05
v -0.001049698330461979 -0.0012293050531297922 5.0010159611701965e-05
v -0.001049698330461979 -0.0012293050531297922 5.0010159611701965e-05
v -0.001049698330461979 -0.0012293050531297922 5.0010159611701965e-05
v -0.0009836861863732338 -0.0011970645282417536 -5.0010159611701965e-05
v -0.0009836861863732338 -0.0011970645282417536 -5.0010159611701965e-05
v -0.0009836861863732338 -0.0011970645282417536 -5.0010159611701965e-05
v -0.0009836861863732338 -0.0011970645282417536 -5.0010159611701965e-05
v -0.0009836861863732338 -0.0011970645282417536 5.0010159611701965e-05
v -0.0009836861863732338 -0.0011970645282417536 5.0010159611701965e-05
v -0.0009836861863732338 -0.0011970645282417536 5.0010159611701965e-05
v -0.0009836861863732338 -0.0011970645282417536 5.0010159611701965e-05
v -0.0009278961806558073 -0.0011445453856140375 -5.0010159611701965e-05
v -0.0009278961806558073 -0.0011445453856140375 -5.0010159611701965e-05
v -0.0009278961806558073 -0.0011445453856140375 -5.0010159611701965e-05
v -0.0009278961806558073 -0.0011445453856140375 5.0010159611701965e-05
v -0.0009278961806558073 -0.0011445453856140375 5.0010159611701965e-05
v -0.0009278961806558073 -0.0011445453856140375 5.0010159611701965e-05
v -6.690711597912014e-05 -0.00038828534889034927 5.0010159611701965e-05
v -6.690711597912014e-05 -0.00038828534889034927 5.0010159611701965e-05
v -6.690711597912014e-05 -0.00038828534889034927 -5.0010159611701965e-05
v -6.690711597912014e-05 -0.00038828534889034927 -5.0010159611701965e-05
v -6.690711597912014e-05 -0.00038828534889034927 -5.0010159611701965e-05
v -6.690711597912014e-05 -0.00038828534889034927 -5.0010159611701965e-05
v -4.780382732860744e-05 -0.00037254413473419845 -5.0010159611701965e-05
v -4.780382732860744e-05 -0.00037254413473419845 -5.0010159611701965e-05
v -4.780382732860744e-05 -0.00037254413473419845 -5.0010159611701965e-05
v -4.780382732860744e-05 -0.00037254413473419845 5.0010159611701965e-05
v -4.780382732860744e-05 -0.00037254413473419845 5.0010159611701965e-05
v -4.780382732860744e-05 -0.00037254413473419845 5.0010159611701965e-05
v -2.9684013497899286e-05 -0.00035597404348663986 -5.0010159611701965e-05
v -2.9684013497899286e-05 -0.00035597404348663986 -5.0010159611701965e-05
v -2.9684013497899286e-05 -0.00035597404348663986 -5.0010159611701965e-05
v -2.9684013497899286e-05 -0.00035597404348663986 5.0010159611701965e-05
v -2.9684013497899286e-05 -0.00035597404348663986 5.0010159611701965e-05
v -2.9684013497899286e-05 -0.00035597404348663986 5.0010159611701965e-05
v -1.5587515008519404e-05 -0.00034423379111103714 -5.0010159611701965e-05
v -1.5587515008519404e-05 -0.00034423379111103714 -5.0010159611701965e-05
v -1.5587515008519404e-05 -0.00034423379111103714 -5.0010159611701965e-05
v -1.5587515008519404e-05 -0.00034423379111103714 5.0010159611701965e-05
v -1.5587515008519404e-05 -0.00034423379111103714 5.0010159611701965e-05
v -1.5587515008519404e-05 -0.00034423379111103714 5.0010159611701965e-05
v -1.5587515008519404e-05 -0.00034423379111103714 5.0010159611701965e-05
v -1.9082497146882815e-06 -0.00033213404822163284 -5.0010159611701965e-05
v -1.9082497146882815e-06 -0.00033213404822163284 -5.0010159611701965e-05
v -1.9082497146882815e-06 -0.00033213404822163284 -5.0010159611701965e-05
v -1.9082497146882815e-06 -0.00033213404822163284 -5.0010159611701965e-05
v -1.9082497146882815e-06 -0.00033213404822163284 -5.0010159611701965e-05
v -1.9082497146882815e-06 -0.00033213404822163284 5.0010159611701965e-05
v -1.9082497146882815e-06 -0.00033213404822163284 5.0010159611701965e-05
v -1.9082497146882815e-06 -0.00033213404822163284 5.0010159611701965e-05
v -1.9082497146882815e-06 -0.00033213404822163284 5.0010159611701965e-05
v -1.9082497146882815e-06 -0.00033213404822163284 5.0010159611701965e-05
v 1.0012679013016168e-05 -0.0003454240213613957 -5.0010159611701965e-05
v 1.0012679013016168e-05 -0.0003454240213613957 -5.0010159611701965e-05
v 1.0012679013016168e-05 -0.0003454240213613957 -5.0010159611701965e-05
v 1.0012679013016168e-05 -0.0003454240213613957 5.0010159611701965e-05
v 1.0012679013016168e-05 -0.0003454240213613957 5.0010159611701965e-05
v 1.0012679013016168e-05 -0.0003454240213613957 5.0010159611701965e-05
v 2.4109178411890753e-05 -0.00036021528649143875 -5.0010159611701965e-05
v 2.4109178411890753e-05 -0.00036021528649143875 -5.0010159611701965e-05
v 2.4109178411890753e-05 -0.00036021528649143875 -5.0010159611701965e-05
v 2.4109178411890753e-05 -0.00036021528649143875 5.0010159611701965e-05
v 2.4109178411890753e-05 -0.00036021528649143875 5.0010159611701965e-05
v 2.4109178411890753e-05 -0.00036021528649143875 5.0010159611701965e-05
v 6.13024749327451e-05 -0.0003935938875656575 5.0010159611701965e-05
v 6.13024749327451e-05 -0.0003935938875656575 5.0010159611701965e-05
v 6.13024749327451e-05 -0.0003935938875656575 5.0010159611701965e-05
v 6.13024749327451e-05 -0.0003935938875656575 5.0010159611701965e-05
v 6.13024749327451e-05 -0.0003935938875656575 5.0010159611701965e-05
v 6.13024749327451e-05 -0.0003935938875656575 5.0010159611701965e-05
v 6.13024749327451e-05 -0.0003935938875656575 -5.0010159611701965e-05
v 6.13024749327451e-05 -0.0003935938875656575 -5.0010159611701965e-05
v 6.13024749327451e-05 -0.0003935938875656575 -5.0010159611701965e-05
v 6.13024749327451e-05 -0.0003935938875656575 -5.0010159611701965e-05
v 0.00016659407992847264 -0.00048734454321675 5.0010159611701965e-05
v 0.00016659407992847264 -0.00048734454321675 5.0010159611701965e-05
v 0.00016659407992847264 -0.00048734454321675 5.0010159611701965e-05
v 0.00016659407992847264 -0.00048734454321675 5.0010159611701965e-05
v 0.00016659407992847264 -0.00048734454321675 5.0010159611701965e-05
v 0.00016659407992847264 -0.00048734454321675 5.0010159611701965e-05
v 0.00016659407992847264 -0.00048734454321675 -5.0010159611701965e-05
v 0.00016659407992847264 -0.00048734454321675 -5.0010159611701965e-05
v 0.00016659407992847264 -0.00048734454321675 -5.0010159611701965e-05
v 0.00016659407992847264 -0.00048734454321675 -5.0010159611701965e-05
v 0.00016659407992847264 -0.00048734454321675 -5.0010159611701965e-05
v 0.00016659407992847264 -0.00048734454321675 -5.0010159611701965e-05
v 0.0002284935035277158 -0.0005428439471870661 5.0010159611701965e-05
v 0.0002284935035277158 -0.0005428439471870661 5.0010159611701965e-05
v 0.0002284935035277158 -0.0005428439471870661 5.0010159611701965e-05
v 0.0002284935035277158 -0.0005428439471870661 5.0010159611701965e-05
v 0.0002284935035277158 -0.0005428439471870661 5.0010159611701965e-05
v 0.0002284935035277158 -0.0005428439471870661 5.0010159611701965e-05
v 0.0002284935035277158 -0.0005428439471870661 -5.0010159611701965e-05
v 0.0002284935035277158 -0.0005428439471870661 -5.0010159611701965e-05
v 0.0002284935035277158 -0.0005428439471870661 -5.0010159611701965e-05
v 0.0002284935035277158 -0.0005428439471870661 -5.0010159611701965e-05
v 0.0002284935035277158 -0.0005428439471870661 -5.0010159611701965e-05
v 0.0009506932110525668 -0.0011870453599840403 5.0010159611701965e-05
v 0.0009506932110525668 -0.0011870453599840403 5.0010159611701965e-05
v 0.0009506932110525668 -0.0011870453599840403 -5.0010159611701965e-05
v 0.0009506932110525668 -0.0011870453599840403 -5.0010159611701965e-05
v 0.0009506932110525668 -0.0011870453599840403 -5.0010159611701965e-05
v 0.0009506932110525668 -0.0011870453599840403 -5.0010159611701965e-05
v 0.0009506932110525668 -0.0011870453599840403 -5.0010159611701965e-05
v 0.0009590974659658968 -0.001194793963804841 5.0010159611701965e-05
v 0.0009590974659658968 -0.001194793963804841 5.0010159611701965e-05
v 0.0009590974659658968 -0.001194793963804841 5.0010159611701965e-05
v 0.0009590974659658968 -0.001194793963804841 -5.0010159611701965e-05
v 0.0009590974659658968 -0.001194793963804841 -5.0010159611701965e-05
v 0.0009590974659658968 -0.001194793963804841 -5.0010159611701965e-05
v 0.0009590974659658968 -0.001194793963804841 -5.0010159611701965e-05
v 0.0009590974659658968 -0.001194793963804841 -5.0010159611701965e-05
v 0.0009590974659658968 -0.001194793963804841 -5.0010159611701965e-05
v 0.0010245135053992271 -0.001234553987160325 -5.0010159611701965e-05
v 0.0010245135053992271 -0.001234553987160325 -5.0010159611701965e-05
v 0.0010245135053992271 -0.001234553987160325 -5.0010159611701965e-05
v 0.0010245135053992271 -0.001234553987160325 5.0010159611701965e-05
v 0.0010245135053992271 -0.001234553987160325 5.0010159611701965e-05
v 0.0010941913351416588 -0.0012523739133030176 -5.0010159611701965e-05
v 0.0010941913351416588 -0.0012523739133030176 -5.0010159611701965e-05
v 0.0010941913351416588 -0.0012523739133030176 -5.0010159611701965e-05
v 0.0010941913351416588 -0.0012523739133030176 5.0010159611701965e-05
v 0.0010941913351416588 -0.0012523739133030176 5.0010159611701965e-05
v 0.0010941913351416588 -0.0012523739133030176 5.0010159611701965e-05
v 0.0011196127161383629 -0.001253804424777627 -5.0010159611701965e-05
v 0.0011196127161383629 -0.001253804424777627 -5.0010159611701965e-05
v 0.0011196127161383629 -0.001253804424777627 -5.0010159611701965e-05
v 0.0011196127161383629 -0.001253804424777627 -5.0010159611701965e-05
v 0.0011196127161383629 -0.001253804424777627 5.0010159611701965e-05
v 0.0011196127161383629 -0.001253804424777627 5.0010159611701965e-05
v 0.0011196127161383629 -0.001253804424777627 5.0010159611701965e-05
v 0.0011196127161383629 -0.001253804424777627 5.0010159611701965e-05
v 0.0011948039755225182 -0.001242473954334855 -5.0010159611701965e-05
v 0.0011948039755225182 -0.001242473954334855 -5.0010159611701965e-05
v 0.0011948039755225182 -0.001242473954334855 -5.0010159611701965e-05
v 0.0011948039755225182 -0.001242473954334855 5.0010159611701965e-05
v 0.0011948039755225182 -0.001242473954334855 5.0010159611701965e-05
v 0.0011948039755225182 -0.001242473954334855 5.0010159611701965e-05
v 0.0012609949335455894 -0.001210294896736741 -5.0010159611701965e-05
v 0.0012609949335455894 -0.001210294896736741 -5.0010159611701965e-05
v 0.0012609949335455894 -0.001210294896736741 -5.0010159611701965e-05
v 0.0012609949335455894 -0.001210294896736741 5.0010159611701965e-05
v 0.0012609949335455894 -0.001210294896736741 5.0010159611701965e-05
v 0.0012609949335455894 -0.001210294896736741 5.0010159611701965e-05
v 0.0013171127066016197 -0.0011574237141758204 -5.0010159611701965e-05
v 0.0013171127066016197 -0.0011574237141758204 -5.0010159611701965e-05
v 0.0013171127066016197 -0.0011574237141758204 5.0010159611701965e-05
v 0.0013171127066016197 -0.0011574237141758204 5.0010159611701965e-05
v 0.0013548126444220543 -0.0010891745332628489 -5.0010159611701965e-05
v 0.0013548126444220543 -0.0010891745332628489 -5.0010159611701965e-05
v 0.0013548126444220543 -0.0010891745332628489 -5.0010159611701965e-05
v 0.0013548126444220543 -0.0010891745332628489 -5.0010159611701965e-05
v 0.0013548126444220543 -0.0010891745332628489 5.0010159611701965e-05
v 0.0013548126444220543 -0.0010891745332628489 5.0010159611701965e-05
v 0.0013548126444220543 -0.0010891745332628489 5.0010159611701965e-05
v 0.0013548126444220543 -0.0010891745332628489 5.0010159611701965e-05
v 0.0013548126444220543 -0.0010891745332628489 5.0010159611701965e-05
v 0.0013692965731024742 -0.0010185448918491602 -5.0010159611701965e-05
v 0.0013692965731024742 -0.0010185448918491602 -5.0010159611701965e-05
v 0.0013692965731024742 -0.0010185448918491602 -5.0010159611701965e-05
v 0.0013692965731024742 -0.0010185448918491602 -5.0010159611701965e-05
v 0.0013692965731024742 -0.0010185448918491602 -5.0010159611701965e-05
v 0.0013692965731024742 -0.0010185448918491602 5.0010159611701965e-05
v 0.0013692965731024742 -0.0010185448918491602 5.0010159611701965e-05
v 0.0013692965731024742 -0.0010185448918491602 5.0010159611701965e-05
v 0.0013692965731024742 -0.0010185448918491602 5.0010159611701965e-05
v 0.001369713805615902 -0.0010044148657470942 -5.0010159611701965e-05
v 0.001369713805615902 -0.0010044148657470942 -5.0010159611701965e-05
v 0.001369713805615902 -0.0010044148657470942 -5.0010159611701965e-05
v 0.001369713805615902 -0.0010044148657470942 5.0010159611701965e-05
v 0.001369713805615902 -0.0010044148657470942 5.0010159611701965e-05
v 0.0013585081323981285 -0.0009293744806200266 -5.0010159611701965e-05
v 0.0013585081323981285 -0.0009293744806200266 -5.0010159611701965e-05
v 0.0013585081323981285 -0.0009293744806200266 -5.0010159611701965e-05
v 0.0013585081323981285 -0.0009293744806200266 5.0010159611701965e-05
v 0.0013585081323981285 -0.0009293744806200266 5.0010159611701965e-05
v 0.0013585081323981285 -0.0009293744806200266 5.0010159611701965e-05
v 0.0013265004381537437 -0.0008632747922092676 -5.0010159611701965e-05
v 0.0013265004381537437 -0.0008632747922092676 -5.0010159611701965e-05
v 0.0013265004381537437 -0.0008632747922092676 -5.0010159611701965e-05
v 0.0013265004381537437 -0.0008632747922092676 5.0010159611701965e-05
v 0.0013265004381537437 -0.0008632747922092676 5.0010159611701965e-05
v 0.0013265004381537437 -0.0008632747922092676 5.0010159611701965e-05
v 0.001286088488996029 -0.0008175543043762445 -5.0010159611701965e-05
v 0.001286088488996029 -0.0008175543043762445 -5.0010159611701965e-05
v 0.001286088488996029 -0.0008175543043762445 5.0010159611701965e-05
v 0.001286088488996029 -0.0008175543043762445 5.0010159611701965e-05
v 0.0012791147455573082 -0.0008118937257677317 5.0010159611701965e-05
v 0.0012791147455573082 -0.0008118937257677317 5.0010159611701965e-05
v 0.0012791147455573082 -0.0008118937257677317 -5.0010159611701965e-05
v 0.0012791147455573082 -0.0008118937257677317 -5.0010159611701965e-05
v 0.0012791147455573082 -0.0008118937257677317 -5.0010159611701965e-05
v 0.0007441035122610629 -0.00033911524224095047 5.0010159611701965e-05
v 0.0007441035122610629 -0.00033911524224095047 5.0010159611701965e-05
v 0.0007441035122610629 -0.00033911524224095047 5.0010159611701965e-05
v 0.0007441035122610629 -0.00033911524224095047 -5.0010159611701965e-05
v 0.0007441035122610629 -0.00033911524224095047 -5.0010159611701965e-05
v 0.0007441035122610629 -0.00033911524224095047 -5.0010159611701965e-05
v 0.0005583158344961703 -0.0001750739465933293 5.0010159611701965e-05
v 0.0005583158344961703 -0.0001750739465933293 5.0010159611701965e-05
v 0.0005583158344961703 -0.0001750739465933293 5.0010159611701965e-05
v 0.0005583158344961703 -0.0001750739465933293 -5.0010159611701965e-05
v 0.0005583158344961703 -0.0001750739465933293 -5.0010159611701965e-05
v 0.0005410900921560824 -0.00015791525947861373 5.0010159611701965e-05
v 0.0005410900921560824 -0.00015791525947861373 5.0010159611701965e-05
v 0.0005410900921560824 -0.00015791525947861373 5.0010159611701965e-05
v 0.0005410900921560824 -0.00015791525947861373 5.0010159611701965e-05
v 0.0005410900921560824 -0.00015791525947861373 -5.0010159611701965e-05
v 0.0005410900921560824 -0.00015791525947861373 -5.0010159611701965e-05
v 0.0005410900921560824 -0.00015791525947861373 -5.0010159611701965e-05
v 0.0005246094078756869 -0.00014277381706051528 5.0010159611701965e-05
v 0.0005246094078756869 -0.00014277381706051528 5.0010159611701965e-05
v 0.0005246094078756869 -0.00014277381706051528 5.0010159611701965e-05
v 0.0005246094078756869 -0.00014277381706051528 5.0010159611701965e-05
v 0.0005246094078756869 -0.00014277381706051528 5.0010159611701965e-05
v 0.0005246094078756869 -0.00014277381706051528 -5.0010159611701965e-05
v 0.0005246094078756869 -0.00014277381706051528 -5.0010159611701965e-05
v 0.0005246094078756869 -0.00014277381706051528 -5.0010159611701965e-05
v 0.0003690114535856992 2.9558120786532527e-06 5.0010159611701965e-05
v 0.0003690114535856992 2.9558120786532527e-06 5.0010159611701965e-05
v 0.0003690114535856992 2.9558120786532527e-06 5.0010159611701965e-05
v 0.0003690114535856992 2.9558120786532527e-06 5.0010159611701965e-05
v 0.0003690114535856992 2.9558120786532527e-06 5.0010159611701965e-05
v 0.0003690114535856992 2.9558120786532527e-06 5.0010159611701965e-05
v 0.0003690114535856992 2.9558120786532527e-06 5.0010159611701965e-05
v 0.0003690114535856992 2.9558120786532527e-06 5.0010159611701965e-05
v 0.0003690114535856992 2.9558120786532527e-06 5.0010159611701965e-05
v 0.0003690114535856992 2.9558120786532527e-06 -5.0010159611701965e-05
v 0.0003690114535856992 2.9558120786532527e-06 -5.0010159611701965e-05
v 0.0003690114535856992 2.9558120786532527e-06 -5.0010159611701965e-05
v 0.0003690114535856992 2.9558120786532527e-06 -5.0010159611701965e-05
v 0.0003690114535856992 2.9558120786532527e-06 -5.0010159611701965e-05
v 0.0003690114535856992 2.9558120786532527e-06 -5.0010159611701965e-05
v 0.0003690114535856992 2.9558120786532527e-06 -5.0010159611701965e-05
v 0.0003690114535856992 2.9558120786532527e-06 -5.0010159611701965e-05
v 0.0003690114535856992 2.9558120786532527e-06 -5.0010159611701965e-05
v 0.00038719087024219334 1.8816235751728527e-05 5.0010159611701965e-05
v 0.00038719087024219334 1.8816235751728527e-05 5.0010159611701965e-05
v 0.00038719087024219334 1.8816235751728527e-05 5.0010159611701965e-05
v 0.00038719087024219334 1.8816235751728527e-05 5.0010159611701965e-05
v 0.00038719087024219334 1.8816235751728527e-05 5.0010159611701965e-05
v 0.00038719087024219334 1.8816235751728527e-05 5.0010159611701965e-05
v 0.00038719087024219334 1.8816235751728527e-05 5.0010159611701965e-05
v 0.00038719087024219334 1.8816235751728527e-05 -5.0010159611701965e-05
v 0.00038719087024219334 1.8816235751728527e-05 -5.0010159611701965e-05
v 0.00038719087024219334 1.8816235751728527e-05 -5.0010159611701965e-05
v 0.00038719087024219334 1.8816235751728527e-05 -5.0010159611701965e-05
v 0.00038719087024219334 1.8816235751728527e-05 -5.0010159611701965e-05
v 0.00038719087024219334 1.8816235751728527e-05 -5.0010159611701965e-05
v 0.0007444909424521029 0.00033001581323333085 5.0010159611701965e-05
v 0.0007444909424521029 0.00033001581323333085 5.0010159611701965e-05
v 0.0007444909424521029 0.00033001581323333085 5.0010159611701965e-05
v 0.0007444909424521029 0.00033001581323333085 -5.0010159611701965e-05
v 0.0007444909424521029 0.00033001581323333085 -5.0010159611701965e-05
v 0.0007444909424521029 0.00033001581323333085 -5.0010159611701965e-05
v 0.0007444909424521029 0.00033001581323333085 -5.0010159611701965e-05
v 0.0007444909424521029 0.00033001581323333085 -5.0010159611701965e-05
v 0.0012819161638617516 0.0007975453045219183 5.0010159611701965e-05
v 0.0012819161638617516 0.0007975453045219183 5.0010159611701965e-05
v 0.0012819161638617516 0.0007975453045219183 5.0010159611701965e-05
v 0.0012819161638617516 0.0007975453045219183 5.0010159611701965e-05
v 0.0012819161638617516 0.0007975453045219183 5.0010159611701965e-05
v 0.0012819161638617516 0.0007975453045219183 5.0010159611701965e-05
v 0.0012819161638617516 0.0007975453045219183 -5.0010159611701965e-05
v 0.0012819161638617516 0.0007975453045219183 -5.0010159611701965e-05
v 0.0012819161638617516 0.0007975453045219183 -5.0010159611701965e-05
v 0.0012819161638617516 0.0007975453045219183 -5.0010159611701965e-05
v 0.0012819161638617516 0.0007975453045219183 -5.0010159611701965e-05
v 0.0012819161638617516 0.0007975453045219183 -5.0010159611701965e-05
v 0.001289605163037777 0.0008038652595132589 5.0010159611701965e-05
v 0.001289605163037777 0.0008038652595132589 5.0010159611701965e-05
v 0.001289605163037777 0.0008038652595132589 5.0010159611701965e-05
v 0.001289605163037777 0.0008038652595132589 -5.0010159611701965e-05
v 0.001289605163037777 0.0008038652595132589 -5.0010159611701965e-05
v 0.001289605163037777 0.0008038652595132589 -5.0010159611701965e-05
v 0.001338808797299862 0.0008628757204860449 -5.0010159611701965e-05
v 0.001338808797299862 0.0008628757204860449 -5.0010159611701965e-05
v 0.001338808797299862 0.0008628757204860449 -5.0010159611701965e-05
v 0.001338808797299862 0.0008628757204860449 5.0010159611701965e-05
v 0.001338808797299862 0.0008628757204860449 5.0010159611701965e-05
v 0.001338808797299862 0.0008628757204860449 5.0010159611701965e-05
v 0.0013678064569830894 0.0009354760404676199 -5.0010159611701965e-05
v 0.0013678064569830894 0.0009354760404676199 -5.0010159611701965e-05
v 0.0013678064569830894 0.0009354760404676199 -5.0010159611701965e-05
v 0.0013678064569830894 0.0009354760404676199 5.0010159611701965e-05
v 0.0013678064569830894 0.0009354760404676199 5.0010159611701965e-05
v 0.0013678064569830894 0.0009354760404676199 5.0010159611701965e-05
v 0.001373915933072567 0.0009907258208841085 -5.0010159611701965e-05
v 0.001373915933072567 0.0009907258208841085 -5.0010159611701965e-05
v 0.001373915933072567 0.0009907258208841085 -5.0010159611701965e-05
v 0.001373915933072567 0.0009907258208841085 5.0010159611701965e-05
v 0.001373915933072567 0.0009907258208841085 5.0010159611701965e-05
v 0.001373915933072567 0.0009907258208841085 5.0010159611701965e-05
v 0.0013625910505652428 0.0010658854153007269 -5.0010159611701965e-05
v 0.0013625910505652428 0.0010658854153007269 -5.0010159611701965e-05
v 0.0013625910505652428 0.0010658854153007269 -5.0010159611701965e-05
v 0.0013625910505652428 0.0010658854153007269 -5.0010159611701965e-05
v 0.0013625910505652428 0.0010658854153007269 5.0010159611701965e-05
v 0.0013625910505652428 0.0010658854153007269 5.0010159611701965e-05
v 0.0013625910505652428 0.0010658854153007269 5.0010159611701965e-05
v 0.0013625910505652428 0.0010658854153007269 5.0010159611701965e-05
v 0.0013304045423865318 0.0011321657802909613 -5.0010159611701965e-05
v 0.0013304045423865318 0.0011321657802909613 -5.0010159611701965e-05
v 0.0013304045423865318 0.0011321657802909613 -5.0010159611701965e-05
v 0.0013304045423865318 0.0011321657802909613 5.0010159611701965e-05
v 0.0013304045423865318 0.0011321657802909613 5.0010159611701965e-05
v 0.0012774160131812096 0.0011883748229593039 -5.0010159611701965e-05
v 0.0012774160131812096 0.0011883748229593039 -5.0010159611701965e-05
v 0.0012774160131812096 0.0011883748229593039 5.0010159611701965e-05
v 0.0012774160131812096 0.0011883748229593039 5.0010159611701965e-05
v 0.001209198497235775 0.0012259853538125753 -5.0010159611701965e-05
v 0.001209198497235775 0.0012259853538125753 -5.0010159611701965e-05
v 0.001209198497235775 0.0012259853538125753 -5.0010159611701965e-05
v 0.001209198497235775 0.0012259853538125753 5.0010159611701965e-05
v 0.001209198497235775 0.0012259853538125753 5.0010159611701965e-05
v 0.001209198497235775 0.0012259853538125753 5.0010159611701965e-05
v 0.0011387160047888756 0.0012404152657836676 -5.0010159611701965e-05
v 0.0011387160047888756 0.0012404152657836676 -5.0010159611701965e-05
v 0.0011387160047888756 0.0012404152657836676 -5.0010159611701965e-05
v 0.0011387160047888756 0.0012404152657836676 -5.0010159611701965e-05
v 0.0011387160047888756 0.0012404152657836676 -5.0010159611701965e-05
v 0.0011387160047888756 0.0012404152657836676 -5.0010159611701965e-05
v 0.0011387160047888756 0.0012404152657836676 5.0010159611701965e-05
v 0.0011387160047888756 0.0012404152657836676 5.0010159611701965e-05
v 0.0011387160047888756 0.0012404152657836676 5.0010159611701965e-05
v 0.0011387160047888756 0.0012404152657836676 5.0010159611701965e-05
v 0.0011387160047888756 0.0012404152657836676 5.0010159611701965e-05
v 0.0011387160047888756 0.0012404152657836676 5.0010159611701965e-05
v 0.0011387160047888756 0.0012404152657836676 5.0010159611701965e-05
v 0.0011387160047888756 0.0012404152657836676 5.0010159611701965e-05
f 1 4 7
f 1 7 12
f 12 7 15
f 12 15 17
f 17 15 20
f 17 20 22
f 25 22 28
f 28 22 20
f 25 28 34
f 25 34 35
f 35 34 38
f 35 38 41
f 41 38 45
f 41 45 48
f 48 45 51
f 48 51 56
f 58 49 61
f 58 61 64
f 64 61 66
f 64 66 70
f 74 70 79
f 79 70 66
f 82 72 89
f 91 72 77
f 97 83 102
f 100 81 90
f 104 95 107
f 107 95 99
f 109 104 120
f 120 104 107
f 109 120 121
f 109 121 125
f 125 121 128
f 125 128 131
f 131 128 136
f 131 136 140
f 140 136 142
f 140 142 146
f 146 142 148
f 146 148 150
f 150 148 153
f 150 153 156
f 156 153 158
f 156 158 164
f 164 158 169
f 164 169 175
f 175 169 176
f 175 176 179
f 179 176 183
f 179 183 185
f 185 183 188
f 185 188 192
f 192 188 197
f 192 197 200
f 203 200 205
f 205 200 197
f 208 203 210
f 210 203 205
f 212 208 216
f 216 208 210
f 221 212 222
f 222 212 216
f 228 217 232
f 233 221 222
f 239 225 250
f 247 224 231
f 256 236 263
f 258 242 244
f 266 252 268
f 269 256 263
f 272 264 278
f 279 267 271
f 285 272 290
f 290 272 278
f 285 290 291
f 285 291 295
f 295 291 297
f 295 297 299
f 299 297 303
f 299 303 306
f 306 303 310
f 306 310 314
f 314 310 317
f 314 317 318
f 318 317 322
f 318 322 324
f 324 322 326
f 324 326 331
f 331 326 335
f 331 335 341
f 341 335 343
f 341 343 345
f 345 343 350
f 345 350 353
f 353 350 354
f 353 354 360
f 360 354 362
f 360 362 366
f 368 366 370
f 370 366 362
f 368 370 375
f 368 375 378
f 378 375 380
f 378 380 383
f 383 380 386
f 383 386 389
f 389 386 396
f 389 396 400
f 401 397 405
f 401 405 407
f 407 405 410
f 407 410 412
f 418 412 421
f 421 412 410
f 425 416 433
f 434 417 424
f 438 426 444
f 443 427 435
f 448 440 452
f 451 437 445
f 457 448 461
f 461 448 452
f 457 461 466
f 457 466 467
f 467 466 471
f 467 471 472
f 472 471 475
f 472 475 481
f 481 475 484
f 481 484 487
f 487 484 490
f 487 490 493
f 493 490 496
f 493 496 498
f 498 496 500
f 498 500 503
f 503 500 509
f 503 509 514
f 514 509 519
f 514 519 521
f 521 519 524
f 521 524 527
f 527 524 530
f 527 530 531
f 531 530 534
f 531 534 536
f 538 536 542
f 542 536 534
f 544 538 548
f 548 538 542
f 549 544 552
f 552 544 548
f 555 549 560
f 560 549 552
f 562 555 566
f 566 555 560
f 569 564 578
f 579 562 566
f 593 577 594
f 599 570 582
f 601 590 607
f 606 591 598
f 613 602 617
f 617 602 605
f 621 613 625
f 625 613 617
f 621 625 627
f 621 627 631
f 631 627 632
f 631 632 635
f 635 632 638
f 635 638 641
f 641 638 645
f 641 645 650
f 650 645 653
f 650 653 655
f 655 653 657
f 655 657 659
f 659 657 662
f 659 662 666
f 666 662 672
f 666 672 675
f 675 672 4
f 675 4 1
f 274 358 367
f 539 456 537
f 240 57 63
f 238 571 54
f 55 576 587
f 54 592 47
f 47 592 42
f 199 103 110
f 608 24 600
f 600 24 27
f 600 27 592
f 588 26 36
f 589 37 43
f 273 365 265
f 265 365 369
f 265 369 255
f 369 377 255
f 253 379 384
f 254 385 391
f 255 390 238
f 237 392 399
f 238 402 571
f 575 398 406
f 574 408 414
f 359 275 281
f 361 284 351
f 352 282 347
f 449 456 539
f 449 539 543
f 449 543 441
f 573 413 415
f 572 420 563
f 561 419 428
f 565 429 557
f 556 430 439
f 554 441 550
f 551 442 545
f 468 513 456
f 456 513 520
f 629 637 680
f 3 10 612
f 611 11 16
f 610 18 23
f 207 93 201
f 202 94 105
f 202 105 198
f 209 214 94
f 92 213 220
f 96 219 80
f 84 218 229
f 85 227 75
f 73 226 241
f 71 243 68
f 69 235 62
f 346 284 337
f 336 283 293
f 338 294 298
f 492 497 504
f 2 608 673
f 674 609 622
f 678 620 630
f 180 113 171
f 173 111 126
f 300 304 340
f 339 305 312
f 337 313 332
f 329 311 320
f 330 319 323
f 520 525 456
f 455 526 533
f 456 532 537
f 636 643 679
f 676 642 648
f 677 651 664
f 665 649 656
f 665 656 660
f 152 155 165
f 181 186 112
f 114 187 193
f 112 191 198
f 468 474 513
f 515 473 479
f 516 480 505
f 506 482 488
f 507 486 494
f 124 132 172
f 174 130 138
f 172 137 162
f 163 139 145
f 162 144 151
f 364 356 276
f 223 215 98
f 78 65 246
f 6 669 618
f 541 535 529
f 465 459 510
f 249 67 60
f 245 59 50
f 596 52 46
f 52 596 586
f 53 584 248
f 246 586 257
f 5 615 8
f 432 422 586
f 585 423 409
f 29 604 32
f 33 603 596
f 31 595 40
f 39 597 44
f 603 30 21
f 603 21 618
f 511 463 517
f 580 567 436
f 431 568 558
f 432 559 446
f 381 257 388
f 387 261 394
f 393 262 583
f 395 581 403
f 404 586 411
f 223 98 234
f 230 101 88
f 234 86 246
f 251 87 76
f 184 178 119
f 118 177 166
f 115 170 122
f 616 19 14
f 619 13 9
f 460 453 540
f 541 450 547
f 546 454 447
f 547 446 553
f 553 446 559
f 280 355 286
f 287 357 348
f 288 349 342
f 259 382 374
f 260 376 373
f 363 277 372
f 371 276 270
f 371 270 257
f 634 628 669
f 667 626 623
f 670 624 614
f 344 334 289
f 289 334 296
f 289 296 292
f 215 211 98
f 98 211 204
f 98 204 106
f 108 206 196
f 106 194 119
f 116 195 189
f 117 190 182
f 159 133 168
f 167 134 127
f 168 129 123
f 658 652 663
f 661 654 644
f 663 646 669
f 671 647 640
f 668 639 633
f 541 529 463
f 458 528 523
f 462 522 518
f 499 478 511
f 512 476 469
f 508 470 464
f 321 315 328
f 325 316 308
f 327 309 334
f 333 307 302
f 334 301 296
f 154 149 157
f 160 147 143
f 161 141 135
f 495 491 499
f 502 489 483
f 501 485 477
