mtllib converted_link5_3_000000ff.mtl
usemtl material
v 0.0009115032153204083 0.005287480540573597 -0.003946568351238966
v 0.0008317540632560849 0.005361630581319332 -0.004465898498892784
v 0.0008318136679008603 -0.002775179920718074 -0.00446541840210557
v 0.0005882635014131665 0.005587589927017689 -0.005761938169598579
v 0.00038132359622977674 0.005779399536550045 -0.006661198567599058
v 0.00038132359622977674 -0.0022751602809876204 -0.006661198567599058
v 0.0004952839808538556 -0.0027736301999539137 0.006181751377880573
v 0.00047525306581519544 -0.0027598615270107985 0.006268541794270277
v 0.0007606438593938947 0.005427609197795391 0.00487999152392149
v 0.0004561237001325935 -0.0027327414136379957 0.006350431591272354
v 0.00043788281618617475 -0.002692329464480281 0.006427201442420483
v 0.00042197396396659315 -0.002642149804159999 0.006493541412055492
v 0.0004078439378645271 -0.0025807495694607496 0.006551841739565134
v 0.00039664385258220136 -0.002512450097128749 0.006597851403057575
v 0.0003882340097334236 -0.002437109826132655 0.006632011383771896
v 0.0003829925262834877 -0.0023566398303955793 0.006653051823377609
v 0.00038132359622977674 -0.0022751602809876204 0.006660021375864744
v 0.0005857638316228986 0.0055899107828736305 0.005772331729531288
v 0.00038132359622977674 0.005779399536550045 0.006660021375864744
v 0.0008317540632560849 0.005361630581319332 0.004464661702513695
v 0.0008318136679008603 -0.002775179920718074 0.0044641816057264805
v 0.00080546282697469 -0.002775179920718074 0.004622671753168106
v 0.0005045227007940412 -0.002775179920718074 0.006141281686723232
v 0.00080546282697469 -0.002775179920718074 -0.0046239085495471954
v 0.00043371421634219587 -0.002529128221794963 -0.0064459084533154964
v 0.000765114207752049 0.005423500202596188 -0.004856308456510305
v 0.0005045227007940412 -0.002775179920718074 -0.006142518483102322
v 0.0004843725764658302 -0.002767908154055476 -0.006230438593775034
v 0.0004640529805328697 -0.0027457389514893293 -0.006317878607660532
v 0.0004121932142879814 -0.0026017900090664625 -0.006535198539495468
v 0.00042715398012660444 -0.0026603180449455976 -0.006473268382251263
v 0.0004452141874935478 -0.002710508881136775 -0.006397688295692205
v 0.0003837040567304939 -0.0023714813869446516 -0.006651478353887796
v 0.00038990293978713453 -0.0024551700334995985 -0.006626448594033718
v 0.0003990839177276939 -0.0025294299703091383 -0.00658913841471076
v 0.00038138320087455213 -0.0022904190700501204 -0.006660958286374807
v 0.0010276130633428693 0.005179590545594692 -0.0030324081890285015
v 0.0010211142944172025 -0.002775179920718074 -0.003090818179771304
v 0.0011133226798847318 0.005099899135529995 -0.0021135981660336256
v 0.0011033128248527646 -0.002775179920718074 -0.0022403181064873934
v 0.0011684625642374158 0.005048579536378384 -0.0011899681994691491
v 0.001150754396803677 -0.002775179920718074 -0.001548138214275241
v 0.0011927738087251782 0.005025989376008511 -0.0002611581585370004
v 0.0011940329568460584 -0.002775179920718074 -6.181750791256491e-07
v 0.0011940329568460584 0.005024799145758152 -6.181750791256491e-07
v 0.001108204131014645 0.0051046693697571754 0.0021778119262307882
v 0.0011648825602605939 0.005051919259130955 0.0012693818425759673
v 0.001150754396803677 -0.002775179920718074 0.0015469018835574389
v 0.0011917027877643704 0.005027010105550289 0.00035736183053813875
v 0.0009060233132913709 0.005292599089443684 0.003983351401984692
v 0.001021892880089581 0.0051848990842700005 0.003082551760599017
v 0.0010211142944172025 -0.002775179920718074 0.003089581849053502
v 0.0011033128248527646 -0.002775179920718074 0.0022390817757695913
v 0.000720652868039906 -0.0022751602809876204 -0.007920758798718452
v -0.0021286262199282646 -0.0022751602809876204 -0.007920758798718452
v -0.0021286262199282646 -0.0022751602809876204 -0.007920758798718452
v -0.0021286262199282646 -0.0022751602809876204 -0.007920758798718452
v -0.0021286262199282646 -0.0022751602809876204 -0.007920758798718452
v 0.000720652868039906 0.006289190612733364 -0.007920758798718452
v 0.000720652868039906 0.006289190612733364 -0.007920758798718452
v 0.000720652868039906 0.006289190612733364 -0.007920758798718452
v -0.0021286262199282646 0.006289190612733364 -0.007920758798718452
v -0.0021286262199282646 0.006289190612733364 -0.007920758798718452
v -0.0021286262199282646 0.006289190612733364 -0.007920758798718452
v -0.0021286262199282646 -0.004275190643966198 -0.005920788273215294
v -0.0021286262199282646 -0.004275190643966198 -0.005920788273215294
v -0.0021286262199282646 -0.004275190643966198 -0.005920788273215294
v 0.0011678627924993634 -0.004275190643966198 -0.005920788273215294
v 0.0012446335749700665 -0.004275190643966198 -0.005549628287553787
v 0.0014420441584661603 -0.004275190643966198 -0.004450218286365271
v 0.0015958241419866681 -0.004275190643966198 -0.003343898104503751
v 0.0017058543162420392 -0.004275190643966198 -0.0022323380690068007
v 0.0017058543162420392 -0.004275190643966198 0.0022311017382889986
v 0.0015958241419866681 -0.004275190643966198 0.0033426617737859488
v -0.0021286262199282646 -0.004275190643966198 0.0059195514768362045
v -0.0021286262199282646 -0.004275190643966198 0.0059195514768362045
v 0.0014420441584661603 -0.004275190643966198 0.004448981489986181
v 0.0011678627924993634 -0.004275190643966198 0.0059195514768362045
v 0.0017719540046527982 -0.004275190643966198 -0.0011173081584274769
v 0.0017940133111551404 -0.004275190643966198 -6.181750791256491e-07
v 0.0017719540046527982 -0.004275190643966198 0.0011160718277096748
v 0.000720652868039906 0.006289190612733364 0.007919522002339363
v 0.000720652868039906 0.006289190612733364 0.007919522002339363
v 0.000720652868039906 0.006289190612733364 0.007919522002339363
v -0.0021286262199282646 0.006289190612733364 0.007919522002339363
v -0.0021286262199282646 0.006289190612733364 0.007919522002339363
v -0.0021286262199282646 0.006289190612733364 0.007919522002339363
v 0.000720652868039906 -0.0022751602809876204 0.007919522002339363
v -0.0021286262199282646 -0.0022751602809876204 0.007919522002339363
v -0.0021286262199282646 -0.0022751602809876204 0.007919522002339363
v -0.0021286262199282646 -0.0022751602809876204 0.007919522002339363
v -0.0021286262199282646 -0.0022751602809876204 0.007919522002339363
v -1.3495699022314511e-05 0.006157829426229 0.007422841619700193
v -0.00020137698447797447 0.006178929470479488 0.0075050415471196175
v 0.00014278395974542946 0.006132080219686031 0.007321451790630817
v 0.0009130529360845685 0.006249799393117428 0.00777409179136157
v 0.0009130529360845685 0.006249799393117428 0.00777409179136157
v 0.0011859826045110822 0.005991409532725811 0.006737741641700268
v 0.0011859826045110822 0.005991409532725811 0.006737741641700268
v 0.0005104235606268048 0.006018410436809063 0.006853971630334854
v 0.00041082417010329664 0.006061679683625698 0.007035651709884405
v 0.00029519302188418806 0.006097509525716305 0.007182511501014233
v 0.0008725832449272275 0.006270120851695538 0.007849551737308502
v 0.0008725832449272275 0.006270120851695538 0.007849551737308502
v 0.0008725832449272275 0.006270120851695538 0.007849551737308502
v 0.0008042725967243314 0.006284189410507679 0.00790123175829649
v 0.0008042725967243314 0.006284189410507679 0.00790123175829649
v 0.0008042725967243314 0.006284189410507679 0.00790123175829649
v -0.0021286262199282646 0.006195549853146076 0.007569051813334227
v -0.0021286262199282646 0.006195549853146076 0.007569051813334227
v -0.0021286262199282646 0.006195549853146076 0.007569051813334227
v -0.0021286262199282646 0.006195549853146076 0.007569051813334227
v -0.0005893361521884799 0.006195549853146076 0.007569051813334227
v -0.00038578631938435137 0.0061910199001431465 0.00755176180973649
v 0.0016342728631570935 0.00556637067347765 0.004513361491262913
v 0.0016342728631570935 0.00556637067347765 0.004513361491262913
v 0.0017944230930879712 0.005414380691945553 0.0033662717323750257
v 0.0017944230930879712 0.005414380691945553 0.0033662717323750257
v 0.0011797837214544415 0.005421350710093975 0.003427361836656928
v 0.0011039628880098462 0.0054908497259020805 0.003985561430454254
v 0.0009575235890224576 0.0056249601766467094 0.004882671404629946
v 0.0014407943235710263 0.005749889649450779 0.005587611813098192
v 0.0014407943235710263 0.005749889649450779 0.005587611813098192
v 0.0007813825504854321 0.0057861292734742165 0.0057754917070269585
v 0.0005754540907219052 0.0059744203463196754 0.006663661450147629
v 0.001994042657315731 0.005224830470979214 -4.408174845593749e-06
v 0.001994042657315731 0.005224830470979214 -4.408174845593749e-06
v 0.001391683821566403 0.005226979963481426 0.0003575618320610374
v 0.001971813850104809 0.005245930515229702 0.001124001806601882
v 0.001971813850104809 0.005245930515229702 0.001124001806601882
v 0.0013646736042574048 0.005251769907772541 0.001270031789317727
v 0.0019041030900552869 0.005310249514877796 0.0022616118658334017
v 0.0019041030900552869 0.005310249514877796 0.0022616118658334017
v 0.0013075742172077298 0.005304110236465931 0.002179001923650503
v 0.0012206743704155087 0.005383859388530254 0.0030842218548059464
v 0.0017871531890705228 0.0054212892428040504 -0.0034281781408935785
v 0.0017871531890705228 0.0054212892428040504 -0.0034281781408935785
v 0.0012263926910236478 0.0053786104544997215 -0.003034078050404787
v 0.0019042837666347623 0.00531007070094347 -0.0022602882236242294
v 0.0019042837666347623 0.00531007070094347 -0.0022602882236242294
v 0.0013127039419487119 0.005299399606883526 -0.0021147981751710176
v 0.001971033401787281 0.005246649496257305 -0.0011453281622380018
v 0.001971033401787281 0.005246649496257305 -0.0011453281622380018
v 0.001368313212879002 0.005248439498245716 -0.001190628157928586
v 0.0013928125845268369 0.005225970409810543 -0.00026128816534765065
v 0.001634623040445149 0.005566009320318699 -0.004512208513915539
v 0.001634623040445149 0.005566009320318699 -0.004512208513915539
v 0.0011095135705545545 0.005485779605805874 -0.003948708530515432
v 0.0011797837214544415 0.005421350710093975 -0.003428658237680793
v -0.0004371673858258873 0.006193050183355808 -0.00756068853661418
v -0.00023773581779096276 0.006181959994137287 -0.0075180185958743095
v -0.0005893361521884799 0.006195549853146076 -0.007570288609713316
v -0.0021286262199282646 0.006195549853146076 -0.007570288609713316
v -0.0021286262199282646 0.006195549853146076 -0.007570288609713316
v -0.0021286262199282646 0.006195549853146076 -0.007570288609713316
v -0.0021286262199282646 0.006195549853146076 -0.007570288609713316
v -0.0021286262199282646 0.006195549853146076 -0.007570288609713316
v 0.0008725832449272275 0.006270120851695538 -0.007850788533687592
v 0.0008725832449272275 0.006270120851695538 -0.007850788533687592
v 0.0008725832449272275 0.006270120851695538 -0.007850788533687592
v 0.0008725832449272275 0.006270120851695538 -0.007850788533687592
v 0.0008042725967243314 0.006284189410507679 -0.007902468554675579
v 0.0008042725967243314 0.006284189410507679 -0.007902468554675579
v 0.0008042725967243314 0.006284189410507679 -0.007902468554675579
v 0.0009130529360845685 0.006249799393117428 -0.00777532858774066
v 0.0009130529360845685 0.006249799393117428 -0.00777532858774066
v 0.00012722342216875404 0.006135060451924801 -0.007334438618272543
v -4.70568411401473e-05 0.006162299774587154 -0.007441598456352949
v 0.0002821340167429298 0.006100899539887905 -0.007197698578238487
v 0.0004107030981685966 0.006061679683625698 -0.007037068251520395
v 0.0011853828327730298 0.005991949699819088 -0.006741488352417946
v 0.0011853828327730298 0.005991949699819088 -0.006741488352417946
v 0.0005081027047708631 0.006019660271704197 -0.006860458292067051
v 0.0005754540907219052 0.0059744203463196754 -0.006664898246526718
v 0.0014201729791238904 0.005769439972937107 -0.005691078491508961
v 0.0014201729791238904 0.005769439972937107 -0.005691078491508961
v 0.0007838933961465955 0.005783869884908199 -0.005765098612755537
v 0.0009619939373806119 0.005620849318802357 -0.0048589883372187614
v 0.0009130529360845685 -0.0022751602809876204 0.00777409179136157
v 0.001004303921945393 -0.0030135984998196363 0.007444771472364664
v 0.0009224127279594541 -0.002617890713736415 0.007740951608866453
v 0.0009287941502407193 -0.002717840252444148 0.007718421518802643
v 0.0009137141751125455 -0.00236492115072906 0.007771821692585945
v 0.0009513228433206677 -0.0029598388355225325 0.007637831382453442
v 0.0009830343769863248 -0.0031893800478428602 0.007522921543568373
v 0.0009989432292059064 -0.0032812904100865126 0.007464501541107893
v 0.0010418026940897107 -0.003483640728518367 0.007304821629077196
v 0.0010910342680290341 -0.003662279574200511 0.0071165915578603745
v 0.0011116537498310208 -0.003724741516634822 0.007036011666059494
v 0.0011670339154079556 -0.0038630913477391005 0.006815051659941673
v 0.0012250832514837384 -0.0039689382538199425 0.006574841681867838
v 0.00124731392133981 -0.003999820910394192 0.006480371579527855
v 0.0013058438198640943 -0.004056091420352459 0.006224431563168764
v 0.0013634237693622708 -0.0040751611813902855 0.005961391609162092
v 0.0014407943235710263 -0.0040751611813902855 0.005587611813098192
v 0.0016395143466070294 -0.0040751611813902855 0.004480401519685984
v 0.0017944230930879712 -0.0040751611813902855 0.0033662717323750257
v 0.00190523371566087 -0.0040751611813902855 0.0022468918468803167
v 0.001971813850104809 -0.0040751611813902855 0.001124001806601882
v 0.001994042657315731 -0.0040751611813902855 -6.181750791256491e-07
v 0.0012632935540750623 -0.0040187714621424675 -0.006412888411432505
v 0.0012440338032320142 -0.003995529375970364 -0.006495798472315073
v 0.0013217042433097959 -0.004065091721713543 -0.006154438480734825
v 0.001971813850104809 -0.0040751611813902855 -0.001125238137319684
v 0.00190523371566087 -0.0040751611813902855 -0.0022481281775981188
v 0.0017944230930879712 -0.0040751611813902855 -0.003367508063092828
v 0.0016395143466070294 -0.0040751611813902855 -0.004481638316065073
v 0.0014407943235710263 -0.0040751611813902855 -0.005588848609477282
v 0.0013634237693622708 -0.0040751611813902855 -0.0059626284055411816
v 0.001185682718642056 -0.0039012308698147535 -0.0067401183769106865
v 0.0011288832174614072 -0.0037720713298767805 -0.0069692982360720634
v 0.0011138628469780087 -0.0037310596089810133 -0.007028598338365555
v 0.001062362571246922 -0.0035641107242554426 -0.007227918598800898
v 0.0010162341641262174 -0.0033695611637085676 -0.007401788607239723
v 0.0010047826217487454 -0.0033123407047241926 -0.0074441684409976006
v 0.0009683641837909818 -0.0030925783794373274 -0.007577618584036827
v 0.0009402941213920712 -0.002855169354006648 -0.007678648456931114
v 0.0009335532085970044 -0.002779650269076228 -0.007702668197453022
v 0.0009182441281154752 -0.002530677942559123 -0.00775696849450469
v 0.0009130529360845685 -0.0022751602809876204 -0.00777532858774066
v 0.0007362636970356107 -0.0027670215349644423 0.007858132012188435
v 0.00072994374204427 -0.0026559706311672926 0.007882931269705296
v -0.0021286262199282646 -0.0028932008426636457 0.007821661420166492
v -0.0021286262199282646 -0.0028932008426636457 0.007821661420166492
v -0.0021286262199282646 -0.0028932008426636457 0.007821661420166492
v 0.0007212433265522122 -0.002374878851696849 0.00791702140122652
v 0.0008059433894231915 -0.0033930379431694746 0.007577931508421898
v 0.0007901537464931607 -0.003290938911959529 0.007642361801117659
v -0.0021286262199282646 -0.003450738964602351 0.007537581492215395
v -0.0021286262199282646 -0.003450738964602351 0.007537581492215395
v -0.0021286262199282646 -0.003450738964602351 0.007537581492215395
v -0.0021286262199282646 -0.003450738964602351 0.007537581492215395
v 0.0007586135761812329 -0.0030358906369656324 0.0077692014165222645
v 0.0007454428123310208 -0.0028933200519531965 0.007821601815521717
v 0.0009178827749565244 -0.0038858007173985243 0.007105211727321148
v 0.0008973731892183423 -0.0038164209108799696 0.007194141391664743
v -0.0021286262199282646 -0.0038931879680603743 0.007095071487128735
v -0.0021286262199282646 -0.0038931879680603743 0.007095071487128735
v -0.0021286262199282646 -0.0038931879680603743 0.007095071487128735
v 0.0008485029684379697 -0.0036178703885525465 0.007401801645755768
v 0.0008157837437465787 -0.0034507985692471266 0.007537521421909332
v 0.0009728326695039868 -0.0040395213291049 0.006861361674964428
v -0.0021286262199282646 -0.004177260212600231 0.00653753150254488
v -0.0021286262199282646 -0.004177260212600231 0.00653753150254488
v 0.001030474086292088 -0.0041571808978915215 0.006596361752599478
v 0.001110703800804913 -0.004253971390426159 0.006209771614521742
v 0.0010525836842134595 -0.004191449843347073 0.006492171436548233
v 0.0010429929243400693 -0.004177260212600231 0.00653753150254488
v 0.0008689436363056302 -0.003707281081005931 -0.007316848263144493
v 0.0009200825588777661 -0.003892830340191722 -0.007096848450601101
v -0.0021286262199282646 -0.0038931879680603743 -0.007096368353813887
v -0.0021286262199282646 -0.0038931879680603743 -0.007096368353813887
v -0.0021286262199282646 -0.0038931879680603743 -0.007096368353813887
v 0.0010492532746866345 -0.004186681471765041 -0.006509028375148773
v 0.0010429929243400693 -0.004177260212600231 -0.006538768298923969
v -0.0021286262199282646 -0.004177260212600231 -0.006538828369230032
v -0.0021286262199282646 -0.004177260212600231 -0.006538828369230032
v 0.0009913734393194318 -0.004081900231540203 -0.006778558250516653
v 0.001068444107659161 -0.0042124902829527855 -0.0064175985753536224
v 0.0011264338390901685 -0.004263929091393948 -0.006132448557764292
v 0.0009349837200716138 -0.003938431851565838 -0.007031458429992199
v 0.0007755431579425931 -0.0031834084074944258 -0.007702668197453022
v -0.0021286262199282646 -0.003450738964602351 -0.007538818288594484
v -0.0021286262199282646 -0.003450738964602351 -0.007538818288594484
v -0.0021286262199282646 -0.003450738964602351 -0.007538818288594484
v -0.0021286262199282646 -0.003450738964602351 -0.007538818288594484
v 0.000747653772123158 -0.002919598249718547 -0.007814127951860428
v -0.0021286262199282646 -0.0028932008426636457 -0.007822898216545582
v -0.0021286262199282646 -0.0028932008426636457 -0.007822898216545582
v -0.0021286262199282646 -0.0028932008426636457 -0.007822898216545582
v -0.0021286262199282646 -0.0028932008426636457 -0.007822898216545582
v 0.0008117231773212552 -0.0034276198130100965 -0.007555388379842043
v 0.0008157837437465787 -0.003450738964602351 -0.007538818288594484
v 0.0008231132524088025 -0.003491150913760066 -0.007508658338338137
v 0.0007257732795551419 -0.0025590609293431044 -0.007900498807430267
v 0.0007409743266180158 -0.0028356786351650953 -0.007840658538043499
v 0.0007454428123310208 -0.0028932008426636457 -0.007822898216545582
v -0.0021286262199282646 0.0060020191594958305 -0.007420738227665424
v -0.0021286262199282646 0.0060020191594958305 -0.007420738227665424
v -0.0021286262199282646 0.0060020191594958305 -0.007420738227665424
v -0.0021286262199282646 0.0060020191594958305 -0.007420738227665424
v -0.0021286262199282646 -0.0022751602809876204 -0.007420798297971487
v -0.0021286262199282646 -0.0022751602809876204 -0.007420798297971487
v -0.0021286262199282646 -0.0022751602809876204 -0.007420798297971487
v -0.0021286262199282646 -0.0022751602809876204 -0.007420798297971487
v -0.0005893361521884799 0.0060020191594958305 -0.007420738227665424
v -0.0005893361521884799 -0.0022751602809876204 -0.007420798297971487
v -0.0021286262199282646 -0.0027386981528252363 -0.00734736816957593
v -0.0021286262199282646 -0.0027386981528252363 -0.00734736816957593
v -0.0021286262199282646 -0.0027386981528252363 -0.00734736816957593
v -0.0005870171589776874 -0.002564179478213191 -0.007392668630927801
v -0.0005892858607694507 -0.002320821164175868 -0.00742008863016963
v -0.0005595971597358584 -0.0032551202457398176 -0.007056438364088535
v -0.0005659171147271991 -0.0031568880658596754 -0.007134278304874897
v -0.0021286262199282646 -0.0031568284612149 -0.007134278304874897
v -0.0021286262199282646 -0.0031568284612149 -0.007134278304874897
v -0.0021286262199282646 -0.0031568284612149 -0.007134278304874897
v -0.0021286262199282646 -0.0031568284612149 -0.007134278304874897
v -0.0005722370697185397 -0.0030379805248230696 -0.007212298456579447
v -0.0005810566945001483 -0.002815118758007884 -0.007320248521864414
v -0.0005451765609905124 -0.003430648474022746 -0.006877268198877573
v -0.0021286262199282646 -0.0034887108486145735 -0.006802458316087723
v -0.0021286262199282646 -0.0034887108486145735 -0.006802458316087723
v -0.0021286262199282646 -0.0034887108486145735 -0.006802458316087723
v -0.0021286262199282646 -0.0034887108486145735 -0.006802458316087723
v -0.0005391564918681979 -0.0034887108486145735 -0.006802458316087723
v -0.0005277664167806506 -0.003581161377951503 -0.00665863836184144
v -0.0021286262199282646 -0.003701741574332118 -0.006384278181940317
v -0.0021286262199282646 -0.003701741574332118 -0.006384278181940317
v -0.0021286262199282646 -0.003701741574332118 -0.006384278181940317
v -0.0005095870001241565 -0.0036868404131382704 -0.006427908316254616
v -0.0004900366766378284 -0.00375347095541656 -0.006175058428198099
v -0.0021286262199282646 -0.003775170771405101 -0.005920788273215294
v -0.0021286262199282646 -0.003775170771405101 -0.005920788273215294
v -0.0004706074541900307 -0.003775170771405101 -0.005920788273215294
v -0.0004706074541900307 -0.003775170771405101 0.0059195514768362045
v -0.000180517221451737 -0.003775170771405101 0.0044557214714586735
v -0.0021286262199282646 -0.003775170771405101 0.0059195514768362045
v -0.0021286262199282646 -0.003775170771405101 0.0059195514768362045
v 2.7333482648828067e-05 -0.003775170771405101 0.002978001721203327
v -0.000180517221451737 -0.003775170771405101 -0.004456958267837763
v 2.7333482648828067e-05 -0.003775170771405101 -0.002979298122227192
v 0.0001523225655546412 -0.003775170771405101 0.0014910418540239334
v 0.0001940439542522654 -0.003775170771405101 -6.181750791256491e-07
v 0.0001523225655546412 -0.003775170771405101 -0.0014922781847417355
v -0.0021286262199282646 -0.003701741574332118 0.006383041385561228
v -0.0021286262199282646 -0.003701741574332118 0.006383041385561228
v -0.0005061969859525561 -0.003701741574332118 0.006383041385561228
v -0.0004988060100004077 -0.003729331074282527 0.0062876115553081036
v -0.00047948668361641467 -0.0037705812137573957 0.006036621518433094
v -0.0021286262199282646 -0.0034887108486145735 0.006801221519708633
v -0.0021286262199282646 -0.0034887108486145735 0.006801221519708633
v -0.0021286262199282646 -0.0031568284612149 0.007133041508495808
v -0.0021286262199282646 -0.0031568284612149 0.007133041508495808
v -0.0021286262199282646 -0.0031568284612149 0.007133041508495808
v -0.0005637657595798373 -0.003191998926922679 0.007106761448085308
v -0.0005501162959262729 -0.0033761810045689344 0.006938251666724682
v -0.0005348072154447436 -0.0035266790073364973 0.006746451370418072
v -0.0005172759993001819 -0.003647851524874568 0.006524361670017242
v -0.0021286262199282646 -0.0027386981528252363 0.00734613137319684
v -0.0021286262199282646 -0.0027386981528252363 0.00734613137319684
v -0.0021286262199282646 -0.0027386981528252363 0.00734613137319684
v -0.0021286262199282646 -0.0022751602809876204 0.007419561501592398
v -0.0021286262199282646 -0.0022751602809876204 0.007419561501592398
v -0.0005893361521884799 -0.0022751602809876204 0.007419561501592398
v -0.0005877361400052905 -0.0025196585338562727 0.007399481721222401
v -0.0005827256245538592 -0.002761001465842128 0.007338681723922491
v -0.0005746156675741076 -0.002986958948895335 0.007239911705255508
v -0.0005893361521884799 0.0060020191594958305 0.007419501431286335
v -0.0021286262199282646 0.0060020191594958305 0.007419501431286335
v -0.0021286262199282646 0.0060020191594958305 0.007419501431286335
v -0.0021286262199282646 0.0060020191594958305 0.007419501431286335
v -0.0021286262199282646 0.006086959503591061 -0.0074396985583007336
v -0.0021286262199282646 0.006086959503591061 -0.0074396985583007336
v -0.0021286262199282646 0.006086959503591061 -0.0074396985583007336
v -0.0021286262199282646 0.006155799143016338 -0.007492918521165848
v -0.0021286262199282646 0.006155799143016338 -0.007492918521165848
v -0.0021286262199282646 0.006155799143016338 -0.007492918521165848
v -0.0021286262199282646 0.006155799143016338 -0.007492918521165848
v -0.0021286262199282646 0.006086959503591061 0.007438461761921644
v -0.0021286262199282646 0.006086959503591061 0.007438461761921644
v -0.0021286262199282646 0.006086959503591061 0.007438461761921644
v -0.0021286262199282646 0.006155799143016338 0.007491681724786758
v -0.0021286262199282646 0.006155799143016338 0.007491681724786758
v -0.0021286262199282646 0.006155799143016338 0.007491681724786758
v 0.00032708336948417127 0.005823739804327488 0.006819641683250666
v 0.00024995309649966657 -0.0022751602809876204 0.006963231600821018
v 0.00024411371850874275 0.005867249332368374 0.006972051691263914
v 0.00018480337166693062 0.00589067954570055 0.00705252168700099
v 0.00018474376702215523 -0.0022751602809876204 0.007052581757307053
v 0.0001477926125517115 0.005903310142457485 0.007095251698046923
v 2.691252484510187e-05 -0.0022751602809876204 0.007207071408629417
v 2.0773246433236636e-05 0.005938180722296238 0.007211841642856598
v -0.00010952623415505514 0.0059640491381287575 0.007296901661902666
v -0.00016102650261018425 -0.0022751602809876204 0.007323121652007103
v -0.00016090729332063347 0.005972099490463734 0.007323121652007103
v -0.0002660461759660393 0.005985270254313946 0.0073658013716340065
v -0.0002634272968862206 -0.0022751602809876204 0.007364901714026928
v -0.00041970695019699633 0.005997489206492901 0.007405021693557501
v 0.0003182637447025627 -0.003362941322848201 0.006098901387304068
v 0.0002188935031881556 -0.003482269821688533 0.006076311692595482
v 0.00020381352805998176 -0.0034725579898804426 0.006169771775603294
v 0.0001025526798912324 -0.0035842012148350477 0.006049851421266794
v -9.742649126565084e-05 -0.00369904818944633 0.006004371680319309
v -0.00011035697389161214 -0.0036897610407322645 0.006114821415394545
v 0.00043031302629970014 -0.003157838014885783 0.006124351639300585
v 0.00045678307651542127 -0.003084170399233699 0.006130431778728962
v 0.0004162537807133049 -0.0031512293498963118 0.006193261593580246
v -0.00013801724708173424 -0.0036406393628567457 0.006349001545459032
v -0.0001641762355575338 -0.00355534884147346 0.0065668015740811825
v -0.00026121633709408343 -0.002497660694643855 0.007347441744059324
v 2.9473661925294437e-05 -0.002460288582369685 0.007192831486463547
v -0.0002544269955251366 -0.002718138275668025 0.007294391747564077
v 3.7224126572255045e-05 -0.0026439304929226637 0.007149491459131241
v -0.00024345600104425102 -0.0029258604627102613 0.007207851391285658
v 4.98025692650117e-05 -0.002817499218508601 0.007078741677105427
v -0.00022867591178510338 -0.0031163606327027082 0.0070904213935136795
v 6.678430509055033e-05 -0.0029774184804409742 0.00698242150247097
v -0.00020995632803533226 -0.003290108172222972 0.006940641440451145
v 8.830344449961558e-05 -0.00312422844581306 0.0068591018207371235
v -0.0001887370744952932 -0.003435010788962245 0.006768441759049892
v 0.00011280281614745036 -0.00324784847907722 0.006716701667755842
v 0.0001412342389812693 -0.003351798979565501 0.006549041718244553
v 0.00017157300317194313 -0.0034270796459168196 0.006366881541907787
v 0.00017157300317194313 -0.0034270796459168196 0.006366881541907787
v 0.00025233355700038373 -0.002411479828879237 0.006952561438083649
v 0.00025966306566260755 -0.0025466594379395247 0.0069201914593577385
v 0.0002715839946176857 -0.002674209652468562 0.00686732167378068
v 0.00028768283664248884 -0.0027915711980313063 0.0067955018021166325
v 0.00030794282793067396 -0.0028990383725613356 0.0067037115804851055
v 0.000331073155393824 -0.002989160595461726 0.006597851403057575
v 0.00035771270631812513 -0.003064679680392146 0.006473521701991558
v 0.00038614412187598646 -0.0031189199071377516 0.006338751409202814
v 0.0007571830647066236 -0.003084170399233699 0.004614511504769325
v 0.00012418358528520912 -0.003726227907463908 0.004507341422140598
v 0.0003344128781463951 -0.003726227907463908 0.0030125118792057037
v 0.0004608343297149986 -0.003726227907463908 0.001508271787315607
v 0.0005030325846746564 -0.003726227907463908 -6.181750791256491e-07
v 0.0004608343297149986 -0.003726227907463908 -0.0015095081180334091
v 0.0003344128781463951 -0.003726227907463908 -0.0030137482099235058
v 0.00012418358528520912 -0.003726227907463908 -0.004508578218519688
v -9.742649126565084e-05 -0.00369904818944633 -0.006005608476698399
v 0.0003990243130829185 -0.0035842012148350477 -0.00455506844446063
v 0.0001025526798912324 -0.0035842012148350477 -0.0060510882176458836
v 0.0002188935031881556 -0.003482269821688533 -0.006077548488974571
v 0.0006171736167743802 -0.003362941322848201 -0.004592018201947212
v 0.0003182637447025627 -0.003362941322848201 -0.006100138183683157
v 0.0006114534335210919 -0.0035842012148350477 0.0030436317902058363
v 0.0007391843246296048 -0.0035842012148350477 0.001523891813121736
v 0.0008313331054523587 -0.003362941322848201 0.0030683018267154694
v 0.0009600828634575009 -0.003362941322848201 0.0015362318372353911
v 0.0003990243130829185 -0.0035842012148350477 0.004553831648081541
v 0.0006171736167743802 -0.003362941322848201 0.004590781405568123
v 0.0009724843548610806 -0.003084170399233699 0.0030841617844998837
v 0.0011018841760233045 -0.003084170399233699 0.0015441518044099212
v 0.00043031302629970014 -0.003157838014885783 -0.006125648505985737
v 0.0007571830647066236 -0.003084170399233699 -0.004615748301148415
v 0.00045678307651542127 -0.003084170399233699 -0.006131668575108051
v 0.0009724843548610806 -0.003084170399233699 -0.0030853981152176857
v 0.0006114534335210919 -0.0035842012148350477 -0.0030448681209236383
v 0.0008313331054523587 -0.003362941322848201 -0.0030695381574332714
v 0.0011018841760233045 -0.003084170399233699 -0.0015453881351277232
v 0.0007391843246296048 -0.0035842012148350477 -0.001525128143839538
v 0.0009600828634575009 -0.003362941322848201 -0.0015374681679531932
v 0.0007818035082891583 -0.0035842012148350477 -6.181750791256491e-07
v 0.0010030540870502591 -0.003362941322848201 -6.181750791256491e-07
v 0.0011450938181951642 -0.003084170399233699 -6.181750791256491e-07
v -0.00016102650261018425 -0.0022751602809876204 -0.007324358448386192
v -0.00016102650261018425 -0.0022751602809876204 -0.007324358448386192
v -0.00016102650261018425 -0.0022751602809876204 -0.007324358448386192
v -0.0002634272968862206 -0.0022751602809876204 -0.007366138510406017
v -0.00026336582959629595 -0.002316700993105769 -0.007365548517554998
v -0.00026336582959629595 -0.002316700993105769 -0.007365548517554998
v 2.691252484510187e-05 -0.0022751602809876204 -0.007208308205008507
v 2.691252484510187e-05 -0.0022751602809876204 -0.007208308205008507
v 2.691252484510187e-05 -0.0022751602809876204 -0.007208308205008507
v 0.00024995309649966657 -0.0022751602809876204 -0.006964468397200108
v 0.00025001270114444196 -0.002300611464306712 -0.006964108441025019
v -0.00026032599271275103 -0.002538251457735896 -0.007341708522289991
v -0.00025227564037777483 -0.00276772934012115 -0.0072784083895385265
v -0.00024023735022637993 -0.002973071066662669 -0.007183748297393322
v -0.00022294641530606896 -0.003175611374899745 -0.007045948412269354
v -0.00020310738182161003 -0.003342198906466365 -0.006886208429932594
v -0.0001789060333976522 -0.003488528309389949 -0.006689158268272877
v 0.00018623388314154 -0.0034518714528530836 -0.0062792482785880566
v 0.0003997935855295509 -0.0031366299372166395 -0.006274368613958359
v 0.00015375307702925056 -0.0033869098406285048 -0.006475528236478567
v 0.00036946413456462324 -0.0030900712590664625 -0.006419438403099775
v 0.00012418358528520912 -0.003293859539553523 -0.006651068571954966
v 0.00034174424945376813 -0.0030226584058254957 -0.0065494985319674015
v 9.623272489989176e-05 -0.0031685109715908766 -0.006814378313720226
v 0.0003154530131723732 -0.002931351540610194 -0.006670738570392132
v 7.334267866099253e-05 -0.0030273112934082747 -0.006946108303964138
v 0.0002938835823442787 -0.0028281088452786207 -0.006768788211047649
v 5.3494331950787455e-05 -0.002857080427929759 -0.007059178315103054
v 0.00027510253130458295 -0.002703300444409251 -0.006853068247437477
v 3.972379636252299e-05 -0.0026852998416870832 -0.007136668544262648
v 0.00026205283938907087 -0.0025770615320652723 -0.006910938303917646
v 3.0483215596177615e-05 -0.0024940285366028547 -0.007188338320702314
v 0.0002533542865421623 -0.0024363312404602766 -0.006949508562684059
v 2.6973992135026492e-05 -0.002309730974957347 -0.00720782857388258
v 0.00018474376702215523 -0.0022751602809876204 -0.007053818553686142
v 0.00018474376702215523 -0.0022751602809876204 -0.007053818553686142
v 0.00018474376702215523 -0.0022751602809876204 -0.007053818553686142
v -0.00015339710807893425 -0.0035954590421169996 -0.006478508468717337
v -0.00012549654638860375 -0.0036679382901638746 -0.0062444983050227165
v -0.00046256641508080065 0.005999519489705563 -0.007412698585540056
v -0.00029632719815708697 0.005988310091197491 -0.007376868277788162
v -0.00016096689796540886 0.005972099490463734 -0.007324358448386192
v -0.00013741561269853264 0.005968519486486912 -0.00731285847723484
v 7.833450581529178e-06 0.005941099487245083 -0.007222858257591724
v 0.00013688309991266578 0.005906769074499607 -0.007108238525688648
v 0.00018480337166693062 0.00589067954570055 -0.007053758483380079
v 0.00024405411386396736 0.005867249332368374 -0.006973408628255129
v 0.00032517415820620954 0.0058249300345778465 -0.006825288292020559
v -0.0005893361521884799 0.006155799143016338 -0.007492918521165848
v -0.0005893361521884799 0.006155799143016338 -0.007492918521165848
v -0.0005893361521884799 0.006086959503591061 -0.0074396985583007336
v -0.0005893361521884799 0.006086959503591061 -0.0074396985583007336
v -0.0004573174810502678 0.006084510125219822 -0.00743116857483983
v -0.0004573174810502678 0.006084510125219822 -0.00743116857483983
v -0.00044831717968918383 0.006153409369289875 -0.007483858615159988
v -0.00044831717968918383 0.006153409369289875 -0.007483858615159988
v -0.0001195360891870223 0.006054830737411976 -0.007326028309762478
v -0.0001195360891870223 0.006054830737411976 -0.007326028309762478
v -0.00028452734113670886 0.006073779426515102 -0.007393438369035721
v -0.00028452734113670886 0.006073779426515102 -0.007393438369035721
v 3.0663890356663615e-05 0.006028539501130581 -0.007231558207422495
v 3.0663890356663615e-05 0.006028539501130581 -0.007231558207422495
v 0.00016352265083696693 0.0059956395998597145 -0.0071114483289420605
v 0.00016352265083696693 0.0059956395998597145 -0.0071114483289420605
v 0.0002729642146732658 0.005957850255072117 -0.006970788352191448
v 0.0002729642146732658 0.005957850255072117 -0.006970788352191448
v 0.0003549727553036064 0.005917440168559551 -0.006816768553107977
v 0.0003549727553036064 0.005917440168559551 -0.006816768553107977
v 0.00041064349352382123 0.005874049849808216 -0.0066469581797719
v 0.00041064349352382123 0.005874049849808216 -0.0066469581797719
v -0.00026360611082054675 0.0061427997425198555 -0.007443688344210386
v -0.00026360611082054675 0.0061427997425198555 -0.007443688344210386
v -8.728625107323751e-05 0.00612397026270628 -0.007371988613158464
v -8.728625107323751e-05 0.00612397026270628 -0.007371988613158464
v 7.340414595091715e-05 0.006097919307649136 -0.007271428592503071
v 7.340414595091715e-05 0.006097919307649136 -0.007271428592503071
v 0.00021568416559603065 0.00606538075953722 -0.007143578492105007
v 0.00021568416559603065 0.00606538075953722 -0.007143578492105007
v 0.00033304383396171033 0.006027950905263424 -0.0069936783984303474
v 0.00033304383396171033 0.006027950905263424 -0.0069936783984303474
v 0.0004211935156490654 0.005987950600683689 -0.0068294582888484
v 0.0004211935156490654 0.005987950600683689 -0.0068294582888484
v 0.0004812135302927345 0.0059449197724461555 -0.006648268550634384
v 0.0004812135302927345 0.0059449197724461555 -0.006648268550634384
v 0.0006169929401949048 0.005683549679815769 -0.005749248433858156
v 0.0006169929401949048 0.005683549679815769 -0.005749248433858156
v 0.0006882242159917951 0.005755019374191761 -0.005750378593802452
v 0.0006882242159917951 0.005755019374191761 -0.005750378593802452
v 0.0007933034794405103 0.005520590580999851 -0.004845398478209972
v 0.0007933034794405103 0.005520590580999851 -0.004845398478209972
v 0.0009392827050760388 0.00538558978587389 -0.003937508445233107
v 0.0009392827050760388 0.00538558978587389 -0.003937508445233107
v 0.0008651326643303037 0.005592589266598225 -0.004846358206123114
v 0.0008651326643303037 0.005592589266598225 -0.004846358206123114
v 0.0010115831391885877 0.005457949824631214 -0.003938278183341026
v 0.0010115831391885877 0.005457949824631214 -0.003938278183341026
v 0.0010549734579399228 0.005278480239212513 -0.0030253781005740166
v 0.0010549734579399228 0.005278480239212513 -0.0030253781005740166
v 0.0011403831886127591 0.005199379287660122 -0.0021086581982672215
v 0.0011403831886127591 0.005199379287660122 -0.0021086581982672215
v 0.001195344259031117 0.005148419179022312 -0.0011871681781485677
v 0.001195344259031117 0.005148419179022312 -0.0011871681781485677
v 0.001219603349454701 0.005125950090587139 -0.00026052817702293396
v 0.001219603349454701 0.005125950090587139 -0.00026052817702293396
v 0.001218523015268147 0.005126959644258022 0.0003565218357834965
v 0.001218523015268147 0.005126959644258022 0.0003565218357834965
v 0.0011276333825662732 0.005351199768483639 -0.0030259680934250355
v 0.0011276333825662732 0.005351199768483639 -0.0030259680934250355
v 0.0012133429991081357 0.0052723390981554985 -0.002109128050506115
v 0.0012133429991081357 0.0052723390981554985 -0.002109128050506115
v 0.0012684735702350736 0.005221559666097164 -0.001187408110126853
v 0.0012684735702350736 0.005221559666097164 -0.001187408110126853
v 0.0012927941279485822 0.00519914086908102 -0.0002605881600175053
v 0.0012927941279485822 0.00519914086908102 -0.0002605881600175053
v 0.0012917231069877744 0.00520015973597765 0.00035660184221342206
v 0.0012917231069877744 0.00520015973597765 0.00035660184221342206
v 0.0012649028794839978 0.005224830470979214 0.0012666318798437715
v 0.0012649028794839978 0.005224830470979214 0.0012666318798437715
v 0.0012082132743671536 0.005276990123093128 0.002173161832615733
v 0.0012082132743671536 0.005276990123093128 0.002173161832615733
v 0.0011219038860872388 0.0053564393892884254 0.0030759917572140694
v 0.0011219038860872388 0.0053564393892884254 0.0030759917572140694
v 0.001191764255054295 0.005151699297130108 0.0012663418892771006
v 0.001191764255054295 0.005151699297130108 0.0012663418892771006
v 0.0011353242443874478 0.005204030312597752 0.002172681735828519
v 0.0011353242443874478 0.005204030312597752 0.002172681735828519
v 0.0010492532746866345 0.0052837198600173 0.0030754017643630505
v 0.0010492532746866345 0.0052837198600173 0.0030754017643630505
v 0.0009337934898212552 0.00539065059274435 0.0039742314256727695
v 0.0009337934898212552 0.00539065059274435 0.0039742314256727695
v 0.0007888927357271314 0.005524699576199055 0.004869021475315094
v 0.0007888927357271314 0.005524699576199055 0.004869021475315094
v 0.0006144932704046369 0.005685820244252682 0.005759631749242544
v 0.0006144932704046369 0.005685820244252682 0.005759631749242544
v 0.00041064349352382123 0.005874049849808216 0.006645721383392811
v 0.00041064349352382123 0.005874049849808216 0.006645721383392811
v 0.0010060343192890286 0.005463010631501675 0.00397501140832901
v 0.0010060343192890286 0.005463010631501675 0.00397501140832901
v 0.0008606641786172986 0.005596649833023548 0.0048700314946472645
v 0.0008606641786172986 0.005596649833023548 0.0048700314946472645
v 0.0006857841508463025 0.005757280625402927 0.005760761443525553
v 0.0006857841508463025 0.005757280625402927 0.005760761443525553
v 0.0004812135302927345 0.0059449197724461555 0.006647031754255295
v 0.0004812135302927345 0.0059449197724461555 0.006647031754255295
v 0.00035688382922671735 0.005916249938309193 0.006810941733419895
v 0.00035688382922671735 0.005916249938309193 0.006810941733419895
v 0.0004232834035065025 0.0059867603704333305 0.006823341827839613
v 0.0004232834035065025 0.0059867603704333305 0.006823341827839613
v 0.00017467430734541267 0.005992299877107143 0.007098001427948475
v 0.00017467430734541267 0.005992299877107143 0.007098001427948475
v 0.00027307411073707044 0.005957850255072117 0.006969371810555458
v 0.00027307411073707044 0.005957850255072117 0.006969371810555458
v 4.4073072785977274e-05 0.006025680340826511 0.007220001425594091
v 4.4073072785977274e-05 0.006025680340826511 0.007220001425594091
v -9.062597382580861e-05 0.006050479598343372 0.007309291511774063
v -9.062597382580861e-05 0.006050479598343372 0.007309291511774063
v -0.0002529964840505272 0.0060708606615662575 0.007381831761449575
v -0.0002529964840505272 0.0060708606615662575 0.007381831761449575
v -0.0004127965366933495 0.00608260091394186 0.007423201575875282
v -0.0004127965366933495 0.00608260091394186 0.007423201575875282
v -0.0005893361521884799 0.006086959503591061 0.007438461761921644
v -0.0005893361521884799 0.006086959503591061 0.007438461761921644
v 0.0003331630432512611 0.006027950905263424 0.006992321461439133
v 0.0003331630432512611 0.006027950905263424 0.006992321461439133
v 0.00022760323190595955 0.006062100641429424 0.007129351608455181
v 0.00022760323190595955 0.006062100641429424 0.007129351608455181
v 8.770367276156321e-05 0.0060951197519898415 0.007259221747517586
v 8.770367276156321e-05 0.0060951197519898415 0.007259221747517586
v -5.635702837025747e-05 0.006119680590927601 0.007354301400482655
v -5.635702837025747e-05 0.006119680590927601 0.007354301400482655
v -0.00022992574668023735 0.006139879114925861 0.007431481499224901
v -0.00022992574668023735 0.006139879114925861 0.007431481499224901
v -0.0004006967938039452 0.0061515094712376595 0.007475411519408226
v -0.0004006967938039452 0.0061515094712376595 0.007475411519408226
v -0.0005893361521884799 0.006155799143016338 0.007491681724786758
v -0.0005893361521884799 0.006155799143016338 0.007491681724786758
v 0.0008042725967243314 -0.0022751602809876204 0.00790123175829649
v 0.0008042725967243314 -0.0022751602809876204 0.00790123175829649
v 0.0008725832449272275 -0.0022751602809876204 0.007849551737308502
v 0.0008725832449272275 -0.0022751602809876204 0.007849551737308502
v 0.0008049338357523084 -0.0023727889638394117 0.007898781448602676
v 0.0008049338357523084 -0.0023727889638394117 0.007898781448602676
v 0.0008732333080843091 -0.0023692201357334852 0.007847231812775135
v 0.0008732333080843091 -0.0023692201357334852 0.007847231812775135
v 0.0008138726698234677 -0.0026480506639927626 0.00786564126610756
v 0.0008138726698234677 -0.0026480506639927626 0.00786564126610756
v 0.0008203639881685376 -0.0027567583601921797 0.007841501384973526
v 0.0008433732436969876 -0.0030203412752598524 0.0077550215646624565
v 0.0008433732436969876 -0.0030203412752598524 0.0077550215646624565
v 0.0008758037583902478 -0.003270680783316493 0.007631521672010422
v 0.0008758037583902478 -0.003270680783316493 0.007631521672010422
v 0.0008920739637687802 -0.0033710512798279524 0.00756869139149785
v 0.0008920739637687802 -0.0033710512798279524 0.00756869139149785
v 0.0009358833776786923 -0.0035924192052334547 0.0073968516662716866
v 0.0009358833776786923 -0.0035924192052334547 0.0073968516662716866
v 0.0009862437145784497 -0.003788399277254939 0.00719390157610178
v 0.0009862437145784497 -0.003788399277254939 0.00719390157610178
v 0.0010074033634737134 -0.0038571308832615614 0.0071068815886974335
v 0.0010074033634737134 -0.0038571308832615614 0.0071068815886974335
v 0.001064152573235333 -0.0040097711607813835 0.006867981515824795
v 0.001064152573235333 -0.0040097711607813835 0.006867981515824795
v 0.0011236342834308743 -0.004127311520278454 0.006607751827687025
v 0.0011236342834308743 -0.004127311520278454 0.006607751827687025
v 0.001146462862379849 -0.0041617704555392265 0.006505231373012066
v 0.001146462862379849 -0.0041617704555392265 0.006505231373012066
v 0.0012065443443134427 -0.004225420765578747 0.0062270513735711575
v 0.0012065443443134427 -0.004225420765578747 0.0062270513735711575
v 0.0012656125472858548 -0.004248368553817272 0.005940471775829792
v 0.0012656125472858548 -0.004248368553817272 0.005940471775829792
v 0.0008822336094453931 -0.002634520409628749 0.007815161719918251
v 0.0008822336094453931 -0.002634520409628749 0.007815161719918251
v 0.0008887342410162091 -0.0027392979245632887 0.0077918516471982
v 0.0008887342410162091 -0.0027392979245632887 0.0077918516471982
v 0.0009119837777689099 -0.002993280766531825 0.0077082314528524876
v 0.0009119837777689099 -0.002993280766531825 0.0077082314528524876
v 0.0009445837931707501 -0.0032344411592930555 0.007588841486722231
v 0.0009445837931707501 -0.0032344411592930555 0.007588841486722231
v 0.0009609732078388333 -0.003331119893118739 0.007528161630034447
v 0.0009609732078388333 -0.003331119893118739 0.007528161630034447
v 0.0010050843702629209 -0.0035443182568997145 0.0073621016927063465
v 0.0010050843702629209 -0.0035443182568997145 0.0073621016927063465
v 0.0010558638023212552 -0.0037330302875488997 0.0071660615503787994
v 0.0010558638023212552 -0.0037330302875488997 0.0071660615503787994
v 0.0010771426605060697 -0.0037991914432495832 0.0070820217952132225
v 0.0010771426605060697 -0.0037991914432495832 0.0070820217952132225
v 0.0011343035148456693 -0.0039460016414523125 0.006851231679320335
v 0.0011343035148456693 -0.0039460016414523125 0.006851231679320335
v 0.0011942136334255338 -0.0040590716525912285 0.006599881686270237
v 0.0011942136334255338 -0.0040590716525912285 0.006599881686270237
v 0.0012172135757282376 -0.004092211835086346 0.006500941701233387
v 0.0012172135757282376 -0.004092211835086346 0.006500941701233387
v 0.0012777141528204083 -0.004153299145400524 0.00623242137953639
v 0.0012777141528204083 -0.004153299145400524 0.00623242137953639
v 0.0013372033135965466 -0.004175181500613689 0.005955791566520929
v 0.0013372033135965466 -0.004175181500613689 0.005955791566520929
v 0.0015407531755045056 -0.004248368553817272 0.0044647217728197575
v 0.0015407531755045056 -0.004248368553817272 0.0044647217728197575
v 0.0016951236175373197 -0.004248368553817272 0.0033544618636369705
v 0.0016951236175373197 -0.004248368553817272 0.0033544618636369705
v 0.0018055728869512677 -0.004248368553817272 0.0022390219382941723
v 0.0018055728869512677 -0.004248368553817272 0.0022390219382941723
v 0.0018719128565862775 -0.004248368553817272 0.0011200718581676483
v 0.0018719128565862775 -0.004248368553817272 0.0011200718581676483
v 0.0018940243171527982 -0.004248368553817272 -6.181750791256491e-07
v 0.0018940243171527982 -0.004248368553817272 -6.181750791256491e-07
v 0.0018719128565862775 -0.004248368553817272 -0.0011213081888854504
v 0.0018719128565862775 -0.004248368553817272 -0.0011213081888854504
v 0.0018055728869512677 -0.004248368553817272 -0.0022402582690119743
v 0.0018055728869512677 -0.004248368553817272 -0.0022402582690119743
v 0.0016951236175373197 -0.004248368553817272 -0.0033556981943547726
v 0.0016951236175373197 -0.004248368553817272 -0.0033556981943547726
v 0.0015407531755045056 -0.004248368553817272 -0.004465958569198847
v 0.0015407531755045056 -0.004248368553817272 -0.004465958569198847
v 0.0013427428202703595 -0.004248368553817272 -0.005569238215684891
v 0.0013427428202703595 -0.004248368553817272 -0.005569238215684891
v 0.0012656125472858548 -0.004248368553817272 -0.005941708572208881
v 0.0012656125472858548 -0.004248368553817272 -0.005941708572208881
v 0.0016130536096170545 -0.004175181500613689 0.004476221743971109
v 0.0016130536096170545 -0.004175181500613689 0.004476221743971109
v 0.0017678431468084455 -0.004175181500613689 0.0033631117548793554
v 0.0017678431468084455 -0.004175181500613689 0.0033631117548793554
v 0.0018785326974466443 -0.004175181500613689 0.002244751900434494
v 0.0018785326974466443 -0.004175181500613689 0.002244751900434494
v 0.0019450440304353833 -0.004175181500613689 0.0011229318333789706
v 0.0019450440304353833 -0.004175181500613689 0.0011229318333789706
v 0.0019672224298119545 -0.004175181500613689 -6.181750791256491e-07
v 0.0019672224298119545 -0.004175181500613689 -6.181750791256491e-07
v 0.0019450440304353833 -0.004175181500613689 -0.0011241681640967727
v 0.0019450440304353833 -0.004175181500613689 -0.0011241681640967727
v 0.0018785326974466443 -0.004175181500613689 -0.002245988231152296
v 0.0018785326974466443 -0.004175181500613689 -0.002245988231152296
v 0.0017678431468084455 -0.004175181500613689 -0.0033643480855971575
v 0.0017678431468084455 -0.004175181500613689 -0.0033643480855971575
v 0.0016130536096170545 -0.004175181500613689 -0.004477458540350199
v 0.0016130536096170545 -0.004175181500613689 -0.004477458540350199
v 0.0014145030872896314 -0.004175181500613689 -0.005583608523011208
v 0.0014145030872896314 -0.004175181500613689 -0.005583608523011208
v 0.0013372033135965466 -0.004175181500613689 -0.005957028362900019
v 0.0013372033135965466 -0.004175181500613689 -0.005957028362900019
v 0.0012228238629177213 -0.004235788248479366 -0.006150748580694199
v 0.0012228238629177213 -0.004235788248479366 -0.006150748580694199
v 0.0012940439628437161 -0.004163200967013836 -0.006158788222819567
v 0.0012940439628437161 -0.004163200967013836 -0.006158788222819567
v 0.0011628541396930814 -0.004183041863143444 -0.006431838497519493
v 0.0011628541396930814 -0.004183041863143444 -0.006431838497519493
v 0.0011430635349825025 -0.004156998358666897 -0.006521838251501322
v 0.0011430635349825025 -0.004156998358666897 -0.006521838251501322
v 0.0010832838015630841 -0.00405197124928236 -0.006786728277802467
v 0.0010832838015630841 -0.00405197124928236 -0.006786728277802467
v 0.001025053788907826 -0.003909281454980373 -0.007034738548099995
v 0.001025053788907826 -0.003909281454980373 -0.007034738548099995
v 0.001009673927910626 -0.0038640412967652082 -0.007098758593201637
v 0.001009673927910626 -0.0038640412967652082 -0.007098758593201637
v 0.0009569238172844052 -0.003680578200146556 -0.007313868496567011
v 0.0009569238172844052 -0.003680578200146556 -0.007313868496567011
v 0.0009097132133319974 -0.00346755119971931 -0.007501148618757725
v 0.0009097132133319974 -0.00346755119971931 -0.007501148618757725
v 0.0008980325656011701 -0.003405018476769328 -0.007546748500317335
v 0.0008980325656011701 -0.003405018476769328 -0.007546748500317335
v 0.0008607833879068494 -0.0031651209574192762 -0.007690218277275562
v 0.0008607833879068494 -0.0031651209574192762 -0.007690218277275562
v 0.0008321135537698865 -0.0029063101392239332 -0.007798698265105486
v 0.0008321135537698865 -0.0029063101392239332 -0.007798698265105486
v 0.0008251938270404935 -0.0028240594547241926 -0.007824498228728771
v 0.0008251938270404935 -0.0028240594547241926 -0.007824498228728771
v 0.0008095829980447888 -0.0025531600695103407 -0.00788273848593235
v 0.0008095829980447888 -0.0025531600695103407 -0.00788273848593235
v 0.0008042725967243314 -0.0022751602809876204 -0.007902468554675579
v 0.0008042725967243314 -0.0022751602809876204 -0.007902468554675579
v 0.0012336625950410962 -0.004112589173018932 -0.006430108565837145
v 0.0012336625950410962 -0.004112589173018932 -0.006430108565837145
v 0.001213763956911862 -0.004087618552148342 -0.006517018191516399
v 0.001213763956911862 -0.004087618552148342 -0.006517018191516399
v 0.0011535539524629712 -0.00398664828389883 -0.006772838532924652
v 0.0011535539524629712 -0.00398664828389883 -0.006772838532924652
v 0.0010949029820039868 -0.0038493189495056868 -0.00701232859864831
v 0.0010949029820039868 -0.0038493189495056868 -0.00701232859864831
v 0.0010794132249429822 -0.0038058708887547255 -0.007074198219925165
v 0.0010794132249429822 -0.0038058708887547255 -0.007074198219925165
v 0.00102630362380296 -0.0036292586009949446 -0.00728203821927309
v 0.00102630362380296 -0.0036292586009949446 -0.00728203821927309
v 0.000978793133981526 -0.00342409941367805 -0.007462938316166401
v 0.000978793133981526 -0.00342409941367805 -0.007462938316166401
v 0.0009669932769611478 -0.00336383911781013 -0.007506988476961851
v 0.0009669932769611478 -0.00336383911781013 -0.007506988476961851
v 0.0009294442133978009 -0.003132748184725642 -0.007645688485354185
v 0.0009294442133978009 -0.003132748184725642 -0.007645688485354185
v 0.0009005937026813626 -0.0028834182303398848 -0.007750538177788258
v 0.0009005937026813626 -0.0028834182303398848 -0.007750538177788258
v 0.0008936832891777158 -0.002804151503369212 -0.007775448262691498
v 0.0008936832891777158 -0.002804151503369212 -0.007775448262691498
v 0.0008779439376667142 -0.0025430794339627028 -0.00783177837729454
v 0.0008779439376667142 -0.0025430794339627028 -0.00783177837729454
v 0.0008725832449272275 -0.0022751602809876204 -0.007850788533687592
v 0.0008725832449272275 -0.0022751602809876204 -0.007850788533687592
f 1 2 3
f 4 5 6
f 7 8 9
f 8 10 9
f 9 10 11
f 9 11 12
f 12 13 9
f 9 13 14
f 9 14 15
f 15 16 9
f 9 16 17
f 9 17 18
f 18 17 19
f 20 21 22
f 20 22 9
f 9 22 23
f 9 23 7
f 3 2 24
f 25 26 4
f 24 2 27
f 27 2 26
f 27 26 28
f 28 26 25
f 28 25 29
f 30 31 25
f 25 31 32
f 25 32 29
f 33 34 25
f 25 34 35
f 25 35 30
f 4 6 25
f 25 6 36
f 25 36 33
f 1 3 37
f 37 3 38
f 37 38 39
f 39 38 40
f 39 40 41
f 41 40 42
f 41 42 43
f 43 42 44
f 43 44 45
f 46 47 48
f 48 47 44
f 44 47 49
f 44 49 45
f 20 50 21
f 21 50 51
f 21 51 52
f 52 51 46
f 52 46 53
f 53 46 48
f 54 55 61
f 61 55 64
f 66 68 69
f 69 70 66
f 66 70 71
f 66 71 72
f 73 74 76
f 76 74 77
f 76 77 78
f 72 79 66
f 66 79 80
f 66 80 76
f 76 80 81
f 76 81 73
f 82 85 88
f 88 85 91
f 93 94 83
f 93 83 95
f 96 99 100
f 100 101 96
f 96 101 102
f 96 102 105
f 105 102 95
f 105 95 107
f 107 95 83
f 109 87 113
f 113 87 84
f 113 83 114
f 114 83 94
f 116 118 119
f 119 120 116
f 116 120 121
f 116 121 122
f 122 121 124
f 122 124 99
f 99 124 125
f 99 125 100
f 127 128 129
f 129 128 131
f 129 131 133
f 133 131 134
f 133 134 118
f 118 134 135
f 118 135 119
f 137 138 140
f 140 138 141
f 140 141 142
f 142 141 144
f 142 144 127
f 127 144 145
f 127 145 128
f 147 148 137
f 137 148 149
f 137 149 138
f 150 151 60
f 150 60 152
f 152 60 62
f 152 62 153
f 159 164 59
f 166 158 167
f 167 158 60
f 167 60 168
f 168 60 151
f 167 169 166
f 166 169 170
f 166 170 172
f 170 173 172
f 172 173 174
f 172 174 175
f 175 174 177
f 175 177 147
f 147 177 178
f 147 178 148
f 98 97 179
f 180 123 98
f 181 182 180
f 98 179 180
f 180 179 183
f 180 183 181
f 182 184 180
f 180 184 185
f 180 185 186
f 186 187 180
f 180 187 188
f 180 188 123
f 123 188 189
f 123 189 190
f 190 191 123
f 123 191 192
f 123 192 193
f 193 194 123
f 123 194 195
f 123 195 115
f 115 195 196
f 115 196 117
f 117 196 197
f 117 197 132
f 132 197 198
f 132 198 130
f 130 198 199
f 130 199 126
f 126 199 200
f 126 200 143
f 201 202 176
f 201 176 203
f 200 204 143
f 143 204 205
f 143 205 139
f 139 205 206
f 139 206 136
f 136 206 207
f 136 207 146
f 146 207 208
f 146 208 176
f 176 208 209
f 176 209 203
f 202 210 176
f 176 210 211
f 176 211 212
f 212 213 176
f 176 213 214
f 176 214 215
f 215 216 176
f 176 216 217
f 176 217 218
f 218 219 176
f 176 219 220
f 176 220 171
f 171 220 165
f 221 222 223
f 223 222 91
f 91 222 226
f 91 226 88
f 227 228 230
f 230 228 233
f 230 233 223
f 223 233 234
f 223 234 221
f 235 236 238
f 238 236 240
f 238 240 230
f 230 240 241
f 230 241 227
f 235 238 242
f 242 238 244
f 242 244 245
f 78 246 76
f 76 246 247
f 76 247 244
f 244 247 248
f 244 248 245
f 249 250 251
f 254 65 255
f 255 65 257
f 255 257 258
f 254 259 66
f 66 259 260
f 66 260 68
f 251 250 257
f 257 250 261
f 257 261 258
f 262 266 267
f 267 266 271
f 262 272 266
f 266 272 273
f 266 273 251
f 251 273 274
f 251 274 249
f 55 54 271
f 271 54 275
f 275 276 271
f 271 276 277
f 271 277 267
f 278 285 286
f 286 285 287
f 290 291 285
f 285 291 292
f 285 292 287
f 293 294 298
f 298 294 299
f 298 299 290
f 290 299 300
f 290 300 291
f 293 298 301
f 301 298 302
f 301 302 306
f 306 302 307
f 307 302 308
f 307 308 311
f 311 308 312
f 312 308 313
f 312 313 315
f 316 317 318
f 318 317 320
f 315 313 321
f 321 313 322
f 320 323 318
f 318 323 324
f 318 324 313
f 313 324 325
f 313 325 322
f 326 328 329
f 326 329 318
f 318 329 330
f 318 330 316
f 331 334 336
f 336 337 331
f 331 337 338
f 331 338 326
f 326 338 339
f 326 339 328
f 341 343 345
f 345 346 341
f 341 346 347
f 341 347 334
f 334 347 348
f 334 348 336
f 349 345 350
f 350 345 343
f 157 63 58
f 92 86 111
f 355 356 281
f 279 359 156
f 280 155 283
f 282 154 56
f 284 57 288
f 288 57 270
f 289 268 296
f 295 269 263
f 297 264 303
f 304 265 252
f 305 253 310
f 309 252 256
f 309 256 314
f 314 256 67
f 314 67 319
f 319 67 75
f 319 75 327
f 327 75 243
f 327 243 332
f 332 243 237
f 332 237 335
f 333 239 231
f 335 229 340
f 342 232 225
f 340 224 344
f 344 224 89
f 344 89 351
f 352 90 112
f 351 110 362
f 362 110 365
f 19 17 366
f 366 17 367
f 366 367 368
f 368 367 369
f 369 367 370
f 369 370 371
f 371 370 372
f 371 372 373
f 373 372 374
f 374 372 375
f 374 375 376
f 376 375 377
f 377 375 378
f 377 378 379
f 379 378 345
f 379 345 349
f 380 381 382
f 383 384 385
f 384 316 330
f 380 382 386
f 23 387 388
f 384 330 385
f 385 330 329
f 385 329 389
f 389 329 328
f 389 328 390
f 391 392 393
f 393 392 394
f 393 394 395
f 395 394 396
f 395 396 397
f 397 396 398
f 397 398 399
f 399 398 400
f 399 400 401
f 401 400 402
f 401 402 390
f 390 402 403
f 390 403 389
f 389 403 405
f 389 405 385
f 385 405 382
f 385 382 383
f 383 382 381
f 392 406 394
f 394 406 407
f 394 407 396
f 396 407 408
f 396 408 398
f 398 408 409
f 398 409 400
f 400 409 410
f 400 410 402
f 402 410 411
f 402 411 403
f 403 411 412
f 403 412 404
f 404 412 413
f 404 413 382
f 382 413 388
f 382 388 386
f 386 388 387
f 328 339 390
f 390 339 338
f 390 338 401
f 401 338 337
f 401 337 399
f 399 337 336
f 399 336 397
f 397 336 348
f 397 348 395
f 395 348 347
f 395 347 393
f 393 347 346
f 393 346 391
f 391 346 345
f 345 378 391
f 391 378 375
f 391 375 392
f 392 375 372
f 392 372 406
f 406 372 370
f 406 370 367
f 23 388 7
f 7 388 413
f 7 413 8
f 8 413 412
f 8 412 10
f 10 412 411
f 10 411 11
f 11 411 410
f 11 410 12
f 12 410 409
f 12 409 13
f 13 409 408
f 13 408 14
f 14 408 407
f 14 407 15
f 15 407 406
f 15 406 16
f 16 406 367
f 16 367 17
f 414 387 23
f 387 414 386
f 320 317 415
f 323 320 416
f 324 323 417
f 325 324 418
f 322 325 419
f 321 322 420
f 315 321 421
f 315 421 422
f 422 421 423
f 422 423 424
f 424 423 425
f 425 423 426
f 425 426 427
f 323 416 417
f 417 416 428
f 417 428 429
f 429 428 430
f 429 430 431
f 320 415 416
f 416 415 432
f 416 432 428
f 428 432 433
f 428 433 430
f 380 433 381
f 381 433 432
f 381 432 383
f 383 432 415
f 383 415 384
f 384 415 317
f 384 317 316
f 380 386 433
f 433 386 414
f 433 414 430
f 430 414 434
f 430 434 431
f 431 434 435
f 427 426 436
f 436 426 437
f 436 437 438
f 438 437 24
f 438 24 27
f 439 38 3
f 321 420 421
f 421 420 440
f 421 440 423
f 423 440 441
f 423 441 426
f 426 441 439
f 426 439 437
f 437 439 3
f 437 3 24
f 442 42 40
f 322 419 420
f 420 419 443
f 420 443 440
f 440 443 444
f 440 444 441
f 441 444 442
f 441 442 439
f 439 442 40
f 439 40 38
f 325 418 419
f 419 418 445
f 419 445 443
f 443 445 446
f 443 446 444
f 444 446 447
f 444 447 442
f 442 447 44
f 442 44 42
f 324 417 418
f 418 417 429
f 418 429 445
f 445 429 431
f 445 431 446
f 446 431 435
f 446 435 447
f 447 435 48
f 447 48 44
f 23 22 414
f 414 22 21
f 414 21 434
f 434 21 52
f 434 52 435
f 435 52 53
f 435 53 48
f 450 451 452
f 451 287 292
f 449 453 456
f 6 457 458
f 451 292 452
f 452 292 291
f 452 291 459
f 459 291 300
f 459 300 460
f 460 300 299
f 460 299 461
f 461 299 294
f 461 294 462
f 294 293 462
f 462 293 301
f 462 301 463
f 463 301 306
f 463 306 464
f 465 466 467
f 467 466 468
f 467 468 469
f 469 468 470
f 469 470 471
f 471 470 472
f 471 472 473
f 473 472 474
f 473 474 475
f 475 474 476
f 475 476 477
f 477 476 478
f 477 478 479
f 479 478 480
f 479 480 481
f 481 480 458
f 481 458 483
f 484 458 457
f 306 307 464
f 464 307 311
f 464 311 485
f 485 311 312
f 485 312 486
f 486 312 315
f 486 315 422
f 422 424 486
f 486 424 465
f 486 465 485
f 485 465 467
f 485 467 464
f 464 467 469
f 464 469 463
f 463 469 471
f 463 471 462
f 462 471 473
f 462 473 461
f 461 473 475
f 461 475 460
f 460 475 477
f 460 477 459
f 459 477 479
f 459 479 452
f 452 479 481
f 452 481 455
f 455 481 482
f 424 425 465
f 465 425 427
f 465 427 466
f 466 427 436
f 466 436 438
f 6 458 36
f 36 458 480
f 36 480 33
f 33 480 478
f 33 478 34
f 34 478 476
f 34 476 35
f 35 476 474
f 35 474 30
f 30 474 472
f 30 472 31
f 31 472 470
f 31 470 32
f 32 470 468
f 32 468 29
f 29 468 466
f 29 466 28
f 28 466 438
f 28 438 27
f 286 287 487
f 487 287 451
f 487 451 488
f 488 451 489
f 489 451 450
f 489 448 490
f 490 448 454
f 490 455 491
f 491 455 492
f 492 455 482
f 492 484 493
f 493 484 494
f 494 484 457
f 494 457 495
f 495 457 6
f 495 6 5
f 152 153 358
f 152 358 497
f 496 357 353
f 496 353 498
f 499 354 278
f 499 278 286
f 496 498 500
f 152 497 502
f 488 501 487
f 487 501 499
f 487 499 286
f 489 504 488
f 488 504 507
f 488 507 501
f 489 490 504
f 504 490 491
f 504 491 509
f 509 491 492
f 509 492 510
f 510 492 493
f 510 493 512
f 493 494 512
f 512 494 495
f 512 495 515
f 515 495 5
f 515 5 517
f 496 500 503
f 503 500 506
f 503 506 519
f 519 506 505
f 519 505 520
f 520 505 508
f 520 508 523
f 523 508 511
f 523 511 525
f 525 511 513
f 525 513 526
f 526 513 514
f 526 514 529
f 529 514 516
f 529 516 530
f 152 502 150
f 150 502 518
f 150 518 151
f 151 518 521
f 151 521 168
f 168 521 522
f 168 522 167
f 167 522 524
f 167 524 169
f 169 524 527
f 169 527 170
f 170 527 528
f 170 528 173
f 173 528 531
f 173 531 174
f 517 5 4
f 530 516 533
f 174 531 535
f 517 4 532
f 532 4 26
f 532 26 536
f 536 26 2
f 536 2 539
f 174 535 177
f 177 535 540
f 177 540 178
f 178 540 543
f 178 543 148
f 2 1 539
f 539 1 37
f 539 37 545
f 545 37 39
f 545 39 546
f 546 39 41
f 546 41 549
f 549 41 43
f 549 43 550
f 550 43 45
f 550 45 552
f 148 543 149
f 149 543 554
f 149 554 138
f 138 554 556
f 138 556 141
f 141 556 559
f 141 559 144
f 144 559 561
f 144 561 145
f 145 561 563
f 145 563 128
f 128 563 565
f 128 565 131
f 131 565 566
f 131 566 134
f 134 566 568
f 134 568 135
f 45 49 552
f 552 49 47
f 552 47 571
f 571 47 46
f 571 46 573
f 573 46 51
f 573 51 575
f 575 51 50
f 575 50 577
f 577 50 20
f 577 20 578
f 20 9 578
f 578 9 18
f 578 18 581
f 581 18 19
f 581 19 582
f 530 533 534
f 534 533 537
f 534 537 541
f 541 537 538
f 541 538 542
f 542 538 544
f 542 544 555
f 555 544 547
f 555 547 557
f 557 547 548
f 557 548 558
f 558 548 551
f 558 551 560
f 560 551 553
f 560 553 562
f 562 553 570
f 562 570 564
f 564 570 572
f 564 572 567
f 567 572 574
f 567 574 569
f 569 574 576
f 569 576 584
f 584 576 579
f 584 579 587
f 587 579 580
f 587 580 589
f 589 580 583
f 589 583 591
f 135 568 119
f 119 568 585
f 119 585 120
f 120 585 586
f 120 586 121
f 121 586 588
f 121 588 124
f 124 588 590
f 124 590 125
f 591 583 593
f 125 590 594
f 368 592 366
f 366 592 582
f 366 582 19
f 369 596 368
f 368 596 599
f 368 599 592
f 369 371 596
f 596 371 373
f 596 373 601
f 601 373 374
f 601 374 603
f 603 374 376
f 603 376 605
f 376 377 605
f 605 377 379
f 605 379 607
f 607 379 349
f 607 349 608
f 591 593 595
f 595 593 598
f 595 598 610
f 610 598 597
f 610 597 612
f 612 597 600
f 612 600 614
f 614 600 602
f 614 602 617
f 617 602 604
f 617 604 619
f 619 604 606
f 619 606 621
f 621 606 609
f 621 609 622
f 125 594 100
f 100 594 611
f 100 611 101
f 101 611 613
f 101 613 102
f 102 613 615
f 102 615 95
f 95 615 616
f 95 616 93
f 93 616 618
f 93 618 94
f 94 618 620
f 94 620 114
f 114 620 623
f 114 623 113
f 349 350 361
f 349 361 608
f 609 360 363
f 609 363 622
f 623 364 109
f 623 109 113
f 82 88 625
f 82 625 108
f 106 624 626
f 106 626 104
f 103 627 179
f 103 179 97
f 625 88 226
f 626 624 628
f 179 627 630
f 625 226 629
f 629 226 222
f 629 222 633
f 633 222 221
f 633 221 634
f 634 221 234
f 634 234 635
f 234 233 635
f 636 233 228
f 636 228 638
f 638 228 227
f 638 227 639
f 639 227 241
f 639 241 641
f 241 240 641
f 641 240 236
f 641 236 643
f 643 236 235
f 643 235 646
f 646 235 242
f 646 242 648
f 648 242 245
f 648 245 650
f 650 245 248
f 650 248 651
f 248 247 651
f 651 247 246
f 651 246 653
f 653 246 78
f 653 78 655
f 626 628 631
f 631 628 632
f 631 632 657
f 657 632 634
f 657 634 659
f 659 634 635
f 659 635 661
f 661 635 637
f 661 637 664
f 664 637 640
f 664 640 666
f 666 640 642
f 666 642 667
f 667 642 644
f 667 644 669
f 669 644 645
f 669 645 671
f 671 645 647
f 671 647 673
f 673 647 649
f 673 649 675
f 675 649 652
f 675 652 678
f 678 652 654
f 678 654 680
f 680 654 656
f 680 656 681
f 179 630 183
f 183 630 658
f 183 658 181
f 181 658 660
f 181 660 182
f 182 660 662
f 182 662 184
f 184 662 663
f 184 663 185
f 185 663 665
f 185 665 186
f 186 665 668
f 186 668 187
f 187 668 670
f 187 670 188
f 188 670 672
f 188 672 189
f 189 672 674
f 189 674 190
f 190 674 676
f 190 676 191
f 191 676 677
f 191 677 192
f 192 677 679
f 192 679 193
f 193 679 682
f 193 682 194
f 681 656 684
f 655 78 77
f 655 77 683
f 683 77 74
f 683 74 686
f 686 74 73
f 686 73 687
f 687 73 81
f 687 81 689
f 689 81 80
f 689 80 692
f 692 80 79
f 692 79 694
f 694 79 72
f 694 72 696
f 696 72 71
f 696 71 697
f 697 71 70
f 697 70 699
f 699 70 69
f 699 69 701
f 701 69 68
f 701 68 703
f 681 684 706
f 706 684 685
f 706 685 707
f 707 685 688
f 707 688 709
f 709 688 690
f 709 690 712
f 712 690 691
f 712 691 713
f 713 691 693
f 713 693 715
f 715 693 695
f 715 695 717
f 717 695 698
f 717 698 720
f 720 698 700
f 720 700 721
f 721 700 702
f 721 702 723
f 723 702 704
f 723 704 726
f 194 682 195
f 195 682 705
f 195 705 196
f 196 705 708
f 196 708 197
f 197 708 710
f 197 710 198
f 198 710 711
f 198 711 199
f 199 711 714
f 199 714 200
f 200 714 716
f 200 716 204
f 204 716 718
f 204 718 205
f 205 718 719
f 205 719 206
f 206 719 722
f 206 722 207
f 207 722 724
f 207 724 208
f 208 724 725
f 208 725 209
f 703 68 260
f 726 704 727
f 209 725 729
f 703 260 728
f 728 260 259
f 728 259 731
f 731 259 254
f 731 254 733
f 733 254 255
f 733 255 736
f 255 258 736
f 736 258 261
f 736 261 737
f 737 261 250
f 737 250 740
f 740 250 249
f 740 249 741
f 741 249 274
f 741 274 744
f 744 274 273
f 744 273 745
f 273 272 745
f 745 272 262
f 745 262 747
f 747 262 267
f 747 267 749
f 749 267 277
f 749 277 752
f 277 276 752
f 752 276 275
f 752 275 753
f 753 275 54
f 753 54 756
f 726 727 730
f 730 727 732
f 730 732 758
f 758 732 734
f 758 734 760
f 760 734 735
f 760 735 761
f 761 735 738
f 761 738 764
f 764 738 739
f 764 739 766
f 766 739 742
f 766 742 767
f 767 742 743
f 767 743 770
f 770 743 746
f 770 746 772
f 772 746 748
f 772 748 774
f 774 748 750
f 774 750 776
f 776 750 751
f 776 751 777
f 777 751 754
f 777 754 779
f 779 754 755
f 779 755 782
f 209 729 203
f 203 729 757
f 203 757 201
f 201 757 759
f 201 759 202
f 202 759 762
f 202 762 210
f 210 762 763
f 210 763 211
f 211 763 765
f 211 765 212
f 212 765 768
f 212 768 213
f 213 768 769
f 213 769 214
f 214 769 771
f 214 771 215
f 215 771 773
f 215 773 216
f 216 773 775
f 216 775 217
f 217 775 778
f 217 778 218
f 218 778 780
f 218 780 219
f 219 780 781
f 219 781 220
f 165 220 781
f 165 781 161
f 160 782 755
f 160 755 162
f 163 756 54
f 163 54 61
