mtllib converted_link2_1_242424ff.mtl
usemtl material
v -0.0003226802800782025 -0.01750168949365616 0.013471905142068863
v -0.0003019791329279542 -0.01566782034933567 0.016677716746926308
v -0.000305980967823416 -0.003917019348591566 0.01797517202794552
v -0.000305980967823416 -0.003917019348591566 0.01797517202794552
v -0.000305980967823416 -0.003917019348591566 0.01797517202794552
v -0.000305980967823416 -0.003917019348591566 0.01797517202794552
v -0.00028491963166743517 -0.013243894092738628 0.019464122131466866
v -0.00029500958044081926 -0.0038725112099200487 0.019527336582541466
v -0.00029500958044081926 -0.0038725112099200487 0.019527336582541466
v -0.00029500958044081926 -0.0038725112099200487 0.019527336582541466
v -0.00029500958044081926 -0.0038725112099200487 0.019527336582541466
v -0.0002721571654547006 -0.010322894901037216 0.021724091842770576
v -0.0002865385031327605 -0.003057706868276 0.020849375054240227
v -0.0002865385031327605 -0.003057706868276 0.020849375054240227
v -0.0002865385031327605 -0.003057706868276 0.020849375054240227
v -0.0002865385031327605 -0.003057706868276 0.020849375054240227
v -0.00026418131892569363 -0.007017053198069334 0.023370904847979546
v -0.0002828379801940173 -0.0016911200946196914 0.021586956456303596
v -0.0002828379801940173 -0.0016911200946196914 0.021586956456303596
v -0.0002828379801940173 -0.0016911200946196914 0.021586956456303596
v -0.0002828379801940173 -0.0016911200946196914 0.021586956456303596
v -0.00026129966136068106 -0.0034535506274551153 0.024341104552149773
v -0.0002849007723852992 -0.00013886451779399067 0.021542292088270187
v -0.0002849007723852992 -0.00013886451779399067 0.021542292088270187
v -0.0002849007723852992 -0.00013886451779399067 0.021542292088270187
v -0.00026362304924987257 0.00023077607329469174 0.024597404524683952
v -0.00029217213159427047 0.0011831264710053802 0.020727626979351044
v -0.00029217213159427047 0.0011831264710053802 0.020727626979351044
v -0.00029217213159427047 0.0011831264710053802 0.020727626979351044
v -0.0005085445591248572 0.012623785063624382 -0.007932480424642563
v -0.000325847853673622 -0.00030524167232215405 0.015749307349324226
v -0.000325847853673622 -0.00030524167232215405 0.015749307349324226
v -0.000325847853673622 -0.00030524167232215405 0.015749307349324226
v -0.000325847853673622 -0.00030524167232215405 0.015749307349324226
v -0.0004914849414490163 0.015047729946672916 -0.005146053619682789
v -0.00032214762177318335 0.0010613841004669666 0.01648685522377491
v -0.00032214762177318335 0.0010613841004669666 0.01648685522377491
v -0.00032214762177318335 0.0010613841004669666 0.01648685522377491
v -0.0005213074036873877 0.00970272347331047 -0.010192515328526497
v -0.0005292827263474464 0.006396963261067867 -0.011839241720736027
v -0.00032378581818193197 -0.001857512048445642 0.01579386554658413
v -0.00032378581818193197 -0.001857512048445642 0.01579386554658413
v -0.00032378581818193197 -0.001857512048445642 0.01579386554658413
v -0.00032378581818193197 -0.001857512048445642 0.01579386554658413
v -0.000532164063770324 0.0028334155213087797 -0.012809401378035545
v -0.0005298414034768939 -0.0008509281324222684 -0.013065805658698082
v -0.0005224027554504573 -0.004514495842158794 -0.0125984326004982
v -0.0004217496025376022 0.01852201111614704 0.005225108936429024
v -0.0004472368163987994 0.01805465668439865 0.00156169175170362
v -0.0004707833577413112 0.01688154600560665 -0.0019401939352974296
v -0.00027106094057671726 0.003894360037520528 0.024130135774612427
v -0.00028332864167168736 0.007396370638161898 0.0229570921510458
v -0.00030270556453615427 0.0019206370925530791 0.019360991194844246
v -0.00030270556453615427 0.0019206370925530791 0.019360991194844246
v -0.00030270556453615427 0.0019206370925530791 0.019360991194844246
v -0.00030270556453615427 0.0019206370925530791 0.019360991194844246
v -0.0002999546122737229 0.01060223113745451 0.021123362705111504
v -0.000313676951918751 0.001876126159913838 0.017808828502893448
v -0.000313676951918751 0.001876126159913838 0.017808828502893448
v -0.000313676951918751 0.001876126159913838 0.017808828502893448
v -0.000313676951918751 0.001876126159913838 0.017808828502893448
v -0.0003202999068889767 0.013388662599027157 0.018699409440159798
v -0.00034622702514752746 -0.018674813210964203 0.009969990700483322
v -0.0003165140515193343 -0.003179555991664529 0.016608577221632004
v -0.0003165140515193343 -0.003179555991664529 0.016608577221632004
v -0.0003165140515193343 -0.003179555991664529 0.016608577221632004
v -0.0003165140515193343 -0.003179555991664529 0.016608577221632004
v -0.00037171447183936834 -0.01914210058748722 0.006306554656475782
v -0.0005101353744976223 -0.008016462437808514 -0.011425427161157131
v -0.0004935094038955867 -0.011222322471439838 -0.00959169864654541
v -0.0004731645458377898 -0.014008813537657261 -0.007167811505496502
v -0.000343581719789654 0.015648754313588142 0.015778543427586555
v -0.0003689066506922245 0.01729544997215271 0.012472794391214848
v -0.0003953003033529967 0.01826566830277443 0.00890940148383379
v -0.00044988232548348606 -0.016268843784928322 -0.004246880766004324
v -0.0004245579184498638 -0.017915621399879456 -0.0009412178187631071
v -0.00039816342177800834 -0.01888580247759819 0.0026223009917885065
v -0.0005042552365921438 0.014003087766468525 0.01928105019032955
v -0.0005285817314870656 0.016364526003599167 0.016229109838604927
v -0.0005550427595153451 0.018085144460201263 0.012775073759257793
v -0.0005826206761412323 0.01909884810447693 0.009051776491105556
v -0.000610256684012711 0.01936667412519455 0.005202178377658129
v -0.0006368876784108579 0.018878348171710968 0.001374358544126153
v -0.0006614909507334232 0.0176526065915823 -0.002284675370901823
v -0.0006831206264905632 0.01573650725185871 -0.005634274333715439
v -0.000700945733115077 0.013203846290707588 -0.008545724675059319
v -0.0007142809918150306 0.010151730850338936 -0.0109071284532547
v -0.0007226142915897071 0.0066976179368793964 -0.012627759948372841
v -0.0007256253156810999 0.0029742217157036066 -0.01364150084555149
v -0.0007231980562210083 -0.0008754275040701032 -0.0139093566685915
v -0.0007154259365051985 -0.004703362938016653 -0.013421048410236835
v -0.0007026076782494783 -0.008362413384020329 -0.012195340357720852
v -0.0006852360675111413 -0.011712097562849522 -0.010279382579028606
v -0.0006639782222919166 -0.014623607508838177 -0.0077467188239097595
v -0.0006396517273969948 -0.016985038295388222 -0.004694784060120583
v -0.0006131908157840371 -0.018705684691667557 -0.0012407643953338265
v -0.0005856124334968626 -0.019719405099749565 0.002482588402926922
v -0.0005579767748713493 -0.019987186416983604 0.0063321469351649284
v -0.0005313458968885243 -0.019498879089951515 0.010159943252801895
v -0.0005067425663582981 -0.018273118883371353 0.01381900068372488
v -0.0004851130652241409 -0.016357142478227615 0.017168549820780754
v -0.00046728772576898336 -0.013824358582496643 0.020080048590898514
v -0.000453952670795843 -0.01077236607670784 0.022441403940320015
v -0.0004456194001249969 -0.007318253628909588 0.024162035435438156
v -0.0004426082596182823 -0.0035947617143392563 0.02517581172287464
v -0.00044503595563583076 0.0002548341581132263 0.02544359490275383
v -0.00045280795893631876 0.0040827905759215355 0.024955308064818382
v -0.0004656263627111912 0.007741820998489857 0.02372957579791546
v -0.00048299753689207137 0.011091564781963825 0.021813685074448586
v -0.0016469656256958842 0.018407275900244713 0.017519496381282806
v -0.001676670042797923 0.020338857546448708 0.013642095029354095
v -0.0017076288349926472 0.02147684432566166 0.009462360292673111
v -0.0017386521212756634 0.021777482703328133 0.005140912719070911
v -0.0017685474595054984 0.021229326725006104 0.0008439039229415357
v -0.0017961669946089387 0.01985328085720539 -0.0032637298572808504
v -0.0018204479711130261 0.017702318727970123 -0.007023904472589493
v -0.0018404580187052488 0.014859159477055073 -0.010292233899235725
v -0.0018554282141849399 0.011433003470301628 -0.012943126261234283
v -0.0018647830002009869 0.007555468939244747 -0.014874679036438465
v -0.0018681628862395883 0.0033755816984921694 -0.01601266860961914
v -0.001865438069216907 -0.0009459493448957801 -0.016313359141349792
v -0.001856713555753231 -0.005243132822215557 -0.01576523296535015
v -0.001842323923483491 -0.009350743144750595 -0.01438926998525858
v -0.0018228224944323301 -0.013111039064824581 -0.012238397262990475
v -0.0017989593325182796 -0.016379445791244507 -0.009395353496074677
v -0.0017716506263241172 -0.01903039775788784 -0.005969279911369085
v -0.0017419458599761128 -0.02096191979944706 -0.0020918133668601513
v -0.001710986951366067 -0.02209988795220852 0.0020879448857158422
v -0.0016799637814983726 -0.022400546818971634 0.006409368943423033
v -0.0016500682104378939 -0.02185237593948841 0.010706407018005848
v -0.0016224492574110627 -0.020476404577493668 0.01481394562870264
v -0.001598167815245688 -0.01832536794245243 0.018574213609099388
v -0.0015781576512381434 -0.015482209622859955 0.02184254489839077
v -0.001563187688589096 -0.012056074105203152 0.024493414908647537
v -0.0015538327861577272 -0.008178510703146458 0.026424983516335487
v -0.0015504532493650913 -0.003998685162514448 0.027562906965613365
v -0.0015531776007264853 0.00032290659146383405 0.02786366455256939
v -0.0015619026962667704 0.00462000910192728 0.027315450832247734
v -0.0015762918628752232 0.008727699518203735 0.0259395744651556
v -0.0015957934083417058 0.012487975880503654 0.023788679391145706
v -0.0016196569195017219 0.01575632393360138 0.02094556950032711
v -0.0018319766968488693 0.01912306807935238 0.01797008328139782
v -0.0018628176767379045 0.021128492429852486 0.013944307342171669
v -0.001894960762001574 0.022309966385364532 0.009604668244719505
v -0.0019271703204140067 0.02262217365205288 0.005117998458445072
v -0.001958209555596113 0.022053025662899017 0.0006565640214830637
v -0.00198688474483788 0.020624371245503426 -0.003608075203374028
v -0.002012095181271434 0.018391139805316925 -0.007512165233492851
v -0.002032870426774025 0.015439208596944809 -0.01090550608932972
v -0.0020484128035604954 0.01188203040510416 -0.01365771796554327
v -0.00205812556669116 0.007856136187911034 -0.01566316746175289
v -0.0020616345573216677 0.0035164104774594307 -0.016844669356942177
v -0.002058805897831917 -0.0009704563999548554 -0.017156904563307762
v -0.0020497473888099194 -0.005431931931525469 -0.016587790101766586
v -0.0020348073448985815 -0.00969669409096241 -0.0151591831818223
v -0.0020145601592957973 -0.013600793667137623 -0.01292606070637703
v -0.0019897841848433018 -0.016994232311844826 -0.009974268265068531
v -0.0019614307675510645 -0.019746530801057816 -0.006417118478566408
v -0.0019305897876620293 -0.02175196446478367 -0.0023913350887596607
v -0.001898447168059647 -0.022933488711714745 0.0019482300849631429
v -0.001866237143985927 -0.023245636373758316 0.006434966344386339
v -0.0018351979088038206 -0.022676490247249603 0.010896402411162853
v -0.0018065226031467319 -0.02124784328043461 0.015161048620939255
v -0.0017813127487897873 -0.019014671444892883 0.019065070897340775
v -0.0017605370376259089 -0.016062673181295395 0.022458471357822418
v -0.0017449946608394384 -0.01250549592077732 0.025210684165358543
v -0.0017352820141240954 -0.008479607291519642 0.027216140180826187
v -0.0017317726742476225 -0.0041399383917450905 0.02839765138924122
v -0.0017346021486446261 0.00034691361361183226 0.028709780424833298
v -0.0017436600755900145 0.004808468744158745 0.028140755370259285
v -0.0017586001195013523 0.00907322857528925 0.026712149381637573
v -0.0017788473051041365 0.012977330014109612 0.024479025974869728
v -0.0018036233959719539 0.0163707472383976 0.021527212113142014
v -0.0018480715807527304 -0.025228967890143394 0.008679142221808434
v -0.0018186545930802822 -0.024346336722373962 0.012961761094629765
v -0.0017916093347594142 -0.022733429446816444 0.017026029527187347
v -0.0017677567666396499 -0.020439298823475838 0.020748548209667206
v -0.001747822156175971 -0.01753350719809532 0.024016177281737328
v -0.0017324116779491305 -0.014104439876973629 0.026729527860879898
v -0.0017219929723069072 -0.010256374254822731 0.02880624681711197
v -0.001716882805339992 -0.006106118205934763 0.030183225870132446
v -0.002070364775136113 -0.003214682452380657 -0.01914019137620926
v -0.0020592818036675453 -0.0074974000453948975 -0.01825764961540699
v -0.002043258398771286 -0.011561799794435501 -0.016644736751914024
v -0.002022783039137721 -0.015284385532140732 -0.014350727200508118
v -0.0019984759856015444 -0.01855204626917839 -0.011445056647062302
v -0.001971076475456357 -0.0212654247879982 -0.008016075007617474
v -0.001941417925991118 -0.023342201486229897 -0.004168128594756126
v -0.0019104001112282276 -0.02471919357776642 -1.793831143004354e-05
v -0.0018789664609357715 -0.02535448782145977 0.004308290313929319
v -0.001717236591503024 -0.0017797838663682342 0.03081858903169632
v -0.0017230425728484988 0.0025911517441272736 0.03069317527115345
v -0.0017341261263936758 0.006873857229948044 0.029810525476932526
v -0.001750148949213326 0.010938269086182117 0.028197720646858215
v -0.0017706251237541437 0.014660842716693878 0.025903603062033653
v -0.0017949320608749986 0.017928503453731537 0.022997932508587837
v -0.001822330872528255 0.02064189314842224 0.01956905983388424
v -0.0018519902369007468 0.022718658670783043 0.015721004456281662
v -0.0018830071203410625 0.02409566380083561 0.011570923030376434
v -0.0019144411198794842 0.024731004610657692 0.007244653068482876
v -0.0019453360000625253 0.02460550330579281 0.002873823046684265
v -0.0019747528713196516 0.023722872138023376 -0.0014087948948144913
v -0.0020017982460558414 0.02210996486246586 -0.0054730637930333614
v -0.0020256508141756058 0.019815806299448013 -0.009195597842335701
v -0.0020455855410546064 0.016910014674067497 -0.012463226914405823
v -0.0020609956700354815 0.013480975292623043 -0.015176561661064625
v -0.002071414375677705 0.009632909670472145 -0.01725328154861927
v -0.0020765247754752636 0.005482654552906752 -0.018630262464284897
v -0.0020761711057275534 0.0011562998406589031 -0.01926564611494541
v -0.0017450163140892982 0.020961614325642586 0.019778888672590256
v -0.0017450163140892982 0.020961614325642586 0.019778888672590256
v -0.0017751274863258004 0.02307010442018509 0.015872232615947723
v -0.0017751274863258004 0.02307010442018509 0.015872232615947723
v -0.0018066185293719172 0.02446805126965046 0.011658705770969391
v -0.0018066185293719172 0.02446805126965046 0.011658705770969391
v -0.0018385314615443349 0.025113122537732124 0.007266513537615538
v -0.0018385314615443349 0.025113122537732124 0.007266513537615538
v -0.0018698975909501314 0.02498568594455719 0.002829009899869561
v -0.0018698975909501314 0.02498568594455719 0.002829009899869561
v -0.0018997634761035442 0.024089599028229713 -0.0015189703553915024
v -0.0018997634761035442 0.024089599028229713 -0.0015189703553915024
v -0.0019272215431556106 0.022452084347605705 -0.005645266268402338
v -0.0019272215431556106 0.022452084347605705 -0.005645266268402338
v -0.0019514377927407622 0.020122917369008064 -0.009424564428627491
v -0.0019514377927407622 0.020122917369008064 -0.009424564428627491
v -0.0019716762471944094 0.017172863706946373 -0.012741968035697937
v -0.0019716762471944094 0.017172863706946373 -0.012741968035697937
v -0.0019873217679560184 0.01369151659309864 -0.015496726147830486
v -0.0019873217679560184 0.01369151659309864 -0.015496726147830486
v -0.0019978999625891447 0.009784664027392864 -0.017605198547244072
v -0.0019978999625891447 0.009784664027392864 -0.017605198547244072
v -0.0020030876621603966 0.005571104120463133 -0.019003136083483696
v -0.0020030876621603966 0.005571104120463133 -0.019003136083483696
v -0.0020027286373078823 0.0011787767289206386 -0.01964821107685566
v -0.0020027286373078823 0.0011787767289206386 -0.01964821107685566
v -0.0019968338310718536 -0.0032588739413768053 -0.01952086016535759
v -0.0019968338310718536 -0.0032588739413768053 -0.01952086016535759
v -0.0019855815917253494 -0.007606932893395424 -0.0186248030513525
v -0.0019855815917253494 -0.007606932893395424 -0.0186248030513525
v -0.001969314180314541 -0.011733357794582844 -0.01698736473917961
v -0.001969314180314541 -0.011733357794582844 -0.01698736473917961
v -0.0019485257798805833 -0.01551271602511406 -0.014658265747129917
v -0.0019485257798805833 -0.01551271602511406 -0.014658265747129917
v -0.0019238484092056751 -0.018830174580216408 -0.011708313599228859
v -0.0019238484092056751 -0.018830174580216408 -0.011708313599228859
v -0.0018960313173010945 -0.02158498764038086 -0.008227093145251274
v -0.0018960313173010945 -0.02158498764038086 -0.008227093145251274
v -0.0018659197958186269 -0.023693418130278587 -0.004320371430367231
v -0.0018659197958186269 -0.023693418130278587 -0.004320371430367231
v -0.0018344291020184755 -0.025091422721743584 -0.0001069114514393732
v -0.0018344291020184755 -0.025091422721743584 -0.0001069114514393732
v -0.0018025157041847706 -0.025736436247825623 0.004285349044948816
v -0.0018025157041847706 -0.025736436247825623 0.004285349044948816
v -0.001771149574778974 -0.025609007105231285 0.008722858503460884
v -0.001771149574778974 -0.025609007105231285 0.008722858503460884
v -0.0017412840388715267 -0.024712951853871346 0.0130707873031497
v -0.0017412840388715267 -0.024712951853871346 0.0130707873031497
v -0.001713825506158173 -0.023075375705957413 0.017197148874402046
v -0.001713825506158173 -0.023075375705957413 0.017197148874402046
v -0.0016896091401576996 -0.02074621617794037 0.02097645401954651
v -0.0016896091401576996 -0.02074621617794037 0.02097645401954651
v -0.001669370918534696 -0.017796162515878677 0.02429385855793953
v -0.001669370918534696 -0.017796162515878677 0.02429385855793953
v -0.0016537252813577652 -0.014314808882772923 0.027048610150814056
v -0.0016537252813577652 -0.014314808882772923 0.027048610150814056
v -0.001643147668801248 -0.010408016853034496 0.029157016426324844
v -0.001643147668801248 -0.010408016853034496 0.029157016426324844
v -0.001637959387153387 -0.006194425281137228 0.030555004253983498
v -0.001637959387153387 -0.006194425281137228 0.030555004253983498
v -0.0016383185284212232 -0.0018020907882601023 0.031200073659420013
v -0.0016383185284212232 -0.0018020907882601023 0.031200073659420013
v -0.0016442136839032173 0.002635502489283681 0.03107265569269657
v -0.0016442136839032173 0.002635502489283681 0.03107265569269657
v -0.001655465574003756 0.006983619648963213 0.030176665633916855
v -0.001655465574003756 0.006983619648963213 0.030176665633916855
v -0.001671733451075852 0.011109985411167145 0.028539158403873444
v -0.001671733451075852 0.011109985411167145 0.028539158403873444
v -0.0016925213858485222 0.014889402315020561 0.026210127398371696
v -0.0016925213858485222 0.014889402315020561 0.026210127398371696
v -0.0017171988729387522 0.01820686087012291 0.023260176181793213
v -0.0017171988729387522 0.01820686087012291 0.023260176181793213
v 0.0006962449406273663 -0.01015571691095829 -0.024959268048405647
v 0.0006959261954762042 -0.009976310655474663 -0.024975748732686043
v 0.0006951838149689138 -0.010382249020040035 -0.025144590064883232
v 0.0006945878267288208 -0.010386680252850056 -0.02522922493517399
v 0.0006927805370651186 -0.010322791524231434 -0.02547363191843033
v 0.0006956704310141504 -0.009891980327665806 -0.024998413398861885
v 0.0006195037276484072 -0.006233403459191322 -0.03514564782381058
v 0.0006815869710408151 -0.0046885390765964985 -0.02615770697593689
v 0.0006137770833447576 -0.005695280618965626 -0.035866908729076385
v 0.0006752851768396795 -0.0009351118351332843 -0.0264507494866848
v 0.0006100971368141472 -0.004884167108684778 -0.03625670075416565
v 0.0006957215373404324 -0.010352973826229572 -0.025064220651984215
v 0.0006960281170904636 -0.01031013485044241 -0.025014258921146393
v 0.0006962018087506294 -0.01025354117155075 -0.024980833753943443
v 0.0006703599356114864 0.0071229347959160805 -0.025868181139230728
v 0.0006697983480989933 0.007102990057319403 -0.02595042623579502
v 0.0006719689117744565 0.006830990314483643 -0.025687821209430695
v 0.0006685545085929334 0.006983050610870123 -0.026144590228796005
v 0.000672043242957443 0.0064877476543188095 -0.025731714442372322
v 0.000667407235596329 0.006805057171732187 -0.026334350928664207
v 0.0006720979581587017 0.0028268909081816673 -0.02630379982292652
v 0.0006115730502642691 -0.003201908664777875 -0.03578241169452667
v 0.0006093020201660693 -0.003984792158007622 -0.03622623533010483
v 0.0006710603483952582 0.007098780479282141 -0.025773363187909126
v 0.0006707374705001712 0.007118547800928354 -0.025815706700086594
v 0.0006713299662806094 0.007065844722092152 -0.02574060671031475
v 0.0006716179777868092 0.00700348662212491 -0.02570992149412632
v 0.000533192593138665 -0.00293925148434937 -0.03606009483337402
v 0.0005304604419507086 -0.003880980657413602 -0.03659401461482048
v 0.0005304604419507086 -0.003880980657413602 -0.03659401461482048
v 0.0005314166774041951 -0.00496295653283596 -0.03663070127367973
v 0.0005314166774041951 -0.00496295653283596 -0.03663070127367973
v 0.0005358438356779516 -0.0059386445209383965 -0.036161743104457855
v 0.0005358438356779516 -0.0059386445209383965 -0.036161743104457855
v 0.0005427325377240777 -0.006585991475731134 -0.035294126719236374
v 0.0005427325377240777 -0.006585991475731134 -0.035294126719236374
v 0.00031448330264538527 -0.0027167927473783493 -0.03629443421959877
v 0.00031136046163737774 -0.0037931627593934536 -0.036904700100421906
v 0.0003124531067442149 -0.005029890686273575 -0.03694668784737587
v 0.0003175133897457272 -0.006145112682133913 -0.03641066327691078
v 0.0003253880131524056 -0.006885009817779064 -0.03541885316371918
v 0.00039866426959633827 -0.010974460281431675 -0.025746922940015793
v 0.0006160092889331281 -0.010675390250980854 -0.02562212198972702
v 0.0006220267969183624 -0.009778270497918129 -0.024632582440972328
v 0.0006220267969183624 -0.009778270497918129 -0.024632582440972328
v 0.0004073335148859769 -0.009682001546025276 -0.024321332573890686
v 0.000637079356238246 -0.009901762008666992 -0.024639273062348366
v 0.000637079356238246 -0.009901762008666992 -0.024639273062348366
v 0.00046326685696840286 -0.009836473502218723 -0.024343116208910942
v 0.000664067396428436 -0.010174691677093506 -0.0247011911123991
v 0.0005661369650624692 -0.01019234862178564 -0.024460196495056152
v 0.0006743454141542315 -0.010334809310734272 -0.024781687185168266
v 0.0006774066714569926 -0.010436457581818104 -0.0248614102602005
v 0.0006764359422959387 -0.010524552315473557 -0.024961179122328758
v 0.0006695527699775994 -0.010605874471366405 -0.025103982537984848
v 0.0006587205571122468 -0.010652479715645313 -0.025243936106562614
v 0.000597106758505106 -0.010347765870392323 -0.02454715222120285
v 0.0006067509530112147 -0.010412349365651608 -0.0245915986597538
v 0.0006198162445798516 -0.010557875968515873 -0.024714279919862747
v 0.0006174849695526063 -0.010689178481698036 -0.02486192248761654
v 0.0005929432809352875 -0.010817929171025753 -0.025065258145332336
v 0.0005532829090952873 -0.010899067856371403 -0.02525700069963932
v 0.0005986805772408843 0.006406966131180525 -0.02535712532699108
v 0.0005986805772408843 0.006406966131180525 -0.02535712532699108
v 0.0005987343029119074 0.0027895201928913593 -0.025922467932105064
v 0.0005987343029119074 0.0027895201928913593 -0.025922467932105064
v 0.0006018845015205443 -0.0009277596836909652 -0.026067551225423813
v 0.0006018845015205443 -0.0009277596836909652 -0.026067551225423813
v 0.000608110916800797 -0.004636566620320082 -0.02577805519104004
v 0.000608110916800797 -0.004636566620320082 -0.02577805519104004
v 0.00038422553916461766 0.00633826432749629 -0.02503843978047371
v 0.0003842786536552012 0.002757682465016842 -0.025598037987947464
v 0.0003873965470120311 -0.0009216848411597311 -0.025741660967469215
v 0.00039355969056487083 -0.004592744167894125 -0.02545510232448578
v 0.0005890267784707248 0.007067713886499405 -0.02661203220486641
v 0.0005890267784707248 0.007067713886499405 -0.02661203220486641
v 0.0003703174297697842 0.007290180306881666 -0.026846377179026604
v 0.0006234912434592843 0.007210319861769676 -0.026326995342969894
v 0.0006508128135465086 0.007280455902218819 -0.026018988341093063
v 0.0006588571122847497 0.007271992042660713 -0.025878503918647766
v 0.0006621922366321087 0.007245337590575218 -0.025782395154237747
v 0.0006631321739405394 0.007203466258943081 -0.025698624551296234
v 0.0006620365311391652 0.0071487887762486935 -0.025626543909311295
v 0.000657643482554704 0.007057779934257269 -0.02554558590054512
v 0.0006406427710317075 0.006829925812780857 -0.025432394817471504
v 0.000495480140671134 0.007417755667120218 -0.0264928936958313
v 0.0005959706613793969 0.00745140528306365 -0.026084886863827705
v 0.0006251841550692916 0.007417722139507532 -0.025888364762067795
v 0.0006365354056470096 0.0073699066415429115 -0.025749558582901955
v 0.0006387393805198371 0.007306408602744341 -0.025624986737966537
v 0.0006329409079626203 0.0072301169857382774 -0.025514554232358932
v 0.00061401556013152 0.007110378704965115 -0.02538614347577095
v 0.0005452384939417243 0.006828702054917812 -0.025193465873599052
v -0.0006051271921023726 -0.0020901295356452465 -0.03695261850953102
v -0.000609351322054863 -0.003546122694388032 -0.0377780981361866
v -0.0006078728474676609 -0.00521882763132453 -0.03783480077981949
v -0.0006010289071127772 -0.006727356463670731 -0.037109874188899994
v -0.0005903779529035091 -0.007728092838078737 -0.03576837480068207
v -0.0005027578445151448 -0.012618026696145535 -0.024203164502978325
v -0.000696290866471827 -0.013198243454098701 -0.0227314792573452
v -0.0005623499746434391 -0.012944594956934452 -0.02300160750746727
v -0.0006429064087569714 -0.013099294155836105 -0.023206932470202446
v -0.000590561656281352 -0.011898469179868698 -0.022478019818663597
v -0.0005593515816144645 -0.01244625635445118 -0.0225004144012928
v -0.0006758084637112916 -0.012548184022307396 -0.022263333201408386
v -0.0004943181411363184 -0.01126136351376772 -0.02279972843825817
v -0.0007150350138545036 -0.01316890213638544 -0.02249622903764248
v -0.0007191702025011182 -0.01311978418380022 -0.022399259731173515
v -0.0007188991876319051 -0.013045871630311012 -0.022324204444885254
v -0.0007082863012328744 -0.012869718484580517 -0.02225339040160179
v -0.0001311393571086228 0.008072455413639545 -0.024068433791399002
v -0.0005143340677022934 -0.004469458479434252 -0.024542924016714096
v -0.0005205608322285116 0.009522282518446445 -0.023203901946544647
v -0.0005233457777649164 0.002667704364284873 -0.024681704118847847
v 0.00021667909459210932 0.008469141088426113 -0.0245998315513134
v -0.0005343702505342662 0.010591352358460426 -0.02497938647866249
v -0.0001450070267310366 0.009087535552680492 -0.025860672816634178
v 0.00021163778728805482 0.008838123641908169 -0.025251368060708046
v -0.0007694130763411522 0.012721751816570759 -0.021965835243463516
v -0.000729928317014128 0.01291035208851099 -0.022260816767811775
v -0.0007973029860295355 0.013253840617835522 -0.021989881992340088
v -0.0007975419866852462 0.013279438950121403 -0.0220278799533844
v -0.0007959954673424363 0.01329406164586544 -0.022110486403107643
v -0.0007899762131273746 0.01325883436948061 -0.02225838601589203
v -0.0007720296271145344 0.013087650761008263 -0.022562319412827492
v -0.0006861277506686747 0.012160046957433224 -0.023606112226843834
v -0.0007917789043858647 0.01311677135527134 -0.021930361166596413
v -0.0007961589726619422 0.013216283172369003 -0.021961156278848648
v -0.0006819923873990774 0.011458885855972767 -0.02238713949918747
v -0.0007477332837879658 0.01238371804356575 -0.0220558512955904
v -0.0007623750134371221 0.012608869932591915 -0.021992521360516548
v -0.0008844944532029331 -0.008379723876714706 -0.03604169934988022
v -0.0008077120874077082 -0.008027135394513607 -0.03589322045445442
v -0.0008077120874077082 -0.008027135394513607 -0.03589322045445442
v -0.0008193482644855976 -0.0069338176399469376 -0.03735880181193352
v -0.0008193482644855976 -0.0069338176399469376 -0.03735880181193352
v -0.0008268249221146107 -0.005285806953907013 -0.03815074637532234
v -0.0008268249221146107 -0.005285806953907013 -0.03815074637532234
v -0.0008284401264972985 -0.0034583047963678837 -0.038088783621788025
v -0.0008284401264972985 -0.0034583047963678837 -0.038088783621788025
v -0.0008238254813477397 -0.0018676829058676958 -0.037186987698078156
v -0.0008972927462309599 -0.007177190855145454 -0.03765364736318588
v -0.0009055161499418318 -0.005364537239074707 -0.03852467983961105
v -0.0009072929969988763 -0.003354607382789254 -0.03845660015940666
v -0.0009022170561365783 -0.0016050060512498021 -0.03746464475989342
v -0.0007200917461887002 -0.01291712373495102 -0.02432798035442829
v -0.0007968743448145688 -0.013269657269120216 -0.024476489052176476
v -0.0007090708240866661 -0.011145485565066338 -0.02249530516564846
v -0.0007828079396858811 -0.011008604429662228 -0.022137397900223732
v -0.0007326996419578791 -0.011835112236440182 -0.022204028442502022
v -0.0007535243639722466 -0.012560861185193062 -0.02204507775604725
v -0.0007617605733685195 -0.012936894781887531 -0.02208145707845688
v -0.0007649132166989148 -0.013154984451830387 -0.022191159427165985
v -0.0007654594373889267 -0.013253359124064445 -0.022290483117103577
v -0.0007650397019460797 -0.013325813226401806 -0.022411786019802094
v -0.000761771691031754 -0.013395318761467934 -0.022692343220114708
v -0.0007510061841458082 -0.013347241096198559 -0.023234685882925987
v -0.0007510061841458082 -0.013347241096198559 -0.023234685882925987
v -0.0007802760228514671 -0.011764716356992722 -0.02190057933330536
v -0.0007787571521475911 -0.012574269436299801 -0.02181488648056984
v -0.0007788967341184616 -0.013006539084017277 -0.021903004497289658
v -0.0007796751451678574 -0.013267616741359234 -0.022053979337215424
v -0.0007804189808666706 -0.013391273096203804 -0.022178318351507187
v -0.0007813488482497633 -0.01348828338086605 -0.022324636578559875
v -0.0007835441501811147 -0.013601528480648994 -0.022651731967926025
v -0.0007878858014009893 -0.013614894822239876 -0.023265289142727852
v -0.0007288742926903069 -0.004425571765750647 -0.02421998791396618
v -0.0007288742926903069 -0.004425571765750647 -0.02421998791396618
v -0.0008023611735552549 -0.004373644012957811 -0.023840295150876045
v -0.0008111645001918077 0.002598567632958293 -0.02397584728896618
v -0.0007377902511507273 0.0026358661707490683 -0.024357276037335396
v -0.0007377902511507273 0.0026358661707490683 -0.024357276037335396
v -0.0008084441069513559 0.009294740855693817 -0.022532224655151367
v -0.0007350350497290492 0.009417803026735783 -0.02289515919983387
v -0.0007350350497290492 0.009417803026735783 -0.02289515919983387
v -0.0007530684815719724 0.010813825763761997 -0.025213738903403282
v -0.0008314601145684719 0.011076482944190502 -0.025491420179605484
v -0.0007867055246606469 0.01234771404415369 -0.023755792528390884
v -0.0008032004116103053 0.013216719962656498 -0.022616444155573845
v -0.0008059042738750577 0.013359442353248596 -0.02227054536342621
v -0.0008064672001637518 0.01337548065930605 -0.022094925865530968
v -0.0008062395500019193 0.01334649883210659 -0.021991385146975517
v -0.0008058423991315067 0.01331225223839283 -0.021940872073173523
v -0.000805260322522372 0.013266321271657944 -0.02189975045621395
v -0.0008037402876652777 0.013151559978723526 -0.02184656262397766
v -0.000797521322965622 0.012721508741378784 -0.021828971803188324
v -0.0007919964264146984 0.012363753281533718 -0.02188771218061447
v -0.0007756570703350008 0.0114012211561203 -0.022157175466418266
v -0.0007756570703350008 0.0114012211561203 -0.022157175466418266
v -0.0008219354785978794 0.012549162842333317 -0.023916812613606453
v -0.0008139940327964723 0.013348563574254513 -0.022671805694699287
v -0.0008113587973639369 0.013461202383041382 -0.022282835096120834
v -0.0008099090191535652 0.013457524590194225 -0.02207924611866474
v -0.0008089754264801741 0.013414022512733936 -0.02195465937256813
v -0.0008084795554168522 0.013371000066399574 -0.0218916367739439
v -0.0008080379921011627 0.013316629454493523 -0.02183806523680687
v -0.0008073525386862457 0.013186639174818993 -0.021762117743492126
v -0.0008063133573159575 0.012721341103315353 -0.021689461544156075
v -0.0008060660329647362 0.012343228794634342 -0.021714510396122932
v -0.000806337280664593 0.011339662596583366 -0.021911650896072388
v -0.0006888251518830657 -0.022018147632479668 -0.010645314119756222
v -0.0009234628523699939 -0.005913724657148123 -0.04113911837339401
v -0.0009179204935207963 -0.007480795960873365 -0.04060676321387291
v -0.0009263331885449588 -0.004264933988451958 -0.041282229125499725
v -0.0009263657266274095 -0.002629620488733053 -0.04102781042456627
v -0.0008891146280802786 -0.010840392671525478 -0.03708207234740257
v -0.0009002354345284402 -0.010017408058047295 -0.038517896085977554
v -0.0009100256720557809 -0.008875501342117786 -0.03971581533551216
v -0.0007871571579016745 0.023692572489380836 -0.017254093661904335
v -0.0007334729307331145 -0.016553273424506187 -0.01606762409210205
v -0.0007556860218755901 -0.012514813803136349 -0.01855633221566677
v -0.0007071037543937564 -0.020098157227039337 -0.01291543897241354
v -0.000773080566432327 0.02561059221625328 -0.014967895112931728
v -0.0007358214352279902 0.027642836794257164 -0.00939878635108471
v -0.0007556572672910988 0.02695133164525032 -0.012301807291805744
v -0.0007749285432510078 0.01465271133929491 -0.016963612288236618
v -0.0007862307247705758 0.010478124022483826 -0.01921646110713482
v -0.0009235579054802656 -0.0011022877879440784 -0.040390495210886
v -0.0009180724737234414 0.00022898467432241887 -0.03940713405609131
v -0.0007582102552987635 0.018372677266597748 -0.014020003378391266
v -0.0007365843048319221 0.021525010466575623 -0.01047513261437416
v -0.000710708147380501 0.024013856425881386 -0.0064367870800197124
v -0.0007146380376070738 0.027647940441966057 -0.0064146933145821095
v -0.0006813679356127977 0.025763537734746933 -0.0020276603754609823
v -0.0006526599172502756 0.026663433760404587 0.0021578518208116293
v -0.000791774713434279 0.00597572885453701 -0.020710302516818047
v -0.0007913908921182156 0.0012823318829759955 -0.021399563178420067
v -0.0007850921247154474 -0.0034595096949487925 -0.021263495087623596
v -0.0007730683428235352 -0.008105543442070484 -0.02030598185956478
v -0.0005974443629384041 -0.01149134710431099 -0.03735955432057381
v -0.0008136557298712432 -0.011192808859050274 -0.03723163530230522
v -0.0008136557298712432 -0.011192808859050274 -0.03723163530230522
v -0.0008253947598859668 -0.010324007831513882 -0.038747258484363556
v -0.0008253947598859668 -0.010324007831513882 -0.038747258484363556
v -0.0008357297047041357 -0.009118728339672089 -0.04001186043024063
v -0.0008357297047041357 -0.009118728339672089 -0.04001186043024063
v -0.0008440627716481686 -0.0076464335434138775 -0.04095224291086197
v -0.0008440627716481686 -0.0076464335434138775 -0.04095224291086197
v -0.0008499132818542421 -0.0059923529624938965 -0.041514210402965546
v -0.0008499132818542421 -0.0059923529624938965 -0.041514210402965546
v -0.0008529428741894662 -0.00425188522785902 -0.041665222495794296
v -0.0008529428741894662 -0.00425188522785902 -0.041665222495794296
v -0.0008529771002940834 -0.0025256602093577385 -0.04139665141701698
v -0.0008529771002940834 -0.0025256602093577385 -0.04139665141701698
v -0.0008500131662003696 -0.0009134089341387153 -0.04072389751672745
v -0.0008500131662003696 -0.0009134089341387153 -0.04072389751672745
v -0.0008442227845080197 0.0004918326740153134 -0.039685871452093124
v -0.0006097072619013488 -0.010583808645606041 -0.03894282504916191
v -0.0006205031531862915 -0.009324735961854458 -0.040263812988996506
v -0.0006292082834988832 -0.00778673542663455 -0.0412461943924427
v -0.0006353197386488318 -0.006058730185031891 -0.04183319956064224
v -0.0006384848384186625 -0.004240655805915594 -0.04199100658297539
v -0.0006385202286764979 -0.002437369432300329 -0.041710399091243744
v -0.000635424570646137 -0.000753159518353641 -0.04100769758224487
v -0.000629375921562314 0.0007147000287659466 -0.03992338106036186
v -0.000554175756406039 -0.02395244687795639 -0.0072330753318965435
v -0.000554175756406039 -0.02395244687795639 -0.0072330753318965435
v -0.00035402068169787526 -0.025246120989322662 -0.004819775931537151
v -0.0003506566572468728 -0.02526407316327095 -0.004785366356372833
v -0.0003571078705135733 -0.025243690237402916 -0.004817650653421879
v -0.0003555640287231654 -0.02524491958320141 -0.004818681161850691
v -0.0007378906011581421 -0.02374924346804619 -0.007068315055221319
v -0.0006355841760523617 -0.023844046518206596 -0.007147354073822498
v -0.0009793246863409877 -0.02145443670451641 -0.010216775350272655
v -0.0007636353839188814 -0.02171298861503601 -0.01041399035602808
v -0.0007279786514118314 0.026284068822860718 0.0022091539576649666
v -0.0007279786514118314 0.026284068822860718 0.0022091539576649666
v -0.0007562835817225277 0.025396795943379402 -0.0019175921333953738
v -0.0007562835817225277 0.025396795943379402 -0.0019175921333953738
v -0.0007852106937207282 0.023671677336096764 -0.0062646521255373955
v -0.0007852106937207282 0.023671677336096764 -0.0062646521255373955
v -0.0008107231114991009 0.0212178323417902 -0.010246225632727146
v -0.0008107231114991009 0.0212178323417902 -0.010246225632727146
v -0.0008320444612763822 0.018109900876879692 -0.01374116726219654
v -0.0008320444612763822 0.018109900876879692 -0.01374116726219654
v -0.000848527648486197 0.014442228712141514 -0.016643380746245384
v -0.000848527648486197 0.014442228712141514 -0.016643380746245384
v -0.000859671737998724 0.010326335206627846 -0.018864672631025314
v -0.000859671737998724 0.010326335206627846 -0.018864672631025314
v -0.000865137786604464 0.005887200124561787 -0.02033751644194126
v -0.000865137786604464 0.005887200124561787 -0.02033751644194126
v -0.0008647592621855438 0.0012597681488841772 -0.021017082035541534
v -0.0008647592621855438 0.0012597681488841772 -0.021017082035541534
v -0.0008585486211813986 -0.0034152609296143055 -0.02088283747434616
v -0.0008585486211813986 -0.0034152609296143055 -0.02088283747434616
v -0.000846694631036371 -0.0079960897564888 -0.019938917830586433
v -0.000846694631036371 -0.0079960897564888 -0.019938917830586433
v -0.0008295561419799924 -0.012343313544988632 -0.018213773146271706
v -0.0008295561419799924 -0.012343313544988632 -0.018213773146271706
v -0.0008076552767306566 -0.01632498949766159 -0.015760045498609543
v -0.0008076552767306566 -0.01632498949766159 -0.015760045498609543
v -0.0007816572324372828 -0.019819986075162888 -0.012652222067117691
v -0.0007816572324372828 -0.019819986075162888 -0.012652222067117691
v -0.0009440991561859846 0.02596229873597622 0.0022537303157150745
v -0.0009720617672428489 0.025085732340812683 -0.0018231146968901157
v -0.0010006396332755685 0.02338145487010479 -0.006117680110037327
v -0.001025843434035778 0.020957278087735176 -0.010051099583506584
v -0.0010469071567058563 0.017886895686388016 -0.013503815978765488
v -0.0010631905170157552 0.014263661578297615 -0.016370849683880806
v -0.0010741997975856066 0.010197488591074944 -0.018565287813544273
v -0.0010795996058732271 0.00581202981993556 -0.020020298659801483
v -0.0010792261455208063 0.001240588491782546 -0.020691705867648125
v -0.0010730907088145614 -0.003378004301339388 -0.02055910974740982
v -0.001061379094608128 -0.00790337659418583 -0.01962645910680294
v -0.0010444482322782278 -0.012198054231703281 -0.017922237515449524
v -0.0010228126775473356 -0.01613158918917179 -0.015498235821723938
v -0.00099712866358459 -0.01958436332643032 -0.012427957728505135
v -0.00031704449793323874 0.02660570852458477 0.008817944675683975
v -0.00031859023147262633 0.026604147627949715 0.008818265050649643
v -0.00031212245812639594 0.026606054976582527 0.008856412023305893
v -0.0003154990845359862 0.026607314124703407 0.008817585185170174
v -0.0005165694165043533 0.026668481528759003 0.006080195773392916
v -0.0005981600843369961 0.026532134041190147 0.006101480685174465
v -0.0005981600843369961 0.026532134041190147 0.006101480685174465
v -0.0005460394895635545 0.026513032615184784 0.007344320882111788
v -0.0007006266969256103 0.02641087770462036 0.006123749539256096
v -0.0015273411991074681 0.02123287320137024 0.01995573751628399
v -0.0015578360762447119 0.02336815930902958 0.015999292954802513
v -0.0015897279372438788 0.02478398010134697 0.011732145212590694
v -0.0016220477409660816 0.025437258183956146 0.007283962331712246
v -0.0016538129420951009 0.025308173149824142 0.002789979102090001
v -0.001684059388935566 0.024400722235441208 -0.0016133805038407445
v -0.0017118672840297222 0.022742286324501038 -0.0057922592386603355
v -0.001736392150633037 0.020383458584547043 -0.009619719348847866
v -0.001756888348609209 0.01739581674337387 -0.01297939196228981
v -0.0017727332888171077 0.013870103284716606 -0.0157692339271307
v -0.0017834457103163004 0.009913589805364609 -0.01790449395775795
v -0.0017886998830363154 0.005646257195621729 -0.019320297986268997
v -0.001788336900062859 0.001197968958877027 -0.01997367851436138
v -0.001782366307452321 -0.0032961303368210793 -0.01984458602964878
v -0.0017709707608446479 -0.007699612062424421 -0.018937133252620697
v -0.0017544960137456656 -0.011878538876771927 -0.01727880910038948
v -0.0017334434669464827 -0.01570609211921692 -0.014920135959982872
v -0.0017084511928260326 -0.01906586065888405 -0.011932560242712498
v -0.0016802793834358454 -0.021855687722563744 -0.008406924083828926
v -0.001649784855544567 -0.023990986868739128 -0.004450509324669838
v -0.0016178927617147565 -0.025406794622540474 -0.0001833310816437006
v -0.001585573423653841 -0.02606012299656868 0.004264776594936848
v -0.001553807407617569 -0.025931023061275482 0.008758867159485817
v -0.001523560960777104 -0.02502346783876419 0.013162253424525261
v -0.0014957531820982695 -0.023365138098597527 0.01734110526740551
v -0.0014712285483255982 -0.02100626565515995 0.021168526262044907
v -0.0014507323503494263 -0.018018623813986778 0.024528199806809425
v -0.001434887177310884 -0.01449295412749052 0.027318080887198448
v -0.0014241746393963695 -0.010536335408687592 0.029453366994857788
v -0.0014189204666763544 -0.006269108038395643 0.030869144946336746
v -0.0014192842645570636 -0.0018208338879048824 0.031522415578365326
v -0.0014252542750909925 0.002673315815627575 0.03139340132474899
v -0.001436650170944631 0.007076785899698734 0.030485916882753372
v -0.0014531246852129698 0.011255724355578423 0.028827624395489693
v -0.0014741778140887618 0.01508320588618517 0.026468854397535324
v -0.0014991700882092118 0.018442975357174873 0.023481277748942375
v -0.0006386347813531756 0.028028232976794243 -0.0063715470023453236
v -0.00042196171125397086 0.028350764885544777 -0.0063360827043652534
v -0.0004984602564945817 0.02417835406959057 -0.017770279198884964
v -0.0007133071194402874 0.02395537495613098 -0.017532793805003166
v -0.0006988128297962248 0.025930384173989296 -0.015178748406469822
v -0.0006988128297962248 0.025930384173989296 -0.015178748406469822
v -0.000680872704833746 0.027310902252793312 -0.01243357453495264
v -0.000680872704833746 0.027310902252793312 -0.01243357453495264
v -0.0006604476948268712 0.02802293933928013 -0.009444323368370533
v -0.0006604476948268712 0.02802293933928013 -0.009444323368370533
v -0.0004836111329495907 0.02620163932442665 -0.01535862311720848
v -0.000465231976704672 0.0276159830391407 -0.01254626177251339
v -0.0004443079815246165 0.028345337137579918 -0.009483994916081429
v 0.0004781720053870231 0.0014809210551902652 -0.0407414473593235
v 0.0004712364461738616 -0.00020237508579157293 -0.04198478162288666
v 0.00046768601168878376 -0.0021338188089430332 -0.04279068857431412
v 0.00046772643690928817 -0.0042016878724098206 -0.04311249405145645
v 0.0004713561793323606 -0.006286595016717911 -0.042931511998176575
v 0.00047836449812166393 -0.0082681430503726 -0.04225835204124451
v 0.0004883470246568322 -0.010031773708760738 -0.04113180935382843
v 0.0005007273284718394 -0.011475617066025734 -0.03961694613099098
v 0.0005147896590642631 -0.012516352348029613 -0.0378013551235199
v 0.0007615769281983376 -0.02628915011882782 -0.005227242596447468
v 0.0008016961510293186 0.027714166790246964 0.008975604549050331
v 0.0008363708038814366 0.026754941791296005 0.013706967234611511
v 0.0008606347837485373 0.025587283074855804 0.01693916879594326
v 0.0008702836348675191 0.02500295639038086 0.01820548251271248
v 0.0008971902425400913 -0.02737448364496231 0.013699473813176155
v 0.0008981177816167474 -0.027333883568644524 0.013836532831192017
v 0.0007958555361256003 -0.027781695127487183 -0.0006361169507727027
v 0.0008305587689392269 -0.02846948616206646 0.004142255987972021
v 0.0008646698552183807 -0.028332483023405075 0.008967863395810127
v 0.0009935788111761212 -0.01623326539993286 0.029038509353995323
v 0.0009950915118679404 -0.01581762358546257 0.02931736595928669
v 0.0009271674789488316 -0.02562357299029827 0.018198514357209206
v 0.0009537221631035209 -0.023131154477596283 0.02233298495411873
v 0.0009553487761877477 -0.022940553724765778 0.022592252120375633
v 0.0009760779794305563 -0.01997019164264202 0.025982005521655083
v 0.0010071996366605163 0.0021015158854424953 0.033860526978969574
v 0.0010056262835860252 0.0029553973581641912 0.033774178475141525
v 0.0010057120816782117 -0.012029901146888733 0.03141297027468681
v 0.001012123073451221 -0.007483131717890501 0.033035922795534134
v 0.0010125527624040842 -0.006824024952948093 0.03320081904530525
v 0.0010126237757503986 -0.0027262261137366295 0.033859819173812866
v 0.0009319004020653665 0.01934753730893135 0.025987377390265465
v 0.000924792024306953 0.020201073959469795 0.025121474638581276
v 0.0009024402825161815 0.022509455680847168 0.022339243441820145
v 0.000996008631773293 0.006858640816062689 0.03303788974881172
v 0.0009793798672035336 0.011405869387090206 0.031416211277246475
v 0.0009751475299708545 0.012341169640421867 0.03096828982234001
v 0.0009577997261658311 0.015609841793775558 0.029042856767773628
v 0.00069185730535537 0.02945893630385399 -0.006216824054718018
v 0.0006676791817881167 0.02945312298834324 -0.009622777812182903
v 0.0006450399523600936 0.02866385690867901 -0.012936095707118511
v 0.0006251543527469039 0.02713373675942421 -0.015978947281837463
v 0.0006090879905968904 0.024944530799984932 -0.01858830638229847
v 0.0008013093029148877 0.0016301635187119246 -0.0409012995660305
v 0.0007942004594951868 -9.510500967735425e-05 -0.04217568784952164
v 0.0011835055192932487 0.0016827889485284686 -0.04095940291881561
v 0.0011763363145291805 -5.711497942684218e-05 -0.04224460572004318
v 0.00117266655433923 -0.002053471514955163 -0.04307759553194046
v 0.0007905617821961641 -0.002074591349810362 -0.043001625686883926
v 0.0011727086966857314 -0.004190931096673012 -0.04341018199920654
v 0.0007906034006737173 -0.004193970467895269 -0.04333142563700676
v 0.0011764602968469262 -0.006346005015075207 -0.04322315379977226
v 0.0007943236269056797 -0.006330764386802912 -0.04314591735601425
v 0.0011837041238322854 -0.008394206874072552 -0.042527373880147934
v 0.0011837041238322854 -0.008394206874072552 -0.042527373880147934
v 0.0008015062776394188 -0.008361675776541233 -0.042456019669771194
v 0.001194023177959025 -0.010217134840786457 -0.04136284068226814
v 0.001194023177959025 -0.010217134840786457 -0.04136284068226814
v 0.0008117373217828572 -0.010169202461838722 -0.041301432996988297
v 0.001206819317303598 -0.011709616519510746 -0.0397971086204052
v 0.0008244261262007058 -0.01164902001619339 -0.039748821407556534
v 0.0012213548179715872 -0.012785350903868675 -0.037920426577329636
v 0.0008388384012505412 -0.012715612538158894 -0.037888042628765106
v 0.0010856257285922766 -0.02648838981986046 -0.00531390868127346
v 0.0014681422617286444 -0.026558032259345055 -0.005346278659999371
v 0.0013386019272729754 -0.00274441740475595 0.034073539078235626
v 0.00133313552942127 0.002120422199368477 0.03407415747642517
v 0.0013017747551202774 -0.02012094296514988 0.026135094463825226
v 0.001319410395808518 -0.016355272382497787 0.02921513095498085
v 0.0015027764020487666 -0.02806616760790348 -0.0007075503235682845
v 0.0015027764020487666 -0.02806616760790348 -0.0007075503235682845
v 0.0012222813675180078 -0.027582041919231415 0.013758271001279354
v 0.001189510920085013 -0.02854742668569088 0.008990276604890823
v 0.0011551373172551394 -0.028685564175248146 0.004127513617277145
v 0.00112016755156219 -0.02799243852496147 -0.000687548192217946
v 0.0012524885823950171 -0.025817740708589554 0.01829182542860508
v 0.001279247459024191 -0.02330624870955944 0.022458069026470184
v 0.00133163679856807 -0.01211958471685648 0.03160782530903816
v 0.001338097034022212 -0.007537947501987219 0.033243246376514435
v 0.0013218589592725039 0.006914095487445593 0.0332452617585659
v 0.0013051023706793785 0.01149625051766634 0.031611111015081406
v 0.001283355988562107 0.01573253981769085 0.02921946905553341
v 0.0012572575360536575 0.01949894428253174 0.026140492409467697
v 0.0012275718618184328 0.022685173898935318 0.022464441135525703
v 0.00119516730774194 0.025197794660925865 0.018298804759979248
v 0.0015378397656604648 -0.02876114286482334 0.004120401106774807
v 0.001572305685840547 -0.02862265519797802 0.008996213786303997
v 0.001572305685840547 -0.02862265519797802 0.008996213786303997
v 0.001605163561180234 -0.02765471860766411 0.013776933774352074
v 0.001635451801121235 -0.02588569186627865 0.018322637304663658
v 0.001635451801121235 -0.02588569186627865 0.018322637304663658
v 0.0016622822731733322 -0.02336737886071205 0.022500041872262955
v 0.0016848702216520905 -0.02017359621822834 0.026186957955360413
v 0.0016848702216520905 -0.02017359621822834 0.026186957955360413
v 0.0017025525448843837 -0.01639786921441555 0.029275162145495415
v 0.0017148122424259782 -0.01215081661939621 0.0316743403673172
v 0.0017148122424259782 -0.01215081661939621 0.0316743403673172
v 0.0017212898237630725 -0.0075568221509456635 0.033314164727926254
v 0.0017217957647517323 -0.0027505175676196814 0.034146618098020554
v 0.0017217957647517323 -0.0027505175676196814 0.034146618098020554
v 0.0017163149314001203 0.0021273591555655003 0.03414728865027428
v 0.0017050080932676792 0.0069338977336883545 0.03331616520881653
v 0.0017050080932676792 0.0069338977336883545 0.03331616520881653
v 0.0016882064519450068 0.01152823492884636 0.03167760372161865
v 0.0016664020949974656 0.01577594131231308 0.029279597103595734
v 0.0016664020949974656 0.01577594131231308 0.029279597103595734
v 0.0016402340261265635 0.019552430137991905 0.02619241178035736
v 0.0016104679089039564 0.022747186943888664 0.022506386041641235
v 0.0016104679089039564 0.022747186943888664 0.022506386041641235
v 0.0015779773239046335 0.025266550481319427 0.018329687416553497
v 0.0015437128022313118 0.02703680284321308 0.013784538954496384
v 0.0015437128022313118 0.02703680284321308 0.013784538954496384
v 0.0011609941720962524 0.02696334943175316 0.013765769079327583
v 0.0015086776111274958 0.028005938977003098 0.009003963321447372
v 0.0011260529281571507 0.027929939329624176 0.008998026140034199
v 0.0010162139078602195 0.02967469021677971 -0.006194424349814653
v 0.0013988387072458863 0.029750708490610123 -0.006188464350998402
v 0.0009916791459545493 0.029668699949979782 -0.00965062901377678
v 0.0013741792645305395 0.02974473312497139 -0.00966222956776619
v 0.0013741792645305395 0.02974473312497139 -0.00966222956776619
v 0.001351089682430029 0.028939874842762947 -0.01304144412279129
v 0.0009687066194601357 0.028867900371551514 -0.013012714684009552
v 0.0013308074558153749 0.027379127219319344 -0.016144996508955956
v 0.0013308074558153749 0.027379127219319344 -0.016144996508955956
v 0.0009485280024819076 0.02731519378721714 -0.016100406646728516
v 0.0013144215336069465 0.025146398693323135 -0.01880626380443573
v 0.00093222496798262 0.02509370632469654 -0.018748220056295395
v 0.0020692634861916304 0.0016837849980220199 -0.040965691208839417
v 0.002200179500505328 0.025147393345832825 -0.018812552094459534
v 0.002200179500505328 0.025147393345832825 -0.018812552094459534
v 0.002284596674144268 0.02975170500576496 -0.006194754038006067
v 0.002284596674144268 0.02975170500576496 -0.006194754038006067
v 0.0022368477657437325 0.028940871357917786 -0.013047734275460243
v 0.0022368477657437325 0.028940871357917786 -0.013047734275460243
v 0.0022368477657437325 0.028940871357917786 -0.013047734275460243
v 0.0023944356944411993 0.028006935492157936 0.008997674100100994
v 0.0023944356944411993 0.028006935492157936 0.008997674100100994
v 0.002353900345042348 -0.026557037606835365 -0.005352568347007036
v 0.002353900345042348 -0.026557037606835365 -0.005352568347007036
v 0.0024235977325588465 -0.028760146349668503 0.004114111419767141
v 0.0024235977325588465 -0.028760146349668503 0.004114111419767141
v 0.0024235977325588465 -0.028760146349668503 0.004114111419767141
v 0.0024909216444939375 -0.02765372209250927 0.013770644553005695
v 0.0024909216444939375 -0.02765372209250927 0.013770644553005695
v 0.0024909216444939375 -0.02765372209250927 0.013770644553005695
v 0.002548040123656392 -0.023366382345557213 0.02249375358223915
v 0.002548040123656392 -0.023366382345557213 0.02249375358223915
v 0.002548040123656392 -0.023366382345557213 0.02249375358223915
v 0.0025883105117827654 -0.01639687269926071 0.029268871992826462
v 0.0025883105117827654 -0.01639687269926071 0.029268871992826462
v 0.0025883105117827654 -0.01639687269926071 0.029268871992826462
v 0.002607047790661454 -0.007555826101452112 0.03330787643790245
v 0.002607047790661454 -0.007555826101452112 0.03330787643790245
v 0.002607047790661454 -0.007555826101452112 0.03330787643790245
v 0.002602072898298502 0.0021283552050590515 0.03414100036025047
v 0.002602072898298502 0.0021283552050590515 0.03414100036025047
v 0.002602072898298502 0.0021283552050590515 0.03414100036025047
v 0.0025739644188433886 0.011529231444001198 0.03167131170630455
v 0.0025739644188433886 0.011529231444001198 0.03167131170630455
v 0.0025739644188433886 0.011529231444001198 0.03167131170630455
v 0.0025259919930249453 0.019553426653146744 0.026186121627688408
v 0.0025259919930249453 0.019553426653146744 0.026186121627688408
v 0.0025259919930249453 0.019553426653146744 0.026186121627688408
v 0.002463735407218337 0.025267545133829117 0.018323399126529694
v 0.002463735407218337 0.025267545133829117 0.018323399126529694
v 0.002463735407218337 0.025267545133829117 0.018323399126529694
v 0.0021071129012852907 -0.012784354388713837 -0.03792671486735344
v 0.0020584245212376118 -0.002052475232630968 -0.043083883821964264
v 0.002062218263745308 -0.0063450089655816555 -0.043229445815086365
v 0.002062218263745308 -0.0063450089655816555 -0.043229445815086365
v 0.002062218263745308 -0.0063450089655816555 -0.043229445815086365
v 0.0020797811448574066 -0.010216139256954193 -0.041369128972291946
v 0.002707782434299588 0.0011865001870319247 0.02070632576942444
v 0.002707782434299588 0.0011865001870319247 0.02070632576942444
v 0.0026972489431500435 0.0019240108085796237 0.01933968812227249
v 0.0026972489431500435 0.0019240108085796237 0.01933968812227249
v 0.0026862777303904295 0.0018794998759403825 0.017787525430321693
v 0.0026862777303904295 0.0018794998759403825 0.017787525430321693
v 0.0026862777303904295 0.0018794998759403825 0.017787525430321693
v 0.0026778068859130144 0.0010647577000781894 0.016465552151203156
v 0.0026778068859130144 0.0010647577000781894 0.016465552151203156
v 0.0026778068859130144 0.0010647577000781894 0.016465552151203156
v 0.002674106741324067 -0.00030186798539943993 0.015728004276752472
v 0.002674106741324067 -0.00030186798539943993 0.015728004276752472
v 0.0026761689223349094 -0.0018541384488344193 0.015772564336657524
v 0.0026761689223349094 -0.0018541384488344193 0.015772564336657524
v 0.0026761689223349094 -0.0018541384488344193 0.015772564336657524
v 0.0026834404561668634 -0.0031761822756379843 0.0165872760117054
v 0.0026834404561668634 -0.0031761822756379843 0.0165872760117054
v 0.0026834404561668634 -0.0031761822756379843 0.0165872760117054
v 0.0026939737144857645 -0.0039136456325650215 0.017953870818018913
v 0.0026939737144857645 -0.0039136456325650215 0.017953870818018913
v 0.0026939737144857645 -0.0039136456325650215 0.017953870818018913
v 0.002704945160076022 -0.003869137493893504 0.01950603537261486
v 0.002704945160076022 -0.003869137493893504 0.01950603537261486
v 0.002704945160076022 -0.003869137493893504 0.01950603537261486
v 0.002713416237384081 -0.0030543331522494555 0.02082807384431362
v 0.002713416237384081 -0.0030543331522494555 0.02082807384431362
v 0.002713416237384081 -0.0030543331522494555 0.02082807384431362
v 0.002717116614803672 -0.0016877463785931468 0.02156565524637699
v 0.002717116614803672 -0.0016877463785931468 0.02156565524637699
v 0.002717116614803672 -0.0016877463785931468 0.02156565524637699
v 0.002715053968131542 -0.00013549084542319179 0.021520989015698433
v 0.002715053968131542 -0.00013549084542319179 0.021520989015698433
v 0.002715053968131542 -0.00013549084542319179 0.021520989015698433
f 1 2 3
f 3 2 7
f 3 7 8
f 8 7 12
f 8 12 15
f 15 12 17
f 15 17 20
f 20 17 22
f 20 22 23
f 23 22 26
f 23 26 29
f 30 34 35
f 35 34 38
f 30 39 34
f 34 39 40
f 34 40 44
f 40 45 44
f 44 45 46
f 44 46 47
f 48 49 38
f 38 49 50
f 38 50 35
f 26 51 29
f 29 51 52
f 29 52 56
f 56 52 57
f 56 57 60
f 60 57 62
f 1 3 63
f 63 3 64
f 63 64 68
f 47 69 44
f 44 69 70
f 44 70 71
f 62 72 60
f 60 72 73
f 60 73 38
f 38 73 74
f 38 74 48
f 71 75 44
f 44 75 76
f 44 76 64
f 64 76 77
f 64 77 68
f 62 78 72
f 72 78 79
f 72 79 73
f 73 79 80
f 73 80 74
f 74 80 81
f 74 81 48
f 48 81 82
f 48 82 49
f 49 82 83
f 49 83 50
f 50 83 84
f 50 84 35
f 35 84 85
f 35 85 30
f 30 85 86
f 30 86 39
f 39 86 87
f 39 87 40
f 40 87 88
f 40 88 45
f 45 88 89
f 45 89 46
f 46 89 90
f 46 90 47
f 47 90 91
f 47 91 69
f 69 91 92
f 69 92 70
f 70 92 93
f 70 93 71
f 71 93 94
f 71 94 75
f 75 94 95
f 75 95 76
f 76 95 96
f 76 96 77
f 77 96 97
f 77 97 68
f 68 97 98
f 68 98 63
f 63 98 99
f 63 99 1
f 1 99 100
f 1 100 2
f 2 100 101
f 2 101 7
f 7 101 102
f 7 102 12
f 12 102 103
f 12 103 17
f 17 103 104
f 17 104 22
f 22 104 105
f 22 105 26
f 26 105 106
f 26 106 51
f 51 106 107
f 51 107 52
f 52 107 108
f 52 108 57
f 57 108 109
f 57 109 62
f 62 109 78
f 79 110 80
f 80 110 111
f 80 111 81
f 81 111 112
f 81 112 82
f 82 112 113
f 82 113 83
f 83 113 114
f 83 114 84
f 84 114 115
f 84 115 85
f 85 115 116
f 85 116 86
f 86 116 117
f 86 117 87
f 87 117 118
f 87 118 88
f 88 118 119
f 88 119 89
f 89 119 120
f 89 120 90
f 90 120 121
f 90 121 91
f 91 121 122
f 91 122 92
f 92 122 123
f 92 123 93
f 93 123 124
f 93 124 94
f 94 124 125
f 94 125 95
f 95 125 126
f 95 126 96
f 96 126 127
f 96 127 97
f 97 127 128
f 97 128 98
f 98 128 129
f 98 129 99
f 99 129 130
f 99 130 100
f 100 130 131
f 100 131 101
f 101 131 132
f 101 132 102
f 102 132 133
f 102 133 103
f 103 133 134
f 103 134 104
f 104 134 135
f 104 135 105
f 105 135 136
f 105 136 106
f 106 136 137
f 106 137 107
f 107 137 138
f 107 138 108
f 108 138 139
f 108 139 109
f 109 139 140
f 109 140 78
f 78 140 141
f 78 141 79
f 79 141 110
f 141 142 110
f 110 142 143
f 110 143 111
f 111 143 144
f 111 144 112
f 112 144 145
f 112 145 113
f 113 145 146
f 113 146 114
f 114 146 147
f 114 147 115
f 115 147 148
f 115 148 116
f 116 148 149
f 116 149 117
f 117 149 150
f 117 150 118
f 118 150 151
f 118 151 119
f 119 151 152
f 119 152 120
f 120 152 153
f 120 153 121
f 121 153 154
f 121 154 122
f 122 154 155
f 122 155 123
f 123 155 156
f 123 156 124
f 124 156 157
f 124 157 125
f 125 157 158
f 125 158 126
f 126 158 159
f 126 159 127
f 127 159 160
f 127 160 128
f 128 160 161
f 128 161 129
f 129 161 162
f 129 162 130
f 130 162 163
f 130 163 131
f 131 163 164
f 131 164 132
f 132 164 165
f 132 165 133
f 133 165 166
f 133 166 134
f 134 166 167
f 134 167 135
f 135 167 168
f 135 168 136
f 136 168 169
f 136 169 137
f 137 169 170
f 137 170 138
f 138 170 171
f 138 171 139
f 139 171 172
f 139 172 140
f 140 172 173
f 140 173 141
f 141 173 142
f 161 174 162
f 162 174 175
f 162 175 163
f 163 175 176
f 163 176 164
f 164 176 177
f 164 177 165
f 165 177 178
f 165 178 166
f 166 178 179
f 166 179 167
f 167 179 180
f 167 180 168
f 168 180 181
f 168 181 169
f 153 182 154
f 154 182 183
f 154 183 155
f 155 183 184
f 155 184 156
f 156 184 185
f 156 185 157
f 157 185 186
f 157 186 158
f 158 186 187
f 158 187 159
f 159 187 188
f 159 188 160
f 160 188 189
f 160 189 161
f 161 189 190
f 161 190 174
f 181 191 169
f 169 191 192
f 169 192 170
f 170 192 193
f 170 193 171
f 171 193 194
f 171 194 172
f 172 194 195
f 172 195 173
f 173 195 196
f 173 196 142
f 142 196 197
f 142 197 143
f 143 197 198
f 143 198 144
f 144 198 199
f 144 199 145
f 199 200 145
f 145 200 201
f 145 201 146
f 146 201 202
f 146 202 147
f 147 202 203
f 147 203 148
f 148 203 204
f 148 204 149
f 149 204 205
f 149 205 150
f 150 205 206
f 150 206 151
f 151 206 207
f 151 207 152
f 152 207 208
f 152 208 153
f 153 208 209
f 153 209 182
f 196 210 197
f 197 210 212
f 197 212 198
f 198 212 215
f 198 215 199
f 199 215 217
f 199 217 200
f 200 217 218
f 200 218 201
f 201 218 221
f 201 221 202
f 202 221 223
f 202 223 203
f 203 223 225
f 203 225 204
f 204 225 227
f 204 227 205
f 205 227 228
f 205 228 206
f 206 228 230
f 206 230 207
f 207 230 232
f 207 232 208
f 208 232 235
f 208 235 209
f 209 235 236
f 209 236 182
f 182 236 238
f 182 238 183
f 183 238 240
f 183 240 184
f 184 240 243
f 184 243 185
f 185 243 244
f 185 244 186
f 186 244 246
f 186 246 187
f 187 246 248
f 187 248 188
f 188 248 251
f 188 251 189
f 189 251 252
f 189 252 190
f 190 252 255
f 190 255 174
f 174 255 256
f 174 256 175
f 175 256 258
f 175 258 176
f 176 258 260
f 176 260 177
f 177 260 263
f 177 263 178
f 178 263 264
f 178 264 179
f 179 264 267
f 179 267 180
f 180 267 268
f 180 268 181
f 181 268 270
f 181 270 191
f 191 270 272
f 191 272 192
f 192 272 274
f 192 274 193
f 193 274 277
f 193 277 194
f 194 277 278
f 194 278 195
f 195 278 281
f 195 281 196
f 196 281 210
f 282 283 284
f 284 283 285
f 285 283 286
f 286 283 287
f 286 287 288
f 288 287 289
f 288 289 290
f 290 289 291
f 290 291 292
f 293 294 284
f 284 294 295
f 284 295 282
f 296 297 298
f 298 297 299
f 298 299 300
f 300 299 301
f 300 301 302
f 302 301 303
f 302 303 291
f 291 303 304
f 291 304 292
f 305 306 307
f 307 306 296
f 307 296 308
f 308 296 298
f 303 309 304
f 304 309 310
f 304 310 292
f 292 310 313
f 292 313 290
f 290 313 314
f 290 314 288
f 288 314 317
f 309 318 311
f 311 318 319
f 311 319 312
f 312 319 320
f 312 320 315
f 315 320 321
f 315 321 316
f 316 321 322
f 322 323 317
f 317 323 324
f 317 324 288
f 288 324 286
f 325 287 283
f 327 326 329
f 327 329 330
f 330 329 331
f 330 331 332
f 325 283 328
f 328 283 282
f 328 282 331
f 331 282 295
f 331 295 333
f 333 295 294
f 333 294 334
f 334 294 293
f 334 293 335
f 335 293 284
f 335 284 336
f 336 284 285
f 336 285 337
f 337 285 286
f 337 286 324
f 332 331 338
f 338 331 333
f 338 333 339
f 339 333 334
f 339 334 340
f 340 334 335
f 340 335 341
f 341 335 336
f 341 336 342
f 342 336 337
f 342 337 343
f 343 337 324
f 343 324 323
f 344 300 347
f 347 300 302
f 347 302 349
f 349 302 291
f 349 291 350
f 350 291 289
f 350 289 325
f 325 289 287
f 352 345 353
f 353 345 346
f 353 346 354
f 354 346 348
f 354 348 355
f 355 348 351
f 355 351 327
f 327 351 326
f 357 301 299
f 358 356 359
f 357 299 359
f 359 299 297
f 359 297 360
f 360 297 296
f 360 296 361
f 361 296 306
f 361 306 362
f 362 306 305
f 362 305 363
f 363 305 307
f 363 307 364
f 364 307 308
f 364 308 365
f 365 308 298
f 365 298 366
f 366 298 300
f 366 300 344
f 358 359 367
f 367 359 360
f 367 360 368
f 368 360 361
f 368 361 369
f 369 361 362
f 369 362 370
f 370 362 363
f 370 363 371
f 371 363 364
f 371 364 372
f 372 364 365
f 372 365 373
f 373 365 366
f 373 366 374
f 374 366 345
f 374 345 352
f 358 318 356
f 356 318 309
f 356 309 301
f 301 309 303
f 318 375 319
f 319 375 376
f 319 376 320
f 320 376 377
f 320 377 321
f 321 377 378
f 321 378 322
f 322 378 379
f 322 379 323
f 323 379 380
f 381 382 383
f 384 385 386
f 327 330 387
f 387 330 332
f 387 332 384
f 384 332 338
f 384 338 385
f 382 381 385
f 385 381 388
f 385 388 389
f 389 390 385
f 385 390 391
f 385 391 386
f 382 342 343
f 383 382 380
f 380 382 343
f 380 343 323
f 338 339 385
f 385 339 340
f 385 340 382
f 382 340 341
f 382 341 342
f 392 352 353
f 393 355 387
f 387 355 327
f 394 392 395
f 395 392 353
f 395 353 393
f 393 353 354
f 393 354 355
f 372 373 396
f 397 398 399
f 400 401 396
f 396 401 399
f 402 403 401
f 401 403 404
f 404 405 401
f 401 405 406
f 401 406 399
f 399 406 407
f 399 407 397
f 400 408 401
f 401 408 409
f 401 409 402
f 410 396 394
f 394 396 392
f 410 411 396
f 396 411 412
f 396 412 400
f 396 373 392
f 392 373 374
f 392 374 352
f 368 369 399
f 399 369 370
f 399 370 396
f 396 370 371
f 396 371 372
f 368 399 367
f 367 399 398
f 367 398 358
f 318 358 375
f 375 358 398
f 375 398 397
f 413 414 416
f 415 379 378
f 415 378 417
f 417 378 377
f 417 377 418
f 418 377 376
f 418 376 420
f 420 376 375
f 420 375 422
f 413 416 423
f 423 416 419
f 423 419 424
f 424 419 421
f 424 421 425
f 425 421 422
f 425 422 426
f 380 379 414
f 380 414 427
f 427 414 413
f 427 413 428
f 429 387 384
f 430 429 431
f 429 384 431
f 431 384 386
f 431 386 432
f 432 386 391
f 432 391 433
f 433 391 390
f 433 390 434
f 434 390 389
f 434 389 435
f 435 389 388
f 435 388 436
f 436 388 381
f 436 381 437
f 437 381 383
f 437 383 438
f 439 383 380
f 439 380 427
f 430 431 440
f 440 431 432
f 440 432 441
f 441 432 433
f 441 433 442
f 442 433 434
f 442 434 443
f 443 434 435
f 443 435 444
f 444 435 436
f 444 436 445
f 445 436 437
f 445 437 446
f 446 437 438
f 446 438 447
f 447 438 427
f 447 427 428
f 387 429 448
f 429 430 450
f 429 450 449
f 449 450 451
f 449 451 452
f 452 451 454
f 452 454 456
f 387 448 393
f 393 448 453
f 393 453 395
f 395 453 455
f 395 455 394
f 457 397 407
f 458 457 459
f 457 407 459
f 459 407 406
f 459 406 460
f 460 406 405
f 460 405 461
f 461 405 404
f 461 404 462
f 462 404 403
f 462 403 463
f 463 403 402
f 463 402 464
f 464 402 409
f 464 409 465
f 465 409 408
f 465 408 466
f 466 408 400
f 466 400 467
f 467 400 412
f 467 412 468
f 412 411 468
f 468 411 410
f 468 410 469
f 470 410 394
f 470 394 455
f 458 459 471
f 471 459 460
f 471 460 472
f 472 460 461
f 472 461 473
f 473 461 462
f 473 462 474
f 474 462 463
f 474 463 475
f 475 463 464
f 475 464 476
f 476 464 465
f 476 465 477
f 477 465 466
f 477 466 478
f 478 466 467
f 478 467 479
f 479 467 468
f 479 468 480
f 480 468 469
f 480 469 481
f 481 469 456
f 481 456 454
f 375 397 457
f 375 457 422
f 422 457 458
f 422 458 426
f 443 444 482
f 482 444 445
f 482 445 446
f 483 484 424
f 424 484 423
f 483 424 485
f 485 424 425
f 485 425 486
f 446 447 482
f 482 447 428
f 482 428 487
f 487 428 413
f 487 413 488
f 488 413 423
f 488 423 489
f 489 423 484
f 472 473 490
f 491 492 441
f 482 493 443
f 443 493 491
f 443 491 442
f 442 491 441
f 473 474 490
f 490 474 475
f 490 475 494
f 494 475 476
f 477 495 476
f 476 495 496
f 476 496 494
f 477 478 497
f 497 478 479
f 497 479 498
f 486 425 499
f 499 425 426
f 499 426 500
f 500 426 458
f 500 458 490
f 490 458 471
f 490 471 472
f 497 501 477
f 477 501 502
f 477 502 495
f 495 502 503
f 495 503 504
f 504 503 505
f 504 505 506
f 479 480 498
f 498 480 481
f 498 481 507
f 507 481 454
f 507 454 508
f 508 454 451
f 508 451 509
f 509 451 450
f 509 450 510
f 510 450 430
f 510 430 492
f 492 430 440
f 492 440 441
f 511 513 514
f 512 487 488
f 512 488 515
f 515 488 489
f 515 489 516
f 516 489 484
f 516 484 518
f 518 484 483
f 518 483 521
f 521 483 485
f 521 485 523
f 523 485 486
f 523 486 525
f 525 486 499
f 525 499 526
f 526 499 500
f 526 500 528
f 511 514 529
f 529 514 517
f 529 517 530
f 530 517 519
f 530 519 531
f 531 519 520
f 531 520 532
f 532 520 522
f 532 522 533
f 533 522 524
f 533 524 534
f 534 524 527
f 534 527 535
f 535 527 528
f 535 528 536
f 487 512 482
f 482 512 537
f 538 513 539
f 539 513 511
f 539 511 540
f 540 541 542
f 542 541 543
f 542 543 544
f 544 543 545
f 544 545 546
f 540 542 539
f 539 542 544
f 539 544 537
f 537 544 546
f 537 546 482
f 547 506 550
f 550 506 505
f 550 505 552
f 552 505 503
f 552 503 554
f 554 503 502
f 554 502 555
f 555 502 501
f 555 501 558
f 558 501 497
f 558 497 559
f 559 497 498
f 559 498 561
f 561 498 507
f 561 507 563
f 563 507 508
f 563 508 566
f 566 508 509
f 566 509 568
f 568 509 510
f 568 510 570
f 570 510 492
f 570 492 572
f 572 492 491
f 572 491 574
f 574 491 493
f 574 493 546
f 546 493 482
f 575 548 576
f 576 548 549
f 576 549 577
f 577 549 551
f 577 551 578
f 578 551 553
f 578 553 579
f 579 553 556
f 579 556 580
f 580 556 557
f 580 557 581
f 581 557 560
f 581 560 582
f 582 560 562
f 582 562 583
f 583 562 564
f 583 564 584
f 584 564 565
f 584 565 585
f 585 565 567
f 585 567 586
f 586 567 569
f 586 569 587
f 587 569 571
f 587 571 588
f 588 571 573
f 588 573 545
f 545 573 546
f 589 590 591
f 591 592 589
f 589 592 593
f 589 593 594
f 594 593 506
f 594 506 547
f 590 589 596
f 596 589 595
f 596 595 597
f 597 595 548
f 597 548 575
f 280 598 211
f 211 598 599
f 211 599 213
f 213 599 600
f 213 600 214
f 214 600 601
f 214 601 216
f 216 601 602
f 216 602 219
f 219 602 603
f 219 603 220
f 220 603 604
f 220 604 222
f 222 604 605
f 222 605 224
f 224 605 606
f 224 606 226
f 226 606 607
f 226 607 229
f 229 607 608
f 229 608 231
f 231 608 609
f 231 609 233
f 233 609 610
f 233 610 234
f 234 610 611
f 234 611 237
f 237 611 612
f 237 612 239
f 239 612 613
f 239 613 241
f 241 613 614
f 241 614 242
f 242 614 615
f 242 615 245
f 245 615 616
f 245 616 247
f 247 616 617
f 247 617 249
f 249 617 618
f 249 618 250
f 250 618 619
f 250 619 253
f 253 619 620
f 253 620 254
f 254 620 621
f 254 621 257
f 257 621 622
f 257 622 259
f 259 622 623
f 259 623 261
f 261 623 624
f 261 624 262
f 262 624 625
f 262 625 265
f 265 625 626
f 265 626 266
f 266 626 627
f 266 627 269
f 269 627 628
f 269 628 271
f 271 628 629
f 271 629 273
f 273 629 630
f 273 630 275
f 275 630 631
f 275 631 276
f 276 631 632
f 276 632 279
f 279 632 633
f 279 633 280
f 280 633 598
f 504 506 634
f 634 506 593
f 634 593 635
f 635 593 592
f 635 592 591
f 636 637 639
f 637 490 494
f 637 494 638
f 638 494 496
f 638 496 641
f 641 496 495
f 641 495 642
f 642 495 504
f 642 504 634
f 636 639 644
f 644 639 640
f 644 640 645
f 645 640 643
f 645 643 646
f 646 643 634
f 646 634 635
f 636 536 528
f 636 528 637
f 637 528 500
f 637 500 490
f 536 647 535
f 535 647 648
f 535 648 534
f 534 648 649
f 534 649 533
f 533 649 650
f 533 650 532
f 532 650 651
f 532 651 531
f 531 651 652
f 531 652 530
f 530 652 653
f 530 653 529
f 529 653 654
f 529 654 511
f 511 654 655
f 656 540 655
f 655 540 511
f 540 618 541
f 541 618 617
f 541 617 543
f 543 617 616
f 543 616 545
f 545 616 588
f 588 616 615
f 588 615 587
f 587 615 614
f 587 614 586
f 586 614 613
f 586 613 585
f 585 613 612
f 585 612 584
f 584 612 611
f 584 611 583
f 583 611 610
f 583 610 582
f 582 610 609
f 582 609 581
f 581 609 608
f 581 608 580
f 580 608 607
f 580 607 579
f 579 607 606
f 579 606 578
f 578 606 605
f 578 605 577
f 577 605 604
f 577 604 576
f 576 604 603
f 576 603 575
f 575 603 602
f 575 602 597
f 597 602 601
f 597 601 596
f 596 601 590
f 590 601 600
f 590 600 591
f 657 591 658
f 658 591 600
f 658 600 659
f 659 600 599
f 659 599 660
f 660 599 598
f 620 661 621
f 621 661 662
f 621 662 622
f 540 656 618
f 618 656 663
f 618 663 619
f 619 663 664
f 619 664 620
f 620 664 665
f 620 665 661
f 624 666 625
f 625 666 667
f 625 667 626
f 662 668 622
f 622 668 669
f 622 669 623
f 623 669 670
f 623 670 624
f 624 670 671
f 624 671 666
f 628 672 629
f 629 672 673
f 629 673 630
f 667 674 626
f 626 674 675
f 626 675 627
f 627 675 676
f 627 676 628
f 628 676 677
f 628 677 672
f 632 678 633
f 633 678 679
f 633 679 598
f 598 679 680
f 598 680 660
f 673 681 630
f 630 681 682
f 630 682 631
f 631 682 683
f 631 683 632
f 632 683 684
f 632 684 678
f 591 657 635
f 635 657 685
f 635 685 646
f 646 685 686
f 646 686 645
f 645 686 687
f 645 687 644
f 644 687 688
f 644 688 636
f 636 688 689
f 647 536 689
f 689 536 636
f 647 690 691
f 690 692 693
f 690 693 691
f 691 693 694
f 691 694 695
f 695 694 696
f 695 696 697
f 697 696 698
f 697 698 699
f 699 698 701
f 699 701 702
f 702 701 703
f 702 703 705
f 705 703 706
f 705 706 707
f 707 706 708
f 707 708 709
f 647 691 648
f 648 691 695
f 648 695 649
f 649 695 697
f 649 697 650
f 650 697 699
f 650 699 651
f 651 699 702
f 651 702 652
f 652 702 705
f 652 705 653
f 653 705 707
f 653 707 654
f 654 707 709
f 654 709 655
f 656 655 709
f 656 709 710
f 710 709 708
f 710 708 711
f 677 712 713
f 671 714 715
f 710 711 717
f 718 665 719
f 719 665 664
f 719 664 720
f 720 664 663
f 720 663 721
f 721 663 656
f 721 656 710
f 668 662 718
f 718 662 661
f 718 661 665
f 718 722 668
f 668 722 723
f 668 723 669
f 714 671 723
f 723 671 670
f 723 670 669
f 674 667 715
f 715 667 666
f 715 666 671
f 715 724 674
f 674 724 725
f 674 725 675
f 712 677 725
f 725 677 676
f 725 676 675
f 681 673 713
f 713 673 672
f 713 672 677
f 713 726 681
f 681 726 727
f 681 727 682
f 682 727 683
f 683 727 728
f 683 728 684
f 684 728 729
f 684 729 678
f 678 729 679
f 679 729 730
f 679 730 680
f 680 730 731
f 680 731 660
f 710 717 721
f 721 717 732
f 721 732 720
f 720 732 733
f 720 733 719
f 719 733 735
f 719 735 718
f 718 735 736
f 718 736 722
f 722 736 738
f 722 738 723
f 723 738 740
f 723 740 714
f 714 740 741
f 714 741 715
f 715 741 742
f 715 742 724
f 724 742 744
f 724 744 725
f 725 744 745
f 725 745 712
f 712 745 747
f 712 747 713
f 713 747 748
f 713 748 726
f 726 748 750
f 726 750 727
f 727 750 751
f 727 751 728
f 728 751 753
f 728 753 729
f 729 753 755
f 729 755 730
f 730 755 756
f 730 756 731
f 731 756 758
f 731 758 759
f 759 758 760
f 759 760 761
f 660 731 659
f 659 731 759
f 659 759 658
f 658 759 761
f 658 761 657
f 685 657 761
f 685 761 762
f 762 761 760
f 762 760 763
f 685 762 764
f 762 763 766
f 762 766 764
f 764 766 767
f 764 767 768
f 768 767 769
f 768 769 771
f 771 769 772
f 771 772 773
f 685 764 686
f 686 764 768
f 686 768 687
f 687 768 771
f 687 771 688
f 688 771 773
f 688 773 689
f 647 689 773
f 647 773 690
f 690 773 772
f 690 772 692
f 774 692 775
f 775 692 772
f 763 778 766
f 766 781 767
f 767 781 769
f 769 775 772
f 778 763 782
f 782 763 760
f 711 784 717
f 717 786 732
f 732 786 733
f 733 789 735
f 735 789 736
f 736 792 738
f 738 792 740
f 740 797 741
f 741 797 742
f 742 799 744
f 744 799 745
f 745 803 747
f 747 803 748
f 748 804 750
f 750 804 751
f 751 807 753
f 753 807 755
f 755 810 756
f 756 810 758
f 758 782 760
f 784 711 813
f 813 711 708
f 692 774 693
f 693 774 814
f 701 698 815
f 815 698 696
f 815 696 814
f 814 696 694
f 814 694 693
f 703 817 818
f 703 818 706
f 706 818 813
f 706 813 708
f 765 777 780
f 770 779 776
f 716 785 787
f 734 788 790
f 737 791 793
f 739 794 795
f 743 796 798
f 746 800 802
f 749 801 806
f 752 805 809
f 754 808 812
f 757 811 783
f 700 816 704
f 819 27 821
f 821 27 55
f 822 54 824
f 823 53 58
f 825 61 827
f 828 59 36
f 826 37 829
f 829 37 31
f 830 32 832
f 833 33 43
f 831 42 836
f 835 41 67
f 834 65 838
f 839 66 4
f 837 5 840
f 842 6 10
f 841 11 844
f 843 9 13
f 845 16 846
f 847 14 21
f 848 19 849
f 850 18 24
f 851 25 820
f 820 25 28
