mtllib converted_link2_18_d12626ff.mtl
usemtl material
v 8.283820740473402e-09 -0.00039980452856980264 5.0010159611701965e-05
v 8.283820740473402e-09 -0.00039980452856980264 5.0010159611701965e-05
v 8.283820740473402e-09 -0.00039980452856980264 5.0010159611701965e-05
v 6.410563219105825e-05 -0.00039462451240979135 -5.0010159611701965e-05
v 6.410563219105825e-05 -0.00039462451240979135 -5.0010159611701965e-05
v 6.410563219105825e-05 -0.00039462451240979135 -5.0010159611701965e-05
v 6.410563219105825e-05 -0.00039462451240979135 5.0010159611701965e-05
v 6.410563219105825e-05 -0.00039462451240979135 5.0010159611701965e-05
v 6.410563219105825e-05 -0.00039462451240979135 5.0010159611701965e-05
v 0.00012660854554269463 -0.00037918458110652864 -5.0010159611701965e-05
v 0.00012660854554269463 -0.00037918458110652864 -5.0010159611701965e-05
v 0.00012660854554269463 -0.00037918458110652864 -5.0010159611701965e-05
v 0.00012660854554269463 -0.00037918458110652864 5.0010159611701965e-05
v 0.00012660854554269463 -0.00037918458110652864 5.0010159611701965e-05
v 0.00012660854554269463 -0.00037918458110652864 5.0010159611701965e-05
v 0.00018580340838525444 -0.00035396459861658514 -5.0010159611701965e-05
v 0.00018580340838525444 -0.00035396459861658514 -5.0010159611701965e-05
v 0.00018580340838525444 -0.00035396459861658514 -5.0010159611701965e-05
v 0.00018580340838525444 -0.00035396459861658514 5.0010159611701965e-05
v 0.00018580340838525444 -0.00035396459861658514 5.0010159611701965e-05
v 0.00018580340838525444 -0.00035396459861658514 5.0010159611701965e-05
v 0.00024020754790399224 -0.000319574581226334 -5.0010159611701965e-05
v 0.00024020754790399224 -0.000319574581226334 -5.0010159611701965e-05
v 0.00024020754790399224 -0.000319574581226334 -5.0010159611701965e-05
v 0.00024020754790399224 -0.000319574581226334 5.0010159611701965e-05
v 0.00024020754790399224 -0.000319574581226334 5.0010159611701965e-05
v 0.00024020754790399224 -0.000319574581226334 5.0010159611701965e-05
v 0.0002883085107896477 -0.0002769647107925266 -5.0010159611701965e-05
v 0.0002883085107896477 -0.0002769647107925266 -5.0010159611701965e-05
v 0.0002883085107896477 -0.0002769647107925266 5.0010159611701965e-05
v 0.0002883085107896477 -0.0002769647107925266 5.0010159611701965e-05
v 0.0002883085107896477 -0.0002769647107925266 5.0010159611701965e-05
v 0.00032900358201004565 -0.00022713451471645385 -5.0010159611701965e-05
v 0.00032900358201004565 -0.00022713451471645385 -5.0010159611701965e-05
v 0.00032900358201004565 -0.00022713451471645385 -5.0010159611701965e-05
v 0.00032900358201004565 -0.00022713451471645385 5.0010159611701965e-05
v 0.00032900358201004565 -0.00022713451471645385 5.0010159611701965e-05
v 0.00032900358201004565 -0.00022713451471645385 5.0010159611701965e-05
v 0.00036120499134995043 -0.00017140463751275092 -5.0010159611701965e-05
v 0.00036120499134995043 -0.00017140463751275092 -5.0010159611701965e-05
v 0.00036120499134995043 -0.00017140463751275092 -5.0010159611701965e-05
v 0.00036120499134995043 -0.00017140463751275092 5.0010159611701965e-05
v 0.00036120499134995043 -0.00017140463751275092 5.0010159611701965e-05
v 0.00036120499134995043 -0.00017140463751275092 5.0010159611701965e-05
v 0.00038400376797653735 -0.00011120464478153735 -5.0010159611701965e-05
v 0.00038400376797653735 -0.00011120464478153735 -5.0010159611701965e-05
v 0.00038400376797653735 -0.00011120464478153735 5.0010159611701965e-05
v 0.00038400376797653735 -0.00011120464478153735 5.0010159611701965e-05
v 0.00038400376797653735 -0.00011120464478153735 5.0010159611701965e-05
v 0.0003969081735704094 -4.819462265004404e-05 -5.0010159611701965e-05
v 0.0003969081735704094 -4.819462265004404e-05 -5.0010159611701965e-05
v 0.0003969081735704094 -4.819462265004404e-05 5.0010159611701965e-05
v 0.0003969081735704094 -4.819462265004404e-05 5.0010159611701965e-05
v 0.0003994041180703789 1.6115414837258868e-05 -5.0010159611701965e-05
v 0.0003994041180703789 1.6115414837258868e-05 -5.0010159611701965e-05
v 0.0003994041180703789 1.6115414837258868e-05 -5.0010159611701965e-05
v 0.0003994041180703789 1.6115414837258868e-05 5.0010159611701965e-05
v 0.0003994041180703789 1.6115414837258868e-05 5.0010159611701965e-05
v 0.0003917076683137566 7.995536725502461e-05 -5.0010159611701965e-05
v 0.0003917076683137566 7.995536725502461e-05 -5.0010159611701965e-05
v 0.0003917076683137566 7.995536725502461e-05 -5.0010159611701965e-05
v 0.0003917076683137566 7.995536725502461e-05 5.0010159611701965e-05
v 0.0003917076683137566 7.995536725502461e-05 5.0010159611701965e-05
v 0.0003738039231393486 0.0001417653838871047 -5.0010159611701965e-05
v 0.0003738039231393486 0.0001417653838871047 -5.0010159611701965e-05
v 0.0003738039231393486 0.0001417653838871047 -5.0010159611701965e-05
v 0.0003738039231393486 0.0001417653838871047 5.0010159611701965e-05
v 0.0003738039231393486 0.0001417653838871047 5.0010159611701965e-05
v 0.0003738039231393486 0.0001417653838871047 5.0010159611701965e-05
v 0.00034620697260834277 0.0001998753723455593 -5.0010159611701965e-05
v 0.00034620697260834277 0.0001998753723455593 -5.0010159611701965e-05
v 0.00034620697260834277 0.0001998753723455593 -5.0010159611701965e-05
v 0.00034620697260834277 0.0001998753723455593 5.0010159611701965e-05
v 0.00034620697260834277 0.0001998753723455593 5.0010159611701965e-05
v 0.00034620697260834277 0.0001998753723455593 5.0010159611701965e-05
v 0.00030970657826401293 0.0002528654003981501 -5.0010159611701965e-05
v 0.00030970657826401293 0.0002528654003981501 -5.0010159611701965e-05
v 0.00030970657826401293 0.0002528654003981501 -5.0010159611701965e-05
v 0.00030970657826401293 0.0002528654003981501 5.0010159611701965e-05
v 0.00030970657826401293 0.0002528654003981501 5.0010159611701965e-05
v 0.00030970657826401293 0.0002528654003981501 5.0010159611701965e-05
v 0.0002651074028108269 0.0002992353693116456 -5.0010159611701965e-05
v 0.0002651074028108269 0.0002992353693116456 -5.0010159611701965e-05
v 0.0002651074028108269 0.0002992353693116456 -5.0010159611701965e-05
v 0.0002651074028108269 0.0002992353693116456 5.0010159611701965e-05
v 0.0002651074028108269 0.0002992353693116456 5.0010159611701965e-05
v 0.0002651074028108269 0.0002992353693116456 5.0010159611701965e-05
v 0.00021360897517297417 0.0003379254194442183 -5.0010159611701965e-05
v 0.00021360897517297417 0.0003379254194442183 -5.0010159611701965e-05
v 0.00021360897517297417 0.0003379254194442183 -5.0010159611701965e-05
v 0.00021360897517297417 0.0003379254194442183 5.0010159611701965e-05
v 0.00021360897517297417 0.0003379254194442183 5.0010159611701965e-05
v 0.00021360897517297417 0.0003379254194442183 5.0010159611701965e-05
v 0.0001567088911542669 0.0003677853674162179 -5.0010159611701965e-05
v 0.0001567088911542669 0.0003677853674162179 -5.0010159611701965e-05
v 0.0001567088911542669 0.0003677853674162179 -5.0010159611701965e-05
v 0.0001567088911542669 0.0003677853674162179 5.0010159611701965e-05
v 0.0001567088911542669 0.0003677853674162179 5.0010159611701965e-05
v 0.0001567088911542669 0.0003677853674162179 5.0010159611701965e-05
v 9.57035445026122e-05 0.0003881653829012066 -5.0010159611701965e-05
v 9.57035445026122e-05 0.0003881653829012066 -5.0010159611701965e-05
v 9.57035445026122e-05 0.0003881653829012066 -5.0010159611701965e-05
v 9.57035445026122e-05 0.0003881653829012066 5.0010159611701965e-05
v 9.57035445026122e-05 0.0003881653829012066 5.0010159611701965e-05
v 9.57035445026122e-05 0.0003881653829012066 5.0010159611701965e-05
v 3.21053848892916e-05 0.0003984753566328436 -5.0010159611701965e-05
v 3.21053848892916e-05 0.0003984753566328436 -5.0010159611701965e-05
v 3.21053848892916e-05 0.0003984753566328436 -5.0010159611701965e-05
v 3.21053848892916e-05 0.0003984753566328436 5.0010159611701965e-05
v 3.21053848892916e-05 0.0003984753566328436 5.0010159611701965e-05
v 3.21053848892916e-05 0.0003984753566328436 5.0010159611701965e-05
v -3.219312566216104e-05 0.0003984753566328436 -5.0010159611701965e-05
v -3.219312566216104e-05 0.0003984753566328436 -5.0010159611701965e-05
v -3.219312566216104e-05 0.0003984753566328436 -5.0010159611701965e-05
v -3.219312566216104e-05 0.0003984753566328436 5.0010159611701965e-05
v -3.219312566216104e-05 0.0003984753566328436 5.0010159611701965e-05
v -3.219312566216104e-05 0.0003984753566328436 5.0010159611701965e-05
v -9.569442045176402e-05 0.0003881653829012066 -5.0010159611701965e-05
v -9.569442045176402e-05 0.0003881653829012066 -5.0010159611701965e-05
v -9.569442045176402e-05 0.0003881653829012066 -5.0010159611701965e-05
v -9.569442045176402e-05 0.0003881653829012066 5.0010159611701965e-05
v -9.569442045176402e-05 0.0003881653829012066 5.0010159611701965e-05
v -9.569442045176402e-05 0.0003881653829012066 5.0010159611701965e-05
v -0.000156692331074737 0.0003677853674162179 -5.0010159611701965e-05
v -0.000156692331074737 0.0003677853674162179 -5.0010159611701965e-05
v -0.000156692331074737 0.0003677853674162179 -5.0010159611701965e-05
v -0.000156692331074737 0.0003677853674162179 5.0010159611701965e-05
v -0.000156692331074737 0.0003677853674162179 5.0010159611701965e-05
v -0.000156692331074737 0.0003677853674162179 5.0010159611701965e-05
v -0.00021369672322180122 0.0003379254194442183 -5.0010159611701965e-05
v -0.00021369672322180122 0.0003379254194442183 -5.0010159611701965e-05
v -0.00021369672322180122 0.0003379254194442183 -5.0010159611701965e-05
v -0.00021369672322180122 0.0003379254194442183 5.0010159611701965e-05
v -0.00021369672322180122 0.0003379254194442183 5.0010159611701965e-05
v -0.00021369672322180122 0.0003379254194442183 5.0010159611701965e-05
v -0.00026509081362746656 0.0002992353693116456 -5.0010159611701965e-05
v -0.00026509081362746656 0.0002992353693116456 -5.0010159611701965e-05
v -0.00026509081362746656 0.0002992353693116456 -5.0010159611701965e-05
v -0.00026509081362746656 0.0002992353693116456 5.0010159611701965e-05
v -0.00026509081362746656 0.0002992353693116456 5.0010159611701965e-05
v -0.00026509081362746656 0.0002992353693116456 5.0010159611701965e-05
v -0.0003096899890806526 0.0002528654003981501 -5.0010159611701965e-05
v -0.0003096899890806526 0.0002528654003981501 -5.0010159611701965e-05
v -0.0003096899890806526 0.0002528654003981501 -5.0010159611701965e-05
v -0.0003096899890806526 0.0002528654003981501 5.0010159611701965e-05
v -0.0003096899890806526 0.0002528654003981501 5.0010159611701965e-05
v -0.0003096899890806526 0.0002528654003981501 5.0010159611701965e-05
v -0.00034619038342498243 0.0001998753723455593 -5.0010159611701965e-05
v -0.00034619038342498243 0.0001998753723455593 -5.0010159611701965e-05
v -0.00034619038342498243 0.0001998753723455593 -5.0010159611701965e-05
v -0.00034619038342498243 0.0001998753723455593 5.0010159611701965e-05
v -0.00034619038342498243 0.0001998753723455593 5.0010159611701965e-05
v -0.00034619038342498243 0.0001998753723455593 5.0010159611701965e-05
v -0.0003737947845365852 0.0001417653838871047 -5.0010159611701965e-05
v -0.0003737947845365852 0.0001417653838871047 -5.0010159611701965e-05
v -0.0003737947845365852 0.0001417653838871047 -5.0010159611701965e-05
v -0.0003737947845365852 0.0001417653838871047 5.0010159611701965e-05
v -0.0003737947845365852 0.0001417653838871047 5.0010159611701965e-05
v -0.0003737947845365852 0.0001417653838871047 5.0010159611701965e-05
v -0.00039169107913039625 7.995536725502461e-05 -5.0010159611701965e-05
v -0.00039169107913039625 7.995536725502461e-05 -5.0010159611701965e-05
v -0.00039169107913039625 7.995536725502461e-05 -5.0010159611701965e-05
v -0.00039169107913039625 7.995536725502461e-05 5.0010159611701965e-05
v -0.00039169107913039625 7.995536725502461e-05 5.0010159611701965e-05
v -0.00039169107913039625 7.995536725502461e-05 5.0010159611701965e-05
v -0.0003994918370153755 1.6115414837258868e-05 -5.0010159611701965e-05
v -0.0003994918370153755 1.6115414837258868e-05 -5.0010159611701965e-05
v -0.0003994918370153755 1.6115414837258868e-05 -5.0010159611701965e-05
v -0.0003994918370153755 1.6115414837258868e-05 5.0010159611701965e-05
v -0.0003994918370153755 1.6115414837258868e-05 5.0010159611701965e-05
v -0.0003994918370153755 1.6115414837258868e-05 5.0010159611701965e-05
v -0.0003968915843870491 -4.819462265004404e-05 -5.0010159611701965e-05
v -0.0003968915843870491 -4.819462265004404e-05 -5.0010159611701965e-05
v -0.0003968915843870491 -4.819462265004404e-05 5.0010159611701965e-05
v -0.0003968915843870491 -4.819462265004404e-05 5.0010159611701965e-05
v -0.00038399462937377393 -0.00011120464478153735 -5.0010159611701965e-05
v -0.00038399462937377393 -0.00011120464478153735 -5.0010159611701965e-05
v -0.00038399462937377393 -0.00011120464478153735 5.0010159611701965e-05
v -0.00038399462937377393 -0.00011120464478153735 5.0010159611701965e-05
v -0.000361195852747187 -0.00017140463751275092 -5.0010159611701965e-05
v -0.000361195852747187 -0.00017140463751275092 -5.0010159611701965e-05
v -0.000361195852747187 -0.00017140463751275092 -5.0010159611701965e-05
v -0.000361195852747187 -0.00017140463751275092 5.0010159611701965e-05
v -0.000361195852747187 -0.00017140463751275092 5.0010159611701965e-05
v -0.00032899444340728223 -0.00022713451471645385 -5.0010159611701965e-05
v -0.00032899444340728223 -0.00022713451471645385 -5.0010159611701965e-05
v -0.00032899444340728223 -0.00022713451471645385 -5.0010159611701965e-05
v -0.00032899444340728223 -0.00022713451471645385 5.0010159611701965e-05
v -0.00032899444340728223 -0.00022713451471645385 5.0010159611701965e-05
v -0.00032899444340728223 -0.00022713451471645385 5.0010159611701965e-05
v -0.00028829192160628736 -0.0002769647107925266 -5.0010159611701965e-05
v -0.00028829192160628736 -0.0002769647107925266 -5.0010159611701965e-05
v -0.00028829192160628736 -0.0002769647107925266 5.0010159611701965e-05
v -0.00028829192160628736 -0.0002769647107925266 5.0010159611701965e-05
v -0.00028829192160628736 -0.0002769647107925266 5.0010159611701965e-05
v -0.00024019098782446235 -0.000319574581226334 -5.0010159611701965e-05
v -0.00024019098782446235 -0.000319574581226334 -5.0010159611701965e-05
v -0.00024019098782446235 -0.000319574581226334 -5.0010159611701965e-05
v -0.00024019098782446235 -0.000319574581226334 5.0010159611701965e-05
v -0.00024019098782446235 -0.000319574581226334 5.0010159611701965e-05
v -0.00024019098782446235 -0.000319574581226334 5.0010159611701965e-05
v -0.00018579429888632149 -0.00035396459861658514 -5.0010159611701965e-05
v -0.00018579429888632149 -0.00035396459861658514 -5.0010159611701965e-05
v -0.00018579429888632149 -0.00035396459861658514 -5.0010159611701965e-05
v -0.00018579429888632149 -0.00035396459861658514 5.0010159611701965e-05
v -0.00018579429888632149 -0.00035396459861658514 5.0010159611701965e-05
v -0.00018579429888632149 -0.00035396459861658514 5.0010159611701965e-05
v -0.00012659198546316475 -0.00037918458110652864 -5.0010159611701965e-05
v -0.00012659198546316475 -0.00037918458110652864 -5.0010159611701965e-05
v -0.00012659198546316475 -0.00037918458110652864 -5.0010159611701965e-05
v -0.00012659198546316475 -0.00037918458110652864 5.0010159611701965e-05
v -0.00012659198546316475 -0.00037918458110652864 5.0010159611701965e-05
v -0.00012659198546316475 -0.00037918458110652864 5.0010159611701965e-05
v -6.409650814021006e-05 -0.00039462451240979135 -5.0010159611701965e-05
v -6.409650814021006e-05 -0.00039462451240979135 -5.0010159611701965e-05
v -6.409650814021006e-05 -0.00039462451240979135 -5.0010159611701965e-05
v -6.409650814021006e-05 -0.00039462451240979135 5.0010159611701965e-05
v -6.409650814021006e-05 -0.00039462451240979135 5.0010159611701965e-05
v -6.409650814021006e-05 -0.00039462451240979135 5.0010159611701965e-05
v 8.283820740473402e-09 -0.00039980452856980264 -5.0010159611701965e-05
v 8.283820740473402e-09 -0.00039980452856980264 -5.0010159611701965e-05
v 8.283820740473402e-09 -0.00039980452856980264 -5.0010159611701965e-05
v 8.283820740473402e-09 2.5419952365268728e-08 -5.0010159611701965e-05
v 8.283820740473402e-09 2.5419952365268728e-08 -5.0010159611701965e-05
v 8.283820740473402e-09 2.5419952365268728e-08 -5.0010159611701965e-05
v 8.283820740473402e-09 2.5419952365268728e-08 -5.0010159611701965e-05
v 8.283820740473402e-09 2.5419952365268728e-08 -5.0010159611701965e-05
v 8.283820740473402e-09 2.5419952365268728e-08 -5.0010159611701965e-05
v 8.283820740473402e-09 2.5419952365268728e-08 -5.0010159611701965e-05
v 8.283820740473402e-09 2.5419952365268728e-08 -5.0010159611701965e-05
v 8.283820740473402e-09 2.5419952365268728e-08 -5.0010159611701965e-05
v 8.283820740473402e-09 2.5419952365268728e-08 -5.0010159611701965e-05
v 8.283820740473402e-09 2.5419952365268728e-08 -5.0010159611701965e-05
v 8.283820740473402e-09 2.5419952365268728e-08 -5.0010159611701965e-05
v 8.283820740473402e-09 2.5419952365268728e-08 -5.0010159611701965e-05
v 8.283820740473402e-09 2.5419952365268728e-08 -5.0010159611701965e-05
v 8.283820740473402e-09 2.5419952365268728e-08 -5.0010159611701965e-05
v 8.283820740473402e-09 2.5419952365268728e-08 -5.0010159611701965e-05
v 8.283820740473402e-09 2.5419952365268728e-08 -5.0010159611701965e-05
v 8.283820740473402e-09 2.5419952365268728e-08 -5.0010159611701965e-05
v 8.283820740473402e-09 2.5419952365268728e-08 -5.0010159611701965e-05
v 8.283820740473402e-09 2.5419952365268728e-08 -5.0010159611701965e-05
v 8.283820740473402e-09 2.5419952365268728e-08 -5.0010159611701965e-05
v 8.283820740473402e-09 2.5419952365268728e-08 -5.0010159611701965e-05
v 8.283820740473402e-09 2.5419952365268728e-08 -5.0010159611701965e-05
v 8.283820740473402e-09 2.5419952365268728e-08 5.0010159611701965e-05
v 8.283820740473402e-09 2.5419952365268728e-08 5.0010159611701965e-05
v 8.283820740473402e-09 2.5419952365268728e-08 5.0010159611701965e-05
v 8.283820740473402e-09 2.5419952365268728e-08 5.0010159611701965e-05
v 8.283820740473402e-09 2.5419952365268728e-08 5.0010159611701965e-05
v 8.283820740473402e-09 2.5419952365268728e-08 5.0010159611701965e-05
v 8.283820740473402e-09 2.5419952365268728e-08 5.0010159611701965e-05
v 8.283820740473402e-09 2.5419952365268728e-08 5.0010159611701965e-05
v 8.283820740473402e-09 2.5419952365268728e-08 5.0010159611701965e-05
v 8.283820740473402e-09 2.5419952365268728e-08 5.0010159611701965e-05
v 8.283820740473402e-09 2.5419952365268728e-08 5.0010159611701965e-05
v 8.283820740473402e-09 2.5419952365268728e-08 5.0010159611701965e-05
v 8.283820740473402e-09 2.5419952365268728e-08 5.0010159611701965e-05
v 8.283820740473402e-09 2.5419952365268728e-08 5.0010159611701965e-05
v 8.283820740473402e-09 2.5419952365268728e-08 5.0010159611701965e-05
v 8.283820740473402e-09 2.5419952365268728e-08 5.0010159611701965e-05
v 8.283820740473402e-09 2.5419952365268728e-08 5.0010159611701965e-05
v 8.283820740473402e-09 2.5419952365268728e-08 5.0010159611701965e-05
v 8.283820740473402e-09 2.5419952365268728e-08 5.0010159611701965e-05
v 8.283820740473402e-09 2.5419952365268728e-08 5.0010159611701965e-05
v 8.283820740473402e-09 2.5419952365268728e-08 5.0010159611701965e-05
v 8.283820740473402e-09 2.5419952365268728e-08 5.0010159611701965e-05
v 8.283820740473402e-09 2.5419952365268728e-08 5.0010159611701965e-05
f 1 6 8
f 8 6 12
f 8 12 15
f 15 12 16
f 15 16 21
f 21 16 23
f 21 23 27
f 27 23 29
f 27 29 31
f 31 29 33
f 31 33 37
f 37 33 40
f 37 40 42
f 42 40 46
f 42 46 48
f 48 46 50
f 48 50 52
f 52 50 55
f 52 55 58
f 58 55 61
f 58 61 62
f 62 61 66
f 62 66 69
f 69 66 71
f 69 71 75
f 75 71 78
f 75 78 81
f 81 78 82
f 81 82 85
f 85 82 90
f 85 90 93
f 93 90 96
f 93 96 97
f 97 96 100
f 97 100 105
f 105 100 108
f 105 108 111
f 111 108 112
f 111 112 115
f 115 112 119
f 115 119 123
f 123 119 125
f 123 125 127
f 127 125 130
f 127 130 135
f 135 130 137
f 135 137 140
f 140 137 144
f 140 144 146
f 146 144 150
f 146 150 152
f 152 150 154
f 152 154 159
f 159 154 162
f 159 162 164
f 164 162 168
f 164 168 171
f 171 168 173
f 171 173 174
f 174 173 176
f 174 176 179
f 179 176 182
f 179 182 183
f 183 182 186
f 183 186 188
f 188 186 191
f 188 191 193
f 193 191 197
f 193 197 200
f 200 197 203
f 200 203 205
f 205 203 208
f 205 208 213
f 213 208 215
f 213 215 219
f 219 215 222
f 219 222 1
f 1 222 6
f 11 5 243
f 242 4 220
f 241 221 214
f 28 22 240
f 239 24 18
f 238 17 10
f 45 41 240
f 244 39 35
f 240 34 28
f 60 56 231
f 240 54 51
f 240 51 45
f 77 70 240
f 228 72 64
f 240 65 59
f 95 89 240
f 223 88 84
f 226 83 76
f 113 106 240
f 245 107 101
f 234 102 94
f 132 126 240
f 225 124 118
f 224 120 114
f 149 143 240
f 227 142 136
f 229 138 131
f 167 160 230
f 240 161 156
f 232 155 148
f 180 177 240
f 240 177 172
f 240 172 166
f 198 192 240
f 240 192 187
f 233 185 181
f 216 210 236
f 235 209 204
f 237 202 196
f 212 218 261
f 260 217 2
f 258 3 9
f 195 199 261
f 256 201 207
f 255 206 211
f 178 184 261
f 261 184 189
f 253 190 194
f 163 170 251
f 261 169 175
f 261 175 178
f 145 151 261
f 266 153 158
f 261 157 165
f 128 133 261
f 254 134 139
f 257 141 147
f 110 117 261
f 267 116 121
f 262 122 129
f 91 98 263
f 264 99 103
f 265 104 109
f 74 79 252
f 259 80 87
f 249 86 92
f 57 63 261
f 261 63 67
f 246 68 73
f 43 49 247
f 261 47 53
f 261 53 57
f 26 30 261
f 248 32 36
f 261 38 44
f 7 14 261
f 250 13 19
f 268 20 25
