mtllib converted_link2_16_d12626ff.mtl
usemtl material
v 0.0005119717679917812 -0.0015945048071444035 5.0010159611701965e-05
v 0.0005119717679917812 -0.0015945048071444035 5.0010159611701965e-05
v 0.0005119717679917812 -0.0015945048071444035 5.0010159611701965e-05
v 0.0005119717679917812 -0.0015945048071444035 -5.0010159611701965e-05
v 0.0005119717679917812 -0.0015945048071444035 -5.0010159611701965e-05
v 0.0005119717679917812 -0.0015945048071444035 -5.0010159611701965e-05
v 0.0005119717679917812 -0.0015945048071444035 -5.0010159611701965e-05
v 0.0005416846834123135 -0.001513554248958826 -5.0010159611701965e-05
v 0.0005416846834123135 -0.001513554248958826 -5.0010159611701965e-05
v 0.0005416846834123135 -0.001513554248958826 5.0010159611701965e-05
v 0.0005416846834123135 -0.001513554248958826 5.0010159611701965e-05
v 0.0005416846834123135 -0.001513554248958826 5.0010159611701965e-05
v 0.0005421913228929043 -0.00142993638291955 -5.0010159611701965e-05
v 0.0005421913228929043 -0.00142993638291955 -5.0010159611701965e-05
v 0.0005421913228929043 -0.00142993638291955 -5.0010159611701965e-05
v 0.0005421913228929043 -0.00142993638291955 -5.0010159611701965e-05
v 0.0005421913228929043 -0.00142993638291955 5.0010159611701965e-05
v 0.0005421913228929043 -0.00142993638291955 5.0010159611701965e-05
v 0.0005421913228929043 -0.00142993638291955 5.0010159611701965e-05
v 0.0005270815454423428 -0.0013760537840425968 -5.0010159611701965e-05
v 0.0005270815454423428 -0.0013760537840425968 -5.0010159611701965e-05
v 0.0005270815454423428 -0.0013760537840425968 -5.0010159611701965e-05
v 0.0005270815454423428 -0.0013760537840425968 -5.0010159611701965e-05
v 0.0005270815454423428 -0.0013760537840425968 5.0010159611701965e-05
v 0.0005270815454423428 -0.0013760537840425968 5.0010159611701965e-05
v 0.0005270815454423428 -0.0013760537840425968 5.0010159611701965e-05
v 0.0005270815454423428 -0.0013760537840425968 5.0010159611701965e-05
v 0.00030267005786299706 -0.00025238702073693275 5.0010159611701965e-05
v 0.00030267005786299706 -0.00025238702073693275 5.0010159611701965e-05
v 0.00030267005786299706 -0.00025238702073693275 5.0010159611701965e-05
v 0.00030267005786299706 -0.00025238702073693275 5.0010159611701965e-05
v 0.00030267005786299706 -0.00025238702073693275 -5.0010159611701965e-05
v 0.00030267005786299706 -0.00025238702073693275 -5.0010159611701965e-05
v 0.00030267005786299706 -0.00025238702073693275 -5.0010159611701965e-05
v 0.00030267005786299706 -0.00025238702073693275 -5.0010159611701965e-05
v 0.00030267005786299706 -0.00025238702073693275 -5.0010159611701965e-05
v 0.000298467930406332 -0.00022782619635108858 -5.0010159611701965e-05
v 0.000298467930406332 -0.00022782619635108858 -5.0010159611701965e-05
v 0.000298467930406332 -0.00022782619635108858 -5.0010159611701965e-05
v 0.000298467930406332 -0.00022782619635108858 5.0010159611701965e-05
v 0.000298467930406332 -0.00022782619635108858 5.0010159611701965e-05
v 0.000298467930406332 -0.00022782619635108858 5.0010159611701965e-05
v 0.000292894896119833 -0.00020356338063720614 -5.0010159611701965e-05
v 0.000292894896119833 -0.00020356338063720614 -5.0010159611701965e-05
v 0.000292894896119833 -0.00020356338063720614 -5.0010159611701965e-05
v 0.000292894896119833 -0.00020356338063720614 5.0010159611701965e-05
v 0.000292894896119833 -0.00020356338063720614 5.0010159611701965e-05
v 0.000292894896119833 -0.00020356338063720614 5.0010159611701965e-05
v 0.0002901828847825527 -0.0001858049217844382 -5.0010159611701965e-05
v 0.0002901828847825527 -0.0001858049217844382 -5.0010159611701965e-05
v 0.0002901828847825527 -0.0001858049217844382 -5.0010159611701965e-05
v 0.0002901828847825527 -0.0001858049217844382 5.0010159611701965e-05
v 0.0002901828847825527 -0.0001858049217844382 5.0010159611701965e-05
v 0.0002901828847825527 -0.0001858049217844382 5.0010159611701965e-05
v 0.0002864873968064785 -0.00016810606757644564 -5.0010159611701965e-05
v 0.0002864873968064785 -0.00016810606757644564 -5.0010159611701965e-05
v 0.0002864873968064785 -0.00016810606757644564 -5.0010159611701965e-05
v 0.0002864873968064785 -0.00016810606757644564 -5.0010159611701965e-05
v 0.0002864873968064785 -0.00016810606757644564 -5.0010159611701965e-05
v 0.0002864873968064785 -0.00016810606757644564 5.0010159611701965e-05
v 0.0002864873968064785 -0.00016810606757644564 5.0010159611701965e-05
v 0.0002864873968064785 -0.00016810606757644564 5.0010159611701965e-05
v 0.0002864873968064785 -0.00016810606757644564 5.0010159611701965e-05
v 0.0003041899763047695 -0.00016446645895484835 -5.0010159611701965e-05
v 0.0003041899763047695 -0.00016446645895484835 -5.0010159611701965e-05
v 0.0003041899763047695 -0.00016446645895484835 -5.0010159611701965e-05
v 0.0003041899763047695 -0.00016446645895484835 5.0010159611701965e-05
v 0.0003041899763047695 -0.00016446645895484835 5.0010159611701965e-05
v 0.0003041899763047695 -0.00016446645895484835 5.0010159611701965e-05
v 0.0003219819627702236 -0.00015999611059669405 -5.0010159611701965e-05
v 0.0003219819627702236 -0.00015999611059669405 -5.0010159611701965e-05
v 0.0003219819627702236 -0.00015999611059669405 -5.0010159611701965e-05
v 0.0003219819627702236 -0.00015999611059669405 5.0010159611701965e-05
v 0.0003219819627702236 -0.00015999611059669405 5.0010159611701965e-05
v 0.0003219819627702236 -0.00015999611059669405 5.0010159611701965e-05
v 0.00037148362025618553 -0.00014384697715286165 5.0010159611701965e-05
v 0.00037148362025618553 -0.00014384697715286165 5.0010159611701965e-05
v 0.00037148362025618553 -0.00014384697715286165 5.0010159611701965e-05
v 0.00037148362025618553 -0.00014384697715286165 5.0010159611701965e-05
v 0.00037148362025618553 -0.00014384697715286165 5.0010159611701965e-05
v 0.00037148362025618553 -0.00014384697715286165 5.0010159611701965e-05
v 0.00037148362025618553 -0.00014384697715286165 -5.0010159611701965e-05
v 0.00037148362025618553 -0.00014384697715286165 -5.0010159611701965e-05
v 0.00037148362025618553 -0.00014384697715286165 -5.0010159611701965e-05
v 0.00037148362025618553 -0.00014384697715286165 -5.0010159611701965e-05
v 0.0005053854547441006 -9.961659816326573e-05 5.0010159611701965e-05
v 0.0005053854547441006 -9.961659816326573e-05 5.0010159611701965e-05
v 0.0005053854547441006 -9.961659816326573e-05 5.0010159611701965e-05
v 0.0005053854547441006 -9.961659816326573e-05 5.0010159611701965e-05
v 0.0005053854547441006 -9.961659816326573e-05 5.0010159611701965e-05
v 0.0005053854547441006 -9.961659816326573e-05 5.0010159611701965e-05
v 0.0005053854547441006 -9.961659816326573e-05 -5.0010159611701965e-05
v 0.0005053854547441006 -9.961659816326573e-05 -5.0010159611701965e-05
v 0.0005053854547441006 -9.961659816326573e-05 -5.0010159611701965e-05
v 0.0005053854547441006 -9.961659816326573e-05 -5.0010159611701965e-05
v 0.0005053854547441006 -9.961659816326573e-05 -5.0010159611701965e-05
v 0.0005053854547441006 -9.961659816326573e-05 -5.0010159611701965e-05
v 0.0005843914113938808 -7.357681897701696e-05 5.0010159611701965e-05
v 0.0005843914113938808 -7.357681897701696e-05 5.0010159611701965e-05
v 0.0005843914113938808 -7.357681897701696e-05 5.0010159611701965e-05
v 0.0005843914113938808 -7.357681897701696e-05 5.0010159611701965e-05
v 0.0005843914113938808 -7.357681897701696e-05 5.0010159611701965e-05
v 0.0005843914113938808 -7.357681897701696e-05 5.0010159611701965e-05
v 0.0005843914113938808 -7.357681897701696e-05 -5.0010159611701965e-05
v 0.0005843914113938808 -7.357681897701696e-05 -5.0010159611701965e-05
v 0.0005843914113938808 -7.357681897701696e-05 -5.0010159611701965e-05
v 0.0005843914113938808 -7.357681897701696e-05 -5.0010159611701965e-05
v 0.0005843914113938808 -7.357681897701696e-05 -5.0010159611701965e-05
v 0.0005843914113938808 -7.357681897701696e-05 -5.0010159611701965e-05
v 0.0005843914113938808 -7.357681897701696e-05 -5.0010159611701965e-05
v 0.0015024817548692226 0.0002291663404321298 5.0010159611701965e-05
v 0.0015024817548692226 0.0002291663404321298 5.0010159611701965e-05
v 0.0015024817548692226 0.0002291663404321298 5.0010159611701965e-05
v 0.0015024817548692226 0.0002291663404321298 5.0010159611701965e-05
v 0.0015024817548692226 0.0002291663404321298 5.0010159611701965e-05
v 0.0015024817548692226 0.0002291663404321298 5.0010159611701965e-05
v 0.0015024817548692226 0.0002291663404321298 5.0010159611701965e-05
v 0.0015024817548692226 0.0002291663404321298 -5.0010159611701965e-05
v 0.0015024817548692226 0.0002291663404321298 -5.0010159611701965e-05
v 0.0015024817548692226 0.0002291663404321298 -5.0010159611701965e-05
v 0.0015144920907914639 0.00023339454492088407 5.0010159611701965e-05
v 0.0015144920907914639 0.00023339454492088407 5.0010159611701965e-05
v 0.0015144920907914639 0.00023339454492088407 -5.0010159611701965e-05
v 0.0015144920907914639 0.00023339454492088407 -5.0010159611701965e-05
v 0.0015144920907914639 0.00023339454492088407 -5.0010159611701965e-05
v 0.0015144920907914639 0.00023339454492088407 -5.0010159611701965e-05
v 0.0015144920907914639 0.00023339454492088407 -5.0010159611701965e-05
v 0.0015885806642472744 0.0002754754386842251 -5.0010159611701965e-05
v 0.0015885806642472744 0.0002754754386842251 -5.0010159611701965e-05
v 0.0015885806642472744 0.0002754754386842251 5.0010159611701965e-05
v 0.0015885806642472744 0.0002754754386842251 5.0010159611701965e-05
v 0.0016454732976853848 0.00034229597076773643 -5.0010159611701965e-05
v 0.0016454732976853848 0.00034229597076773643 -5.0010159611701965e-05
v 0.0016454732976853848 0.00034229597076773643 -5.0010159611701965e-05
v 0.0016454732976853848 0.00034229597076773643 5.0010159611701965e-05
v 0.0016454732976853848 0.00034229597076773643 5.0010159611701965e-05
v 0.00167527562007308 0.0004235333763062954 -5.0010159611701965e-05
v 0.00167527562007308 0.0004235333763062954 -5.0010159611701965e-05
v 0.00167527562007308 0.0004235333763062954 -5.0010159611701965e-05
v 0.00167527562007308 0.0004235333763062954 5.0010159611701965e-05
v 0.00167527562007308 0.0004235333763062954 5.0010159611701965e-05
v 0.00167527562007308 0.0004235333763062954 5.0010159611701965e-05
v 0.0016759908758103848 0.0005074529908597469 -5.0010159611701965e-05
v 0.0016759908758103848 0.0005074529908597469 -5.0010159611701965e-05
v 0.0016759908758103848 0.0005074529908597469 -5.0010159611701965e-05
v 0.0016759908758103848 0.0005074529908597469 5.0010159611701965e-05
v 0.0016759908758103848 0.0005074529908597469 5.0010159611701965e-05
v 0.0016759908758103848 0.0005074529908597469 5.0010159611701965e-05
v 0.0016759908758103848 0.0005074529908597469 5.0010159611701965e-05
v 0.0016467845998704433 0.0005908436141908169 -5.0010159611701965e-05
v 0.0016467845998704433 0.0005908436141908169 -5.0010159611701965e-05
v 0.0016467845998704433 0.0005908436141908169 5.0010159611701965e-05
v 0.0016467845998704433 0.0005908436141908169 5.0010159611701965e-05
v 0.0015890873037278652 0.0006598061881959438 -5.0010159611701965e-05
v 0.0015890873037278652 0.0006598061881959438 -5.0010159611701965e-05
v 0.0015890873037278652 0.0006598061881959438 -5.0010159611701965e-05
v 0.0015890873037278652 0.0006598061881959438 -5.0010159611701965e-05
v 0.0015890873037278652 0.0006598061881959438 -5.0010159611701965e-05
v 0.0015890873037278652 0.0006598061881959438 5.0010159611701965e-05
v 0.0015890873037278652 0.0006598061881959438 5.0010159611701965e-05
v 0.0015890873037278652 0.0006598061881959438 5.0010159611701965e-05
v 0.001554874237626791 0.000683703925460577 -5.0010159611701965e-05
v 0.001554874237626791 0.000683703925460577 -5.0010159611701965e-05
v 0.001554874237626791 0.000683703925460577 -5.0010159611701965e-05
v 0.001554874237626791 0.000683703925460577 5.0010159611701965e-05
v 0.001554874237626791 0.000683703925460577 5.0010159611701965e-05
v 0.001554874237626791 0.000683703925460577 5.0010159611701965e-05
v 0.001554874237626791 0.000683703925460577 5.0010159611701965e-05
v 0.0014729774557054043 0.0007136254571378231 -5.0010159611701965e-05
v 0.0014729774557054043 0.0007136254571378231 -5.0010159611701965e-05
v 0.0014729774557054043 0.0007136254571378231 -5.0010159611701965e-05
v 0.0014729774557054043 0.0007136254571378231 5.0010159611701965e-05
v 0.0014729774557054043 0.0007136254571378231 5.0010159611701965e-05
v 0.0013886666856706142 0.0007141656242311001 -5.0010159611701965e-05
v 0.0013886666856706142 0.0007141656242311001 -5.0010159611701965e-05
v 0.0013886666856706142 0.0007141656242311001 -5.0010159611701965e-05
v 0.0013886666856706142 0.0007141656242311001 5.0010159611701965e-05
v 0.0013886666856706142 0.0007141656242311001 5.0010159611701965e-05
v 0.0013886666856706142 0.0007141656242311001 5.0010159611701965e-05
v 0.0013886666856706142 0.0007141656242311001 5.0010159611701965e-05
v 0.0013507879339158535 0.0007048039697110653 -5.0010159611701965e-05
v 0.0013507879339158535 0.0007048039697110653 -5.0010159611701965e-05
v 0.0013507879339158535 0.0007048039697110653 -5.0010159611701965e-05
v 0.0013507879339158535 0.0007048039697110653 -5.0010159611701965e-05
v 0.0013507879339158535 0.0007048039697110653 5.0010159611701965e-05
v 0.0013507879339158535 0.0007048039697110653 5.0010159611701965e-05
v 0.0013507879339158535 0.0007048039697110653 5.0010159611701965e-05
v 0.0013419664464890957 0.0007020062766969204 5.0010159611701965e-05
v 0.0013419664464890957 0.0007020062766969204 5.0010159611701965e-05
v 0.0013419664464890957 0.0007020062766969204 5.0010159611701965e-05
v 0.0013419664464890957 0.0007020062766969204 5.0010159611701965e-05
v 0.0013419664464890957 0.0007020062766969204 5.0010159611701965e-05
v 0.0013419664464890957 0.0007020062766969204 -5.0010159611701965e-05
v 0.0013419664464890957 0.0007020062766969204 -5.0010159611701965e-05
v 0.0013419664464890957 0.0007020062766969204 -5.0010159611701965e-05
v 0.0013419664464890957 0.0007020062766969204 -5.0010159611701965e-05
v 0.0006655729375779629 0.00047473376616835594 5.0010159611701965e-05
v 0.0006655729375779629 0.00047473376616835594 5.0010159611701965e-05
v 0.0006655729375779629 0.00047473376616835594 5.0010159611701965e-05
v 0.0006655729375779629 0.00047473376616835594 -5.0010159611701965e-05
v 0.0006655729375779629 0.00047473376616835594 -5.0010159611701965e-05
v 0.0006655729375779629 0.00047473376616835594 -5.0010159611701965e-05
v 0.0006655729375779629 0.00047473376616835594 -5.0010159611701965e-05
v 0.0006655729375779629 0.00047473376616835594 -5.0010159611701965e-05
v 0.00043058162555098534 0.0003967150114476681 5.0010159611701965e-05
v 0.00043058162555098534 0.0003967150114476681 5.0010159611701965e-05
v 0.00043058162555098534 0.0003967150114476681 5.0010159611701965e-05
v 0.00043058162555098534 0.0003967150114476681 -5.0010159611701965e-05
v 0.00043058162555098534 0.0003967150114476681 -5.0010159611701965e-05
v 0.00043058162555098534 0.0003967150114476681 -5.0010159611701965e-05
v 0.0004073656164109707 0.0003893761895596981 5.0010159611701965e-05
v 0.0004073656164109707 0.0003893761895596981 5.0010159611701965e-05
v 0.0004073656164109707 0.0003893761895596981 5.0010159611701965e-05
v 0.0004073656164109707 0.0003893761895596981 5.0010159611701965e-05
v 0.0004073656164109707 0.0003893761895596981 -5.0010159611701965e-05
v 0.0004073656164109707 0.0003893761895596981 -5.0010159611701965e-05
v 0.0004073656164109707 0.0003893761895596981 -5.0010159611701965e-05
v 0.00038587814196944237 0.0003827041946351528 5.0010159611701965e-05
v 0.00038587814196944237 0.0003827041946351528 5.0010159611701965e-05
v 0.00038587814196944237 0.0003827041946351528 5.0010159611701965e-05
v 0.00038587814196944237 0.0003827041946351528 5.0010159611701965e-05
v 0.00038587814196944237 0.0003827041946351528 -5.0010159611701965e-05
v 0.00038587814196944237 0.0003827041946351528 -5.0010159611701965e-05
v 0.00038587814196944237 0.0003827041946351528 -5.0010159611701965e-05
v 0.00038587814196944237 0.0003827041946351528 -5.0010159611701965e-05
v 0.00018188124522566795 0.00032083457335829735 5.0010159611701965e-05
v 0.00018188124522566795 0.00032083457335829735 5.0010159611701965e-05
v 0.00018188124522566795 0.00032083457335829735 5.0010159611701965e-05
v 0.00018188124522566795 0.00032083457335829735 5.0010159611701965e-05
v 0.00018188124522566795 0.00032083457335829735 5.0010159611701965e-05
v 0.00018188124522566795 0.00032083457335829735 5.0010159611701965e-05
v 0.00018188124522566795 0.00032083457335829735 5.0010159611701965e-05
v 0.00018188124522566795 0.00032083457335829735 -5.0010159611701965e-05
v 0.00018188124522566795 0.00032083457335829735 -5.0010159611701965e-05
v 0.00018188124522566795 0.00032083457335829735 -5.0010159611701965e-05
v 0.00018188124522566795 0.00032083457335829735 -5.0010159611701965e-05
v 0.00018188124522566795 0.00032083457335829735 -5.0010159611701965e-05
v 0.00018188124522566795 0.00032083457335829735 -5.0010159611701965e-05
v 0.00018188124522566795 0.00032083457335829735 -5.0010159611701965e-05
v 0.00018188124522566795 0.00032083457335829735 -5.0010159611701965e-05
v 0.00018188124522566795 0.00032083457335829735 -5.0010159611701965e-05
v 0.00018188124522566795 0.00032083457335829735 -5.0010159611701965e-05
v 0.0001765764318406582 0.000344736035913229 5.0010159611701965e-05
v 0.0001765764318406582 0.000344736035913229 5.0010159611701965e-05
v 0.0001765764318406582 0.000344736035913229 5.0010159611701965e-05
v 0.0001765764318406582 0.000344736035913229 5.0010159611701965e-05
v 0.0001765764318406582 0.000344736035913229 -5.0010159611701965e-05
v 0.0001765764318406582 0.000344736035913229 -5.0010159611701965e-05
v 0.0001765764318406582 0.000344736035913229 -5.0010159611701965e-05
v 0.0001765764318406582 0.000344736035913229 -5.0010159611701965e-05
v 0.0001765764318406582 0.000344736035913229 -5.0010159611701965e-05
v 8.627539500594139e-05 0.0008091158233582973 5.0010159611701965e-05
v 8.627539500594139e-05 0.0008091158233582973 5.0010159611701965e-05
v 8.627539500594139e-05 0.0008091158233582973 5.0010159611701965e-05
v 8.627539500594139e-05 0.0008091158233582973 5.0010159611701965e-05
v 8.627539500594139e-05 0.0008091158233582973 5.0010159611701965e-05
v 8.627539500594139e-05 0.0008091158233582973 5.0010159611701965e-05
v 8.627539500594139e-05 0.0008091158233582973 -5.0010159611701965e-05
v 8.627539500594139e-05 0.0008091158233582973 -5.0010159611701965e-05
v 8.627539500594139e-05 0.0008091158233582973 -5.0010159611701965e-05
v -5.0010621635010466e-05 0.001508814748376608 5.0010159611701965e-05
v -5.0010621635010466e-05 0.001508814748376608 5.0010159611701965e-05
v -5.0010621635010466e-05 0.001508814748376608 5.0010159611701965e-05
v -5.0010621635010466e-05 0.001508814748376608 5.0010159611701965e-05
v -5.0010621635010466e-05 0.001508814748376608 -5.0010159611701965e-05
v -5.0010621635010466e-05 0.001508814748376608 -5.0010159611701965e-05
v -5.0010621635010466e-05 0.001508814748376608 -5.0010159611701965e-05
v -5.182856330065988e-05 0.0015182956121861935 5.0010159611701965e-05
v -5.182856330065988e-05 0.0015182956121861935 5.0010159611701965e-05
v -5.182856330065988e-05 0.0015182956121861935 5.0010159611701965e-05
v -5.182856330065988e-05 0.0015182956121861935 -5.0010159611701965e-05
v -5.182856330065988e-05 0.0015182956121861935 -5.0010159611701965e-05
v -8.362764492630959e-05 0.0015999465249478817 -5.0010159611701965e-05
v -8.362764492630959e-05 0.0015999465249478817 -5.0010159611701965e-05
v -8.362764492630959e-05 0.0015999465249478817 5.0010159611701965e-05
v -8.362764492630959e-05 0.0015999465249478817 5.0010159611701965e-05
v -8.362764492630959e-05 0.0015999465249478817 5.0010159611701965e-05
v -0.00014341110363602638 0.0016662864945828915 -5.0010159611701965e-05
v -0.00014341110363602638 0.0016662864945828915 -5.0010159611701965e-05
v -0.00014341110363602638 0.0016662864945828915 5.0010159611701965e-05
v -0.00014341110363602638 0.0016662864945828915 5.0010159611701965e-05
v -0.00014341110363602638 0.0016662864945828915 5.0010159611701965e-05
v -0.0001712166704237461 0.0016847639344632626 -5.0010159611701965e-05
v -0.0001712166704237461 0.0016847639344632626 -5.0010159611701965e-05
v -0.0001712166704237461 0.0016847639344632626 -5.0010159611701965e-05
v -0.0001712166704237461 0.0016847639344632626 -5.0010159611701965e-05
v -0.0001712166704237461 0.0016847639344632626 5.0010159611701965e-05
v -0.0001712166704237461 0.0016847639344632626 5.0010159611701965e-05
v -0.0001712166704237461 0.0016847639344632626 5.0010159611701965e-05
v -0.0001712166704237461 0.0016847639344632626 5.0010159611701965e-05
v -0.0001712166704237461 0.0016847639344632626 5.0010159611701965e-05
v -0.0002520107664167881 0.001714745070785284 -5.0010159611701965e-05
v -0.0002520107664167881 0.001714745070785284 -5.0010159611701965e-05
v -0.0002520107664167881 0.001714745070785284 -5.0010159611701965e-05
v -0.0002520107664167881 0.001714745070785284 5.0010159611701965e-05
v -0.0002520107664167881 0.001714745070785284 5.0010159611701965e-05
v -0.0002520107664167881 0.001714745070785284 5.0010159611701965e-05
v -0.00033572549000382423 0.001715583261102438 -5.0010159611701965e-05
v -0.00033572549000382423 0.001715583261102438 -5.0010159611701965e-05
v -0.00033572549000382423 0.001715583261102438 -5.0010159611701965e-05
v -0.00033572549000382423 0.001715583261102438 5.0010159611701965e-05
v -0.00033572549000382423 0.001715583261102438 5.0010159611701965e-05
v -0.00041902298107743263 0.0016864961944520473 -5.0010159611701965e-05
v -0.00041902298107743263 0.0016864961944520473 -5.0010159611701965e-05
v -0.00041902298107743263 0.0016864961944520473 5.0010159611701965e-05
v -0.00041902298107743263 0.0016864961944520473 5.0010159611701965e-05
v -0.0004879259504377842 0.001628973986953497 -5.0010159611701965e-05
v -0.0004879259504377842 0.001628973986953497 -5.0010159611701965e-05
v -0.0004879259504377842 0.001628973986953497 -5.0010159611701965e-05
v -0.0004879259504377842 0.001628973986953497 -5.0010159611701965e-05
v -0.0004879259504377842 0.001628973986953497 5.0010159611701965e-05
v -0.0004879259504377842 0.001628973986953497 5.0010159611701965e-05
v -0.0004879259504377842 0.001628973986953497 5.0010159611701965e-05
v -0.0004879259504377842 0.001628973986953497 5.0010159611701965e-05
v -0.0005122148431837559 0.0015941648744046688 -5.0010159611701965e-05
v -0.0005122148431837559 0.0015941648744046688 -5.0010159611701965e-05
v -0.0005122148431837559 0.0015941648744046688 -5.0010159611701965e-05
v -0.0005122148431837559 0.0015941648744046688 5.0010159611701965e-05
v -0.0005122148431837559 0.0015941648744046688 5.0010159611701965e-05
v -0.0005122148431837559 0.0015941648744046688 5.0010159611701965e-05
v -0.0005122148431837559 0.0015941648744046688 5.0010159611701965e-05
v -0.0005418085493147373 0.0015132254920899868 -5.0010159611701965e-05
v -0.0005418085493147373 0.0015132254920899868 -5.0010159611701965e-05
v -0.0005418085493147373 0.0015132254920899868 -5.0010159611701965e-05
v -0.0005418085493147373 0.0015132254920899868 5.0010159611701965e-05
v -0.0005418085493147373 0.0015132254920899868 5.0010159611701965e-05
v -0.0005424343980848789 0.0014295964501798153 -5.0010159611701965e-05
v -0.0005424343980848789 0.0014295964501798153 -5.0010159611701965e-05
v -0.0005424343980848789 0.0014295964501798153 5.0010159611701965e-05
v -0.0005424343980848789 0.0014295964501798153 5.0010159611701965e-05
v -0.0005424343980848789 0.0014295964501798153 5.0010159611701965e-05
v -0.0005424343980848789 0.0014295964501798153 5.0010159611701965e-05
v -0.0005424343980848789 0.0014295964501798153 5.0010159611701965e-05
v -0.0005424343980848789 0.0014295964501798153 5.0010159611701965e-05
v -0.0005424343980848789 0.0014295964501798153 5.0010159611701965e-05
v -0.0005274140276014805 0.0013756542466580868 -5.0010159611701965e-05
v -0.0005274140276014805 0.0013756542466580868 -5.0010159611701965e-05
v -0.0005274140276014805 0.0013756542466580868 5.0010159611701965e-05
v -0.0005274140276014805 0.0013756542466580868 5.0010159611701965e-05
v -0.0005274140276014805 0.0013756542466580868 5.0010159611701965e-05
v -0.0005274140276014805 0.0013756542466580868 5.0010159611701965e-05
v -0.0003029131330549717 0.00025199493393301964 5.0010159611701965e-05
v -0.0003029131330549717 0.00025199493393301964 5.0010159611701965e-05
v -0.0003029131330549717 0.00025199493393301964 5.0010159611701965e-05
v -0.0003029131330549717 0.00025199493393301964 5.0010159611701965e-05
v -0.0003029131330549717 0.00025199493393301964 -5.0010159611701965e-05
v -0.0003029131330549717 0.00025199493393301964 -5.0010159611701965e-05
v -0.0003029131330549717 0.00025199493393301964 -5.0010159611701965e-05
v -0.00029883021488785744 0.0002274936850881204 -5.0010159611701965e-05
v -0.00029883021488785744 0.0002274936850881204 -5.0010159611701965e-05
v -0.00029883021488785744 0.0002274936850881204 -5.0010159611701965e-05
v -0.00029883021488785744 0.0002274936850881204 5.0010159611701965e-05
v -0.00029883021488785744 0.0002274936850881204 5.0010159611701965e-05
v -0.0002938234247267246 0.00020353634317871183 -5.0010159611701965e-05
v -0.0002938234247267246 0.00020353634317871183 -5.0010159611701965e-05
v -0.0002938234247267246 0.00020353634317871183 -5.0010159611701965e-05
v -0.0002938234247267246 0.00020353634317871183 5.0010159611701965e-05
v -0.0002938234247267246 0.00020353634317871183 5.0010159611701965e-05
v -0.0002938234247267246 0.00020353634317871183 5.0010159611701965e-05
v -0.0002938234247267246 0.00020353634317871183 5.0010159611701965e-05
v -0.00029042595997452736 0.00018559534510131925 -5.0010159611701965e-05
v -0.00029042595997452736 0.00018559534510131925 -5.0010159611701965e-05
v -0.00029042595997452736 0.00018559534510131925 -5.0010159611701965e-05
v -0.00029042595997452736 0.00018559534510131925 -5.0010159611701965e-05
v -0.00029042595997452736 0.00018559534510131925 5.0010159611701965e-05
v -0.00029042595997452736 0.00018559534510131925 5.0010159611701965e-05
v -0.00029042595997452736 0.00018559534510131925 5.0010159611701965e-05
v -0.00029042595997452736 0.00018559534510131925 5.0010159611701965e-05
v -0.00029042595997452736 0.00018559534510131925 5.0010159611701965e-05
v -0.00028673047199845314 0.00016770650108810514 -5.0010159611701965e-05
v -0.00028673047199845314 0.00016770650108810514 -5.0010159611701965e-05
v -0.00028673047199845314 0.00016770650108810514 -5.0010159611701965e-05
v -0.00028673047199845314 0.00016770650108810514 5.0010159611701965e-05
v -0.00028673047199845314 0.00016770650108810514 5.0010159611701965e-05
v -0.00028673047199845314 0.00016770650108810514 5.0010159611701965e-05
v -0.00028673047199845314 0.00016770650108810514 5.0010159611701965e-05
v -0.00028673047199845314 0.00016770650108810514 5.0010159611701965e-05
v -0.0003043138422071934 0.00016419355233665556 -5.0010159611701965e-05
v -0.0003043138422071934 0.00016419355233665556 -5.0010159611701965e-05
v -0.0003043138422071934 0.00016419355233665556 5.0010159611701965e-05
v -0.0003043138422071934 0.00016419355233665556 5.0010159611701965e-05
v -0.0003043138422071934 0.00016419355233665556 5.0010159611701965e-05
v -0.0003221058286726475 0.00015966359933372587 -5.0010159611701965e-05
v -0.0003221058286726475 0.00015966359933372587 -5.0010159611701965e-05
v -0.0003221058286726475 0.00015966359933372587 -5.0010159611701965e-05
v -0.0003221058286726475 0.00015966359933372587 5.0010159611701965e-05
v -0.0003221058286726475 0.00015966359933372587 5.0010159611701965e-05
v -0.0003221058286726475 0.00015966359933372587 5.0010159611701965e-05
v -0.00032431120052933693 0.00015930597146507353 5.0010159611701965e-05
v -0.00032431120052933693 0.00015930597146507353 5.0010159611701965e-05
v -0.00032431120052933693 0.00015930597146507353 5.0010159611701965e-05
v -0.00032431120052933693 0.00015930597146507353 -5.0010159611701965e-05
v -0.00032431120052933693 0.00015930597146507353 -5.0010159611701965e-05
v -0.00032431120052933693 0.00015930597146507353 -5.0010159611701965e-05
v -0.0003721141256392002 0.00014315311273094267 5.0010159611701965e-05
v -0.0003721141256392002 0.00014315311273094267 5.0010159611701965e-05
v -0.0003721141256392002 0.00014315311273094267 5.0010159611701965e-05
v -0.0003721141256392002 0.00014315311273094267 5.0010159611701965e-05
v -0.0003721141256392002 0.00014315311273094267 5.0010159611701965e-05
v -0.0003721141256392002 0.00014315311273094267 -5.0010159611701965e-05
v -0.0003721141256392002 0.00014315311273094267 -5.0010159611701965e-05
v -0.0003721141256392002 0.00014315311273094267 -5.0010159611701965e-05
v -0.0005055093206465244 9.95858499663882e-05 5.0010159611701965e-05
v -0.0005055093206465244 9.95858499663882e-05 5.0010159611701965e-05
v -0.0005055093206465244 9.95858499663882e-05 5.0010159611701965e-05
v -0.0005055093206465244 9.95858499663882e-05 5.0010159611701965e-05
v -0.0005055093206465244 9.95858499663882e-05 5.0010159611701965e-05
v -0.0005055093206465244 9.95858499663882e-05 5.0010159611701965e-05
v -0.0005055093206465244 9.95858499663882e-05 -5.0010159611701965e-05
v -0.0005055093206465244 9.95858499663882e-05 -5.0010159611701965e-05
v -0.0005055093206465244 9.95858499663882e-05 -5.0010159611701965e-05
v -0.0005055093206465244 9.95858499663882e-05 -5.0010159611701965e-05
v -0.0005055093206465244 9.95858499663882e-05 -5.0010159611701965e-05
v -0.0005846344865858555 7.359449955401942e-05 5.0010159611701965e-05
v -0.0005846344865858555 7.359449955401942e-05 5.0010159611701965e-05
v -0.0005846344865858555 7.359449955401942e-05 5.0010159611701965e-05
v -0.0005846344865858555 7.359449955401942e-05 5.0010159611701965e-05
v -0.0005846344865858555 7.359449955401942e-05 -5.0010159611701965e-05
v -0.0005846344865858555 7.359449955401942e-05 -5.0010159611701965e-05
v -0.0005846344865858555 7.359449955401942e-05 -5.0010159611701965e-05
v -0.0005846344865858555 7.359449955401942e-05 -5.0010159611701965e-05
v -0.0005846344865858555 7.359449955401942e-05 -5.0010159611701965e-05
v -0.001503529492765665 -0.00022991608420852572 5.0010159611701965e-05
v -0.001503529492765665 -0.00022991608420852572 5.0010159611701965e-05
v -0.001503529492765665 -0.00022991608420852572 -5.0010159611701965e-05
v -0.001503529492765665 -0.00022991608420852572 -5.0010159611701965e-05
v -0.0015147053636610508 -0.00023378666082862765 5.0010159611701965e-05
v -0.0015147053636610508 -0.00023378666082862765 5.0010159611701965e-05
v -0.0015147053636610508 -0.00023378666082862765 5.0010159611701965e-05
v -0.0015147053636610508 -0.00023378666082862765 5.0010159611701965e-05
v -0.0015147053636610508 -0.00023378666082862765 5.0010159611701965e-05
v -0.0015147053636610508 -0.00023378666082862765 5.0010159611701965e-05
v -0.0015147053636610508 -0.00023378666082862765 -5.0010159611701965e-05
v -0.0015147053636610508 -0.00023378666082862765 -5.0010159611701965e-05
v -0.0015147053636610508 -0.00023378666082862765 -5.0010159611701965e-05
v -0.0015886151231825352 -0.00027557695284485817 -5.0010159611701965e-05
v -0.0015886151231825352 -0.00027557695284485817 -5.0010159611701965e-05
v -0.0015886151231825352 -0.00027557695284485817 5.0010159611701965e-05
v -0.0015886151231825352 -0.00027557695284485817 5.0010159611701965e-05
v -0.0015886151231825352 -0.00027557695284485817 5.0010159611701965e-05
v -0.0016457163728773594 -0.0003426247276365757 -5.0010159611701965e-05
v -0.0016457163728773594 -0.0003426247276365757 -5.0010159611701965e-05
v -0.0016457163728773594 -0.0003426247276365757 5.0010159611701965e-05
v -0.0016457163728773594 -0.0003426247276365757 5.0010159611701965e-05
v -0.0016756081022322178 -0.0004239254631102085 -5.0010159611701965e-05
v -0.0016756081022322178 -0.0004239254631102085 -5.0010159611701965e-05
v -0.0016756081022322178 -0.0004239254631102085 -5.0010159611701965e-05
v -0.0016756081022322178 -0.0004239254631102085 5.0010159611701965e-05
v -0.0016756081022322178 -0.0004239254631102085 5.0010159611701965e-05
v -0.0016762339510023594 -0.00050779664888978 -5.0010159611701965e-05
v -0.0016762339510023594 -0.00050779664888978 -5.0010159611701965e-05
v -0.0016762339510023594 -0.00050779664888978 -5.0010159611701965e-05
v -0.0016762339510023594 -0.00050779664888978 5.0010159611701965e-05
v -0.0016762339510023594 -0.00050779664888978 5.0010159611701965e-05
v -0.0016469084657728672 -0.0005911164917051792 -5.0010159611701965e-05
v -0.0016469084657728672 -0.0005911164917051792 -5.0010159611701965e-05
v -0.0016469084657728672 -0.0005911164917051792 5.0010159611701965e-05
v -0.0016469084657728672 -0.0005911164917051792 5.0010159611701965e-05
v -0.0015893303789198399 -0.0006601349450647831 -5.0010159611701965e-05
v -0.0015893303789198399 -0.0006601349450647831 -5.0010159611701965e-05
v -0.0015893303789198399 -0.0006601349450647831 -5.0010159611701965e-05
v -0.0015893303789198399 -0.0006601349450647831 -5.0010159611701965e-05
v -0.0015893303789198399 -0.0006601349450647831 5.0010159611701965e-05
v -0.0015893303789198399 -0.0006601349450647831 5.0010159611701965e-05
v -0.0015893303789198399 -0.0006601349450647831 5.0010159611701965e-05
v -0.0015893303789198399 -0.0006601349450647831 5.0010159611701965e-05
v -0.0015551173128187656 -0.000684103462845087 -5.0010159611701965e-05
v -0.0015551173128187656 -0.000684103462845087 -5.0010159611701965e-05
v -0.0015551173128187656 -0.000684103462845087 -5.0010159611701965e-05
v -0.0015551173128187656 -0.000684103462845087 5.0010159611701965e-05
v -0.0015551173128187656 -0.000684103462845087 5.0010159611701965e-05
v -0.0015551173128187656 -0.000684103462845087 5.0010159611701965e-05
v -0.0015551173128187656 -0.000684103462845087 5.0010159611701965e-05
v -0.001473220530897379 -0.0007140249945223331 -5.0010159611701965e-05
v -0.001473220530897379 -0.0007140249945223331 -5.0010159611701965e-05
v -0.001473220530897379 -0.0007140249945223331 -5.0010159611701965e-05
v -0.001473220530897379 -0.0007140249945223331 5.0010159611701965e-05
v -0.001473220530897379 -0.0007140249945223331 5.0010159611701965e-05
v -0.0013890289701521397 -0.0007143751718103886 -5.0010159611701965e-05
v -0.0013890289701521397 -0.0007143751718103886 -5.0010159611701965e-05
v -0.0013890289701521397 -0.0007143751718103886 -5.0010159611701965e-05
v -0.0013890289701521397 -0.0007143751718103886 5.0010159611701965e-05
v -0.0013890289701521397 -0.0007143751718103886 5.0010159611701965e-05
v -0.0013890289701521397 -0.0007143751718103886 5.0010159611701965e-05
v -0.0013510310091078281 -0.0007047862745821476 -5.0010159611701965e-05
v -0.0013510310091078281 -0.0007047862745821476 -5.0010159611701965e-05
v -0.0013510310091078281 -0.0007047862745821476 5.0010159611701965e-05
v -0.0013510310091078281 -0.0007047862745821476 5.0010159611701965e-05
v -0.0013510310091078281 -0.0007047862745821476 5.0010159611701965e-05
v -0.001342924777418375 -0.0007016235031187534 5.0010159611701965e-05
v -0.001342924777418375 -0.0007016235031187534 5.0010159611701965e-05
v -0.001342924777418375 -0.0007016235031187534 5.0010159611701965e-05
v -0.001342924777418375 -0.0007016235031187534 -5.0010159611701965e-05
v -0.001342924777418375 -0.0007016235031187534 -5.0010159611701965e-05
v -0.001342924777418375 -0.0007016235031187534 -5.0010159611701965e-05
v -0.001342924777418375 -0.0007016235031187534 -5.0010159611701965e-05
v -0.0006661140359938145 -0.00047506624832749367 5.0010159611701965e-05
v -0.0006661140359938145 -0.00047506624832749367 5.0010159611701965e-05
v -0.0006661140359938145 -0.00047506624832749367 -5.0010159611701965e-05
v -0.0006661140359938145 -0.00047506624832749367 -5.0010159611701965e-05
v -0.0006661140359938145 -0.00047506624832749367 -5.0010159611701965e-05
v -0.00043112272396683693 -0.00039603421464562416 5.0010159611701965e-05
v -0.00043112272396683693 -0.00039603421464562416 5.0010159611701965e-05
v -0.00043112272396683693 -0.00039603421464562416 -5.0010159611701965e-05
v -0.00043112272396683693 -0.00039603421464562416 -5.0010159611701965e-05
v -0.00043112272396683693 -0.00039603421464562416 -5.0010159611701965e-05
v -0.00040751928463578224 -0.00038971612229943275 5.0010159611701965e-05
v -0.00040751928463578224 -0.00038971612229943275 5.0010159611701965e-05
v -0.00040751928463578224 -0.00038971612229943275 5.0010159611701965e-05
v -0.00040751928463578224 -0.00038971612229943275 5.0010159611701965e-05
v -0.00040751928463578224 -0.00038971612229943275 -5.0010159611701965e-05
v -0.00040751928463578224 -0.00038971612229943275 -5.0010159611701965e-05
v -0.00040751928463578224 -0.00038971612229943275 -5.0010159611701965e-05
v -0.000386121217161417 -0.00038303667679429054 5.0010159611701965e-05
v -0.000386121217161417 -0.00038303667679429054 5.0010159611701965e-05
v -0.000386121217161417 -0.00038303667679429054 5.0010159611701965e-05
v -0.000386121217161417 -0.00038303667679429054 5.0010159611701965e-05
v -0.000386121217161417 -0.00038303667679429054 5.0010159611701965e-05
v -0.000386121217161417 -0.00038303667679429054 -5.0010159611701965e-05
v -0.000386121217161417 -0.00038303667679429054 -5.0010159611701965e-05
v -0.000386121217161417 -0.00038303667679429054 -5.0010159611701965e-05
v -0.0001821243204176426 -0.00032122666016221046 5.0010159611701965e-05
v -0.0001821243204176426 -0.00032122666016221046 5.0010159611701965e-05
v -0.0001821243204176426 -0.00032122666016221046 5.0010159611701965e-05
v -0.0001821243204176426 -0.00032122666016221046 5.0010159611701965e-05
v -0.0001821243204176426 -0.00032122666016221046 5.0010159611701965e-05
v -0.0001821243204176426 -0.00032122666016221046 5.0010159611701965e-05
v -0.0001821243204176426 -0.00032122666016221046 5.0010159611701965e-05
v -0.0001821243204176426 -0.00032122666016221046 5.0010159611701965e-05
v -0.0001821243204176426 -0.00032122666016221046 5.0010159611701965e-05
v -0.0001821243204176426 -0.00032122666016221046 -5.0010159611701965e-05
v -0.0001821243204176426 -0.00032122666016221046 -5.0010159611701965e-05
v -0.0001821243204176426 -0.00032122666016221046 -5.0010159611701965e-05
v -0.0001821243204176426 -0.00032122666016221046 -5.0010159611701965e-05
v -0.0001821243204176426 -0.00032122666016221046 -5.0010159611701965e-05
v -0.0001821243204176426 -0.00032122666016221046 -5.0010159611701965e-05
v -0.0001821243204176426 -0.00032122666016221046 -5.0010159611701965e-05
v -0.0001821243204176426 -0.00032122666016221046 -5.0010159611701965e-05
v -0.0001821243204176426 -0.00032122666016221046 -5.0010159611701965e-05
v -0.0001821243204176426 -0.00032122666016221046 -5.0010159611701965e-05
v -0.00017681950703263283 -0.00034512439742684364 5.0010159611701965e-05
v -0.00017681950703263283 -0.00034512439742684364 5.0010159611701965e-05
v -0.00017681950703263283 -0.00034512439742684364 5.0010159611701965e-05
v -0.00017681950703263283 -0.00034512439742684364 5.0010159611701965e-05
v -0.00017681950703263283 -0.00034512439742684364 -5.0010159611701965e-05
v -0.00017681950703263283 -0.00034512439742684364 -5.0010159611701965e-05
v -0.00017681950703263283 -0.00034512439742684364 -5.0010159611701965e-05
v -8.651847019791603e-05 -0.0008094445802271366 5.0010159611701965e-05
v -8.651847019791603e-05 -0.0008094445802271366 5.0010159611701965e-05
v -8.651847019791603e-05 -0.0008094445802271366 5.0010159611701965e-05
v -8.651847019791603e-05 -0.0008094445802271366 -5.0010159611701965e-05
v -8.651847019791603e-05 -0.0008094445802271366 -5.0010159611701965e-05
v -8.651847019791603e-05 -0.0008094445802271366 -5.0010159611701965e-05
v 5.0184786232421175e-05 -0.0015098662115633488 5.0010159611701965e-05
v 5.0184786232421175e-05 -0.0015098662115633488 5.0010159611701965e-05
v 5.0184786232421175e-05 -0.0015098662115633488 5.0010159611701965e-05
v 5.0184786232421175e-05 -0.0015098662115633488 -5.0010159611701965e-05
v 5.0184786232421175e-05 -0.0015098662115633488 -5.0010159611701965e-05
v 5.0184786232421175e-05 -0.0015098662115633488 -5.0010159611701965e-05
v 5.0184786232421175e-05 -0.0015098662115633488 -5.0010159611701965e-05
v 5.146628609509207e-05 -0.0015186839736998081 5.0010159611701965e-05
v 5.146628609509207e-05 -0.0015186839736998081 5.0010159611701965e-05
v 5.146628609509207e-05 -0.0015186839736998081 5.0010159611701965e-05
v 5.146628609509207e-05 -0.0015186839736998081 -5.0010159611701965e-05
v 5.146628609509207e-05 -0.0015186839736998081 -5.0010159611701965e-05
v 8.347397670149803e-05 -0.0016004056669771671 -5.0010159611701965e-05
v 8.347397670149803e-05 -0.0016004056669771671 -5.0010159611701965e-05
v 8.347397670149803e-05 -0.0016004056669771671 5.0010159611701965e-05
v 8.347397670149803e-05 -0.0016004056669771671 5.0010159611701965e-05
v 0.00014367466792464256 -0.0016669840551912785 -5.0010159611701965e-05
v 0.00014367466792464256 -0.0016669840551912785 -5.0010159611701965e-05
v 0.00014367466792464256 -0.0016669840551912785 5.0010159611701965e-05
v 0.00014367466792464256 -0.0016669840551912785 5.0010159611701965e-05
v 0.00017097359523177147 -0.0016851634718477726 -5.0010159611701965e-05
v 0.00017097359523177147 -0.0016851634718477726 -5.0010159611701965e-05
v 0.00017097359523177147 -0.0016851634718477726 -5.0010159611701965e-05
v 0.00017097359523177147 -0.0016851634718477726 -5.0010159611701965e-05
v 0.00017097359523177147 -0.0016851634718477726 -5.0010159611701965e-05
v 0.00017097359523177147 -0.0016851634718477726 -5.0010159611701965e-05
v 0.00017097359523177147 -0.0016851634718477726 5.0010159611701965e-05
v 0.00017097359523177147 -0.0016851634718477726 5.0010159611701965e-05
v 0.00017097359523177147 -0.0016851634718477726 5.0010159611701965e-05
v 0.00017097359523177147 -0.0016851634718477726 5.0010159611701965e-05
v 0.00017097359523177147 -0.0016851634718477726 5.0010159611701965e-05
v 0.00017097359523177147 -0.0016851634718477726 5.0010159611701965e-05
v 0.00017097359523177147 -0.0016851634718477726 5.0010159611701965e-05
v 0.0002520657144486904 -0.0017150253988802433 -5.0010159611701965e-05
v 0.0002520657144486904 -0.0017150253988802433 -5.0010159611701965e-05
v 0.0002520657144486904 -0.0017150253988802433 -5.0010159611701965e-05
v 0.0002520657144486904 -0.0017150253988802433 5.0010159611701965e-05
v 0.0002520657144486904 -0.0017150253988802433 5.0010159611701965e-05
v 0.0002520657144486904 -0.0017150253988802433 5.0010159611701965e-05
v 0.0003359890542924404 -0.0017157369293272495 -5.0010159611701965e-05
v 0.0003359890542924404 -0.0017157369293272495 -5.0010159611701965e-05
v 0.0003359890542924404 -0.0017157369293272495 -5.0010159611701965e-05
v 0.0003359890542924404 -0.0017157369293272495 5.0010159611701965e-05
v 0.0003359890542924404 -0.0017157369293272495 5.0010159611701965e-05
v 0.00041916733607649803 -0.0016865343786776066 -5.0010159611701965e-05
v 0.00041916733607649803 -0.0016865343786776066 -5.0010159611701965e-05
v 0.00041916733607649803 -0.0016865343786776066 5.0010159611701965e-05
v 0.00041916733607649803 -0.0016865343786776066 5.0010159611701965e-05
v 0.0004880703054368496 -0.0016288966871798038 -5.0010159611701965e-05
v 0.0004880703054368496 -0.0016288966871798038 -5.0010159611701965e-05
v 0.0004880703054368496 -0.0016288966871798038 -5.0010159611701965e-05
v 0.0004880703054368496 -0.0016288966871798038 -5.0010159611701965e-05
v 0.0004880703054368496 -0.0016288966871798038 -5.0010159611701965e-05
v 0.0004880703054368496 -0.0016288966871798038 5.0010159611701965e-05
v 0.0004880703054368496 -0.0016288966871798038 5.0010159611701965e-05
v 0.0004880703054368496 -0.0016288966871798038 5.0010159611701965e-05
v 0.0004880703054368496 -0.0016288966871798038 5.0010159611701965e-05
f 1 7 9
f 1 9 10
f 10 9 16
f 10 16 18
f 18 16 23
f 18 23 27
f 30 27 32
f 32 27 23
f 30 32 37
f 30 37 41
f 41 37 44
f 41 44 47
f 47 44 51
f 47 51 52
f 52 51 55
f 52 55 60
f 61 56 64
f 61 64 69
f 69 64 70
f 69 70 75
f 77 75 83
f 83 75 70
f 87 76 92
f 96 80 84
f 103 91 110
f 106 89 97
f 111 98 120
f 120 98 104
f 121 111 127
f 127 111 120
f 121 127 129
f 121 129 131
f 131 129 133
f 131 133 135
f 135 133 137
f 135 137 141
f 141 137 145
f 141 145 148
f 148 145 151
f 148 151 153
f 153 151 155
f 153 155 161
f 161 155 162
f 161 162 168
f 168 162 170
f 168 170 173
f 173 170 176
f 173 176 180
f 180 176 182
f 180 182 186
f 192 186 195
f 195 186 182
f 197 190 204
f 200 192 195
f 206 198 209
f 209 198 201
f 212 206 217
f 217 206 209
f 221 212 225
f 225 212 217
f 230 220 233
f 234 221 225
f 245 226 251
f 251 226 235
f 254 245 259
f 259 245 251
f 263 252 266
f 265 256 260
f 268 263 272
f 272 263 266
f 268 272 274
f 268 274 277
f 277 274 278
f 277 278 282
f 282 278 283
f 282 283 287
f 287 283 293
f 287 293 297
f 297 293 300
f 297 300 302
f 302 300 304
f 302 304 305
f 305 304 309
f 305 309 312
f 312 309 317
f 312 317 320
f 320 317 323
f 320 323 325
f 325 323 328
f 325 328 329
f 329 328 336
f 329 336 341
f 345 341 348
f 348 341 336
f 345 348 351
f 345 351 352
f 352 351 356
f 352 356 358
f 358 356 361
f 359 362 365
f 367 364 371
f 367 371 375
f 377 372 379
f 377 379 382
f 382 379 383
f 382 383 386
f 389 386 393
f 393 386 383
f 395 389 400
f 400 389 393
f 407 397 412
f 409 395 400
f 415 406 420
f 422 403 411
f 423 417 425
f 425 417 419
f 431 423 435
f 435 423 425
f 431 435 437
f 431 437 438
f 438 437 441
f 438 441 443
f 443 441 445
f 443 445 448
f 448 445 452
f 448 452 453
f 453 452 455
f 453 455 457
f 457 455 459
f 457 459 465
f 465 459 468
f 465 468 473
f 473 468 476
f 473 476 477
f 477 476 481
f 477 481 484
f 484 481 486
f 484 486 488
f 490 488 494
f 494 488 486
f 497 490 500
f 500 490 494
f 502 497 505
f 505 497 500
f 507 502 511
f 511 502 505
f 514 507 520
f 520 507 511
f 524 516 534
f 533 514 520
f 544 522 547
f 547 522 532
f 550 544 552
f 552 544 547
f 555 550 558
f 558 550 552
f 563 555 564
f 564 555 558
f 563 564 567
f 563 567 569
f 569 567 570
f 569 570 573
f 573 570 577
f 573 577 582
f 582 577 588
f 582 588 591
f 591 588 595
f 591 595 596
f 596 595 599
f 596 599 601
f 601 599 603
f 601 603 608
f 608 603 7
f 608 7 1
f 482 489 429
f 428 487 491
f 53 63 529
f 112 122 130
f 244 357 369
f 243 366 228
f 227 368 376
f 228 374 529
f 530 373 380
f 525 381 388
f 529 63 228
f 229 62 67
f 231 68 73
f 25 556 562
f 24 561 568
f 554 24 549
f 549 24 31
f 548 28 541
f 543 29 42
f 542 40 529
f 529 40 46
f 523 48 54
f 353 360 243
f 353 243 342
f 344 246 255
f 343 253 339
f 340 257 264
f 338 262 330
f 332 261 269
f 270 276 333
f 334 275 280
f 335 281 288
f 424 429 492
f 424 492 498
f 424 498 414
f 199 102 191
f 189 101 117
f 188 113 187
f 185 114 178
f 232 74 79
f 228 78 219
f 218 81 88
f 219 90 211
f 213 86 100
f 214 99 207
f 205 102 199
f 387 390 528
f 527 391 398
f 526 396 518
f 515 399 405
f 517 404 510
f 509 408 416
f 508 414 503
f 503 414 498
f 568 572 24
f 24 572 580
f 26 586 17
f 19 584 11
f 301 306 295
f 295 306 314
f 296 311 291
f 290 313 319
f 289 321 333
f 331 318 326
f 454 458 449
f 449 458 466
f 597 600 590
f 590 600 609
f 592 607 583
f 581 610 2
f 585 3 12
f 444 449 440
f 440 449 466
f 439 463 427
f 430 464 470
f 432 471 483
f 482 472 478
f 130 136 112
f 112 136 140
f 115 142 146
f 172 179 166
f 165 177 116
f 167 112 159
f 159 112 149
f 160 147 152
f 495 485 479
f 248 240 536
f 535 43 38
f 237 85 72
f 71 65 241
f 238 66 58
f 239 59 539
f 540 57 49
f 537 50 45
f 271 267 327
f 327 267 337
f 565 560 20
f 22 559 35
f 34 557 551
f 33 553 546
f 36 545 39
f 38 546 535
f 413 401 535
f 531 402 394
f 538 392 385
f 355 250 363
f 363 250 370
f 370 250 535
f 370 535 378
f 378 535 384
f 82 236 95
f 94 242 222
f 93 223 105
f 109 224 215
f 108 216 210
f 566 565 571
f 571 565 20
f 571 20 578
f 575 21 14
f 535 521 413
f 410 519 512
f 413 513 418
f 273 271 279
f 279 271 327
f 279 327 285
f 285 327 322
f 249 354 350
f 247 349 347
f 337 267 346
f 346 267 258
f 346 258 250
f 208 203 105
f 107 202 194
f 105 193 118
f 119 196 184
f 118 181 123
f 125 183 174
f 126 175 169
f 606 598 594
f 513 506 418
f 421 504 501
f 418 499 426
f 426 499 496
f 426 496 434
f 308 303 298
f 593 589 604
f 602 587 574
f 605 579 6
f 5 576 15
f 4 13 8
f 456 450 460
f 461 451 447
f 460 446 442
f 324 315 286
f 285 316 307
f 284 310 292
f 294 307 299
f 480 475 493
f 496 474 467
f 496 467 434
f 433 469 462
f 434 460 436
f 436 460 442
f 150 144 156
f 157 143 139
f 158 138 134
f 171 163 123
f 124 164 154
f 123 156 128
f 128 156 132
