mtllib converted_link2_20_d12626ff.mtl
usemtl material
v 0.0002229654637631029 0.00048611764214001596 -5.0010159611701965e-05
v 0.0002229654637631029 0.00048611764214001596 -5.0010159611701965e-05
v 0.0002229654637631029 0.00048611764214001596 -5.0010159611701965e-05
v 0.00012786625302396715 0.0005286176456138492 -5.0010159611701965e-05
v 0.00012786625302396715 0.0005286176456138492 -5.0010159611701965e-05
v 0.00012786625302396715 0.0005286176456138492 -5.0010159611701965e-05
v 0.0011357659241184592 0.0008725979132577777 -5.0010159611701965e-05
v 0.0011357659241184592 0.0008725979132577777 -5.0010159611701965e-05
v 0.0011357659241184592 0.0008725979132577777 -5.0010159611701965e-05
v 0.0011357659241184592 0.0008725979132577777 -5.0010159611701965e-05
v 0.0011357659241184592 0.0008725979132577777 -5.0010159611701965e-05
v 0.0011357659241184592 0.0008725979132577777 -5.0010159611701965e-05
v 0.0011357659241184592 0.0008725979132577777 -5.0010159611701965e-05
v 0.0011357659241184592 0.0008725979132577777 -5.0010159611701965e-05
v 0.0011357659241184592 0.0008725979132577777 -5.0010159611701965e-05
v -0.0006810283521190286 -0.00022025234648026526 -5.0010159611701965e-05
v -0.0006810283521190286 -0.00022025234648026526 -5.0010159611701965e-05
v -0.0006810283521190286 -0.00022025234648026526 -5.0010159611701965e-05
v -0.0009795284131541848 -0.00021113190450705588 -5.0010159611701965e-05
v -0.0009795284131541848 -0.00021113190450705588 -5.0010159611701965e-05
v -0.0009795284131541848 -0.00021113190450705588 -5.0010159611701965e-05
v -0.0009795284131541848 -0.00021113190450705588 -5.0010159611701965e-05
v -0.0006996250012889504 -0.00011338214244460687 -5.0010159611701965e-05
v -0.0006996250012889504 -0.00011338214244460687 -5.0010159611701965e-05
v -0.0006996250012889504 -0.00011338214244460687 -5.0010159611701965e-05
v -0.0006996250012889504 -0.00011338214244460687 -5.0010159611701965e-05
v -0.000991836772300303 -8.090226765489206e-05 -5.0010159611701965e-05
v -0.000991836772300303 -8.090226765489206e-05 -5.0010159611701965e-05
v -0.000991836772300303 -8.090226765489206e-05 -5.0010159611701965e-05
v -0.000991836772300303 -8.090226765489206e-05 -5.0010159611701965e-05
v -0.0006993269780650735 -5.502394287759671e-06 -5.0010159611701965e-05
v -0.0006993269780650735 -5.502394287759671e-06 -5.0010159611701965e-05
v -0.0006993269780650735 -5.502394287759671e-06 -5.0010159611701965e-05
v -0.0006993269780650735 -5.502394287759671e-06 -5.0010159611701965e-05
v -0.0006993269780650735 -5.502394287759671e-06 -5.0010159611701965e-05
v -0.0009853249648585916 5.0118051149183884e-05 -5.0010159611701965e-05
v -0.0009853249648585916 5.0118051149183884e-05 -5.0010159611701965e-05
v -0.0009853249648585916 5.0118051149183884e-05 -5.0010159611701965e-05
v -0.0009853249648585916 5.0118051149183884e-05 -5.0010159611701965e-05
v -0.0006810283521190286 9.970725659513846e-05 -5.0010159611701965e-05
v -0.0006810283521190286 9.970725659513846e-05 -5.0010159611701965e-05
v -0.0006810283521190286 9.970725659513846e-05 -5.0010159611701965e-05
v -0.0006810283521190286 9.970725659513846e-05 -5.0010159611701965e-05
v -0.0006810283521190286 9.970725659513846e-05 -5.0010159611701965e-05
v 0.0005432659527286887 -6.87236979501904e-06 -5.0010159611701965e-05
v 0.0005432659527286887 -6.87236979501904e-06 -5.0010159611701965e-05
v 0.0005432659527286887 -6.87236979501904e-06 -5.0010159611701965e-05
v 0.0005246693035587668 0.00010005743388319388 -5.0010159611701965e-05
v 0.0005246693035587668 0.00010005743388319388 -5.0010159611701965e-05
v 0.0005246693035587668 0.00010005743388319388 -5.0010159611701965e-05
v 0.0004878634063061327 0.00020180721185170114 -5.0010159611701965e-05
v 0.0004878634063061327 0.00020180721185170114 -5.0010159611701965e-05
v 0.0004878634063061327 0.00020180721185170114 -5.0010159611701965e-05
v 0.00043417452252469957 0.00029532783082686365 -5.0010159611701965e-05
v 0.00043417452252469957 0.00029532783082686365 -5.0010159611701965e-05
v 0.00043417452252469957 0.00029532783082686365 -5.0010159611701965e-05
v -9.232820593751967e-05 0.0008535179076716304 -5.0010159611701965e-05
v -9.232820593751967e-05 0.0008535179076716304 -5.0010159611701965e-05
v -9.232820593751967e-05 0.0008535179076716304 -5.0010159611701965e-05
v -7.2276711762242485e-06 -0.0006796225206926465 -5.0010159611701965e-05
v -7.2276711762242485e-06 -0.0006796225206926465 -5.0010159611701965e-05
v -7.2276711762242485e-06 -0.0006796225206926465 -5.0010159611701965e-05
v -7.2276711762242485e-06 -0.0006796225206926465 -5.0010159611701965e-05
v -7.2276711762242485e-06 -0.0006796225206926465 -5.0010159611701965e-05
v -5.732537465519272e-05 -0.0009737118380144238 -5.0010159611701965e-05
v -5.732537465519272e-05 -0.0009737118380144238 -5.0010159611701965e-05
v -5.732537465519272e-05 -0.0009737118380144238 -5.0010159611701965e-05
v -5.732537465519272e-05 -0.0009737118380144238 -5.0010159611701965e-05
v -0.00011633397662080824 -0.0006824323209002614 -5.0010159611701965e-05
v -0.00011633397662080824 -0.0006824323209002614 -5.0010159611701965e-05
v -0.00011633397662080824 -0.0006824323209002614 -5.0010159611701965e-05
v -0.00011633397662080824 -0.0006824323209002614 -5.0010159611701965e-05
v -0.00018833638750948012 -0.0009671618463471532 -5.0010159611701965e-05
v -0.00018833638750948012 -0.0009671618463471532 -5.0010159611701965e-05
v -0.00018833638750948012 -0.0009671618463471532 -5.0010159611701965e-05
v -0.00018833638750948012 -0.0009671618463471532 -5.0010159611701965e-05
v -0.00018222691142000258 -0.0006748625310137868 -5.0010159611701965e-05
v -0.00018222691142000258 -0.0006748625310137868 -5.0010159611701965e-05
v -0.00018222691142000258 -0.0006748625310137868 -5.0010159611701965e-05
v -0.00030872286879457533 -0.0009441525908187032 -5.0010159611701965e-05
v -0.00030872286879457533 -0.0009441525908187032 -5.0010159611701965e-05
v -0.00030872286879457533 -0.0009441525908187032 -5.0010159611701965e-05
v -0.00028443397604860365 -0.0006486923666670918 -5.0010159611701965e-05
v -0.00028443397604860365 -0.0006486923666670918 -5.0010159611701965e-05
v -0.00028443397604860365 -0.0006486923666670918 -5.0010159611701965e-05
v 0.00038726566708646715 0.0003548672830220312 -5.0010159611701965e-05
v 0.00038726566708646715 0.0003548672830220312 -5.0010159611701965e-05
v 0.00038726566708646715 0.0003548672830220312 -5.0010159611701965e-05
v 0.0003102713671978563 0.0004278280248399824 -5.0010159611701965e-05
v 0.0003102713671978563 0.0004278280248399824 -5.0010159611701965e-05
v 0.0003102713671978563 0.0004278280248399824 -5.0010159611701965e-05
v 0.0003102713671978563 0.0004278280248399824 -5.0010159611701965e-05
v 2.5674093194538727e-05 0.0005548474146053195 -5.0010159611701965e-05
v 2.5674093194538727e-05 0.0005548474146053195 -5.0010159611701965e-05
v 2.5674093194538727e-05 0.0005548474146053195 -5.0010159611701965e-05
v -4.0233742765849456e-05 0.0005624181358143687 -5.0010159611701965e-05
v -4.0233742765849456e-05 0.0005624181358143687 -5.0010159611701965e-05
v -4.0233742765849456e-05 0.0005624181358143687 -5.0010159611701965e-05
v -4.0233742765849456e-05 0.0005624181358143687 -5.0010159611701965e-05
v -0.00022512735449708998 0.0008417776552960277 -5.0010159611701965e-05
v -0.00022512735449708998 0.0008417776552960277 -5.0010159611701965e-05
v -0.00022512735449708998 0.0008417776552960277 -5.0010159611701965e-05
v -0.00014932514750398695 0.0005596176488325 -5.0010159611701965e-05
v -0.00014932514750398695 0.0005596176488325 -5.0010159611701965e-05
v -0.00014932514750398695 0.0005596176488325 -5.0010159611701965e-05
v -0.00014932514750398695 0.0005596176488325 -5.0010159611701965e-05
v -0.00035253228270448744 0.0008115581003949046 -5.0010159611701965e-05
v -0.00035253228270448744 0.0008115581003949046 -5.0010159611701965e-05
v -0.00035253228270448744 0.0008115581003949046 -5.0010159611701965e-05
v -0.0002555257233325392 0.0005379774374887347 -5.0010159611701965e-05
v -0.0002555257233325392 0.0005379774374887347 -5.0010159611701965e-05
v -0.0002555257233325392 0.0005379774374887347 -5.0010159611701965e-05
v -0.0002555257233325392 0.0005379774374887347 -5.0010159611701965e-05
v -0.00047403635107912123 0.0007635176880285144 -5.0010159611701965e-05
v -0.00047403635107912123 0.0007635176880285144 -5.0010159611701965e-05
v -0.00047403635107912123 0.0007635176880285144 -5.0010159611701965e-05
v -0.00035612346255220473 0.0004982779501006007 -5.0010159611701965e-05
v -0.00035612346255220473 0.0004982779501006007 -5.0010159611701965e-05
v -0.00035612346255220473 0.0004982779501006007 -5.0010159611701965e-05
v -0.00035612346255220473 0.0004982779501006007 -5.0010159611701965e-05
v -0.0005870318273082376 0.0006988475797697902 -5.0010159611701965e-05
v -0.0005870318273082376 0.0006988475797697902 -5.0010159611701965e-05
v -0.0005870318273082376 0.0006988475797697902 -5.0010159611701965e-05
v -0.00044803382479585707 0.0004420176555868238 -5.0010159611701965e-05
v -0.00044803382479585707 0.0004420176555868238 -5.0010159611701965e-05
v -0.00044803382479585707 0.0004420176555868238 -5.0010159611701965e-05
v -0.0006895369151607156 0.0006189773557707667 -5.0010159611701965e-05
v -0.0006895369151607156 0.0006189773557707667 -5.0010159611701965e-05
v -0.0005287235835567117 0.00037102759233675897 -5.0010159611701965e-05
v -0.0005287235835567117 0.00037102759233675897 -5.0010159611701965e-05
v -0.00032733441912569106 -0.0009390824707224965 -5.0010159611701965e-05
v -0.00032733441912569106 -0.0009390824707224965 -5.0010159611701965e-05
v -0.00032733441912569106 -0.0009390824707224965 -5.0010159611701965e-05
v -0.0004492259176913649 -0.0008951026247814298 -5.0010159611701965e-05
v -0.0004492259176913649 -0.0008951026247814298 -5.0010159611701965e-05
v -0.0004492259176913649 -0.0008951026247814298 -5.0010159611701965e-05
v -0.00037942887865938246 -0.0006061923922970891 -5.0010159611701965e-05
v -0.00037942887865938246 -0.0006061923922970891 -5.0010159611701965e-05
v -0.0005612230161204934 -0.000835851882584393 -5.0010159611701965e-05
v -0.0005612230161204934 -0.000835851882584393 -5.0010159611701965e-05
v -0.00046663047396577895 -0.0005479018436744809 -5.0010159611701965e-05
v -0.00046663047396577895 -0.0005479018436744809 -5.0010159611701965e-05
v -0.0006638324121013284 -0.0007615826325491071 -5.0010159611701965e-05
v -0.0006638324121013284 -0.0007615826325491071 -5.0010159611701965e-05
v -0.0006638324121013284 -0.0007615826325491071 -5.0010159611701965e-05
v -0.0005436247447505593 -0.0004748824576381594 -5.0010159611701965e-05
v -0.0005436247447505593 -0.0004748824576381594 -5.0010159611701965e-05
v -0.0005436247447505593 -0.0004748824576381594 -5.0010159611701965e-05
v -0.0007557278731837869 -0.0006731926696375012 -5.0010159611701965e-05
v -0.0007557278731837869 -0.0006731926696375012 -5.0010159611701965e-05
v -0.0007557278731837869 -0.0006731926696375012 -5.0010159611701965e-05
v -0.0005905336001887918 -0.00041552275069989264 -5.0010159611701965e-05
v -0.0005905336001887918 -0.00041552275069989264 -5.0010159611701965e-05
v -0.0008350318530574441 -0.0005719821201637387 -5.0010159611701965e-05
v -0.0008350318530574441 -0.0005719821201637387 -5.0010159611701965e-05
v -0.0006441330770030618 -0.00032194252707995474 -5.0010159611701965e-05
v -0.0006441330770030618 -0.00032194252707995474 -5.0010159611701965e-05
v -0.0009000307181850076 -0.00045921202399767935 -5.0010159611701965e-05
v -0.0009000307181850076 -0.00045921202399767935 -5.0010159611701965e-05
v -0.0009486234048381448 -0.00033809259184636176 -5.0010159611701965e-05
v -0.0009486234048381448 -0.00033809259184636176 -5.0010159611701965e-05
v 0.0005429679295048118 -0.00011481265391921625 -5.0010159611701965e-05
v 0.0005429679295048118 -0.00011481265391921625 -5.0010159611701965e-05
v 0.0005429679295048118 -0.00011481265391921625 -5.0010159611701965e-05
v 0.000800877227447927 -0.00030918247648514807 -5.0010159611701965e-05
v 0.000800877227447927 -0.00030918247648514807 -5.0010159611701965e-05
v 0.000800877227447927 -0.00030918247648514807 -5.0010159611701965e-05
v 0.000800877227447927 -0.00030918247648514807 -5.0010159611701965e-05
v 0.0005246693035587668 -0.00021989192464388907 -5.0010159611701965e-05
v 0.0005246693035587668 -0.00021989192464388907 -5.0010159611701965e-05
v 0.0005246693035587668 -0.00021989192464388907 -5.0010159611701965e-05
v 0.0003723645058926195 -0.0004911526339128613 -5.0010159611701965e-05
v 0.0003723645058926195 -0.0004911526339128613 -5.0010159611701965e-05
v 0.0003723645058926195 -0.0004911526339128613 -5.0010159611701965e-05
v 0.0005349660059437156 -0.0007375619607046247 -5.0010159611701965e-05
v 0.0005349660059437156 -0.0007375619607046247 -5.0010159611701965e-05
v 0.0005349660059437156 -0.0007375619607046247 -5.0010159611701965e-05
v 0.0005349660059437156 -0.0007375619607046247 -5.0010159611701965e-05
v 0.00029167471802793443 -0.0005620821611955762 -5.0010159611701965e-05
v 0.00029167471802793443 -0.0005620821611955762 -5.0010159611701965e-05
v 0.00029167471802793443 -0.0005620821611955762 -5.0010159611701965e-05
v 0.0004337721911724657 -0.0008168324129655957 -5.0010159611701965e-05
v 0.0004337721911724657 -0.0008168324129655957 -5.0010159611701965e-05
v 0.0004337721911724657 -0.0008168324129655957 -5.0010159611701965e-05
v 0.0004337721911724657 -0.0008168324129655957 -5.0010159611701965e-05
v 0.000199674948817119 -0.0006183526711538434 -5.0010159611701965e-05
v 0.000199674948817119 -0.0006183526711538434 -5.0010159611701965e-05
v 0.000199674948817119 -0.0006183526711538434 -5.0010159611701965e-05
v 0.000199674948817119 -0.0006183526711538434 -5.0010159611701965e-05
v 0.0003209704009350389 -0.0008819225477054715 -5.0010159611701965e-05
v 0.0003209704009350389 -0.0008819225477054715 -5.0010159611701965e-05
v 0.0003209704009350389 -0.0008819225477054715 -5.0010159611701965e-05
v 0.0003209704009350389 -0.0008819225477054715 -5.0010159611701965e-05
v 9.907720959745347e-05 -0.000657992553897202 -5.0010159611701965e-05
v 9.907720959745347e-05 -0.000657992553897202 -5.0010159611701965e-05
v 9.907720959745347e-05 -0.000657992553897202 -5.0010159611701965e-05
v 9.907720959745347e-05 -0.000657992553897202 -5.0010159611701965e-05
v 0.00019986866391263902 -0.0009304425911977887 -5.0010159611701965e-05
v 0.00019986866391263902 -0.0009304425911977887 -5.0010159611701965e-05
v 0.00019986866391263902 -0.0009304425911977887 -5.0010159611701965e-05
v 0.00019986866391263902 -0.0009304425911977887 -5.0010159611701965e-05
v 7.286606705747545e-05 -0.0009613224538043141 -5.0010159611701965e-05
v 7.286606705747545e-05 -0.0009613224538043141 -5.0010159611701965e-05
v 7.286606705747545e-05 -0.0009613224538043141 -5.0010159611701965e-05
v -0.0009623324731364846 0.0001705175673123449 -5.0010159611701965e-05
v -0.0009623324731364846 0.0001705175673123449 -5.0010159611701965e-05
v -0.0009623324731364846 0.0001705175673123449 -5.0010159611701965e-05
v -0.0009572362760081887 0.00018910769722424448 -5.0010159611701965e-05
v -0.0009572362760081887 0.00018910769722424448 -5.0010159611701965e-05
v -0.0009572362760081887 0.00018910769722424448 -5.0010159611701965e-05
v -0.0009572362760081887 0.00018910769722424448 -5.0010159611701965e-05
v -0.0006461298326030374 0.00019775782129727304 -5.0010159611701965e-05
v -0.0006461298326030374 0.00019775782129727304 -5.0010159611701965e-05
v -0.0006461298326030374 0.00019775782129727304 -5.0010159611701965e-05
v -0.0006461298326030374 0.00019775782129727304 -5.0010159611701965e-05
v -0.0009133225539699197 0.00031070769182406366 -5.0010159611701965e-05
v -0.0009133225539699197 0.00031070769182406366 -5.0010159611701965e-05
v -0.0009133225539699197 0.00031070769182406366 -5.0010159611701965e-05
v -0.0005950337508693337 0.0002888877352233976 -5.0010159611701965e-05
v -0.0005950337508693337 0.0002888877352233976 -5.0010159611701965e-05
v -0.0005950337508693337 0.0002888877352233976 -5.0010159611701965e-05
v -0.000853822217322886 0.0004231173952575773 -5.0010159611701965e-05
v -0.000853822217322886 0.0004231173952575773 -5.0010159611701965e-05
v -0.0007788246730342507 0.0005264774663373828 -5.0010159611701965e-05
v -0.0007788246730342507 0.0005264774663373828 -5.0010159611701965e-05
v -0.0007788246730342507 0.0005264774663373828 -5.0010159611701965e-05
v 0.0004897707840427756 -0.00031788196065463126 -5.0010159611701965e-05
v 0.0004897707840427756 -0.00031788196065463126 -5.0010159611701965e-05
v 0.0004897707840427756 -0.00031788196065463126 -5.0010159611701965e-05
v 0.0004897707840427756 -0.00031788196065463126 -5.0010159611701965e-05
v 0.0007568740984424949 -0.00043107211240567267 -5.0010159611701965e-05
v 0.0007568740984424949 -0.00043107211240567267 -5.0010159611701965e-05
v 0.0007568740984424949 -0.00043107211240567267 -5.0010159611701965e-05
v 0.0007568740984424949 -0.00043107211240567267 -5.0010159611701965e-05
v 0.00043867467320524156 -0.0004090221191290766 -5.0010159611701965e-05
v 0.00043867467320524156 -0.0004090221191290766 -5.0010159611701965e-05
v 0.00043867467320524156 -0.0004090221191290766 -5.0010159611701965e-05
v 0.00043867467320524156 -0.0004090221191290766 -5.0010159611701965e-05
v 0.0006976717850193381 -0.0005430124001577497 -5.0010159611701965e-05
v 0.0006976717850193381 -0.0005430124001577497 -5.0010159611701965e-05
v 0.0006976717850193381 -0.0005430124001577497 -5.0010159611701965e-05
v 0.0006233745953068137 -0.0006457121344283223 -5.0010159611701965e-05
v 0.0006233745953068137 -0.0006457121344283223 -5.0010159611701965e-05
v 0.0006233745953068137 -0.0006457121344283223 -5.0010159611701965e-05
v -9.232820593751967e-05 0.0008535179076716304 5.0010159611701965e-05
v -9.232820593751967e-05 0.0008535179076716304 5.0010159611701965e-05
v -9.232820593751967e-05 0.0008535179076716304 5.0010159611701965e-05
v -9.232820593751967e-05 0.0008535179076716304 5.0010159611701965e-05
v -0.00022512735449708998 0.0008417776552960277 5.0010159611701965e-05
v -0.00022512735449708998 0.0008417776552960277 5.0010159611701965e-05
v -0.00022512735449708998 0.0008417776552960277 5.0010159611701965e-05
v -0.00014932514750398695 0.0005596176488325 5.0010159611701965e-05
v -0.00014932514750398695 0.0005596176488325 5.0010159611701965e-05
v 0.0002229654637631029 0.00048611764214001596 5.0010159611701965e-05
v 0.0002229654637631029 0.00048611764214001596 5.0010159611701965e-05
v 0.0002229654637631029 0.00048611764214001596 5.0010159611701965e-05
v 0.0002229654637631029 0.00048611764214001596 5.0010159611701965e-05
v 0.0003102713671978563 0.0004278280248399824 5.0010159611701965e-05
v 0.0003102713671978563 0.0004278280248399824 5.0010159611701965e-05
v 0.0011357659241184592 0.0008725979132577777 5.0010159611701965e-05
v 0.0011357659241184592 0.0008725979132577777 5.0010159611701965e-05
v 0.0011357659241184592 0.0008725979132577777 5.0010159611701965e-05
v 0.0011357659241184592 0.0008725979132577777 5.0010159611701965e-05
v 0.0011357659241184592 0.0008725979132577777 5.0010159611701965e-05
v 0.0011357659241184592 0.0008725979132577777 5.0010159611701965e-05
v 0.0011357659241184592 0.0008725979132577777 5.0010159611701965e-05
v 0.0011357659241184592 0.0008725979132577777 5.0010159611701965e-05
v 0.0004878634063061327 0.00020180721185170114 5.0010159611701965e-05
v 0.0004878634063061327 0.00020180721185170114 5.0010159611701965e-05
v 0.0005246693035587668 0.00010005743388319388 5.0010159611701965e-05
v 0.0005246693035587668 0.00010005743388319388 5.0010159611701965e-05
v 0.0005246693035587668 0.00010005743388319388 5.0010159611701965e-05
v 0.0005432659527286887 -6.87236979501904e-06 5.0010159611701965e-05
v 0.0005432659527286887 -6.87236979501904e-06 5.0010159611701965e-05
v 0.0005432659527286887 -6.87236979501904e-06 5.0010159611701965e-05
v 0.0005432659527286887 -6.87236979501904e-06 5.0010159611701965e-05
v 0.000800877227447927 -0.00030918247648514807 5.0010159611701965e-05
v 0.000800877227447927 -0.00030918247648514807 5.0010159611701965e-05
v 0.000800877227447927 -0.00030918247648514807 5.0010159611701965e-05
v -0.0002555257233325392 0.0005379774374887347 5.0010159611701965e-05
v -0.0002555257233325392 0.0005379774374887347 5.0010159611701965e-05
v -0.0002555257233325392 0.0005379774374887347 5.0010159611701965e-05
v -0.00035253228270448744 0.0008115581003949046 5.0010159611701965e-05
v -0.00035253228270448744 0.0008115581003949046 5.0010159611701965e-05
v -0.00035253228270448744 0.0008115581003949046 5.0010159611701965e-05
v -0.00035612346255220473 0.0004982779501006007 5.0010159611701965e-05
v -0.00035612346255220473 0.0004982779501006007 5.0010159611701965e-05
v -0.00047403635107912123 0.0007635176880285144 5.0010159611701965e-05
v -0.00047403635107912123 0.0007635176880285144 5.0010159611701965e-05
v -0.00047403635107912123 0.0007635176880285144 5.0010159611701965e-05
v -0.00044803382479585707 0.0004420176555868238 5.0010159611701965e-05
v -0.00044803382479585707 0.0004420176555868238 5.0010159611701965e-05
v -0.00044803382479585707 0.0004420176555868238 5.0010159611701965e-05
v -0.00044803382479585707 0.0004420176555868238 5.0010159611701965e-05
v -4.0233742765849456e-05 0.0005624181358143687 5.0010159611701965e-05
v -4.0233742765849456e-05 0.0005624181358143687 5.0010159611701965e-05
v -4.0233742765849456e-05 0.0005624181358143687 5.0010159611701965e-05
v 2.5674093194538727e-05 0.0005548474146053195 5.0010159611701965e-05
v 2.5674093194538727e-05 0.0005548474146053195 5.0010159611701965e-05
v 2.5674093194538727e-05 0.0005548474146053195 5.0010159611701965e-05
v 2.5674093194538727e-05 0.0005548474146053195 5.0010159611701965e-05
v 0.00012786625302396715 0.0005286176456138492 5.0010159611701965e-05
v 0.00012786625302396715 0.0005286176456138492 5.0010159611701965e-05
v 0.00012786625302396715 0.0005286176456138492 5.0010159611701965e-05
v 0.00038726566708646715 0.0003548672830220312 5.0010159611701965e-05
v 0.00038726566708646715 0.0003548672830220312 5.0010159611701965e-05
v 0.00043417452252469957 0.00029532783082686365 5.0010159611701965e-05
v 0.00043417452252469957 0.00029532783082686365 5.0010159611701965e-05
v -0.0004492259176913649 -0.0008951026247814298 5.0010159611701965e-05
v -0.0004492259176913649 -0.0008951026247814298 5.0010159611701965e-05
v -0.0004492259176913649 -0.0008951026247814298 5.0010159611701965e-05
v -0.00028443397604860365 -0.0006486923666670918 5.0010159611701965e-05
v -0.00028443397604860365 -0.0006486923666670918 5.0010159611701965e-05
v -0.00028443397604860365 -0.0006486923666670918 5.0010159611701965e-05
v -0.00028443397604860365 -0.0006486923666670918 5.0010159611701965e-05
v -0.00037942887865938246 -0.0006061923922970891 5.0010159611701965e-05
v -0.00037942887865938246 -0.0006061923922970891 5.0010159611701965e-05
v -0.00037942887865938246 -0.0006061923922970891 5.0010159611701965e-05
v -0.00037942887865938246 -0.0006061923922970891 5.0010159611701965e-05
v -0.00037942887865938246 -0.0006061923922970891 5.0010159611701965e-05
v -0.00032733441912569106 -0.0009390824707224965 5.0010159611701965e-05
v -0.00032733441912569106 -0.0009390824707224965 5.0010159611701965e-05
v -0.00032733441912569106 -0.0009390824707224965 5.0010159611701965e-05
v -0.00030872286879457533 -0.0009441525908187032 5.0010159611701965e-05
v -0.00030872286879457533 -0.0009441525908187032 5.0010159611701965e-05
v -0.00030872286879457533 -0.0009441525908187032 5.0010159611701965e-05
v -0.00030872286879457533 -0.0009441525908187032 5.0010159611701965e-05
v -0.00018222691142000258 -0.0006748625310137868 5.0010159611701965e-05
v -0.00018222691142000258 -0.0006748625310137868 5.0010159611701965e-05
v -0.00018222691142000258 -0.0006748625310137868 5.0010159611701965e-05
v -0.00018833638750948012 -0.0009671618463471532 5.0010159611701965e-05
v -0.00018833638750948012 -0.0009671618463471532 5.0010159611701965e-05
v -0.00018833638750948012 -0.0009671618463471532 5.0010159611701965e-05
v -0.00018833638750948012 -0.0009671618463471532 5.0010159611701965e-05
v -0.00011633397662080824 -0.0006824323209002614 5.0010159611701965e-05
v -0.00011633397662080824 -0.0006824323209002614 5.0010159611701965e-05
v -0.00011633397662080824 -0.0006824323209002614 5.0010159611701965e-05
v -5.732537465519272e-05 -0.0009737118380144238 5.0010159611701965e-05
v -5.732537465519272e-05 -0.0009737118380144238 5.0010159611701965e-05
v -5.732537465519272e-05 -0.0009737118380144238 5.0010159611701965e-05
v -5.732537465519272e-05 -0.0009737118380144238 5.0010159611701965e-05
v -7.2276711762242485e-06 -0.0006796225206926465 5.0010159611701965e-05
v -7.2276711762242485e-06 -0.0006796225206926465 5.0010159611701965e-05
v -7.2276711762242485e-06 -0.0006796225206926465 5.0010159611701965e-05
v -7.2276711762242485e-06 -0.0006796225206926465 5.0010159611701965e-05
v 7.286606705747545e-05 -0.0009613224538043141 5.0010159611701965e-05
v 7.286606705747545e-05 -0.0009613224538043141 5.0010159611701965e-05
v 7.286606705747545e-05 -0.0009613224538043141 5.0010159611701965e-05
v 7.286606705747545e-05 -0.0009613224538043141 5.0010159611701965e-05
v 9.907720959745347e-05 -0.000657992553897202 5.0010159611701965e-05
v 9.907720959745347e-05 -0.000657992553897202 5.0010159611701965e-05
v 9.907720959745347e-05 -0.000657992553897202 5.0010159611701965e-05
v 9.907720959745347e-05 -0.000657992553897202 5.0010159611701965e-05
v 0.00019986866391263902 -0.0009304425911977887 5.0010159611701965e-05
v 0.00019986866391263902 -0.0009304425911977887 5.0010159611701965e-05
v 0.00019986866391263902 -0.0009304425911977887 5.0010159611701965e-05
v 0.00019986866391263902 -0.0009304425911977887 5.0010159611701965e-05
v 0.000199674948817119 -0.0006183526711538434 5.0010159611701965e-05
v 0.000199674948817119 -0.0006183526711538434 5.0010159611701965e-05
v 0.000199674948817119 -0.0006183526711538434 5.0010159611701965e-05
v 0.0003209704009350389 -0.0008819225477054715 5.0010159611701965e-05
v 0.0003209704009350389 -0.0008819225477054715 5.0010159611701965e-05
v 0.0003209704009350389 -0.0008819225477054715 5.0010159611701965e-05
v 0.0003209704009350389 -0.0008819225477054715 5.0010159611701965e-05
v 0.00029167471802793443 -0.0005620821611955762 5.0010159611701965e-05
v 0.00029167471802793443 -0.0005620821611955762 5.0010159611701965e-05
v 0.00029167471802793443 -0.0005620821611955762 5.0010159611701965e-05
v 0.00029167471802793443 -0.0005620821611955762 5.0010159611701965e-05
v 0.00029167471802793443 -0.0005620821611955762 5.0010159611701965e-05
v -0.0006996250012889504 -0.00011338214244460687 5.0010159611701965e-05
v -0.0006996250012889504 -0.00011338214244460687 5.0010159611701965e-05
v -0.0006996250012889504 -0.00011338214244460687 5.0010159611701965e-05
v -0.0006996250012889504 -0.00011338214244460687 5.0010159611701965e-05
v -0.0006996250012889504 -0.00011338214244460687 5.0010159611701965e-05
v -0.0006996250012889504 -0.00011338214244460687 5.0010159611701965e-05
v -0.0009795284131541848 -0.00021113190450705588 5.0010159611701965e-05
v -0.0009795284131541848 -0.00021113190450705588 5.0010159611701965e-05
v -0.0009795284131541848 -0.00021113190450705588 5.0010159611701965e-05
v -0.0009795284131541848 -0.00021113190450705588 5.0010159611701965e-05
v -0.0006810283521190286 -0.00022025234648026526 5.0010159611701965e-05
v -0.0006810283521190286 -0.00022025234648026526 5.0010159611701965e-05
v -0.0006810283521190286 -0.00022025234648026526 5.0010159611701965e-05
v -0.0009486234048381448 -0.00033809259184636176 5.0010159611701965e-05
v -0.0009486234048381448 -0.00033809259184636176 5.0010159611701965e-05
v -0.0006441330770030618 -0.00032194252707995474 5.0010159611701965e-05
v -0.0006441330770030618 -0.00032194252707995474 5.0010159611701965e-05
v -0.0009000307181850076 -0.00045921202399767935 5.0010159611701965e-05
v -0.0009000307181850076 -0.00045921202399767935 5.0010159611701965e-05
v -0.0005905336001887918 -0.00041552275069989264 5.0010159611701965e-05
v -0.0005905336001887918 -0.00041552275069989264 5.0010159611701965e-05
v -0.0008350318530574441 -0.0005719821201637387 5.0010159611701965e-05
v -0.0008350318530574441 -0.0005719821201637387 5.0010159611701965e-05
v -0.0008350318530574441 -0.0005719821201637387 5.0010159611701965e-05
v -0.0005436247447505593 -0.0004748824576381594 5.0010159611701965e-05
v -0.0005436247447505593 -0.0004748824576381594 5.0010159611701965e-05
v -0.0005436247447505593 -0.0004748824576381594 5.0010159611701965e-05
v -0.0007557278731837869 -0.0006731926696375012 5.0010159611701965e-05
v -0.0007557278731837869 -0.0006731926696375012 5.0010159611701965e-05
v -0.0007557278731837869 -0.0006731926696375012 5.0010159611701965e-05
v -0.0007557278731837869 -0.0006731926696375012 5.0010159611701965e-05
v -0.00046663047396577895 -0.0005479018436744809 5.0010159611701965e-05
v -0.00046663047396577895 -0.0005479018436744809 5.0010159611701965e-05
v -0.00046663047396577895 -0.0005479018436744809 5.0010159611701965e-05
v -0.00046663047396577895 -0.0005479018436744809 5.0010159611701965e-05
v -0.0006638324121013284 -0.0007615826325491071 5.0010159611701965e-05
v -0.0006638324121013284 -0.0007615826325491071 5.0010159611701965e-05
v -0.0006638324121013284 -0.0007615826325491071 5.0010159611701965e-05
v -0.0006638324121013284 -0.0007615826325491071 5.0010159611701965e-05
v -0.0005612230161204934 -0.000835851882584393 5.0010159611701965e-05
v -0.0005612230161204934 -0.000835851882584393 5.0010159611701965e-05
v -0.0005612230161204934 -0.000835851882584393 5.0010159611701965e-05
v 0.0004337721911724657 -0.0008168324129655957 5.0010159611701965e-05
v 0.0004337721911724657 -0.0008168324129655957 5.0010159611701965e-05
v 0.0004337721911724657 -0.0008168324129655957 5.0010159611701965e-05
v 0.0005349660059437156 -0.0007375619607046247 5.0010159611701965e-05
v 0.0005349660059437156 -0.0007375619607046247 5.0010159611701965e-05
v 0.0005349660059437156 -0.0007375619607046247 5.0010159611701965e-05
v 0.0005349660059437156 -0.0007375619607046247 5.0010159611701965e-05
v 0.0003723645058926195 -0.0004911526339128613 5.0010159611701965e-05
v 0.0003723645058926195 -0.0004911526339128613 5.0010159611701965e-05
v 0.0003723645058926195 -0.0004911526339128613 5.0010159611701965e-05
v 0.0003723645058926195 -0.0004911526339128613 5.0010159611701965e-05
v 0.0006233745953068137 -0.0006457121344283223 5.0010159611701965e-05
v 0.0006233745953068137 -0.0006457121344283223 5.0010159611701965e-05
v 0.0006233745953068137 -0.0006457121344283223 5.0010159611701965e-05
v 0.0006233745953068137 -0.0006457121344283223 5.0010159611701965e-05
v 0.00043867467320524156 -0.0004090221191290766 5.0010159611701965e-05
v 0.00043867467320524156 -0.0004090221191290766 5.0010159611701965e-05
v 0.00043867467320524156 -0.0004090221191290766 5.0010159611701965e-05
v 0.0006976717850193381 -0.0005430124001577497 5.0010159611701965e-05
v 0.0006976717850193381 -0.0005430124001577497 5.0010159611701965e-05
v 0.0006976717850193381 -0.0005430124001577497 5.0010159611701965e-05
v 0.0006976717850193381 -0.0005430124001577497 5.0010159611701965e-05
v 0.0004897707840427756 -0.00031788196065463126 5.0010159611701965e-05
v 0.0004897707840427756 -0.00031788196065463126 5.0010159611701965e-05
v 0.0004897707840427756 -0.00031788196065463126 5.0010159611701965e-05
v 0.0007568740984424949 -0.00043107211240567267 5.0010159611701965e-05
v 0.0007568740984424949 -0.00043107211240567267 5.0010159611701965e-05
v 0.0007568740984424949 -0.00043107211240567267 5.0010159611701965e-05
v 0.0005246693035587668 -0.00021989192464388907 5.0010159611701965e-05
v 0.0005246693035587668 -0.00021989192464388907 5.0010159611701965e-05
v 0.0005429679295048118 -0.00011481265391921625 5.0010159611701965e-05
v 0.0005429679295048118 -0.00011481265391921625 5.0010159611701965e-05
v -0.0006461298326030374 0.00019775782129727304 5.0010159611701965e-05
v -0.0006461298326030374 0.00019775782129727304 5.0010159611701965e-05
v -0.0006461298326030374 0.00019775782129727304 5.0010159611701965e-05
v -0.0009572362760081887 0.00018910769722424448 5.0010159611701965e-05
v -0.0009572362760081887 0.00018910769722424448 5.0010159611701965e-05
v -0.0009572362760081887 0.00018910769722424448 5.0010159611701965e-05
v -0.0006810283521190286 9.970725659513846e-05 5.0010159611701965e-05
v -0.0006810283521190286 9.970725659513846e-05 5.0010159611701965e-05
v -0.0006810283521190286 9.970725659513846e-05 5.0010159611701965e-05
v -0.0009623324731364846 0.0001705175673123449 5.0010159611701965e-05
v -0.0009623324731364846 0.0001705175673123449 5.0010159611701965e-05
v -0.0006993269780650735 -5.502394287759671e-06 5.0010159611701965e-05
v -0.0006993269780650735 -5.502394287759671e-06 5.0010159611701965e-05
v -0.0009853249648585916 5.0118051149183884e-05 5.0010159611701965e-05
v -0.0009853249648585916 5.0118051149183884e-05 5.0010159611701965e-05
v -0.0009853249648585916 5.0118051149183884e-05 5.0010159611701965e-05
v -0.000991836772300303 -8.090226765489206e-05 5.0010159611701965e-05
v -0.000991836772300303 -8.090226765489206e-05 5.0010159611701965e-05
v -0.000991836772300303 -8.090226765489206e-05 5.0010159611701965e-05
v -0.0005870318273082376 0.0006988475797697902 5.0010159611701965e-05
v -0.0005870318273082376 0.0006988475797697902 5.0010159611701965e-05
v -0.0005870318273082376 0.0006988475797697902 5.0010159611701965e-05
v -0.0006895369151607156 0.0006189773557707667 5.0010159611701965e-05
v -0.0006895369151607156 0.0006189773557707667 5.0010159611701965e-05
v -0.0006895369151607156 0.0006189773557707667 5.0010159611701965e-05
v -0.0006895369151607156 0.0006189773557707667 5.0010159611701965e-05
v -0.0006895369151607156 0.0006189773557707667 5.0010159611701965e-05
v -0.0005287235835567117 0.00037102759233675897 5.0010159611701965e-05
v -0.0005287235835567117 0.00037102759233675897 5.0010159611701965e-05
v -0.0005287235835567117 0.00037102759233675897 5.0010159611701965e-05
v -0.0007788246730342507 0.0005264774663373828 5.0010159611701965e-05
v -0.0007788246730342507 0.0005264774663373828 5.0010159611701965e-05
v -0.0007788246730342507 0.0005264774663373828 5.0010159611701965e-05
v -0.0005950337508693337 0.0002888877352233976 5.0010159611701965e-05
v -0.0005950337508693337 0.0002888877352233976 5.0010159611701965e-05
v -0.000853822217322886 0.0004231173952575773 5.0010159611701965e-05
v -0.000853822217322886 0.0004231173952575773 5.0010159611701965e-05
v -0.0009133225539699197 0.00031070769182406366 5.0010159611701965e-05
v -0.0009133225539699197 0.00031070769182406366 5.0010159611701965e-05
f 1 4 15
f 17 19 26
f 24 22 28
f 25 29 32
f 35 27 39
f 34 37 44
f 45 49 13
f 12 50 52
f 11 53 55
f 10 5 57
f 60 67 69
f 71 68 74
f 70 73 78
f 79 75 80
f 78 81 83
f 56 88 10
f 14 86 90
f 7 92 2
f 5 93 57
f 58 94 97
f 57 98 100
f 101 96 104
f 100 103 108
f 109 105 112
f 108 110 115
f 114 113 119
f 115 118 123
f 122 120 125
f 123 126 128
f 128 126 129
f 81 133 83
f 84 132 134
f 83 135 137
f 137 135 139
f 137 139 141
f 141 139 145
f 141 145 147
f 148 144 150
f 147 151 152
f 152 151 155
f 152 155 157
f 157 155 159
f 157 159 18
f 18 159 161
f 18 161 21
f 46 10 163
f 163 10 168
f 164 165 169
f 173 175 180
f 181 177 182
f 180 184 187
f 189 185 191
f 188 193 194
f 196 192 200
f 197 199 62
f 63 201 203
f 64 204 66
f 38 205 42
f 41 206 210
f 40 209 215
f 213 211 218
f 212 216 220
f 219 218 223
f 219 223 129
f 129 223 224
f 129 224 128
f 170 166 228
f 230 168 232
f 227 233 236
f 238 231 241
f 237 240 173
f 173 240 243
f 172 244 178
f 248 250 252
f 255 259 266
f 268 270 266
f 265 272 276
f 267 275 278
f 252 250 280
f 282 251 284
f 280 285 286
f 286 285 289
f 286 289 293
f 252 297 248
f 246 295 301
f 247 300 263
f 264 298 302
f 260 303 257
f 259 305 266
f 266 305 308
f 266 308 268
f 309 312 316
f 310 322 315
f 314 321 326
f 315 325 329
f 330 327 332
f 329 334 337
f 336 333 340
f 337 339 343
f 342 341 347
f 345 349 352
f 350 348 355
f 353 354 359
f 358 356 363
f 359 362 369
f 374 378 382
f 381 376 383
f 381 383 386
f 386 383 387
f 386 387 390
f 390 387 392
f 390 392 394
f 396 393 398
f 394 400 402
f 403 399 405
f 404 406 317
f 320 407 410
f 318 411 310
f 364 412 368
f 367 413 417
f 366 416 419
f 422 418 423
f 421 426 429
f 428 424 433
f 429 432 434
f 435 430 437
f 434 439 440
f 440 439 277
f 440 277 443
f 443 277 274
f 446 449 452
f 451 448 453
f 451 453 455
f 455 453 457
f 455 457 372
f 371 459 461
f 370 462 379
f 290 464 292
f 291 463 470
f 293 467 473
f 472 466 474
f 473 475 477
f 477 475 479
f 477 479 445
f 445 479 482
f 445 482 448
f 208 447 481
f 208 481 217
f 217 481 480
f 217 480 222
f 222 480 476
f 222 476 226
f 226 476 469
f 225 468 127
f 127 468 465
f 127 465 121
f 121 465 288
f 121 288 116
f 116 288 283
f 116 283 107
f 107 283 249
f 107 249 102
f 102 249 245
f 102 245 59
f 8 59 261
f 261 59 245
f 167 9 279
f 279 9 262
f 167 279 438
f 167 438 234
f 234 438 431
f 234 431 239
f 239 431 425
f 239 425 242
f 242 425 415
f 242 415 176
f 176 415 414
f 176 414 183
f 183 414 361
f 183 361 190
f 190 361 357
f 190 357 198
f 198 357 346
f 198 346 202
f 202 346 338
f 202 338 65
f 65 338 331
f 65 331 76
f 76 331 324
f 76 324 82
f 82 324 323
f 82 323 131
f 131 323 311
f 131 311 136
f 136 311 409
f 136 409 140
f 140 409 408
f 140 408 143
f 143 408 397
f 143 397 149
f 149 397 391
f 149 391 154
f 154 391 388
f 154 388 158
f 158 388 384
f 158 384 160
f 160 384 377
f 160 377 20
f 20 377 460
f 20 460 30
f 30 460 458
f 30 458 36
f 36 458 454
f 36 454 207
f 207 454 447
f 207 447 208
f 31 456 373
f 33 375 23
f 23 375 380
f 23 380 16
f 16 380 385
f 16 385 156
f 156 385 389
f 156 389 153
f 153 389 395
f 153 395 146
f 146 395 401
f 146 401 142
f 142 401 319
f 142 319 138
f 138 319 313
f 138 313 85
f 85 313 328
f 85 328 77
f 77 328 335
f 77 335 72
f 72 335 344
f 72 344 61
f 61 344 351
f 61 351 195
f 195 351 360
f 195 360 186
f 186 360 365
f 186 365 179
f 179 365 420
f 179 420 174
f 174 420 427
f 174 427 235
f 235 427 436
f 235 436 229
f 229 436 441
f 229 441 171
f 171 441 442
f 171 442 162
f 162 442 273
f 162 273 47
f 47 273 271
f 47 271 48
f 48 271 269
f 48 269 51
f 51 269 307
f 51 307 54
f 54 307 306
f 54 306 87
f 87 306 258
f 87 258 91
f 91 258 254
f 89 256 3
f 3 256 304
f 3 304 6
f 6 304 299
f 6 299 95
f 95 299 296
f 95 296 99
f 99 296 253
f 99 253 106
f 106 253 281
f 106 281 111
f 111 281 287
f 111 287 117
f 117 287 294
f 117 294 124
f 124 294 471
f 124 471 130
f 130 471 478
f 130 478 221
f 221 478 444
f 221 444 214
f 214 444 450
f 214 450 43
f 43 450 456
f 43 456 31
