mtllib converted_link2_25_161616ff.mtl
usemtl material
v -9.998492896556854e-05 0.0014886235585436225 0.018438439816236496
v -9.998492896556854e-05 0.0014886235585436225 0.018438439816236496
v -9.998492896556854e-05 2.7322730744572254e-08 0.018498459830880165
v -9.998492896556854e-05 2.7322730744572254e-08 0.018498459830880165
v -9.998492896556854e-05 2.7322730744572254e-08 0.018498459830880165
v 9.998492896556854e-05 2.7322730744572254e-08 0.018498459830880165
v 9.998492896556854e-05 2.7322730744572254e-08 0.018498459830880165
v 9.998492896556854e-05 2.7322730744572254e-08 0.018498459830880165
v 9.998492896556854e-05 -0.001488658250309527 0.018438439816236496
v 9.998492896556854e-05 -0.001488658250309527 0.018438439816236496
v 9.998492896556854e-05 -0.001488658250309527 0.018438439816236496
v -9.998492896556854e-05 -0.001488658250309527 0.018438439816236496
v -9.998492896556854e-05 -0.001488658250309527 0.018438439816236496
v -9.998492896556854e-05 -0.001488658250309527 0.018438439816236496
v -9.998492896556854e-05 -0.004427375737577677 0.017960889264941216
v -9.998492896556854e-05 -0.004427375737577677 0.017960889264941216
v -9.998492896556854e-05 -0.004427375737577677 0.017960889264941216
v 9.998492896556854e-05 -0.004427375737577677 0.017960889264941216
v 9.998492896556854e-05 -0.004427375737577677 0.017960889264941216
v 9.998492896556854e-05 -0.004427375737577677 0.017960889264941216
v -9.998492896556854e-05 -0.0072513544000685215 0.017018059268593788
v -9.998492896556854e-05 -0.0072513544000685215 0.017018059268593788
v -9.998492896556854e-05 -0.0072513544000685215 0.017018059268593788
v 9.998492896556854e-05 -0.0072513544000685215 0.017018059268593788
v 9.998492896556854e-05 -0.0072513544000685215 0.017018059268593788
v 9.998492896556854e-05 -0.0072513544000685215 0.017018059268593788
v -9.998492896556854e-05 -0.009887668304145336 0.015634458512067795
v -9.998492896556854e-05 -0.009887668304145336 0.015634458512067795
v -9.998492896556854e-05 -0.009887668304145336 0.015634458512067795
v 9.998492896556854e-05 -0.009887668304145336 0.015634458512067795
v 9.998492896556854e-05 -0.009887668304145336 0.015634458512067795
v 9.998492896556854e-05 -0.009887668304145336 0.015634458512067795
v -9.998492896556854e-05 -0.012267771176993847 0.013845899142324924
v -9.998492896556854e-05 -0.012267771176993847 0.013845899142324924
v -9.998492896556854e-05 -0.012267771176993847 0.013845899142324924
v 9.998492896556854e-05 -0.012267771176993847 0.013845899142324924
v 9.998492896556854e-05 -0.012267771176993847 0.013845899142324924
v 9.998492896556854e-05 -0.012267771176993847 0.013845899142324924
v -9.998492896556854e-05 -0.014330181293189526 0.01169870886951685
v -9.998492896556854e-05 -0.014330181293189526 0.01169870886951685
v -9.998492896556854e-05 -0.014330181293189526 0.01169870886951685
v 9.998492896556854e-05 -0.014330181293189526 0.01169870886951685
v 9.998492896556854e-05 -0.014330181293189526 0.01169870886951685
v 9.998492896556854e-05 -0.014330181293189526 0.01169870886951685
v -9.998492896556854e-05 -0.01602146215736866 0.009248479269444942
v -9.998492896556854e-05 -0.01602146215736866 0.009248479269444942
v -9.998492896556854e-05 -0.01602146215736866 0.009248479269444942
v 9.998492896556854e-05 -0.01602146215736866 0.009248479269444942
v 9.998492896556854e-05 -0.01602146215736866 0.009248479269444942
v 9.998492896556854e-05 -0.01602146215736866 0.009248479269444942
v -9.998492896556854e-05 -0.017297865822911263 0.006558639463037252
v -9.998492896556854e-05 -0.017297865822911263 0.006558639463037252
v -9.998492896556854e-05 -0.017297865822911263 0.006558639463037252
v 9.998492896556854e-05 -0.017297865822911263 0.006558639463037252
v 9.998492896556854e-05 -0.017297865822911263 0.006558639463037252
v -9.998492896556854e-05 -0.01812616176903248 0.0036989294458180666
v -9.998492896556854e-05 -0.01812616176903248 0.0036989294458180666
v 9.998492896556854e-05 -0.01812616176903248 0.0036989294458180666
v 9.998492896556854e-05 -0.01812616176903248 0.0036989294458180666
v 9.998492896556854e-05 -0.01812616176903248 0.0036989294458180666
v -9.998492896556854e-05 -0.018485071137547493 0.0007433698046952486
v -9.998492896556854e-05 -0.018485071137547493 0.0007433698046952486
v 9.998492896556854e-05 -0.018485071137547493 0.0007433698046952486
v 9.998492896556854e-05 -0.018485071137547493 0.0007433698046952486
v 9.998492896556854e-05 -0.018485071137547493 0.0007433698046952486
v -9.998492896556854e-05 -0.018365057185292244 -0.002231501741334796
v -9.998492896556854e-05 -0.018365057185292244 -0.002231501741334796
v 9.998492896556854e-05 -0.018365057185292244 -0.002231501741334796
v 9.998492896556854e-05 -0.018365057185292244 -0.002231501741334796
v 9.998492896556854e-05 -0.018365057185292244 -0.002231501741334796
v -9.998492896556854e-05 -0.017769576981663704 -0.005148549098521471
v -9.998492896556854e-05 -0.017769576981663704 -0.005148549098521471
v 9.998492896556854e-05 -0.017769576981663704 -0.005148549098521471
v 9.998492896556854e-05 -0.017769576981663704 -0.005148549098521471
v 9.998492896556854e-05 -0.017769576981663704 -0.005148549098521471
v -9.998492896556854e-05 -0.016713770106434822 -0.007932380773127079
v -9.998492896556854e-05 -0.016713770106434822 -0.007932380773127079
v -9.998492896556854e-05 -0.016713770106434822 -0.007932380773127079
v 9.998492896556854e-05 -0.016713770106434822 -0.007932380773127079
v 9.998492896556854e-05 -0.016713770106434822 -0.007932380773127079
v -9.998492896556854e-05 -0.015225174836814404 -0.010510762222111225
v -9.998492896556854e-05 -0.015225174836814404 -0.010510762222111225
v -9.998492896556854e-05 -0.015225174836814404 -0.010510762222111225
v 9.998492896556854e-05 -0.015225174836814404 -0.010510762222111225
v 9.998492896556854e-05 -0.015225174836814404 -0.010510762222111225
v 9.998492896556854e-05 -0.015225174836814404 -0.010510762222111225
v -9.998492896556854e-05 -0.013342264108359814 -0.012816921807825565
v -9.998492896556854e-05 -0.013342264108359814 -0.012816921807825565
v -9.998492896556854e-05 -0.013342264108359814 -0.012816921807825565
v 9.998492896556854e-05 -0.013342264108359814 -0.012816921807825565
v 9.998492896556854e-05 -0.013342264108359814 -0.012816921807825565
v 9.998492896556854e-05 -0.013342264108359814 -0.012816921807825565
v -9.998492896556854e-05 -0.011113676242530346 -0.014791210182011127
v -9.998492896556854e-05 -0.011113676242530346 -0.014791210182011127
v -9.998492896556854e-05 -0.011113676242530346 -0.014791210182011127
v 9.998492896556854e-05 -0.011113676242530346 -0.014791210182011127
v 9.998492896556854e-05 -0.011113676242530346 -0.014791210182011127
v 9.998492896556854e-05 -0.011113676242530346 -0.014791210182011127
v -9.998492896556854e-05 -0.008597376756370068 -0.016382470726966858
v -9.998492896556854e-05 -0.008597376756370068 -0.016382470726966858
v -9.998492896556854e-05 -0.008597376756370068 -0.016382470726966858
v 9.998492896556854e-05 -0.008597376756370068 -0.016382470726966858
v 9.998492896556854e-05 -0.008597376756370068 -0.016382470726966858
v 9.998492896556854e-05 -0.008597376756370068 -0.016382470726966858
v -9.998492896556854e-05 -0.005858364049345255 -0.01754947006702423
v -9.998492896556854e-05 -0.005858364049345255 -0.01754947006702423
v -9.998492896556854e-05 -0.005858364049345255 -0.01754947006702423
v 9.998492896556854e-05 -0.005858364049345255 -0.01754947006702423
v 9.998492896556854e-05 -0.005858364049345255 -0.01754947006702423
v -9.998492896556854e-05 -0.002967568812891841 -0.018261991441249847
v -9.998492896556854e-05 -0.002967568812891841 -0.018261991441249847
v -9.998492896556854e-05 -0.002967568812891841 -0.018261991441249847
v 9.998492896556854e-05 -0.002967568812891841 -0.018261991441249847
v 9.998492896556854e-05 -0.002967568812891841 -0.018261991441249847
v 9.998492896556854e-05 -0.002967568812891841 -0.018261991441249847
v -9.998492896556854e-05 2.7322730744572254e-08 -0.018501538783311844
v -9.998492896556854e-05 2.7322730744572254e-08 -0.018501538783311844
v -9.998492896556854e-05 2.7322730744572254e-08 -0.018501538783311844
v 9.998492896556854e-05 2.7322730744572254e-08 -0.018501538783311844
v 9.998492896556854e-05 2.7322730744572254e-08 -0.018501538783311844
v 9.998492896556854e-05 2.7322730744572254e-08 -0.018501538783311844
v -9.998492896556854e-05 0.002967623295262456 -0.018261991441249847
v -9.998492896556854e-05 0.002967623295262456 -0.018261991441249847
v -9.998492896556854e-05 0.002967623295262456 -0.018261991441249847
v 9.998492896556854e-05 0.002967623295262456 -0.018261991441249847
v 9.998492896556854e-05 0.002967623295262456 -0.018261991441249847
v 9.998492896556854e-05 0.002967623295262456 -0.018261991441249847
v -9.998492896556854e-05 0.005858329590409994 -0.01754947006702423
v -9.998492896556854e-05 0.005858329590409994 -0.01754947006702423
v -9.998492896556854e-05 0.005858329590409994 -0.01754947006702423
v 9.998492896556854e-05 0.005858329590409994 -0.01754947006702423
v 9.998492896556854e-05 0.005858329590409994 -0.01754947006702423
v 9.998492896556854e-05 0.005858329590409994 -0.01754947006702423
v -9.998492896556854e-05 0.008597341366112232 -0.016382470726966858
v -9.998492896556854e-05 0.008597341366112232 -0.016382470726966858
v -9.998492896556854e-05 0.008597341366112232 -0.016382470726966858
v 9.998492896556854e-05 0.008597341366112232 -0.016382470726966858
v 9.998492896556854e-05 0.008597341366112232 -0.016382470726966858
v 9.998492896556854e-05 0.008597341366112232 -0.016382470726966858
v -9.998492896556854e-05 0.011113730259239674 -0.014791210182011127
v -9.998492896556854e-05 0.011113730259239674 -0.014791210182011127
v -9.998492896556854e-05 0.011113730259239674 -0.014791210182011127
v 9.998492896556854e-05 0.011113730259239674 -0.014791210182011127
v 9.998492896556854e-05 0.011113730259239674 -0.014791210182011127
v 9.998492896556854e-05 0.011113730259239674 -0.014791210182011127
v -9.998492896556854e-05 0.013342228718101978 -0.012816921807825565
v -9.998492896556854e-05 0.013342228718101978 -0.012816921807825565
v -9.998492896556854e-05 0.013342228718101978 -0.012816921807825565
v 9.998492896556854e-05 0.013342228718101978 -0.012816921807825565
v 9.998492896556854e-05 0.013342228718101978 -0.012816921807825565
v 9.998492896556854e-05 0.013342228718101978 -0.012816921807825565
v -9.998492896556854e-05 0.015225228853523731 -0.010510762222111225
v -9.998492896556854e-05 0.015225228853523731 -0.010510762222111225
v -9.998492896556854e-05 0.015225228853523731 -0.010510762222111225
v 9.998492896556854e-05 0.015225228853523731 -0.010510762222111225
v 9.998492896556854e-05 0.015225228853523731 -0.010510762222111225
v 9.998492896556854e-05 0.015225228853523731 -0.010510762222111225
v -9.998492896556854e-05 0.0167138259857893 -0.007932380773127079
v -9.998492896556854e-05 0.0167138259857893 -0.007932380773127079
v 9.998492896556854e-05 0.0167138259857893 -0.007932380773127079
v 9.998492896556854e-05 0.0167138259857893 -0.007932380773127079
v 9.998492896556854e-05 0.0167138259857893 -0.007932380773127079
v -9.998492896556854e-05 0.017769543454051018 -0.005148549098521471
v -9.998492896556854e-05 0.017769543454051018 -0.005148549098521471
v 9.998492896556854e-05 0.017769543454051018 -0.005148549098521471
v 9.998492896556854e-05 0.017769543454051018 -0.005148549098521471
v 9.998492896556854e-05 0.017769543454051018 -0.005148549098521471
v -9.998492896556854e-05 0.01836514286696911 -0.002231501741334796
v -9.998492896556854e-05 0.01836514286696911 -0.002231501741334796
v 9.998492896556854e-05 0.01836514286696911 -0.002231501741334796
v 9.998492896556854e-05 0.01836514286696911 -0.002231501741334796
v 9.998492896556854e-05 0.01836514286696911 -0.002231501741334796
v -9.998492896556854e-05 0.018485037609934807 0.0007433698046952486
v -9.998492896556854e-05 0.018485037609934807 0.0007433698046952486
v 9.998492896556854e-05 0.018485037609934807 0.0007433698046952486
v 9.998492896556854e-05 0.018485037609934807 0.0007433698046952486
v 9.998492896556854e-05 0.018485037609934807 0.0007433698046952486
v -9.998492896556854e-05 0.018126128241419792 0.0036989294458180666
v -9.998492896556854e-05 0.018126128241419792 0.0036989294458180666
v -9.998492896556854e-05 0.018126128241419792 0.0036989294458180666
v 9.998492896556854e-05 0.018126128241419792 0.0036989294458180666
v 9.998492896556854e-05 0.018126128241419792 0.0036989294458180666
v 9.998492896556854e-05 0.018126128241419792 0.0036989294458180666
v -9.998492896556854e-05 0.017297832295298576 0.006558639463037252
v -9.998492896556854e-05 0.017297832295298576 0.006558639463037252
v -9.998492896556854e-05 0.017297832295298576 0.006558639463037252
v 9.998492896556854e-05 0.017297832295298576 0.006558639463037252
v 9.998492896556854e-05 0.017297832295298576 0.006558639463037252
v 9.998492896556854e-05 0.017297832295298576 0.006558639463037252
v -9.998492896556854e-05 0.016021428629755974 0.009248479269444942
v -9.998492896556854e-05 0.016021428629755974 0.009248479269444942
v -9.998492896556854e-05 0.016021428629755974 0.009248479269444942
v 9.998492896556854e-05 0.016021428629755974 0.009248479269444942
v 9.998492896556854e-05 0.016021428629755974 0.009248479269444942
v 9.998492896556854e-05 0.016021428629755974 0.009248479269444942
v -9.998492896556854e-05 0.014330235309898853 0.01169870886951685
v -9.998492896556854e-05 0.014330235309898853 0.01169870886951685
v -9.998492896556854e-05 0.014330235309898853 0.01169870886951685
v 9.998492896556854e-05 0.014330235309898853 0.01169870886951685
v 9.998492896556854e-05 0.014330235309898853 0.01169870886951685
v 9.998492896556854e-05 0.014330235309898853 0.01169870886951685
v -9.998492896556854e-05 0.012267735786736012 0.013845899142324924
v -9.998492896556854e-05 0.012267735786736012 0.013845899142324924
v -9.998492896556854e-05 0.012267735786736012 0.013845899142324924
v 9.998492896556854e-05 0.012267735786736012 0.013845899142324924
v 9.998492896556854e-05 0.012267735786736012 0.013845899142324924
v 9.998492896556854e-05 0.012267735786736012 0.013845899142324924
v -9.998492896556854e-05 0.0098876329138875 0.015634458512067795
v -9.998492896556854e-05 0.0098876329138875 0.015634458512067795
v -9.998492896556854e-05 0.0098876329138875 0.015634458512067795
v 9.998492896556854e-05 0.0098876329138875 0.015634458512067795
v 9.998492896556854e-05 0.0098876329138875 0.015634458512067795
v 9.998492896556854e-05 0.0098876329138875 0.015634458512067795
v -9.998492896556854e-05 0.007251319941133261 0.017018059268593788
v -9.998492896556854e-05 0.007251319941133261 0.017018059268593788
v -9.998492896556854e-05 0.007251319941133261 0.017018059268593788
v 9.998492896556854e-05 0.007251319941133261 0.017018059268593788
v 9.998492896556854e-05 0.007251319941133261 0.017018059268593788
v 9.998492896556854e-05 0.007251319941133261 0.017018059268593788
v -9.998492896556854e-05 0.004427341278642416 0.017960889264941216
v -9.998492896556854e-05 0.004427341278642416 0.017960889264941216
v -9.998492896556854e-05 0.004427341278642416 0.017960889264941216
v 9.998492896556854e-05 0.004427341278642416 0.017960889264941216
v 9.998492896556854e-05 0.004427341278642416 0.017960889264941216
v 9.998492896556854e-05 0.004427341278642416 0.017960889264941216
v 9.998492896556854e-05 0.0014886235585436225 0.018438439816236496
v 9.998492896556854e-05 0.0014886235585436225 0.018438439816236496
v 9.998492896556854e-05 0.0014886235585436225 0.018438439816236496
v -9.998492896556854e-05 2.7322730744572254e-08 -1.5709002809671802e-06
v -9.998492896556854e-05 2.7322730744572254e-08 -1.5709002809671802e-06
v -9.998492896556854e-05 2.7322730744572254e-08 -1.5709002809671802e-06
v -9.998492896556854e-05 2.7322730744572254e-08 -1.5709002809671802e-06
v -9.998492896556854e-05 2.7322730744572254e-08 -1.5709002809671802e-06
v -9.998492896556854e-05 2.7322730744572254e-08 -1.5709002809671802e-06
v -9.998492896556854e-05 2.7322730744572254e-08 -1.5709002809671802e-06
v -9.998492896556854e-05 2.7322730744572254e-08 -1.5709002809671802e-06
v -9.998492896556854e-05 2.7322730744572254e-08 -1.5709002809671802e-06
v -9.998492896556854e-05 2.7322730744572254e-08 -1.5709002809671802e-06
v -9.998492896556854e-05 2.7322730744572254e-08 -1.5709002809671802e-06
v -9.998492896556854e-05 2.7322730744572254e-08 -1.5709002809671802e-06
v -9.998492896556854e-05 2.7322730744572254e-08 -1.5709002809671802e-06
v -9.998492896556854e-05 2.7322730744572254e-08 -1.5709002809671802e-06
v -9.998492896556854e-05 2.7322730744572254e-08 -1.5709002809671802e-06
v -9.998492896556854e-05 2.7322730744572254e-08 -1.5709002809671802e-06
v -9.998492896556854e-05 2.7322730744572254e-08 -1.5709002809671802e-06
v -9.998492896556854e-05 2.7322730744572254e-08 -1.5709002809671802e-06
v -9.998492896556854e-05 2.7322730744572254e-08 -1.5709002809671802e-06
v -9.998492896556854e-05 2.7322730744572254e-08 -1.5709002809671802e-06
v -9.998492896556854e-05 2.7322730744572254e-08 -1.5709002809671802e-06
v 9.998492896556854e-05 2.7322730744572254e-08 -1.5709002809671802e-06
v 9.998492896556854e-05 2.7322730744572254e-08 -1.5709002809671802e-06
v 9.998492896556854e-05 2.7322730744572254e-08 -1.5709002809671802e-06
v 9.998492896556854e-05 2.7322730744572254e-08 -1.5709002809671802e-06
v 9.998492896556854e-05 2.7322730744572254e-08 -1.5709002809671802e-06
v 9.998492896556854e-05 2.7322730744572254e-08 -1.5709002809671802e-06
v 9.998492896556854e-05 2.7322730744572254e-08 -1.5709002809671802e-06
v 9.998492896556854e-05 2.7322730744572254e-08 -1.5709002809671802e-06
v 9.998492896556854e-05 2.7322730744572254e-08 -1.5709002809671802e-06
v 9.998492896556854e-05 2.7322730744572254e-08 -1.5709002809671802e-06
v 9.998492896556854e-05 2.7322730744572254e-08 -1.5709002809671802e-06
v 9.998492896556854e-05 2.7322730744572254e-08 -1.5709002809671802e-06
v 9.998492896556854e-05 2.7322730744572254e-08 -1.5709002809671802e-06
v 9.998492896556854e-05 2.7322730744572254e-08 -1.5709002809671802e-06
v 9.998492896556854e-05 2.7322730744572254e-08 -1.5709002809671802e-06
v 9.998492896556854e-05 2.7322730744572254e-08 -1.5709002809671802e-06
v 9.998492896556854e-05 2.7322730744572254e-08 -1.5709002809671802e-06
v 9.998492896556854e-05 2.7322730744572254e-08 -1.5709002809671802e-06
v 9.998492896556854e-05 2.7322730744572254e-08 -1.5709002809671802e-06
v 9.998492896556854e-05 2.7322730744572254e-08 -1.5709002809671802e-06
v 9.998492896556854e-05 2.7322730744572254e-08 -1.5709002809671802e-06
v 9.998492896556854e-05 2.7322730744572254e-08 -1.5709002809671802e-06
v 9.998492896556854e-05 2.7322730744572254e-08 -1.5709002809671802e-06
f 1 3 6
f 6 3 9
f 3 12 9
f 9 12 17
f 9 17 18
f 18 17 23
f 18 23 25
f 25 23 28
f 25 28 31
f 31 28 35
f 31 35 37
f 37 35 39
f 37 39 44
f 44 39 47
f 44 47 49
f 49 47 51
f 49 51 55
f 55 51 56
f 55 56 58
f 58 56 62
f 58 62 64
f 64 62 66
f 64 66 69
f 69 66 72
f 69 72 75
f 75 72 78
f 75 78 79
f 79 78 83
f 79 83 84
f 84 83 87
f 84 87 91
f 91 87 94
f 91 94 98
f 98 94 101
f 98 101 104
f 104 101 106
f 104 106 108
f 108 106 112
f 108 112 115
f 115 112 118
f 115 118 119
f 119 118 122
f 119 122 126
f 126 122 130
f 126 130 132
f 132 130 135
f 132 135 137
f 137 135 142
f 137 142 144
f 144 142 147
f 144 147 149
f 149 147 154
f 149 154 156
f 156 154 158
f 156 158 160
f 160 158 164
f 160 164 166
f 166 164 169
f 166 169 170
f 170 169 174
f 170 174 176
f 176 174 179
f 176 179 181
f 181 179 184
f 181 184 187
f 187 184 192
f 187 192 193
f 193 192 197
f 193 197 200
f 200 197 204
f 200 204 207
f 207 204 210
f 207 210 213
f 213 210 216
f 213 216 218
f 218 216 220
f 218 220 225
f 225 220 1
f 225 1 227
f 227 1 6
f 5 2 229
f 22 15 229
f 230 16 14
f 249 13 4
f 41 33 229
f 248 34 27
f 247 29 21
f 57 53 229
f 246 52 45
f 245 46 40
f 71 67 229
f 229 67 61
f 229 61 57
f 89 82 229
f 244 81 77
f 229 76 71
f 107 99 229
f 243 100 93
f 239 95 88
f 123 117 229
f 235 116 111
f 241 110 105
f 141 136 242
f 231 134 128
f 232 129 124
f 159 153 229
f 233 152 148
f 234 146 140
f 173 168 229
f 229 168 163
f 229 163 159
f 191 186 236
f 237 185 180
f 229 178 173
f 208 202 229
f 231 203 196
f 238 198 190
f 2 221 229
f 240 222 214
f 234 215 209
f 7 10 261
f 217 223 261
f 262 224 226
f 264 228 8
f 199 206 261
f 265 205 211
f 267 212 219
f 182 189 261
f 268 188 195
f 269 194 201
f 165 172 270
f 261 171 175
f 257 177 183
f 151 157 261
f 255 155 161
f 261 162 167
f 133 138 261
f 266 139 143
f 263 145 150
f 114 120 261
f 260 121 127
f 259 125 131
f 96 102 261
f 258 103 109
f 258 109 113
f 80 85 261
f 255 86 92
f 256 90 97
f 63 68 266
f 271 70 73
f 261 74 80
f 48 54 261
f 261 54 59
f 252 60 65
f 30 36 254
f 261 38 42
f 250 43 50
f 11 20 251
f 253 19 24
f 272 26 32
