mtllib converted_link2_30_242424ff.mtl
usemtl material
v -0.00010001473128795624 0.00967119075357914 0.03772645443677902
v -0.00010001473128795624 0.00967119075357914 0.03772645443677902
v -0.00010001473128795624 0.00967119075357914 0.03772645443677902
v -0.00010001473128795624 0.00966969970613718 0.03787152096629143
v -0.00010001473128795624 0.00966969970613718 0.03787152096629143
v -0.00010001473128795624 0.00966969970613718 0.03787152096629143
v 0.00010001473128795624 0.00967119075357914 0.03772645443677902
v 0.00010001473128795624 0.00967119075357914 0.03772645443677902
v 0.00010001473128795624 0.00966969970613718 0.03787152096629143
v 0.00010001473128795624 0.00966969970613718 0.03787152096629143
v 0.00010001473128795624 0.00973893515765667 0.04969008266925812
v 0.00010001473128795624 0.00973893515765667 0.04969008266925812
v -0.00010001473128795624 0.00973893515765667 0.04969008266925812
v -0.00010001473128795624 0.00973893515765667 0.04969008266925812
v -0.00010001473128795624 0.00973893515765667 0.04969008266925812
v -0.00010001473128795624 0.00973893515765667 0.04969008266925812
v -0.00010001473128795624 0.009413003921508789 0.05139803886413574
v -0.00010001473128795624 0.009413003921508789 0.05139803886413574
v -0.00010001473128795624 0.009413003921508789 0.05139803886413574
v 0.00010001473128795624 0.009413003921508789 0.05139803886413574
v 0.00010001473128795624 0.009413003921508789 0.05139803886413574
v -0.00010001473128795624 0.008463900536298752 0.052854977548122406
v -0.00010001473128795624 0.008463900536298752 0.052854977548122406
v 0.00010001473128795624 0.008463900536298752 0.052854977548122406
v 0.00010001473128795624 0.008463900536298752 0.052854977548122406
v -0.00010001473128795624 0.00703334528952837 0.05384322628378868
v -0.00010001473128795624 0.00703334528952837 0.05384322628378868
v -0.00010001473128795624 0.00703334528952837 0.05384322628378868
v -0.00010001473128795624 0.00703334528952837 0.05384322628378868
v 0.00010001473128795624 0.00703334528952837 0.05384322628378868
v 0.00010001473128795624 0.00703334528952837 0.05384322628378868
v 0.00010001473128795624 -0.006096834782510996 0.05955226346850395
v 0.00010001473128795624 -0.006096834782510996 0.05955226346850395
v -0.00010001473128795624 -0.006096834782510996 0.05955226346850395
v -0.00010001473128795624 -0.006096834782510996 0.05955226346850395
v -0.00010001473128795624 -0.006096834782510996 0.05955226346850395
v -0.00010001473128795624 -0.006096834782510996 0.05955226346850395
v -0.00010001473128795624 -0.007061370648443699 0.05971105024218559
v -0.00010001473128795624 -0.007061370648443699 0.05971105024218559
v -0.00010001473128795624 -0.007061370648443699 0.05971105024218559
v -0.00010001473128795624 -0.007061370648443699 0.05971105024218559
v 0.00010001473128795624 -0.007061370648443699 0.05971105024218559
v 0.00010001473128795624 -0.007061370648443699 0.05971105024218559
v 0.00010001473128795624 -0.007061370648443699 0.05971105024218559
v 0.00010001473128795624 -0.007061370648443699 0.05971105024218559
v -0.00010001473128795624 -0.007985986769199371 0.05939381942152977
v -0.00010001473128795624 -0.007985986769199371 0.05939381942152977
v -0.00010001473128795624 -0.007985986769199371 0.05939381942152977
v -0.00010001473128795624 -0.007985986769199371 0.05939381942152977
v 0.00010001473128795624 -0.007985986769199371 0.05939381942152977
v 0.00010001473128795624 -0.007985986769199371 0.05939381942152977
v 0.00010001473128795624 -0.007985986769199371 0.05939381942152977
v -0.00010001473128795624 -0.008649807423353195 0.05867626890540123
v -0.00010001473128795624 -0.008649807423353195 0.05867626890540123
v -0.00010001473128795624 -0.008649807423353195 0.05867626890540123
v -0.00010001473128795624 -0.008649807423353195 0.05867626890540123
v 0.00010001473128795624 -0.008649807423353195 0.05867626890540123
v 0.00010001473128795624 -0.008649807423353195 0.05867626890540123
v 0.00010001473128795624 -0.008649807423353195 0.05867626890540123
v -0.00010001473128795624 -0.00889426190406084 0.05772975832223892
v -0.00010001473128795624 -0.00889426190406084 0.05772975832223892
v -0.00010001473128795624 -0.00889426190406084 0.05772975832223892
v 0.00010001473128795624 -0.00889426190406084 0.05772975832223892
v 0.00010001473128795624 -0.00889426190406084 0.05772975832223892
v 0.00010001473128795624 -0.009549953043460846 -0.05413943529129028
v 0.00010001473128795624 -0.009549953043460846 -0.05413943529129028
v 0.00010001473128795624 -0.009549953043460846 -0.05413943529129028
v -0.00010001473128795624 -0.009549953043460846 -0.05413943529129028
v -0.00010001473128795624 -0.009549953043460846 -0.05413943529129028
v -0.00010001473128795624 -0.009549953043460846 -0.05413943529129028
v -0.00010001473128795624 -0.00936529878526926 -0.05509724095463753
v -0.00010001473128795624 -0.00936529878526926 -0.05509724095463753
v -0.00010001473128795624 -0.00936529878526926 -0.05509724095463753
v 0.00010001473128795624 -0.00936529878526926 -0.05509724095463753
v 0.00010001473128795624 -0.00936529878526926 -0.05509724095463753
v 0.00010001473128795624 -0.00936529878526926 -0.05509724095463753
v -0.00010001473128795624 -0.008828100748360157 -0.055911462754011154
v -0.00010001473128795624 -0.008828100748360157 -0.055911462754011154
v -0.00010001473128795624 -0.008828100748360157 -0.055911462754011154
v 0.00010001473128795624 -0.008828100748360157 -0.055911462754011154
v 0.00010001473128795624 -0.008828100748360157 -0.055911462754011154
v -0.00010001473128795624 -0.008020240813493729 -0.05645817145705223
v -0.00010001473128795624 -0.008020240813493729 -0.05645817145705223
v -0.00010001473128795624 -0.008020240813493729 -0.05645817145705223
v -0.00010001473128795624 -0.008020240813493729 -0.05645817145705223
v 0.00010001473128795624 -0.008020240813493729 -0.05645817145705223
v 0.00010001473128795624 -0.008020240813493729 -0.05645817145705223
v 0.00010001473128795624 -0.008020240813493729 -0.05645817145705223
v -0.00010001473128795624 -0.007064638659358025 -0.05665404722094536
v -0.00010001473128795624 -0.007064638659358025 -0.05665404722094536
v -0.00010001473128795624 -0.007064638659358025 -0.05665404722094536
v 0.00010001473128795624 -0.007064638659358025 -0.05665404722094536
v 0.00010001473128795624 -0.007064638659358025 -0.05665404722094536
v 0.00010001473128795624 0.006615071557462215 -0.056734222918748856
v 0.00010001473128795624 0.006615071557462215 -0.056734222918748856
v 0.00010001473128795624 0.006615071557462215 -0.056734222918748856
v -0.00010001473128795624 0.006615071557462215 -0.056734222918748856
v -0.00010001473128795624 0.006615071557462215 -0.056734222918748856
v -0.00010001473128795624 0.006615071557462215 -0.056734222918748856
v -0.00010001473128795624 0.006615071557462215 -0.056734222918748856
v -0.00010001473128795624 0.007572868373245001 -0.0565495640039444
v -0.00010001473128795624 0.007572868373245001 -0.0565495640039444
v -0.00010001473128795624 0.007572868373245001 -0.0565495640039444
v 0.00010001473128795624 0.007572868373245001 -0.0565495640039444
v 0.00010001473128795624 0.007572868373245001 -0.0565495640039444
v 0.00010001473128795624 0.007572868373245001 -0.0565495640039444
v -0.00010001473128795624 0.00838709156960249 -0.05601236969232559
v -0.00010001473128795624 0.00838709156960249 -0.05601236969232559
v -0.00010001473128795624 0.00838709156960249 -0.05601236969232559
v 0.00010001473128795624 0.00838709156960249 -0.05601236969232559
v 0.00010001473128795624 0.00838709156960249 -0.05601236969232559
v 0.00010001473128795624 0.00838709156960249 -0.05601236969232559
v -0.00010001473128795624 0.00893374253064394 -0.055204518139362335
v -0.00010001473128795624 0.00893374253064394 -0.055204518139362335
v -0.00010001473128795624 0.00893374253064394 -0.055204518139362335
v 0.00010001473128795624 0.00893374253064394 -0.055204518139362335
v 0.00010001473128795624 0.00893374253064394 -0.055204518139362335
v -0.00010001473128795624 0.009129680693149567 -0.05424896255135536
v -0.00010001473128795624 0.009129680693149567 -0.05424896255135536
v -0.00010001473128795624 0.009129680693149567 -0.05424896255135536
v 0.00010001473128795624 0.009129680693149567 -0.05424896255135536
v 0.00010001473128795624 0.009129680693149567 -0.05424896255135536
v 0.00010001473128795624 0.009129680693149567 -0.05424896255135536
v 0.00010001473128795624 0.009129680693149567 -0.05424896255135536
v 0.00010001473128795624 0.009189295582473278 -0.044071074575185776
v 0.00010001473128795624 0.009189295582473278 -0.044071074575185776
v 0.00010001473128795624 0.009189295582473278 -0.044071074575185776
v 0.00010001473128795624 0.009189295582473278 -0.044071074575185776
v -0.00010001473128795624 0.009189295582473278 -0.044071074575185776
v -0.00010001473128795624 0.009189295582473278 -0.044071074575185776
v -0.00010001473128795624 0.009189295582473278 -0.044071074575185776
v -0.00010001473128795624 0.009189295582473278 -0.044071074575185776
v -0.00010001473128795624 0.009189295582473278 -0.044071074575185776
v -0.00010001473128795624 0.00919223204255104 -0.043974366039037704
v -0.00010001473128795624 0.00919223204255104 -0.043974366039037704
v -0.00010001473128795624 0.00919223204255104 -0.043974366039037704
v 0.00010001473128795624 0.00919223204255104 -0.043974366039037704
v 0.00010001473128795624 0.00919223204255104 -0.043974366039037704
v 0.00010001473128795624 0.00919223204255104 -0.043974366039037704
f 1 4 8
f 8 4 9
f 12 9 13
f 13 9 4
f 12 13 19
f 12 19 21
f 21 19 22
f 21 22 24
f 24 22 28
f 24 28 30
f 32 30 34
f 34 30 28
f 32 34 41
f 32 41 42
f 44 40 48
f 45 46 52
f 51 49 55
f 51 55 58
f 59 56 62
f 59 62 64
f 67 64 68
f 68 64 62
f 67 68 73
f 67 73 76
f 75 71 78
f 75 78 81
f 81 78 85
f 81 85 87
f 88 82 91
f 88 91 92
f 95 92 99
f 99 92 91
f 95 99 101
f 95 101 106
f 104 103 109
f 104 109 110
f 110 109 113
f 110 113 117
f 117 113 119
f 117 119 121
f 127 121 131
f 131 121 119
f 131 135 127
f 127 135 139
f 8 139 1
f 1 139 135
f 80 86 93
f 112 116 124
f 74 80 126
f 80 93 126
f 126 93 96
f 128 94 122
f 123 96 105
f 123 105 111
f 74 126 65
f 66 125 137
f 65 138 63
f 20 25 11
f 11 25 31
f 11 31 10
f 10 31 63
f 10 63 7
f 7 63 138
f 50 57 43
f 43 57 63
f 43 63 33
f 33 63 31
f 60 5 2
f 120 97 132
f 132 97 90
f 23 18 29
f 27 17 15
f 26 16 35
f 61 3 69
f 69 3 136
f 70 134 133
f 118 115 98
f 100 114 107
f 97 108 102
f 72 69 77
f 77 69 132
f 79 130 83
f 84 129 89
f 47 39 53
f 54 38 36
f 53 37 61
f 61 37 14
f 61 14 6
