mtllib converted_link2_23_d12626ff.mtl
usemtl material
v -0.0008425232372246683 -0.00016498933837283403 5.0010159611701965e-05
v -0.0008425232372246683 -0.00016498933837283403 5.0010159611701965e-05
v -0.0008425232372246683 -0.00016498933837283403 5.0010159611701965e-05
v -0.0008425232372246683 -0.00016498933837283403 5.0010159611701965e-05
v -0.0008425232372246683 -0.00016498933837283403 -5.0010159611701965e-05
v -0.0008425232372246683 -0.00016498933837283403 -5.0010159611701965e-05
v -0.0008425232372246683 -0.00016498933837283403 -5.0010159611701965e-05
v -0.0008205216727219522 -0.0002923691354226321 -5.0010159611701965e-05
v -0.0008205216727219522 -0.0002923691354226321 -5.0010159611701965e-05
v -0.0008205216727219522 -0.0002923691354226321 5.0010159611701965e-05
v -0.0008205216727219522 -0.0002923691354226321 5.0010159611701965e-05
v -0.0007818159065209329 -0.00041264944593422115 -5.0010159611701965e-05
v -0.0007818159065209329 -0.00041264944593422115 -5.0010159611701965e-05
v -0.0007818159065209329 -0.00041264944593422115 5.0010159611701965e-05
v -0.0007818159065209329 -0.00041264944593422115 5.0010159611701965e-05
v -0.0007818159065209329 -0.00041264944593422115 5.0010159611701965e-05
v -0.0007267188630066812 -0.0005264989449642599 -5.0010159611701965e-05
v -0.0007267188630066812 -0.0005264989449642599 -5.0010159611701965e-05
v -0.0007267188630066812 -0.0005264989449642599 -5.0010159611701965e-05
v -0.0007267188630066812 -0.0005264989449642599 5.0010159611701965e-05
v -0.0007267188630066812 -0.0005264989449642599 5.0010159611701965e-05
v -0.0007267188630066812 -0.0005264989449642599 5.0010159611701965e-05
v -0.0007267188630066812 -0.0005264989449642599 5.0010159611701965e-05
v -0.000656020303722471 -0.0006321789114736021 -5.0010159611701965e-05
v -0.000656020303722471 -0.0006321789114736021 -5.0010159611701965e-05
v -0.000656020303722471 -0.0006321789114736021 -5.0010159611701965e-05
v -0.000656020303722471 -0.0006321789114736021 -5.0010159611701965e-05
v -0.000656020303722471 -0.0006321789114736021 -5.0010159611701965e-05
v -0.000656020303722471 -0.0006321789114736021 5.0010159611701965e-05
v -0.000656020303722471 -0.0006321789114736021 5.0010159611701965e-05
v -0.000656020303722471 -0.0006321789114736021 5.0010159611701965e-05
v -0.0005704205832444131 -0.0007277791737578809 -5.0010159611701965e-05
v -0.0005704205832444131 -0.0007277791737578809 -5.0010159611701965e-05
v -0.0005704205832444131 -0.0007277791737578809 -5.0010159611701965e-05
v -0.0005704205832444131 -0.0007277791737578809 -5.0010159611701965e-05
v -0.0005704205832444131 -0.0007277791737578809 5.0010159611701965e-05
v -0.0005704205832444131 -0.0007277791737578809 5.0010159611701965e-05
v -0.0005704205832444131 -0.0007277791737578809 5.0010159611701965e-05
v -0.0005704205832444131 -0.0007277791737578809 5.0010159611701965e-05
v -0.0004711192159447819 -0.0008114687516354024 -5.0010159611701965e-05
v -0.0004711192159447819 -0.0008114687516354024 -5.0010159611701965e-05
v -0.0004711192159447819 -0.0008114687516354024 5.0010159611701965e-05
v -0.0004711192159447819 -0.0008114687516354024 5.0010159611701965e-05
v -0.0004711192159447819 -0.0008114687516354024 5.0010159611701965e-05
v -0.0004711192159447819 -0.0008114687516354024 5.0010159611701965e-05
v -0.0003607165126595646 -0.0008804294629953802 -5.0010159611701965e-05
v -0.0003607165126595646 -0.0008804294629953802 -5.0010159611701965e-05
v -0.0003607165126595646 -0.0008804294629953802 -5.0010159611701965e-05
v -0.0003607165126595646 -0.0008804294629953802 -5.0010159611701965e-05
v -0.0003607165126595646 -0.0008804294629953802 5.0010159611701965e-05
v -0.0003607165126595646 -0.0008804294629953802 5.0010159611701965e-05
v -0.0003607165126595646 -0.0008804294629953802 5.0010159611701965e-05
v -0.00024152213882189244 -0.0009331190376542509 -5.0010159611701965e-05
v -0.00024152213882189244 -0.0009331190376542509 -5.0010159611701965e-05
v -0.00024152213882189244 -0.0009331190376542509 -5.0010159611701965e-05
v -0.00024152213882189244 -0.0009331190376542509 -5.0010159611701965e-05
v -0.00024152213882189244 -0.0009331190376542509 5.0010159611701965e-05
v -0.00024152213882189244 -0.0009331190376542509 5.0010159611701965e-05
v -0.00024152213882189244 -0.0009331190376542509 5.0010159611701965e-05
v -0.000115815935714636 -0.0009682289673946798 -5.0010159611701965e-05
v -0.000115815935714636 -0.0009682289673946798 -5.0010159611701965e-05
v -0.000115815935714636 -0.0009682289673946798 -5.0010159611701965e-05
v -0.000115815935714636 -0.0009682289673946798 -5.0010159611701965e-05
v -0.000115815935714636 -0.0009682289673946798 5.0010159611701965e-05
v -0.000115815935714636 -0.0009682289673946798 5.0010159611701965e-05
v -0.000115815935714636 -0.0009682289673946798 5.0010159611701965e-05
v -0.000115815935714636 -0.0009682289673946798 5.0010159611701965e-05
v 1.38837704071193e-05 -0.0009849788621068 -5.0010159611701965e-05
v 1.38837704071193e-05 -0.0009849788621068 -5.0010159611701965e-05
v 1.38837704071193e-05 -0.0009849788621068 -5.0010159611701965e-05
v 1.38837704071193e-05 -0.0009849788621068 -5.0010159611701965e-05
v 1.38837704071193e-05 -0.0009849788621068 5.0010159611701965e-05
v 1.38837704071193e-05 -0.0009849788621068 5.0010159611701965e-05
v 1.38837704071193e-05 -0.0009849788621068 5.0010159611701965e-05
v 0.0001360807364108041 -0.000983729027211666 -5.0010159611701965e-05
v 0.0001360807364108041 -0.000983729027211666 -5.0010159611701965e-05
v 0.0001360807364108041 -0.000983729027211666 -5.0010159611701965e-05
v 0.0001360807364108041 -0.000983729027211666 -5.0010159611701965e-05
v 0.0001360807364108041 -0.000983729027211666 5.0010159611701965e-05
v 0.0001360807364108041 -0.000983729027211666 5.0010159611701965e-05
v 0.0001360807364108041 -0.000983729027211666 5.0010159611701965e-05
v 0.0001360807364108041 -0.000983729027211666 5.0010159611701965e-05
v 0.000158782655489631 -0.000981699675321579 -5.0010159611701965e-05
v 0.000158782655489631 -0.000981699675321579 -5.0010159611701965e-05
v 0.000158782655489631 -0.000981699675321579 -5.0010159611701965e-05
v 0.000158782655489631 -0.000981699675321579 5.0010159611701965e-05
v 0.000158782655489631 -0.000981699675321579 5.0010159611701965e-05
v 0.000158782655489631 -0.000981699675321579 5.0010159611701965e-05
v 0.00028618014766834676 -0.0009596989839337766 -5.0010159611701965e-05
v 0.00028618014766834676 -0.0009596989839337766 -5.0010159611701965e-05
v 0.00028618014766834676 -0.0009596989839337766 -5.0010159611701965e-05
v 0.00028618014766834676 -0.0009596989839337766 5.0010159611701965e-05
v 0.00028618014766834676 -0.0009596989839337766 5.0010159611701965e-05
v 0.0004064772219862789 -0.0009210192947648466 -5.0010159611701965e-05
v 0.0004064772219862789 -0.0009210192947648466 -5.0010159611701965e-05
v 0.0004064772219862789 -0.0009210192947648466 -5.0010159611701965e-05
v 0.0004064772219862789 -0.0009210192947648466 -5.0010159611701965e-05
v 0.0004064772219862789 -0.0009210192947648466 5.0010159611701965e-05
v 0.0004064772219862789 -0.0009210192947648466 5.0010159611701965e-05
v 0.0004064772219862789 -0.0009210192947648466 5.0010159611701965e-05
v 0.0004064772219862789 -0.0009210192947648466 5.0010159611701965e-05
v 0.000520277360919863 -0.0008660088642500341 -5.0010159611701965e-05
v 0.000520277360919863 -0.0008660088642500341 -5.0010159611701965e-05
v 0.000520277360919863 -0.0008660088642500341 -5.0010159611701965e-05
v 0.000520277360919863 -0.0008660088642500341 5.0010159611701965e-05
v 0.000520277360919863 -0.0008660088642500341 5.0010159611701965e-05
v 0.000520277360919863 -0.0008660088642500341 5.0010159611701965e-05
v 0.000520277360919863 -0.0008660088642500341 5.0010159611701965e-05
v 0.0006259787478484213 -0.0007951892330311239 -5.0010159611701965e-05
v 0.0006259787478484213 -0.0007951892330311239 -5.0010159611701965e-05
v 0.0006259787478484213 -0.0007951892330311239 -5.0010159611701965e-05
v 0.0006259787478484213 -0.0007951892330311239 5.0010159611701965e-05
v 0.0006259787478484213 -0.0007951892330311239 5.0010159611701965e-05
v 0.0006259787478484213 -0.0007951892330311239 5.0010159611701965e-05
v 0.0006259787478484213 -0.0007951892330311239 5.0010159611701965e-05
v 0.000721577147487551 -0.0007097189663909376 -5.0010159611701965e-05
v 0.000721577147487551 -0.0007097189663909376 -5.0010159611701965e-05
v 0.000721577147487551 -0.0007097189663909376 -5.0010159611701965e-05
v 0.000721577147487551 -0.0007097189663909376 -5.0010159611701965e-05
v 0.000721577147487551 -0.0007097189663909376 5.0010159611701965e-05
v 0.000721577147487551 -0.0007097189663909376 5.0010159611701965e-05
v 0.000721577147487551 -0.0007097189663909376 5.0010159611701965e-05
v 0.0008052769699133933 -0.000610358954872936 -5.0010159611701965e-05
v 0.0008052769699133933 -0.000610358954872936 -5.0010159611701965e-05
v 0.0008052769699133933 -0.000610358954872936 -5.0010159611701965e-05
v 0.0008052769699133933 -0.000610358954872936 5.0010159611701965e-05
v 0.0008052769699133933 -0.000610358954872936 5.0010159611701965e-05
v 0.0008052769699133933 -0.000610358954872936 5.0010159611701965e-05
v 0.0008742767968215048 -0.0005000288947485387 -5.0010159611701965e-05
v 0.0008742767968215048 -0.0005000288947485387 -5.0010159611701965e-05
v 0.0008742767968215048 -0.0005000288947485387 -5.0010159611701965e-05
v 0.0008742767968215048 -0.0005000288947485387 5.0010159611701965e-05
v 0.0008742767968215048 -0.0005000288947485387 5.0010159611701965e-05
v 0.0008742767968215048 -0.0005000288947485387 5.0010159611701965e-05
v 0.000926982203964144 -0.00038075909833423793 -5.0010159611701965e-05
v 0.000926982203964144 -0.00038075909833423793 -5.0010159611701965e-05
v 0.000926982203964144 -0.00038075909833423793 -5.0010159611701965e-05
v 0.000926982203964144 -0.00038075909833423793 -5.0010159611701965e-05
v 0.000926982203964144 -0.00038075909833423793 5.0010159611701965e-05
v 0.000926982203964144 -0.00038075909833423793 5.0010159611701965e-05
v 0.0009620818891562521 -0.0002550594217609614 -5.0010159611701965e-05
v 0.0009620818891562521 -0.0002550594217609614 -5.0010159611701965e-05
v 0.0009620818891562521 -0.0002550594217609614 -5.0010159611701965e-05
v 0.0009620818891562521 -0.0002550594217609614 5.0010159611701965e-05
v 0.0009620818891562521 -0.0002550594217609614 5.0010159611701965e-05
v 0.0009787786984816194 -0.00012535876885522157 -5.0010159611701965e-05
v 0.0009787786984816194 -0.00012535876885522157 -5.0010159611701965e-05
v 0.0009787786984816194 -0.00012535876885522157 -5.0010159611701965e-05
v 0.0009787786984816194 -0.00012535876885522157 -5.0010159611701965e-05
v 0.0009787786984816194 -0.00012535876885522157 5.0010159611701965e-05
v 0.0009787786984816194 -0.00012535876885522157 5.0010159611701965e-05
v 0.0009775791550055146 -3.109649696853012e-06 -5.0010159611701965e-05
v 0.0009775791550055146 -3.109649696853012e-06 -5.0010159611701965e-05
v 0.0009775791550055146 -3.109649696853012e-06 -5.0010159611701965e-05
v 0.0009775791550055146 -3.109649696853012e-06 5.0010159611701965e-05
v 0.0009775791550055146 -3.109649696853012e-06 5.0010159611701965e-05
v 0.0009775791550055146 -3.109649696853012e-06 5.0010159611701965e-05
v 0.0009754780330695212 1.954104664037004e-05 -5.0010159611701965e-05
v 0.0009754780330695212 1.954104664037004e-05 -5.0010159611701965e-05
v 0.0009754780330695212 1.954104664037004e-05 -5.0010159611701965e-05
v 0.0009754780330695212 1.954104664037004e-05 5.0010159611701965e-05
v 0.0009754780330695212 1.954104664037004e-05 5.0010159611701965e-05
v 0.0009754780330695212 1.954104664037004e-05 5.0010159611701965e-05
v 0.0009754780330695212 1.954104664037004e-05 5.0010159611701965e-05
v 0.0009535807766951621 0.0001466805551899597 -5.0010159611701965e-05
v 0.0009535807766951621 0.0001466805551899597 -5.0010159611701965e-05
v 0.0009535807766951621 0.0001466805551899597 5.0010159611701965e-05
v 0.0009535807766951621 0.0001466805551899597 5.0010159611701965e-05
v 0.0009535807766951621 0.0001466805551899597 5.0010159611701965e-05
v 0.0009145769872702658 0.0002674404822755605 -5.0010159611701965e-05
v 0.0009145769872702658 0.0002674404822755605 -5.0010159611701965e-05
v 0.0009145769872702658 0.0002674404822755605 5.0010159611701965e-05
v 0.0009145769872702658 0.0002674404822755605 5.0010159611701965e-05
v 0.0009145769872702658 0.0002674404822755605 5.0010159611701965e-05
v 0.0008590776124037802 0.0003820611455012113 -5.0010159611701965e-05
v 0.0008590776124037802 0.0003820611455012113 -5.0010159611701965e-05
v 0.0008590776124037802 0.0003820611455012113 5.0010159611701965e-05
v 0.0008590776124037802 0.0003820611455012113 5.0010159611701965e-05
v 0.0008590776124037802 0.0003820611455012113 5.0010159611701965e-05
v 0.0008590776124037802 0.0003820611455012113 5.0010159611701965e-05
v 0.0007875818409956992 0.0004884508089162409 -5.0010159611701965e-05
v 0.0007875818409956992 0.0004884508089162409 -5.0010159611701965e-05
v 0.0007875818409956992 0.0004884508089162409 5.0010159611701965e-05
v 0.0007875818409956992 0.0004884508089162409 5.0010159611701965e-05
v 0.0007875818409956992 0.0004884508089162409 5.0010159611701965e-05
v 0.0007875818409956992 0.0004884508089162409 5.0010159611701965e-05
v 0.0007008794345892966 0.000584891124162823 -5.0010159611701965e-05
v 0.0007008794345892966 0.000584891124162823 -5.0010159611701965e-05
v 0.0007008794345892966 0.000584891124162823 -5.0010159611701965e-05
v 0.0007008794345892966 0.000584891124162823 5.0010159611701965e-05
v 0.0007008794345892966 0.000584891124162823 5.0010159611701965e-05
v 0.0007008794345892966 0.000584891124162823 5.0010159611701965e-05
v 0.0007008794345892966 0.000584891124162823 5.0010159611701965e-05
v 0.0006011832156218588 0.0006682808161713183 -5.0010159611701965e-05
v 0.0006011832156218588 0.0006682808161713183 -5.0010159611701965e-05
v 0.0006011832156218588 0.0006682808161713183 5.0010159611701965e-05
v 0.0006011832156218588 0.0006682808161713183 5.0010159611701965e-05
v 0.0006011832156218588 0.0006682808161713183 5.0010159611701965e-05
v 0.0006011832156218588 0.0006682808161713183 5.0010159611701965e-05
v 0.0004903781809844077 0.0007367609650827944 -5.0010159611701965e-05
v 0.0004903781809844077 0.0007367609650827944 -5.0010159611701965e-05
v 0.0004903781809844077 0.0007367609650827944 -5.0010159611701965e-05
v 0.0004903781809844077 0.0007367609650827944 5.0010159611701965e-05
v 0.0004903781809844077 0.0007367609650827944 5.0010159611701965e-05
v 0.0004903781809844077 0.0007367609650827944 5.0010159611701965e-05
v 0.0003706771822180599 0.0007889206171967089 -5.0010159611701965e-05
v 0.0003706771822180599 0.0007889206171967089 -5.0010159611701965e-05
v 0.0003706771822180599 0.0007889206171967089 -5.0010159611701965e-05
v 0.0003706771822180599 0.0007889206171967089 -5.0010159611701965e-05
v 0.0003706771822180599 0.0007889206171967089 5.0010159611701965e-05
v 0.0003706771822180599 0.0007889206171967089 5.0010159611701965e-05
v 0.0003706771822180599 0.0007889206171967089 5.0010159611701965e-05
v 0.00023947989393491298 0.0008243807242251933 -5.0010159611701965e-05
v 0.00023947989393491298 0.0008243807242251933 -5.0010159611701965e-05
v 0.00023947989393491298 0.0008243807242251933 -5.0010159611701965e-05
v 0.00023947989393491298 0.0008243807242251933 -5.0010159611701965e-05
v 0.00023947989393491298 0.0008243807242251933 -5.0010159611701965e-05
v 0.00023947989393491298 0.0008243807242251933 -5.0010159611701965e-05
v 0.00023947989393491298 0.0008243807242251933 5.0010159611701965e-05
v 0.00023947989393491298 0.0008243807242251933 5.0010159611701965e-05
v 0.00023947989393491298 0.0008243807242251933 5.0010159611701965e-05
v 0.00023947989393491298 0.0008243807242251933 5.0010159611701965e-05
v -0.0009664189419709146 0.0010570809245109558 5.0010159611701965e-05
v -0.0009664189419709146 0.0010570809245109558 5.0010159611701965e-05
v -0.0009664189419709146 0.0010570809245109558 5.0010159611701965e-05
v -0.0009664189419709146 0.0010570809245109558 5.0010159611701965e-05
v -0.0009664189419709146 0.0010570809245109558 5.0010159611701965e-05
v -0.0009664189419709146 0.0010570809245109558 5.0010159611701965e-05
v -0.0009664189419709146 0.0010570809245109558 5.0010159611701965e-05
v -0.0009664189419709146 0.0010570809245109558 -5.0010159611701965e-05
v -0.0009664189419709146 0.0010570809245109558 -5.0010159611701965e-05
v -0.0009664189419709146 0.0010570809245109558 -5.0010159611701965e-05
v -0.0009664189419709146 0.0010570809245109558 -5.0010159611701965e-05
v -0.0009664189419709146 0.0010570809245109558 -5.0010159611701965e-05
v -0.0009664189419709146 0.0010570809245109558 -5.0010159611701965e-05
v -0.0009664189419709146 0.0010570809245109558 -5.0010159611701965e-05
v -0.0009664189419709146 0.0010570809245109558 -5.0010159611701965e-05
v -0.0009664189419709146 0.0010570809245109558 -5.0010159611701965e-05
v -0.0009664189419709146 0.0010570809245109558 -5.0010159611701965e-05
v -0.0005546179017983377 -1.8489510694053024e-05 5.0010159611701965e-05
v -0.0005546179017983377 -1.8489510694053024e-05 5.0010159611701965e-05
v -0.0005546179017983377 -1.8489510694053024e-05 5.0010159611701965e-05
v -0.0005546179017983377 -1.8489510694053024e-05 5.0010159611701965e-05
v -0.0005546179017983377 -1.8489510694053024e-05 -5.0010159611701965e-05
v -0.0005546179017983377 -1.8489510694053024e-05 -5.0010159611701965e-05
v -0.0005364161334000528 8.648078801343217e-05 -5.0010159611701965e-05
v -0.0005364161334000528 8.648078801343217e-05 -5.0010159611701965e-05
v -0.0005364161334000528 8.648078801343217e-05 -5.0010159611701965e-05
v -0.0005364161334000528 8.648078801343217e-05 -5.0010159611701965e-05
v -0.0005364161334000528 8.648078801343217e-05 5.0010159611701965e-05
v -0.0005364161334000528 8.648078801343217e-05 5.0010159611701965e-05
v -0.0005364161334000528 8.648078801343217e-05 5.0010159611701965e-05
v -0.0005017187795601785 0.0001842910860432312 -5.0010159611701965e-05
v -0.0005017187795601785 0.0001842910860432312 -5.0010159611701965e-05
v -0.0005017187795601785 0.0001842910860432312 -5.0010159611701965e-05
v -0.0005017187795601785 0.0001842910860432312 5.0010159611701965e-05
v -0.0005017187795601785 0.0001842910860432312 5.0010159611701965e-05
v -0.0005017187795601785 0.0001842910860432312 5.0010159611701965e-05
v -0.0004509206919465214 0.00027536044945009053 -5.0010159611701965e-05
v -0.0004509206919465214 0.00027536044945009053 -5.0010159611701965e-05
v -0.0004509206919465214 0.00027536044945009053 -5.0010159611701965e-05
v -0.0004509206919465214 0.00027536044945009053 5.0010159611701965e-05
v -0.0004509206919465214 0.00027536044945009053 5.0010159611701965e-05
v -0.0004509206919465214 0.00027536044945009053 5.0010159611701965e-05
v -0.0003849159984383732 0.0003573810972739011 -5.0010159611701965e-05
v -0.0003849159984383732 0.0003573810972739011 -5.0010159611701965e-05
v -0.0003849159984383732 0.0003573810972739011 -5.0010159611701965e-05
v -0.0003849159984383732 0.0003573810972739011 5.0010159611701965e-05
v -0.0003849159984383732 0.0003573810972739011 5.0010159611701965e-05
v -0.0003849159984383732 0.0003573810972739011 5.0010159611701965e-05
v -0.0003045167832169682 0.00042837116052396595 -5.0010159611701965e-05
v -0.0003045167832169682 0.00042837116052396595 -5.0010159611701965e-05
v -0.0003045167832169682 0.00042837116052396595 -5.0010159611701965e-05
v -0.0003045167832169682 0.00042837116052396595 5.0010159611701965e-05
v -0.0003045167832169682 0.00042837116052396595 5.0010159611701965e-05
v -0.0003045167832169682 0.00042837116052396595 5.0010159611701965e-05
v -0.00021301621745806187 0.00048476087977178395 -5.0010159611701965e-05
v -0.00021301621745806187 0.00048476087977178395 -5.0010159611701965e-05
v -0.00021301621745806187 0.00048476087977178395 -5.0010159611701965e-05
v -0.00021301621745806187 0.00048476087977178395 5.0010159611701965e-05
v -0.00021301621745806187 0.00048476087977178395 5.0010159611701965e-05
v -0.00011271649418631569 0.000524630828294903 -5.0010159611701965e-05
v -0.00011271649418631569 0.000524630828294903 -5.0010159611701965e-05
v -0.00011271649418631569 0.000524630828294903 -5.0010159611701965e-05
v -0.00011271649418631569 0.000524630828294903 5.0010159611701965e-05
v -0.00011271649418631569 0.000524630828294903 5.0010159611701965e-05
v -6.918250164744677e-06 0.0005466212169267237 -5.0010159611701965e-05
v -6.918250164744677e-06 0.0005466212169267237 -5.0010159611701965e-05
v -6.918250164744677e-06 0.0005466212169267237 -5.0010159611701965e-05
v -6.918250164744677e-06 0.0005466212169267237 -5.0010159611701965e-05
v -6.918250164744677e-06 0.0005466212169267237 5.0010159611701965e-05
v -6.918250164744677e-06 0.0005466212169267237 5.0010159611701965e-05
v -6.918250164744677e-06 0.0005466212169267237 5.0010159611701965e-05
v 0.00010197943629464135 0.0005498407990671694 -5.0010159611701965e-05
v 0.00010197943629464135 0.0005498407990671694 -5.0010159611701965e-05
v 0.00010197943629464135 0.0005498407990671694 -5.0010159611701965e-05
v 0.00010197943629464135 0.0005498407990671694 5.0010159611701965e-05
v 0.00010197943629464135 0.0005498407990671694 5.0010159611701965e-05
v 0.00010197943629464135 0.0005498407990671694 5.0010159611701965e-05
v 0.00017737930465955287 0.0005409606383182108 -5.0010159611701965e-05
v 0.00017737930465955287 0.0005409606383182108 -5.0010159611701965e-05
v 0.00017737930465955287 0.0005409606383182108 -5.0010159611701965e-05
v 0.00017737930465955287 0.0005409606383182108 5.0010159611701965e-05
v 0.00017737930465955287 0.0005409606383182108 5.0010159611701965e-05
v 0.00017737930465955287 0.0005409606383182108 5.0010159611701965e-05
v 0.00017737930465955287 0.0005409606383182108 5.0010159611701965e-05
v 0.0002788785786833614 0.0005137809203006327 -5.0010159611701965e-05
v 0.0002788785786833614 0.0005137809203006327 -5.0010159611701965e-05
v 0.0002788785786833614 0.0005137809203006327 -5.0010159611701965e-05
v 0.0002788785786833614 0.0005137809203006327 5.0010159611701965e-05
v 0.0002788785786833614 0.0005137809203006327 5.0010159611701965e-05
v 0.0002788785786833614 0.0005137809203006327 5.0010159611701965e-05
v 0.0002788785786833614 0.0005137809203006327 5.0010159611701965e-05
v 0.0003732774348463863 0.0004703905724454671 -5.0010159611701965e-05
v 0.0003732774348463863 0.0004703905724454671 -5.0010159611701965e-05
v 0.0003732774348463863 0.0004703905724454671 -5.0010159611701965e-05
v 0.0003732774348463863 0.0004703905724454671 5.0010159611701965e-05
v 0.0003732774348463863 0.0004703905724454671 5.0010159611701965e-05
v 0.0003732774348463863 0.0004703905724454671 5.0010159611701965e-05
v 0.0003732774348463863 0.0004703905724454671 5.0010159611701965e-05
v 0.00045977867557667196 0.0004112609021831304 -5.0010159611701965e-05
v 0.00045977867557667196 0.0004112609021831304 -5.0010159611701965e-05
v 0.00045977867557667196 0.0004112609021831304 -5.0010159611701965e-05
v 0.00045977867557667196 0.0004112609021831304 5.0010159611701965e-05
v 0.00045977867557667196 0.0004112609021831304 5.0010159611701965e-05
v 0.00045977867557667196 0.0004112609021831304 5.0010159611701965e-05
v 0.00045977867557667196 0.0004112609021831304 5.0010159611701965e-05
v 0.0005359831848181784 0.0003377106331754476 -5.0010159611701965e-05
v 0.0005359831848181784 0.0003377106331754476 -5.0010159611701965e-05
v 0.0005359831848181784 0.0003377106331754476 -5.0010159611701965e-05
v 0.0005359831848181784 0.0003377106331754476 5.0010159611701965e-05
v 0.0005359831848181784 0.0003377106331754476 5.0010159611701965e-05
v 0.0005359831848181784 0.0003377106331754476 5.0010159611701965e-05
v 0.0005359831848181784 0.0003377106331754476 5.0010159611701965e-05
v 0.0005676779546774924 0.00029825049568898976 -5.0010159611701965e-05
v 0.0005676779546774924 0.00029825049568898976 -5.0010159611701965e-05
v 0.0005676779546774924 0.00029825049568898976 5.0010159611701965e-05
v 0.0005676779546774924 0.00029825049568898976 5.0010159611701965e-05
v 0.0005676779546774924 0.00029825049568898976 5.0010159611701965e-05
v 0.0005676779546774924 0.00029825049568898976 5.0010159611701965e-05
v 0.0006240788497962058 0.00020670056983362883 -5.0010159611701965e-05
v 0.0006240788497962058 0.00020670056983362883 -5.0010159611701965e-05
v 0.0006240788497962058 0.00020670056983362883 5.0010159611701965e-05
v 0.0006240788497962058 0.00020670056983362883 5.0010159611701965e-05
v 0.0006240788497962058 0.00020670056983362883 5.0010159611701965e-05
v 0.0006240788497962058 0.00020670056983362883 5.0010159611701965e-05
v 0.0006639767088927329 0.00010644089343259111 -5.0010159611701965e-05
v 0.0006639767088927329 0.00010644089343259111 -5.0010159611701965e-05
v 0.0006639767088927329 0.00010644089343259111 5.0010159611701965e-05
v 0.0006639767088927329 0.00010644089343259111 5.0010159611701965e-05
v 0.0006639767088927329 0.00010644089343259111 5.0010159611701965e-05
v 0.0006639767088927329 0.00010644089343259111 5.0010159611701965e-05
v 0.0006858814158476889 5.308902473188937e-07 -5.0010159611701965e-05
v 0.0006858814158476889 5.308902473188937e-07 -5.0010159611701965e-05
v 0.0006858814158476889 5.308902473188937e-07 -5.0010159611701965e-05
v 0.0006858814158476889 5.308902473188937e-07 5.0010159611701965e-05
v 0.0006858814158476889 5.308902473188937e-07 5.0010159611701965e-05
v 0.0006858814158476889 5.308902473188937e-07 5.0010159611701965e-05
v 0.0006858814158476889 5.308902473188937e-07 5.0010159611701965e-05
v 0.0006894800462760031 -9.990945545723662e-05 -5.0010159611701965e-05
v 0.0006894800462760031 -9.990945545723662e-05 -5.0010159611701965e-05
v 0.0006894800462760031 -9.990945545723662e-05 5.0010159611701965e-05
v 0.0006894800462760031 -9.990945545723662e-05 5.0010159611701965e-05
v 0.0006894800462760031 -9.990945545723662e-05 5.0010159611701965e-05
v 0.0006876770057715476 -0.00012714877084363252 -5.0010159611701965e-05
v 0.0006876770057715476 -0.00012714877084363252 -5.0010159611701965e-05
v 0.0006876770057715476 -0.00012714877084363252 -5.0010159611701965e-05
v 0.0006876770057715476 -0.00012714877084363252 5.0010159611701965e-05
v 0.0006876770057715476 -0.00012714877084363252 5.0010159611701965e-05
v 0.0006694826879538596 -0.00023204922035802156 -5.0010159611701965e-05
v 0.0006694826879538596 -0.00023204922035802156 -5.0010159611701965e-05
v 0.0006694826879538596 -0.00023204922035802156 -5.0010159611701965e-05
v 0.0006694826879538596 -0.00023204922035802156 -5.0010159611701965e-05
v 0.0006694826879538596 -0.00023204922035802156 -5.0010159611701965e-05
v 0.0006694826879538596 -0.00023204922035802156 5.0010159611701965e-05
v 0.0006694826879538596 -0.00023204922035802156 5.0010159611701965e-05
v 0.0006347778835333884 -0.0003298595256637782 -5.0010159611701965e-05
v 0.0006347778835333884 -0.0003298595256637782 -5.0010159611701965e-05
v 0.0006347778835333884 -0.0003298595256637782 -5.0010159611701965e-05
v 0.0006347778835333884 -0.0003298595256637782 -5.0010159611701965e-05
v 0.0006347778835333884 -0.0003298595256637782 5.0010159611701965e-05
v 0.0006347778835333884 -0.0003298595256637782 5.0010159611701965e-05
v 0.0006347778835333884 -0.0003298595256637782 5.0010159611701965e-05
v 0.0005839798250235617 -0.00042087954352609813 -5.0010159611701965e-05
v 0.0005839798250235617 -0.00042087954352609813 -5.0010159611701965e-05
v 0.0005839798250235617 -0.00042087954352609813 5.0010159611701965e-05
v 0.0005839798250235617 -0.00042087954352609813 5.0010159611701965e-05
v 0.0005179825820960104 -0.0005028889863751829 -5.0010159611701965e-05
v 0.0005179825820960104 -0.0005028889863751829 -5.0010159611701965e-05
v 0.0005179825820960104 -0.0005028889863751829 -5.0010159611701965e-05
v 0.0005179825820960104 -0.0005028889863751829 5.0010159611701965e-05
v 0.0005179825820960104 -0.0005028889863751829 5.0010159611701965e-05
v 0.0005179825820960104 -0.0005028889863751829 5.0010159611701965e-05
v 0.0004375833959784359 -0.0005738790496252477 -5.0010159611701965e-05
v 0.0004375833959784359 -0.0005738790496252477 -5.0010159611701965e-05
v 0.0004375833959784359 -0.0005738790496252477 -5.0010159611701965e-05
v 0.0004375833959784359 -0.0005738790496252477 5.0010159611701965e-05
v 0.0004375833959784359 -0.0005738790496252477 5.0010159611701965e-05
v 0.0004375833959784359 -0.0005738790496252477 5.0010159611701965e-05
v 0.00034608281566761434 -0.0006302091642282903 -5.0010159611701965e-05
v 0.00034608281566761434 -0.0006302091642282903 -5.0010159611701965e-05
v 0.00034608281566761434 -0.0006302091642282903 -5.0010159611701965e-05
v 0.00034608281566761434 -0.0006302091642282903 5.0010159611701965e-05
v 0.00034608281566761434 -0.0006302091642282903 5.0010159611701965e-05
v 0.00034608281566761434 -0.0006302091642282903 5.0010159611701965e-05
v 0.00034608281566761434 -0.0006302091642282903 5.0010159611701965e-05
v 0.00024578309967182577 -0.0006701489328406751 -5.0010159611701965e-05
v 0.00024578309967182577 -0.0006701489328406751 -5.0010159611701965e-05
v 0.00024578309967182577 -0.0006701489328406751 -5.0010159611701965e-05
v 0.00024578309967182577 -0.0006701489328406751 5.0010159611701965e-05
v 0.00024578309967182577 -0.0006701489328406751 5.0010159611701965e-05
v 0.00024578309967182577 -0.0006701489328406751 5.0010159611701965e-05
v 0.00013988053251523525 -0.0006920787855051458 -5.0010159611701965e-05
v 0.00013988053251523525 -0.0006920787855051458 -5.0010159611701965e-05
v 0.00013988053251523525 -0.0006920787855051458 -5.0010159611701965e-05
v 0.00013988053251523525 -0.0006920787855051458 5.0010159611701965e-05
v 0.00013988053251523525 -0.0006920787855051458 5.0010159611701965e-05
v 0.00013988053251523525 -0.0006920787855051458 5.0010159611701965e-05
v 3.118401946267113e-05 -0.0006952992989681661 -5.0010159611701965e-05
v 3.118401946267113e-05 -0.0006952992989681661 -5.0010159611701965e-05
v 3.118401946267113e-05 -0.0006952992989681661 -5.0010159611701965e-05
v 3.118401946267113e-05 -0.0006952992989681661 5.0010159611701965e-05
v 3.118401946267113e-05 -0.0006952992989681661 5.0010159611701965e-05
v 3.118401946267113e-05 -0.0006952992989681661 5.0010159611701965e-05
v 3.118401946267113e-05 -0.0006952992989681661 5.0010159611701965e-05
v 3.118401946267113e-05 -0.0006952992989681661 5.0010159611701965e-05
v -4.3522952182684094e-05 -0.0006865392788313329 -5.0010159611701965e-05
v -4.3522952182684094e-05 -0.0006865392788313329 -5.0010159611701965e-05
v -4.3522952182684094e-05 -0.0006865392788313329 -5.0010159611701965e-05
v -4.3522952182684094e-05 -0.0006865392788313329 5.0010159611701965e-05
v -4.3522952182684094e-05 -0.0006865392788313329 5.0010159611701965e-05
v -4.3522952182684094e-05 -0.0006865392788313329 5.0010159611701965e-05
v -4.3522952182684094e-05 -0.0006865392788313329 5.0010159611701965e-05
v -0.00014511907647829503 -0.0006594191654585302 -5.0010159611701965e-05
v -0.00014511907647829503 -0.0006594191654585302 -5.0010159611701965e-05
v -0.00014511907647829503 -0.0006594191654585302 -5.0010159611701965e-05
v -0.00014511907647829503 -0.0006594191654585302 5.0010159611701965e-05
v -0.00014511907647829503 -0.0006594191654585302 5.0010159611701965e-05
v -0.00023962224076967686 -0.0006160791381262243 -5.0010159611701965e-05
v -0.00023962224076967686 -0.0006160791381262243 -5.0010159611701965e-05
v -0.00023962224076967686 -0.0006160791381262243 -5.0010159611701965e-05
v -0.00023962224076967686 -0.0006160791381262243 -5.0010159611701965e-05
v -0.00023962224076967686 -0.0006160791381262243 5.0010159611701965e-05
v -0.00023962224076967686 -0.0006160791381262243 5.0010159611701965e-05
v -0.00023962224076967686 -0.0006160791381262243 5.0010159611701965e-05
v -0.0003262203244958073 -0.0005570696084760129 -5.0010159611701965e-05
v -0.0003262203244958073 -0.0005570696084760129 -5.0010159611701965e-05
v -0.0003262203244958073 -0.0005570696084760129 -5.0010159611701965e-05
v -0.0003262203244958073 -0.0005570696084760129 -5.0010159611701965e-05
v -0.0003262203244958073 -0.0005570696084760129 5.0010159611701965e-05
v -0.0003262203244958073 -0.0005570696084760129 5.0010159611701965e-05
v -0.0003262203244958073 -0.0005570696084760129 5.0010159611701965e-05
v -0.0004025217203889042 -0.000483578973216936 -5.0010159611701965e-05
v -0.0004025217203889042 -0.000483578973216936 -5.0010159611701965e-05
v -0.0004025217203889042 -0.000483578973216936 -5.0010159611701965e-05
v -0.0004025217203889042 -0.000483578973216936 -5.0010159611701965e-05
v -0.0004025217203889042 -0.000483578973216936 5.0010159611701965e-05
v -0.0004025217203889042 -0.000483578973216936 5.0010159611701965e-05
v -0.0004025217203889042 -0.000483578973216936 5.0010159611701965e-05
v -0.0004357215075287968 -0.0004422189376782626 -5.0010159611701965e-05
v -0.0004357215075287968 -0.0004422189376782626 -5.0010159611701965e-05
v -0.0004357215075287968 -0.0004422189376782626 -5.0010159611701965e-05
v -0.0004357215075287968 -0.0004422189376782626 5.0010159611701965e-05
v -0.0004357215075287968 -0.0004422189376782626 5.0010159611701965e-05
v -0.0004357215075287968 -0.0004422189376782626 5.0010159611701965e-05
v -0.0004918169579468668 -0.00035048925201408565 -5.0010159611701965e-05
v -0.0004918169579468668 -0.00035048925201408565 -5.0010159611701965e-05
v -0.0004918169579468668 -0.00035048925201408565 -5.0010159611701965e-05
v -0.0004918169579468668 -0.00035048925201408565 -5.0010159611701965e-05
v -0.0004918169579468668 -0.00035048925201408565 5.0010159611701965e-05
v -0.0004918169579468668 -0.00035048925201408565 5.0010159611701965e-05
v -0.0004918169579468668 -0.00035048925201408565 5.0010159611701965e-05
v -0.0004918169579468668 -0.00035048925201408565 5.0010159611701965e-05
v -0.0005314167938195169 -0.00025016904692165554 -5.0010159611701965e-05
v -0.0005314167938195169 -0.00025016904692165554 -5.0010159611701965e-05
v -0.0005314167938195169 -0.00025016904692165554 5.0010159611701965e-05
v -0.0005314167938195169 -0.00025016904692165554 5.0010159611701965e-05
v -0.0005314167938195169 -0.00025016904692165554 5.0010159611701965e-05
v -0.0005530160269699991 -0.00014418917999137193 -5.0010159611701965e-05
v -0.0005530160269699991 -0.00014418917999137193 -5.0010159611701965e-05
v -0.0005530160269699991 -0.00014418917999137193 5.0010159611701965e-05
v -0.0005530160269699991 -0.00014418917999137193 5.0010159611701965e-05
v -0.0005530160269699991 -0.00014418917999137193 5.0010159611701965e-05
v -0.0005564209423027933 -4.381962207844481e-05 -5.0010159611701965e-05
v -0.0005564209423027933 -4.381962207844481e-05 -5.0010159611701965e-05
v -0.0005564209423027933 -4.381962207844481e-05 5.0010159611701965e-05
v -0.0005564209423027933 -4.381962207844481e-05 5.0010159611701965e-05
v -0.0005564209423027933 -4.381962207844481e-05 5.0010159611701965e-05
f 1 7 9
f 1 9 10
f 10 9 13
f 10 13 14
f 14 13 18
f 14 18 22
f 22 18 24
f 22 24 29
f 29 24 33
f 29 33 39
f 39 33 41
f 39 41 43
f 43 41 47
f 43 47 51
f 51 47 56
f 51 56 58
f 58 56 62
f 58 62 67
f 67 62 70
f 67 70 74
f 74 70 77
f 74 77 80
f 80 77 83
f 80 83 86
f 86 83 90
f 86 90 93
f 93 90 94
f 93 94 99
f 99 94 103
f 99 103 106
f 106 103 111
f 106 111 115
f 115 111 118
f 115 118 120
f 120 118 123
f 120 123 128
f 128 123 131
f 128 131 133
f 133 131 137
f 133 137 139
f 139 137 142
f 139 142 145
f 145 142 148
f 145 148 150
f 150 148 154
f 150 154 155
f 155 154 158
f 155 158 162
f 162 158 166
f 162 166 169
f 169 166 171
f 169 171 173
f 173 171 176
f 173 176 178
f 178 176 181
f 178 181 186
f 186 181 189
f 186 189 193
f 193 189 194
f 193 194 196
f 196 194 201
f 196 201 204
f 204 201 206
f 204 206 210
f 210 206 218
f 210 218 221
f 227 221 239
f 239 221 218
f 243 245 249
f 243 249 252
f 252 249 255
f 252 255 258
f 258 255 259
f 258 259 264
f 264 259 265
f 264 265 270
f 270 265 271
f 270 271 274
f 274 271 279
f 274 279 280
f 280 279 282
f 280 282 286
f 286 282 289
f 286 289 291
f 291 289 296
f 291 296 299
f 299 296 302
f 299 302 306
f 306 302 308
f 306 308 311
f 311 308 316
f 311 316 320
f 320 316 322
f 320 322 324
f 324 322 328
f 324 328 334
f 334 328 336
f 334 336 340
f 340 336 342
f 340 342 345
f 345 342 348
f 345 348 349
f 349 348 353
f 349 353 358
f 358 353 361
f 358 361 364
f 364 361 365
f 364 365 369
f 369 365 372
f 369 372 375
f 375 372 379
f 375 379 381
f 381 379 384
f 381 384 386
f 386 384 389
f 386 389 393
f 393 389 396
f 393 396 397
f 397 396 400
f 397 400 403
f 403 400 407
f 403 407 410
f 410 407 415
f 410 415 418
f 418 415 419
f 418 419 425
f 425 419 428
f 425 428 430
f 430 428 434
f 430 434 437
f 437 434 441
f 437 441 445
f 445 441 446
f 445 446 450
f 450 446 453
f 450 453 459
f 459 453 461
f 459 461 464
f 464 461 467
f 464 467 471
f 471 467 474
f 471 474 477
f 477 474 480
f 477 480 483
f 483 480 485
f 483 485 487
f 487 485 245
f 487 245 243
f 1 229 7
f 7 229 232
f 423 79 416
f 417 82 87
f 416 88 412
f 293 222 285
f 285 222 228
f 285 228 281
f 281 228 276
f 257 262 228
f 223 263 268
f 225 269 275
f 478 15 473
f 472 16 20
f 470 23 465
f 463 21 30
f 463 30 458
f 457 31 36
f 458 37 452
f 451 38 45
f 452 42 444
f 443 44 52
f 444 50 438
f 438 50 57
f 438 57 431
f 433 59 64
f 432 66 426
f 422 65 72
f 424 73 81
f 482 2 476
f 478 4 11
f 478 11 15
f 88 92 412
f 412 92 100
f 411 98 404
f 405 101 107
f 406 105 398
f 399 108 114
f 398 112 391
f 392 113 121
f 391 122 387
f 387 122 127
f 387 127 383
f 481 488 4
f 3 486 242
f 4 240 228
f 224 241 250
f 226 251 256
f 292 298 220
f 219 297 305
f 222 304 212
f 211 303 312
f 212 313 203
f 205 310 317
f 203 319 197
f 198 318 325
f 199 326 192
f 191 327 332
f 190 331 184
f 183 333 337
f 185 338 177
f 180 339 346
f 179 344 172
f 174 343 351
f 126 132 382
f 383 134 140
f 383 140 376
f 376 140 144
f 376 144 368
f 368 144 151
f 368 151 362
f 362 151 156
f 363 157 357
f 359 156 163
f 356 164 352
f 350 161 167
f 351 168 174
f 301 295 217
f 213 294 290
f 214 287 233
f 234 288 283
f 235 284 278
f 401 96 408
f 409 97 91
f 408 89 413
f 182 175 341
f 341 175 170
f 341 170 347
f 347 170 165
f 347 165 354
f 89 85 413
f 414 84 76
f 413 75 420
f 421 78 68
f 420 71 429
f 427 69 63
f 429 60 436
f 435 61 54
f 436 53 439
f 442 55 46
f 440 49 448
f 300 215 309
f 307 216 208
f 309 207 314
f 315 209 200
f 314 202 321
f 277 273 231
f 236 272 266
f 230 267 260
f 469 460 25
f 28 462 455
f 27 454 35
f 32 456 447
f 34 449 40
f 40 449 48
f 341 335 182
f 182 335 329
f 182 329 188
f 187 330 323
f 188 321 195
f 195 321 202
f 146 143 373
f 371 141 136
f 374 138 378
f 380 135 130
f 377 129 385
f 385 129 124
f 385 124 388
f 390 125 116
f 388 119 395
f 394 117 110
f 395 109 401
f 401 109 104
f 402 102 95
f 261 253 231
f 237 254 247
f 238 248 6
f 5 246 244
f 26 19 466
f 468 17 12
f 468 12 475
f 475 12 8
f 475 8 479
f 479 8 5
f 479 5 484
f 484 5 244
f 370 367 147
f 149 366 360
f 149 360 152
f 152 360 354
f 153 355 160
f 159 354 165
