mtllib converted_link2_9_d12626ff.mtl
usemtl material
v 0.000526315241586417 -0.001596322632394731 -5.0010159611701965e-05
v 0.000526315241586417 -0.001596322632394731 -5.0010159611701965e-05
v 0.000526315241586417 -0.001596322632394731 5.0010159611701965e-05
v 0.000526315241586417 -0.001596322632394731 5.0010159611701965e-05
v 0.00047082334640435874 -0.0016627231379970908 5.0010159611701965e-05
v 0.00047082334640435874 -0.0016627231379970908 5.0010159611701965e-05
v 0.00047082334640435874 -0.0016627231379970908 -5.0010159611701965e-05
v 0.00047082334640435874 -0.0016627231379970908 -5.0010159611701965e-05
v 0.00047082334640435874 -0.0016627231379970908 -5.0010159611701965e-05
v 0.00047082334640435874 -0.0016627231379970908 -5.0010159611701965e-05
v 0.00047082334640435874 -0.0016627231379970908 -5.0010159611701965e-05
v 0.0003985229122918099 -0.0017051625763997436 5.0010159611701965e-05
v 0.0003985229122918099 -0.0017051625763997436 5.0010159611701965e-05
v 0.0003985229122918099 -0.0017051625763997436 5.0010159611701965e-05
v 0.0003985229122918099 -0.0017051625763997436 -5.0010159611701965e-05
v 0.0003985229122918099 -0.0017051625763997436 -5.0010159611701965e-05
v 0.00031170874717645347 -0.001721493317745626 5.0010159611701965e-05
v 0.00031170874717645347 -0.001721493317745626 5.0010159611701965e-05
v 0.00031170874717645347 -0.001721493317745626 -5.0010159611701965e-05
v 0.00031170874717645347 -0.001721493317745626 -5.0010159611701965e-05
v 0.00031170874717645347 -0.001721493317745626 -5.0010159611701965e-05
v 0.0002231958496849984 -0.001706113456748426 5.0010159611701965e-05
v 0.0002231958496849984 -0.001706113456748426 5.0010159611701965e-05
v 0.0002231958496849984 -0.001706113456748426 5.0010159611701965e-05
v 0.0002231958496849984 -0.001706113456748426 5.0010159611701965e-05
v 0.0002231958496849984 -0.001706113456748426 -5.0010159611701965e-05
v 0.0002231958496849984 -0.001706113456748426 -5.0010159611701965e-05
v 0.0002231958496849984 -0.001706113456748426 -5.0010159611701965e-05
v 0.0002231958496849984 -0.001706113456748426 -5.0010159611701965e-05
v 0.0002231958496849984 -0.001706113456748426 -5.0010159611701965e-05
v 0.00018519788864068687 -0.0016883531352505088 5.0010159611701965e-05
v 0.00018519788864068687 -0.0016883531352505088 5.0010159611701965e-05
v 0.00018519788864068687 -0.0016883531352505088 5.0010159611701965e-05
v 0.00018519788864068687 -0.0016883531352505088 -5.0010159611701965e-05
v 0.00018519788864068687 -0.0016883531352505088 -5.0010159611701965e-05
v 0.00018519788864068687 -0.0016883531352505088 -5.0010159611701965e-05
v 0.00011861949315061793 -0.001632803468964994 5.0010159611701965e-05
v 0.00011861949315061793 -0.001632803468964994 5.0010159611701965e-05
v 0.00011861949315061793 -0.001632803468964994 5.0010159611701965e-05
v 0.00011861949315061793 -0.001632803468964994 -5.0010159611701965e-05
v 0.00011861949315061793 -0.001632803468964994 -5.0010159611701965e-05
v 7.612138142576441e-05 -0.0015604434302076697 5.0010159611701965e-05
v 7.612138142576441e-05 -0.0015604434302076697 5.0010159611701965e-05
v 7.612138142576441e-05 -0.0015604434302076697 5.0010159611701965e-05
v 7.612138142576441e-05 -0.0015604434302076697 -5.0010159611701965e-05
v 7.612138142576441e-05 -0.0015604434302076697 -5.0010159611701965e-05
v 6.512432446470484e-05 -0.0015222331276163459 5.0010159611701965e-05
v 6.512432446470484e-05 -0.0015222331276163459 5.0010159611701965e-05
v 6.512432446470484e-05 -0.0015222331276163459 5.0010159611701965e-05
v 6.512432446470484e-05 -0.0015222331276163459 5.0010159611701965e-05
v 6.512432446470484e-05 -0.0015222331276163459 -5.0010159611701965e-05
v 6.512432446470484e-05 -0.0015222331276163459 -5.0010159611701965e-05
v 6.512432446470484e-05 -0.0015222331276163459 -5.0010159611701965e-05
v 6.372361531248316e-05 -0.0015141930198296905 -5.0010159611701965e-05
v 6.372361531248316e-05 -0.0015141930198296905 -5.0010159611701965e-05
v 6.372361531248316e-05 -0.0015141930198296905 -5.0010159611701965e-05
v 6.372361531248316e-05 -0.0015141930198296905 5.0010159611701965e-05
v 6.372361531248316e-05 -0.0015141930198296905 5.0010159611701965e-05
v 6.372361531248316e-05 -0.0015141930198296905 5.0010159611701965e-05
v 6.372361531248316e-05 -0.0015141930198296905 5.0010159611701965e-05
v -7.8284450864885e-05 -0.0008137732511386275 -5.0010159611701965e-05
v -7.8284450864885e-05 -0.0008137732511386275 -5.0010159611701965e-05
v -7.8284450864885e-05 -0.0008137732511386275 -5.0010159611701965e-05
v -7.8284450864885e-05 -0.0008137732511386275 5.0010159611701965e-05
v -7.8284450864885e-05 -0.0008137732511386275 5.0010159611701965e-05
v -7.8284450864885e-05 -0.0008137732511386275 5.0010159611701965e-05
v -0.00012808412429876626 -0.0005713630234822631 -5.0010159611701965e-05
v -0.00012808412429876626 -0.0005713630234822631 -5.0010159611701965e-05
v -0.00012808412429876626 -0.0005713630234822631 -5.0010159611701965e-05
v -0.00012808412429876626 -0.0005713630234822631 -5.0010159611701965e-05
v -0.00012808412429876626 -0.0005713630234822631 5.0010159611701965e-05
v -0.00012808412429876626 -0.0005713630234822631 5.0010159611701965e-05
v -0.00012808412429876626 -0.0005713630234822631 5.0010159611701965e-05
v -0.00013368696090765297 -0.0005475230282172561 -5.0010159611701965e-05
v -0.00013368696090765297 -0.0005475230282172561 -5.0010159611701965e-05
v -0.00013368696090765297 -0.0005475230282172561 -5.0010159611701965e-05
v -0.00013368696090765297 -0.0005475230282172561 -5.0010159611701965e-05
v -0.00013368696090765297 -0.0005475230282172561 -5.0010159611701965e-05
v -0.00013368696090765297 -0.0005475230282172561 -5.0010159611701965e-05
v -0.00013368696090765297 -0.0005475230282172561 5.0010159611701965e-05
v -0.00013368696090765297 -0.0005475230282172561 5.0010159611701965e-05
v -0.00013368696090765297 -0.0005475230282172561 5.0010159611701965e-05
v -0.00013368696090765297 -0.0005475230282172561 5.0010159611701965e-05
v -0.00013368696090765297 -0.0005475230282172561 5.0010159611701965e-05
v -0.0001386043441016227 -0.0005254134302958846 -5.0010159611701965e-05
v -0.0001386043441016227 -0.0005254134302958846 -5.0010159611701965e-05
v -0.0001386043441016227 -0.0005254134302958846 -5.0010159611701965e-05
v -0.0001386043441016227 -0.0005254134302958846 -5.0010159611701965e-05
v -0.0001386043441016227 -0.0005254134302958846 -5.0010159611701965e-05
v -0.0001386043441016227 -0.0005254134302958846 -5.0010159611701965e-05
v -0.0001386043441016227 -0.0005254134302958846 5.0010159611701965e-05
v -0.0001386043441016227 -0.0005254134302958846 5.0010159611701965e-05
v -0.0001386043441016227 -0.0005254134302958846 5.0010159611701965e-05
v -0.0001386043441016227 -0.0005254134302958846 5.0010159611701965e-05
v -0.0001386043441016227 -0.0005254134302958846 5.0010159611701965e-05
v -0.00018718212959356606 -0.00031780300196260214 -5.0010159611701965e-05
v -0.00018718212959356606 -0.00031780300196260214 -5.0010159611701965e-05
v -0.00018718212959356606 -0.00031780300196260214 -5.0010159611701965e-05
v -0.00018718212959356606 -0.00031780300196260214 -5.0010159611701965e-05
v -0.00018718212959356606 -0.00031780300196260214 -5.0010159611701965e-05
v -0.00018718212959356606 -0.00031780300196260214 -5.0010159611701965e-05
v -0.00018718212959356606 -0.00031780300196260214 -5.0010159611701965e-05
v -0.00018718212959356606 -0.00031780300196260214 -5.0010159611701965e-05
v -0.00018718212959356606 -0.00031780300196260214 -5.0010159611701965e-05
v -0.00018718212959356606 -0.00031780300196260214 -5.0010159611701965e-05
v -0.00018718212959356606 -0.00031780300196260214 5.0010159611701965e-05
v -0.00018718212959356606 -0.00031780300196260214 5.0010159611701965e-05
v -0.00018718212959356606 -0.00031780300196260214 5.0010159611701965e-05
v -0.00018718212959356606 -0.00031780300196260214 5.0010159611701965e-05
v -0.00018718212959356606 -0.00031780300196260214 5.0010159611701965e-05
v -0.00018718212959356606 -0.00031780300196260214 5.0010159611701965e-05
v -0.00018718212959356606 -0.00031780300196260214 5.0010159611701965e-05
v -0.00018718212959356606 -0.00031780300196260214 5.0010159611701965e-05
v -0.00021057695266790688 -0.00032585335429757833 -5.0010159611701965e-05
v -0.00021057695266790688 -0.00032585335429757833 -5.0010159611701965e-05
v -0.00021057695266790688 -0.00032585335429757833 -5.0010159611701965e-05
v -0.00021057695266790688 -0.00032585335429757833 -5.0010159611701965e-05
v -0.00021057695266790688 -0.00032585335429757833 -5.0010159611701965e-05
v -0.00021057695266790688 -0.00032585335429757833 5.0010159611701965e-05
v -0.00021057695266790688 -0.00032585335429757833 5.0010159611701965e-05
v -0.00021057695266790688 -0.00032585335429757833 5.0010159611701965e-05
v -0.00021057695266790688 -0.00032585335429757833 5.0010159611701965e-05
v -0.00021057695266790688 -0.00032585335429757833 5.0010159611701965e-05
v -0.00021057695266790688 -0.00032585335429757833 5.0010159611701965e-05
v -0.0006574032013304532 -0.00047933345194905996 -5.0010159611701965e-05
v -0.0006574032013304532 -0.00047933345194905996 -5.0010159611701965e-05
v -0.0006574032013304532 -0.00047933345194905996 -5.0010159611701965e-05
v -0.0006574032013304532 -0.00047933345194905996 -5.0010159611701965e-05
v -0.0006574032013304532 -0.00047933345194905996 -5.0010159611701965e-05
v -0.0006574032013304532 -0.00047933345194905996 5.0010159611701965e-05
v -0.0006574032013304532 -0.00047933345194905996 5.0010159611701965e-05
v -0.0006574032013304532 -0.00047933345194905996 5.0010159611701965e-05
v -0.0006574032013304532 -0.00047933345194905996 5.0010159611701965e-05
v -0.0006574032013304532 -0.00047933345194905996 5.0010159611701965e-05
v -0.0006574032013304532 -0.00047933345194905996 5.0010159611701965e-05
v -0.0006574032013304532 -0.00047933345194905996 5.0010159611701965e-05
v -0.0013329025823622942 -0.0007119126385077834 -5.0010159611701965e-05
v -0.0013329025823622942 -0.0007119126385077834 -5.0010159611701965e-05
v -0.0013329025823622942 -0.0007119126385077834 -5.0010159611701965e-05
v -0.0013329025823622942 -0.0007119126385077834 -5.0010159611701965e-05
v -0.0013329025823622942 -0.0007119126385077834 5.0010159611701965e-05
v -0.0013329025823622942 -0.0007119126385077834 5.0010159611701965e-05
v -0.0013329025823622942 -0.0007119126385077834 5.0010159611701965e-05
v -0.0013405915815383196 -0.0007147131254896522 -5.0010159611701965e-05
v -0.0013405915815383196 -0.0007147131254896522 -5.0010159611701965e-05
v -0.0013405915815383196 -0.0007147131254896522 -5.0010159611701965e-05
v -0.0013405915815383196 -0.0007147131254896522 5.0010159611701965e-05
v -0.0013405915815383196 -0.0007147131254896522 5.0010159611701965e-05
v -0.0013405915815383196 -0.0007147131254896522 5.0010159611701965e-05
v -0.0014273759443312883 -0.0007277032127603889 5.0010159611701965e-05
v -0.0014273759443312883 -0.0007277032127603889 5.0010159611701965e-05
v -0.0014273759443312883 -0.0007277032127603889 -5.0010159611701965e-05
v -0.0014273759443312883 -0.0007277032127603889 -5.0010159611701965e-05
v -0.0014273759443312883 -0.0007277032127603889 -5.0010159611701965e-05
v -0.0015149947721511126 -0.0007089929422363639 5.0010159611701965e-05
v -0.0015149947721511126 -0.0007089929422363639 5.0010159611701965e-05
v -0.0015149947721511126 -0.0007089929422363639 5.0010159611701965e-05
v -0.0015149947721511126 -0.0007089929422363639 5.0010159611701965e-05
v -0.0015149947721511126 -0.0007089929422363639 -5.0010159611701965e-05
v -0.0015149947721511126 -0.0007089929422363639 -5.0010159611701965e-05
v -0.0015149947721511126 -0.0007089929422363639 -5.0010159611701965e-05
v -0.001544677885249257 -0.0006943329935893416 5.0010159611701965e-05
v -0.001544677885249257 -0.0006943329935893416 5.0010159611701965e-05
v -0.001544677885249257 -0.0006943329935893416 5.0010159611701965e-05
v -0.001544677885249257 -0.0006943329935893416 5.0010159611701965e-05
v -0.001544677885249257 -0.0006943329935893416 -5.0010159611701965e-05
v -0.001544677885249257 -0.0006943329935893416 -5.0010159611701965e-05
v -0.001544677885249257 -0.0006943329935893416 -5.0010159611701965e-05
v -0.001544677885249257 -0.0006943329935893416 -5.0010159611701965e-05
v -0.001544677885249257 -0.0006943329935893416 -5.0010159611701965e-05
v -0.0016109880525618792 -0.0006390738999471068 5.0010159611701965e-05
v -0.0016109880525618792 -0.0006390738999471068 5.0010159611701965e-05
v -0.0016109880525618792 -0.0006390738999471068 5.0010159611701965e-05
v -0.0016109880525618792 -0.0006390738999471068 -5.0010159611701965e-05
v -0.0016109880525618792 -0.0006390738999471068 -5.0010159611701965e-05
v -0.0016109880525618792 -0.0006390738999471068 -5.0010159611701965e-05
v -0.0016109880525618792 -0.0006390738999471068 -5.0010159611701965e-05
v -0.0016535755712538958 -0.0005668926751241088 5.0010159611701965e-05
v -0.0016535755712538958 -0.0005668926751241088 5.0010159611701965e-05
v -0.0016535755712538958 -0.0005668926751241088 5.0010159611701965e-05
v -0.0016535755712538958 -0.0005668926751241088 -5.0010159611701965e-05
v -0.0016535755712538958 -0.0005668926751241088 -5.0010159611701965e-05
v -0.0016699966508895159 -0.0004802331095561385 5.0010159611701965e-05
v -0.0016699966508895159 -0.0004802331095561385 5.0010159611701965e-05
v -0.0016699966508895159 -0.0004802331095561385 -5.0010159611701965e-05
v -0.0016699966508895159 -0.0004802331095561385 -5.0010159611701965e-05
v -0.0016699966508895159 -0.0004802331095561385 -5.0010159611701965e-05
v -0.0016546782571822405 -0.0003919530427083373 5.0010159611701965e-05
v -0.0016546782571822405 -0.0003919530427083373 5.0010159611701965e-05
v -0.0016546782571822405 -0.0003919530427083373 5.0010159611701965e-05
v -0.0016546782571822405 -0.0003919530427083373 5.0010159611701965e-05
v -0.0016546782571822405 -0.0003919530427083373 5.0010159611701965e-05
v -0.0016546782571822405 -0.0003919530427083373 -5.0010159611701965e-05
v -0.0016546782571822405 -0.0003919530427083373 -5.0010159611701965e-05
v -0.0016546782571822405 -0.0003919530427083373 -5.0010159611701965e-05
v -0.0016546782571822405 -0.0003919530427083373 -5.0010159611701965e-05
v -0.0016366776544600725 -0.00035363284405320883 5.0010159611701965e-05
v -0.0016366776544600725 -0.00035363284405320883 5.0010159611701965e-05
v -0.0016366776544600725 -0.00035363284405320883 5.0010159611701965e-05
v -0.0016366776544600725 -0.00035363284405320883 -5.0010159611701965e-05
v -0.0016366776544600725 -0.00035363284405320883 -5.0010159611701965e-05
v -0.0016366776544600725 -0.00035363284405320883 -5.0010159611701965e-05
v -0.0016366776544600725 -0.00035363284405320883 -5.0010159611701965e-05
v -0.0015820797998458147 -0.00028776226099580526 5.0010159611701965e-05
v -0.0015820797998458147 -0.00028776226099580526 5.0010159611701965e-05
v -0.0015820797998458147 -0.00028776226099580526 -5.0010159611701965e-05
v -0.0015820797998458147 -0.00028776226099580526 -5.0010159611701965e-05
v -0.0015105840284377337 -0.0002456236397847533 5.0010159611701965e-05
v -0.0015105840284377337 -0.0002456236397847533 5.0010159611701965e-05
v -0.0015105840284377337 -0.0002456236397847533 5.0010159611701965e-05
v -0.0015105840284377337 -0.0002456236397847533 5.0010159611701965e-05
v -0.0015105840284377337 -0.0002456236397847533 -5.0010159611701965e-05
v -0.0015105840284377337 -0.0002456236397847533 -5.0010159611701965e-05
v -0.0015105840284377337 -0.0002456236397847533 -5.0010159611701965e-05
v -0.0015105840284377337 -0.0002456236397847533 -5.0010159611701965e-05
v -0.0015105840284377337 -0.0002456236397847533 -5.0010159611701965e-05
v -0.0015105840284377337 -0.0002456236397847533 -5.0010159611701965e-05
v -0.0015105840284377337 -0.0002456236397847533 -5.0010159611701965e-05
v -0.0015105840284377337 -0.0002456236397847533 -5.0010159611701965e-05
v -0.001455092104151845 -0.00023138371761888266 5.0010159611701965e-05
v -0.001455092104151845 -0.00023138371761888266 5.0010159611701965e-05
v -0.001455092104151845 -0.00023138371761888266 5.0010159611701965e-05
v -0.001455092104151845 -0.00023138371761888266 -5.0010159611701965e-05
v -0.001455092104151845 -0.00023138371761888266 -5.0010159611701965e-05
v -0.001455092104151845 -0.00023138371761888266 -5.0010159611701965e-05
v -0.001455092104151845 -0.00023138371761888266 -5.0010159611701965e-05
v -0.00036978095886297524 0.0001363769406452775 -5.0010159611701965e-05
v -0.00036978095886297524 0.0001363769406452775 -5.0010159611701965e-05
v -0.00036978095886297524 0.0001363769406452775 -5.0010159611701965e-05
v -0.00036978095886297524 0.0001363769406452775 5.0010159611701965e-05
v -0.00036978095886297524 0.0001363769406452775 5.0010159611701965e-05
v -0.00036978095886297524 0.0001363769406452775 5.0010159611701965e-05
v -0.0003463861357886344 0.00014484638813883066 5.0010159611701965e-05
v -0.0003463861357886344 0.00014484638813883066 5.0010159611701965e-05
v -0.0003463861357886344 0.00014484638813883066 5.0010159611701965e-05
v -0.0003463861357886344 0.00014484638813883066 -5.0010159611701965e-05
v -0.0003463861357886344 0.00014484638813883066 -5.0010159611701965e-05
v -0.0003463861357886344 0.00014484638813883066 -5.0010159611701965e-05
v -0.00032269328949041665 0.0001521777594462037 5.0010159611701965e-05
v -0.00032269328949041665 0.0001521777594462037 5.0010159611701965e-05
v -0.00032269328949041665 0.0001521777594462037 5.0010159611701965e-05
v -0.00032269328949041665 0.0001521777594462037 5.0010159611701965e-05
v -0.00032269328949041665 0.0001521777594462037 -5.0010159611701965e-05
v -0.00032269328949041665 0.0001521777594462037 -5.0010159611701965e-05
v -0.00032269328949041665 0.0001521777594462037 -5.0010159611701965e-05
v -0.00032269328949041665 0.0001521777594462037 -5.0010159611701965e-05
v -0.0003058847796637565 0.0001587361330166459 5.0010159611701965e-05
v -0.0003058847796637565 0.0001587361330166459 5.0010159611701965e-05
v -0.0003058847796637565 0.0001587361330166459 5.0010159611701965e-05
v -0.0003058847796637565 0.0001587361330166459 -5.0010159611701965e-05
v -0.0003058847796637565 0.0001587361330166459 -5.0010159611701965e-05
v -0.0003058847796637565 0.0001587361330166459 -5.0010159611701965e-05
v -0.0003058847796637565 0.0001587361330166459 -5.0010159611701965e-05
v -0.0002886888396460563 0.0001645177835598588 5.0010159611701965e-05
v -0.0002886888396460563 0.0001645177835598588 5.0010159611701965e-05
v -0.0002886888396460563 0.0001645177835598588 5.0010159611701965e-05
v -0.0002886888396460563 0.0001645177835598588 -5.0010159611701965e-05
v -0.0002886888396460563 0.0001645177835598588 -5.0010159611701965e-05
v -0.0002886888396460563 0.0001645177835598588 -5.0010159611701965e-05
v -0.0002886888396460563 0.0001645177835598588 -5.0010159611701965e-05
v -0.0002886888396460563 0.0001645177835598588 -5.0010159611701965e-05
v -0.000294291676254943 0.00018132629338651896 5.0010159611701965e-05
v -0.000294291676254943 0.00018132629338651896 5.0010159611701965e-05
v -0.000294291676254943 0.00018132629338651896 5.0010159611701965e-05
v -0.000294291676254943 0.00018132629338651896 -5.0010159611701965e-05
v -0.000294291676254943 0.00018132629338651896 -5.0010159611701965e-05
v -0.000294291676254943 0.00018132629338651896 -5.0010159611701965e-05
v -0.000299477280350402 0.00019926729146391153 5.0010159611701965e-05
v -0.000299477280350402 0.00019926729146391153 5.0010159611701965e-05
v -0.000299477280350402 0.00019926729146391153 5.0010159611701965e-05
v -0.000299477280350402 0.00019926729146391153 -5.0010159611701965e-05
v -0.000299477280350402 0.00019926729146391153 -5.0010159611701965e-05
v -0.000299477280350402 0.00019926729146391153 -5.0010159611701965e-05
v -0.00031008690712042153 0.0002498064422979951 -5.0010159611701965e-05
v -0.00031008690712042153 0.0002498064422979951 -5.0010159611701965e-05
v -0.00031008690712042153 0.0002498064422979951 -5.0010159611701965e-05
v -0.00031008690712042153 0.0002498064422979951 -5.0010159611701965e-05
v -0.00031008690712042153 0.0002498064422979951 -5.0010159611701965e-05
v -0.00031008690712042153 0.0002498064422979951 5.0010159611701965e-05
v -0.00031008690712042153 0.0002498064422979951 5.0010159611701965e-05
v -0.00031008690712042153 0.0002498064422979951 5.0010159611701965e-05
v -0.00031008690712042153 0.0002498064422979951 5.0010159611701965e-05
v -0.0003387865435797721 0.0003882065648213029 -5.0010159611701965e-05
v -0.0003387865435797721 0.0003882065648213029 -5.0010159611701965e-05
v -0.0003387865435797721 0.0003882065648213029 -5.0010159611701965e-05
v -0.0003387865435797721 0.0003882065648213029 -5.0010159611701965e-05
v -0.0003387865435797721 0.0003882065648213029 5.0010159611701965e-05
v -0.0003387865435797721 0.0003882065648213029 5.0010159611701965e-05
v -0.0003387865435797721 0.0003882065648213029 5.0010159611701965e-05
v -0.0003387865435797721 0.0003882065648213029 5.0010159611701965e-05
v -0.0003387865435797721 0.0003882065648213029 5.0010159611701965e-05
v -0.0003387865435797721 0.0003882065648213029 5.0010159611701965e-05
v -0.0003387865435797721 0.0003882065648213029 5.0010159611701965e-05
v -0.00035568446037359536 0.0004693974042311311 -5.0010159611701965e-05
v -0.00035568446037359536 0.0004693974042311311 -5.0010159611701965e-05
v -0.00035568446037359536 0.0004693974042311311 -5.0010159611701965e-05
v -0.00035568446037359536 0.0004693974042311311 -5.0010159611701965e-05
v -0.00035568446037359536 0.0004693974042311311 5.0010159611701965e-05
v -0.00035568446037359536 0.0004693974042311311 5.0010159611701965e-05
v -0.00035568446037359536 0.0004693974042311311 5.0010159611701965e-05
v -0.00035568446037359536 0.0004693974042311311 5.0010159611701965e-05
v -0.00035568446037359536 0.0004693974042311311 5.0010159611701965e-05
v -0.00035568446037359536 0.0004693974042311311 5.0010159611701965e-05
v -0.00035568446037359536 0.0004693974042311311 5.0010159611701965e-05
v -0.0005523798172362149 0.0014159769052639604 -5.0010159611701965e-05
v -0.0005523798172362149 0.0014159769052639604 -5.0010159611701965e-05
v -0.0005523798172362149 0.0014159769052639604 -5.0010159611701965e-05
v -0.0005523798172362149 0.0014159769052639604 5.0010159611701965e-05
v -0.0005523798172362149 0.0014159769052639604 5.0010159611701965e-05
v -0.0005523798172362149 0.0014159769052639604 5.0010159611701965e-05
v -0.0005551812355406582 0.0014279574388638139 -5.0010159611701965e-05
v -0.0005551812355406582 0.0014279574388638139 -5.0010159611701965e-05
v -0.0005551812355406582 0.0014279574388638139 -5.0010159611701965e-05
v -0.0005551812355406582 0.0014279574388638139 -5.0010159611701965e-05
v -0.0005551812355406582 0.0014279574388638139 -5.0010159611701965e-05
v -0.0005551812355406582 0.0014279574388638139 -5.0010159611701965e-05
v -0.0005551812355406582 0.0014279574388638139 5.0010159611701965e-05
v -0.0005551812355406582 0.0014279574388638139 5.0010159611701965e-05
v -0.0005551812355406582 0.0014279574388638139 5.0010159611701965e-05
v -0.0005551812355406582 0.0014279574388638139 5.0010159611701965e-05
v -0.0005556878750212491 0.001513486378826201 5.0010159611701965e-05
v -0.0005556878750212491 0.001513486378826201 5.0010159611701965e-05
v -0.0005556878750212491 0.001513486378826201 -5.0010159611701965e-05
v -0.0005556878750212491 0.001513486378826201 -5.0010159611701965e-05
v -0.0005556878750212491 0.001513486378826201 -5.0010159611701965e-05
v -0.0005260941688902676 0.0015965771162882447 5.0010159611701965e-05
v -0.0005260941688902676 0.0015965771162882447 5.0010159611701965e-05
v -0.0005260941688902676 0.0015965771162882447 5.0010159611701965e-05
v -0.0005260941688902676 0.0015965771162882447 5.0010159611701965e-05
v -0.0005260941688902676 0.0015965771162882447 -5.0010159611701965e-05
v -0.0005260941688902676 0.0015965771162882447 -5.0010159611701965e-05
v -0.0005260941688902676 0.0015965771162882447 -5.0010159611701965e-05
v -0.0004706022155005485 0.0016630362952128053 5.0010159611701965e-05
v -0.0004706022155005485 0.0016630362952128053 5.0010159611701965e-05
v -0.0004706022155005485 0.0016630362952128053 5.0010159611701965e-05
v -0.0004706022155005485 0.0016630362952128053 -5.0010159611701965e-05
v -0.0004706022155005485 0.0016630362952128053 -5.0010159611701965e-05
v -0.00039818257209844887 0.001705536269582808 5.0010159611701965e-05
v -0.00039818257209844887 0.001705536269582808 5.0010159611701965e-05
v -0.00039818257209844887 0.001705536269582808 5.0010159611701965e-05
v -0.00039818257209844887 0.001705536269582808 -5.0010159611701965e-05
v -0.00039818257209844887 0.001705536269582808 -5.0010159611701965e-05
v -0.0003114876162726432 0.0017218660796061158 5.0010159611701965e-05
v -0.0003114876162726432 0.0017218660796061158 5.0010159611701965e-05
v -0.0003114876162726432 0.0017218660796061158 -5.0010159611701965e-05
v -0.0003114876162726432 0.0017218660796061158 -5.0010159611701965e-05
v -0.0002230939280707389 0.0017064266139641404 5.0010159611701965e-05
v -0.0002230939280707389 0.0017064266139641404 5.0010159611701965e-05
v -0.0002230939280707389 0.0017064266139641404 5.0010159611701965e-05
v -0.0002230939280707389 0.0017064266139641404 5.0010159611701965e-05
v -0.0002230939280707389 0.0017064266139641404 5.0010159611701965e-05
v -0.0002230939280707389 0.0017064266139641404 -5.0010159611701965e-05
v -0.0002230939280707389 0.0017064266139641404 -5.0010159611701965e-05
v -0.0002230939280707389 0.0017064266139641404 -5.0010159611701965e-05
v -0.0002230939280707389 0.0017064266139641404 -5.0010159611701965e-05
v -0.0001849767577368766 0.0016885470831766725 5.0010159611701965e-05
v -0.0001849767577368766 0.0016885470831766725 5.0010159611701965e-05
v -0.0001849767577368766 0.0016885470831766725 5.0010159611701965e-05
v -0.0001849767577368766 0.0016885470831766725 -5.0010159611701965e-05
v -0.0001849767577368766 0.0016885470831766725 -5.0010159611701965e-05
v -0.0001849767577368766 0.0016885470831766725 -5.0010159611701965e-05
v -0.0001849767577368766 0.0016885470831766725 -5.0010159611701965e-05
v -0.00011818976054200903 0.0016326360637322068 5.0010159611701965e-05
v -0.00011818976054200903 0.0016326360637322068 5.0010159611701965e-05
v -0.00011818976054200903 0.0016326360637322068 5.0010159611701965e-05
v -0.00011818976054200903 0.0016326360637322068 -5.0010159611701965e-05
v -0.00011818976054200903 0.0016326360637322068 -5.0010159611701965e-05
v -7.560224184999242e-05 0.0015597973251715302 5.0010159611701965e-05
v -7.560224184999242e-05 0.0015597973251715302 5.0010159611701965e-05
v -7.560224184999242e-05 0.0015597973251715302 5.0010159611701965e-05
v -7.560224184999242e-05 0.0015597973251715302 -5.0010159611701965e-05
v -7.560224184999242e-05 0.0015597973251715302 -5.0010159611701965e-05
v -7.560224184999242e-05 0.0015597973251715302 -5.0010159611701965e-05
v -7.560224184999242e-05 0.0015597973251715302 -5.0010159611701965e-05
v -6.490320811280981e-05 0.0015224270755425096 5.0010159611701965e-05
v -6.490320811280981e-05 0.0015224270755425096 5.0010159611701965e-05
v -6.490320811280981e-05 0.0015224270755425096 -5.0010159611701965e-05
v -6.490320811280981e-05 0.0015224270755425096 -5.0010159611701965e-05
v -6.490320811280981e-05 0.0015224270755425096 -5.0010159611701965e-05
v -6.350249896058813e-05 0.001512946211732924 -5.0010159611701965e-05
v -6.350249896058813e-05 0.001512946211732924 -5.0010159611701965e-05
v -6.350249896058813e-05 0.001512946211732924 -5.0010159611701965e-05
v -6.350249896058813e-05 0.001512946211732924 5.0010159611701965e-05
v -6.350249896058813e-05 0.001512946211732924 5.0010159611701965e-05
v -6.350249896058813e-05 0.001512946211732924 5.0010159611701965e-05
v -6.350249896058813e-05 0.001512946211732924 5.0010159611701965e-05
v 7.841616024961695e-05 0.0008143276209011674 -5.0010159611701965e-05
v 7.841616024961695e-05 0.0008143276209011674 -5.0010159611701965e-05
v 7.841616024961695e-05 0.0008143276209011674 -5.0010159611701965e-05
v 7.841616024961695e-05 0.0008143276209011674 5.0010159611701965e-05
v 7.841616024961695e-05 0.0008143276209011674 5.0010159611701965e-05
v 7.841616024961695e-05 0.0008143276209011674 5.0010159611701965e-05
v 7.841616024961695e-05 0.0008143276209011674 5.0010159611701965e-05
v 0.00012732177856378257 0.000571256154216826 -5.0010159611701965e-05
v 0.00012732177856378257 0.000571256154216826 -5.0010159611701965e-05
v 0.00012732177856378257 0.000571256154216826 5.0010159611701965e-05
v 0.00012732177856378257 0.000571256154216826 5.0010159611701965e-05
v 0.00012732177856378257 0.000571256154216826 5.0010159611701965e-05
v 0.00013361006858758628 0.0005477160448208451 -5.0010159611701965e-05
v 0.00013361006858758628 0.0005477160448208451 -5.0010159611701965e-05
v 0.00013361006858758628 0.0005477160448208451 5.0010159611701965e-05
v 0.00013361006858758628 0.0005477160448208451 5.0010159611701965e-05
v 0.00013361006858758628 0.0005477160448208451 5.0010159611701965e-05
v 0.00013361006858758628 0.0005477160448208451 5.0010159611701965e-05
v 0.00013849764945916831 0.0005258970195427537 -5.0010159611701965e-05
v 0.00013849764945916831 0.0005258970195427537 -5.0010159611701965e-05
v 0.00013849764945916831 0.0005258970195427537 -5.0010159611701965e-05
v 0.00013849764945916831 0.0005258970195427537 -5.0010159611701965e-05
v 0.00013849764945916831 0.0005258970195427537 5.0010159611701965e-05
v 0.00013849764945916831 0.0005258970195427537 5.0010159611701965e-05
v 0.00013849764945916831 0.0005258970195427537 5.0010159611701965e-05
v 0.00018731385353021324 0.000318357371725142 -5.0010159611701965e-05
v 0.00018731385353021324 0.000318357371725142 -5.0010159611701965e-05
v 0.00018731385353021324 0.000318357371725142 -5.0010159611701965e-05
v 0.00018731385353021324 0.000318357371725142 -5.0010159611701965e-05
v 0.00018731385353021324 0.000318357371725142 -5.0010159611701965e-05
v 0.00018731385353021324 0.000318357371725142 -5.0010159611701965e-05
v 0.00018731385353021324 0.000318357371725142 -5.0010159611701965e-05
v 0.00018731385353021324 0.000318357371725142 -5.0010159611701965e-05
v 0.00018731385353021324 0.000318357371725142 5.0010159611701965e-05
v 0.00018731385353021324 0.000318357371725142 5.0010159611701965e-05
v 0.00018731385353021324 0.000318357371725142 5.0010159611701965e-05
v 0.00018731385353021324 0.000318357371725142 5.0010159611701965e-05
v 0.00018731385353021324 0.000318357371725142 5.0010159611701965e-05
v 0.00018731385353021324 0.000318357371725142 5.0010159611701965e-05
v 0.00018731385353021324 0.000318357371725142 5.0010159611701965e-05
v 0.0002098146069329232 0.0003256868803873658 -5.0010159611701965e-05
v 0.0002098146069329232 0.0003256868803873658 -5.0010159611701965e-05
v 0.0002098146069329232 0.0003256868803873658 -5.0010159611701965e-05
v 0.0002098146069329232 0.0003256868803873658 -5.0010159611701965e-05
v 0.0002098146069329232 0.0003256868803873658 -5.0010159611701965e-05
v 0.0002098146069329232 0.0003256868803873658 5.0010159611701965e-05
v 0.0002098146069329232 0.0003256868803873658 5.0010159611701965e-05
v 0.0002098146069329232 0.0003256868803873658 5.0010159611701965e-05
v 0.0002098146069329232 0.0003256868803873658 5.0010159611701965e-05
v 0.0006576242740266025 0.000479526468552649 -5.0010159611701965e-05
v 0.0006576242740266025 0.000479526468552649 -5.0010159611701965e-05
v 0.0006576242740266025 0.000479526468552649 -5.0010159611701965e-05
v 0.0006576242740266025 0.000479526468552649 5.0010159611701965e-05
v 0.0006576242740266025 0.000479526468552649 5.0010159611701965e-05
v 0.0006576242740266025 0.000479526468552649 5.0010159611701965e-05
v 0.0013317230623215437 0.0007113866740837693 -5.0010159611701965e-05
v 0.0013317230623215437 0.0007113866740837693 -5.0010159611701965e-05
v 0.0013317230623215437 0.0007113866740837693 -5.0010159611701965e-05
v 0.0013317230623215437 0.0007113866740837693 -5.0010159611701965e-05
v 0.0013317230623215437 0.0007113866740837693 5.0010159611701965e-05
v 0.0013317230623215437 0.0007113866740837693 5.0010159611701965e-05
v 0.0013408127706497908 0.0007149070734158158 -5.0010159611701965e-05
v 0.0013408127706497908 0.0007149070734158158 -5.0010159611701965e-05
v 0.0013408127706497908 0.0007149070734158158 -5.0010159611701965e-05
v 0.0013408127706497908 0.0007149070734158158 5.0010159611701965e-05
v 0.0013408127706497908 0.0007149070734158158 5.0010159611701965e-05
v 0.0014275971334427595 0.0007278971606865525 5.0010159611701965e-05
v 0.0014275971334427595 0.0007278971606865525 5.0010159611701965e-05
v 0.0014275971334427595 0.0007278971606865525 -5.0010159611701965e-05
v 0.0014275971334427595 0.0007278971606865525 -5.0010159611701965e-05
v 0.0014275971334427595 0.0007278971606865525 -5.0010159611701965e-05
v 0.0015152159612625837 0.0007091775769367814 5.0010159611701965e-05
v 0.0015152159612625837 0.0007091775769367814 5.0010159611701965e-05
v 0.0015152159612625837 0.0007091775769367814 5.0010159611701965e-05
v 0.0015152159612625837 0.0007091775769367814 -5.0010159611701965e-05
v 0.0015152159612625837 0.0007091775769367814 -5.0010159611701965e-05
v 0.0015152159612625837 0.0007091775769367814 -5.0010159611701965e-05
v 0.0015448990743607283 0.0006945166969671845 5.0010159611701965e-05
v 0.0015448990743607283 0.0006945166969671845 5.0010159611701965e-05
v 0.0015448990743607283 0.0006945166969671845 5.0010159611701965e-05
v 0.0015448990743607283 0.0006945166969671845 5.0010159611701965e-05
v 0.0015448990743607283 0.0006945166969671845 -5.0010159611701965e-05
v 0.0015448990743607283 0.0006945166969671845 -5.0010159611701965e-05
v 0.0015448990743607283 0.0006945166969671845 -5.0010159611701965e-05
v 0.0015448990743607283 0.0006945166969671845 -5.0010159611701965e-05
v 0.0015448990743607283 0.0006945166969671845 -5.0010159611701965e-05
v 0.0016112092416733503 0.0006393265211954713 5.0010159611701965e-05
v 0.0016112092416733503 0.0006393265211954713 5.0010159611701965e-05
v 0.0016112092416733503 0.0006393265211954713 5.0010159611701965e-05
v 0.0016112092416733503 0.0006393265211954713 -5.0010159611701965e-05
v 0.0016112092416733503 0.0006393265211954713 -5.0010159611701965e-05
v 0.0016112092416733503 0.0006393265211954713 -5.0010159611701965e-05
v 0.0016112092416733503 0.0006393265211954713 -5.0010159611701965e-05
v 0.001653796760365367 0.0005671471590176225 5.0010159611701965e-05
v 0.001653796760365367 0.0005671471590176225 5.0010159611701965e-05
v 0.001653796760365367 0.0005671471590176225 5.0010159611701965e-05
v 0.001653796760365367 0.0005671471590176225 -5.0010159611701965e-05
v 0.001653796760365367 0.0005671471590176225 -5.0010159611701965e-05
v 0.001670217840000987 0.0004804764175787568 5.0010159611701965e-05
v 0.001670217840000987 0.0004804764175787568 5.0010159611701965e-05
v 0.001670217840000987 0.0004804764175787568 -5.0010159611701965e-05
v 0.001670217840000987 0.0004804764175787568 -5.0010159611701965e-05
v 0.001670217840000987 0.0004804764175787568 -5.0010159611701965e-05
v 0.0016548994462937117 0.00039214605931192636 5.0010159611701965e-05
v 0.0016548994462937117 0.00039214605931192636 5.0010159611701965e-05
v 0.0016548994462937117 0.00039214605931192636 5.0010159611701965e-05
v 0.0016548994462937117 0.00039214605931192636 5.0010159611701965e-05
v 0.0016548994462937117 0.00039214605931192636 5.0010159611701965e-05
v 0.0016548994462937117 0.00039214605931192636 -5.0010159611701965e-05
v 0.0016548994462937117 0.00039214605931192636 -5.0010159611701965e-05
v 0.0016548994462937117 0.00039214605931192636 -5.0010159611701965e-05
v 0.0016548994462937117 0.00039214605931192636 -5.0010159611701965e-05
v 0.0016368988435715437 0.00035381654743105173 5.0010159611701965e-05
v 0.0016368988435715437 0.00035381654743105173 5.0010159611701965e-05
v 0.0016368988435715437 0.00035381654743105173 5.0010159611701965e-05
v 0.0016368988435715437 0.00035381654743105173 -5.0010159611701965e-05
v 0.0016368988435715437 0.00035381654743105173 -5.0010159611701965e-05
v 0.0016368988435715437 0.00035381654743105173 -5.0010159611701965e-05
v 0.0016368988435715437 0.00035381654743105173 -5.0010159611701965e-05
v 0.001582002965733409 0.00028789753559976816 5.0010159611701965e-05
v 0.001582002965733409 0.00028789753559976816 5.0010159611701965e-05
v 0.001582002965733409 0.00028789753559976816 -5.0010159611701965e-05
v 0.001582002965733409 0.00028789753559976816 -5.0010159611701965e-05
v 0.001510000554844737 0.0002455763751640916 5.0010159611701965e-05
v 0.001510000554844737 0.0002455763751640916 5.0010159611701965e-05
v 0.001510000554844737 0.0002455763751640916 5.0010159611701965e-05
v 0.001510000554844737 0.0002455763751640916 -5.0010159611701965e-05
v 0.001510000554844737 0.0002455763751640916 -5.0010159611701965e-05
v 0.001510000554844737 0.0002455763751640916 -5.0010159611701965e-05
v 0.001510000554844737 0.0002455763751640916 -5.0010159611701965e-05
v 0.001510000554844737 0.0002455763751640916 -5.0010159611701965e-05
v 0.001510000554844737 0.0002455763751640916 -5.0010159611701965e-05
v 0.001510000554844737 0.0002455763751640916 -5.0010159611701965e-05
v 0.001510000554844737 0.0002455763751640916 -5.0010159611701965e-05
v 0.0014554027002304792 0.00023156742099672556 5.0010159611701965e-05
v 0.0014554027002304792 0.00023156742099672556 5.0010159611701965e-05
v 0.0014554027002304792 0.00023156742099672556 -5.0010159611701965e-05
v 0.0014554027002304792 0.00023156742099672556 -5.0010159611701965e-05
v 0.0014554027002304792 0.00023156742099672556 -5.0010159611701965e-05
v 0.0014554027002304792 0.00023156742099672556 -5.0010159611701965e-05
v 0.0003693166363518685 -0.00013583374675363302 -5.0010159611701965e-05
v 0.0003693166363518685 -0.00013583374675363302 -5.0010159611701965e-05
v 0.0003693166363518685 -0.00013583374675363302 -5.0010159611701965e-05
v 0.0003693166363518685 -0.00013583374675363302 5.0010159611701965e-05
v 0.0003693166363518685 -0.00013583374675363302 5.0010159611701965e-05
v 0.0003693166363518685 -0.00013583374675363302 5.0010159611701965e-05
v 0.0003465178597252816 -0.0001445937668904662 5.0010159611701965e-05
v 0.0003465178597252816 -0.0001445937668904662 5.0010159611701965e-05
v 0.0003465178597252816 -0.0001445937668904662 5.0010159611701965e-05
v 0.0003465178597252816 -0.0001445937668904662 5.0010159611701965e-05
v 0.0003465178597252816 -0.0001445937668904662 -5.0010159611701965e-05
v 0.0003465178597252816 -0.0001445937668904662 -5.0010159611701965e-05
v 0.0003465178597252816 -0.0001445937668904662 -5.0010159611701965e-05
v 0.0003229144203942269 -0.00015198288019746542 5.0010159611701965e-05
v 0.0003229144203942269 -0.00015198288019746542 5.0010159611701965e-05
v 0.0003229144203942269 -0.00015198288019746542 5.0010159611701965e-05
v 0.0003229144203942269 -0.00015198288019746542 -5.0010159611701965e-05
v 0.0003229144203942269 -0.00015198288019746542 -5.0010159611701965e-05
v 0.0003229144203942269 -0.00015198288019746542 -5.0010159611701965e-05
v 0.00030610591056756675 -0.00015848351176828146 5.0010159611701965e-05
v 0.00030610591056756675 -0.00015848351176828146 5.0010159611701965e-05
v 0.00030610591056756675 -0.00015848351176828146 5.0010159611701965e-05
v 0.00030610591056756675 -0.00015848351176828146 -5.0010159611701965e-05
v 0.00030610591056756675 -0.00015848351176828146 -5.0010159611701965e-05
v 0.00030610591056756675 -0.00015848351176828146 -5.0010159611701965e-05
v 0.00028890997054986656 -0.00016396341379731894 5.0010159611701965e-05
v 0.00028890997054986656 -0.00016396341379731894 5.0010159611701965e-05
v 0.00028890997054986656 -0.00016396341379731894 5.0010159611701965e-05
v 0.00028890997054986656 -0.00016396341379731894 5.0010159611701965e-05
v 0.00028890997054986656 -0.00016396341379731894 5.0010159611701965e-05
v 0.00028890997054986656 -0.00016396341379731894 -5.0010159611701965e-05
v 0.00028890997054986656 -0.00016396341379731894 -5.0010159611701965e-05
v 0.00028890997054986656 -0.00016396341379731894 -5.0010159611701965e-05
v 0.00028890997054986656 -0.00016396341379731894 -5.0010159611701965e-05
v 0.00028890997054986656 -0.00016396341379731894 -5.0010159611701965e-05
v 0.0002944234001915902 -0.0001811332767829299 5.0010159611701965e-05
v 0.0002944234001915902 -0.0001811332767829299 5.0010159611701965e-05
v 0.0002944234001915902 -0.0001811332767829299 5.0010159611701965e-05
v 0.0002944234001915902 -0.0001811332767829299 -5.0010159611701965e-05
v 0.0002944234001915902 -0.0001811332767829299 -5.0010159611701965e-05
v 0.0002944234001915902 -0.0001811332767829299 -5.0010159611701965e-05
v 0.00029969841125421226 -0.00020044331904500723 5.0010159611701965e-05
v 0.00029969841125421226 -0.00020044331904500723 5.0010159611701965e-05
v 0.00029969841125421226 -0.00020044331904500723 -5.0010159611701965e-05
v 0.00029969841125421226 -0.00020044331904500723 -5.0010159611701965e-05
v 0.00029969841125421226 -0.00020044331904500723 -5.0010159611701965e-05
v 0.00030992060783319175 -0.0002503324067220092 -5.0010159611701965e-05
v 0.00030992060783319175 -0.0002503324067220092 -5.0010159611701965e-05
v 0.00030992060783319175 -0.0002503324067220092 -5.0010159611701965e-05
v 0.00030992060783319175 -0.0002503324067220092 -5.0010159611701965e-05
v 0.00030992060783319175 -0.0002503324067220092 -5.0010159611701965e-05
v 0.00030992060783319175 -0.0002503324067220092 -5.0010159611701965e-05
v 0.00030992060783319175 -0.0002503324067220092 5.0010159611701965e-05
v 0.00030992060783319175 -0.0002503324067220092 5.0010159611701965e-05
v 0.00030992060783319175 -0.0002503324067220092 5.0010159611701965e-05
v 0.00030992060783319175 -0.0002503324067220092 5.0010159611701965e-05
v 0.0003390076744835824 -0.00038802286144346 -5.0010159611701965e-05
v 0.0003390076744835824 -0.00038802286144346 -5.0010159611701965e-05
v 0.0003390076744835824 -0.00038802286144346 -5.0010159611701965e-05
v 0.0003390076744835824 -0.00038802286144346 -5.0010159611701965e-05
v 0.0003390076744835824 -0.00038802286144346 -5.0010159611701965e-05
v 0.0003390076744835824 -0.00038802286144346 -5.0010159611701965e-05
v 0.0003390076744835824 -0.00038802286144346 5.0010159611701965e-05
v 0.0003390076744835824 -0.00038802286144346 5.0010159611701965e-05
v 0.0003390076744835824 -0.00038802286144346 5.0010159611701965e-05
v 0.0003390076744835824 -0.00038802286144346 5.0010159611701965e-05
v 0.0003390076744835824 -0.00038802286144346 5.0010159611701965e-05
v 0.0003390076744835824 -0.00038802286144346 5.0010159611701965e-05
v 0.0003559055912774056 -0.0004692025249823928 -5.0010159611701965e-05
v 0.0003559055912774056 -0.0004692025249823928 -5.0010159611701965e-05
v 0.0003559055912774056 -0.0004692025249823928 -5.0010159611701965e-05
v 0.0003559055912774056 -0.0004692025249823928 -5.0010159611701965e-05
v 0.0003559055912774056 -0.0004692025249823928 -5.0010159611701965e-05
v 0.0003559055912774056 -0.0004692025249823928 -5.0010159611701965e-05
v 0.0003559055912774056 -0.0004692025249823928 5.0010159611701965e-05
v 0.0003559055912774056 -0.0004692025249823928 5.0010159611701965e-05
v 0.0003559055912774056 -0.0004692025249823928 5.0010159611701965e-05
v 0.0003559055912774056 -0.0004692025249823928 5.0010159611701965e-05
v 0.0003559055912774056 -0.0004692025249823928 5.0010159611701965e-05
v 0.0003559055912774056 -0.0004692025249823928 5.0010159611701965e-05
v 0.0003559055912774056 -0.0004692025249823928 5.0010159611701965e-05
v 0.000553018122445792 -0.0014168530469760299 -5.0010159611701965e-05
v 0.000553018122445792 -0.0014168530469760299 -5.0010159611701965e-05
v 0.000553018122445792 -0.0014168530469760299 -5.0010159611701965e-05
v 0.000553018122445792 -0.0014168530469760299 -5.0010159611701965e-05
v 0.000553018122445792 -0.0014168530469760299 5.0010159611701965e-05
v 0.000553018122445792 -0.0014168530469760299 5.0010159611701965e-05
v 0.000553018122445792 -0.0014168530469760299 5.0010159611701965e-05
v 0.000553018122445792 -0.0014168530469760299 5.0010159611701965e-05
v 0.0005551042850129306 -0.0014281229814514518 -5.0010159611701965e-05
v 0.0005551042850129306 -0.0014281229814514518 -5.0010159611701965e-05
v 0.0005551042850129306 -0.0014281229814514518 -5.0010159611701965e-05
v 0.0005551042850129306 -0.0014281229814514518 -5.0010159611701965e-05
v 0.0005551042850129306 -0.0014281229814514518 5.0010159611701965e-05
v 0.0005551042850129306 -0.0014281229814514518 5.0010159611701965e-05
v 0.0005551042850129306 -0.0014281229814514518 5.0010159611701965e-05
v 0.0005551042850129306 -0.0014281229814514518 5.0010159611701965e-05
v 0.0005551042850129306 -0.0014281229814514518 5.0010159611701965e-05
v 0.0005558195407502353 -0.001513532712124288 5.0010159611701965e-05
v 0.0005558195407502353 -0.001513532712124288 5.0010159611701965e-05
v 0.0005558195407502353 -0.001513532712124288 -5.0010159611701965e-05
v 0.0005558195407502353 -0.001513532712124288 -5.0010159611701965e-05
v 0.0005558195407502353 -0.001513532712124288 -5.0010159611701965e-05
v 0.0005558195407502353 -0.001513532712124288 -5.0010159611701965e-05
f 1 3 5
f 1 5 11
f 11 5 14
f 11 14 16
f 16 14 17
f 16 17 21
f 21 17 25
f 21 25 27
f 27 25 32
f 27 32 36
f 36 32 37
f 36 37 40
f 40 37 43
f 40 43 46
f 46 43 48
f 46 48 52
f 54 52 57
f 57 52 48
f 61 54 64
f 64 54 57
f 69 61 72
f 72 61 64
f 77 68 82
f 81 69 72
f 89 74 94
f 93 75 84
f 102 87 111
f 107 88 95
f 118 100 121
f 123 101 108
f 128 114 134
f 132 115 120
f 140 125 141
f 141 125 136
f 144 140 148
f 148 140 141
f 144 148 150
f 144 150 153
f 153 150 155
f 153 155 161
f 161 155 162
f 161 162 167
f 167 162 172
f 167 172 174
f 174 172 179
f 174 179 182
f 182 179 183
f 182 183 187
f 187 183 192
f 187 192 193
f 193 192 199
f 193 199 202
f 202 199 204
f 202 204 206
f 206 204 211
f 206 211 217
f 217 211 220
f 217 220 225
f 229 225 230
f 230 225 220
f 229 230 233
f 229 233 236
f 236 233 241
f 236 241 245
f 245 241 249
f 245 249 253
f 253 249 256
f 253 256 257
f 261 254 262
f 261 262 267
f 267 262 269
f 267 269 273
f 273 269 274
f 274 269 281
f 283 278 292
f 288 275 279
f 295 286 299
f 300 285 287
f 307 296 308
f 308 296 303
f 315 307 317
f 317 307 308
f 315 317 321
f 315 321 325
f 325 321 326
f 325 326 330
f 330 326 334
f 330 334 337
f 337 334 338
f 337 338 341
f 341 338 343
f 341 343 345
f 345 343 350
f 345 350 353
f 353 350 357
f 353 357 359
f 359 357 363
f 359 363 367
f 367 363 368
f 367 368 373
f 373 368 375
f 373 375 378
f 381 378 385
f 385 378 375
f 387 381 392
f 392 381 385
f 395 387 397
f 397 387 392
f 399 395 403
f 403 395 397
f 407 399 410
f 410 399 403
f 415 405 424
f 420 407 410
f 427 419 434
f 434 419 425
f 436 427 439
f 439 427 434
f 442 436 446
f 446 436 439
f 449 442 452
f 452 442 446
f 449 452 454
f 449 454 455
f 455 454 458
f 455 458 463
f 463 458 466
f 463 466 470
f 470 466 473
f 470 473 478
f 478 473 481
f 478 481 483
f 483 481 485
f 483 485 488
f 488 485 492
f 488 492 498
f 498 492 501
f 498 501 502
f 502 501 507
f 502 507 509
f 509 507 511
f 509 511 519
f 519 511 521
f 519 521 525
f 528 525 531
f 531 525 521
f 528 531 533
f 528 533 537
f 537 533 540
f 537 540 545
f 545 540 547
f 545 547 549
f 549 547 552
f 549 552 559
f 560 556 562
f 560 562 567
f 567 562 568
f 567 568 570
f 574 570 579
f 579 570 568
f 587 573 589
f 589 577 582
f 598 586 605
f 604 588 590
f 610 595 614
f 614 595 603
f 619 610 621
f 621 610 614
f 619 621 625
f 619 625 630
f 630 625 3
f 630 3 1
f 372 379 313
f 314 377 382
f 514 445 450
f 561 430 550
f 551 431 543
f 417 431 557
f 414 558 103
f 104 557 565
f 97 566 572
f 227 127 224
f 223 129 137
f 226 139 216
f 219 138 146
f 306 316 380
f 306 380 389
f 305 388 294
f 444 513 526
f 443 523 438
f 437 524 529
f 437 529 431
f 429 527 538
f 428 539 544
f 51 611 616
f 53 617 45
f 228 237 129
f 126 238 246
f 129 244 117
f 116 243 252
f 117 251 104
f 99 250 260
f 96 259 416
f 418 258 265
f 413 266 272
f 417 271 276
f 412 277 408
f 406 276 284
f 406 284 400
f 400 284 297
f 400 297 394
f 394 297 389
f 62 596 56
f 55 600 608
f 56 609 53
f 98 571 575
f 105 576 85
f 90 578 583
f 86 584 78
f 79 585 599
f 76 596 70
f 67 597 63
f 145 152 214
f 212 154 160
f 218 159 169
f 448 457 515
f 516 456 462
f 518 461 468
f 181 186 176
f 175 185 195
f 177 196 170
f 166 194 203
f 168 201 213
f 215 200 207
f 342 346 336
f 336 346 355
f 336 355 332
f 484 489 479
f 477 487 497
f 476 496 471
f 469 495 505
f 472 504 520
f 517 503 508
f 366 371 362
f 361 374 312
f 360 316 355
f 354 311 324
f 352 323 331
f 15 19 10
f 9 20 26
f 2 8 628
f 627 7 29
f 629 28 617
f 618 30 35
f 617 34 45
f 45 34 41
f 522 447 440
f 386 376 370
f 143 209 149
f 593 580 110
f 109 581 569
f 433 555 548
f 569 563 109
f 113 564 553
f 109 554 422
f 422 554 432
f 522 440 532
f 73 602 83
f 80 601 591
f 83 592 91
f 92 594 106
f 71 65 607
f 602 66 58
f 606 59 613
f 615 60 50
f 546 541 432
f 435 542 536
f 432 535 440
f 441 534 530
f 329 322 319
f 291 280 422
f 423 282 270
f 240 119 248
f 247 124 112
f 248 109 255
f 255 109 422
f 255 422 264
f 263 421 268
f 239 130 122
f 506 464 510
f 512 467 459
f 319 310 386
f 386 310 393
f 390 309 302
f 242 234 135
f 133 235 232
f 131 231 143
f 143 231 221
f 142 222 210
f 612 49 622
f 623 47 42
f 622 44 38
f 447 522 510
f 447 510 451
f 451 510 460
f 451 460 453
f 426 411 290
f 289 409 402
f 293 401 298
f 304 404 396
f 301 398 391
f 151 147 158
f 156 149 209
f 157 208 165
f 164 209 205
f 490 486 480
f 190 184 180
f 506 499 464
f 465 500 491
f 464 493 475
f 474 494 482
f 344 339 347
f 348 340 333
f 205 197 164
f 163 198 189
f 164 191 171
f 173 188 178
f 18 12 22
f 23 13 6
f 23 6 4
f 335 327 349
f 351 328 318
f 348 319 356
f 358 320 384
f 356 386 364
f 365 383 369
f 39 31 620
f 624 33 24
f 622 23 626
f 626 23 4
