mtllib converted_link3_5_969696ff.mtl
usemtl material
v 0.0006062616012059152 0.0009061875753104687 -3.402049696887843e-05
v 0.0006062616012059152 0.0009061875753104687 -3.402049696887843e-05
v 0.0006198663613758981 0.000906545203179121 -3.5089655284537e-05
v 0.0006198663613758981 0.000906545203179121 -3.5089655284537e-05
v 0.0006198663613758981 0.000906545203179121 -3.5089655284537e-05
v 0.0006198663613758981 0.000906545203179121 -3.5089655284537e-05
v 0.0006198663613758981 0.000906545203179121 -3.5089655284537e-05
v 0.0006198663613758981 0.000906545203179121 -3.5089655284537e-05
v -0.0013865376822650433 0.00028868718072772026 0.00011308004468446597
v -0.0013865376822650433 0.00028868718072772026 0.00011308004468446597
v -0.0013865376822650433 0.00028868718072772026 0.00011308004468446597
v -0.0013865376822650433 0.00028868718072772026 0.00011308004468446597
v -0.0013865376822650433 0.00028868718072772026 0.00011308004468446597
v -0.0013865376822650433 0.00028868718072772026 0.00011308004468446597
v -0.0013865376822650433 0.00028868718072772026 0.00011308004468446597
v -0.0013865376822650433 0.00028868718072772026 0.00011308004468446597
v -0.0013865376822650433 0.00028868718072772026 0.00011308004468446597
v -0.0013865376822650433 0.00028868718072772026 0.00011308004468446597
v -0.0013865376822650433 0.00028868718072772026 0.00011308004468446597
v 0.00019026589870918542 0.002341646235436201 2.0040915842400864e-05
v 0.00019026589870918542 0.002341646235436201 2.0040915842400864e-05
v -4.6237881178967655e-05 0.002388495486229658 3.9289490814553574e-05
v -4.6237881178967655e-05 0.002388495486229658 3.9289490814553574e-05
v -0.0006569396355189383 0.0037573757581412792 0.00010765974730020389
v -0.0006569396355189383 0.0037573757581412792 0.00010765974730020389
v -0.0006569396355189383 0.0037573757581412792 0.00010765974730020389
v -0.0006569396355189383 0.0037573757581412792 0.00010765974730020389
v -0.0006569396355189383 0.0037573757581412792 0.00010765974730020389
v -0.0006569396355189383 0.0037573757581412792 0.00010765974730020389
v -0.00028313652728684247 0.0024326066486537457 5.8539928431855515e-05
v -0.00028313652728684247 0.0024326066486537457 5.8539928431855515e-05
v -0.0005226354696787894 0.0024318876676261425 7.732098310953006e-05
v -0.0005226354696787894 0.0024318876676261425 7.732098310953006e-05
v -0.0005226354696787894 0.0024318876676261425 7.732098310953006e-05
v -0.0009881327860057354 0.0037509980611503124 0.00013353001850191504
v -0.0009881327860057354 0.0037509980611503124 0.00013353001850191504
v -0.0009881327860057354 0.0037509980611503124 0.00013353001850191504
v -0.0007424350478686392 0.0023356261663138866 9.311993926530704e-05
v -0.0007424350478686392 0.0023356261663138866 9.311993926530704e-05
v -0.0007424350478686392 0.0023356261663138866 9.311993926530704e-05
v -0.0007424350478686392 0.0023356261663138866 9.311993926530704e-05
v -0.0007424350478686392 0.0023356261663138866 9.311993926530704e-05
v -0.0013015340082347393 0.0036829370073974133 0.00015712973254267126
v -0.0013015340082347393 0.0036829370073974133 0.00015712973254267126
v 0.0005883653066121042 0.0009085754863917828 -3.258998549426906e-05
v 0.0005883653066121042 0.0009085754863917828 -3.258998549426906e-05
v -0.0009393389918841422 0.0020359973423182964 0.00010407974332338199
v -0.0009393389918841422 0.0020359973423182964 0.00010407974332338199
v -0.0009393389918841422 0.0020359973423182964 0.00010407974332338199
v -0.0009393389918841422 0.0020359973423182964 0.00010407974332338199
v -0.0022388393990695477 0.002685807179659605 0.00021572109835688025
v -0.0022388393990695477 0.002685807179659605 0.00021572109835688025
v -0.0022388393990695477 0.002685807179659605 0.00021572109835688025
v -0.000868439266923815 0.002204436343163252 0.00010103990643983707
v -0.000868439266923815 0.002204436343163252 0.00010103990643983707
v -0.000868439266923815 0.002204436343163252 0.00010103990643983707
v -0.0019972394220530987 0.0031783166341483593 0.0002041596599156037
v -0.0019972394220530987 0.0031783166341483593 0.0002041596599156037
v -0.0019972394220530987 0.0031783166341483593 0.0002041596599156037
v -0.0015929336659610271 0.003548226784914732 0.00017792989092413336
v -0.0015929336659610271 0.003548226784914732 0.00017792989092413336
v -0.0014302353374660015 0.0003310064785182476 0.00011714061110978946
v -0.0014302353374660015 0.0003310064785182476 0.00011714061110978946
v -0.0017126346938312054 0.0005402150563895702 0.00014241111057344824
v -0.0017126346938312054 0.0005402150563895702 0.00014241111057344824
v -0.0008010338642634451 0.001351195853203535 8.304116636281833e-05
v -0.0008010338642634451 0.001351195853203535 8.304116636281833e-05
v -0.0008010338642634451 0.001351195853203535 8.304116636281833e-05
v -0.0008010338642634451 0.001351195853203535 8.304116636281833e-05
v -0.0008010338642634451 0.001351195853203535 8.304116636281833e-05
v -0.0019491384737193584 0.0007997374050319195 0.00016482059436384588
v -0.0019491384737193584 0.0007997374050319195 0.00016482059436384588
v -0.0019491384737193584 0.0007997374050319195 0.00016482059436384588
v -0.0009584348299540579 0.0016886773519217968 0.00010038984328275546
v -0.0009584348299540579 0.0016886773519217968 0.00010038984328275546
v -0.0009584348299540579 0.0016886773519217968 0.00010038984328275546
v -0.002192534040659666 0.0012271548621356487 0.00019032951968256384
v -0.002192534040659666 0.0012271548621356487 0.00019032951968256384
v -0.002192534040659666 0.0012271548621356487 0.00019032951968256384
v -0.0009676362969912589 0.0018632072024047375 0.00010372025280958042
v -0.0009676362969912589 0.0018632072024047375 0.00010372025280958042
v -0.0009676362969912589 0.0018632072024047375 0.00010372025280958042
v -0.0023197378031909466 0.0017027477733790874 0.00020738017337862402
v -0.0023197378031909466 0.0017027477733790874 0.00020738017337862402
v -0.0023197378031909466 0.0017027477733790874 0.00020738017337862402
v -0.0023342366330325603 0.0021984162740409374 0.0002159595169359818
v -0.0023342366330325603 0.0021984162740409374 0.0002159595169359818
v 0.00219396548345685 0.003149706404656172 -0.0001250405184691772
v 0.00219396548345685 0.003149706404656172 -0.0001250405184691772
v 0.00219396548345685 0.003149706404656172 -0.0001250405184691772
v 0.002194561529904604 0.003130457829684019 -0.00012540000898297876
v 0.002194561529904604 0.003130457829684019 -0.00012540000898297876
v 0.0007212613127194345 0.0022305469028651714 -2.32301936193835e-05
v 0.0007212613127194345 0.0022305469028651714 -2.32301936193835e-05
v 0.0007212613127194345 0.0022305469028651714 -2.32301936193835e-05
v 0.0007212613127194345 0.0022305469028651714 -2.32301936193835e-05
v 0.0007212613127194345 0.0022305469028651714 -2.32301936193835e-05
v 0.0007212613127194345 0.0022305469028651714 -2.32301936193835e-05
v 0.0021819625981152058 0.002933527808636427 -0.00012729990703519434
v 0.0021819625981152058 0.002933527808636427 -0.00012729990703519434
v 0.0021819625981152058 0.002933527808636427 -0.00012729990703519434
v 0.0007324669859372079 0.0022148671559989452 -2.4370132450712845e-05
v 0.0007324669859372079 0.0022148671559989452 -2.4370132450712845e-05
v 0.0007324669859372079 0.0022148671559989452 -2.4370132450712845e-05
v 0.0007324669859372079 0.0022148671559989452 -2.4370132450712845e-05
v -0.0013961340300738811 0.0003054956905543804 0.00011410077422624454
v -0.0013961340300738811 0.0003054956905543804 0.00011410077422624454
v -0.0013961340300738811 0.0003054956905543804 0.00011410077422624454
v -0.0004976387717761099 0.0011362056247889996 5.598065399681218e-05
v -0.0004976387717761099 0.0011362056247889996 5.598065399681218e-05
v -0.0004976387717761099 0.0011362056247889996 5.598065399681218e-05
v -0.0004144381091464311 0.0011069360189139843 4.907024049316533e-05
v -0.0004144381091464311 0.0011069360189139843 4.907024049316533e-05
v -0.00032853291486389935 0.0010864357464015484 4.196983718429692e-05
v -0.00032853291486389935 0.0010864357464015484 4.196983718429692e-05
v -1.003550823952537e-05 -0.00010762409510789439 -8.188465585590166e-07
v -1.003550823952537e-05 -0.00010762409510789439 -8.188465585590166e-07
v -4.573869227897376e-05 -0.00010780290904222056 1.9807091575785307e-06
v -4.573869227897376e-05 -0.00010780290904222056 1.9807091575785307e-06
v -4.573869227897376e-05 -0.00010780290904222056 1.9807091575785307e-06
v 0.00212326692417264 0.0020982245914638042 -0.00013516958279069513
v 0.00212326692417264 0.0020982245914638042 -0.00013516958279069513
v 0.00212326692417264 0.0020982245914638042 -0.00013516958279069513
v 0.00212326692417264 0.0020982245914638042 -0.00013516958279069513
v 0.0007358644506894052 0.0021881680004298687 -2.502019560779445e-05
v 0.0007358644506894052 0.0021881680004298687 -2.502019560779445e-05
v 0.0007358644506894052 0.0021881680004298687 -2.502019560779445e-05
v 0.00214586453512311 0.0024174670688807964 -0.0001321893505519256
v 0.00214586453512311 0.0024174670688807964 -0.0001321893505519256
v 0.00214586453512311 0.0024174670688807964 -0.0001321893505519256
v 0.00216846214607358 0.00273670582100749 -0.00012920911831315607
v 0.00216846214607358 0.00273670582100749 -0.00012920911831315607
v 0.000549063493963331 -0.00022463547065854073 -4.6420125727308914e-05
v 0.000549063493963331 -0.00022463547065854073 -4.6420125727308914e-05
v 0.000549063493963331 -0.00022463547065854073 -4.6420125727308914e-05
v 0.0006322641274891794 0.0009111347608268261 -3.5989312891615555e-05
v 0.0006322641274891794 0.0009111347608268261 -3.5989312891615555e-05
v 0.0006322641274891794 0.0009111347608268261 -3.5989312891615555e-05
v 0.0006322641274891794 0.0009111347608268261 -3.5989312891615555e-05
v 0.0006322641274891794 0.0009111347608268261 -3.5989312891615555e-05
v 0.00197966443374753 2.982793921546545e-05 -0.00015483911556657404
v 0.00197966443374753 2.982793921546545e-05 -0.00015483911556657404
v 0.00197966443374753 2.982793921546545e-05 -0.00015483911556657404
v 0.00197966443374753 2.982793921546545e-05 -0.00015483911556657404
v 0.00197966443374753 2.982793921546545e-05 -0.00015483911556657404
v 0.00197966443374753 2.982793921546545e-05 -0.00015483911556657404
v 0.0006407652399502695 0.0009204964153468609 -3.652016675914638e-05
v 0.0006407652399502695 0.0009204964153468609 -3.652016675914638e-05
v 0.0006407652399502695 0.0009204964153468609 -3.652016675914638e-05
v 0.0006407652399502695 0.0009204964153468609 -3.652016675914638e-05
v 0.0020031635649502277 0.0003712358884513378 -0.00015155899745877832
v 0.0020031635649502277 0.0003712358884513378 -0.00015155899745877832
v 0.0021784608252346516 0.0031898277811706066 -0.00012325051648076624
v 0.0021302630193531513 0.0032282653264701366 -0.00011883976549142972
v 0.0021302630193531513 0.0032282653264701366 -0.00011883976549142972
v 0.0021302630193531513 0.0032282653264701366 -0.00011883976549142972
v 0.0020499606616795063 0.0032535376958549023 -0.0001121603199862875
v 0.0020499606616795063 0.0032535376958549023 -0.0001121603199862875
v 0.0020499606616795063 0.0032535376958549023 -0.0001121603199862875
v 0.0006793666980229318 0.002247236203402281 -1.9719107513083145e-05
v 0.0006793666980229318 0.002247236203402281 -1.9719107513083145e-05
v 0.0006793666980229318 0.002247236203402281 -1.9719107513083145e-05
v -0.0003292332694400102 0.003713387530297041 8.131076901918277e-05
v -0.0003292332694400102 0.003713387530297041 8.131076901918277e-05
v -0.0003292332694400102 0.003713387530297041 8.131076901918277e-05
v 0.000434764166129753 0.0022944468073546886 1.9070711232416215e-07
v 0.000434764166129753 0.0022944468073546886 1.9070711232416215e-07
v 0.000434764166129753 0.0022944468073546886 1.9070711232416215e-07
v 0.00012096059799659997 0.000998936127871275 5.4396409723267425e-06
v 0.00012096059799659997 0.000998936127871275 5.4396409723267425e-06
v 0.0005705658695660532 0.0009119766764342785 -3.115947401965968e-05
v 0.0005705658695660532 0.0009119766764342785 -3.115947401965968e-05
v -6.963270425330848e-05 -0.00012097553553758189 3.6496392112894682e-06
v -6.963270425330848e-05 -0.00012097553553758189 3.6496392112894682e-06
v -6.963270425330848e-05 -0.00012097553553758189 3.6496392112894682e-06
v -0.0013862396590411663 0.00027133477851748466 0.00011278015881543979
v -0.0013862396590411663 0.00027133477851748466 0.00011278015881543979
v -0.0013862396590411663 0.00027133477851748466 0.00011278015881543979
v -9.533720731269568e-05 -0.00015662284567952156 5.139755103300558e-06
v -9.533720731269568e-05 -0.00015662284567952156 5.139755103300558e-06
v -9.533720731269568e-05 -0.00015662284567952156 5.139755103300558e-06
v -0.0014042328111827374 0.00022967485710978508 0.00011356060713296756
v -0.0014042328111827374 0.00022967485710978508 0.00011356060713296756
v -0.0014042328111827374 0.00022967485710978508 0.00011356060713296756
v -0.0014042328111827374 0.00022967485710978508 0.00011356060713296756
v -0.0014042328111827374 0.00022967485710978508 0.00011356060713296756
v -0.0014042328111827374 0.00022967485710978508 0.00011356060713296756
v -0.0014042328111827374 0.00022967485710978508 0.00011356060713296756
v -0.00019043641805183142 -0.00033650221303105354 9.90998978522839e-06
v -0.00019043641805183142 -0.00033650221303105354 9.90998978522839e-06
v -0.00028543875669129193 -0.0005164523608982563 1.4680224012408871e-05
v -0.00028543875669129193 -0.0005164523608982563 1.4680224012408871e-05
v 0.0005108643672429025 -0.0009707626886665821 -5.458037412608974e-05
v 0.0005108643672429025 -0.0009707626886665821 -5.458037412608974e-05
v 0.0005108643672429025 -0.0009707626886665821 -5.458037412608974e-05
v 0.0005108643672429025 -0.0009707626886665821 -5.458037412608974e-05
v 0.0005481619737111032 -0.00044266553595662117 -4.963877654518001e-05
v 0.0005481619737111032 -0.00044266553595662117 -4.963877654518001e-05
v 0.0019299616105854511 -0.0006769751198589802 -0.00016152042371686548
v 0.0019299616105854511 -0.0006769751198589802 -0.00016152042371686548
v 0.0019299616105854511 -0.0006769751198589802 -0.00016152042371686548
v 0.0019299616105854511 -0.0006769751198589802 -0.00016152042371686548
v 0.0005545620224438608 -0.00035832496359944344 -4.886019087280147e-05
v 0.0005545620224438608 -0.00035832496359944344 -4.886019087280147e-05
v 0.0005545620224438608 -0.00035832496359944344 -4.886019087280147e-05
v 0.0019548614509403706 -0.0003235754556953907 -0.00015817883831914514
v 0.0019548614509403706 -0.0003235754556953907 -0.00015817883831914514
v 0.0019548614509403706 -0.0003235754556953907 -0.00015817883831914514
v 0.0005620647571049631 -0.0002741036005318165 -4.8210127715719864e-05
v 0.0005620647571049631 -0.0002741036005318165 -4.8210127715719864e-05
v 0.0005620647571049631 -0.0002741036005318165 -4.8210127715719864e-05
v 0.0005596656701527536 -0.00024155201390385628 -4.7489284042967483e-05
v 0.0005596656701527536 -0.00024155201390385628 -4.7489284042967483e-05
v 0.002099663484841585 0.0017568054609000683 -0.00013844970089849085
v 0.002099663484841585 0.0017568054609000683 -0.00013844970089849085
v 0.002099663484841585 0.0017568054609000683 -0.00013844970089849085
v 0.002099663484841585 0.0017568054609000683 -0.00013844970089849085
v 0.0007248599431477487 0.002043686341494322 -2.632963514770381e-05
v 0.0007248599431477487 0.002043686341494322 -2.632963514770381e-05
v 0.0007248599431477487 0.002043686341494322 -2.632963514770381e-05
v 0.0007303659222088754 0.0021159271709620953 -2.5679571990622208e-05
v 0.0007303659222088754 0.0021159271709620953 -2.5679571990622208e-05
v -0.002607836853712797 -0.0020904955454170704 0.00017334033327642828
v -0.002607836853712797 -0.0020904955454170704 0.00017334033327642828
v -0.002607836853712797 -0.0020904955454170704 0.00017334033327642828
v -0.002607836853712797 -0.0020904955454170704 0.00017334033327642828
v -0.002607836853712797 -0.0020904955454170704 0.00017334033327642828
v -0.002607836853712797 -0.0020904955454170704 0.00017334033327642828
v -0.002607836853712797 -0.0020904955454170704 0.00017334033327642828
v -0.002607836853712797 -0.0020904955454170704 0.00017334033327642828
v -0.002607836853712797 -0.0020904955454170704 0.00017334033327642828
v -0.002607836853712797 -0.0020904955454170704 0.00017334033327642828
v -0.002607836853712797 -0.0020904955454170704 0.00017334033327642828
v -0.002295739483088255 -0.0013260622508823872 0.0001602906413609162
v -0.002295739483088255 -0.0013260622508823872 0.0001602906413609162
v -0.002206734847277403 -0.0011703749187290668 0.0001555800117785111
v -0.002206734847277403 -0.0011703749187290668 0.0001555800117785111
v 0.001693763304501772 -0.002928235102444887 -0.0001766003988450393
v 0.000470564205897972 -0.00269113527610898 -7.712023943895474e-05
v 0.000470564205897972 -0.00269113527610898 -7.712023943895474e-05
v 0.001751862931996584 -0.0029032048769295216 -0.0001807689986890182
v 0.001751862931996584 -0.0029032048769295216 -0.0001807689986890182
v 0.001751862931996584 -0.0029032048769295216 -0.0001807689986890182
v 0.0004230667545925826 -0.0026451130397617817 -7.270018249982968e-05
v 0.0004230667545925826 -0.0026451130397617817 -7.270018249982968e-05
v 0.0004230667545925826 -0.0026451130397617817 -7.270018249982968e-05
v 0.0004230667545925826 -0.0026451130397617817 -7.270018249982968e-05
v 0.0019060601480305195 -0.0010204133577644825 -0.00016472976130899042
v 0.0019060601480305195 -0.0010204133577644825 -0.00016472976130899042
v 0.0018820618279278278 -0.0013637919910252094 -0.00016800987941678613
v 0.0018820618279278278 -0.0013637919910252094 -0.00016800987941678613
v 0.0018820618279278278 -0.0013637919910252094 -0.00016800987941678613
v 0.0004737605049740523 -0.0014988523907959461 -5.952942228759639e-05
v 0.0004737605049740523 -0.0014988523907959461 -5.952942228759639e-05
v 0.0004737605049740523 -0.0014988523907959461 -5.952942228759639e-05
v 0.0018576611764729023 -0.0017091450281441212 -0.00017123039287980646
v 0.0018576611764729023 -0.0017091450281441212 -0.00017123039287980646
v 0.0018576611764729023 -0.0017091450281441212 -0.00017123039287980646
v 0.00043916000868193805 -0.0019969125278294086 -6.429965287679806e-05
v 0.00043916000868193805 -0.0019969125278294086 -6.429965287679806e-05
v 0.00043916000868193805 -0.0019969125278294086 -6.429965287679806e-05
v 0.0018332605250179768 -0.00205455394461751 -0.00017451051098760217
v 0.0018332605250179768 -0.00205455394461751 -0.00017451051098760217
v 0.0018332605250179768 -0.00205455394461751 -0.00017451051098760217
v 0.0004038666083943099 -0.0024949130602180958 -6.894881516927853e-05
v 0.0004038666083943099 -0.0024949130602180958 -6.894881516927853e-05
v 0.0004038666083943099 -0.0024949130602180958 -6.894881516927853e-05
v 0.0018067662604153156 -0.0024381023831665516 -0.00017815011960919946
v 0.0018067662604153156 -0.0024381023831665516 -0.00017815011960919946
v 0.0018067662604153156 -0.0024381023831665516 -0.00017815011960919946
v 0.00040286078001372516 -0.0025817533023655415 -7.013904541963711e-05
v 0.00040286078001372516 -0.0025817533023655415 -7.013904541963711e-05
v 0.00040286078001372516 -0.0025817533023655415 -7.013904541963711e-05
v 0.0017798622138798237 -0.0028216619975864887 -0.0001817804150050506
v 0.0017798622138798237 -0.0028216619975864887 -0.0001817804150050506
v 0.0017798622138798237 -0.0028216619975864887 -0.0001817804150050506
v 0.0017681648023426533 -0.002883352804929018 -0.0001817804150050506
v 0.0017681648023426533 -0.002883352804929018 -0.0001817804150050506
v 0.0020265658386051655 0.0007125954143702984 -0.00014834034664090723
v 0.0020265658386051655 0.0007125954143702984 -0.00014834034664090723
v 0.0020265658386051655 0.0007125954143702984 -0.00014834034664090723
v 0.0006457645795308053 0.0009399275295436382 -3.657977140392177e-05
v 0.0006457645795308053 0.0009399275295436382 -3.657977140392177e-05
v 0.0006457645795308053 0.0009399275295436382 -3.657977140392177e-05
v 0.002051465678960085 0.0010640243999660015 -0.00014500993711408228
v 0.002051465678960085 0.0010640243999660015 -0.00014500993711408228
v 0.002051465678960085 0.0010640243999660015 -0.00014500993711408228
v 0.00066096376394853 0.0011667865328490734 -3.44395921274554e-05
v 0.00066096376394853 0.0011667865328490734 -3.44395921274554e-05
v 0.00066096376394853 0.0011667865328490734 -3.44395921274554e-05
v 0.0020762612111866474 0.0014153975062072277 -0.00014172981900628656
v 0.0020762612111866474 0.0014153975062072277 -0.00014172981900628656
v 0.0020762612111866474 0.0014153975062072277 -0.00014172981900628656
v 0.0006768633029423654 0.0013935747556388378 -3.2290099625242874e-05
v 0.0006768633029423654 0.0013935747556388378 -3.2290099625242874e-05
v 0.0006768633029423654 0.0013935747556388378 -3.2290099625242874e-05
v 0.000700764765497297 0.0017186547629535198 -2.9309867386473343e-05
v 0.000700764765497297 0.0017186547629535198 -2.9309867386473343e-05
v -0.0012549380771815777 -0.0023205620236694813 6.379072874551639e-05
v -0.0013130377046763897 -0.002345424611121416 6.79611912346445e-05
v -0.0013130377046763897 -0.002345424611121416 6.79611912346445e-05
v -0.001208833884447813 -0.0022660833783447742 6.092970215831883e-05
v -0.001208833884447813 -0.0022660833783447742 6.092970215831883e-05
v -0.001208833884447813 -0.0022660833783447742 6.092970215831883e-05
v -0.001208833884447813 -0.0022660833783447742 6.092970215831883e-05
v -0.002599440049380064 -0.0020960946567356586 0.0001725710608297959
v -0.002599440049380064 -0.0020960946567356586 0.0001725710608297959
v -0.0021177376620471478 -0.0010147434659302235 0.00015093084948603064
v -0.0021177376620471478 -0.0010147434659302235 0.00015093084948603064
v -0.0017608399502933025 -0.0003925939090549946 0.00013228018360678107
v -0.0017608399502933025 -0.0003925939090549946 0.00013228018360678107
v 0.0005294610164128244 -0.00021330313757061958 -4.4749333028448746e-05
v 0.0005294610164128244 -0.00021330313757061958 -4.4749333028448746e-05
v 0.0005146641633473337 -0.00020949216559529305 -4.3499498133314773e-05
v 0.0005146641633473337 -0.00020949216559529305 -4.3499498133314773e-05
v 0.0005146641633473337 -0.00020949216559529305 -4.3499498133314773e-05
v 0.0002520610287319869 -0.00015966268256306648 -2.21591726585757e-05
v 0.0002520610287319869 -0.00015966268256306648 -2.21591726585757e-05
v -0.0004791389510501176 -0.0008835052140057087 2.439019226585515e-05
v -0.0004791389510501176 -0.0008835052140057087 2.439019226585515e-05
v -0.0006728391745127738 -0.0012504835613071918 3.410947465454228e-05
v -0.0006728391745127738 -0.0012504835613071918 3.410947465454228e-05
v -0.0006728391745127738 -0.0012504835613071918 3.410947465454228e-05
v -0.0009413357474841177 -0.00175807299092412 4.7580124373780563e-05
v -0.0009413357474841177 -0.00175807299092412 4.7580124373780563e-05
v -0.0026651392690837383 -0.001977961976081133 0.00017947961168829352
v -0.0026651392690837383 -0.001977961976081133 0.00017947961168829352
v -0.0026564369909465313 -0.0019576926715672016 0.00017912012117449194
v -0.0026564369909465313 -0.0019576926715672016 0.00017912012117449194
v -0.0026164348237216473 -0.00208560423925519 0.00017406117694918066
v -0.0026164348237216473 -0.00208560423925519 0.00017406117694918066
v -0.0026164348237216473 -0.00208560423925519 0.00017406117694918066
v -0.0026164348237216473 -0.00208560423925519 0.00017406117694918066
v -0.0026164348237216473 -0.00208560423925519 0.00017406117694918066
v -0.0026164348237216473 -0.00208560423925519 0.00017406117694918066
v -0.0026458348147571087 -0.0019382019527256489 0.00017859112995211035
v -0.0026458348147571087 -0.0019382019527256489 0.00017859112995211035
v -0.0026458348147571087 -0.0019382019527256489 0.00017859112995211035
v -0.002470835577696562 -0.0016320724971592426 0.00016941015201155096
v -0.002470835577696562 -0.0016320724971592426 0.00016941015201155096
v -0.002657837700098753 -0.0020594452507793903 0.00017768960969988257
v -0.002671233844012022 -0.002036255318671465 0.00017912012117449194
v -0.002671233844012022 -0.002036255318671465 0.00017912012117449194
v -0.0026724333874881268 -0.0020067435689270496 0.00017960068362299353
v -0.0026724333874881268 -0.0020067435689270496 0.00017960068362299353
f 1 8 11
f 21 23 28
f 22 30 25
f 27 31 34
f 29 33 37
f 36 32 40
f 35 38 44
f 2 15 45
f 48 53 54
f 55 52 57
f 56 59 39
f 42 58 61
f 41 60 43
f 63 64 66
f 70 65 73
f 67 72 76
f 75 71 77
f 74 79 80
f 81 78 83
f 82 84 49
f 47 85 86
f 50 87 51
f 88 91 97
f 98 92 100
f 96 99 104
f 62 69 107
f 108 68 109
f 106 110 19
f 16 111 113
f 14 112 115
f 116 118 4
f 121 127 130
f 129 126 105
f 128 103 131
f 132 102 101
f 133 136 141
f 145 139 148
f 144 150 152
f 153 90 156
f 154 89 93
f 155 94 158
f 159 95 161
f 157 160 163
f 164 162 166
f 165 167 26
f 24 168 20
f 114 169 10
f 12 170 171
f 13 172 46
f 5 119 17
f 18 120 174
f 9 173 176
f 177 175 179
f 178 181 187
f 183 180 190
f 186 189 192
f 193 198 202
f 200 197 205
f 201 204 207
f 206 203 209
f 208 210 143
f 142 211 212
f 146 213 134
f 217 219 122
f 123 218 221
f 124 222 125
f 233 234 236
f 238 240 242
f 241 239 245
f 199 249 196
f 195 248 250
f 194 251 255
f 253 252 256
f 254 257 259
f 260 258 262
f 261 263 267
f 265 264 269
f 266 268 272
f 271 270 276
f 273 275 244
f 246 274 278
f 247 277 243
f 151 147 279
f 281 149 283
f 280 282 286
f 287 284 290
f 285 289 293
f 292 288 295
f 291 294 216
f 215 296 298
f 214 297 220
f 299 301 305
f 303 300 306
f 304 307 224
f 237 308 225
f 232 309 310
f 231 311 182
f 135 312 137
f 138 313 316
f 140 315 3
f 7 314 317
f 6 318 117
f 191 320 188
f 184 319 321
f 185 322 228
f 227 323 325
f 223 324 302
f 327 329 332
f 335 328 338
f 334 337 226
f 229 336 340
f 230 339 235
f 341 342 331
f 330 343 344
f 333 345 326
