mtllib converted_link2_19_d12626ff.mtl
usemtl material
v -0.0019505274249240756 0.0018781798426061869 -5.0010159611701965e-05
v -0.0019505274249240756 0.0018781798426061869 -5.0010159611701965e-05
v -0.0019505274249240756 0.0018781798426061869 -5.0010159611701965e-05
v -0.0019505274249240756 0.0018781798426061869 -5.0010159611701965e-05
v -0.0019505274249240756 0.0018781798426061869 -5.0010159611701965e-05
v -0.0019505274249240756 0.0018781798426061869 -5.0010159611701965e-05
v -0.0019505274249240756 0.0018781798426061869 5.0010159611701965e-05
v -0.0019505274249240756 0.0018781798426061869 5.0010159611701965e-05
v -0.0019505274249240756 0.0018781798426061869 5.0010159611701965e-05
v -0.0019505274249240756 0.0018781798426061869 5.0010159611701965e-05
v -0.0019505274249240756 0.0018781798426061869 5.0010159611701965e-05
v -0.0019505274249240756 0.0018781798426061869 5.0010159611701965e-05
v -0.0020123301073908806 0.0020053398329764605 5.0010159611701965e-05
v -0.0020123301073908806 0.0020053398329764605 5.0010159611701965e-05
v -0.0020123301073908806 0.0020053398329764605 -5.0010159611701965e-05
v -0.0020123301073908806 0.0020053398329764605 -5.0010159611701965e-05
v -0.0020123301073908806 0.0020053398329764605 -5.0010159611701965e-05
v -0.0020304275676608086 0.0021441997960209846 5.0010159611701965e-05
v -0.0020304275676608086 0.0021441997960209846 5.0010159611701965e-05
v -0.0020304275676608086 0.0021441997960209846 5.0010159611701965e-05
v -0.0020304275676608086 0.0021441997960209846 -5.0010159611701965e-05
v -0.0020304275676608086 0.0021441997960209846 -5.0010159611701965e-05
v -0.0020304275676608086 0.0021441997960209846 -5.0010159611701965e-05
v -0.0020077256485819817 0.0022710799239575863 5.0010159611701965e-05
v -0.0020077256485819817 0.0022710799239575863 5.0010159611701965e-05
v -0.0020077256485819817 0.0022710799239575863 5.0010159611701965e-05
v -0.0020077256485819817 0.0022710799239575863 -5.0010159611701965e-05
v -0.0020077256485819817 0.0022710799239575863 -5.0010159611701965e-05
v -0.0019472268177196383 0.0023886498529464006 5.0010159611701965e-05
v -0.0019472268177196383 0.0023886498529464006 5.0010159611701965e-05
v -0.0019472268177196383 0.0023886498529464006 -5.0010159611701965e-05
v -0.0019472268177196383 0.0023886498529464006 -5.0010159611701965e-05
v -0.0018477317644283175 0.002488009864464402 5.0010159611701965e-05
v -0.0018477317644283175 0.002488009864464402 5.0010159611701965e-05
v -0.0018477317644283175 0.002488009864464402 5.0010159611701965e-05
v -0.0018477317644283175 0.002488009864464402 -5.0010159611701965e-05
v -0.0018477317644283175 0.002488009864464402 -5.0010159611701965e-05
v -0.0017212283564731479 0.002551359822973609 5.0010159611701965e-05
v -0.0017212283564731479 0.002551359822973609 5.0010159611701965e-05
v -0.0017212283564731479 0.002551359822973609 -5.0010159611701965e-05
v -0.0017212283564731479 0.002551359822973609 -5.0010159611701965e-05
v -0.0015783262206241488 0.0025712097994983196 5.0010159611701965e-05
v -0.0015783262206241488 0.0025712097994983196 5.0010159611701965e-05
v -0.0015783262206241488 0.0025712097994983196 5.0010159611701965e-05
v -0.0015783262206241488 0.0025712097994983196 5.0010159611701965e-05
v -0.0015783262206241488 0.0025712097994983196 -5.0010159611701965e-05
v -0.0015783262206241488 0.0025712097994983196 -5.0010159611701965e-05
v -0.0015783262206241488 0.0025712097994983196 -5.0010159611701965e-05
v -0.001470426912419498 0.0025550597347319126 5.0010159611701965e-05
v -0.001470426912419498 0.0025550597347319126 5.0010159611701965e-05
v -0.001470426912419498 0.0025550597347319126 5.0010159611701965e-05
v -0.001470426912419498 0.0025550597347319126 -5.0010159611701965e-05
v -0.001470426912419498 0.0025550597347319126 -5.0010159611701965e-05
v -0.001470426912419498 0.0025550597347319126 -5.0010159611701965e-05
v -0.0014154267264530063 0.002535799751058221 5.0010159611701965e-05
v -0.0014154267264530063 0.002535799751058221 5.0010159611701965e-05
v -0.0014154267264530063 0.002535799751058221 5.0010159611701965e-05
v -0.0014154267264530063 0.002535799751058221 -5.0010159611701965e-05
v -0.0014154267264530063 0.002535799751058221 -5.0010159611701965e-05
v -0.0014154267264530063 0.002535799751058221 -5.0010159611701965e-05
v -0.0012996298028156161 0.0024630199186503887 5.0010159611701965e-05
v -0.0012996298028156161 0.0024630199186503887 5.0010159611701965e-05
v -0.0012996298028156161 0.0024630199186503887 5.0010159611701965e-05
v -0.0012996298028156161 0.0024630199186503887 -5.0010159611701965e-05
v -0.0012996298028156161 0.0024630199186503887 -5.0010159611701965e-05
v -0.0012996298028156161 0.0024630199186503887 -5.0010159611701965e-05
v -0.0012349289609119296 0.00239262985996902 5.0010159611701965e-05
v -0.0012349289609119296 0.00239262985996902 5.0010159611701965e-05
v -0.0012349289609119296 0.00239262985996902 5.0010159611701965e-05
v -0.0012349289609119296 0.00239262985996902 -5.0010159611701965e-05
v -0.0012349289609119296 0.00239262985996902 -5.0010159611701965e-05
v -0.0012349289609119296 0.00239262985996902 -5.0010159611701965e-05
v -0.0012349289609119296 0.00239262985996902 -5.0010159611701965e-05
v 6.377425597747788e-05 0.0006488598301075399 -5.0010159611701965e-05
v 6.377425597747788e-05 0.0006488598301075399 -5.0010159611701965e-05
v 6.377425597747788e-05 0.0006488598301075399 -5.0010159611701965e-05
v 6.377425597747788e-05 0.0006488598301075399 -5.0010159611701965e-05
v 6.377425597747788e-05 0.0006488598301075399 -5.0010159611701965e-05
v 6.377425597747788e-05 0.0006488598301075399 -5.0010159611701965e-05
v 6.377425597747788e-05 0.0006488598301075399 5.0010159611701965e-05
v 6.377425597747788e-05 0.0006488598301075399 5.0010159611701965e-05
v 6.377425597747788e-05 0.0006488598301075399 5.0010159611701965e-05
v 6.377425597747788e-05 0.0006488598301075399 5.0010159611701965e-05
v 6.377425597747788e-05 0.0006488598301075399 5.0010159611701965e-05
v 6.377425597747788e-05 0.0006488598301075399 5.0010159611701965e-05
v 0.0016190680908039212 0.0021414998918771744 -5.0010159611701965e-05
v 0.0016190680908039212 0.0021414998918771744 -5.0010159611701965e-05
v 0.0016190680908039212 0.0021414998918771744 -5.0010159611701965e-05
v 0.0016190680908039212 0.0021414998918771744 -5.0010159611701965e-05
v 0.0016190680908039212 0.0021414998918771744 5.0010159611701965e-05
v 0.0016190680908039212 0.0021414998918771744 5.0010159611701965e-05
v 0.0016190680908039212 0.0021414998918771744 5.0010159611701965e-05
v 0.0016190680908039212 0.0021414998918771744 5.0010159611701965e-05
v 0.0016190680908039212 0.0021414998918771744 5.0010159611701965e-05
v 0.0017348724650219083 0.002220759866759181 5.0010159611701965e-05
v 0.0017348724650219083 0.002220759866759181 5.0010159611701965e-05
v 0.0017348724650219083 0.002220759866759181 -5.0010159611701965e-05
v 0.0017348724650219083 0.002220759866759181 -5.0010159611701965e-05
v 0.0018646690296009183 0.0022587098646909 5.0010159611701965e-05
v 0.0018646690296009183 0.0022587098646909 5.0010159611701965e-05
v 0.0018646690296009183 0.0022587098646909 -5.0010159611701965e-05
v 0.0018646690296009183 0.0022587098646909 -5.0010159611701965e-05
v 0.0018646690296009183 0.0022587098646909 -5.0010159611701965e-05
v 0.0019524741219356656 0.0022613198962062597 5.0010159611701965e-05
v 0.0019524741219356656 0.0022613198962062597 5.0010159611701965e-05
v 0.0019524741219356656 0.0022613198962062597 5.0010159611701965e-05
v 0.0019524741219356656 0.0022613198962062597 5.0010159611701965e-05
v 0.0019524741219356656 0.0022613198962062597 5.0010159611701965e-05
v 0.0019524741219356656 0.0022613198962062597 5.0010159611701965e-05
v 0.0019524741219356656 0.0022613198962062597 -5.0010159611701965e-05
v 0.0019524741219356656 0.0022613198962062597 -5.0010159611701965e-05
v 0.0019524741219356656 0.0022613198962062597 -5.0010159611701965e-05
v 0.0019524741219356656 0.0022613198962062597 -5.0010159611701965e-05
v 0.0019524741219356656 0.0022613198962062597 -5.0010159611701965e-05
v 0.0020821737125515938 0.0022325299214571714 5.0010159611701965e-05
v 0.0020821737125515938 0.0022325299214571714 5.0010159611701965e-05
v 0.0020821737125515938 0.0022325299214571714 5.0010159611701965e-05
v 0.0020821737125515938 0.0022325299214571714 -5.0010159611701965e-05
v 0.0020821737125515938 0.0022325299214571714 -5.0010159611701965e-05
v 0.0022035734727978706 0.002161249751225114 5.0010159611701965e-05
v 0.0022035734727978706 0.002161249751225114 5.0010159611701965e-05
v 0.0022035734727978706 0.002161249751225114 5.0010159611701965e-05
v 0.0022035734727978706 0.002161249751225114 -5.0010159611701965e-05
v 0.0022035734727978706 0.002161249751225114 -5.0010159611701965e-05
v 0.0022035734727978706 0.002161249751225114 -5.0010159611701965e-05
v 0.002296370454132557 0.002055369783192873 5.0010159611701965e-05
v 0.002296370454132557 0.002055369783192873 5.0010159611701965e-05
v 0.002296370454132557 0.002055369783192873 -5.0010159611701965e-05
v 0.002296370454132557 0.002055369783192873 -5.0010159611701965e-05
v 0.0023514749482274055 0.0019241698319092393 5.0010159611701965e-05
v 0.0023514749482274055 0.0019241698319092393 5.0010159611701965e-05
v 0.0023514749482274055 0.0019241698319092393 -5.0010159611701965e-05
v 0.0023514749482274055 0.0019241698319092393 -5.0010159611701965e-05
v 0.0023514749482274055 0.0019241698319092393 -5.0010159611701965e-05
v 0.0023620696738362312 0.001784329884685576 5.0010159611701965e-05
v 0.0023620696738362312 0.001784329884685576 5.0010159611701965e-05
v 0.0023620696738362312 0.001784329884685576 5.0010159611701965e-05
v 0.0023620696738362312 0.001784329884685576 5.0010159611701965e-05
v 0.0023620696738362312 0.001784329884685576 5.0010159611701965e-05
v 0.0023620696738362312 0.001784329884685576 -5.0010159611701965e-05
v 0.0023620696738362312 0.001784329884685576 -5.0010159611701965e-05
v 0.0023620696738362312 0.001784329884685576 -5.0010159611701965e-05
v 0.0023620696738362312 0.001784329884685576 -5.0010159611701965e-05
v 0.002340373583137989 0.0016801998717710376 5.0010159611701965e-05
v 0.002340373583137989 0.0016801998717710376 5.0010159611701965e-05
v 0.002340373583137989 0.0016801998717710376 5.0010159611701965e-05
v 0.002340373583137989 0.0016801998717710376 -5.0010159611701965e-05
v 0.002340373583137989 0.0016801998717710376 -5.0010159611701965e-05
v 0.002340373583137989 0.0016801998717710376 -5.0010159611701965e-05
v 0.0022757695987820625 0.0015577598242089152 5.0010159611701965e-05
v 0.0022757695987820625 0.0015577598242089152 5.0010159611701965e-05
v 0.0022757695987820625 0.0015577598242089152 5.0010159611701965e-05
v 0.0022757695987820625 0.0015577598242089152 -5.0010159611701965e-05
v 0.0022757695987820625 0.0015577598242089152 -5.0010159611701965e-05
v 0.0022757695987820625 0.0015577598242089152 -5.0010159611701965e-05
v 0.002180268056690693 0.0014642998576164246 5.0010159611701965e-05
v 0.002180268056690693 0.0014642998576164246 5.0010159611701965e-05
v 0.002180268056690693 0.0014642998576164246 5.0010159611701965e-05
v 0.002180268056690693 0.0014642998576164246 5.0010159611701965e-05
v 0.002180268056690693 0.0014642998576164246 -5.0010159611701965e-05
v 0.002180268056690693 0.0014642998576164246 -5.0010159611701965e-05
v 0.002180268056690693 0.0014642998576164246 -5.0010159611701965e-05
v 0.002180268056690693 0.0014642998576164246 -5.0010159611701965e-05
v 0.002180268056690693 0.0014642998576164246 -5.0010159611701965e-05
v 0.002161470241844654 0.0014515097718685865 5.0010159611701965e-05
v 0.002161470241844654 0.0014515097718685865 5.0010159611701965e-05
v 0.002161470241844654 0.0014515097718685865 5.0010159611701965e-05
v 0.002161470241844654 0.0014515097718685865 -5.0010159611701965e-05
v 0.002161470241844654 0.0014515097718685865 -5.0010159611701965e-05
v 0.002161470241844654 0.0014515097718685865 -5.0010159611701965e-05
v 0.0005846741260029376 -4.901018110103905e-05 -5.0010159611701965e-05
v 0.0005846741260029376 -4.901018110103905e-05 -5.0010159611701965e-05
v 0.0005846741260029376 -4.901018110103905e-05 -5.0010159611701965e-05
v 0.0005846741260029376 -4.901018110103905e-05 -5.0010159611701965e-05
v 0.0005846741260029376 -4.901018110103905e-05 -5.0010159611701965e-05
v 0.0005846741260029376 -4.901018110103905e-05 -5.0010159611701965e-05
v 0.0005846741260029376 -4.901018110103905e-05 -5.0010159611701965e-05
v 0.0005846741260029376 -4.901018110103905e-05 5.0010159611701965e-05
v 0.0005846741260029376 -4.901018110103905e-05 5.0010159611701965e-05
v 0.0005846741260029376 -4.901018110103905e-05 5.0010159611701965e-05
v 0.0005846741260029376 -4.901018110103905e-05 5.0010159611701965e-05
v 0.0005846741260029376 -4.901018110103905e-05 5.0010159611701965e-05
v 0.0005846741260029376 -4.901018110103905e-05 5.0010159611701965e-05
v 0.001950469915755093 -0.0018782102270051837 -5.0010159611701965e-05
v 0.001950469915755093 -0.0018782102270051837 -5.0010159611701965e-05
v 0.001950469915755093 -0.0018782102270051837 -5.0010159611701965e-05
v 0.001950469915755093 -0.0018782102270051837 -5.0010159611701965e-05
v 0.001950469915755093 -0.0018782102270051837 -5.0010159611701965e-05
v 0.001950469915755093 -0.0018782102270051837 -5.0010159611701965e-05
v 0.001950469915755093 -0.0018782102270051837 5.0010159611701965e-05
v 0.001950469915755093 -0.0018782102270051837 5.0010159611701965e-05
v 0.001950469915755093 -0.0018782102270051837 5.0010159611701965e-05
v 0.001950469915755093 -0.0018782102270051837 5.0010159611701965e-05
v 0.001950469915755093 -0.0018782102270051837 5.0010159611701965e-05
v 0.001950469915755093 -0.0018782102270051837 5.0010159611701965e-05
v 0.0020116688683629036 -0.0020029102452099323 5.0010159611701965e-05
v 0.0020116688683629036 -0.0020029102452099323 5.0010159611701965e-05
v 0.0020116688683629036 -0.0020029102452099323 -5.0010159611701965e-05
v 0.0020116688683629036 -0.0020029102452099323 -5.0010159611701965e-05
v 0.0020116688683629036 -0.0020029102452099323 -5.0010159611701965e-05
v 0.0020303698256611824 -0.0021420803386718035 5.0010159611701965e-05
v 0.0020303698256611824 -0.0021420803386718035 5.0010159611701965e-05
v 0.0020303698256611824 -0.0021420803386718035 5.0010159611701965e-05
v 0.0020303698256611824 -0.0021420803386718035 -5.0010159611701965e-05
v 0.0020303698256611824 -0.0021420803386718035 -5.0010159611701965e-05
v 0.002008971758186817 -0.0022669502068310976 5.0010159611701965e-05
v 0.002008971758186817 -0.0022669502068310976 5.0010159611701965e-05
v 0.002008971758186817 -0.0022669502068310976 5.0010159611701965e-05
v 0.002008971758186817 -0.0022669502068310976 -5.0010159611701965e-05
v 0.002008971758186817 -0.0022669502068310976 -5.0010159611701965e-05
v 0.0019495683955028653 -0.0023850903380662203 5.0010159611701965e-05
v 0.0019495683955028653 -0.0023850903380662203 5.0010159611701965e-05
v 0.0019495683955028653 -0.0023850903380662203 -5.0010159611701965e-05
v 0.0019495683955028653 -0.0023850903380662203 -5.0010159611701965e-05
v 0.0019495683955028653 -0.0023850903380662203 -5.0010159611701965e-05
v 0.0019495683955028653 -0.0023850903380662203 -5.0010159611701965e-05
v 0.0018511685775592923 -0.0024854002986103296 5.0010159611701965e-05
v 0.0018511685775592923 -0.0024854002986103296 5.0010159611701965e-05
v 0.0018511685775592923 -0.0024854002986103296 -5.0010159611701965e-05
v 0.0018511685775592923 -0.0024854002986103296 -5.0010159611701965e-05
v 0.0017253729747608304 -0.0025500201154500246 5.0010159611701965e-05
v 0.0017253729747608304 -0.0025500201154500246 5.0010159611701965e-05
v 0.0017253729747608304 -0.0025500201154500246 -5.0010159611701965e-05
v 0.0017253729747608304 -0.0025500201154500246 -5.0010159611701965e-05
v 0.0017253729747608304 -0.0025500201154500246 -5.0010159611701965e-05
v 0.0015828731702640653 -0.0025713604409247637 5.0010159611701965e-05
v 0.0015828731702640653 -0.0025713604409247637 5.0010159611701965e-05
v 0.0015828731702640653 -0.0025713604409247637 5.0010159611701965e-05
v 0.0015828731702640653 -0.0025713604409247637 5.0010159611701965e-05
v 0.0015828731702640653 -0.0025713604409247637 -5.0010159611701965e-05
v 0.0015828731702640653 -0.0025713604409247637 -5.0010159611701965e-05
v 0.0015828731702640653 -0.0025713604409247637 -5.0010159611701965e-05
v 0.0015828731702640653 -0.0025713604409247637 -5.0010159611701965e-05
v 0.0014736700104549527 -0.002556040184572339 5.0010159611701965e-05
v 0.0014736700104549527 -0.002556040184572339 5.0010159611701965e-05
v 0.0014736700104549527 -0.002556040184572339 5.0010159611701965e-05
v 0.0014736700104549527 -0.002556040184572339 -5.0010159611701965e-05
v 0.0014736700104549527 -0.002556040184572339 -5.0010159611701965e-05
v 0.0014736700104549527 -0.002556040184572339 -5.0010159611701965e-05
v 0.0014059740351513028 -0.0025316604878753424 5.0010159611701965e-05
v 0.0014059740351513028 -0.0025316604878753424 5.0010159611701965e-05
v 0.0014059740351513028 -0.0025316604878753424 5.0010159611701965e-05
v 0.0014059740351513028 -0.0025316604878753424 -5.0010159611701965e-05
v 0.0014059740351513028 -0.0025316604878753424 -5.0010159611701965e-05
v 0.0014059740351513028 -0.0025316604878753424 -5.0010159611701965e-05
v 0.0012920695589855313 -0.0024563202168792486 5.0010159611701965e-05
v 0.0012920695589855313 -0.0024563202168792486 5.0010159611701965e-05
v 0.0012920695589855313 -0.0024563202168792486 5.0010159611701965e-05
v 0.0012920695589855313 -0.0024563202168792486 -5.0010159611701965e-05
v 0.0012920695589855313 -0.0024563202168792486 -5.0010159611701965e-05
v 0.0012920695589855313 -0.0024563202168792486 -5.0010159611701965e-05
v 0.001234774594195187 -0.002392600057646632 5.0010159611701965e-05
v 0.001234774594195187 -0.002392600057646632 5.0010159611701965e-05
v 0.001234774594195187 -0.002392600057646632 5.0010159611701965e-05
v 0.001234774594195187 -0.002392600057646632 -5.0010159611701965e-05
v 0.001234774594195187 -0.002392600057646632 -5.0010159611701965e-05
v 0.001234774594195187 -0.002392600057646632 -5.0010159611701965e-05
v 0.001234774594195187 -0.002392600057646632 -5.0010159611701965e-05
v -6.392869545379654e-05 -0.0006488702492788434 -5.0010159611701965e-05
v -6.392869545379654e-05 -0.0006488702492788434 -5.0010159611701965e-05
v -6.392869545379654e-05 -0.0006488702492788434 -5.0010159611701965e-05
v -6.392869545379654e-05 -0.0006488702492788434 -5.0010159611701965e-05
v -6.392869545379654e-05 -0.0006488702492788434 -5.0010159611701965e-05
v -6.392869545379654e-05 -0.0006488702492788434 -5.0010159611701965e-05
v -6.392869545379654e-05 -0.0006488702492788434 5.0010159611701965e-05
v -6.392869545379654e-05 -0.0006488702492788434 5.0010159611701965e-05
v -6.392869545379654e-05 -0.0006488702492788434 5.0010159611701965e-05
v -6.392869545379654e-05 -0.0006488702492788434 5.0010159611701965e-05
v -6.392869545379654e-05 -0.0006488702492788434 5.0010159611701965e-05
v -6.392869545379654e-05 -0.0006488702492788434 5.0010159611701965e-05
v -0.0016191255999729037 -0.0021414903458207846 -5.0010159611701965e-05
v -0.0016191255999729037 -0.0021414903458207846 -5.0010159611701965e-05
v -0.0016191255999729037 -0.0021414903458207846 -5.0010159611701965e-05
v -0.0016191255999729037 -0.0021414903458207846 -5.0010159611701965e-05
v -0.0016191255999729037 -0.0021414903458207846 5.0010159611701965e-05
v -0.0016191255999729037 -0.0021414903458207846 5.0010159611701965e-05
v -0.0016191255999729037 -0.0021414903458207846 5.0010159611701965e-05
v -0.0016191255999729037 -0.0021414903458207846 5.0010159611701965e-05
v -0.0017350268317386508 -0.0022207603324204683 5.0010159611701965e-05
v -0.0017350268317386508 -0.0022207603324204683 5.0010159611701965e-05
v -0.0017350268317386508 -0.0022207603324204683 -5.0010159611701965e-05
v -0.0017350268317386508 -0.0022207603324204683 -5.0010159611701965e-05
v -0.0017350268317386508 -0.0022207603324204683 -5.0010159611701965e-05
v -0.001872229273431003 -0.0022596202325075865 5.0010159611701965e-05
v -0.001872229273431003 -0.0022596202325075865 5.0010159611701965e-05
v -0.001872229273431003 -0.0022596202325075865 5.0010159611701965e-05
v -0.001872229273431003 -0.0022596202325075865 5.0010159611701965e-05
v -0.001872229273431003 -0.0022596202325075865 -5.0010159611701965e-05
v -0.001872229273431003 -0.0022596202325075865 -5.0010159611701965e-05
v -0.001872229273431003 -0.0022596202325075865 -5.0010159611701965e-05
v -0.00196122657507658 -0.002260640263557434 5.0010159611701965e-05
v -0.00196122657507658 -0.002260640263557434 5.0010159611701965e-05
v -0.00196122657507658 -0.002260640263557434 5.0010159611701965e-05
v -0.00196122657507658 -0.002260640263557434 5.0010159611701965e-05
v -0.00196122657507658 -0.002260640263557434 -5.0010159611701965e-05
v -0.00196122657507658 -0.002260640263557434 -5.0010159611701965e-05
v -0.00196122657507658 -0.002260640263557434 -5.0010159611701965e-05
v -0.00196122657507658 -0.002260640263557434 -5.0010159611701965e-05
v -0.002090129069983959 -0.002229400211945176 5.0010159611701965e-05
v -0.002090129069983959 -0.002229400211945176 5.0010159611701965e-05
v -0.002090129069983959 -0.002229400211945176 5.0010159611701965e-05
v -0.002090129069983959 -0.002229400211945176 5.0010159611701965e-05
v -0.002090129069983959 -0.002229400211945176 -5.0010159611701965e-05
v -0.002090129069983959 -0.002229400211945176 -5.0010159611701965e-05
v -0.002090129069983959 -0.002229400211945176 -5.0010159611701965e-05
v -0.002090129069983959 -0.002229400211945176 -5.0010159611701965e-05
v -0.0022052256390452385 -0.0021599603351205587 5.0010159611701965e-05
v -0.0022052256390452385 -0.0021599603351205587 5.0010159611701965e-05
v -0.0022052256390452385 -0.0021599603351205587 5.0010159611701965e-05
v -0.0022052256390452385 -0.0021599603351205587 5.0010159611701965e-05
v -0.0022052256390452385 -0.0021599603351205587 -5.0010159611701965e-05
v -0.0022052256390452385 -0.0021599603351205587 -5.0010159611701965e-05
v -0.0022052256390452385 -0.0021599603351205587 -5.0010159611701965e-05
v -0.0022052256390452385 -0.0021599603351205587 -5.0010159611701965e-05
v -0.002297627739608288 -0.002053630305454135 5.0010159611701965e-05
v -0.002297627739608288 -0.002053630305454135 5.0010159611701965e-05
v -0.002297627739608288 -0.002053630305454135 5.0010159611701965e-05
v -0.002297627739608288 -0.002053630305454135 -5.0010159611701965e-05
v -0.002297627739608288 -0.002053630305454135 -5.0010159611701965e-05
v -0.0023521287366747856 -0.0019220801768824458 5.0010159611701965e-05
v -0.0023521287366747856 -0.0019220801768824458 5.0010159611701965e-05
v -0.0023521287366747856 -0.0019220801768824458 -5.0010159611701965e-05
v -0.0023521287366747856 -0.0019220801768824458 -5.0010159611701965e-05
v -0.0023521287366747856 -0.0019220801768824458 -5.0010159611701965e-05
v -0.0023619262501597404 -0.0017825501272454858 5.0010159611701965e-05
v -0.0023619262501597404 -0.0017825501272454858 5.0010159611701965e-05
v -0.0023619262501597404 -0.0017825501272454858 5.0010159611701965e-05
v -0.0023619262501597404 -0.0017825501272454858 -5.0010159611701965e-05
v -0.0023619262501597404 -0.0017825501272454858 -5.0010159611701965e-05
v -0.0023619262501597404 -0.0017825501272454858 -5.0010159611701965e-05
v -0.002328428439795971 -0.0016486201202496886 5.0010159611701965e-05
v -0.002328428439795971 -0.0016486201202496886 5.0010159611701965e-05
v -0.002328428439795971 -0.0016486201202496886 5.0010159611701965e-05
v -0.002328428439795971 -0.0016486201202496886 -5.0010159611701965e-05
v -0.002328428439795971 -0.0016486201202496886 -5.0010159611701965e-05
v -0.002328428439795971 -0.0016486201202496886 -5.0010159611701965e-05
v -0.002328428439795971 -0.0016486201202496886 -5.0010159611701965e-05
v -0.0022576255723834038 -0.001535070245154202 5.0010159611701965e-05
v -0.0022576255723834038 -0.001535070245154202 5.0010159611701965e-05
v -0.0022576255723834038 -0.001535070245154202 5.0010159611701965e-05
v -0.0022576255723834038 -0.001535070245154202 -5.0010159611701965e-05
v -0.0022576255723834038 -0.001535070245154202 -5.0010159611701965e-05
v -0.0022576255723834038 -0.001535070245154202 -5.0010159611701965e-05
v -0.0022576255723834038 -0.001535070245154202 -5.0010159611701965e-05
v -0.0021615279838442802 -0.001451500109396875 5.0010159611701965e-05
v -0.0021615279838442802 -0.001451500109396875 5.0010159611701965e-05
v -0.0021615279838442802 -0.001451500109396875 5.0010159611701965e-05
v -0.0021615279838442802 -0.001451500109396875 -5.0010159611701965e-05
v -0.0021615279838442802 -0.001451500109396875 -5.0010159611701965e-05
v -0.0021615279838442802 -0.001451500109396875 -5.0010159611701965e-05
v -0.0021615279838442802 -0.001451500109396875 -5.0010159611701965e-05
v -0.0021615279838442802 -0.001451500109396875 -5.0010159611701965e-05
v -0.0005848286091350019 4.903980880044401e-05 -5.0010159611701965e-05
v -0.0005848286091350019 4.903980880044401e-05 -5.0010159611701965e-05
v -0.0005848286091350019 4.903980880044401e-05 -5.0010159611701965e-05
v -0.0005848286091350019 4.903980880044401e-05 -5.0010159611701965e-05
v -0.0005848286091350019 4.903980880044401e-05 -5.0010159611701965e-05
v -0.0005848286091350019 4.903980880044401e-05 -5.0010159611701965e-05
v -0.0005848286091350019 4.903980880044401e-05 -5.0010159611701965e-05
v -0.0005848286091350019 4.903980880044401e-05 5.0010159611701965e-05
v -0.0005848286091350019 4.903980880044401e-05 5.0010159611701965e-05
v -0.0005848286091350019 4.903980880044401e-05 5.0010159611701965e-05
v -0.0005848286091350019 4.903980880044401e-05 5.0010159611701965e-05
v -0.0005848286091350019 4.903980880044401e-05 5.0010159611701965e-05
f 1 12 14
f 1 14 15
f 15 14 18
f 15 18 23
f 23 18 24
f 23 24 28
f 28 24 30
f 28 30 31
f 31 30 33
f 31 33 37
f 37 33 38
f 37 38 41
f 41 38 42
f 41 42 47
f 47 42 51
f 47 51 52
f 52 51 57
f 52 57 58
f 58 57 62
f 58 62 64
f 64 62 67
f 64 67 71
f 79 71 84
f 84 71 67
f 88 76 94
f 94 76 83
f 88 94 96
f 88 96 97
f 97 96 99
f 97 99 101
f 101 99 108
f 101 108 112
f 112 108 117
f 112 117 119
f 119 117 121
f 119 121 124
f 124 121 126
f 124 126 128
f 128 126 131
f 128 131 133
f 133 131 138
f 133 138 141
f 141 138 146
f 141 146 148
f 148 146 152
f 148 152 155
f 155 152 158
f 155 158 161
f 161 158 165
f 161 165 168
f 174 168 178
f 178 168 165
f 188 176 194
f 194 176 179
f 188 194 196
f 188 196 198
f 198 196 201
f 198 201 205
f 205 201 208
f 205 208 210
f 210 208 211
f 210 211 215
f 215 211 218
f 215 218 219
f 219 218 221
f 219 221 225
f 225 221 228
f 225 228 232
f 232 228 234
f 232 234 238
f 238 234 241
f 238 241 243
f 243 241 248
f 243 248 250
f 250 248 254
f 250 254 258
f 264 258 268
f 268 258 254
f 273 263 277
f 277 263 265
f 273 277 280
f 273 280 283
f 283 280 284
f 283 284 290
f 290 284 294
f 290 294 298
f 298 294 299
f 298 299 303
f 303 299 310
f 303 310 314
f 314 310 317
f 314 317 318
f 318 317 321
f 318 321 322
f 322 321 327
f 322 327 328
f 328 327 333
f 328 333 336
f 336 333 338
f 336 338 341
f 341 338 346
f 341 346 348
f 358 348 360
f 360 348 346
f 1 357 12
f 12 357 363
f 175 78 89
f 186 239 245
f 281 350 271
f 274 349 356
f 272 354 261
f 2 53 59
f 98 163 89
f 87 164 169
f 86 170 171
f 244 251 187
f 189 249 257
f 185 256 172
f 177 255 262
f 173 259 77
f 75 260 359
f 74 353 70
f 72 355 3
f 73 4 65
f 66 5 60
f 113 140 147
f 98 103 163
f 162 102 110
f 160 111 153
f 154 114 149
f 237 187 230
f 233 184 200
f 230 199 204
f 220 223 216
f 213 224 231
f 214 230 209
f 209 230 204
f 54 6 48
f 48 6 17
f 46 16 22
f 36 40 32
f 32 40 48
f 32 48 27
f 27 48 21
f 129 134 125
f 123 132 142
f 125 143 118
f 118 143 114
f 312 319 323
f 282 289 351
f 352 288 296
f 351 297 342
f 343 295 304
f 344 305 335
f 337 306 311
f 334 312 329
f 330 313 324
f 362 345 278
f 182 166 90
f 92 167 156
f 63 56 8
f 11 55 50
f 7 49 43
f 246 240 193
f 190 242 236
f 192 235 226
f 116 109 139
f 275 267 364
f 362 269 81
f 361 80 9
f 7 81 68
f 10 69 61
f 93 85 183
f 181 82 266
f 180 269 193
f 195 270 253
f 191 252 247
f 137 104 144
f 39 34 44
f 43 35 29
f 13 7 19
f 19 7 43
f 20 45 25
f 26 43 29
f 222 217 227
f 227 217 212
f 197 193 202
f 202 193 227
f 203 229 206
f 207 227 212
f 95 91 100
f 100 91 157
f 100 157 105
f 107 159 150
f 106 151 145
f 130 127 135
f 135 127 122
f 136 120 115
f 320 315 326
f 325 316 307
f 326 309 332
f 331 308 300
f 332 302 340
f 339 301 291
f 340 293 345
f 347 292 286
f 345 285 278
f 276 287 279
