mtllib converted_link2_29_242424ff.mtl
usemtl material
v 3.2239437132375315e-05 -0.00039842870319262147 5.0010159611701965e-05
v 3.2239437132375315e-05 -0.00039842870319262147 5.0010159611701965e-05
v 3.8028446169846575e-08 -0.00039973860839381814 5.0010159611701965e-05
v 3.8028446169846575e-08 -0.00039973860839381814 5.0010159611701965e-05
v 3.8028446169846575e-08 -0.00039973860839381814 5.0010159611701965e-05
v 3.8028446169846575e-08 -0.00039973860839381814 -5.0010159611701965e-05
v 3.8028446169846575e-08 -0.00039973860839381814 -5.0010159611701965e-05
v 3.8028446169846575e-08 -0.00039973860839381814 -5.0010159611701965e-05
v -3.2163381547434255e-05 -0.00039842870319262147 -5.0010159611701965e-05
v -3.2163381547434255e-05 -0.00039842870319262147 -5.0010159611701965e-05
v -3.2163381547434255e-05 -0.00039842870319262147 -5.0010159611701965e-05
v -3.2163381547434255e-05 -0.00039842870319262147 5.0010159611701965e-05
v -3.2163381547434255e-05 -0.00039842870319262147 5.0010159611701965e-05
v -3.2163381547434255e-05 -0.00039842870319262147 5.0010159611701965e-05
v -9.567212691763416e-05 -0.0003881184966303408 5.0010159611701965e-05
v -9.567212691763416e-05 -0.0003881184966303408 5.0010159611701965e-05
v -9.567212691763416e-05 -0.0003881184966303408 5.0010159611701965e-05
v -9.567212691763416e-05 -0.0003881184966303408 -5.0010159611701965e-05
v -9.567212691763416e-05 -0.0003881184966303408 -5.0010159611701965e-05
v -9.567212691763416e-05 -0.0003881184966303408 -5.0010159611701965e-05
v -0.00015666258696001023 -0.00036772858584299684 5.0010159611701965e-05
v -0.00015666258696001023 -0.00036772858584299684 5.0010159611701965e-05
v -0.00015666258696001023 -0.00036772858584299684 5.0010159611701965e-05
v -0.00015666258696001023 -0.00036772858584299684 -5.0010159611701965e-05
v -0.00015666258696001023 -0.00036772858584299684 -5.0010159611701965e-05
v -0.00015666258696001023 -0.00036772858584299684 -5.0010159611701965e-05
v -0.00021367442968767136 -0.00033786852145567536 5.0010159611701965e-05
v -0.00021367442968767136 -0.00033786852145567536 5.0010159611701965e-05
v -0.00021367442968767136 -0.00033786852145567536 5.0010159611701965e-05
v -0.00021367442968767136 -0.00033786852145567536 -5.0010159611701965e-05
v -0.00021367442968767136 -0.00033786852145567536 -5.0010159611701965e-05
v -0.00021367442968767136 -0.00033786852145567536 -5.0010159611701965e-05
v -0.00026517282822169363 -0.0002991888322867453 5.0010159611701965e-05
v -0.00026517282822169363 -0.0002991888322867453 5.0010159611701965e-05
v -0.00026517282822169363 -0.0002991888322867453 5.0010159611701965e-05
v -0.00026517282822169363 -0.0002991888322867453 -5.0010159611701965e-05
v -0.00026517282822169363 -0.0002991888322867453 -5.0010159611701965e-05
v -0.00026517282822169363 -0.0002991888322867453 -5.0010159611701965e-05
v -0.00030966769554652274 -0.00025281874695792794 5.0010159611701965e-05
v -0.00030966769554652274 -0.00025281874695792794 5.0010159611701965e-05
v -0.00030966769554652274 -0.00025281874695792794 5.0010159611701965e-05
v -0.00030966769554652274 -0.00025281874695792794 -5.0010159611701965e-05
v -0.00030966769554652274 -0.00025281874695792794 -5.0010159611701965e-05
v -0.00030966769554652274 -0.00025281874695792794 -5.0010159611701965e-05
v -0.0003462649474386126 -0.00019982883532065898 5.0010159611701965e-05
v -0.0003462649474386126 -0.00019982883532065898 5.0010159611701965e-05
v -0.0003462649474386126 -0.00019982883532065898 5.0010159611701965e-05
v -0.0003462649474386126 -0.00019982883532065898 -5.0010159611701965e-05
v -0.0003462649474386126 -0.00019982883532065898 -5.0010159611701965e-05
v -0.0003462649474386126 -0.00019982883532065898 -5.0010159611701965e-05
v -0.00037377249100245535 -0.00014170871872920543 5.0010159611701965e-05
v -0.00037377249100245535 -0.00014170871872920543 5.0010159611701965e-05
v -0.00037377249100245535 -0.00014170871872920543 5.0010159611701965e-05
v -0.00037377249100245535 -0.00014170871872920543 -5.0010159611701965e-05
v -0.00037377249100245535 -0.00014170871872920543 -5.0010159611701965e-05
v -0.00037377249100245535 -0.00014170871872920543 -5.0010159611701965e-05
v -0.0003917730937246233 -7.989870209712535e-05 5.0010159611701965e-05
v -0.0003917730937246233 -7.989870209712535e-05 5.0010159611701965e-05
v -0.0003917730937246233 -7.989870209712535e-05 5.0010159611701965e-05
v -0.0003917730937246233 -7.989870209712535e-05 -5.0010159611701965e-05
v -0.0003917730937246233 -7.989870209712535e-05 -5.0010159611701965e-05
v -0.0003994620929006487 -1.6068643162725493e-05 5.0010159611701965e-05
v -0.0003994620929006487 -1.6068643162725493e-05 5.0010159611701965e-05
v -0.0003994620929006487 -1.6068643162725493e-05 5.0010159611701965e-05
v -0.0003994620929006487 -1.6068643162725493e-05 -5.0010159611701965e-05
v -0.0003994620929006487 -1.6068643162725493e-05 -5.0010159611701965e-05
v -0.0003968692908529192 4.82512878079433e-05 5.0010159611701965e-05
v -0.0003968692908529192 4.82512878079433e-05 5.0010159611701965e-05
v -0.0003968692908529192 4.82512878079433e-05 5.0010159611701965e-05
v -0.0003968692908529192 4.82512878079433e-05 -5.0010159611701965e-05
v -0.0003968692908529192 4.82512878079433e-05 -5.0010159611701965e-05
v -0.0003968692908529192 4.82512878079433e-05 -5.0010159611701965e-05
v -0.0003840691933874041 0.00011125106539111584 5.0010159611701965e-05
v -0.0003840691933874041 0.00011125106539111584 5.0010159611701965e-05
v -0.0003840691933874041 0.00011125106539111584 5.0010159611701965e-05
v -0.0003840691933874041 0.00011125106539111584 -5.0010159611701965e-05
v -0.0003840691933874041 0.00011125106539111584 -5.0010159611701965e-05
v -0.0003840691933874041 0.00011125106539111584 -5.0010159611701965e-05
v -0.00036116610863246024 0.00017139122064691037 5.0010159611701965e-05
v -0.00036116610863246024 0.00017139122064691037 5.0010159611701965e-05
v -0.00036116610863246024 0.00017139122064691037 5.0010159611701965e-05
v -0.00036116610863246024 0.00017139122064691037 -5.0010159611701965e-05
v -0.00036116610863246024 0.00017139122064691037 -5.0010159611701965e-05
v -0.00036116610863246024 0.00017139122064691037 -5.0010159611701965e-05
v -0.00032896469929255545 0.0002271210978506133 5.0010159611701965e-05
v -0.00032896469929255545 0.0002271210978506133 5.0010159611701965e-05
v -0.00032896469929255545 0.0002271210978506133 5.0010159611701965e-05
v -0.00032896469929255545 0.0002271210978506133 -5.0010159611701965e-05
v -0.00032896469929255545 0.0002271210978506133 -5.0010159611701965e-05
v -0.00032896469929255545 0.0002271210978506133 -5.0010159611701965e-05
v -0.0002882696280721575 0.0002769510610960424 5.0010159611701965e-05
v -0.0002882696280721575 0.0002769510610960424 5.0010159611701965e-05
v -0.0002882696280721575 0.0002769510610960424 5.0010159611701965e-05
v -0.0002882696280721575 0.0002769510610960424 -5.0010159611701965e-05
v -0.0002882696280721575 0.0002769510610960424 -5.0010159611701965e-05
v -0.0002882696280721575 0.0002769510610960424 -5.0010159611701965e-05
v -0.0002401686942903325 0.00031963124638423324 5.0010159611701965e-05
v -0.0002401686942903325 0.00031963124638423324 5.0010159611701965e-05
v -0.0002401686942903325 0.00031963124638423324 5.0010159611701965e-05
v -0.0002401686942903325 0.00031963124638423324 -5.0010159611701965e-05
v -0.0002401686942903325 0.00031963124638423324 -5.0010159611701965e-05
v -0.0002401686942903325 0.00031963124638423324 -5.0010159611701965e-05
v -0.0001857645547715947 0.0003540212637744844 5.0010159611701965e-05
v -0.0001857645547715947 0.0003540212637744844 5.0010159611701965e-05
v -0.0001857645547715947 0.0003540212637744844 5.0010159611701965e-05
v -0.0001857645547715947 0.0003540212637744844 -5.0010159611701965e-05
v -0.0001857645547715947 0.0003540212637744844 -5.0010159611701965e-05
v -0.0001857645547715947 0.0003540212637744844 -5.0010159611701965e-05
v -0.00012656224134843796 0.0003792312345467508 5.0010159611701965e-05
v -0.00012656224134843796 0.0003792312345467508 5.0010159611701965e-05
v -0.00012656224134843796 0.0003792312345467508 5.0010159611701965e-05
v -0.00012656224134843796 0.0003792312345467508 -5.0010159611701965e-05
v -0.00012656224134843796 0.0003792312345467508 -5.0010159611701965e-05
v -0.00012656224134843796 0.0003792312345467508 -5.0010159611701965e-05
v -6.417107215384021e-05 0.0003946711658500135 5.0010159611701965e-05
v -6.417107215384021e-05 0.0003946711658500135 5.0010159611701965e-05
v -6.417107215384021e-05 0.0003946711658500135 5.0010159611701965e-05
v -6.417107215384021e-05 0.0003946711658500135 -5.0010159611701965e-05
v -6.417107215384021e-05 0.0003946711658500135 -5.0010159611701965e-05
v -6.417107215384021e-05 0.0003946711658500135 -5.0010159611701965e-05
v 3.8028446169846575e-08 0.0003997911117039621 5.0010159611701965e-05
v 3.8028446169846575e-08 0.0003997911117039621 5.0010159611701965e-05
v 3.8028446169846575e-08 0.0003997911117039621 5.0010159611701965e-05
v 3.8028446169846575e-08 0.0003997911117039621 -5.0010159611701965e-05
v 3.8028446169846575e-08 0.0003997911117039621 -5.0010159611701965e-05
v 3.8028446169846575e-08 0.0003997911117039621 -5.0010159611701965e-05
v 6.41279257251881e-05 0.0003946711658500135 5.0010159611701965e-05
v 6.41279257251881e-05 0.0003946711658500135 5.0010159611701965e-05
v 6.41279257251881e-05 0.0003946711658500135 5.0010159611701965e-05
v 6.41279257251881e-05 0.0003946711658500135 -5.0010159611701965e-05
v 6.41279257251881e-05 0.0003946711658500135 -5.0010159611701965e-05
v 6.41279257251881e-05 0.0003946711658500135 -5.0010159611701965e-05
v 0.0001266382896574214 0.0003792312345467508 5.0010159611701965e-05
v 0.0001266382896574214 0.0003792312345467508 5.0010159611701965e-05
v 0.0001266382896574214 0.0003792312345467508 5.0010159611701965e-05
v 0.0001266382896574214 0.0003792312345467508 -5.0010159611701965e-05
v 0.0001266382896574214 0.0003792312345467508 -5.0010159611701965e-05
v 0.0001266382896574214 0.0003792312345467508 -5.0010159611701965e-05
v 0.0001858257019193843 0.0003540212637744844 5.0010159611701965e-05
v 0.0001858257019193843 0.0003540212637744844 5.0010159611701965e-05
v 0.0001858257019193843 0.0003540212637744844 5.0010159611701965e-05
v 0.0001858257019193843 0.0003540212637744844 -5.0010159611701965e-05
v 0.0001858257019193843 0.0003540212637744844 -5.0010159611701965e-05
v 0.0001858257019193843 0.0003540212637744844 -5.0010159611701965e-05
v 0.00024012553330976516 0.00031963124638423324 5.0010159611701965e-05
v 0.00024012553330976516 0.00031963124638423324 5.0010159611701965e-05
v 0.00024012553330976516 0.00031963124638423324 5.0010159611701965e-05
v 0.00024012553330976516 0.00031963124638423324 -5.0010159611701965e-05
v 0.00024012553330976516 0.00031963124638423324 -5.0010159611701965e-05
v 0.00024012553330976516 0.00031963124638423324 -5.0010159611701965e-05
v 0.00028833080432377756 0.0002769510610960424 5.0010159611701965e-05
v 0.00028833080432377756 0.0002769510610960424 5.0010159611701965e-05
v 0.00028833080432377756 0.0002769510610960424 5.0010159611701965e-05
v 0.00028833080432377756 0.0002769510610960424 -5.0010159611701965e-05
v 0.00028833080432377756 0.0002769510610960424 -5.0010159611701965e-05
v 0.00028833080432377756 0.0002769510610960424 -5.0010159611701965e-05
v 0.0003290258755441755 0.0002271210978506133 5.0010159611701965e-05
v 0.0003290258755441755 0.0002271210978506133 5.0010159611701965e-05
v 0.0003290258755441755 0.0002271210978506133 -5.0010159611701965e-05
v 0.0003290258755441755 0.0002271210978506133 -5.0010159611701965e-05
v 0.0003290258755441755 0.0002271210978506133 -5.0010159611701965e-05
v 0.0003612272848840803 0.00017139122064691037 5.0010159611701965e-05
v 0.0003612272848840803 0.00017139122064691037 5.0010159611701965e-05
v 0.0003612272848840803 0.00017139122064691037 5.0010159611701965e-05
v 0.0003612272848840803 0.00017139122064691037 -5.0010159611701965e-05
v 0.0003612272848840803 0.00017139122064691037 -5.0010159611701965e-05
v 0.0003612272848840803 0.00017139122064691037 -5.0010159611701965e-05
v 0.0003840260615106672 0.00011125106539111584 5.0010159611701965e-05
v 0.0003840260615106672 0.00011125106539111584 5.0010159611701965e-05
v 0.0003840260615106672 0.00011125106539111584 5.0010159611701965e-05
v 0.0003840260615106672 0.00011125106539111584 -5.0010159611701965e-05
v 0.0003840260615106672 0.00011125106539111584 -5.0010159611701965e-05
v 0.0003840260615106672 0.00011125106539111584 -5.0010159611701965e-05
v 0.00039682615897618234 4.82512878079433e-05 5.0010159611701965e-05
v 0.00039682615897618234 4.82512878079433e-05 5.0010159611701965e-05
v 0.00039682615897618234 4.82512878079433e-05 5.0010159611701965e-05
v 0.00039682615897618234 4.82512878079433e-05 -5.0010159611701965e-05
v 0.00039682615897618234 4.82512878079433e-05 -5.0010159611701965e-05
v 0.00039682615897618234 4.82512878079433e-05 -5.0010159611701965e-05
v 0.0003994338621851057 -1.6068643162725493e-05 5.0010159611701965e-05
v 0.0003994338621851057 -1.6068643162725493e-05 5.0010159611701965e-05
v 0.0003994338621851057 -1.6068643162725493e-05 5.0010159611701965e-05
v 0.0003994338621851057 -1.6068643162725493e-05 -5.0010159611701965e-05
v 0.0003994338621851057 -1.6068643162725493e-05 -5.0010159611701965e-05
v 0.00039172996184788644 -7.989870209712535e-05 5.0010159611701965e-05
v 0.00039172996184788644 -7.989870209712535e-05 5.0010159611701965e-05
v 0.00039172996184788644 -7.989870209712535e-05 5.0010159611701965e-05
v 0.00039172996184788644 -7.989870209712535e-05 -5.0010159611701965e-05
v 0.00039172996184788644 -7.989870209712535e-05 -5.0010159611701965e-05
v 0.0003738336672540754 -0.00014170871872920543 5.0010159611701965e-05
v 0.0003738336672540754 -0.00014170871872920543 5.0010159611701965e-05
v 0.0003738336672540754 -0.00014170871872920543 -5.0010159611701965e-05
v 0.0003738336672540754 -0.00014170871872920543 -5.0010159611701965e-05
v 0.0003738336672540754 -0.00014170871872920543 -5.0010159611701965e-05
v 0.00034623671672306955 -0.00019982883532065898 5.0010159611701965e-05
v 0.00034623671672306955 -0.00019982883532065898 5.0010159611701965e-05
v 0.00034623671672306955 -0.00019982883532065898 5.0010159611701965e-05
v 0.00034623671672306955 -0.00019982883532065898 -5.0010159611701965e-05
v 0.00034623671672306955 -0.00019982883532065898 -5.0010159611701965e-05
v 0.00034623671672306955 -0.00019982883532065898 -5.0010159611701965e-05
v 0.0003096394648309797 -0.00025281874695792794 5.0010159611701965e-05
v 0.0003096394648309797 -0.00025281874695792794 5.0010159611701965e-05
v 0.0003096394648309797 -0.00025281874695792794 5.0010159611701965e-05
v 0.0003096394648309797 -0.00025281874695792794 -5.0010159611701965e-05
v 0.0003096394648309797 -0.00025281874695792794 -5.0010159611701965e-05
v 0.0003096394648309797 -0.00025281874695792794 -5.0010159611701965e-05
v 0.00026512969634495676 -0.0002991888322867453 5.0010159611701965e-05
v 0.00026512969634495676 -0.0002991888322867453 5.0010159611701965e-05
v 0.00026512969634495676 -0.0002991888322867453 5.0010159611701965e-05
v 0.00026512969634495676 -0.0002991888322867453 -5.0010159611701965e-05
v 0.00026512969634495676 -0.0002991888322867453 -5.0010159611701965e-05
v 0.00021373557683546096 -0.00033786852145567536 5.0010159611701965e-05
v 0.00021373557683546096 -0.00033786852145567536 5.0010159611701965e-05
v 0.00021373557683546096 -0.00033786852145567536 5.0010159611701965e-05
v 0.00021373557683546096 -0.00033786852145567536 -5.0010159611701965e-05
v 0.00021373557683546096 -0.00033786852145567536 -5.0010159611701965e-05
v 0.00021373557683546096 -0.00033786852145567536 -5.0010159611701965e-05
v 0.00015673863526899368 -0.00036772858584299684 5.0010159611701965e-05
v 0.00015673863526899368 -0.00036772858584299684 5.0010159611701965e-05
v 0.00015673863526899368 -0.00036772858584299684 5.0010159611701965e-05
v 0.00015673863526899368 -0.00036772858584299684 -5.0010159611701965e-05
v 0.00015673863526899368 -0.00036772858584299684 -5.0010159611701965e-05
v 0.00015673863526899368 -0.00036772858584299684 -5.0010159611701965e-05
v 9.562898048898205e-05 -0.0003881184966303408 5.0010159611701965e-05
v 9.562898048898205e-05 -0.0003881184966303408 5.0010159611701965e-05
v 9.562898048898205e-05 -0.0003881184966303408 5.0010159611701965e-05
v 9.562898048898205e-05 -0.0003881184966303408 -5.0010159611701965e-05
v 9.562898048898205e-05 -0.0003881184966303408 -5.0010159611701965e-05
v 9.562898048898205e-05 -0.0003881184966303408 -5.0010159611701965e-05
v 3.2239437132375315e-05 -0.00039842870319262147 -5.0010159611701965e-05
v 3.2239437132375315e-05 -0.00039842870319262147 -5.0010159611701965e-05
v 3.2239437132375315e-05 -0.00039842870319262147 -5.0010159611701965e-05
v 3.8028446169846575e-08 3.112965174523197e-08 5.0010159611701965e-05
v 3.8028446169846575e-08 3.112965174523197e-08 5.0010159611701965e-05
v 3.8028446169846575e-08 3.112965174523197e-08 5.0010159611701965e-05
v 3.8028446169846575e-08 3.112965174523197e-08 5.0010159611701965e-05
v 3.8028446169846575e-08 3.112965174523197e-08 5.0010159611701965e-05
v 3.8028446169846575e-08 3.112965174523197e-08 5.0010159611701965e-05
v 3.8028446169846575e-08 3.112965174523197e-08 5.0010159611701965e-05
v 3.8028446169846575e-08 3.112965174523197e-08 5.0010159611701965e-05
v 3.8028446169846575e-08 3.112965174523197e-08 5.0010159611701965e-05
v 3.8028446169846575e-08 3.112965174523197e-08 5.0010159611701965e-05
v 3.8028446169846575e-08 3.112965174523197e-08 5.0010159611701965e-05
v 3.8028446169846575e-08 3.112965174523197e-08 5.0010159611701965e-05
v 3.8028446169846575e-08 3.112965174523197e-08 5.0010159611701965e-05
v 3.8028446169846575e-08 3.112965174523197e-08 5.0010159611701965e-05
v 3.8028446169846575e-08 3.112965174523197e-08 5.0010159611701965e-05
v 3.8028446169846575e-08 3.112965174523197e-08 5.0010159611701965e-05
v 3.8028446169846575e-08 3.112965174523197e-08 5.0010159611701965e-05
v 3.8028446169846575e-08 3.112965174523197e-08 5.0010159611701965e-05
v 3.8028446169846575e-08 3.112965174523197e-08 5.0010159611701965e-05
v 3.8028446169846575e-08 3.112965174523197e-08 5.0010159611701965e-05
v 3.8028446169846575e-08 3.112965174523197e-08 5.0010159611701965e-05
v 3.8028446169846575e-08 3.112965174523197e-08 5.0010159611701965e-05
v 3.8028446169846575e-08 3.112965174523197e-08 5.0010159611701965e-05
v 3.8028446169846575e-08 3.112965174523197e-08 5.0010159611701965e-05
v 3.8028446169846575e-08 3.112965174523197e-08 5.0010159611701965e-05
v 3.8028446169846575e-08 3.112965174523197e-08 5.0010159611701965e-05
v 3.8028446169846575e-08 3.112965174523197e-08 -5.0010159611701965e-05
v 3.8028446169846575e-08 3.112965174523197e-08 -5.0010159611701965e-05
v 3.8028446169846575e-08 3.112965174523197e-08 -5.0010159611701965e-05
v 3.8028446169846575e-08 3.112965174523197e-08 -5.0010159611701965e-05
v 3.8028446169846575e-08 3.112965174523197e-08 -5.0010159611701965e-05
v 3.8028446169846575e-08 3.112965174523197e-08 -5.0010159611701965e-05
v 3.8028446169846575e-08 3.112965174523197e-08 -5.0010159611701965e-05
v 3.8028446169846575e-08 3.112965174523197e-08 -5.0010159611701965e-05
v 3.8028446169846575e-08 3.112965174523197e-08 -5.0010159611701965e-05
v 3.8028446169846575e-08 3.112965174523197e-08 -5.0010159611701965e-05
v 3.8028446169846575e-08 3.112965174523197e-08 -5.0010159611701965e-05
v 3.8028446169846575e-08 3.112965174523197e-08 -5.0010159611701965e-05
v 3.8028446169846575e-08 3.112965174523197e-08 -5.0010159611701965e-05
v 3.8028446169846575e-08 3.112965174523197e-08 -5.0010159611701965e-05
v 3.8028446169846575e-08 3.112965174523197e-08 -5.0010159611701965e-05
v 3.8028446169846575e-08 3.112965174523197e-08 -5.0010159611701965e-05
v 3.8028446169846575e-08 3.112965174523197e-08 -5.0010159611701965e-05
v 3.8028446169846575e-08 3.112965174523197e-08 -5.0010159611701965e-05
v 3.8028446169846575e-08 3.112965174523197e-08 -5.0010159611701965e-05
v 3.8028446169846575e-08 3.112965174523197e-08 -5.0010159611701965e-05
v 3.8028446169846575e-08 3.112965174523197e-08 -5.0010159611701965e-05
v 3.8028446169846575e-08 3.112965174523197e-08 -5.0010159611701965e-05
v 3.8028446169846575e-08 3.112965174523197e-08 -5.0010159611701965e-05
v 3.8028446169846575e-08 3.112965174523197e-08 -5.0010159611701965e-05
v 3.8028446169846575e-08 3.112965174523197e-08 -5.0010159611701965e-05
v 3.8028446169846575e-08 3.112965174523197e-08 -5.0010159611701965e-05
v 3.8028446169846575e-08 3.112965174523197e-08 -5.0010159611701965e-05
f 1 3 6
f 6 3 9
f 3 14 9
f 9 14 17
f 9 17 20
f 20 17 23
f 20 23 25
f 25 23 27
f 25 27 30
f 30 27 34
f 30 34 36
f 36 34 39
f 36 39 44
f 44 39 45
f 44 45 48
f 48 45 51
f 48 51 54
f 54 51 59
f 54 59 60
f 60 59 64
f 60 64 66
f 66 64 67
f 66 67 70
f 70 67 73
f 70 73 78
f 78 73 81
f 78 81 83
f 83 81 85
f 83 85 89
f 89 85 91
f 89 91 94
f 94 91 97
f 94 97 102
f 102 97 105
f 102 105 106
f 106 105 110
f 106 110 112
f 112 110 116
f 112 116 120
f 120 116 122
f 120 122 124
f 124 122 127
f 124 127 132
f 132 127 134
f 132 134 136
f 136 134 139
f 136 139 142
f 142 139 145
f 142 145 149
f 149 145 152
f 149 152 156
f 156 152 157
f 156 157 160
f 160 157 164
f 160 164 165
f 165 164 169
f 165 169 172
f 172 169 175
f 172 175 177
f 177 175 182
f 177 182 184
f 184 182 185
f 184 185 189
f 189 185 190
f 189 190 193
f 193 190 197
f 193 197 200
f 200 197 203
f 200 203 205
f 205 203 209
f 205 209 211
f 211 209 214
f 211 214 217
f 217 214 218
f 217 218 221
f 221 218 224
f 221 224 229
f 229 224 1
f 229 1 231
f 231 1 6
f 5 2 244
f 21 15 244
f 246 16 13
f 247 12 4
f 40 33 244
f 250 35 28
f 252 29 22
f 58 52 244
f 256 53 47
f 240 46 41
f 75 68 258
f 244 69 62
f 233 63 57
f 92 87 244
f 236 86 79
f 241 80 74
f 109 103 234
f 235 104 98
f 237 99 93
f 129 123 244
f 239 121 115
f 238 117 111
f 146 140 244
f 249 141 135
f 243 133 128
f 163 158 244
f 244 158 153
f 255 151 147
f 180 174 244
f 254 176 168
f 242 170 162
f 195 191 244
f 244 191 187
f 253 186 181
f 213 207 244
f 257 208 202
f 251 201 196
f 2 226 244
f 248 225 219
f 245 220 212
f 7 10 271
f 222 227 267
f 268 228 230
f 269 232 8
f 204 210 267
f 267 210 215
f 270 216 223
f 188 192 267
f 272 194 198
f 273 199 206
f 171 178 274
f 267 179 183
f 267 183 188
f 154 161 275
f 276 159 166
f 277 167 173
f 138 144 267
f 278 143 150
f 279 148 155
f 119 125 265
f 280 126 130
f 281 131 137
f 101 108 267
f 282 107 113
f 283 114 118
f 84 88 267
f 266 90 95
f 284 96 100
f 65 71 267
f 262 72 77
f 259 76 82
f 50 56 261
f 267 55 61
f 267 61 65
f 32 38 267
f 260 37 43
f 263 42 49
f 11 19 267
f 264 18 26
f 285 24 31
