mtllib converted_link3_2_969696ff.mtl
usemtl material
v -0.000861822918523103 -0.0014714521821588278 4.5603024773299694e-05
v -0.000861822918523103 -0.0014714521821588278 4.5603024773299694e-05
v -0.0008645051275379956 -0.0014180501457303762 4.662189166992903e-05
v -0.0008645051275379956 -0.0014180501457303762 4.662189166992903e-05
v -0.0008645051275379956 -0.0014180501457303762 4.662189166992903e-05
v 0.0005320838536135852 -0.0015013699885457754 -6.41868682578206e-05
v 0.0005320838536135852 -0.0015013699885457754 -6.41868682578206e-05
v 0.0005320838536135852 -0.0015013699885457754 -6.41868682578206e-05
v 0.0005320838536135852 -0.0015013699885457754 -6.41868682578206e-05
v 0.0005320838536135852 -0.0015013699885457754 -6.41868682578206e-05
v 0.0005230835522525012 -0.001611459767445922 -6.5077212639153e-05
v 0.0005230835522525012 -0.001611459767445922 -6.5077212639153e-05
v 0.0005210048402659595 -0.0017219705041497946 -6.656732875853777e-05
v 0.0005210048402659595 -0.0017219705041497946 -6.656732875853777e-05
v -0.0007995956693775952 -0.0015646105166524649 3.934267442673445e-05
v -0.0007995956693775952 -0.0015646105166524649 3.934267442673445e-05
v -0.0007995956693775952 -0.0015646105166524649 3.934267442673445e-05
v -0.0007995956693775952 -0.0015646105166524649 3.934267442673445e-05
v -0.0007995956693775952 -0.0015646105166524649 3.934267442673445e-05
v 0.0005145675386302173 -0.0017515418585389853 -6.650772411376238e-05
v 0.0005145675386302173 -0.0017515418585389853 -6.650772411376238e-05
v 0.0005145675386302173 -0.0017515418585389853 -6.650772411376238e-05
v 0.0005145675386302173 -0.0017515418585389853 -6.650772411376238e-05
v -0.00016606533608864993 -0.0016873402055352926 -1.2207894542370923e-05
v -0.00016606533608864993 -0.0016873402055352926 -1.2207894542370923e-05
v 0.0005541450227610767 -0.0011840423103421926 -6.114703137427568e-05
v 0.0005541450227610767 -0.0011840423103421926 -6.114703137427568e-05
v 0.0005541450227610767 -0.0011840423103421926 -6.114703137427568e-05
v 0.0005541450227610767 -0.0011840423103421926 -6.114703137427568e-05
v 0.0004672936047427356 -0.0018110198434442282 -6.370816845446825e-05
v 0.0004672936047427356 -0.0018110198434442282 -6.370816845446825e-05
v 0.0004672936047427356 -0.0018110198434442282 -6.370816845446825e-05
v 0.0005100375856272876 -0.0017812212463468313 -6.662693340331316e-05
v 0.0005100375856272876 -0.0017812212463468313 -6.662693340331316e-05
v 0.0005100375856272876 -0.0017812212463468313 -6.662693340331316e-05
v 0.0005100375856272876 -0.0017812212463468313 -6.662693340331316e-05
v 0.0005100375856272876 -0.0017812212463468313 -6.662693340331316e-05
v 0.0004783279146067798 -0.0018126887734979391 -6.46078260615468e-05
v 0.0004783279146067798 -0.0018126887734979391 -6.46078260615468e-05
v -0.0008482330595143139 -0.0015101989265531301 4.3991836719214916e-05
v -0.0008482330595143139 -0.0015101989265531301 4.3991836719214916e-05
v 0.0005060440744273365 -0.0018011291977018118 -6.662693340331316e-05
v 0.0005005529965274036 -0.0018085797782987356 -6.627675611525774e-05
v 0.0005005529965274036 -0.0018085797782987356 -6.627675611525774e-05
v 0.0004947191919200122 -0.0018117388244718313 -6.585766095668077e-05
v 0.0004947191919200122 -0.0018117388244718313 -6.585766095668077e-05
v -0.000560461834538728 0.0028755704406648874 8.691276889294386e-05
v -0.000560461834538728 0.0028755704406648874 8.691276889294386e-05
v -0.000560461834538728 0.0028755704406648874 8.691276889294386e-05
v -0.000560461834538728 0.0028755704406648874 8.691276889294386e-05
v -0.0005442568217404187 0.0029462093953043222 8.673209231346846e-05
v -0.0005243414198048413 0.0029704610351473093 8.548225741833448e-05
v -0.0005243414198048413 0.0029704610351473093 8.548225741833448e-05
v -0.0006047555361874402 0.0022490101400762796 8.101190906018019e-05
v -0.0006047555361874402 0.0022490101400762796 8.101190906018019e-05
v -0.0006047555361874402 0.0022490101400762796 8.101190906018019e-05
v -0.0006047555361874402 0.0022490101400762796 8.101190906018019e-05
v 0.0007983452524058521 0.0022541398648172617 -2.895679972425569e-05
v 0.0007983452524058521 0.0022541398648172617 -2.895679972425569e-05
v 0.0007983452524058521 0.0022541398648172617 -2.895679972425569e-05
v 0.0007983452524058521 0.0022541398648172617 -2.895679972425569e-05
v 0.0007983452524058521 0.0022541398648172617 -2.895679972425569e-05
v -0.000630206719506532 0.0018956104759126902 7.773179095238447e-05
v -0.000630206719506532 0.0018956104759126902 7.773179095238447e-05
v -0.000630206719506532 0.0018956104759126902 7.773179095238447e-05
v 0.0007750323857180774 0.0019288102630525827 -3.199663478881121e-05
v 0.0007750323857180774 0.0019288102630525827 -3.199663478881121e-05
v 0.0007750323857180774 0.0019288102630525827 -3.199663478881121e-05
v -0.0006555908476002514 0.0015421586576849222 7.445167284458876e-05
v -0.0006555908476002514 0.0015421586576849222 7.445167284458876e-05
v -0.0006555908476002514 0.0015421586576849222 7.445167284458876e-05
v 0.0007536343182437122 0.0016214887145906687 -3.485765773802996e-05
v 0.0007536343182437122 0.0016214887145906687 -3.485765773802996e-05
v 0.0007536343182437122 0.0016214887145906687 -3.485765773802996e-05
v -0.000674902752507478 0.0012650007847696543 7.183279376477003e-05
v -0.000674902752507478 0.0012650007847696543 7.183279376477003e-05
v -0.000674902752507478 0.0012650007847696543 7.183279376477003e-05
v 0.0007321840967051685 0.001314170891419053 -3.778759855777025e-05
v 0.0007321840967051685 0.001314170891419053 -3.778759855777025e-05
v 0.0007321840967051685 0.001314170891419053 -3.778759855777025e-05
v -0.0006942146574147046 0.0009878280106931925 6.921205203980207e-05
v -0.0006942146574147046 0.0009878280106931925 6.921205203980207e-05
v -0.0006942146574147046 0.0009878280106931925 6.921205203980207e-05
v 0.0007067254628054798 0.0009607712272554636 -4.105840343981981e-05
v 0.0007067254628054798 0.0009607712272554636 -4.105840343981981e-05
v 0.0007067254628054798 0.0009607712272554636 -4.105840343981981e-05
v -0.0007196658407337964 0.0006324092391878366 6.587232928723097e-05
v -0.0007196658407337964 0.0006324092391878366 6.587232928723097e-05
v -0.0007196658407337964 0.0006324092391878366 6.587232928723097e-05
v 0.0006812146748416126 0.0006073194090276957 -4.43366589024663e-05
v 0.0006812146748416126 0.0006073194090276957 -4.43366589024663e-05
v 0.0006812146748416126 0.0006073194090276957 -4.43366589024663e-05
v -0.0007451244746334851 0.00027699043857865036 6.259221117943525e-05
v -0.0007451244746334851 0.00027699043857865036 6.259221117943525e-05
v -0.0007451244746334851 0.00027699043857865036 6.259221117943525e-05
v 0.0006542137707583606 0.0002237597800558433 -4.797813016921282e-05
v 0.0006542137707583606 0.0002237597800558433 -4.797813016921282e-05
v 0.0006542137707583606 0.0002237597800558433 -4.797813016921282e-05
v -0.0007643767748959363 1.7995311054619378e-06 5.997333209961653e-05
v -0.0007643767748959363 1.7995311054619378e-06 5.997333209961653e-05
v -0.0007643767748959363 1.7995311054619378e-06 5.997333209961653e-05
v 0.0006273320759646595 -0.0001598519884282723 -5.1608425565063953e-05
v 0.0006273320759646595 -0.0001598519884282723 -5.1608425565063953e-05
v 0.0006273320759646595 -0.0001598519884282723 -5.1608425565063953e-05
v -0.0007836216245777905 -0.0002733392466325313 5.740288179367781e-05
v -0.0007836216245777905 -0.0002733392466325313 5.740288179367781e-05
v -0.0007836216245777905 -0.0002733392466325313 5.740288179367781e-05
v 0.0006023055757395923 -0.000513311242684722 -5.488668102771044e-05
v 0.0006023055757395923 -0.000513311242684722 -5.488668102771044e-05
v 0.0006023055757395923 -0.000513311242684722 -5.488668102771044e-05
v -0.0008069866453297436 -0.0005986613687127829 5.4363044910132885e-05
v -0.0008069866453297436 -0.0005986613687127829 5.4363044910132885e-05
v -0.0008069866453297436 -0.0005986613687127829 5.4363044910132885e-05
v 0.0005771449650637805 -0.0008667593356221914 -5.8228266425430775e-05
v 0.0005771449650637805 -0.0008667593356221914 -5.8228266425430775e-05
v 0.0005771449650637805 -0.0008667593356221914 -5.8228266425430775e-05
v -0.0008302920614369214 -0.0009239797946065664 5.132320802658796e-05
v -0.0008302920614369214 -0.0009239797946065664 5.132320802658796e-05
v -0.0008302920614369214 -0.0009239797946065664 5.132320802658796e-05
v -0.0008471005712635815 -0.001171052223071456 4.89427475258708e-05
v -0.0008471005712635815 -0.001171052223071456 4.89427475258708e-05
v -0.0004928105627186596 0.0029830376151949167 8.321169298142195e-05
v -0.0004928105627186596 0.0029830376151949167 8.321169298142195e-05
v -0.00042289431439712644 0.002979047829285264 7.767218630760908e-05
v -0.00042289431439712644 0.002979047829285264 7.767218630760908e-05
v -0.00042289431439712644 0.002979047829285264 7.767218630760908e-05
v -0.000583051994908601 0.0025623480323702097 8.399214129894972e-05
v -0.000583051994908601 0.0025623480323702097 8.399214129894972e-05
v -0.000583051994908601 0.0025623480323702097 8.399214129894972e-05
v -7.170374010456726e-05 0.0029110389295965433 4.912156146019697e-05
v -7.170374010456726e-05 0.0029110389295965433 4.912156146019697e-05
v -7.170374010456726e-05 0.0029110389295965433 4.912156146019697e-05
v 0.0002794272149913013 0.0028429704252630472 2.057279743894469e-05
v 0.0002794272149913013 0.0028429704252630472 2.057279743894469e-05
v 0.0002794272149913013 0.0028429704252630472 2.057279743894469e-05
v 0.0004984146798960865 0.00280065112747252 2.752871750999475e-06
v 0.0004984146798960865 0.00280065112747252 2.752871750999475e-06
v 0.0004984146798960865 0.00280065112747252 2.752871750999475e-06
v 0.0004984146798960865 0.00280065112747252 2.752871750999475e-06
v 0.0004984146798960865 0.00280065112747252 2.752871750999475e-06
v 0.0008217624272219837 0.0025794582907110453 -2.5916962840710767e-05
v 0.0008217624272219837 0.0025794582907110453 -2.5916962840710767e-05
v 0.0007852247799746692 0.0027274007443338633 -2.0858018615399487e-05
v 0.0008130675996653736 0.002687581116333604 -2.3597969629918225e-05
v 0.0008130675996653736 0.002687581116333604 -2.3597969629918225e-05
v 0.0007173350895754993 0.0027578475419431925 -1.5078230717335828e-05
v 0.0007173350895754993 0.0027578475419431925 -1.5078230717335828e-05
v 0.0007173350895754993 0.0027578475419431925 -1.5078230717335828e-05
v 0.0008234388078562915 0.0026317278388887644 -2.5266899683629163e-05
v 0.0008234388078562915 0.0026317278388887644 -2.5266899683629163e-05
v 0.0008234388078562915 0.0026317278388887644 -2.5266899683629163e-05
v 0.0008232525433413684 0.0026055576745420694 -2.5628252842579968e-05
v 0.0008232525433413684 0.0026055576745420694 -2.5628252842579968e-05
f 1 3 10
f 11 14 17
f 19 13 23
f 15 22 25
f 9 5 29
f 24 21 30
f 32 20 37
f 31 33 39
f 12 18 6
f 7 16 41
f 8 40 2
f 42 44 35
f 34 43 45
f 36 46 38
f 48 51 53
f 54 61 64
f 65 58 68
f 63 66 71
f 70 67 73
f 69 72 75
f 76 74 80
f 77 78 83
f 82 79 85
f 81 86 89
f 88 84 91
f 87 90 94
f 93 92 96
f 95 97 99
f 100 98 102
f 101 104 106
f 105 103 108
f 107 109 111
f 113 110 115
f 112 116 118
f 119 114 28
f 117 26 121
f 120 27 4
f 52 123 49
f 50 122 124
f 47 125 129
f 127 126 131
f 128 132 57
f 56 130 133
f 55 134 60
f 59 135 136
f 62 137 142
f 143 144 148
f 146 145 151
f 147 149 140
f 139 150 152
f 138 153 141
