mtllib converted_link3_26_969696ff.mtl
usemtl material
v 0.0003783760475926101 0.0024712043814361095 0.0052499715238809586
v 0.0003783760475926101 0.0024712043814361095 0.0052499715238809586
v -0.00018101448949892074 0.002493435051292181 -0.0052499789744615555
v -0.00018101448949892074 0.002493435051292181 -0.0052499789744615555
v -0.00018101448949892074 0.002493435051292181 0.0052499715238809586
v -0.00018101448949892074 0.002493435051292181 0.0052499715238809586
v -0.0007313441601581872 0.002390615176409483 -0.0052499789744615555
v -0.0007313441601581872 0.002390615176409483 -0.0052499789744615555
v -0.0007313441601581872 0.002390615176409483 0.0052499715238809586
v -0.0007313441601581872 0.002390615176409483 0.0052499715238809586
v -0.0012449537171050906 0.002167994622141123 -0.0052499789744615555
v -0.0012449537171050906 0.002167994622141123 -0.0052499789744615555
v -0.0012449537171050906 0.002167994622141123 0.0052499715238809586
v -0.0012449537171050906 0.002167994622141123 0.0052499715238809586
v -0.0016961636720225215 0.0018365945434197783 -0.0052499789744615555
v -0.0016961636720225215 0.0018365945434197783 -0.0052499789744615555
v -0.0016961636720225215 0.0018365945434197783 0.0052499715238809586
v -0.0016961636720225215 0.0018365945434197783 0.0052499715238809586
v -0.0020623139571398497 0.0014131044736132026 -0.0052499789744615555
v -0.0020623139571398497 0.0014131044736132026 -0.0052499789744615555
v -0.0020623139571398497 0.0014131044736132026 0.0052499715238809586
v -0.0020623139571398497 0.0014131044736132026 0.0052499715238809586
v -0.0023250540252774954 0.0009187444811686873 -0.0052499789744615555
v -0.0023250540252774954 0.0009187444811686873 -0.0052499789744615555
v -0.0023250540252774954 0.0009187444811686873 0.0052499715238809586
v -0.0023250540252774954 0.0009187444811686873 0.0052499715238809586
v -0.0024712036829441786 0.0003783743886742741 -0.0052499789744615555
v -0.0024712036829441786 0.0003783743886742741 -0.0052499789744615555
v -0.0024712036829441786 0.0003783743886742741 0.0052499715238809586
v -0.0024712036829441786 0.0003783743886742741 0.0052499715238809586
v -0.00249343435280025 -0.0001810254470910877 -0.0052499789744615555
v -0.00249343435280025 -0.0001810254470910877 -0.0052499789744615555
v -0.00249343435280025 -0.0001810254470910877 0.0052499715238809586
v -0.00249343435280025 -0.0001810254470910877 0.0052499715238809586
v -0.0023906135465949774 -0.0007312853122130036 -0.0052499789744615555
v -0.0023906135465949774 -0.0007312853122130036 -0.0052499789744615555
v -0.0023906135465949774 -0.0007312853122130036 0.0052499715238809586
v -0.0023906135465949774 -0.0007312853122130036 0.0052499715238809586
v -0.002167993923649192 -0.0012449651258066297 -0.0052499789744615555
v -0.002167993923649192 -0.0012449651258066297 -0.0052499789744615555
v -0.002167993923649192 -0.0012449651258066297 0.0052499715238809586
v -0.002167993923649192 -0.0012449651258066297 0.0052499715238809586
v -0.001836594077758491 -0.001696165301837027 -0.0052499789744615555
v -0.001836594077758491 -0.001696165301837027 -0.0052499789744615555
v -0.001836594077758491 -0.001696165301837027 0.0052499715238809586
v -0.001836594077758491 -0.001696165301837027 0.0052499715238809586
v -0.0014131040079519153 -0.0020623253658413887 -0.0052499789744615555
v -0.0014131040079519153 -0.0020623253658413887 -0.0052499789744615555
v -0.0014131040079519153 -0.0020623253658413887 0.0052499715238809586
v -0.0014131040079519153 -0.0020623253658413887 0.0052499715238809586
v -0.0009187439572997391 -0.0023250551894307137 -0.0052499789744615555
v -0.0009187439572997391 -0.0023250551894307137 -0.0052499789744615555
v -0.0009187439572997391 -0.0023250551894307137 0.0052499715238809586
v -0.0009187439572997391 -0.0023250551894307137 0.0052499715238809586
v -0.00037836359115317464 -0.002471205312758684 -0.0052499789744615555
v -0.00037836359115317464 -0.002471205312758684 -0.0052499789744615555
v -0.00037836359115317464 -0.002471205312758684 0.0052499715238809586
v -0.00037836359115317464 -0.002471205312758684 0.0052499715238809586
v 0.00018102598551195115 -0.002493445295840502 -0.0052499789744615555
v 0.00018102598551195115 -0.002493445295840502 -0.0052499789744615555
v 0.00018102598551195115 -0.002493445295840502 0.0052499715238809586
v 0.00018102598551195115 -0.002493445295840502 0.0052499715238809586
v 0.0007312960806302726 -0.0023906254209578037 -0.0052499789744615555
v 0.0007312960806302726 -0.0023906254209578037 -0.0052499789744615555
v 0.0007312960806302726 -0.0023906254209578037 0.0052499715238809586
v 0.0007312960806302726 -0.0023906254209578037 0.0052499715238809586
v 0.0012449660571292043 -0.002167945262044668 -0.0052499789744615555
v 0.0012449660571292043 -0.002167945262044668 -0.0052499789744615555
v 0.0012449660571292043 -0.002167945262044668 0.0052499715238809586
v 0.0012449660571292043 -0.002167945262044668 0.0052499715238809586
v 0.0016961657674983144 -0.0018365952419117093 -0.0052499789744615555
v 0.0016961657674983144 -0.0018365952419117093 -0.0052499789744615555
v 0.0016961657674983144 -0.0018365952419117093 0.0052499715238809586
v 0.0016961657674983144 -0.0018365952419117093 0.0052499715238809586
v 0.0020623255986720324 -0.0014131051721051335 -0.0052499789744615555
v 0.0020623255986720324 -0.0014131051721051335 -0.0052499789744615555
v 0.0020623255986720324 -0.0014131051721051335 0.0052499715238809586
v 0.0020623255986720324 -0.0014131051721051335 0.0052499715238809586
v 0.002325056353583932 -0.0009187451796606183 -0.0052499789744615555
v 0.002325056353583932 -0.0009187451796606183 -0.0052499789744615555
v 0.002325056353583932 -0.0009187451796606183 0.0052499715238809586
v 0.002325056353583932 -0.0009187451796606183 0.0052499715238809586
v 0.002471206011250615 -0.00037837549461983144 -0.0052499789744615555
v 0.002471206011250615 -0.00037837549461983144 -0.0052499789744615555
v 0.002471206011250615 -0.00037837549461983144 0.0052499715238809586
v 0.002471206011250615 -0.00037837549461983144 0.0052499715238809586
v 0.0024934459943324327 0.0001810150279197842 -0.0052499789744615555
v 0.0024934459943324327 0.0001810150279197842 -0.0052499789744615555
v 0.0024934459943324327 0.0001810150279197842 0.0052499715238809586
v 0.0024934459943324327 0.0001810150279197842 0.0052499715238809586
v 0.0023906261194497347 0.0007313446840271354 -0.0052499789744615555
v 0.0023906261194497347 0.0007313446840271354 -0.0052499789744615555
v 0.0023906261194497347 0.0007313446840271354 0.0052499715238809586
v 0.0023906261194497347 0.0007313446840271354 0.0052499715238809586
v 0.002167945960536599 0.0012449644273146987 -0.0052499789744615555
v 0.002167945960536599 0.0012449644273146987 -0.0052499789744615555
v 0.002167945960536599 0.0012449644273146987 0.0052499715238809586
v 0.002167945960536599 0.0012449644273146987 0.0052499715238809586
v 0.001836596173234284 0.0016961650690063834 -0.0052499789744615555
v 0.001836596173234284 0.0016961650690063834 -0.0052499789744615555
v 0.001836596173234284 0.0016961650690063834 0.0052499715238809586
v 0.001836596173234284 0.0016961650690063834 0.0052499715238809586
v 0.0014131061034277081 0.0020623146556317806 -0.0052499789744615555
v 0.0014131061034277081 0.0020623146556317806 -0.0052499789744615555
v 0.0014131061034277081 0.0020623146556317806 0.0052499715238809586
v 0.0014131061034277081 0.0020623146556317806 0.0052499715238809586
v 0.0009187461691908538 0.0023250547237694263 -0.0052499789744615555
v 0.0009187461691908538 0.0023250547237694263 -0.0052499789744615555
v 0.0009187461691908538 0.0023250547237694263 0.0052499715238809586
v 0.0009187461691908538 0.0023250547237694263 0.0052499715238809586
v 0.0003783760475926101 0.0024712043814361095 -0.0052499789744615555
v 0.0003783760475926101 0.0024712043814361095 -0.0052499789744615555
v -0.0003026638296432793 -0.001976964995265007 -0.005749998614192009
v -0.0003026638296432793 -0.001976964995265007 -0.005749998614192009
v -0.0003026638296432793 -0.001976964995265007 -0.005749998614192009
v -0.0007349744555540383 -0.0018600254552438855 -0.005749998614192009
v -0.0007349744555540383 -0.0018600254552438855 -0.005749998614192009
v 5.754518639378148e-09 -5.211902465163121e-09 -0.005749998614192009
v 5.754518639378148e-09 -5.211902465163121e-09 -0.005749998614192009
v 5.754518639378148e-09 -5.211902465163121e-09 -0.005749998614192009
v 5.754518639378148e-09 -5.211902465163121e-09 -0.005749998614192009
v 5.754518639378148e-09 -5.211902465163121e-09 -0.005749998614192009
v 5.754518639378148e-09 -5.211902465163121e-09 -0.005749998614192009
v 5.754518639378148e-09 -5.211902465163121e-09 -0.005749998614192009
v 5.754518639378148e-09 -5.211902465163121e-09 -0.005749998614192009
v 5.754518639378148e-09 -5.211902465163121e-09 -0.005749998614192009
v 5.754518639378148e-09 -5.211902465163121e-09 -0.005749998614192009
v 5.754518639378148e-09 -5.211902465163121e-09 -0.005749998614192009
v 5.754518639378148e-09 -5.211902465163121e-09 -0.005749998614192009
v 5.754518639378148e-09 -5.211902465163121e-09 -0.005749998614192009
v 5.754518639378148e-09 -5.211902465163121e-09 -0.005749998614192009
v 5.754518639378148e-09 -5.211902465163121e-09 -0.005749998614192009
v 0.0009959955932572484 -0.0017343751387670636 -0.005749998614192009
v 0.0009959955932572484 -0.0017343751387670636 -0.005749998614192009
v 0.0009959955932572484 -0.0017343751387670636 -0.005749998614192009
v 0.0005850858869962394 -0.0019125352846458554 -0.005749998614192009
v 0.0005850858869962394 -0.0019125352846458554 -0.005749998614192009
v 0.00014484596613328904 -0.001994725316762924 -0.005749998614192009
v 0.00014484596613328904 -0.001994725316762924 -0.005749998614192009
v 0.00014484596613328904 -0.001994725316762924 -0.005749998614192009
v 0.0018600263865664601 -0.0007350455271080136 -0.005749998614192009
v 0.0018600263865664601 -0.0007350455271080136 -0.005749998614192009
v 0.0016498557524755597 -0.0011304655345156789 -0.005749998614192009
v 0.0016498557524755597 -0.0011304655345156789 -0.005749998614192009
v 0.0016498557524755597 -0.0011304655345156789 -0.005749998614192009
v 0.001356965978629887 -0.0014692555414512753 -0.005749998614192009
v 0.001356965978629887 -0.0014692555414512753 -0.005749998614192009
v 0.001356965978629887 -0.0014692555414512753 -0.005749998614192009
v 0.00191253621596843 0.0005850748857483268 -0.005749998614192009
v 0.00191253621596843 0.0005850748857483268 -0.005749998614192009
v 0.00191253621596843 0.0005850748857483268 -0.005749998614192009
v 0.0019947264809161425 0.00014483500854112208 -0.005749998614192009
v 0.0019947264809161425 0.00014483500854112208 -0.005749998614192009
v 0.0019947264809161425 0.00014483500854112208 -0.005749998614192009
v 0.0019769661594182253 -0.0003026757331099361 -0.005749998614192009
v 0.0019769661594182253 -0.0003026757331099361 -0.005749998614192009
v 0.0011304655345156789 0.0016498550539836287 -0.005749998614192009
v 0.0011304655345156789 0.0016498550539836287 -0.005749998614192009
v 0.0011304655345156789 0.0016498550539836287 -0.005749998614192009
v 0.0014693160774186254 0.0013568944996222854 -0.005749998614192009
v 0.0014693160774186254 0.0013568944996222854 -0.005749998614192009
v 0.0014693160774186254 0.0013568944996222854 -0.005749998614192009
v 0.0017343760700896382 0.0009959948947653174 -0.005749998614192009
v 0.0017343760700896382 0.0009959948947653174 -0.005749998614192009
v 0.0017343760700896382 0.0009959948947653174 -0.005749998614192009
v -0.00014477393415290862 0.001994724851101637 -0.005749998614192009
v -0.00014477393415290862 0.001994724851101637 -0.005749998614192009
v -0.00014477393415290862 0.001994724851101637 -0.005749998614192009
v 0.0003026762860827148 0.0019769645296037197 -0.005749998614192009
v 0.0003026762860827148 0.0019769645296037197 -0.005749998614192009
v 0.0003026762860827148 0.0019769645296037197 -0.005749998614192009
v 0.0007350455853156745 0.0018600145122036338 -0.005749998614192009
v 0.0007350455853156745 0.0018600145122036338 -0.005749998614192009
v 0.0007350455853156745 0.0018600145122036338 -0.005749998614192009
v -0.001356894033960998 0.0014692445984110236 -0.005749998614192009
v -0.001356894033960998 0.0014692445984110236 -0.005749998614192009
v -0.001356894033960998 0.0014692445984110236 -0.005749998614192009
v -0.0009959236485883594 0.0017343744402751327 -0.005749998614192009
v -0.0009959236485883594 0.0017343744402751327 -0.005749998614192009
v -0.0009959236485883594 0.0017343744402751327 -0.005749998614192009
v -0.0005850743618793786 0.0019125243416056037 -0.005749998614192009
v -0.0005850743618793786 0.0019125243416056037 -0.005749998614192009
v -0.0005850743618793786 0.0019125243416056037 -0.005749998614192009
v -0.0019769638311117887 0.00030267462716437876 -0.005749998614192009
v -0.0019769638311117887 0.00030267462716437876 -0.005749998614192009
v -0.0018600140465423465 0.0007350448286160827 -0.005749998614192009
v -0.0018600140465423465 0.0007350448286160827 -0.005749998614192009
v -0.0018600140465423465 0.0007350448286160827 -0.005749998614192009
v -0.0016498536569997668 0.0011305244406685233 -0.005749998614192009
v -0.0016498536569997668 0.0011305244406685233 -0.005749998614192009
v -0.0016498536569997668 0.0011305244406685233 -0.005749998614192009
v -0.0017343739746138453 -0.0009959355229511857 -0.005749998614192009
v -0.0017343739746138453 -0.0009959355229511857 -0.005749998614192009
v -0.0017343739746138453 -0.0009959355229511857 -0.005749998614192009
v -0.001912464271299541 -0.0005850853631272912 -0.005749998614192009
v -0.001912464271299541 -0.0005850853631272912 -0.005749998614192009
v -0.001912464271299541 -0.0005850853631272912 -0.005749998614192009
v -0.001994724152609706 -0.00014478489174507558 -0.005749998614192009
v -0.001994724152609706 -0.00014478489174507558 -0.005749998614192009
v -0.001994724152609706 -0.00014478489174507558 -0.005749998614192009
v -0.0011304541258141398 -0.0016498552868142724 -0.005749998614192009
v -0.0011304541258141398 -0.0016498552868142724 -0.005749998614192009
v -0.0011304541258141398 -0.0016498552868142724 -0.005749998614192009
v -0.0014692441327497363 -0.0013569655129685998 -0.005749998614192009
v -0.0014692441327497363 -0.0013569655129685998 -0.005749998614192009
v -0.0014692441327497363 -0.0013569655129685998 -0.005749998614192009
v -0.0003026638296432793 -0.001976964995265007 0.005750000476837158
v -0.0003026638296432793 -0.001976964995265007 0.005750000476837158
v -0.0003026638296432793 -0.001976964995265007 0.005750000476837158
v 0.00014484596613328904 -0.001994725316762924 0.005750000476837158
v 0.00014484596613328904 -0.001994725316762924 0.005750000476837158
v 5.754518639378148e-09 -5.211902465163121e-09 0.005750000476837158
v 5.754518639378148e-09 -5.211902465163121e-09 0.005750000476837158
v 5.754518639378148e-09 -5.211902465163121e-09 0.005750000476837158
v 5.754518639378148e-09 -5.211902465163121e-09 0.005750000476837158
v 5.754518639378148e-09 -5.211902465163121e-09 0.005750000476837158
v 5.754518639378148e-09 -5.211902465163121e-09 0.005750000476837158
v 5.754518639378148e-09 -5.211902465163121e-09 0.005750000476837158
v 5.754518639378148e-09 -5.211902465163121e-09 0.005750000476837158
v 5.754518639378148e-09 -5.211902465163121e-09 0.005750000476837158
v 5.754518639378148e-09 -5.211902465163121e-09 0.005750000476837158
v 5.754518639378148e-09 -5.211902465163121e-09 0.005750000476837158
v 5.754518639378148e-09 -5.211902465163121e-09 0.005750000476837158
v 5.754518639378148e-09 -5.211902465163121e-09 0.005750000476837158
v 5.754518639378148e-09 -5.211902465163121e-09 0.005750000476837158
v 5.754518639378148e-09 -5.211902465163121e-09 0.005750000476837158
v 5.754518639378148e-09 -5.211902465163121e-09 0.005750000476837158
v 5.754518639378148e-09 -5.211902465163121e-09 0.005750000476837158
v -0.0014692441327497363 -0.0013569655129685998 0.005750000476837158
v -0.0014692441327497363 -0.0013569655129685998 0.005750000476837158
v -0.0014692441327497363 -0.0013569655129685998 0.005750000476837158
v -0.0011304541258141398 -0.0016498552868142724 0.005750000476837158
v -0.0011304541258141398 -0.0016498552868142724 0.005750000476837158
v -0.0011304541258141398 -0.0016498552868142724 0.005750000476837158
v -0.0007349744555540383 -0.0018600254552438855 0.005750000476837158
v -0.0007349744555540383 -0.0018600254552438855 0.005750000476837158
v -0.0007349744555540383 -0.0018600254552438855 0.005750000476837158
v -0.001994724152609706 -0.00014478489174507558 0.005750000476837158
v -0.001994724152609706 -0.00014478489174507558 0.005750000476837158
v -0.001912464271299541 -0.0005850853631272912 0.005750000476837158
v -0.001912464271299541 -0.0005850853631272912 0.005750000476837158
v -0.001912464271299541 -0.0005850853631272912 0.005750000476837158
v -0.0017343739746138453 -0.0009959355229511857 0.005750000476837158
v -0.0017343739746138453 -0.0009959355229511857 0.005750000476837158
v -0.0017343739746138453 -0.0009959355229511857 0.005750000476837158
v -0.0016498536569997668 0.0011305244406685233 0.005750000476837158
v -0.0016498536569997668 0.0011305244406685233 0.005750000476837158
v -0.0016498536569997668 0.0011305244406685233 0.005750000476837158
v -0.0018600140465423465 0.0007350448286160827 0.005750000476837158
v -0.0018600140465423465 0.0007350448286160827 0.005750000476837158
v -0.0018600140465423465 0.0007350448286160827 0.005750000476837158
v -0.0019769638311117887 0.00030267462716437876 0.005750000476837158
v -0.0019769638311117887 0.00030267462716437876 0.005750000476837158
v -0.0019769638311117887 0.00030267462716437876 0.005750000476837158
v -0.0005850743618793786 0.0019125243416056037 0.005750000476837158
v -0.0005850743618793786 0.0019125243416056037 0.005750000476837158
v -0.0005850743618793786 0.0019125243416056037 0.005750000476837158
v -0.0009959236485883594 0.0017343744402751327 0.005750000476837158
v -0.0009959236485883594 0.0017343744402751327 0.005750000476837158
v -0.0009959236485883594 0.0017343744402751327 0.005750000476837158
v -0.001356894033960998 0.0014692445984110236 0.005750000476837158
v -0.001356894033960998 0.0014692445984110236 0.005750000476837158
v -0.001356894033960998 0.0014692445984110236 0.005750000476837158
v 0.0007350455853156745 0.0018600145122036338 0.005750000476837158
v 0.0007350455853156745 0.0018600145122036338 0.005750000476837158
v 0.0007350455853156745 0.0018600145122036338 0.005750000476837158
v 0.0003026762860827148 0.0019769645296037197 0.005750000476837158
v 0.0003026762860827148 0.0019769645296037197 0.005750000476837158
v 0.0003026762860827148 0.0019769645296037197 0.005750000476837158
v -0.00014477393415290862 0.001994724851101637 0.005750000476837158
v -0.00014477393415290862 0.001994724851101637 0.005750000476837158
v -0.00014477393415290862 0.001994724851101637 0.005750000476837158
v 0.0017343760700896382 0.0009959948947653174 0.005750000476837158
v 0.0017343760700896382 0.0009959948947653174 0.005750000476837158
v 0.0014693160774186254 0.0013568944996222854 0.005750000476837158
v 0.0014693160774186254 0.0013568944996222854 0.005750000476837158
v 0.0014693160774186254 0.0013568944996222854 0.005750000476837158
v 0.0011304655345156789 0.0016498550539836287 0.005750000476837158
v 0.0011304655345156789 0.0016498550539836287 0.005750000476837158
v 0.0011304655345156789 0.0016498550539836287 0.005750000476837158
v 0.0019769661594182253 -0.0003026757331099361 0.005750000476837158
v 0.0019769661594182253 -0.0003026757331099361 0.005750000476837158
v 0.0019769661594182253 -0.0003026757331099361 0.005750000476837158
v 0.0019947264809161425 0.00014483500854112208 0.005750000476837158
v 0.0019947264809161425 0.00014483500854112208 0.005750000476837158
v 0.0019947264809161425 0.00014483500854112208 0.005750000476837158
v 0.00191253621596843 0.0005850748857483268 0.005750000476837158
v 0.00191253621596843 0.0005850748857483268 0.005750000476837158
v 0.001356965978629887 -0.0014692555414512753 0.005750000476837158
v 0.001356965978629887 -0.0014692555414512753 0.005750000476837158
v 0.001356965978629887 -0.0014692555414512753 0.005750000476837158
v 0.0016498557524755597 -0.0011304655345156789 0.005750000476837158
v 0.0016498557524755597 -0.0011304655345156789 0.005750000476837158
v 0.0016498557524755597 -0.0011304655345156789 0.005750000476837158
v 0.0018600263865664601 -0.0007350455271080136 0.005750000476837158
v 0.0018600263865664601 -0.0007350455271080136 0.005750000476837158
v 0.0018600263865664601 -0.0007350455271080136 0.005750000476837158
v 0.0005850858869962394 -0.0019125352846458554 0.005750000476837158
v 0.0005850858869962394 -0.0019125352846458554 0.005750000476837158
v 0.0005850858869962394 -0.0019125352846458554 0.005750000476837158
v 0.0009959955932572484 -0.0017343751387670636 0.005750000476837158
v 0.0009959955932572484 -0.0017343751387670636 0.005750000476837158
v 0.0009959955932572484 -0.0017343751387670636 0.005750000476837158
f 1 4 5
f 5 4 7
f 5 7 10
f 10 7 12
f 10 12 13
f 13 12 15
f 13 15 17
f 17 15 19
f 17 19 21
f 21 19 24
f 21 24 26
f 26 24 28
f 26 28 29
f 29 28 31
f 29 31 34
f 34 31 35
f 34 35 38
f 38 35 39
f 38 39 41
f 41 39 43
f 41 43 45
f 45 43 48
f 45 48 49
f 49 48 51
f 49 51 53
f 53 51 56
f 53 56 57
f 57 56 60
f 57 60 61
f 61 60 63
f 61 63 66
f 66 63 68
f 66 68 69
f 69 68 72
f 69 72 74
f 74 72 75
f 74 75 78
f 78 75 79
f 78 79 81
f 81 79 84
f 81 84 86
f 86 84 88
f 86 88 90
f 90 88 91
f 90 91 93
f 93 91 95
f 93 95 97
f 97 95 100
f 97 100 101
f 101 100 104
f 101 104 106
f 106 104 108
f 106 108 109
f 109 108 112
f 109 112 1
f 1 112 4
f 114 117 130
f 134 136 130
f 130 136 140
f 124 138 115
f 142 144 130
f 129 143 148
f 127 146 133
f 151 152 120
f 130 153 156
f 130 156 142
f 159 161 122
f 131 162 165
f 130 164 150
f 168 169 130
f 132 171 173
f 125 172 157
f 176 179 130
f 121 178 181
f 123 183 167
f 184 188 130
f 126 186 190
f 128 189 177
f 194 197 130
f 129 195 199
f 130 198 184
f 117 202 130
f 119 203 206
f 118 205 193
f 209 211 224
f 231 234 224
f 216 232 237
f 213 235 208
f 239 240 224
f 227 241 244
f 222 243 230
f 247 251 224
f 219 250 252
f 224 253 239
f 257 258 224
f 221 259 262
f 218 261 248
f 265 268 224
f 215 269 271
f 220 272 256
f 273 276 224
f 212 275 280
f 219 279 266
f 282 284 214
f 224 286 287
f 224 287 273
f 289 292 217
f 228 293 296
f 223 297 283
f 211 298 224
f 225 300 303
f 226 301 291
f 111 166 3
f 3 166 182
f 3 182 8
f 8 182 180
f 8 180 11
f 11 180 175
f 11 175 16
f 16 175 191
f 16 191 20
f 20 191 187
f 20 187 23
f 23 187 185
f 23 185 27
f 27 185 200
f 27 200 32
f 32 200 196
f 32 196 36
f 36 196 192
f 36 192 40
f 40 192 204
f 40 204 44
f 44 204 201
f 44 201 47
f 47 201 116
f 47 116 52
f 52 116 113
f 52 113 55
f 55 113 139
f 55 139 59
f 59 139 137
f 59 137 64
f 64 137 135
f 64 135 67
f 67 135 147
f 67 147 71
f 71 147 145
f 71 145 76
f 76 145 141
f 76 141 80
f 80 141 155
f 80 155 83
f 83 155 154
f 83 154 87
f 87 154 149
f 87 149 92
f 92 149 163
f 92 163 96
f 96 163 160
f 96 160 99
f 99 160 158
f 99 158 103
f 103 158 174
f 103 174 107
f 107 174 170
f 107 170 111
f 111 170 166
f 58 236 54
f 54 236 233
f 54 233 50
f 50 233 229
f 50 229 46
f 46 229 245
f 46 245 42
f 42 245 242
f 42 242 37
f 37 242 238
f 37 238 33
f 33 238 254
f 33 254 30
f 30 254 249
f 30 249 25
f 25 249 246
f 25 246 22
f 22 246 263
f 22 263 18
f 18 263 260
f 18 260 14
f 14 260 255
f 14 255 9
f 9 255 270
f 9 270 6
f 6 270 267
f 6 267 2
f 2 267 264
f 2 264 110
f 110 264 278
f 110 278 105
f 105 278 277
f 105 277 102
f 102 277 274
f 102 274 98
f 98 274 288
f 98 288 94
f 94 288 285
f 94 285 89
f 89 285 281
f 89 281 85
f 85 281 295
f 85 295 82
f 82 295 294
f 82 294 77
f 77 294 290
f 77 290 73
f 73 290 302
f 73 302 70
f 70 302 299
f 70 299 65
f 65 299 210
f 65 210 62
f 62 210 207
f 62 207 58
f 58 207 236
